<svg xmlns="http://www.w3.org/2000/svg" width="176.37" height="199.54" viewBox="0 0 46.665 52.795"><path style="opacity:1;vector-effect:none;fill:none;fill-opacity:.39215686;stroke:#646464;stroke-width:.30000001;stroke-linecap:round;stroke-linejoin:miter;stroke-miterlimit:4;stroke-dasharray:none;stroke-dashoffset:0;stroke-opacity:1" d="M52.052 42.447h7.667v7.667h-7.667z" transform="translate(-47.888 -32.153)"/><path style="opacity:1;vector-effect:none;fill:none;fill-opacity:.39215686;stroke:#646464;stroke-width:.30000001;stroke-linecap:round;stroke-linejoin:miter;stroke-miterlimit:4;stroke-dasharray:none;stroke-dashoffset:0;stroke-opacity:1" d="M59.719 42.447h7.667v7.667h-7.667zm7.668 0h7.667v7.667h-7.667zm7.667 0h7.667v7.667h-7.667zm7.667 0h7.667v7.667h-7.667z" transform="translate(-47.888 -32.153)"/><path style="opacity:1;vector-effect:none;fill:none;fill-opacity:.39215686;stroke:#646464;stroke-width:.30000001;stroke-linecap:round;stroke-linejoin:miter;stroke-miterlimit:4;stroke-dasharray:none;stroke-dashoffset:0;stroke-opacity:1" d="M52.052 50.114h7.667v7.667h-7.667z" transform="translate(-47.888 -32.153)"/><path style="opacity:1;vector-effect:none;fill:none;fill-opacity:.39215686;stroke:#646464;stroke-width:.30000001;stroke-linecap:round;stroke-linejoin:miter;stroke-miterlimit:4;stroke-dasharray:none;stroke-dashoffset:0;stroke-opacity:1" d="M59.719 50.114h7.667v7.667h-7.667zm7.668 0h7.667v7.667h-7.667zm7.667 0h7.667v7.667h-7.667zm7.667 0h7.667v7.667h-7.667zm-30.669 7.668h7.667v7.667h-7.667z" transform="translate(-47.888 -32.153)"/><path style="opacity:1;vector-effect:none;fill:none;fill-opacity:.39215686;stroke:#646464;stroke-width:.30000001;stroke-linecap:round;stroke-linejoin:miter;stroke-miterlimit:4;stroke-dasharray:none;stroke-dashoffset:0;stroke-opacity:1" d="M59.719 57.782h7.667v7.667h-7.667zm7.668 0h7.667v7.667h-7.667zm7.667 0h7.667v7.667h-7.667zm7.667 0h7.667v7.667h-7.667zm-30.669 7.667h7.667v7.667h-7.667z" transform="translate(-47.888 -32.153)"/><path style="opacity:1;vector-effect:none;fill:none;fill-opacity:.39215686;stroke:#646464;stroke-width:.30000001;stroke-linecap:round;stroke-linejoin:miter;stroke-miterlimit:4;stroke-dasharray:none;stroke-dashoffset:0;stroke-opacity:1" d="M59.719 65.449h7.667v7.667h-7.667zm7.668 0h7.667v7.667h-7.667zm7.667 0h7.667v7.667h-7.667zm7.667 0h7.667v7.667h-7.667zm-30.669 7.667h7.667v7.667h-7.667z" transform="translate(-47.888 -32.153)"/><path style="opacity:1;vector-effect:none;fill:none;fill-opacity:.39215686;stroke:#646464;stroke-width:.30000001;stroke-linecap:round;stroke-linejoin:miter;stroke-miterlimit:4;stroke-dasharray:none;stroke-dashoffset:0;stroke-opacity:1" d="M59.719 73.116h7.667v7.667h-7.667zm7.668 0h7.667v7.667h-7.667zm7.667 0h7.667v7.667h-7.667zm7.667 0h7.667v7.667h-7.667z" transform="translate(-47.888 -32.153)"/><path style="fill:none;stroke:#646464;stroke-width:.30000001;stroke-linecap:butt;stroke-linejoin:miter;stroke-miterlimit:4;stroke-dasharray:none;stroke-opacity:1" d="M52.052 42.447v-4.164m7.668 4.164v-4.164m7.667 4.164v-4.164m7.667 4.164v-4.164m7.667 4.164v-4.164m7.668 4.164v-4.164M52.052 84.948v-4.164m7.668 4.164v-4.164m7.667 4.164v-4.164m7.667 4.164v-4.164m7.667 4.164v-4.164m7.668 4.164v-4.164m4.164-38.337h-4.164m4.164 7.667h-4.164m4.164 7.668h-4.164m4.164 7.668h-4.164m4.164 7.666h-4.164m4.164 7.668h-4.164M52.052 42.447h-4.164m4.164 7.667h-4.164m4.164 7.668h-4.164m4.164 7.668h-4.164m4.164 7.666h-4.164m4.164 7.668h-4.164" transform="translate(-47.888 -32.153)"/><text xml:space="preserve" style="font-style:normal;font-weight:400;font-size:4.23333311px;line-height:1.25;font-family:sans-serif;letter-spacing:0;word-spacing:0;fill:#000;fill-opacity:1;stroke:none;stroke-width:.26458332" x="63.491" y="35.369" transform="translate(-47.888 -32.153)"><tspan x="63.491" y="35.369" style="stroke-width:.26458332">Rombe</tspan></text><path style="fill:#960000;fill-opacity:.58823529;stroke:#960000;stroke-width:.5;stroke-linecap:butt;stroke-linejoin:miter;stroke-miterlimit:4;stroke-dasharray:none;stroke-opacity:1" d="m59.72 57.782 7.667-15.335 7.667 15.335-7.667 15.334-7.668-15.334" transform="translate(-47.888 -32.153)"/><path style="fill:none;stroke:#000;stroke-width:.5;stroke-linecap:butt;stroke-linejoin:miter;stroke-miterlimit:4;stroke-dasharray:2,2;stroke-dashoffset:0;stroke-opacity:1" d="M59.72 57.782h15.335m-7.668 15.356v-30.69" transform="translate(-47.888 -32.153)"/><text xml:space="preserve" style="font-style:normal;font-weight:400;font-size:4.23333311px;line-height:1.25;font-family:sans-serif;letter-spacing:0;word-spacing:0;fill:#000;fill-opacity:1;stroke:none;stroke-width:.26458332" x="64.094" y="51.969" transform="translate(-47.888 -32.153)"><tspan x="64.094" y="51.969" style="stroke-width:.26458332">1</tspan></text><text xml:space="preserve" style="font-style:normal;font-weight:400;font-size:4.23333311px;line-height:1.25;font-family:sans-serif;letter-spacing:0;word-spacing:0;fill:#000;fill-opacity:1;stroke:none;stroke-width:.26458332" x="67.83" y="51.967" transform="translate(-47.888 -32.153)"><tspan x="67.83" y="51.967" style="stroke-width:.26458332">1</tspan></text><text xml:space="preserve" style="font-style:normal;font-weight:400;font-size:4.23333311px;line-height:1.25;font-family:sans-serif;letter-spacing:0;word-spacing:0;fill:#000;fill-opacity:1;stroke:none;stroke-width:.26458332" x="64.113" y="66.48" transform="translate(-47.888 -32.153)"><tspan x="64.113" y="66.48" style="stroke-width:.26458332">1</tspan></text><text xml:space="preserve" style="font-style:normal;font-weight:400;font-size:4.23333311px;line-height:1.25;font-family:sans-serif;letter-spacing:0;word-spacing:0;fill:#000;fill-opacity:1;stroke:none;stroke-width:.26458332" x="67.849" y="66.478" transform="translate(-47.888 -32.153)"><tspan x="67.849" y="66.478" style="stroke-width:.26458332">1</tspan></text></svg>