<svg xmlns="http://www.w3.org/2000/svg" width="176.37" height="199.54" viewBox="0 0 46.665 52.795"><path style="opacity:1;vector-effect:none;fill:none;fill-opacity:.39215686;stroke:#646464;stroke-width:.30000001;stroke-linecap:round;stroke-linejoin:miter;stroke-miterlimit:4;stroke-dasharray:none;stroke-dashoffset:0;stroke-opacity:1" d="M52.052 42.447h7.667v7.667h-7.667z" transform="translate(-47.888 -32.153)"/><path style="opacity:1;vector-effect:none;fill:none;fill-opacity:.39215686;stroke:#646464;stroke-width:.30000001;stroke-linecap:round;stroke-linejoin:miter;stroke-miterlimit:4;stroke-dasharray:none;stroke-dashoffset:0;stroke-opacity:1" d="M59.719 42.447h7.667v7.667h-7.667zm7.668 0h7.667v7.667h-7.667zm7.667 0h7.667v7.667h-7.667zm7.667 0h7.667v7.667h-7.667z" transform="translate(-47.888 -32.153)"/><path style="opacity:1;vector-effect:none;fill:none;fill-opacity:.39215686;stroke:#646464;stroke-width:.30000001;stroke-linecap:round;stroke-linejoin:miter;stroke-miterlimit:4;stroke-dasharray:none;stroke-dashoffset:0;stroke-opacity:1" d="M52.052 50.114h7.667v7.667h-7.667z" transform="translate(-47.888 -32.153)"/><path style="opacity:1;vector-effect:none;fill:none;fill-opacity:.39215686;stroke:#646464;stroke-width:.30000001;stroke-linecap:round;stroke-linejoin:miter;stroke-miterlimit:4;stroke-dasharray:none;stroke-dashoffset:0;stroke-opacity:1" d="M59.719 50.114h7.667v7.667h-7.667zm7.668 0h7.667v7.667h-7.667zm7.667 0h7.667v7.667h-7.667zm7.667 0h7.667v7.667h-7.667zm-30.669 7.668h7.667v7.667h-7.667z" transform="translate(-47.888 -32.153)"/><path style="opacity:1;vector-effect:none;fill:none;fill-opacity:.39215686;stroke:#646464;stroke-width:.30000001;stroke-linecap:round;stroke-linejoin:miter;stroke-miterlimit:4;stroke-dasharray:none;stroke-dashoffset:0;stroke-opacity:1" d="M59.719 57.782h7.667v7.667h-7.667zm7.668 0h7.667v7.667h-7.667zm7.667 0h7.667v7.667h-7.667zm7.667 0h7.667v7.667h-7.667zm-30.669 7.667h7.667v7.667h-7.667z" transform="translate(-47.888 -32.153)"/><path style="opacity:1;vector-effect:none;fill:none;fill-opacity:.39215686;stroke:#646464;stroke-width:.30000001;stroke-linecap:round;stroke-linejoin:miter;stroke-miterlimit:4;stroke-dasharray:none;stroke-dashoffset:0;stroke-opacity:1" d="M59.719 65.449h7.667v7.667h-7.667zm7.668 0h7.667v7.667h-7.667zm7.667 0h7.667v7.667h-7.667zm7.667 0h7.667v7.667h-7.667zm-30.669 7.667h7.667v7.667h-7.667z" transform="translate(-47.888 -32.153)"/><path style="opacity:1;vector-effect:none;fill:none;fill-opacity:.39215686;stroke:#646464;stroke-width:.30000001;stroke-linecap:round;stroke-linejoin:miter;stroke-miterlimit:4;stroke-dasharray:none;stroke-dashoffset:0;stroke-opacity:1" d="M59.719 73.116h7.667v7.667h-7.667zm7.668 0h7.667v7.667h-7.667zm7.667 0h7.667v7.667h-7.667zm7.667 0h7.667v7.667h-7.667z" transform="translate(-47.888 -32.153)"/><path style="fill:none;stroke:#646464;stroke-width:.30000001;stroke-linecap:butt;stroke-linejoin:miter;stroke-miterlimit:4;stroke-dasharray:none;stroke-opacity:1" d="M52.052 42.447v-4.164m7.668 4.164v-4.164m7.667 4.164v-4.164m7.667 4.164v-4.164m7.667 4.164v-4.164m7.668 4.164v-4.164M52.052 84.948v-4.164m7.668 4.164v-4.164m7.667 4.164v-4.164m7.667 4.164v-4.164m7.667 4.164v-4.164m7.668 4.164v-4.164m4.164-38.337h-4.164m4.164 7.667h-4.164m4.164 7.668h-4.164m4.164 7.668h-4.164m4.164 7.666h-4.164m4.164 7.668h-4.164M52.052 42.447h-4.164m4.164 7.667h-4.164m4.164 7.668h-4.164m4.164 7.668h-4.164m4.164 7.666h-4.164m4.164 7.668h-4.164" transform="translate(-47.888 -32.153)"/><path style="opacity:1;vector-effect:none;fill:#960000;fill-opacity:.58823529;stroke:#960000;stroke-width:.49999988;stroke-linecap:round;stroke-linejoin:miter;stroke-miterlimit:4;stroke-dasharray:none;stroke-dashoffset:0;stroke-opacity:1" d="M52.052 42.447h30.669v7.667H52.052z" transform="translate(-47.888 -32.153)"/><text xml:space="preserve" style="font-style:normal;font-weight:400;font-size:4.23333311px;line-height:1.25;font-family:sans-serif;letter-spacing:0;word-spacing:0;fill:#000;fill-opacity:1;stroke:none;stroke-width:.26458332" x="60.316" y="35.369" transform="translate(-47.888 -32.153)"><tspan x="60.316" y="35.369" style="stroke-width:.26458332">Rektangel</tspan></text></svg>