<svg xmlns="http://www.w3.org/2000/svg" width="318.889" height="181.623" viewBox="0 0 84.373 48.054"><path style="fill:none;stroke:#000;stroke-width:.5;stroke-linecap:butt;stroke-linejoin:miter;stroke-miterlimit:4;stroke-dasharray:none;stroke-opacity:1" d="m11.493 34.14 74.942-20.08M20.794 57.01l74.942-20.081M23.119 18.906l.935.267 60.27 31.004" transform="translate(-11.428 -9.197)"/><path style="opacity:1;fill:none;fill-opacity:.41860465;stroke:#000;stroke-width:.5;stroke-linecap:round;stroke-miterlimit:4;stroke-dasharray:none;stroke-dashoffset:0;stroke-opacity:1" d="M65.627 44.955a5.622 5.622 0 0 1 .408-4.055l5.01 2.552zm-32.27-16.757a5.622 5.622 0 0 1 .408-4.056l5.01 2.553z" transform="translate(-11.428 -9.197)"/><text xml:space="preserve" style="font-style:normal;font-weight:400;font-size:4.23333311px;line-height:1.25;font-family:sans-serif;letter-spacing:0;word-spacing:0;fill:#000;fill-opacity:1;stroke:none;stroke-width:.26458332" x="59.334" y="43.762" transform="translate(-11.428 -9.197)"><tspan x="59.334" y="43.762" style="font-style:italic;font-size:5.29166651px;stroke-width:.26458332">w</tspan></text><text xml:space="preserve" style="font-style:normal;font-weight:400;font-size:4.23333311px;line-height:1.25;font-family:sans-serif;letter-spacing:0;word-spacing:0;fill:#000;fill-opacity:1;stroke:none;stroke-width:.26458332" x="27.93" y="26.924" transform="translate(-11.428 -9.197)"><tspan x="27.93" y="26.924" style="font-style:italic;font-size:5.29166651px;stroke-width:.26458332">v</tspan></text><text xml:space="preserve" style="font-style:normal;font-weight:400;font-size:4.23333311px;line-height:1.25;font-family:sans-serif;letter-spacing:0;word-spacing:0;fill:#000;fill-opacity:1;stroke:none;stroke-width:.26458332" x="44.634" y="12.091" transform="translate(-11.428 -9.197)"><tspan x="44.634" y="12.091" style="font-style:italic;font-size:5.29166651px;stroke-width:.26458332">v=w</tspan></text></svg>