<svg xmlns="http://www.w3.org/2000/svg" width="148" height="242" style="enable-background:new 0 0 148 242" xml:space="preserve"><path d="M16.18 36.11c-.06-1.08-.11-2.61-.14-4.3.01-.01.02-.02.02-.04.15-.31.11-.6-.03-.84-.02-2.37.02-4.93.14-6.95 0-1.3-1.99-1.31-2 0-.07 1.86-.15 4.17-.16 6.41-.59.01-1.31.05-1.61.02-1.73-.08-4.12.14-5.13.3.31-1.65.45-3.34.53-5.02-.06-.79.36-1.76-.21-2.41-.59-.63-1.74-.16-1.71.71-.13 2.83-.18 4.52-.68 6.97-.08.33-.19.67-.09 1.01.2.73 1 .97 1.68.79.09-.01.19-.02.26-.02 1.28-.08 1.32-.22 2.29-.28 1.55-.06 3.11-.05 4.67-.05.03 1.86.13 3.56.34 4.75.18.74-.15 1.66.38 2.27.44.46 1.26.35 1.57-.2.35-.99.03-2.12-.12-3.12zm38.1-10.82c-.12-.02-.14-.02 0 0z"/><path d="M58.58 35.74c-1.25-.35-1.73 0-2.54-.34l-.09-.03a6.81 6.81 0 0 1-.63-.41c-.03-.03-.07-.06-.09-.1-.13-.17-.37-.45-.48-.5-.28-.18-.6-.28-.92-.35a20.22 20.22 0 0 0 2.57-3.45c.58-1.09 1.09-2.34.91-3.59-.17-1.95-1.24-3.86-3.43-3.71-1.14.04-2.11.74-3 1.39-.78.53-1.35 1.34-1.49 1.54-.31.48-.81.92-.92 1.49-.2 1.05 1.35 1.57 1.85.64 1.12-1.65 1.78-2.43 3.55-3.06.17 0 .44 0 .55.03-.06-.01-.08-.01-.11-.01.04.01.09.02.15.03.05.01.1.02.15.04.5.5.36.36.68 1.48.1.61.18.76-.24 1.92-.76 1.86-2.59 4.13-4.93 5.98-.11.07-.23.14-.33.22-1.23.46-1.47 2.06-.02 2.24.51 0 .89-.35 1.26-.64.08-.06.15-.13.23-.19 1.2-.7 1.54-.55 2.35-.37.03.03.05.06.08.08.05.07.11.14.15.2.32.34.74.59 1.14.82.8.4 1.71.48 2.59.49.43.01.92.06 1.23-.29.44-.42.33-1.24-.22-1.55zM80.46 30c-.11-2.73-2.16-5.33-4.08-5.92-.78-.23-1.33.02-1.58.41-1.72-.03-3.5.2-4.94 1.11-1.86 2.35-2.93 4.37-2.39 7.31.4 1.86 2.08 2.96 3.74 3.65 1.49.61 3.36 1.32 4.88.48 1.79-.42 4.73-4.14 4.37-7.04zm-3.06 3.45c-.7 1.18-2.43 2.04-2.73 1.96-1.25.12-3.96-1.21-4.56-1.79-.63-.62-.33-.26-.75-1.41-.33-1.46.64-3.68 1.83-5.12l.02-.02h.01c.57-.19 1.15-.38 1.75-.48.08-.03 1.77-.2 2.69-.09.32.03.68.09.99.01.01.01.02.01.03.02.28.23.54.49.77.76 1.09 1.67 1.61 3.7-.05 6.16zm21.49-6.31c-.43-.59-.98-1.06-1.56-1.51.01-.53-.35-1.09-.98-1.07-2.11-.18-4.23.24-6.21.94-.69.27-1.42.53-1.83 1.19-.9 1.42-1.82 2.85-2.05 4.55-.23 1.14-.49 2.4-.02 3.51 1.35 2.04 3.8 3.29 6.22 3.36 3.02-.61 6.4-2.36 7.05-5.64.17-1.77.21-3.7-.62-5.33zm-1.38 5.19c-.25.71-.68 1.48-1.7 2.34-.02.02-.04.03-.08.05-1.17.72-2.81 1.28-3.42 1.41-1.35-.17-2.87-.62-4.24-2.2a.219.219 0 0 1-.03-.05c-.11-.52-.04-1.41.27-2.6 0-.21.25-.97.32-1.19.43-.8 1.28-2.21 1.42-2.36.6-.34 1.11-.47 2.23-.78 1.25-.37 1.97-.38 2.95-.4l.27.18c.3.21.93.71 1.64 1.39.04.06.08.12.11.19.06.19.21.62.23.76.12.14.17 3.11.03 3.26zm19.85 1.28c0-.03 0-.05-.01-.1.05-2.92.52-5.41.74-7.7-.08-1.05-1.7-1.16-1.95-.13-.29 1.84-.54 3.73-.66 5.53-.07.02-.15.03-.22.08h-.15c-.6-.02-.64-.09-1.65-.16-.89-.09-2.29.1-3.32.27.56-1.75.93-3.55 1.2-5.37.1-.38-.03-.83-.36-1.05-.52-.45-1.41-.14-1.57.52-.29 1.92-.67 3.84-1.3 5.68-1.42 3.52 2.23 2.18 2.95 2.05 1.44-.14 2.55-.13 3.36.01.32.04.66.07.99.05 0 .93.05 1.81.17 2.61.18.82-.13 2.24 1.01 2.39 1.47-.04 1.11-1.2 1.03-2.02-.1-.9-.1-1.79-.26-2.66zM139 28.34a9.857 9.857 0 0 0-1.3-2.81c-.03-.4-.26-.79-.67-.91-.24-.26-.54-.47-.91-.53-.57-.18-1.19.02-1.44.48-1.95.13-3.9.63-5.62 1.5-1.17 1.1-2.36 2.34-2.67 4.36-.32 1.87-.43 4.07 1.03 5.5 2 1.76 5.13 2.59 7.65 1.54 1.07-.64 2.28-1.2 2.99-2.26 1.36-1.96 2.07-4.65.94-6.87zm-1.73 4.12c-.02.05-.03.08-.04.11-.15.34-.3.68-.46 1.01-.05.13-.31.48-.41.62-.4.5-2.02 1.44-2.32 1.55-1.02.51-3.25-.08-3.97-.44-1.98-.77-1.99-2.44-1.78-4.02.17-1.54.58-1.97 1.19-2.74.84-1 .39-.77 1.85-1.27 1.92-.66 3.03-.7 4.66-.75.79 1.16.93 1.9 1.55 3.55.05.24.11 1.17-.27 2.38z"/><path d="M143.89 20.47c-1.95-.46-4.01 0-5.99-.35-1.86-.22-4.03-.25-6.51-.21-1.94-.13-3.87-.25-5.82-.19-4.92-.1-9.83.15-14.74.19-5.55.11-11.11.17-16.66.37-5.85.18-11.7-.36-17.55-.07-11.33.71-24.65-.39-34.96.26-1.59-.09-3.13.14-4.66.55-2.2.59-4.53 1.96-4.97 4.38-.01 3.74.47 8.78-.29 12.25-1.75 5.22-17.48 3.65-25.43 3.4-.96-.04-1.91-.1-2.86-.2-.27 0-.52.11-.71.29-.61.58-.17 1.74.71 1.71 5.86.46 11.74.63 17.62.56 4.03-.26 13.05-.51 12.91-7.29.34-3.55.23-7.31.01-10.12-.15-.52.75-1.81 1.45-2.17 1.6-.85 2.33-.95 4.27-1.35 6.23-.33 16.62-.16 24.66 0 5.08.09 10.14-.25 15.21-.37 3.97.04 7.93.27 11.9.18 10.53-.11 21.05-.53 31.58-.56 4.19-.1 8.35.25 12.54.19 1.16.24 6.27.42 7.4.39.48.19 1.1.21 1.41-.26.44-.53.14-1.43-.52-1.58zM57.71 75.93c-.15-.14-1-.18-.97-.16-.16-.03-.34-.09-.44-.12-.01 0-.02-.01-.02-.01-.57-.51-1.39-1.26-2.41-1.62 1.66-1.99 2.94-4.53 2.89-7.15-.08-1.07-.57-2.19-1.45-2.83-.86-.44-1.91-.45-2.84-.3-1.27.45-2.21 1.59-2.83 2.75-.24.57-.75 1.14-.6 1.78.2.83 1.42.99 1.83.24.75-1.73 1.56-2.67 2.22-2.85.14-.01.31-.02.4-.01.12 0 .41.03.54.04.07.01.15.03.22.05.02.02.05.04.07.07.95.84.3 3.87-1.38 6.22-.12.14-1.12 1.38-1.46 1.63-.22.18-.94.83-1.24 1.12-.45.27-.9.55-1.18.98-.46.74.3 1.72 1.13 1.47.35-.16.76-.45 1.2-.81.82-.51 1.48-.9 2.22-.37.73.33 1 1.06 2.22 1.53.85.26 2.37.46 2.41-.8-.05-.35-.22-.66-.53-.85zm18.47-11.02c-.43-.27-.94-.12-1.24.22-1.67.02-3.36.35-4.87 1.06-1.01.76-1.65 1.91-2.13 3.06-1.5 3.26-.25 7.76 3.18 9.21 1.35.25 2.84.46 4.53-.56.83-.56 1.79-1.02 2.39-1.85.94-1.21 1.25-2.75 1.19-4.25.13-2.62-.23-5.87-3.05-6.89zm.82 8.9c-.67 1.41-.58 1.16-1.54 1.83-.44.27-.86.59-1.32.81-.14.07-.6.15-.82.19-.72.07-1.29-.07-1.54-.08-.28-.15-.54-.31-.8-.5-.14-.14-.41-.4-.55-.53-1.91-2.82-1.24-5.29.6-7.57.07-.06.1-.09.11-.1.44-.22 2.94-.82 3.11-.74.58-.13 1.26.1 1.84 0 .04.02.08.05.11.08.04.03.08.08.13.14.56.73.75 1.46.75 1.58.25 1.83.17 4.58-.08 4.89zM58.6 95.49c-.38-.23-.8-.1-1.2-.02-.07.01-.17.02-.27.04-.94.05-.64.1-1.39-.14-.01 0-.01-.01-.03-.01-.72-.48-1.5-.92-2.34-1.12.77-.84 1.45-1.75 2.03-2.75.76-1.17 1.5-2.5 1.33-3.94-.07-2.13-.97-4.13-3.46-3.65-1.59.19-2.65 1.75-3.54 2.95-.27.64-.88 1.27-.73 2 .2.83 1.42.99 1.83.24.59-1.46 1.77-2.71 2.45-3.16.01 0 0 0 .01-.01.27-.06.63-.11.99-.03.03.03.06.06.08.1.43.77.57 2.48.05 3.24-.69 1.32-2.03 3.2-2.47 3.69-.74.77-1.62 1.39-2.36 2.15-.96.56-1.63 1.34-.62 2.2.71.4 1.4-.17 1.79-.57.03-.01.93-.4 1.14-.5.01 0 0 0 .02-.01.05-.02.08-.02.11-.03.24-.02.49-.05.73-.02 1.16.15 1.98 1.42 3.77 1.4.71-.06 1.54-.03 2.16-.4.6-.39.52-1.33-.08-1.65zM76.51 84c-.6-.37-1.33-.22-1.64.22-1.35.06-2.67.43-3.91 1.01-.85.39-1.78.8-2.31 1.62-.53 1.08-.98 2.26-1.14 3.45.04 1.06.04 2.18.36 3.2 1.27 3.55 4.81 4.32 7.95 2.6 1.86-1.05 3.43-2.98 3.71-5.14.31-2.52-.42-5.93-3.02-6.96zm.32 8.52c-.96 1.63-3.51 2.85-5.22 2.37-.78-.5-.9-.57-1.32-.99-.01-.01-.01-.02-.02-.02-.43-.81-.48-.83-.61-1.3-.01-.06-.02-.1-.02-.12-.06-.39-.13-1.81-.15-2.04.21-1.01.72-2.3.86-2.53l.01-.01.09-.09c-.08.02.46-.34 1-.58.77-.38 1.51-.68 2.82-.95.63-.07 1.3.07 1.9-.12.03-.01.04-.03.07-.04.33.29.44.62.97 1.35 0 .01 0 .01.01.01.21.58.27 1.2.39 1.81-.03.76.1 2-.78 3.25zm-.01-82.59c-1.57-1.24-3.76-1.26-5.64-.78-.01-.75-.02-1.49-.07-2.24-.03-.29-.06-.59-.08-.89 1.93-.43 3.02-.62 4.77-.76.26 0 .52-.11.71-.29.63-.59.15-1.74-.71-1.71-2.3.25-5.1.55-6.48 1.23-.67.85-.11 2.05-.17 3.03.04.76.04 1.52.04 2.28-.14.19-.27.39-.27.54-.02.04-.02.05-.02.06-.01.03-.03.05-.03.08-.28.99.94 1.61 1.61 1.02 2.32-1.11 4.98-.65 5.48.41.39 1.04.3 1.07.34 2.3 0 .01-.01.02-.01.03-.06.12-.18.35-.25.44-.79 1.3-4.64 2.11-5.96 1.31-.84-.63-1.99.43-1.44 1.32.52.67 1.49.88 2.29.95 1.84.03 2.39 0 4.02-.53 1.43-.53 2.83-1.51 3.28-3.03.19-1.67-.04-3.63-1.41-4.77zm7.4 90.93c-.29-.3-.76-.35-1.13-.18-.32-.04-3.2-.01-3.58.02-1.88.28-2.41.4-4.31.34-7.16.04-14.31-.3-21.48-.19-3.73.14-7.51-.46-11.21-.29-.99.36-.67 1.95.39 1.91 7.58.49 15.18.34 22.77.4 4.05.25 8.14.24 12.19.07 1.94-.44 3.42-.17 5.81-.35.75-.18 1.15-1.14.55-1.73zm-4.32 7.49c-.33-.79-1.16-1.09-1.78-1.6-.61-.39-1.34-.92-2.09-.8-.2.05-.37.17-.49.33-1.44.02-2.88.17-4.26.6-.38.12-.7.38-.92.71-1.38 1.68-1.87 4.01-1.38 6.12.84 2.02 2.59 3.74 4.88 3.79 2.68.22 5.37-.73 6.31-3.38.41-1.87.73-4.04-.27-5.77zm-1.65 5.14c-.02.05-.04.11-.05.17-.77 1.62-3.01 2.35-5.55 1.55-.06-.03-.13-.07-.18-.1-.13-.13-.73-.69-.86-.86-.26-.22-.78-1.18-.78-1.26-.14-.67.01-2.84.69-3.61.07-.13.32-.47.44-.63.75-.22 2.88-.59 4.75-.46.02 0 .04-.01.06-.01.42.27.8.59 1.23.84.36.64.36.62.46.94.12.64.09 2.48-.21 3.43zm20.01-3.64c-.27-.8-.92-1.42-1.58-1.92-.07-.05-.25-.17-.43-.3.41-.61-.05-1.57-.83-1.54-3.46-.48-7 .16-8.43 3.74-1.2 4.9 1.98 7.59 6.18 7.61 3.8-.16 6.04-4.08 5.09-7.59zm-2.61 4.28c-1.53 1.6-3.04 1.53-4.58.9-.27-.12-.55-.18-.83-.27-.04-.03-.05-.03-.07-.05-.05-.04-.1-.08-.15-.13-1.27-1.25-1.28-1.43-1.22-3.52.1-.74-.11-.35.55-1.33.91-1.3.74-1.12 2.8-1.69.36-.1.82-.11 1.37-.1.52.65 1.97 1.55 2.09 1.65.49.47.6.57.67.7.02.04.04.07.06.11.41 1.21-.22 3.29-.69 3.73zm3.25 15.17c-.53-1.18-1.36-2.41-2.57-2.96a.95.95 0 0 0-.65-.58c-1.49-.54-3.12-.42-4.63-.03-.71.21-1.54.44-1.87 1.17-.48 1.12-1.63 3.51-1.26 5.57.28 1.84 1.53 3.16 3.07 4.1 1.36.6 2.9.51 4.3.13 1.84-.6 3.41-1.9 3.68-3.9.08-1.17.17-2.37-.07-3.5zm-7.78 4.89c-1.09-1.04-.68-.47-1.18-1.88-.03-.08-.04-.17-.06-.26-.01-.14-.02-.39-.01-.5-.01-.83-.02-.53.25-1.52.02-.22.37-1.12.43-1.28.11-.24.31-.71.38-.88.56-.28 2.14-.51 2.94-.48.01.02.01.04.02.05.22.4.65.48 1.07.55.65.17.54.14.74.25.21.19.38.41.59.61.16.16.59.78.71 1.14.06.81.03 1.62.01 2.43-.24.84-.12.61-.5 1.28-.91 1.12-4.14 1.99-5.39.49zm12.49 5.5c-.44-.25-.97-.11-1.44-.05-.61.16-1.54-.13-3.32-.08-3.15.27-6.3.15-9.46.2-4.98.48-10 .19-14.98.51-3.95.45-7.97.02-11.91.31-.99.35-.68 1.95.39 1.91 4.63.05 9.25.01 13.86-.36 3.87.02 7.74-.07 11.6-.27 3.6-.26 7.22.02 10.82-.3 1.73-.02 2.47.31 4.32-.09.76-.27.82-1.4.12-1.78zm-6.53 6.75c-.43-.64-1.24-.75-1.69-.33-2.75.05-5.35.25-6.65 2.66-1.01 2.05-1.44 4.54-.11 6.54 1.55 1.85 4.22 2.94 6.55 2.04 1.81-.62 3.42-2.11 3.81-4.03.54-2.38.03-5.26-1.91-6.88zm-.35 7.24c-1.18 1.91-3.42 2.67-5.58 1.23-.39-.23-.43-.3-1-.89 0 0 0-.01-.01-.01-.07-.23-.29-.94-.32-1.13-.02-.08-.04-.2-.05-.3-.01-.13-.03-.27-.02-.4.38-1.72.75-3.62 2.75-3.78 1.29-.29 1.9-.31 3.45-.3.13.11.24.22.34.35.02.04.05.09.09.15.45.8.61 1.26.83 2.49v.01c-.05 1.14-.01 1.67-.48 2.58zM99.41 8.79c-.28-1.46-.55-1.66-1.35-2.66-.34-.49-.7-.98-1.23-1.25-.17-.3-.46-.52-.84-.51-1.35-.13-2.7-.04-4.02.23-.94.11-1.8.6-2.29 1.41-1.43 1.83-1.49 4.37-1.37 6.59.87 3.16 3.92 4.82 7.06 3.93.94-.4 1.8-1.02 2.47-1.8.55-.66.81-1.73.89-1.81.66-1.28.74-2.7.68-4.13zm-2.04 2.02c-.01.17-.44 1.23-.66 1.75-.33.96-.64 1.35-2.04 2.11-.07.02-.15.05-.22.06h-.02c-.22.01-.98.06-1.26.03-.03-.01-.07-.01-.1-.02a.845.845 0 0 1-.17-.05c-.94-.26-.97-.27-1.09-.37-1.02-.78-1.01-.94-1.54-2.07-.01-.02-.01-.04-.02-.06.01-1.84.01-2.38.44-3.99-.02-.1.63-1.13.91-1.39.06-.04.12-.07.18-.1.19-.05.69-.19.86-.19.73-.13 1.22-.22 2.37-.18.48.25.69.17.98.34l.02.02c.87 1.15 1.19 1.54 1.23 1.7.31.64.15 1.21.13 2.41zm20.79 135.03c-.41-.75-1.63-.59-1.83.24-.21 1.63-.42 3.27-.52 4.91-.08.01-.15.03-.23.06-.08.01-.23.05-.33.08-.06 0-.12.01-.17.01-1.1.03-2.18-.15-3.27-.16-.46.07-.91.19-1.35.33.18-1.18.44-2.77.6-3.84.04-.61.37-1.35-.14-1.84-.59-.63-1.74-.15-1.71.71-.2 1.56-.57 3.62-.88 5.84-.15.64-.07 1.48.68 1.67.46.14.82-.15 1.2-.35.25-.08 1.34-.45 1.62-.5.06-.01.1-.02.13-.03h.04c1.13.06 2.26.21 3.39.15.12-.01.24-.03.36-.05 0 1.21.1 2.43.32 3.63-.01.22.06 1.29.34 1.41.44.46 1.26.35 1.57-.2.26-.48.09-1.05.05-1.56-.13-.86-.24-1.38-.29-2.74-.05-2.52.32-5.25.53-7 .06-.25.02-.54-.11-.77zm.66 20.22c.07-.26.03-.54-.1-.77-.41-.75-1.63-.59-1.83.24-.22 1.47-.36 2.91-.45 4.31-.24.01-.49.03-.71.01-1.47-.03-2.97.03-4.41.34.08-.47.14-.93.19-1.4l.24-3.17c0-.26-.11-.52-.29-.71-.59-.63-1.74-.15-1.71.71-.18 2.08-.2 3.64-.57 5.12-.14.5-.28 1.1.15 1.51.69.64 1.47.08 1.59.09 1.4-.3 2.26-.5 3.12-.48.76-.05 1.55.02 2.32.01-.01 1.13.01 2.23.11 3.24.19 1.1-.62 3.26 1 3.43 1.37-.08.93-1.72 1-2.65.08-2.04-.29-2.87-.15-4.58.13-2.02.32-3.93.5-5.25zm3.99 15.11-.21.07c-3.88.11-7.59.35-11.48 0-5.45-.1-10.91.22-16.35-.16-4.04.09-7.19-.65-11.51-.31-.99.36-.67 1.95.39 1.91 3.36-.07 5.78.23 8.66.37 4.83.17 9.67.23 14.51.19 2.9-.09 5.79.13 8.69.19 1.75.04 3.49-.03 5.24-.18.83-.06 1.7.1 2.51-.12 1.31-.28.89-2.29-.45-1.96zm-3.5 6.35c-.72-.77-1.5-1.18-1.75-1.52-.54-.69-1.53-.49-1.81.17-2.42.23-4.94.94-6.57 2.82-1.26 2.16-1.97 5.18-.22 7.28 1 1.08 2.2 1.93 3.7 2.07 1.96.48 4.09-.02 5.6-1.37 1.97-1.71 2.5-4.06 2.64-5.8a7.2 7.2 0 0 0-1.59-3.65zm-.8 5.53c-.3.69-.46 1.39-1.34 2.23-.58.67-2.19 1.25-2.14 1.21-1.2.17-2.74-.25-3.14-.35-.27-.07-1.63-1.3-1.62-1.42-.64-1.22-.42-2.94.64-4.69.03-.03.08-.07.13-.11.49-.38 2.36-1.59 3.88-1.63.68-.21 1.18.03 1.92-.26.87.62 1.5 1.39 1.75 2.1.49 1.82.4.81-.08 2.92zM116.05 4.16c.16-.84-.85-1.66-1.6-1.03-.2.13-.3.31-.35.52-1.25 1.49-2.72 2.82-3.9 4.34-.47.96.9 1.87 1.62 1.09.63-.71 1.31-1.4 1.97-2.1-.15 2.23-.12 4.66-.17 7.24 0 .97-.63 2.63.47 3.16.44.22 1 0 1.25-.41.25-.46.1-1.02.16-1.52.23-1.79.16-3.59.17-5.39-.13-2.37.32-3.52.38-5.9zm23.37 184.39c-.43-1.07-1.27-1.9-2.16-2.61-.37-.26-.67-.73-1.15-.77a.86.86 0 0 0-.32 0c-.08 0-.16 0-.25.03-2.34.39-4.74 1.07-6.7 2.45-.58.63-.81 1.5-1.3 2.2-.49 1.19-1.11 2.82-.49 4.05.56 1.45 1.83 2.37 3.02 3.27 1.03.62 2.35.82 3.54.83 1.53-.01 2.55-.65 3.63-1.67 1.49-1.47 2.42-3.45 2.37-5.57-.05-.73.14-1.52-.19-2.21zm-2.92 5.58c-.13.16-.38.45-.47.54-.56.64-.63.62-1.49 1.19-.11.02-.27.06-.36.08-1.15.14-1.44.06-2.81-.32-.45-.23-1.89-1.47-1.93-1.58-.24-.35-.46-.71-.63-1.1-.01-.02-.01-.03-.02-.06s-.01-.04-.01-.06c.12-.64.23-1.28.47-1.89.02-.03.03-.06.06-.1.34-.55.62-1.12.91-1.7.26-.17.52-.32.8-.46 1.27-.75 2.85-1.01 4.62-1.48.43.37.98.72 1.52 1.41.22.2.2.27.47.8-.07 2.28.13 2.93-1.13 4.73zm.4 12.11c-.17-.04-.35-.1-.53-.14a.799.799 0 0 0-.31-.14c-1.88-.56-3.39-.69-5.58.29-.68.34-1.43.66-1.82 1.35-.84 1.67-1.83 3.45-1.64 5.39.3 1.02.87 2.05 1.6 2.83 1.23.97 2.82 1.35 4.37 1.24 3.71-.14 6.41-3.65 6.33-6.04.31-1.86-.63-4.03-2.42-4.78zm-.02 6.34c-1.49 2.28-4.44 3.34-6.87 1.79-.02-.01-.02-.02-.04-.03-.03-.04-.07-.07-.09-.1-.32-.5-.61-1.02-.88-1.56-.05-.24.08-1.17.46-2.26.11-.2.44-.8.52-.96.04-.17.31-.67.42-.88 1.13-.88 3.23-1.36 4.47-.89.15.04.3.08.45.13.28.18.64.23.96.33.02.01.03.02.06.04.02.02.05.03.07.05.11.1.4.36.51.5.01.02.03.04.06.08.01.02.02.04.03.05.06.17.21.6.25.74.04.09.07.26.1.38.09 1.07-.28 2.4-.48 2.59zm7.23 8.4c-.43-.43-1.05-.26-1.59-.3-3.63-.42-7.26 0-10.9 0-4.02-.03-8.03.06-12.05-.04-1.21-.22-2.41-.01-3.62.04-4.5.2-8.23-.91-13.06-.47-.99.36-.67 1.95.39 1.91 5.41-.18 9.55.99 15.09.4 5.15.37 10.33.07 15.49.16 3.18-.36 6.37-.13 9.55 0 .86.04 1.34-1.11.7-1.7zm-4.82 7.83c-.03-.07-.05-.11-.05-.12.01.03.03.06.04.08 0 .01 0 .02.01.04z"/><path d="M139.31 228.85c-.01-.02-.01-.03-.02-.04.01.02.02.04.03.07-.01-.04-.03-.07-.05-.11-.03-.06-.04-.09-.04-.08-.31-.76-.76-1.47-1.39-2.01-.54-.58-1.36-.61-1.77-.17-2.3-.28-4.8-.13-6.74 1.12-2.4 2.68-3.42 7.43-.07 9.8.53.49 1.23.69 1.93.75 1.21.21 2.52.32 3.71-.03 1.22-.62 2.6-1.19 3.38-2.37.12-.15.48-.57.89-1.26.48-1.19.77-2.47.8-3.76.05-.72-.32-1.32-.66-1.91zm-2.55 5.63c-.43.56-.3.47-.71.77-.3.19-1.53.85-1.71.97-.9.25-2.07.17-3.45-.12-.34-.08-1.59-1.19-1.77-2.29.07-1.29-.04-1.41.29-2.38.07-.66 1.18-2.15 1.26-2.3l.07-.07.1-.03c1.55-.52 1.89-.56 3.31-.63 1.3-.09 1.55.13 2.81.24.08.12.2.32.36.64.02.17.53 1.02.65 1.37-.03 1.09-.03.9-.28 2.01-.4 1.34-.27.93-.93 1.82zm1.76-227.41c-.59-.56-1.08-1.24-1.74-1.71-.02-.42-.26-.83-.71-.94-1.65-.35-3.37-.39-4.91.38-.64.35-1.41.63-1.8 1.28-.74 1.54-1.7 4.83-1.43 5.58.09.54.07 1.1.33 1.59.42.77.79 1.67 1.51 2.2 1.46 1.02 3.45 1.15 5.14.72 3-1.19 4.44-4.1 4.46-6.94-.14-.75-.36-1.56-.85-2.16zm-1.64 4.52c-1.32 2.92-3.37 3.1-5.3 2.61-.43-.21-.62-.34-.72-.43-.09-.15-.34-.54-.42-.67-.09-.12-.32-.57-.4-.73-.08-.3-.18-1.14-.17-1.31.04-.16.37-1.69.54-2.17.17-.6.44-1.16.65-1.75 1.38-.78 1.92-1.09 3.4-.94h.07c.32.38.81.64 1.24.88.02.02.04.04.07.06.4.42.8.86 1.21 1.28.01.01.01.03.02.03.01.02.01.04.03.07.12.33.24.66.3 1v.09c-.1.55-.18 1.12-.37 1.65-.14.32-.33.77-.15.33z"/></svg>