<svg version="1.1" id="Layer_1" xmlns="http://www.w3.org/2000/svg" x="0" y="0" width="290.11" height="580" style="enable-background:new 0 0 290.11 580" xml:space="preserve"><style>.st0{fill:#3371b5}.st1{fill:#cf1f12}</style><path class="st0" d="M152.62 96.98c-1.43-.77-3.18-.24-4.73-.28-.11.01-.22.01-.33.02v-5.49c-.03-2.68-.02-4.28.34-6.55.22-1.42.2-2.85.19-4.28v-.05c.02-.98-1.38-1.38-1.86-.5-.05.18-.09.37-.11.55h-.02c.01-.06.02-.14.02-.18-.01.09-.05.18-.08.27-.12.18-.62 1.09-.8 1.28-.67 1.08-2.91 2.84-4.43 4.23a.99.99 0 0 0-.29.71c-.03.86 1.12 1.34 1.71.71 1.17-1.12 2.58-2.17 3.74-3.39-.38 2.54-.48 5.26-.41 8.39v4.33c0 .03.01.06.02.09-1.18.07-2.35.16-3.52.27-.26 0-.52.11-.71.29-.63.59-.16 1.74.71 1.71 2.88-.24 8.47-.69 9.5-.44 1.11.75 2.22-1 1.06-1.69zm17.93-12.01c-.7-.84-1.5-1.78-2.6-2.06-.19-.02-.38-.05-.58-.07-2.95-.73-6.52-.94-8.5 1.71-.92 1.38-1.32 1.73-2.09 2.83-.38.88-.58 1.84-.76 2.78-.22 2.43-.46 5.3 1.22 7.27 1.11.84 2.36 1.54 3.77 1.65 1.44.27 2.92.4 4.33-.1.81-.34 1.67-.65 2.37-1.22.48-.31 1.34-1.46 1.17-1.25 1.2-1.22 2.27-2.56 2.85-4.19.47-2.77.32-5.57-1.18-7.35zm-.62 4.77c-.04 2.14.07 2-1.17 3.95-.23.16-1.75 2.1-2.4 2.63-.16.09-1.55.9-2.37.96-.53.25-3.29-.17-3.91-.42-1.34-.82-1.42-.63-1.72-1.34.17.54-.48-1.31-.5-1.7.06.47.01-2.39.08-3.01.13-.81.34-1.6.57-2.39.03-.06.06-.11.06-.13 2.06-2.48 1.98-3.57 4.85-3.95.2-.06 1.81.09 3.25.41.12.06.26.1.4.09.24.06.47.12.67.19.03.01.05 0 .07 0 .02.01.03.02.05.03.89.87.92.82 1.51 1.74.08.16.12.23.1.19.45 1.03.47 1.22.46 2.75zm-18.7 208.91c-.25-.14-.53-.17-.81-.09.1-.03.39-.04.14-.03-1.21-.07-.72.01-1.59-.36-1.98-.82-3.56-1.65-5.88-2.66 1.79-1.76 3.57-3.54 4.78-5.76.37-.68.88-1.37.84-2.18-.03-.82.04-1.7-.31-2.47-.4-.64-.2-.28-.44-.81-.36-.74-1.02-1.33-1.65-1.84-.27-.31-1.33-.82-1.99-.79-.87-.12-1.77-.14-2.63.04-1.01.43-1.82 1.26-2.47 2.13-.69.86-.98 1.93-1.32 2.96-.14.43-.34.91-.07 1.33.41.75 1.63.59 1.83-.24.66-2.07.72-2.61 2.02-3.81.37-.3.11-.14.64-.46.09-.01.18-.01.28-.02 2.32.04 1.9-.04 2.92.83.89.96.43.36.9 1.32.05.11.13.2.19.3.05.21.06.21.08.89.02.14 0 .6 0 .77v.02c0 .01 0 .01-.01.02-.15.31-.31.6-.49.89-.37.73-.89 1.35-1.31 2.05-.73 1.04-3.15 3.32-4.66 4.86-.01 0-.01 0-.02.01-.93.22-1.79.65-2.49 1.31-.77.71-.53 1.98.61 2.02.67-.08.62-.19 1.5-.68.51-.27 1.02-.55 1.46-.91.02-.01.05-.02.07-.02.61-.22 1.42.28 2.82.97 1.49.74 3.15 1.36 4 1.8.91.42 2.21.81 3.13.29.6-.42.52-1.36-.07-1.68zm16.5-11.17c-.07-.17-.2-.48-.24-.59-.17-.3-.47-.49-.75-.7-.31-.17-.72-.78-1.45-1.16-.12-.24-.32-.45-.61-.52-1.41-.19-2.85-.58-4.27-.34-1.67.31-3.5.78-4.77 1.95-1.56 1.75-2.42 3.01-3.02 5.61-.13 1.16.25 2.33.45 3.47.01.31.72 1.23.91 1.47 2 2.9 6.3 4.8 9.48 2.67 1.6-1.2 2.89-2.56 4.08-4.77.46-1.28.55-2.67.76-4.01.11-1.17.04-2.06-.57-3.08zm-1.78 5.27c-.2 1.08-.18 1.02-.9 2.05-.91 1.29-.97 1.48-1.87 2.16-1.01.84-.87.87-1.42 1.04-2.91 1.18-6.18-1.82-6.84-3.57-.15-.84-.38-2.02-.36-2.11v-.18c.44-1.63.81-2.64 1.3-3.19-.36.43.86-1.02 1.08-1.32.05-.07.17-.18.25-.27 1.76-.93 3.05-1.43 5.11-1.19.21 0 .41.02.59.06.01.01.01.02.02.02.39.36.97.34 1.45.54.02.01.04.02.06.04.43.41.87.79 1.35 1.13.16.41.35.81.54 1.2.04 1.51-.08 1.9-.36 3.59zm-16.34 198.88c-.47-.2-.95-.31-1.4-.39.1-.1.21-.2.31-.31 1.05-1.24 1.14-3.02.93-4.56-.32-1.05-.97-2.01-1.7-2.82-.6-.67-1.49-.51-2.25-.23-1.46.45-3.07.98-4.08 2.18-.83.98-1.6 2.01-2.22 3.14-.14.23-.17.51-.1.77.2.83 1.42.99 1.83.24 1.1-1.74 1.56-2.78 3.03-3.62.9-.47 1.33-.57 2.49-.91l.02.02c.09.06.64.83.99 1.56l.03.12c.01.15.03.5.03.63.05 1.98-.52 2.44-2.46 3.7-1 .42-1.32 1.72-.13 2.12 1.92.06 1.77-.41 3.68.12.05.05.09.09.13.15.08.13.24.38.3.52 0 .01 0 .01.01.02.02.04.02.09.03.13 0 .2.04.93.04 1.13.13.89-.53 2.45-.9 2.74-.06.06-.17.15-.24.21-.12.09-.23.18-.36.26-.26.18-.53.35-.78.54h-.01c.01-.01 0 0 0 0-.78.17-1.8.33-3.43-.07-.13-.03-.26-.07-.38-.12-.41-.15-1.72-1.11-1.86-1.19-.68-.77-1.9-.7-1.99.47.06.89 1.09 1.25 1.7 1.75 1.91 1.54 4.91 1.47 6.39 1.12.89-.36 1.7-.87 2.65-1.9.83-1.06 1.22-2.45 1.21-3.79.08-1.38-.27-2.93-1.51-3.73zm17.43-2.06c-.23-.95-.3-.89-.51-1.43a3.8 3.8 0 0 0-1-1.72c.03.04.09.13.12.16-.2-.22-.36-.43-.52-.64.11-.49-.14-1.07-.69-1.2-.2-.06-.38-.11-.57-.17a1.35 1.35 0 0 0-.7-.21c-1.3-.38-2.42-.64-3.46-.59-1.74.31-3.59.89-4.99 1.97-.76 1.06-1.73 2.03-2.2 3.26-.3 1.07-.66 2.15-.72 3.26.18 1.51.38 3.12 1.46 4.26.37.42 1.16 1.61 2.14 2.41.79.44 1.64.8 2.47 1.15.78.15 1.59.02 2.37-.06 3.77-.54 5.92-3.75 6.5-6.78.18-1.21.62-2.44.3-3.67zm-3.04 5.45c-.63 1.24-1.44 1.98-2.57 2.6-.5.33-2.58.65-3.12.51-.01 0-.01-.01-.02-.01-.64-.32-1.33-.55-1.92-.94-.08-.14-1.09-1.28-1.35-1.62.3.43-.54-.68-.72-.99-.06.04-.16-.52-.31-1.11-.37-1.5-.13-1.95.5-4.04.29-.55.73-1.01 1.08-1.52.53-.68.28-.48.71-.88 1.78-.82 3.66-1.74 5.95-.85.23.03.46.11.7.2.02.01.04.02.06.04l.03.03c.06.08.13.18.16.25.66.84 1.01 1.24 1.18 1.4.26.45.84 2.07.81 2.26.05 1.07-.82 4.3-1.17 4.67z"/><path class="st0" d="M165.53 486.42c-.01-.03-.02-.04 0 0z"/><path d="M185.76 90.38c-.02.05.55-.52.66-.66.19-.2.42-.38.56-.63l.05-.05c.27-.2.58-.37.78-.65 1.33-1.34 2.75-2.6 4.06-3.96.95-.79 1.64-1.44 2.79-2.69 1.31-1.05 2.72-2.28 4.41-3.75 3.98-3.75 8.3-7.14 11.94-11.24 5.16-4.97 9.63-8.84 14.34-14.29 2.09-2.22 4.62-4.02 6.58-6.38 4.83-4.95 9.73-9.82 14.8-14.52 2.85-2.96 6.21-5.46 8.87-8.59.45-.94-.88-1.88-1.62-1.09-8.48 8.25-17.31 16.11-25.34 24.81-1.41 1.26-2.78 2.55-4.21 3.79-1.27 1.54-2.6 3.02-4.02 4.42-3.2 3.27-5.95 5.8-9.46 9.2-1.75 1.51-3.22 3.32-4.9 4.92-1.9 1.84-3.97 3.5-5.95 5.27-2.42 2.46-4.6 4.14-6.86 6.06-1.17 1.23-1.55 1.66-2.66 2.56-2.6 2.63-5.57 5.24-6.38 6.28-.01.02-.03.03-.04.04-.15.09-.46.31-.57.41-.11.09-.21.19-.31.28l-.02.02c-.1.06-.33.27-.39.34-.25.13-.46.34-.53.62-.06.19-.04.38.01.55-.51.32-.58 1.09-.2 1.53.02.2.11.39.28.55 4.02 4.28 7.89 8.11 12.26 12.05 2.01 1.81 3.65 3.97 5.83 5.6 2.74 2.55 5.45 5.12 8.39 7.45 2.98 2.89 6.06 5.67 9.18 8.4 2.26 2.16 4.64 4.19 7.05 6.18 2 1.99 4.08 3.9 6.1 5.87 1.64 1.45 3.41 2.76 4.89 4.39 2.69 2.39 4.99 5.14 7.38 7.82 1.01 1.27 2.25 2.34 3.32 3.55.22.37 1.23 1.45 2.12 2.26 1.43 1.56 2.57 3.03 4.48 4.82.19.19.44.29.71.29.64.01 1.14-.65.96-1.27-.61-1.07-1.75-1.79-2.54-2.74-.89-1.02-1.71-2.18-3.15-3.4-.92-.96-.98-1.27-2.06-2.32-2.32-2.33-4.42-4.86-6.6-7.33-1.91-1.85-3.8-3.74-5.77-5.53-3.01-2.39-5.67-5.17-8.44-7.82-4.03-3.24-7.7-6.88-11.65-10.21-4.14-4.17-8.79-7.76-13-11.85-1.7-1.25-3.06-2.86-4.54-4.36-2.47-2.33-4.92-4.69-7.47-6.94-1.69-1.67-3.26-3.44-4.9-5.14 3.95-.02 7.31-.03 11.13.44 3.36.37 6.12.3 8.9.59 3.35-.01 6.69.18 10.04.3 3.37-.05 6.72.02 10.08.26 9.88-.07 19.82.16 29.67-.08.98-.36.68-1.95-.39-1.91-16.96-.01-35.72.15-51.65-.79-3.45.02-7.84-.43-10.39-.74-2.54-.11-5.1-.05-7.65-.05.1-.08.19-.16.29-.24.29-.21.54-.43.75-.7zm23.8-48.88c-.33-3.06-.12-6.19-.35-9.24-.36-1-1.95-.67-1.91.39-.01 2.91.02 5.82.26 8.73-.02.42.1.88.5 1.1.46.28 1.11.11 1.37-.36.13-.25.18-.52.1-.79.01.09.04.36.03.17zm6.4 2.65c-1.72.15-3.43.3-5.14.46-2.28.21-4.55.44-6.81.78-.94.28-2.27-.04-2.92.79-.46.73.3 1.73 1.13 1.47 4.61-.72 8.51-1.05 13.52-1.49.46 0 .99-.15 1.15-.63.29-.61-.25-1.4-.93-1.38zm-3.21 8.94c-.17-.22-.34-.37-.5-.48.59-.74 1.13-1.6 1.13-2.3.03-1.87-.81-2.38-2.57-1.96-1.42.34-2.56 1.31-3.6 2.28-.37.42-.97.76-.96 1.38-.03.86 1.12 1.33 1.71.71 1.49-1.47 2.3-2.22 3.44-2.43 0 .16-.14.23-.67 1.06l-.01.01c-.02.03-.05.06-.1.12-.52.71-1.43 1.26-1.65 2.13-.15.79.77 1.36 1.47 1.1.23-.08.44-.2.66-.32.02 0 .05-.01.07-.02h.01c0 .01.01.02.01.02.02.05.03.1.03.16 0 .04.01.08.01.13.01.29.04.58.04.86-.01.02-.02.05-.02.07l-.18.36c-.39.66-.35.63-.6.84.34-.25-1.13.7-1.76 1-.05.02-.15.05-.24.07-.17 0-.99.03-1.2.02-.84 0-1.23-.02-1.48-.08-.29-.03-1.06-.55-1.28-.75-.59-.63-1.74-.15-1.71.71.02.75.81 1.1 1.35 1.49 1.45.89 3.29.69 4.91.54 1.75-.69 3.29-1.52 3.99-3.32.22-.43.26-.9.21-1.38-.03-.73-.1-1.44-.51-2.02z"/><path d="M240.04 70.8c-.01-1.91-.11-3.81-.04-5.72 0-.54.19-1.18-.25-1.6-.59-.63-1.74-.15-1.71.71-.13 1.95-.03 3.9-.01 5.85.09.68-.21 1.53.3 2.08 1.01.84 1.94-.23 1.71-1.32zm8.02 4.88c-.24-.46-.77-.61-1.25-.57h-4.11c-3.81.23-7.69.37-11.47.88-.99.36-.67 1.95.39 1.91 4.02-.36 8.06-.74 12.1-.8h3.11c.78.36 1.75-.6 1.23-1.42zm-3.65 8.82c-.35-.9-1.17-1.28-2.05-1.4.48-.62.87-1.3 1.11-1.97.43-1.3.05-2.25-.57-2.9-.5-.43-1.19-.17-1.73.04-2.14.85-4.31 1.86-6.09 3.33-.7.81.39 2.04 1.29 1.47 1.89-1.31 3.55-2.19 5.27-2.83-.02.08-.03.16-.06.24-.15.72-1.45 2.27-2.27 2.83-.49.46-.32 1.4.32 1.62.86.25 1.8.06 2.69.15.01 0 .02.01.03.01.05.03.1.06.16.09.01.01.02.01.03.03l.03.06c.19.61.17.47.16.89-.03.05-.06.11-.1.16-.21.31-.12.16-.62.76-.28.27-1.13.79-1.74.94-.65.05-1.3-.04-1.95-.06-.82-.08-.34 0-.94-.11-1-.46-1.92.83-1.14 1.62.38.37.96.35 1.46.43 1.15.05 2.39.33 3.49-.09 1.49-.54 2.84-1.62 3.47-3.1.17-.72.03-1.52-.25-2.21zm-6.48 26.5c-.23-.77-.04-1.86-.77-2.36-.73-.46-1.73.3-1.47 1.13.62 3.26.77 5.3 1.18 8.68.05.25.09 1.21.13 1.05-.04.34.09.71.38.9.6.52 1.64.02 1.61-.79-.31-2.87-.62-5.75-1.06-8.61zm8.67 11.05c-.75-.6-1.93-.19-2.82-.2-4.69.44-9.46.04-14.13.52-.99.35-.67 1.95.39 1.91 5.18-.23 10.36-.17 15.53-.52.11.04.22.07.33.07.89.03 1.35-1.18.7-1.78zm-3.27 7.77c-.21-.16-.44-.29-.67-.38.27-.34.36-.47.74-.95.25-.32.41-.71.43-1.11-.08-1.46-1.88-1.96-3.11-1.76-1.68.21-3.32.83-4.8 1.63-.52.43-1.32.66-1.55 1.34-.26.83.73 1.59 1.47 1.13 1.69-1.37 4.61-2.23 5.73-2.12-.65.81-.91 1.34-1.77 1.81-.62.39-.61.04-1.26.77-.49.89.42 1.76 1.33 1.45.61-.17 1.23-.29 1.85-.41.16.06.63.29.99.64.07.06.15.15.22.22.21.93.19.71-.17 2.03-.3.61-.73 1.15-1.13 1.7l-.47.51c-.01.01-.03.02-.04.03-.03.01-.04.02-.06.03h-.01c-.51.2-1.96.43-2.11.46-.12.01-.24 0-.35-.02l-.16-.03c-1.42-.25-2.25-.86-3.17-.79-.62.16-.93.92-.6 1.47.83.89 2.42.97 3.56 1.31.78.17 1.56-.08 2.34-.21.72-.17 1.49-.31 2.03-.84 2.06-2.01 3.93-6.04.74-7.91z"/><path class="st1" d="M276.28 10.92c-.25.24-.32.59-.42.91-.13.38-.55 1-1.28 1.82-1.18 1.64-3.7 3.94-5.49 6.06-.47.96.9 1.87 1.62 1.09 1.69-1.7 4.49-4.64 5.35-5.82.02-.02.03-.04.05-.06-.36 3.86-.99 7.8-.77 12.16.13 1.03-.32 2.34.29 3.22.37.39 1.04.38 1.41 0 .59-.78.18-1.91.29-2.83-.03-2.79-.04-5.57.32-8.34-.23-.85 2.31-10.35-1.37-8.21zm5.85 86.72c-1.09-.18-2.2-.22-3.31-.2-1.68-.01-3.36-.04-5.03.11.79-.61 1.61-1.27 2.44-2.14 1.33-1.52 1.63-2.21 2.84-3.79.9-1.19 1.35-2.59 1.84-3.98 1.23-4.3-2.55-6.39-6.36-5.6-2.65 1.2-4.45 3.67-5.56 6.29-.96 1.28.52 2.7 1.53 1.42.32-.81 1.7-3.33 1.66-3.2 1.14-1.36 1.66-1.84 2.95-2.58.03-.01.06-.01.09-.02.56-.04 1.12-.06 1.68-.03.3.06.97.31 1.18.37.61.36.41.23.94.96.1.5.21 1.35-.19 2.26-.54 1.48-.57 1.77-1.5 3.1-1.53 2.06-2.01 3.13-4.28 5-.65.55-2.48 1.72-3.57 2.93-.42.68.18 1.58.96 1.54 2.05-.18 3.03-.7 4.68-.61 2.09.01 4.2-.13 6.28.09.44.1.16-.02.98.17.51.15 1.1-.18 1.23-.7.28-.97-.69-1.36-1.48-1.39zm-1.33 62.28c-.33-.32-.89-1.65-2.13-1.86-.37-.13-.75-.21-1.13-.27.87-1.38 1.84-2.74 2-4.41-.12-1.31-.84-2.63-1.86-3.45-1.15-.47-2.71-.31-3.9-.02-.91.39-1.56 1.21-2.28 1.86-1.09 1.11-2.08 2.3-2.99 3.56-.14.23-.17.51-.1.77.2.83 1.42.99 1.83.24.86-1.3 3.22-3.83 4.2-4.54.44-.16 1.24-.15 2.24-.11.04.04.08.08.11.12.15.23.53.81.59.99.01.02.01.03.02.04.06.16.12.32.15.49v.1c-.01.05-.02.11-.04.17-.33.99-.25.76-.61 1.52-.47.9-1.19 1.65-1.59 2.58-.02.04-.04.07-.06.1-.03.03-.06.06-.1.09-.65.49-.34 1.64.47 1.74 1.37.12 1.47.01 2.76.41.47.5.68.83 1.01 1.31.13.5.08 1.26-.05 1.42-1.51 2.87-3.5 3.71-6.01 4.13-2.07-.16-2.64-.05-3.82-.96-.65-.53-1.63-1.26-2.25-.27-.54.96.56 1.52 1.22 1.99 1.21 1.08 2.87 1.03 4.38 1.24 1.83.02 4.57-.99 5.26-1.7 2.11-1.51 4.52-4.72 2.68-7.28z"/><path d="M183.6 291.38c-.02.05.55-.52.66-.66.19-.2.42-.38.56-.63l.05-.05c.27-.2.58-.37.78-.65 1.33-1.34 2.75-2.6 4.06-3.96.95-.79 1.64-1.44 2.79-2.69 1.31-1.05 2.72-2.28 4.41-3.75 3.98-3.75 8.3-7.14 11.94-11.24 5.16-4.97 9.63-8.84 14.34-14.29 2.09-2.22 4.62-4.02 6.58-6.38 4.83-4.95 9.73-9.82 14.8-14.52 2.85-2.96 6.21-5.46 8.87-8.59.45-.94-.88-1.88-1.62-1.09-8.48 8.25-17.31 16.11-25.34 24.81-1.41 1.26-2.78 2.55-4.21 3.79-1.27 1.54-2.6 3.02-4.02 4.42-3.2 3.27-5.95 5.8-9.46 9.2-1.75 1.51-3.22 3.32-4.9 4.92-1.9 1.84-3.97 3.5-5.95 5.27-2.42 2.46-4.6 4.14-6.86 6.06-1.17 1.23-1.55 1.66-2.66 2.56-2.6 2.63-5.57 5.24-6.38 6.28-.01.02-.03.03-.04.04-.15.09-.46.31-.57.41-.11.09-.21.19-.31.28l-.02.02c-.1.06-.33.27-.39.34-.25.13-.46.34-.53.62-.06.19-.04.38.01.55-.51.32-.58 1.09-.2 1.53.02.2.11.39.28.55 4.02 4.28 7.89 8.11 12.26 12.05 2.01 1.81 3.65 3.97 5.83 5.6 2.74 2.55 5.45 5.12 8.39 7.45 2.98 2.89 6.06 5.67 9.18 8.4 2.26 2.16 4.64 4.19 7.05 6.18 2 1.99 4.08 3.9 6.1 5.87 1.64 1.45 3.41 2.76 4.89 4.39 2.69 2.39 4.99 5.14 7.38 7.82 1.01 1.27 2.25 2.34 3.32 3.55.22.37 1.23 1.45 2.12 2.26 1.43 1.56 2.57 3.03 4.48 4.82.19.19.44.29.71.29.64.01 1.14-.65.96-1.27-.61-1.07-1.75-1.79-2.54-2.74-.89-1.02-1.71-2.18-3.15-3.4-.92-.96-.98-1.27-2.06-2.32-2.32-2.33-4.42-4.86-6.6-7.33-1.91-1.85-3.8-3.74-5.77-5.53-3.01-2.39-5.67-5.17-8.44-7.82-4.03-3.24-7.7-6.88-11.65-10.21-4.14-4.17-8.79-7.76-13-11.85-1.7-1.25-3.06-2.86-4.54-4.36-2.47-2.33-4.92-4.69-7.47-6.94-1.69-1.67-3.26-3.44-4.9-5.14 3.95-.02 7.31-.03 11.13.44 3.36.37 6.12.3 8.9.59 3.35-.01 6.69.18 10.04.3 3.37-.05 6.72.02 10.08.26 9.88-.07 19.82.16 29.67-.08.98-.36.68-1.95-.39-1.91-16.96-.01-35.72.15-51.65-.79-3.45.02-7.84-.43-10.39-.74-2.54-.11-5.1-.05-7.65-.05.1-.08.19-.16.29-.24.3-.21.55-.43.75-.7zm23.81-48.88c-.33-3.06-.12-6.19-.35-9.24-.36-1-1.95-.67-1.91.39-.01 2.91.02 5.82.26 8.73-.02.42.1.88.5 1.1.46.28 1.11.11 1.37-.36.13-.25.18-.52.1-.79.01.09.04.36.03.17zm6.4 2.65c-1.72.15-3.43.3-5.14.46-2.28.21-4.55.44-6.81.78-.94.28-2.27-.04-2.92.79-.46.73.3 1.73 1.13 1.47 4.61-.72 8.51-1.05 13.52-1.49.46 0 .99-.15 1.15-.63.29-.61-.25-1.4-.93-1.38zm-3.21 8.94c-.17-.22-.34-.37-.5-.48.59-.74 1.13-1.6 1.13-2.3.03-1.87-.81-2.38-2.57-1.96-1.42.34-2.56 1.31-3.6 2.28-.37.42-.97.76-.96 1.38-.03.86 1.12 1.33 1.71.71 1.49-1.47 2.3-2.22 3.44-2.43 0 .16-.14.23-.67 1.06l-.01.01c-.02.03-.05.06-.1.12-.52.71-1.43 1.26-1.65 2.13-.15.79.77 1.36 1.47 1.1.23-.08.44-.2.66-.32.02 0 .05-.01.07-.02h.01c0 .01.01.02.01.02.02.05.03.1.03.16 0 .04.01.08.01.13.01.29.04.58.04.86-.01.02-.02.05-.02.07l-.18.36c-.39.66-.35.63-.6.84.34-.25-1.13.7-1.76 1-.05.02-.15.05-.24.07-.17 0-.99.03-1.2.02-.84 0-1.23-.02-1.48-.08-.29-.03-1.06-.55-1.28-.75-.59-.63-1.74-.15-1.71.71.02.75.81 1.1 1.35 1.49 1.45.89 3.29.69 4.91.54 1.75-.69 3.29-1.52 3.99-3.32.22-.43.26-.9.21-1.38-.04-.73-.1-1.44-.51-2.02z"/><path d="M237.89 271.8c-.01-1.91-.11-3.81-.04-5.72 0-.54.19-1.18-.25-1.6-.59-.63-1.74-.15-1.71.71-.13 1.95-.03 3.9-.01 5.85.09.68-.21 1.53.3 2.08 1.01.84 1.93-.23 1.71-1.32zm8.02 4.88c-.24-.46-.77-.61-1.25-.57h-4.11c-3.81.23-7.69.37-11.47.88-.99.36-.67 1.95.39 1.91 4.02-.36 8.06-.74 12.1-.8h3.11c.78.36 1.75-.6 1.23-1.42zm-3.65 8.82c-.35-.9-1.17-1.28-2.05-1.4.48-.62.87-1.3 1.11-1.97.43-1.3.05-2.25-.57-2.9-.5-.43-1.19-.17-1.73.04-2.14.85-4.31 1.86-6.09 3.33-.7.81.39 2.04 1.29 1.47 1.89-1.31 3.55-2.19 5.27-2.83-.02.08-.03.16-.06.24-.15.72-1.45 2.27-2.27 2.83-.49.46-.32 1.4.32 1.62.86.25 1.8.06 2.69.15.01 0 .02.01.03.01.05.03.1.06.16.09.01.01.02.01.03.03l.03.06c.19.61.17.47.16.89-.03.05-.06.11-.1.16-.21.31-.12.16-.62.76-.28.27-1.13.79-1.74.94-.65.05-1.3-.04-1.95-.06-.82-.08-.34 0-.94-.11-1-.46-1.92.83-1.14 1.62.38.37.96.35 1.46.43 1.15.05 2.39.33 3.49-.09 1.49-.54 2.84-1.62 3.47-3.1.17-.72.03-1.52-.25-2.21zm-6.48 26.5c-.23-.77-.04-1.86-.77-2.36-.73-.46-1.73.3-1.47 1.13.62 3.26.77 5.3 1.18 8.68.05.25.09 1.21.13 1.05-.04.34.09.71.38.9.6.52 1.64.02 1.61-.79-.31-2.87-.62-5.75-1.06-8.61zm8.67 11.05c-.75-.6-1.93-.19-2.82-.2-4.69.44-9.46.04-14.13.52-.99.35-.67 1.95.39 1.91 5.18-.23 10.36-.17 15.53-.52.11.04.22.07.33.07.89.03 1.35-1.18.7-1.78zm-3.27 7.77c-.21-.16-.44-.29-.67-.38.27-.34.36-.47.74-.95.25-.32.41-.71.43-1.11-.08-1.46-1.88-1.96-3.11-1.76-1.68.21-3.32.83-4.8 1.63-.52.43-1.32.66-1.55 1.34-.26.83.73 1.59 1.47 1.13 1.69-1.37 4.61-2.23 5.73-2.12-.65.81-.91 1.34-1.77 1.81-.62.39-.61.04-1.26.77-.49.89.42 1.76 1.33 1.45.61-.17 1.23-.29 1.85-.41.16.06.63.29.99.64.07.06.15.15.22.22.21.93.19.71-.17 2.03-.3.61-.73 1.15-1.13 1.7l-.47.51c-.01.01-.03.02-.04.03-.03.01-.04.02-.06.03h-.01c-.51.2-1.96.43-2.11.46-.12.01-.24 0-.35-.02l-.16-.03c-1.42-.25-2.25-.86-3.17-.79-.62.16-.93.92-.6 1.47.83.89 2.42.97 3.56 1.31.78.17 1.56-.08 2.34-.21.72-.17 1.49-.31 2.03-.84 2.06-2.01 3.93-6.04.74-7.91z"/><path class="st1" d="M274.13 211.92c-.25.24-.32.59-.42.91-.13.38-.55 1-1.28 1.82-1.18 1.64-3.7 3.94-5.49 6.06-.47.96.9 1.87 1.62 1.09 1.69-1.7 4.49-4.64 5.35-5.82.02-.02.03-.04.05-.06-.36 3.86-.99 7.8-.77 12.16.13 1.03-.32 2.34.29 3.22.37.39 1.04.38 1.41 0 .59-.78.18-1.91.29-2.83-.03-2.79-.04-5.57.32-8.34-.23-.85 2.31-10.35-1.37-8.21zm5.85 86.72c-1.09-.18-2.2-.22-3.31-.2-1.68-.01-3.36-.04-5.03.11.79-.61 1.61-1.27 2.44-2.14 1.33-1.52 1.63-2.21 2.84-3.79.9-1.19 1.35-2.59 1.84-3.98 1.23-4.3-2.55-6.39-6.36-5.6-2.65 1.2-4.45 3.67-5.56 6.29-.96 1.28.52 2.7 1.53 1.42.32-.81 1.7-3.33 1.66-3.2 1.14-1.36 1.66-1.84 2.95-2.58.03-.01.06-.01.09-.02.56-.04 1.12-.06 1.68-.03.3.06.97.31 1.18.37.61.36.41.23.94.96.1.5.21 1.35-.19 2.26-.54 1.48-.57 1.77-1.5 3.1-1.53 2.06-2.01 3.13-4.28 5-.65.55-2.48 1.72-3.57 2.93-.42.68.18 1.58.96 1.54 2.05-.18 3.03-.7 4.68-.61 2.09.01 4.2-.13 6.28.09.44.1.16-.02.98.17.51.15 1.1-.18 1.23-.7.28-.97-.69-1.36-1.48-1.39zm-1.33 62.28c-.33-.32-.89-1.65-2.13-1.86-.37-.13-.75-.21-1.13-.27.87-1.38 1.84-2.74 2-4.41-.12-1.31-.84-2.63-1.86-3.45-1.15-.47-2.71-.31-3.9-.02-.91.39-1.56 1.21-2.28 1.86-1.09 1.11-2.08 2.3-2.99 3.56-.14.23-.17.51-.1.77.2.83 1.42.99 1.83.24.86-1.3 3.22-3.83 4.2-4.54.44-.16 1.24-.15 2.24-.11.04.04.08.08.11.12.15.23.53.81.59.99.01.02.01.03.02.04.06.16.12.32.15.49v.1c-.01.05-.02.11-.04.17-.33.99-.25.76-.61 1.52-.47.9-1.19 1.65-1.59 2.58-.02.04-.04.07-.06.1-.03.03-.06.06-.1.09-.65.49-.34 1.64.47 1.74 1.37.12 1.47.01 2.76.41.47.5.68.83 1.01 1.31.13.5.08 1.26-.05 1.42-1.51 2.87-3.5 3.71-6.01 4.13-2.07-.16-2.64-.05-3.82-.96-.65-.53-1.63-1.26-2.25-.27-.54.96.56 1.52 1.22 1.99 1.21 1.08 2.87 1.03 4.38 1.24 1.83.02 4.57-.99 5.26-1.7 2.11-1.51 4.52-4.72 2.68-7.28z"/><path d="M185.67 490.67c-.02.05.55-.52.66-.66.19-.2.42-.38.56-.63l.05-.05c.27-.2.58-.37.78-.65 1.33-1.34 2.75-2.6 4.06-3.96.95-.79 1.64-1.44 2.79-2.69 1.31-1.05 2.72-2.28 4.41-3.75 3.98-3.75 8.3-7.14 11.94-11.24 5.16-4.97 9.63-8.84 14.34-14.29 2.09-2.22 4.62-4.02 6.58-6.38 4.83-4.95 9.73-9.82 14.8-14.52 2.85-2.96 6.21-5.46 8.87-8.59.45-.94-.88-1.88-1.62-1.09-8.48 8.25-17.31 16.11-25.34 24.81-1.41 1.26-2.78 2.55-4.21 3.79-1.27 1.54-2.6 3.02-4.02 4.42-3.2 3.27-5.95 5.8-9.46 9.2-1.75 1.51-3.22 3.32-4.9 4.92-1.9 1.84-3.97 3.5-5.95 5.27-2.42 2.46-4.6 4.14-6.86 6.06-1.17 1.23-1.55 1.66-2.66 2.56-2.6 2.63-5.57 5.24-6.38 6.28-.01.02-.03.03-.04.04-.15.09-.46.31-.57.41-.11.09-.21.19-.31.28l-.02.02c-.1.06-.33.27-.39.34-.25.13-.46.34-.53.62-.06.19-.04.38.01.55-.51.32-.58 1.09-.2 1.53.02.2.11.39.28.55 4.02 4.28 7.89 8.11 12.26 12.05 2.01 1.81 3.65 3.97 5.83 5.6 2.74 2.55 5.45 5.12 8.39 7.45 2.98 2.89 6.06 5.67 9.18 8.4 2.26 2.16 4.64 4.19 7.05 6.18 2 1.99 4.08 3.9 6.1 5.87 1.64 1.45 3.41 2.76 4.89 4.39 2.69 2.39 4.99 5.14 7.38 7.82 1.01 1.27 2.25 2.34 3.32 3.55.22.37 1.23 1.45 2.12 2.26 1.43 1.56 2.57 3.03 4.48 4.82.19.19.44.29.71.29.64.01 1.14-.65.96-1.27-.61-1.07-1.75-1.79-2.54-2.74-.89-1.02-1.71-2.18-3.15-3.4-.92-.96-.98-1.27-2.06-2.32-2.32-2.33-4.42-4.86-6.6-7.33-1.91-1.85-3.8-3.74-5.77-5.53-3.01-2.39-5.67-5.17-8.44-7.82-4.03-3.24-7.7-6.88-11.65-10.21-4.14-4.17-8.79-7.76-13-11.85-1.7-1.25-3.06-2.86-4.54-4.36-2.47-2.33-4.92-4.69-7.47-6.94-1.69-1.67-3.26-3.44-4.9-5.14 3.95-.02 7.31-.03 11.13.44 3.36.37 6.12.3 8.9.59 3.35-.01 6.69.18 10.04.3 3.37-.05 6.72.02 10.08.26 9.88-.07 19.82.16 29.67-.08.98-.36.68-1.95-.39-1.91-16.96-.01-35.72.15-51.65-.79-3.45.02-7.84-.43-10.39-.74-2.54-.11-5.1-.05-7.65-.05.1-.08.19-.16.29-.24.3-.21.55-.42.75-.7zm23.81-48.87c-.33-3.06-.12-6.19-.35-9.24-.36-1-1.95-.67-1.91.39-.01 2.91.02 5.82.26 8.73-.02.42.1.88.5 1.1.46.28 1.11.11 1.37-.36.13-.25.18-.52.1-.79.01.08.03.35.03.17zm6.39 2.65c-1.72.15-3.43.3-5.14.46-2.28.21-4.55.44-6.81.78-.94.28-2.27-.04-2.92.79-.46.73.3 1.73 1.13 1.47 4.61-.72 8.51-1.05 13.52-1.49.46 0 .99-.15 1.15-.63.29-.61-.25-1.41-.93-1.38zm-3.21 8.93c-.17-.22-.34-.37-.5-.48.59-.74 1.13-1.6 1.13-2.3.03-1.87-.81-2.38-2.57-1.96-1.42.34-2.56 1.31-3.6 2.28-.37.42-.97.76-.96 1.38-.03.86 1.12 1.33 1.71.71 1.49-1.47 2.3-2.22 3.44-2.43 0 .16-.14.23-.67 1.06l-.01.01c-.02.03-.05.06-.1.12-.52.71-1.43 1.26-1.65 2.13-.15.79.77 1.36 1.47 1.1.23-.08.44-.2.66-.32.02 0 .05-.01.07-.02h.01c0 .01.01.02.01.02.02.05.03.1.03.16 0 .04.01.08.01.13.01.29.04.58.04.86-.01.02-.02.05-.02.07l-.18.36c-.39.66-.35.63-.6.84.34-.25-1.13.7-1.76 1-.05.02-.15.05-.24.07-.17 0-.99.03-1.2.02-.84 0-1.23-.02-1.48-.08-.29-.03-1.06-.55-1.28-.75-.59-.63-1.74-.15-1.71.71.02.75.81 1.1 1.35 1.49 1.45.89 3.29.69 4.91.54 1.75-.69 3.29-1.52 3.99-3.32.22-.43.26-.9.21-1.38-.03-.73-.1-1.44-.51-2.02z"/><path d="M239.96 471.09c-.01-1.91-.11-3.81-.04-5.72 0-.54.19-1.18-.25-1.6-.59-.63-1.74-.15-1.71.71-.13 1.95-.03 3.9-.01 5.85.09.68-.21 1.53.3 2.08 1.01.85 1.93-.23 1.71-1.32zm8.02 4.89c-.24-.46-.77-.61-1.25-.57h-4.11c-3.81.23-7.69.37-11.47.88-.99.36-.67 1.95.39 1.91 4.02-.36 8.06-.74 12.1-.8h3.11c.78.35 1.74-.61 1.23-1.42zm-3.66 8.81c-.35-.9-1.17-1.28-2.05-1.4.48-.62.87-1.3 1.11-1.97.43-1.3.05-2.25-.57-2.9-.5-.43-1.19-.17-1.73.04-2.14.85-4.31 1.86-6.09 3.33-.7.81.39 2.04 1.29 1.47 1.89-1.31 3.55-2.19 5.27-2.83-.02.08-.03.16-.06.24-.15.72-1.45 2.27-2.27 2.83-.49.46-.32 1.4.32 1.62.86.25 1.8.06 2.69.15.01 0 .02.01.03.01.05.03.1.06.16.09.01.01.02.01.03.03l.03.06c.19.61.17.47.16.89-.03.05-.06.11-.1.16-.21.31-.12.16-.62.76-.28.27-1.13.79-1.74.94-.65.05-1.3-.04-1.95-.06-.82-.08-.34 0-.94-.11-1-.46-1.92.83-1.14 1.62.38.37.96.35 1.46.43 1.15.05 2.39.33 3.49-.09 1.49-.54 2.84-1.62 3.47-3.1.18-.72.03-1.51-.25-2.21zm-6.47 26.5c-.23-.77-.04-1.86-.77-2.36-.73-.46-1.73.3-1.47 1.13.62 3.26.77 5.3 1.18 8.68.05.25.09 1.21.13 1.05-.04.34.09.71.38.9.6.52 1.64.02 1.61-.79-.31-2.87-.62-5.75-1.06-8.61zm8.66 11.06c-.75-.6-1.93-.19-2.82-.2-4.69.44-9.46.04-14.13.52-.99.35-.67 1.95.39 1.91 5.18-.23 10.36-.17 15.53-.52.11.04.22.07.33.07.9.02 1.35-1.19.7-1.78zm-3.26 7.76c-.21-.16-.44-.29-.67-.38.27-.34.36-.47.74-.95.25-.32.41-.71.43-1.11-.08-1.46-1.88-1.96-3.11-1.76-1.68.21-3.32.83-4.8 1.63-.52.43-1.32.66-1.55 1.34-.26.83.73 1.59 1.47 1.13 1.69-1.37 4.61-2.23 5.73-2.12-.65.81-.91 1.34-1.77 1.81-.62.39-.61.04-1.26.77-.49.89.42 1.76 1.33 1.45.61-.17 1.23-.29 1.85-.41.16.06.63.29.99.64.07.06.15.15.22.22.21.93.19.71-.17 2.03-.3.61-.73 1.15-1.13 1.7l-.47.51c-.01.01-.03.02-.04.03-.03.01-.04.02-.06.03h-.01c-.51.2-1.96.43-2.11.46-.12.01-.24 0-.35-.02l-.16-.03c-1.42-.25-2.25-.86-3.17-.79-.62.16-.93.92-.6 1.47.83.89 2.42.97 3.56 1.31.78.17 1.56-.08 2.34-.21.72-.17 1.49-.31 2.03-.84 2.06-2.01 3.93-6.03.74-7.91z"/><path class="st1" d="M276.19 411.21c-.25.24-.32.59-.42.91-.13.38-.55 1-1.28 1.82-1.18 1.64-3.7 3.94-5.49 6.06-.47.96.9 1.87 1.62 1.09 1.69-1.7 4.49-4.64 5.35-5.82.02-.02.03-.04.05-.06-.36 3.86-.99 7.8-.77 12.16.13 1.03-.32 2.34.29 3.22.37.39 1.04.38 1.41 0 .59-.78.18-1.91.29-2.83-.03-2.79-.04-5.57.32-8.34-.23-.85 2.32-10.35-1.37-8.21zm5.86 86.72c-1.09-.18-2.2-.22-3.31-.2-1.68-.01-3.36-.04-5.03.11.79-.61 1.61-1.27 2.44-2.14 1.33-1.52 1.63-2.21 2.84-3.79.9-1.19 1.35-2.59 1.84-3.98 1.23-4.3-2.55-6.39-6.36-5.6-2.65 1.2-4.45 3.67-5.56 6.29-.96 1.28.52 2.7 1.53 1.42.32-.81 1.7-3.33 1.66-3.2 1.14-1.36 1.66-1.84 2.95-2.58.03-.01.06-.01.09-.02.56-.04 1.12-.06 1.68-.03.3.06.97.31 1.18.37.61.36.41.23.94.96.1.5.21 1.35-.19 2.26-.54 1.48-.57 1.77-1.5 3.1-1.53 2.06-2.01 3.13-4.28 5-.65.55-2.48 1.72-3.57 2.93-.42.68.18 1.58.96 1.54 2.05-.18 3.03-.7 4.68-.61 2.09.01 4.2-.13 6.28.09.44.1.16-.02.98.17.51.15 1.1-.18 1.23-.7.27-.96-.7-1.36-1.48-1.39zm-1.34 62.29c-.33-.32-.89-1.65-2.13-1.86-.37-.13-.75-.21-1.13-.27.87-1.38 1.84-2.74 2-4.41-.12-1.31-.84-2.63-1.86-3.45-1.15-.47-2.71-.31-3.9-.02-.91.39-1.56 1.21-2.28 1.86-1.09 1.11-2.08 2.3-2.99 3.56-.14.23-.17.51-.1.77.2.83 1.42.99 1.83.24.86-1.3 3.22-3.83 4.2-4.54.44-.16 1.24-.15 2.24-.11.04.04.08.08.11.12.15.23.53.81.59.99.01.02.01.03.02.04.06.16.12.32.15.49v.1c-.01.05-.02.11-.04.17-.33.99-.25.76-.61 1.52-.47.9-1.19 1.65-1.59 2.58-.02.04-.04.07-.06.1-.03.03-.06.06-.1.09-.65.49-.34 1.64.47 1.74 1.37.12 1.47.01 2.76.41.47.5.68.83 1.01 1.31.13.5.08 1.26-.05 1.42-1.51 2.87-3.5 3.71-6.01 4.13-2.07-.16-2.64-.05-3.82-.96-.65-.53-1.63-1.26-2.25-.27-.54.96.56 1.52 1.22 1.99 1.21 1.08 2.87 1.03 4.38 1.24 1.83.02 4.57-.99 5.26-1.7 2.11-1.51 4.53-4.72 2.68-7.28z"/><path d="M134.84 90.36c-.22-.8-1.41-1.01-1.83-.24-5.36 7.99-9.65 16.38-13.77 24.33-4.06 6.77-8 13.63-11.5 20.71-1.68 2.99-3.61 5.82-5.18 8.87-4.82 8.05-9.24 16.32-13.88 24.48-1.56 3.27-2.8 5.53-4.82 8.97-1.13 2.09-2.7 3.93-3.79 6.05-2.86 5.03-4.95 10.5-8.55 15.09-2.46 3.62-4.14 7.71-6.81 11.2-2.18 2.99-3.73 6.33-5.35 9.65-2.89 4.32-5.09 9.02-7.77 13.46-6.49 9.49-13.13 19.47-19.34 29.02-2.22 3.46-4.68 6.76-6.88 10.23-1.83 2.76-3.35 5.7-5.36 8.33-1.78 2.66-3 5.58-4.67 7.59-.14.19-.2.28-.25.33-.01.02-.02.03-.04.05.06-.08.03-.04-.01.01-.4.51-.75.87-1.1 1.22-.38.32-.67.83-.42 1.31 1.32 2.3 3.74-2.57 4.16-2.72 1.55-2.14 2.55-4.65 4.09-6.83 2.5-3.35 4.39-7.09 6.8-10.51 4.86-7.01 8.86-13.21 13.26-20.11 2.23-3.08 5.55-7.99 7.02-10.43 2.63-3.58 5.12-7.28 7.18-11.21 1.46-3.05 3.3-5.87 5.07-8.74 1.29-2.42 2.27-5.02 3.8-7.3 2.57-3.74 5.01-7.55 7.07-11.6 1.51-2.38 3.31-4.56 4.61-7.07 1.79-2.84 2.94-6.01 4.64-8.91 1.45-2.88 3.54-5.38 5-8.26 2.02-3.08 2.98-5.52 4.53-8.46 2.99-5.23 5.99-10.46 8.76-15.81 5.62-9.17 10.87-18.55 15.86-28.08 1.86-3.5 4.15-6.77 5.98-10.28 1.69-3.35 2.98-5.69 4.87-9.19 2.05-3.74 4.01-7.53 6.4-11.07.68-1.13 1.36-2.26 2.12-3.33a.97.97 0 0 0 .1-.75zm-2.76 394.55c-1.48-2.68-2.39-4.55-4.08-7.23-.97-1.8-2-3.55-3.32-5.13-1.56-2.45-3.25-4.8-4.9-7.19-3.3-5.18-6.59-10.36-10.04-15.45-1.54-2.22-2.71-4.67-4.03-7.03-1.66-2.57-3.47-5.04-4.97-7.72-6.15-10.39-12.45-20.68-18.37-31.2-3.95-6.82-7.69-13.75-10.94-20.92-2.42-4.13-4.97-8.2-7.26-12.4-4.24-7.66-9.49-14.68-14.67-21.72-2.28-3.41-4.45-6.9-6.91-10.2-7.61-11.17-15.66-25.08-22.76-37.65-1.4-2.2-2.4-4.67-3.68-6.91 9.12 0 18.23-.01 27.35 0 7.13.84 16.78.24 24.9.41h43.36c2.48-.03 4.97.06 7.45-.03 2.06-.34 3.07-.42 5.42-.38h3.03c.07 0 .13-.03.19-.04.05-.01.09-.01.14-.03.08-.03.15-.08.22-.12.05-.03.1-.05.14-.09l.01-.01c.05-.05.06-.11.1-.16.04-.06.09-.1.11-.16 0-.01 0-.02.01-.03l.03-.09c.08-.26.04-.54-.1-.77l-.06-.09a.809.809 0 0 0-.27-.25l-.03-.03h-.01c-.1-.06-.22-.1-.35-.12-.05-.01-.09-.01-.13-.01h-.01c-2.78.05-5.58-.19-8.33.36-8.05.15-19.04 0-28.1.05-14.21.01-28.42-.03-42.62.02-4.92-.47-10.46-.49-16.09-.43H14.82c-1.04 0-1.3 1.42-.5 1.86-.11.28-.11.62.05.88 4.01 8.24 8.78 16.1 13.42 24 4.15 6.72 8.09 13.56 12.52 20.1 2.39 3.01 5.46 8.08 8.18 11.93 4.95 6.67 9.87 13.4 13.91 20.67 2.67 5.13 6.14 9.82 8.53 15.09 3.87 8.46 8.69 16.43 13.29 24.5 4.74 8.59 10.09 16.83 14.98 25.32 1.48 2.65 3.33 5.07 4.93 7.65 1.18 2.17 2.28 4.39 3.66 6.45 3.5 5.17 6.86 10.42 10.2 15.7 1.6 2.34 3.28 4.61 4.78 7.01 1.3 1.65 2.47 3.38 3.41 5.25 2.01 2.92 3.18 6.14 4.89 8.33.18.25.36.5.51.77.04.13.13.35.2.4.22.33.68.46 1.05.36 2.04-.82-.79-3.26-.75-3.52zm-66.25-317c-.03-1.97-.09-3.93-.16-5.89-.07-1.89-.15-3.78-.24-5.67 0-.26-.11-.52-.29-.71-.59-.63-1.74-.16-1.71.71.18 3.99.35 7.99.41 11.99-.05.77 0 1.8 1.01 1.81 1.2-.05 1-1.39.98-2.24zm9.21 5.09c-.59-.53-1.49-.21-2.21-.28-5.71.13-11.3 1.61-16.93 2.5-1.25.35-.73 2.27.53 1.93 4.55-.82 9.08-1.69 13.66-2.32.03 0 .05-.01.09-.01 1.24-.09 2.48-.1 3.72-.11.14.07.29.12.45.12.93.01 1.32-1.21.69-1.83zm-5.1 12.91c-.47-.68-1.21-1.1-2.02-1.35.22-.21.45-.42.66-.64.89-.81 1.22-1.94 1.51-3.07.26-.74.48-1.78-.4-2.19-1.36-.55-2.81.36-4.11.74-1.91.72-4.31 2.14-5.24 2.94-.36.31-.88.51-1.01 1.01-.26.83.73 1.59 1.47 1.13 1.96-1.64 4.99-3.23 7.26-3.83-.17.65-.3 1.17-.57 1.49-.17.18-1.12 1.21-1.41 1.41-.78.67-2.23 1.78-.77 2.61.37.17.81.08 1.2.1.02 0 .05.01.07.01 1.74.58 1.34.22 1.88 1.08.21.53.18.3.3.87-.06.26-.16.51-.26.76-.1.2-.39.82-.48.98-.04.09-.17.29-.27.43-.71.7-1.44 1.25-2.7 1.99-1.1.21-2.66.52-3.77.48-.37.03-2.01-.47-2.56-.7-.79-.16-1.42.81-1 1.49.27.45.84.57 1.3.75 1.27.41 2.63.61 3.94.32 1.47-.32 2.07.01 3.57-.9 1.51-1 3.07-2.06 3.69-3.85.24-.57.53-1.15.55-1.79-.06-.78-.4-1.57-.83-2.27zm17.78 82.23-.15-4.3c-.07-1.8-.14-3.59-.23-5.39 0-.26-.11-.52-.29-.71-.59-.63-1.74-.15-1.71.71.17 3.55.3 7.11.41 10.66 0 .39.24.79.61.91 1.34.4 1.49-.88 1.36-1.88zm10.06 3.9c-.79.24-.49.2-1.16.23-6.05.16-12.1.41-18.14.87-1.3 0-1.31 1.99 0 2 6.01-.46 12.03-.71 18.06-.87.77-.02 1.96-.14 2.5-.74.74-.92-.44-1.95-1.26-1.49zm-3.47 12.52c-.34-1.61-1.22-2.34-2.36-2.54.03-.03.06-.06.1-.09.99-1.09 1.84-2.83 1.28-4.28-.23-.4-.66-.63-1.1-.69-2.73-.51-5.27.92-7.62 2.1-1.12.67-.12 2.38 1.01 1.73 2.31-1.1 3.64-2.02 5.85-1.9-.07.26-.17.57-.2.67-.45 1.27-2.29 2.01-2.98 3.51-.12.62.45 1.17 1.05 1.16.37.01.73-.13 1.09-.17.14-.02.59-.1.8-.13.09-.01.18 0 .26 0 .71.24.87.39.93 2.05-1.01.87-1.7 1.59-2.41 1.96-.28.02-2.81.47-3.22.43-.94.04-4.21-.76-4.91-1.1-.85-.53-1.89.52-1.37 1.37.23.41.72.52 1.13.68 1.73.54 3.52.99 5.34 1.05 1.68-.35 3.65.04 5.43-1.74.61-.6 1.39-1.05 1.85-1.78.35-.7.12-1.53.05-2.29z"/><path d="M92.71 367.57v-9.93c0-.26-.11-.52-.29-.71-.59-.63-1.74-.16-1.71.71v12.07c0 .39.24.79.61.91 1.85.53 1.33-1.97 1.39-3.05zm8.87 7.91c-1.65-.69-3.45-.81-5.21-.62-3.16.14-6.3.47-9.44.75-1.71.16-3.42.3-5.13.45-.26 0-.52.11-.71.29-.63.59-.16 1.74.71 1.71 5.45-.45 10.88-1.06 16.34-1.31.53.01 1.4.13 2.5.49.39.13.8.37 1.22.3 1.35-.28 1.05-1.9-.28-2.06zm-2.7 18.96c-.08-.95-.04-1.95-.43-2.83-.31-.53-.79-.95-1.28-1.31-.53-.43-1.12-.53-1.73-.5.67-1.08 1.4-2.15 1.84-3.35.16-1.01.24-2.05.21-3.07-.05-1.51-1.78-1.85-3-1.55-2.45.32-4.59 1.8-6.45 3.32-.7.81.39 2.03 1.29 1.47 2.24-1.71 4.25-2.9 6.17-2.88 0 .85-.14 2.23-.14 2.14-.09.42-1.06 1.99-1.71 3.04-.09.08-.52.53-.66.63-.66.65-.71.28-1.14 1.19-.2 2.12 2.38 1.19 3.78 1.02.39.16.29.04.96.69.03.03.05.06.08.09.01.01.01.03.02.04.13.43.17 1.49.24 2.55.16.33-.85 2.51-.81 2.34-.4.58-2.03 1.48-2.33 1.61-.69.13-3.56.26-4.44 0-.52-.32-1.62-1.4-2.5-2.27-.42-.35-.08-.41-.86-.77-.62-.19-1.27.33-1.27.96.16 1.02 1.22 1.65 1.89 2.36.73.61 1.37 1.45 2.33 1.69 1.81.25 3.75.28 5.54-.11 1.16-.53 2.32-1.24 3.16-2.21.83-1.26 1.42-2.78 1.24-4.29z"/></svg>