<svg xmlns="http://www.w3.org/2000/svg" width="616.582" height="349.582" viewBox="0 0 163.137 92.494"><path style="fill:none;stroke:#000;stroke-width:.5;stroke-linecap:butt;stroke-linejoin:miter;stroke-miterlimit:4;stroke-dasharray:none;stroke-opacity:1" d="M8.255-7.222h37.949m-50.599 21.91 12.65-21.91" transform="translate(29.91 15.189)"/><path style="fill:none;stroke:#000;stroke-width:.31624034;stroke-linecap:butt;stroke-linejoin:miter;stroke-miterlimit:4;stroke-dasharray:none;stroke-opacity:1" d="m33.554 14.688 12.65-21.91" transform="translate(29.91 15.189)"/><path style="fill:none;stroke:#000;stroke-width:.27684659px;stroke-linecap:butt;stroke-linejoin:miter;stroke-opacity:1" d="M-4.395 14.688h37.95" transform="translate(29.91 15.189)"/><path style="fill:none;stroke:#000;stroke-width:.5;stroke-linecap:butt;stroke-linejoin:miter;stroke-miterlimit:4;stroke-dasharray:none;stroke-opacity:1" d="M46.204-7.222h37.949m-50.599 21.91 12.65-21.91" transform="translate(29.91 15.189)"/><path style="fill:none;stroke:#000;stroke-width:.31624034;stroke-linecap:butt;stroke-linejoin:miter;stroke-miterlimit:4;stroke-dasharray:none;stroke-opacity:1" d="m71.503 14.688 12.65-21.91" transform="translate(29.91 15.189)"/><path style="fill:none;stroke:#000;stroke-width:.27684659px;stroke-linecap:butt;stroke-linejoin:miter;stroke-opacity:1" d="M33.554 14.688h37.95" transform="translate(29.91 15.189)"/><path style="fill:none;stroke:#000;stroke-width:.5;stroke-linecap:butt;stroke-linejoin:miter;stroke-miterlimit:4;stroke-dasharray:none;stroke-opacity:1" d="M84.153-7.222h37.949m-50.599 21.91 12.65-21.91m25.299 21.91 12.65-21.91" transform="translate(29.91 15.189)"/><path style="fill:none;stroke:#000;stroke-width:.27684659px;stroke-linecap:butt;stroke-linejoin:miter;stroke-opacity:1" d="M71.503 14.688h37.949" transform="translate(29.91 15.189)"/><path style="fill:none;stroke:#000;stroke-width:.5;stroke-linecap:butt;stroke-linejoin:miter;stroke-miterlimit:4;stroke-dasharray:none;stroke-opacity:1" d="M-4.395 14.688h37.95m-50.599 21.91 12.65-21.91" transform="translate(29.91 15.189)"/><path style="fill:none;stroke:#000;stroke-width:.31624034;stroke-linecap:butt;stroke-linejoin:miter;stroke-miterlimit:4;stroke-dasharray:none;stroke-opacity:1" d="m20.905 36.598 12.65-21.91" transform="translate(29.91 15.189)"/><path style="fill:none;stroke:#000;stroke-width:.27684659px;stroke-linecap:butt;stroke-linejoin:miter;stroke-opacity:1" d="M-17.044 36.598h37.949" transform="translate(29.91 15.189)"/><path style="fill:none;stroke:#000;stroke-width:.5;stroke-linecap:butt;stroke-linejoin:miter;stroke-miterlimit:4;stroke-dasharray:none;stroke-opacity:1" d="M33.554 14.688h37.95m-50.599 21.91 12.65-21.91" transform="translate(29.91 15.189)"/><path style="fill:none;stroke:#000;stroke-width:.31624034;stroke-linecap:butt;stroke-linejoin:miter;stroke-miterlimit:4;stroke-dasharray:none;stroke-opacity:1" d="m58.853 36.598 12.65-21.91" transform="translate(29.91 15.189)"/><path style="fill:none;stroke:#000;stroke-width:.27684659px;stroke-linecap:butt;stroke-linejoin:miter;stroke-opacity:1" d="M20.905 36.598h37.948" transform="translate(29.91 15.189)"/><path style="fill:none;stroke:#000;stroke-width:.5;stroke-linecap:butt;stroke-linejoin:miter;stroke-miterlimit:4;stroke-dasharray:none;stroke-opacity:1" d="M71.503 14.688h37.949m-50.599 21.91 12.65-21.91m25.299 21.91 12.65-21.91" transform="translate(29.91 15.189)"/><path style="fill:none;stroke:#000;stroke-width:.27684659px;stroke-linecap:butt;stroke-linejoin:miter;stroke-opacity:1" d="M58.853 36.598h37.95" transform="translate(29.91 15.189)"/><path style="fill:none;stroke:#000;stroke-width:.5;stroke-linecap:butt;stroke-linejoin:miter;stroke-miterlimit:4;stroke-dasharray:none;stroke-opacity:1" d="M-17.044 36.598h37.949m-50.599 21.91 12.65-21.91" transform="translate(29.91 15.189)"/><path style="fill:none;stroke:#000;stroke-width:.31624034;stroke-linecap:butt;stroke-linejoin:miter;stroke-miterlimit:4;stroke-dasharray:none;stroke-opacity:1" d="m8.255 58.508 12.65-21.91" transform="translate(29.91 15.189)"/><path style="fill:none;stroke:#000;stroke-width:.5;stroke-linecap:butt;stroke-linejoin:miter;stroke-miterlimit:4;stroke-dasharray:none;stroke-opacity:1" d="M-29.694 58.508H8.255m12.65-21.91h37.948M8.255 58.508l12.65-21.91" transform="translate(29.91 15.189)"/><path style="fill:none;stroke:#000;stroke-width:.31624034;stroke-linecap:butt;stroke-linejoin:miter;stroke-miterlimit:4;stroke-dasharray:none;stroke-opacity:1" d="m46.204 58.508 12.65-21.91" transform="translate(29.91 15.189)"/><path style="fill:none;stroke:#000;stroke-width:.5;stroke-linecap:butt;stroke-linejoin:miter;stroke-miterlimit:4;stroke-dasharray:none;stroke-opacity:1" d="M8.255 58.508h37.949m12.649-21.91h37.95m-50.599 21.91 12.65-21.91m25.299 21.91 12.65-21.91m-50.599 21.91h37.949" transform="translate(29.91 15.189)"/><text xml:space="preserve" style="font-style:normal;font-weight:400;font-size:4.23333311px;line-height:1.25;font-family:sans-serif;letter-spacing:0;word-spacing:0;fill:#000;fill-opacity:1;stroke:none;stroke-width:.26458332" x="23.598" y="-9.952" transform="translate(29.91 15.189)"><tspan x="23.598" y="-9.952" style="font-size:7.05555534px;stroke-width:.26458332">6</tspan></text><text xml:space="preserve" style="font-style:normal;font-weight:400;font-size:4.23333311px;line-height:1.25;font-family:sans-serif;letter-spacing:0;word-spacing:0;fill:#000;fill-opacity:1;stroke:none;stroke-width:.26458332" x="-4.732" y="4.213" transform="translate(29.91 15.189)"><tspan x="-4.732" y="4.213" style="font-size:7.05555534px;stroke-width:.26458332">4</tspan></text><path style="fill:none;stroke:#000;stroke-width:.5;stroke-linecap:butt;stroke-linejoin:miter;stroke-miterlimit:4;stroke-dasharray:none;stroke-opacity:1" d="M93.287 63.584 131.13-1.961m1.972 1.009-3.944-2.277M95.23 64.651l-3.945-2.277m-7.367 6.189H-29.518m113.665-2.361v4.555m-113.623-4.521v4.554" transform="translate(29.91 15.189)"/><text xml:space="preserve" style="font-style:normal;font-weight:400;font-size:4.23333311px;line-height:1.25;font-family:sans-serif;letter-spacing:0;word-spacing:0;fill:#000;fill-opacity:1;stroke:none;stroke-width:.26458332" x="20.871" y="77.205" transform="translate(29.91 15.189)"><tspan x="20.871" y="77.205" style="font-size:7.05555534px;stroke-width:.26458332">18</tspan></text><text xml:space="preserve" style="font-style:normal;font-weight:400;font-size:4.23333311px;line-height:1.25;font-family:sans-serif;letter-spacing:0;word-spacing:0;fill:#000;fill-opacity:1;stroke:none;stroke-width:.26458332" x="113.346" y="38.451" transform="translate(29.91 15.189)"><tspan x="113.346" y="38.451" style="font-size:7.05555534px;stroke-width:.26458332">12</tspan></text></svg>