<svg xmlns="http://www.w3.org/2000/svg" width="107" height="201.8" style="enable-background:new 0 0 107 201.8" xml:space="preserve"><path d="M97.6 15.4c-.15-.14-1-.18-.97-.16-.16-.03-.34-.09-.44-.12-.01 0-.02-.01-.02-.01-.57-.51-1.39-1.26-2.41-1.62 1.66-1.99 2.94-4.53 2.89-7.15-.08-1.07-.57-2.19-1.45-2.83-.86-.44-1.91-.45-2.84-.3-1.27.45-2.21 1.59-2.83 2.75-.24.57-.75 1.14-.6 1.78.2.83 1.42.99 1.83.24.75-1.73 1.56-2.67 2.22-2.85.14-.01.31-.02.4-.01.12 0 .41.03.54.04.07.01.15.03.22.05.02.02.05.04.07.07.95.84.3 3.87-1.38 6.22-.12.14-1.12 1.38-1.46 1.63-.22.18-.94.83-1.24 1.12-.45.27-.9.55-1.18.98-.46.74.3 1.72 1.13 1.47.35-.16.76-.45 1.2-.81.82-.51 1.48-.9 2.22-.37.73.33 1 1.06 2.22 1.53.85.26 2.37.46 2.41-.8-.05-.35-.22-.66-.53-.85zM75.61 4.16c.16-.84-.85-1.66-1.6-1.03-.2.13-.3.31-.35.52-1.25 1.49-2.72 2.82-3.9 4.34-.47.96.9 1.87 1.62 1.09.63-.71 1.31-1.4 1.97-2.1-.15 2.23-.12 4.66-.17 7.24 0 .97-.63 2.63.47 3.16.44.22 1 0 1.25-.41.25-.46.1-1.02.16-1.52.23-1.79.16-3.59.17-5.39-.13-2.37.32-3.52.38-5.9zM15.33 28.08c-1.37-.33-2.91-.25-4.31.06-.03-1.03-.16-2.05-.32-3.06 1.28-.17 4.89.15 6.98-.12 1-.35.67-1.96-.39-1.91h-6.58c-.31.01-.63.07-.91.2.03-.01.03-.02-.04 0-.12.01-.05.01.03 0-.54 0-1.03.34-1.15.88-.02 1.43.68 4.37.29 5.55-.02.09-.04.17-.06.22-.08.28-.08.58.07.89.37.64 1.37.65 1.73 0 .02-.05.03-.1.05-.15l.13-.19c.06-.06.14-.13.19-.17.64-.47 2.74-.41 3.49-.36.06.02.11.04.16.06.06.03.13.07.19.11.11.09.44.37.61.55.03.06.33.48.47.76-.01-.03-.01-.04 0 .01.03.07.06.13.07.17-.02-.04-.04-.08-.05-.12.02 0 .02.01.03.04.16.88.54 1.65 0 3.07-.07.14-.2.39-.29.53-.12.11-.77.79-.94.95l-.02.02-.15.09c-.35.28-2.01.48-2.54.53-.14-.05-.47-.14-.59-.19-.29-.1-.58-.19-.87-.28l-.01-.01c-.05-.05-.15-.14-.24-.23.02.03.02.02-.01-.01-.04-.05-.08-.09-.1-.13-.04-.05-.08-.11-.11-.15.03.04.04.05.06.08-.02-.03-.05-.08-.08-.12-.07-.26-.21-.51-.45-.64-.73-.46-1.73.3-1.47 1.13.29.9.43.78.75 1.26.44.55 1.11.77 1.76.96.58.2 1.18.45 1.8.3 1.15-.19 1.92-.08 3.34-.88 2.48-1.77 2.76-4.51 2.2-6.31-.27-1.48-1.37-2.82-2.72-3.39z"/><path d="m10.24 35.82.01.01c.04.05.08.1.1.13l.01.01c-.02-.02-.05-.06-.1-.13.01.02-.01-.02-.06-.08.03.04.05.06.06.08l-.02-.02zm5.73-4.43c.01.02.01.03.02.05 0-.01-.01-.03-.02-.05zm43.18-3.54c-.43-1.03-1.44-1.86-2.04-2.53.11-.52-.17-1.1-.97-1.18-3.78-.27-6.01 1.86-7.53 5.11-.55 1.32-.59 4.54-.31 6.02.07.34.27.62.49.88.01.01.03.04.07.09.3.39.6.81 1.02 1.09.85.45 1.83.54 2.77.71 1.1-.08 2.1-.72 3.08-1.21 1.28-.75 2.19-2.06 2.74-3.41.79-1.73 1.13-3.68.68-5.57zm-2.21 3.97c-.7 2.27-2.05 3.57-4.32 4.22-.29-.06-1.29-.26-1.53-.34-.26-.11-.19-.07-.77-.8-.01-.01-.01-.02-.02-.03-.01-.02-.03-.04-.06-.08 0-.01-.01-.01-.01-.02-.29-1.53.01-3.93.13-4.6.5-1.05 1.68-3.11 3.24-3.78.88-.18.97-.21 1.58-.24.09.14.21.26.35.35.02.01.02.02.05.04.01.02.02.02.03.03.43.62 1.04 1.09 1.52 1.68.22.4.47 1.85-.19 3.57zm7.17 5.07c-.36-1-1.95-.67-1.91.39-.17 2.8.02 3.95-.95 5.05-.36.73.42 1.58 1.18 1.35 1.1-.51 1.48-1.88 1.56-3 .05-1.24.31-2.56.12-3.79zm12.22-5.71c-.73-.79-.62-.64-1.44-1.25-.93-.45-1.96-.48-2.97-.49.17-.24.34-.47.47-.67.18-.18 1.46-1.46 1.86-1.76.77-.75 1.83-1.28 2.43-2.15.47-.95-.9-1.87-1.62-1.09-2.46 1.97-5.12 4.09-6.31 7.09-.2 1.7-.82 3.91-.03 5.49.93 1.32 1.97 1.64 3.9 1.71 1.21-.19 1.72-.46 2.47-.95 1.79-1.3 2.51-4.04 1.24-5.93zm-3.78 4.88c-.14-.02-.56-.04-.84-.07-.05-.01-.45-.07-.64-.13l-.18-.12c.07.06.11.09.14.11-.05-.03-.13-.1-.2-.15-.08-.09-.27-.26-.38-.36-.02-.03-.04-.07-.06-.1-.01-.17-.03-.46-.02-.58-.02-1.24.09-1.91.22-2.68.06-.04.13-.07.19-.12.12-.1.53-.32.71-.42 1.14.03 1.55-.04 2.26.19.07.02.15.05.22.08.57.5.38.25.78.67.02.02.03.05.04.07.07.21.16.6.2.75-.09 1.15-.17 1.33-.71 1.97-.96.79-.33.43-1.73.89zM49.51 72.91c.04.08.05.1 0 0z"/><path d="M59.09 67.05c-.15-.61-.42-1.15-.88-1.58-.28-.42-.73-.69-1.09-1.05-.35-.28-.8-.57-1.27-.54a.875.875 0 0 0-.16-.02c-3.14.16-6.32 1.79-7.65 4.74-.81 2.25-1.21 5.4 1.04 6.94.95.68 1.91 1.35 3.11 1.47 1.51.22 3.03-.19 4.38-.86 1.18-.52 2.09-1.44 2.55-2.64.37-.73.9-1.5.83-2.35-.2-1.57-.31-2.96-.86-4.11zm-2.2 6.45c-.11.11-.3.28-.41.38-1.95 1.16-2.77 1.43-4.71.98-.24 0-.64-.38-1.34-.82-.08-.05-.26-.18-.37-.26-.05-.04-.1-.09-.15-.14-.12-.2-.42-.7-.46-.87.03.06.04.1.06.13-.03-.08-.08-.22-.11-.32.01-1.61.05-1.91.56-3.47.61-1.02 2.34-2.89 4.7-3.12.33-.15.63-.04 1.06-.14.02.01.05.03.07.04.08.07.18.16.24.22.63.54.31.23.84.84.05.05.09.1.14.15.06.2.12.39.19.59.09.3.22.58.36.87.18.76.33 1.87.39 2.78-.12.32-.04.16-.37.81-.26.44-.47.9-.69 1.35zm2.17 12.74c.06.07-.47-.65-.6-.78-.59-.48-.9-.76-2.08-1.03-.22-.06-.45-.12-.69-.17-.16-.09-.35-.11-.55-.09-.27-.02-.53-.02-.78.07-.08.03-.16.07-.22.12-1.54.27-3.24.48-4.17 1.81-.41.6-.86 1.17-1.18 1.82-.27.59-.43 1.22-.64 1.84-.35.9-.82 1.84-.67 2.83.01 1.38.56 2.54 1.37 3.64 1.08.93 2.24 1.87 3.69 2.09 1.12.3 2.13-.45 3.18-.73 2.14-.77 3.71-2.63 4.38-4.77.16-1.34.1-1.32.29-2.55.24-1.5-.4-2.95-1.33-4.1zm-.88 6.04c0 .02 0 .03-.01.05 0 .02-.01.03-.01.06a.3.3 0 0 1-.04.1c-.09.2-.26.58-.31.7-.92 2.18-3.1 2.66-4.63 3.26-.04 0-.08 0-.12-.01-.2-.05-.71-.16-.85-.22a3.25 3.25 0 0 1-.17-.06c-.12-.05-.24-.11-.34-.19-1.16-.88-1.26-.79-1.57-1.37-.67-1.26-.5-.7-.62-1.62-.13-1.01-.06-.9.34-2.05.12-.25.42-1.18.73-2.08.14-.21.73-1.18.91-1.39.04-.06.1-.14.15-.21.06-.07.12-.13.18-.19.08-.05.18-.11.28-.16.09-.03.32-.12.43-.14.83-.28 1.76-.35 2.61-.58h.01c.51.12 1.02.26 1.53.42h.01c.11.09.28.22.41.31.63.85 1.01 1.33 1.14 1.77.07.12.16.51.21.69 0 1.09-.23 1.45-.27 2.91zm1.38-84.04c-.1-1.28-.31-2.66-1.07-3.73-.3-.75-.91-1.29-1.68-1.53-.24-.13-.5-.18-.74-.16a.85.85 0 0 0-.65-.04c-1.97.48-4.14 1.05-5.54 2.6-.92 1.08-1.92 2.2-2.2 3.62-.23.71-.57 1.43-.36 2.19.25 1.66 1.46 4.15 2.95 4.98 1.01.42 2.11.62 3.19.72.95-.19 1.95-.49 2.78-.99 2.52-1.99 3.53-4.25 3.32-7.66zm-2.05 2.31c-.06.19-.29 1.05-.38 1.25-.02.05-.04.09-.05.14l-.02.04c-.06.09-.04.07 0 .02-.35.46-.68.93-1.01 1.4-.12.12-.52.56-.66.66-.08.06-.13.11-.17.14-.02.02-.06.04-.12.09-.14.11-.21.08-.85.32-.73.26-.84.32-1.09.27.52.12-1.52-.29-1.94-.46-.01 0-.02-.01-.02-.01-.03-.02-.06-.03-.09-.05-.75-.86-1.42-1.68-1.71-3.14l-.12-.53v-.08c.21-.62.41-1.24.59-1.88.73-1.05.75-1.15 1.44-1.92.09-.14.49-.49.61-.6 1.1-.77 2.3-.98 3.84-1.49.13.06.27.1.42.14.08.03.14.05.18.07.05.03.11.06.16.09.01.01.02.02.03.02.19.42.47.78.67 1.18.02.17.28 1.24.33 1.49.02.09.04.18.05.28-.06-.04 0 1.9-.09 2.56zm6.66 4.58c.2-1.04-1.35-1.57-1.85-.64-.68 1.59-.77 1.98-1.48 3.41-.8 1.4 1.33 2.21 1.76.93.73-1.52 1.2-2.6 1.57-3.7zm-1.44 85.13c-7.02.09-13-.5-20.27 0-1.3 0-1.31 1.99 0 2 3.56-.18 8.89-.29 11.47-.19 2.31.36 4.66.13 6.99.19.82-.1 1.84.27 2.52-.29.62-.59.15-1.74-.71-1.71zm-2.05 7.64c.23.57-.2-.71-.33-.94-.6-1.06-1.68-1.91-2.94-1.85a.889.889 0 0 0-.62-.22c-2.17.17-4.43.4-6.02 2.06-.88.65-1.31 1.68-1.87 2.58-.77 1.13-1.22 2.62-.97 3.99l.03.19c.01.14.05.41.1.52.25.66.73 1.2 1.1 1.8.29.5.63.99 1.18 1.22.55.29 1.07.66 1.67.83 1.73.2 3.51-.09 5.12-.74.84-.48 2.16-1.5 2.81-3.04.99-1.78 1.72-4.52.74-6.4zm-1.63 3.21c-.06.17-.23.74-.29.89-.2.67-.24.77-.32.92-.85 1.51-.95 1.82-1.88 2.38-.18.3-2.21.88-3.17.83-.31-.01-.63 0-.94-.02-.16-.08-.5-.26-.62-.33-.47-.26-.62-.34-.69-.39-.15-.25-.82-1.25-.98-1.48-.06-.07-.13-.22-.19-.32-.01-.06-.02-.09-.02-.1-.01-.06-.02-.12-.02-.18-.14-.82-.1-.74.3-2.07-.02-.13.54-.86.93-1.59.42-.67.39-.74.64-.95.11-.12.66-.57.76-.66 1.07-.81 1.36-.8 2.81-1.02h-.06c.16-.01.61-.03 1.08-.09.44.16.97.15 1.43.19.23.11.64.52.73.69.03.06.06.11.08.15.03.09.07.18.09.27.08.34.23.66.38.98.01.65.01 1.28-.05 1.9zm19.43 2.06c-.21-.67-.64-1.27-1.05-1.83-.67-.67-1.49-1.15-2.43-1.3-.83-.27-1.71-.35-2.56-.16 1.2-1.33 2.79-2.95 4.04-3.94.92-.92-.48-2.33-1.41-1.41-1.78 1.47-3.36 3.14-4.86 4.88-.73.99-1.06.94-1.41 2.27-.2.83-.52 1.66-.35 2.53.09.55.01 1.15.32 1.63.19.46 1.9 1.67 1.51 1.36 1.23.99 2.94.97 4.43.77.63.01 1.17-.28 1.66-.66.53-.34 1-.74 1.34-1.28.19-.24 1.02-1.72.77-2.86zm-3.71 2.79c-.35.04-.71.07-1.06.1-.15.04-.59.03-.74.04-1.67-.36-1.31-.31-2.45-1.26-.04-.45-.12-.9-.12-1.36.01-.05.03-.12.05-.2.71-.44.68-.76 1.27-1.03.8-.39 1.11-.53 2.04-.48.21.06 1.12.28 1.33.35.1.03.19.07.29.1.05.03.09.05.11.07.58.48.53.47 1.03 1.3 0 .12 0 .3-.03.39-.19.38-.29 1.19-1.72 1.98zm1.67 13.49c-1.08-1.11-2.67-1.4-4.1-.87-.22.07-.45.14-.67.22.05-.73.03-1.47.03-2.2 1.31-.22 2.6-.52 3.9-.77.25-.07.47-.24.6-.46.46-.73-.3-1.73-1.13-1.47-7.02 1.55-4.83-.24-5.55 6.35-.19.72.43 1.52 1.23 1.29.22-.07.37-.18.49-.33.04-.03.08-.05.12-.08.99-.63 2.6-.92 2.87-.8.04.01.07.02.1.03.66.38.4.24 1.11.84.03.04.06.09.09.13.08.1.22.37.29.51.32 1.14.34 1.57.15 2.41-.47.78-.44.71-1.25 1.49-.49.31-1 .58-1.51.84-.02.01-.04.01-.07.02-1.46.08-1.58.13-2.89-.28-.86-.35-1.74.64-1.25 1.44.22.4.67.48 1.08.59.85.29 1.74.34 2.63.27 1.16.05 2.14-.63 3.09-1.2 1.29-1.12 2.26-1.98 2.27-4.09-.02-1.42-.45-2.98-1.63-3.88zm-.07 16.74c0-.01 0-.02.01-.03.12-.26.2-.54.13-.83-.13-.52-.72-.85-1.23-.7-.43.14-.8.4-1.05.79-.56.74-.62.84-1.43 1.77-.49.72-1.44 1.26-1.56 2.16-.03.86 1.12 1.34 1.71.71.34-.36.77-.86 1.2-1.37-.09 2.02 0 4.04-.04 6.06.04 1.03-.39 3.08 1.27 2.8.42-.11.74-.53.73-.96v-4.73c-.07-2.32.06-3.62.26-5.51v-.16zm23.33 3.16c-.05-.73-.55-1.32-.82-1.97-.46-.56-.73-1.82-2.01-1.88a.984.984 0 0 0-.74.11c-2.12-.34-4.42.22-6.04 1.64-1.23 1.57-2.52 3.42-2.53 5.49 0 .94-.12 1.94.52 2.73.36.48.6 1.05 1.04 1.46.69.54 1.55.83 2.34 1.21.98.14 2.02.26 3 .05.93-.24 1.71-.8 2.5-1.33.68-.38 1.11-1.02 1.47-1.7.27-.53.47-1.09.69-1.64.63-1.29.63-2.77.58-4.17zm-2.1 2.37c-.18.88-.58 1.58-.78 2.16-.05.2-.49.85-.61 1.04l-.02.02c-.43.31-1.5.98-1.68 1.1-.26.1-.53.19-.81.25-1.85-.06-1.27.08-2.62-.52-1.05-.55-.39-.12-1.31-1.38-.07-.12-.14-.23-.2-.35 0-.11 0-.22-.01-.33-.11-1.99.4-2.97 1.81-4.87.41-.59 2.37-1.57 4.26-1.28.12.04.68.15 1.06.12.06.1.12.23.24.4l.12.15c.01.02.02.03.04.06.18.4.41.78.6 1.18.01.02.01.03.01.04v.08c-.01 1.09.05 1.61-.1 2.13zm-22.85 11.71c-.84.86-1.16 2.18-2.37 3.27-.41.57-1.21.99-1.25 1.75-.03.86 1.12 1.34 1.71.71.36-.39.72-.78 1.08-1.18-.01 1.07-.04 2.14-.17 3.21-.01.84-.02 3.76-.01 3.56-.14.91-.54 2.51.83 2.57.81 0 1.07-.79 1.02-1.47.11-.2.19-2.24.15-3.35-.03-1.66.25-3.3.18-4.96-.06-.62.32-1.64.34-2.9.17-.85-.68-1.7-1.51-1.21zm25.05 6.91c-.3-.92-.62-1.84-1.06-2.7-.01-.03-.02-.05-.03-.07-.19-.55-.3-1.14-.77-1.53-.32-.3-.65-.69-1.12-.71-.13-.37-.44-.68-.91-.66-2.41-.01-4.95.41-6.77 2.11-.85 1.18-1.42 2.59-1.48 4.05.08-.67-.09.71-.14.96-.14 1.11-.1 2.26-.03 3.37.22.59.67 1.06.96 1.62.57.81 1.48 1.59 2.4 1.97 1.55.14 3-.19 3.77-.57 1.08-.38 2.17-.87 2.95-1.73.83-.77 1.29-1.8 1.84-2.76.15-.16.24-.97.25-1.16.13-.71.26-1.46.14-2.19zm-2.35 2.78c-.42.7-.74 1.39-.87 1.47-.82.89-.84.94-1.94 1.46-1.74.64-1.3.63-3.27.75-.44-.31-.11-.07-.72-.57-.1-.06-.29-.26-.39-.36-.27-.42-.53-.85-.81-1.26 0-.69-.01-1.39-.01-2.08.22-1.48.09-2.68 1.17-4.4l.03-.03c.08-.07.1-.09.1-.08.27-.23 1.09-.64 1.31-.75 1.42-.66 2.21-.44 3.79-.63.14.36.49.6.76.89.47 1.5.82 1.82 1.24 3.26-.01 1.07-.16 1.41-.22 2.01-.05.1-.11.21-.17.32zm5.55 6.9c-.18-.1-.8.05-.96.11-4.45.36-8.35.5-13.22.17-5.55.36-11.12-.03-16.67.32-3.01.07-6.03.01-9.05.03-.27 0-.52.11-.71.29-.62.59-.16 1.74.71 1.71 4.48.06 8.95-.05 13.43-.17 4.23.02 8.46.03 12.69-.17 3.41.28 7.85.25 10.38 0 .64.01 1.28-.13 1.92-.16.61-.01 1.31.01 1.83-.36.65-.47.42-1.58-.35-1.77zm-19.2-40.3c-.18-.1-.8.05-.96.11-4.45.36-8.35.5-13.22.17-5.55.36-11.12-.03-16.67.32-3.01.07-6.03.01-9.05.03-.27 0-.52.11-.71.29-.62.59-.16 1.74.71 1.71 4.48.06 8.95-.05 13.43-.17 4.23.02 8.46.03 12.69-.17 3.41.28 7.85.25 10.38 0 .64.01 1.28-.13 1.92-.16.61-.01 1.31.01 1.83-.36.65-.47.42-1.58-.35-1.77zm15.64 49.6c-.23-.75-.46-1.54-1.03-2.12-.09-.11-.45-.35-.57-.42-.32-.28-.62-.64-1.08-.62h-.01a.808.808 0 0 0-.49-.14c-2.2.05-4.69.32-6.34 1.93-1.02 1.43-1.47 1.71-2.02 3.28-.16.51-.38 1-.52 1.51-.1.89.04 1.02.07 1.4.06.94.46 1.75 1.05 2.47.55.86 1.51 1.29 2.42 1.67 1.2.31 2.64.09 3.7-.57 1.75-.94 3.6-2.15 4.36-4.07.53-1.36.67-2.87.46-4.32zm-2.73 4.34c-.34.51-1.93 1.82-3.62 2.62-.07.02-.19.06-.28.07-.39.04-.79.09-1.19.09l-.18-.06c-.24-.12-.85-.43-1.04-.56a5.58 5.58 0 0 1-.22-.23c-.01-.02-.47-.67-.63-.94-.07-.24-.09-.49-.14-.74-.01-.08-.02-.14-.03-.18-.01-.04-.02-.14-.04-.3-.01-.09-.01-.18-.01-.26.67-1.95.56-1.87 1.63-3.3.59-.89.83-.93 1.84-1.34 1.32-.55 1.96-.35 3.39-.53.23.22.52.41.78.59.01.02.03.04.06.07.82 1.25.61 3.56-.32 5zm2.46-166.34c.01.02.02.04.02.06-.42-.89-1.09-1.71-1.94-2.21-.36-.15-.73-.39-1.13-.31h-.02c-2.04-.52-4.18-.85-5.94 1.11-1.48 2.14-2.66 4.62-2.35 7.28.1.71.19 1.45.51 2.1.37.54.87.99 1.4 1.37 1.27.66 2.82.81 4.22.58 1.42-.39 2.63-1.21 3.72-2.18 1.1-.92 1.85-2.1 2.05-3.53.42-1.49.33-2.94-.54-4.27zm-2.04 5.54c-.21.25-1.46 1.46-2.57 2.11-.02.01-.03.01-.04.02-.27.11-.96.33-1.11.39-1.2.07-1.29.02-2.45-.26-.1-.06-.21-.11-.31-.18-.13-.12-.41-.38-.57-.55-.26-.95-.29-1.04-.28-1.76-.05-2.21.61-3.31 2.09-5.62l.01-.01c.04-.02.09-.05.14-.08.75-.38.96-.42 1.59-.47.27-.06 1.23.25 2.59.45.07.03.14.07.21.12.07.08.37.36.53.53.47.69.31.51.81 1.41.02.03.03.06.04.09.05.14.13.55.17.72 0 .02 0 .04.01.06-.02.3-.34 2.56-.86 3.03z"/><path d="M104.26 21.33c-.48-1.32-2.5-.53-3.59-.73-1.74 0-2.93.06-4.04-.13-3.51-.57-8.78.08-11.36-.34-4.05-.1-8.09-.29-12.15-.21-2.83.27-6.01.05-9.47.27-3.9.18-12.29.05-16.12.06-3.36-.67-7.14-1.03-11.16-.28-1.29.4-3.28.14-4.58 2.34-.46.64-.43 1.39-.24 2.12-.01.11.06.99.07 1.2.14.84.11.58.13 1.04.34 2.57.85 7.3.1 9.73-.22 1.2-1.03 2.54-1.55 2.84-1.73 1.1-2.12 1.41-3.55 1.35-4.23-.07-8.47.17-12.69-.17-3.9-.1-7.87-.42-11.75-.3-.98.35-.68 1.96.39 1.91 6.4.14 12.78.56 19.18.52 2.32-.1 4.7.26 6.98-.26 1.09-.44 2.1-1.09 3.03-1.81 1.56-1.57 2.16-3.83 2.22-5.99.44-3.36-.25-6.41-.53-9.12 0-.28-.02-1.18-.09-1.41-.02-.14-.07-.28-.1-.43.12-.25.26-.5.42-.72.01-.01.02-.02.03-.02.15-.06.75-.38.91-.46.06-.03.09-.04.12-.06.04-.01.1-.03.18-.05.32-.04 1.35-.19 1.96-.36 1.65-.31 5.44-.48 7.15-.16 2.3.5 5.21.64 8.3.55 7.41.03 14.43-.07 20.91-.35 7.49-.09 13.58.49 20.96.35 1.28-.04 1.33.11 2.81.28 2.04.17 4.11.02 6.16.06.63.02 1.14-.65.96-1.26z"/></svg>