<svg xmlns="http://www.w3.org/2000/svg" width="158" height="251" style="enable-background:new 0 0 158 251" xml:space="preserve"><path d="M19.85 35.49c.42-.32.75-.62 1.01-.78 1.36-.93 2.49-2.36 2.51-4.07.08-.73-.42-1.15-.93-1.19-.11-.2-.31-.38-.62-.49-1.74-.52-3.75-1.03-5.56-.67-1.17.5-2.41 1.12-3.13 2.22-.48 1.11-.52 2.59.22 3.59.54.81 1.31 1.36 2.17 1.78-.81.58-1.57 1.24-2.16 2.04-1.21 1.6-1.03 3.72.87 4.67 1.34.95 3.07 1.2 4.67.87h.03c.03 0 .08-.01.17-.01.79-.03 1.54-.35 2.17-.8 1.76-1.28 1.6-4.12.46-5.77-.51-.62-1.17-1.05-1.88-1.39zm-2.39-.95c-.03.07-2.06-.99-2.03-1.06-.08-.05-.18-.17-.23-.23-.01-.02-.02-.03-.03-.05-.47-.78-.37-.28-.34-1.5.01-.07.03-.16.06-.23 0-.01.01-.02.02-.03.11-.1.51-.48.67-.59.23-.12.91-.49 1.26-.66.07-.02.19-.07.3-.07.33.03 2.41.14 3.76.62.15.09.3.13.45.16-.19 1.32-1.74 2.3-3.16 3.32-.2.12-.4.24-.61.35l-.12-.03zm2.24 6.72c-.63.27-.36.08-1.31.25-.58.07-1.16.21-2.21-.16-.24-.02-.66-.34-1.35-.77-.01-.01-.02-.02-.05-.04-.02-.02-.04-.05-.06-.07a.638.638 0 0 1-.08-.14c-.38-.83 1.05-2.23 3.15-3.57.14.05.29.1.43.16.52.24 1.01.54 1.51.81.08.04.22.12.31.18.11.16.21.31.3.48l.07.14v.01c.06.14.1.29.13.44.13 2.01-.27 1.88-.84 2.28zm39.12-12.42c-.37.09-.58.41-.76.71-.1.12-.2.23-.3.35-.63.72-1.32 1.39-2.04 2.01-.98.85-.99.82-2.01 1.55-.22.13-.39.35-.46.6-.26.83.73 1.59 1.47 1.13 1.08-.75 2.11-1.57 3.07-2.47-.23 2.23-.34 4.57-.32 7.37-.01.16-.09.5-.11 1.16-.39.7.29 1.7 1.14 1.44.82-.24.87-1.18.88-1.89.15-.49.09-3.31.12-4.75.17-1.62.25-3.49.58-5.61.19-.82-.3-1.85-1.26-1.6zm22.8 7.07c-.5-.57-1.07-1.15-1.82-1.35-.73-.18-1.51-.14-2.26-.12-.17.03-.34.08-.5.14 1.4-1.79 2.55-2.26 4.42-3.65.7-.8-.39-2.04-1.29-1.47-2.72 1.62-5.49 3.79-6.26 7.01-.44 1.38-.31 3.2.75 4.27 1.1.82 2.43 1.42 3.83 1.2.89-.07 1.82-.18 2.48-.84 1.76-1.41 2.37-3.44.65-5.19zm-2.17 3.85c-.11.08-.74.25-1.93.21-.61-.12-.74-.27-1.58-.75-.01-.01-.01-.02-.02-.04v-.01c-.25-.96-.28-.79-.25-1.47.01-.04.02-.08.03-.14.63-.22 1.35-.82 1.91-1.08.05-.02.13-.05.21-.07.06.03.98.01 1.3.03.06.01.14.04.21.06.37.21.98.84 1.28 1.37.01.05.03.1.04.15.01.09.02.24.02.36.02.13-.87 1.19-1.22 1.38zm23.74-6.77c-.45-.58-.83-1.31-1.61-1.47-.01 0-.03-.01-.04-.01a.971.971 0 0 0-.62-.5c-1.76-.55-4.1-.33-5.61.77-1.08 1.17-1.41 1.57-2.26 3.09-.11.34-.25 2.33-.21 1.71-.17.67.04 1.32.22 1.97.18.65.34 1.36.86 1.83 1.7 1.52 4.34 1.77 6.42.94 1.44-.47 2.6-1.44 3.37-2.74.35-.78.37-1.68.43-2.53.13-1.21-.15-2.13-.95-3.06zm-2.27 5.82c-1.06.63-1.19.64-2.46.98-1.6.03-2.51-.23-3.21-.92-.18-.51-.31-1.03-.45-1.54-.01-.04-.01-.07-.02-.1a.605.605 0 0 1 0-.19c.05-.32.17-1.19.17-1.47 0-.02.01-.04.01-.06.55-.86.66-.99 1.07-1.53.27-.35.08-.17.57-.67.73-.43 1.4-.57 2.47-.56.48.52 1.31.47 1.97.7.01.02.03.03.05.05.02.03.04.05.06.08.35.48.73.96 1 1.49-.06.7.04 2.08-.3 2.68-.22.34-.81 1.03-.93 1.06zm21.4 1.26c-.05-1.94-.35-2.47-.41-4.37-.09-1.56-.27-3.12-.28-4.68 0-.26-.11-.52-.29-.71-.59-.63-1.74-.16-1.71.71.04 1.31.11 2.52.2 3.7-.36 0-.73.08-1.09.08-1.27-.05-2.73.1-3.83.27.26-.87.57-1.92.73-2.55.09-.65.55-1.36.2-2-.41-.75-1.63-.59-1.83.24-.4 1.93-1.27 4.33-1.51 5.47.25 1.84 2.48.72 3.65.65.61-.1 2.41-.01 3.8-.17.02 0 .03-.01.05-.01.15 1.64.31 3.23.41 4.88.22.65 1.16.81 1.62.32.46-.5.25-1.22.29-1.83zm17.94-4.63c-.26-.13-.52-.26-.79-.37.63-.37 1.26-.79 1.8-1.32.34-.45.7-1.02.65-1.6-.01-.1-.04-.2-.08-.29.35-.53.13-1.37-.55-1.53-1.18-.32-2.39-.45-3.6-.59-1.1-.22-2.21.2-3.04.92-1.27 1.11-1.19 3.11-.19 4.36.07.06.13.11.2.15-.61.34-1.25.77-1.99 1.43-.42.58-.62 1.38-.49 2.09.33.87 1.04 1.57 1.8 2.09 1.4.72 3.01.84 4.56.78.91.05 1.57-.54 2.18-1.13.34-.34.75-.61 1.03-1.02.24-.45.31-.97.37-1.48.21-1.21-1.01-1.89-1.86-2.49zm-4.32-1.82c-.06-.12-.12-.23-.18-.35-.1-.84-.23-.87.77-1.47.05-.02.1-.05.15-.07.04-.01.08-.03.12-.04.69-.04 1.39.12 2.08.18.28.05.86.14 1.08.18-.02.05-.04.11-.06.16-.03.06-.06.12-.1.18l-.04.04c-.02.02-.04.04-.06.05-.12.09-.32.24-.41.3-.84.62-1.56.99-2.25 1.29-.43-.15-.8-.3-1.1-.45zm1.49 5.94c-2.02-.04-2.91-.72-3.27-1.39.03-.11.07-.25.09-.35.04-.04.09-.09.13-.12.25-.15 1.31-.82 1.59-.96.24-.14.62-.31 1.08-.51.77.31 1.65.63 1.73.66.87.48.89.52 1.35.95 0 .03 0 .03 0 0-.03.17-.09.39-.12.52-.44.39-.87.79-1.32 1.17h-.02c-.24.03-1.03.06-1.24.03z"/><path d="M148.11 25.74c-.55-.27-1.21-.09-1.82-.16-.03-.01-.04-.01-.09-.02-1.64-.28-3.13-.18-5.3-.28-2.6-.3-7.34-.43-11.83-.37-5.36-.19-10.38-.36-16.44-.87-2.65-.2-8.24-.07-11.91-.24-5.65-.09-11.27.37-16.92.27-1.94-.02-3.4-.23-4.54-.37-2.83-.1-5.69-.05-8.53-.01-5.09.14-8 1.01-12.72 1.39-2.27.24-4.55.04-6.82-.04-2.36-.07-4.01.13-5.86.15-2.41.34-3.77-.19-5.81 1.19-1.22.71-2.21 1.91-2.15 3.39-.03 1.54.29 2.86.4 3.73.23 2.3.45 5.96.05 7.31-1.46 5.94-8.59 5.13-16.16 5.18-4.54-.01-9.09.13-13.6-.41-1.2-.02-1.41 1.96 0 2 5.62.65 11.28.35 16.93.41 4.8-.08 11.33.36 13.91-4.58 1.26-2.09 1.3-5.32 1.01-8.36-.06-2.17-.63-3.65-.53-5.28.13-.92.09-.7.53-1.21.28-.24 1.75-1.25 2.06-1.08 2.91-.27 5.82-.45 9.29-.43 3.55.27 7.12.14 10.64-.39 1.03-.03 4.3-.74 5.76-.81 2.32-.12 7.63-.23 10.97-.18 1.7.21 5.23.53 8.79.41 4-.03 7.98-.35 11.99-.28 4.11.01 8.21.22 12.33.14 2.86.25 7.06.64 10.9.69 3.6.23 8.71.32 13.67.28.86.12 4.13.35 6.11.4 1.5-.05 1.7.07 3.11.14h.12c.78.14 1.6.24 2.36.05.72-.24.81-1.38.1-1.76zM59.76 77.43c.07-2.04.37-5.37-.02-8.16-.31-.55-1.13-.66-1.57-.2-.73.97-.58.99-1.51 1.77-1.05.83-1.46 1.29-2.96 2.03-.22.13-.39.35-.46.6-.26.83.73 1.59 1.47 1.13 1.12-.6 2.23-1.32 3.2-2.18-.01 2.48-.14 4.56-.15 7.24.1.67-.31.96-.05 2.07.22.65 1.16.81 1.62.32.34-.32.29-.77.31-1.2.21-1.13.07-2.28.12-3.42zm20.5-2.82c-1.17-.52-2.59-.43-3.8-.02.36-.64.78-1.21 1.26-1.57.87-.75 2.02-1.76 2.37-1.97.3-.2.63-.4.72-.78.26-.83-.73-1.59-1.47-1.13-2.62 1.97-4.55 3.44-5.5 6.33-.67 1.84-1.19 4.45.71 5.74 1.71 1.18 4.61 1.33 6.25-.03 2.31-2.26 1.4-5.5-.54-6.57zm-.17 4.07c-.86 1.4-.39 1.13-1.91 1.42-.22.02-.73.06-1.01.05-.02 0-.03-.01-.07-.01-1.16-.34-1.19-.33-1.67-.78a.076.076 0 0 1-.02-.04c-.1-.27-.2-.55-.24-.84.01-.27.08-.65.18-1.07.04-.01.08 0 .12-.02.13-.01.38-.2.45-.26 1.24-.94 2.32-.91 3.06-.85.07.01.17.04.25.06.77.38 1.15 1.6.86 2.34zm-20.13 10.7c-.55-.27-1.15.11-1.38.63-.3.45-1.54 1.83-2.47 2.76-.35.35-.86.66-.84 1.22-.03.86 1.12 1.34 1.71.71.51-.49 1.01-.98 1.49-1.49-.02 2.83-.15 5.7.06 8.5.22.65 1.16.81 1.62.32.46-.48.25-1.19.29-1.79.04-2.8-.1-5.61.09-8.41-.02-.82.37-2.05-.57-2.45zm22.2 6.7c-.63-1.19-2.16-1.49-3.39-1.69-.52 0-1 .22-1.49.35l-.09.03c.28-.57 1.69-1.71 2.75-2.55-.5.37.75-.56.99-.71.42-.27.99-.44 1.12-.98.26-.83-.73-1.59-1.47-1.13-3.13 1.89-6.44 4.64-6.63 8.56-.18 1.82 1.14 3.45 2.74 4.17 1.2.27 2.55.25 3.68-.24 2.12-.88 2.82-3.87 1.79-5.81zm-1.6 2.52c-.44 1.58-.95 1.77-3.2 1.65-.01 0-.03-.01-.05-.02a.597.597 0 0 1-.15-.09c-.26-.21-.52-.43-.75-.68-.31-.37-.27-.32-.41-.67-.16-.63-.02-1.54.37-2.5.17.3.5.52.87.52.69-.11.38-.12 1.28-.37.07-.02.15-.04.23-.06.17.03.34.06.51.11.8.27.7.18 1.08.41.05.09.12.21.18.32.01.08.05.23.08.33.04.66.01.85-.04 1.05zm7.81 6.81c-.43-.43-1.05-.26-1.6-.29-5.45.24-10.91.11-16.37.14-3.3-.03-6.6.29-9.9.01-4.33-.03-8.71.05-13.01.36-.99.35-.67 1.95.39 1.91 5.88-.29 11.76-.28 17.64-.17 7.5-.34 15.06.19 22.53-.33.64-.23.81-1.17.32-1.63zm-3.75 9.58c-.53-1.72-1.42-3.02-3.31-3.69a.926.926 0 0 0-.78-.39c-1.93-.05-4.12.06-5.76 1.17-1.27 1.72-2.41 3.75-2.42 5.94-.03 1.11.36 2.3 1.01 3.2.92 1.04 2.3 1.61 3.62 1.96 1.64.11 3.36-.56 4.7-1.46 1.99-1.55 3.27-4.2 2.94-6.73zm-2.35 2.86c-.22.32-.83 1.53-1.66 2.19-.88.61-.84.51-1.73.86-.21.1-1.11.27-1.33.31a.67.67 0 0 1-.2 0c-2.09-.75-2.5-.75-3.01-2.79.01-.23.02-.92.06-1.12.01-.07.02-.17.03-.26.02-.13.04-.26.08-.38.02-.28 1.26-2.65 1.63-3.13.78-.38 2.15-.65 3.52-.68.79.43.65-.02 1.33.46 1.14.63.48.21 1.41 1.36-.29-.37-.05-.07.06.13.07.25.17.5.23.76-.02.75-.09 1.14-.42 2.29zm.47-98.45c-.48-.25-1.05-.11-1.56-.03-.74.05-.55.02-.91-.03-.86-.11-.83-.2-2.32-.89.27-.25.54-.5.8-.76 1.22-1.2 2.25-2.63 2.94-4.19.06-.16.6-1.19.52-2.13.07-1.22-.64-2.35-1.6-3.04-.92-.51-2.03-.37-2.98-.03-1.22.32-1.96 1.39-2.42 2.5-.18.52-.62 1.02-.46 1.59.2.83 1.42.99 1.83.24.97-2.04.76-2.17 1.99-2.52.21-.07.29-.09.34-.1.19-.01.32-.02.43-.01.08.02.16.04.22.05.01 0 .02.01.03.01.41.51.28.25.59.81 0 .01 0 .02.01.03.05 1.51-.08 1.25-.74 2.63-1.4 2.34-2.95 3.78-5.15 5.18-.31.14-.58.32-.77.6-.46.73.3 1.73 1.13 1.47.12-.05.22-.13.34-.19-.05.04-.08.07-.06.05.66-.33 1.14-.47 1.93-.47.04.01.09.02.14.03.01 0 .01 0 .02.01 1.83.88 2.6 1.31 4.47 1.11.48-.12.29.06 1.12-.15.75-.25.81-1.39.12-1.77zm19.29-8.12c-.28-.24-.54-.51-.84-.73-.09-.44-.44-.82-.96-.8-1.72-.12-3.53.01-5.07.86-1.92 1.33-3.28 3.65-2.71 6.03.37 1.63 1.6 3 3.17 3.58 1.39.29 2.98.42 4.29-.21 2.43-1.23 3.42-4.12 3.5-5.98.04-1.07-.65-2.01-1.38-2.75zm-.86 4.15c-.24.68-.35.79-.85 1.72-.26.29-.56.55-.85.82-.03.02-.05.03-.09.05-.96.58-.85.4-2.48.4-1.88.02-3.53-2.76-1.89-4.87.68-.81 1.07-1.34 2.26-1.62.4-.14.78-.18 1.17-.19.59.49 1.14.24 1.57.4l.01.01c.95.81 1.22 1.22 1.38 1.62.07.54-.03.8-.23 1.66zm21.84-2.32c.22.5-.44-1.25-.79-1.51-.11-.11-.23-.21-.34-.31-.02-.51-.38-1.01-.97-.99-.32-.04-.64-.06-.96-.07-.17-.04-.34-.04-.5 0-1.69.05-3.39.54-4.7 1.6-.79.89-1.7 1.73-2.21 2.82-.47 1.19-.67 2.6-.3 3.84.62 1.64 2.42 2.59 4.1 2.73 1.2.13 2.37-.26 3.53-.54 3.17-.88 4.63-4.7 3.14-7.57zm-2.53 5.05c-1.06.71-1.23.63-2.6.96-1.1.3-1.97.12-2.72-.28-.8-.49-.55-.34-.91-.78-.22-.37-.22-.49-.13-1.66.04-.2.14-.67.2-.81.01-.02.01-.02.01-.03.02-.04.04-.09.08-.16.56-.94.79-1.04 1.7-2.08.36-.32.89-.59 1.91-.86.65-.24 1.12-.23 1.69-.2.01 0 .03.01.04.01.2.1.65.41.85.54.21.19.15.09.4.59.06.18.27.69.36.88.08.23.16.46.21.69.12 1.9-.52 2.63-1.09 3.19zm22.2-2.11c-.76-1.84-3.06-2.26-4.86-2.15 1.2-1.21 1.87-1.63 3.44-2.7.22-.13.39-.35.46-.6.26-.83-.73-1.59-1.47-1.13-2.8 1.85-5.97 4.24-6.4 7.82.15 3.78 3.98 4.53 6.92 3.18 1.65-.75 2.39-2.7 1.91-4.42zm-1.91 1.55c-.04.11-.14.36-.18.48-.02.03-.03.06-.04.08-.08.09-.17.19-.27.26-.73.49-.54.35-1.57.58-1.27.32-2.16-.15-2.42-.5-.49-.55-.48-1.27-.2-2.03.18.01.36-.01.54-.13 1.17-.74 3.3-.6 4.14.29.12.67.08.57 0 .97zm-39.12 94.5c.43.18.09.04-.13-.07.01-.53-.39-1.07-.98-1.05-2.25-.01-4.67.44-6.57 1.7-.93 1.3-1.84 2.29-2.22 4.34-.06 1.29.79 2.4 1.59 3.34.58.56.57.93 1.71 1.32.32.26 2.9.99 4.23.65 1.17-.18 2.23-.85 3.18-1.52.59-.64 1.25-1.3 1.61-2.11 1.15-2.72.57-5.63-2.42-6.6zm.75 5.37c-.38 1.02-.09.4-.86 1.4-.52.7-1.71 1.25-2.4 1.47-.92.31-2.92-.2-3.75-.67a.317.317 0 0 1-.05-.06c-.03-.03-.05-.07-.07-.1-.95-1.06-1.51-1.7-1.51-2.41.29-.89.28-.91.56-1.46.29-.55.41-.47.92-1.33.03-.04.06-.09.09-.14.23-.19.65-.35 1.57-.67 1.24-.33 1.92-.48 2.71-.51.02.04.03.08.05.12.81.92 1.6.85 2.19 1.26.02.02.03.03.06.05.2.24.64.89.72 1.37.01.13.02.35.01.48-.07.41-.14.81-.24 1.2zm-1.74 13.58c-.15-.32-.45-.56-.86-.54-2.5.13-5.1 1.96-6.3 3.09-.4.44-.46 1.06-.62 1.61-.08.18-.2.41-.42 1.13-.11 1.19-.09 2.57.63 3.57.78.96 1.88 1.72 3.05 2.12 1.08.19 2.22.08 3.22-.4 1.8-.68 3.25-2.09 4.02-3.85.93-2.68.4-6.1-2.72-6.73zm.41 6.73c-.94 1.57-3.19 2.73-4.75 2.22-1.23-.84-2.05-.96-1.93-3.19.03-.15.09-.29.14-.43.06-.13.13-.31.17-.39.16-.35.2-.73.31-1.09.47-.42.58-.51 1.54-1.15 1.36-.76 1.84-.97 2.73-1.16.02.02.03.05.05.07.84.54 1.04.24 1.77.72.47.5.35.4.56.87.18.93.19 2.65-.59 3.53zm5.77 7.19c-.79.01-2.65.22-3.8.23-1.78.05-2.28-.25-4.16-.19-4.79-.11-9.58.23-14.36.16-5.64-.38-9.92 0-15.49.5-.58.1-1.28-.07-1.74.38-.62.59-.16 1.74.71 1.71 4.21-.39 7.93-.66 11.56-.75 2.91-.03 5.81.31 8.72.17 3.68-.19 9.4-.18 12.07-.15 2.52.43 4.18 0 6.26-.02.59-.09 1.36-.04 1.7-.63.52-.99-.53-1.81-1.47-1.41zm-2.86 8.79c-.43-.91-1.28-1.53-2.21-1.88-.16-.31-.47-.55-.86-.54-2-.07-4.28.09-5.95 1.27-1.29 1.75-2.38 3.94-2.14 6.18.55 2.76 3.63 3.89 6.16 3.41 1.99-.26 4.09-1.31 4.86-3.26.5-1.63.76-3.56.14-5.18zm-1.68 2.37c-.11 1.59-.1 2.11-.91 2.9-1.27 1.54-4.96 1.49-5.87.63-.97-1.07-1.02-1.78-.04-4.1.1-.21.34-.7.45-.81.18-.23.32-.48.47-.73 0 0 .01 0 .01-.01.26-.09 1.11-.4 1.34-.43.77-.16 1.29-.25 2.08-.26.01.01.01.02.02.03.27.29.65.29 1.02.32.02 0 .04.01.07.01.05.01.1.03.15.05.2.1.57.33.72.42.54.58.53.56.49 1.98zm20.08 3.41c-.09-.15.03-1.71.04-2.7.1-1.62.16-3.25.31-4.87 0-.26-.11-.52-.29-.71-.59-.63-1.74-.16-1.71.71-.1 1.17-.19 2.42-.26 3.64-.63.02-1.28.14-1.88.22-1.22.22-2.44.45-3.12.49.27-1.37.6-2.73.9-4.09.07-.26.03-.54-.1-.77-.41-.75-1.63-.59-1.83.24-.38 1.67-.8 3.33-1.09 5.02-.13.5.05 1.04.51 1.3 1.68.73 3.56-.08 5.29-.27.45-.09.72-.12 1.25-.13-.03 1.35 0 2.62.14 3.63.06.68-.2 1.61.52 2.02.75.47 1.75-.33 1.46-1.16.08.54.03-2.08-.14-2.57zm1.18 14.61c-.09-.79-.5-1.53-.99-2.13-.32-.49-.92-.54-1.35-.3-.08-.46-.42-.87-.96-.85-1.89-.24-3.76.46-5.37 1.41-.68.42-1.44.89-1.54 1.76-.33 1.68-1.05 3.59-.04 5.19 1.23 1.64 3.46 2.48 5.48 2.4 1.27-.12 2.45-.83 3.35-1.71.8-1.11 1.3-2.49 1.33-3.86.03-.51.17-.87.09-1.91zm-2.05 1.46c-.05 1.18-.2 1.62-.48 2.26-.4.78-.23.6-.68.98-1.38 1.24-3.32.84-4.9-.23-.84-.87-.59-.42-.61-2.17.15-.66.39-1.3.46-1.98.01-.03.02-.05.02-.08.2-.13.65-.44.79-.52.12-.1.64-.34.87-.44.64-.26 1.3-.49 1.98-.61.55-.06 1.15.15 1.67-.05.04-.01.06-.04.1-.06.05.29.23.52.43.74.02.03.03.05.05.09.07.09.19.34.27.5.21.62.11.73.03 1.57zm7.28 10.31c-.11-.42-.53-.74-.96-.73h-6.35c-3.13.07-5.28-.36-7.93-.67-4.58-.18-9.16-.03-13.74-.07-4.11.06-8.18.85-12.29.93-1.29 0-1.32 1.99 0 2 3.57-.12 7.11-.58 10.66-.91 4.61-.05 9.21-.01 13.82-.02 2.28.01 3.38.45 5.85.6 3.32.29 6.66.1 9.98.15.64 0 1.14-.67.96-1.28zm-6.68 5.88c.07-.45.16-.96-.22-1.31-.59-.63-1.74-.16-1.71.71-.14 1.43-.27 2.87-.35 4.31-.11.02-.22.05-.32.07-1.46 0-3.27.23-4.39.38.07-.43.14-.9.18-1.16.2-1.26.41-2.52.56-3.78 0-.26-.11-.52-.29-.71-.59-.63-1.74-.15-1.71.71-.09 1.33-.79 4.08-.86 6.22.38 1.11 1.83.78 2.73.65.14-.02.61-.09.83-.13 1.06-.11 2.14-.12 3.2-.22-.03 1.57.02 3.15.22 4.71-.12 1.08 1.29 1.66 1.88.7.29-.83.07-.58.02-1.54-.19-1.44-.12-2.9-.07-4.34.06-1.77.08-3.52.3-5.27zm20.83.14c.14-.66-.56-1.26-1.2-1.11a.829.829 0 0 0-.4-.22c-1.73-.55-3.58-.62-5.37-.28-.64.12-1.37.22-1.72.85-.37.9-.58 1.23-.76 2.18.02.97.55 1.95 1.33 2.53-.11.08-.24.16-.34.24-.79.87-1.75 2-1.5 3.25.55 2.26 3.12 3.72 5.36 3.37 3.24-.03 4.29-4.4 2.15-6.45-.25-.22-.52-.42-.8-.59.24-.12.48-.24.72-.38 1.19-.79 2.08-2.05 2.53-3.39zm-3.66 5.97c.55.66.45 2.66-.67 2.8-1.2.19-2.18.2-3.45-1.2-.02-.03-.03-.06-.05-.09-.04-.09-.12-.33-.16-.44 0-.01 0-.01-.01-.03.24-.58.31-.74 1.02-1.45.37-.23.76-.44 1.16-.62.99.3 1.79.5 2.16 1.03zm-2.29-3.16a.465.465 0 0 1-.09-.03c-1.24-.48-1.12-.68-1.34-1.07-.02-.07-.04-.14-.05-.21.01-.05.03-.1.05-.16-.02.05-.02.04 0-.01.02-.06.04-.11.06-.15-.02.05-.03.07-.04.1.02-.04.04-.1.07-.15.06-.12.19-.48.26-.69.47-.08 1.72-.35 2.91-.23.71.02.85.1 1.67.31-.18.31-.27.41-.61.76-.53.57-1.69 1.01-2.89 1.53z"/><path d="M135.55 193.27c0 .01 0 .01 0 0s.01-.03.02-.05c-.01.03-.01.04-.02.05zm-13.75 22.95c.11-1.95.16-4.47.35-5.59.07-.26.03-.54-.1-.77-.41-.75-1.63-.59-1.83.24-.22 1.49-.29 2.99-.34 4.49-1.41-.18-3.44.14-4.54.38.14-.88.23-1.76.37-2.63.02-.87.55-1.82.2-2.65-.41-.75-1.63-.59-1.83.24-.32 1.79-.51 3.6-.82 5.39-.39.98.35 1.84 1.36 1.82 1.83-.24 2.41-.65 3.99-.55.37-.04.79.02 1.18.01 0 .08-.01.16-.01.25-.05 1.26-.04 2.53.2 3.77.1.37.44.69.83.72 1.23.1 1.22-1.11.98-1.99.01.53-.06-2.57.01-3.13zm19.57.69c-.46-.72-1.17-1.09-1.93-1.39.24-.16.49-.32.73-.48.93-.85 2.11-2.12 1.77-3.47-.11-.33-.42-.53-.76-.59a.876.876 0 0 0-.58-.46c-1.93-.35-3.98-.15-5.79.62-.53.19-1.07.53-1.17 1.13-.1.19.03.96.06 1.07.04.4.08.8.27 1.16.34.56.83 1.04 1.38 1.42-1.28 1.11-2.18 2.5-1.31 4.08 1.01 1.39 2.72 2.37 4.45 2.4 1.29.05 2.76-.68 3.36-1.86.48-1.12.09-2.6-.48-3.63zm-5.67-3.53c-.01-.15-.04-.29-.06-.44l.12-.06c.11-.05.28-.11.36-.13 1.29-.43 2.64-.45 3.27-.41.15.01.3.04.46.07-.21.34-1 1.33-1.8 1.65-.28.16-.59.35-.91.55-1.03-.46-1.45-1-1.44-1.23zm.04 5.56a.21.21 0 0 0-.04-.06c-.01-.02-.01-.03-.01-.05v-.16c.17-.58.82-1.17 1.71-1.81 1.37.52 2.13.74 2.38 1.29.05.17.18.59.23.88 0 .03.04.35.05.55-.01.04-.02.08-.03.11-.02.03-.04.07-.06.1-.03.04-.08.09-.13.13-.15.07-.53.27-.73.38-1.04.32-2.29-.19-3.37-1.36zm12.34 6.6c-3.54.03-7.07.05-10.58-.36-6.8-.02-13.6-.09-20.4.17h-8.75c-.27 0-.52.11-.71.29-.62.59-.16 1.74.71 1.71 9.14.05 18.27-.3 27.41-.19 1.85-.08 3.67.22 5.5.35 2.39-.02 4.85.16 7.21-.06.99-.35.67-1.95-.39-1.91zm-5.63 8.98s-.01-.01-.01-.02c0 0 0-.01-.01-.01.01 0 .02.02.02.03z"/><path d="M144.46 234.25c-.41-1.66-2.27-4.02-5.03-3.7-.5-.05-.88.28-1.02.7-1.19.34-2.31.91-3.31 1.63-.53.44-1.22.8-1.42 1.5-.31 1.29-.53 3.89.82 5.64.97 1.25 2.61 1.99 4.19 2.02 1.29-.01 2.58-.59 3.62-1.33 1.9-1.48 2.29-4.19 2.15-6.46zm-2.33 3.32c-.44 1.17-.96 1.8-2.46 2.26-.84.31-.52.23-1.55.17-.02 0-.04 0-.06-.01-.09-.02-.23-.04-.31-.08-.01 0-.01 0-.02-.01-.46-.21-.9-.46-1.33-.73-.04-.03-.08-.07-.12-.1l-.09-.09c-.41-.61-.76-1.14-.77-2.68.03-.53.07-.87.16-1.26.52-.46.35-.31.93-.72 1.71-1.16 2.22-.96 4.05-1.61.03-.02.05-.05.07-.07.7.19.86.5 1.28.98.14.13.44.72.49.8l.03.06c-.01-.02 0-.01.01.01.02.04.03.08.05.12-.02-.04-.03-.08-.04-.1.01.02.02.04.03.09 0 .01.01.03.01.04-.02 1.43 0 1.56-.36 2.93z"/></svg>