<?xml version="1.0" encoding="utf-8"?>
<!-- Generator: Adobe Illustrator 23.1.0, SVG Export Plug-In . SVG Version: 6.00 Build 0)  -->
<svg version="1.1" id="Logotype" xmlns="http://www.w3.org/2000/svg" xmlns:xlink="http://www.w3.org/1999/xlink" x="0px" y="0px"
	 viewBox="0 0 373 76.8" style="enable-background:new 0 0 373 76.8;" xml:space="preserve">
<style type="text/css">
	.st0{fill:#4A4A4A;}
</style>
<g>
	<path class="st0" d="M54.9,23.4c-0.9-0.3-2.3-0.5-3.1-0.5c-0.5,0-0.8,0-1.1,0h-0.4c0.3-1.2,0.4-1.8,0.4-2.3c0-1.1-0.6-1.6-2-1.8
		c-0.7-0.1-1.7-0.3-3.3-0.3c-3.8,0-7.7,0.9-11.5,3.2c-3.7-2.3-7.7-3.2-11.5-3.2c-1.5,0-2.6,0.2-3.3,0.3c-1.4,0.2-2,0.7-2,1.8
		c0,0.5,0.1,1.1,0.4,2.3h-0.4c-0.3,0-0.6,0-1.1,0c-0.8,0-2.2,0.2-3.1,0.5c-1.2,0.4-1.7,1.4-0.8,3.1c1.1,2.2,6.9,13.3,6.9,13.3
		l0.2-0.1c4-1.1,10.5-1.4,14.2-1.4h0.5h0.5c3.7,0,10.2,0.3,14.2,1.4l0.2,0.1c0,0,5.8-11.1,6.9-13.3C56.6,24.8,56,23.9,54.9,23.4z
		 M21.6,37.3c-0.3,0-1.2,0.2-1.5,0.3h-0.2l-5.8-12.2c1-0.4,2.9-0.5,4-0.3l3.7,12.2H21.6z M32.7,36.4H32c-3,0-5.2,0.2-7.4,0.4
		l-0.8,0.1l-0.2-0.5l-4-15.3c4-0.8,9.2,0,13,2.4v12.9H32.7z M44,36.9l-0.8-0.1c-2.1-0.2-4.4-0.4-7.4-0.4H35V23.5
		c3.8-2.4,9.1-3.2,13-2.4l-4,15.3V36.9z M47.8,37.6h-0.2c-0.3-0.1-1.2-0.2-1.5-0.3h-0.2l3.7-12.2c1-0.2,3-0.1,4,0.3L47.8,37.6z"/>
	<path class="st0" d="M29.8,14.6c0,1.8,1.8,3.3,4,3.3c2.3,0,4.1-1.5,4.1-3.3c0-1.5-1.3-2.8-3.1-3.1V9.1h2.5v-2h-2.5V4.6h-2v2.5h-2.5
		v2h2.5v2.4C31.1,11.8,29.8,13.1,29.8,14.6z M33.8,12.9c1.3,0,2.3,0.8,2.3,1.7c0,0.9-1,1.6-2.3,1.6s-2.3-0.7-2.3-1.6
		S32.6,12.9,33.8,12.9z"/>
	<path class="st0" d="M18.9,43.2l0.1,2.3c0,0,4.3-1.6,14.9-1.6c10.6,0,14.7,1.6,14.7,1.6l0.1-2.3c0,0-4.1-1.6-14.8-1.6
		C23.3,41.6,18.9,43.2,18.9,43.2z"/>
	<path d="M82,63.3c-0.3-0.3-0.7-0.5-1.1-0.7s-0.8-0.4-1.2-0.5s-0.8-0.3-1.2-0.4c-0.4-0.1-0.8-0.3-1.1-0.4s-0.6-0.4-0.8-0.6
		s-0.3-0.5-0.3-0.9c0-0.3,0-0.5,0.1-0.7s0.2-0.4,0.4-0.6c0.2-0.2,0.4-0.3,0.7-0.4c0.3-0.1,0.6-0.1,1-0.1s0.8,0.1,1.1,0.2
		c0.3,0.1,0.6,0.2,0.8,0.3c0.2,0.1,0.4,0.2,0.6,0.3s0.3,0.2,0.5,0.2c0.1,0,0.2,0,0.3-0.1c0.1-0.1,0.2-0.2,0.3-0.3l0.7-1.3
		c-0.5-0.5-1.1-0.9-1.8-1.1s-1.5-0.4-2.4-0.4c-0.8,0-1.4,0.1-2,0.4s-1.1,0.5-1.5,0.9s-0.7,0.8-0.9,1.3c-0.2,0.5-0.3,1-0.3,1.5
		c0,0.7,0.1,1.2,0.3,1.7c0.2,0.4,0.4,0.8,0.8,1.1c0.3,0.3,0.7,0.5,1.1,0.7s0.8,0.3,1.2,0.5c0.4,0.1,0.8,0.3,1.2,0.4
		c0.4,0.1,0.8,0.3,1.1,0.4c0.3,0.2,0.6,0.4,0.8,0.6s0.3,0.5,0.3,0.9c0,0.7-0.2,1.2-0.6,1.6s-1,0.5-1.8,0.5c-0.5,0-0.9-0.1-1.3-0.2
		s-0.7-0.3-0.9-0.5c-0.3-0.2-0.5-0.3-0.7-0.5s-0.4-0.2-0.5-0.2s-0.2,0-0.3,0.1s-0.2,0.1-0.3,0.2l-0.8,1.3c0.3,0.3,0.6,0.5,1,0.8
		c0.4,0.2,0.7,0.4,1.2,0.6c0.4,0.2,0.8,0.3,1.3,0.4c0.4,0.1,0.9,0.1,1.4,0.1c0.8,0,1.5-0.1,2.1-0.4s1.1-0.6,1.6-1
		c0.4-0.4,0.8-0.9,1-1.5s0.3-1.2,0.3-1.8c0-0.6-0.1-1.1-0.3-1.5C82.5,63.9,82.3,63.6,82,63.3z"/>
	<polygon points="84.1,58.1 88.5,58.1 88.5,70.4 91.2,70.4 91.2,58.1 95.5,58.1 95.5,55.9 84.1,55.9 	"/>
	<path d="M106,56.1c-0.1,0.1-0.3,0.3-0.3,0.4l-2.6,4.8c-0.1,0.3-0.3,0.6-0.4,0.8c-0.1,0.3-0.2,0.5-0.3,0.8c-0.1-0.3-0.2-0.5-0.3-0.8
		c-0.1-0.3-0.3-0.5-0.4-0.8l-2.6-4.8c-0.1-0.2-0.2-0.3-0.3-0.4s-0.3-0.2-0.6-0.2h-2.4l5.3,8.9v5.6h2.7v-5.6l5.3-8.9h-2.4
		C106.4,55.9,106.2,56,106,56.1z"/>
	<path d="M117.8,64.6c-0.1-0.1-0.3-0.3-0.5-0.4c0.5-0.2,1-0.4,1.4-0.6s0.7-0.6,1-0.9c0.3-0.4,0.5-0.7,0.6-1.2s0.2-0.9,0.2-1.4
		c0-0.6-0.1-1.2-0.3-1.7c-0.2-0.5-0.5-0.9-1-1.3s-1-0.7-1.7-0.9c-0.7-0.2-1.5-0.3-2.5-0.3h-4.4v14.5h2.7v-5.7h1.2
		c0.3,0,0.5,0,0.6,0.1s0.3,0.2,0.4,0.4l3,4.6c0.2,0.4,0.5,0.5,1,0.5h2.4l-3.6-5.3C118.1,64.9,118,64.7,117.8,64.6z M116.2,62.6
		c-0.4,0.1-0.8,0.2-1.3,0.2h-1.7V58h1.7c1,0,1.7,0.2,2.2,0.6s0.7,1,0.7,1.7c0,0.4-0.1,0.7-0.2,1s-0.3,0.6-0.5,0.8
		S116.6,62.5,116.2,62.6z"/>
	<polygon points="123.5,70.4 132.6,70.4 132.6,68.2 126.2,68.2 126.2,64.2 131.2,64.2 131.2,62.1 126.2,62.1 126.2,58.1 132.6,58.1 
		132.6,55.9 123.5,55.9 	"/>
	<polygon points="137.7,55.9 135.1,55.9 135.1,70.4 143.5,70.4 143.5,68.2 137.7,68.2 	"/>
	<path d="M153.1,63.3c-0.3-0.3-0.7-0.5-1.1-0.7s-0.8-0.4-1.2-0.5s-0.8-0.3-1.2-0.4c-0.4-0.1-0.8-0.3-1.1-0.4s-0.6-0.4-0.8-0.6
		s-0.3-0.5-0.3-0.9c0-0.3,0-0.5,0.1-0.7s0.2-0.4,0.4-0.6c0.2-0.2,0.4-0.3,0.7-0.4c0.3-0.1,0.6-0.1,1-0.1s0.8,0.1,1.1,0.2
		c0.3,0.1,0.6,0.2,0.8,0.3c0.2,0.1,0.4,0.2,0.6,0.3s0.3,0.2,0.5,0.2c0.1,0,0.2,0,0.3-0.1c0.1-0.1,0.2-0.2,0.3-0.3l0.7-1.3
		c-0.5-0.5-1.1-0.9-1.8-1.1s-1.5-0.4-2.4-0.4c-0.8,0-1.4,0.1-2,0.4s-1.1,0.5-1.5,0.9s-0.7,0.8-0.9,1.3c-0.2,0.5-0.3,1-0.3,1.5
		c0,0.7,0.1,1.2,0.3,1.7c0.2,0.4,0.4,0.8,0.8,1.1c0.3,0.3,0.7,0.5,1.1,0.7s0.8,0.3,1.2,0.5c0.4,0.1,0.8,0.3,1.2,0.4
		c0.4,0.1,0.8,0.3,1.1,0.4c0.3,0.2,0.6,0.4,0.8,0.6s0.3,0.5,0.3,0.9c0,0.7-0.2,1.2-0.6,1.6s-1,0.5-1.8,0.5c-0.5,0-0.9-0.1-1.3-0.2
		s-0.7-0.3-0.9-0.5c-0.3-0.2-0.5-0.3-0.7-0.5s-0.4-0.2-0.5-0.2s-0.2,0-0.3,0.1s-0.2,0.1-0.3,0.2l-0.8,1.3c0.3,0.3,0.6,0.5,1,0.8
		c0.4,0.2,0.7,0.4,1.2,0.6c0.4,0.2,0.8,0.3,1.3,0.4c0.4,0.1,0.9,0.1,1.4,0.1c0.8,0,1.5-0.1,2.1-0.4s1.1-0.6,1.6-1
		c0.4-0.4,0.8-0.9,1-1.5s0.3-1.2,0.3-1.8c0-0.6-0.1-1.1-0.3-1.5C153.7,63.9,153.4,63.6,153.1,63.3z"/>
	<polygon points="156.6,70.4 165.7,70.4 165.7,68.2 159.3,68.2 159.3,64.2 164.3,64.2 164.3,62.1 159.3,62.1 159.3,58.1 165.7,58.1 
		165.7,55.9 156.6,55.9 	"/>
	<path d="M178,64.7c0,0.2,0,0.4,0,0.6s0,0.5,0,0.7l-7.6-9.7c-0.1-0.1-0.1-0.2-0.2-0.2c-0.1-0.1-0.1-0.1-0.2-0.1s-0.1,0-0.2-0.1
		c-0.1,0-0.2,0-0.3,0h-1.4v14.5h2.4v-8.9c0-0.4,0-0.8-0.1-1.2l7.6,9.6c0.1,0.2,0.3,0.3,0.4,0.4s0.3,0.1,0.5,0.1h1.4V55.9H178V64.7z"
		/>
	<polygon points="188.6,70.4 191.3,70.4 191.3,64.5 196.7,64.5 196.7,62.4 191.3,62.4 191.3,58.1 197.7,58.1 197.7,55.9 188.6,55.9 
			"/>
	<path d="M212.7,59.4c-0.3-0.5-0.7-1-1.1-1.5c-0.4-0.4-0.9-0.8-1.5-1.1c-0.5-0.3-1.1-0.6-1.8-0.7s-1.3-0.3-2.1-0.3
		c-1.1,0-2.1,0.2-3,0.6s-1.7,0.9-2.3,1.5c-0.6,0.7-1.1,1.4-1.5,2.3s-0.5,1.9-0.5,2.9c0,1.1,0.2,2,0.5,2.9s0.9,1.7,1.5,2.3
		c0.6,0.7,1.4,1.2,2.3,1.5c0.9,0.4,1.9,0.6,3,0.6s2.1-0.2,3-0.6s1.7-0.9,2.3-1.5c0.6-0.7,1.1-1.4,1.5-2.3s0.5-1.9,0.5-2.9
		c0-0.7-0.1-1.4-0.2-2C213.3,60.5,213,59.9,212.7,59.4z M210.6,65.3c-0.2,0.6-0.5,1.2-0.9,1.6s-0.9,0.8-1.4,1s-1.2,0.4-1.9,0.4
		s-1.3-0.1-1.9-0.4s-1-0.6-1.4-1s-0.7-1-0.9-1.6c-0.2-0.6-0.3-1.3-0.3-2.1c0-0.8,0.1-1.5,0.3-2.1c0.2-0.6,0.5-1.2,0.9-1.6
		s0.9-0.8,1.4-1c0.6-0.2,1.2-0.3,1.9-0.3s1.3,0.1,1.9,0.3c0.6,0.2,1,0.6,1.4,1s0.7,1,0.9,1.6c0.2,0.6,0.3,1.3,0.3,2.1
		S210.8,64.7,210.6,65.3z"/>
	<path d="M223.4,64.6c-0.1-0.1-0.3-0.3-0.5-0.4c0.5-0.2,1-0.4,1.4-0.6s0.7-0.6,1-0.9c0.3-0.4,0.5-0.7,0.6-1.2
		c0.1-0.4,0.2-0.9,0.2-1.4c0-0.6-0.1-1.2-0.3-1.7c-0.2-0.5-0.5-0.9-1-1.3c-0.4-0.4-1-0.7-1.7-0.9c-0.7-0.2-1.5-0.3-2.5-0.3h-4.4
		v14.5h2.7v-5.7h1.2c0.3,0,0.5,0,0.6,0.1s0.3,0.2,0.4,0.4l3,4.6c0.2,0.4,0.5,0.5,1,0.5h2.4l-3.6-5.3
		C223.6,64.9,223.5,64.7,223.4,64.6z M221.8,62.6c-0.4,0.1-0.8,0.2-1.3,0.2h-1.7V58h1.7c1,0,1.7,0.2,2.2,0.6s0.7,1,0.7,1.7
		c0,0.4-0.1,0.7-0.2,1s-0.3,0.6-0.5,0.8S222.2,62.5,221.8,62.6z"/>
	<rect x="234" y="55.9" width="2.7" height="14.5"/>
	<polygon points="238.7,58.1 243,58.1 243,70.4 245.7,70.4 245.7,58.1 250.1,58.1 250.1,55.9 238.7,55.9 	"/>
	<path d="M269.3,59.4c-0.3-0.5-0.7-1-1.1-1.5s-0.9-0.8-1.5-1.1c-0.5-0.3-1.1-0.6-1.8-0.7s-1.3-0.3-2.1-0.3c-1.1,0-2.1,0.2-3,0.6
		s-1.7,0.9-2.3,1.5c-0.6,0.7-1.1,1.4-1.5,2.3s-0.5,1.9-0.5,2.9c0,1.1,0.2,2,0.5,2.9c0.4,0.9,0.9,1.7,1.5,2.3
		c0.6,0.7,1.4,1.2,2.3,1.5c0.9,0.4,1.9,0.6,3,0.6s2.1-0.2,3-0.6s1.7-0.9,2.3-1.5c0.6-0.7,1.1-1.4,1.5-2.3c0.3-0.9,0.5-1.9,0.5-2.9
		c0-0.7-0.1-1.4-0.2-2C269.8,60.5,269.6,59.9,269.3,59.4z M267.1,65.3c-0.2,0.6-0.5,1.2-0.9,1.6s-0.9,0.8-1.4,1s-1.2,0.4-1.9,0.4
		c-0.7,0-1.3-0.1-1.9-0.4s-1-0.6-1.4-1s-0.7-1-0.9-1.6c-0.2-0.6-0.3-1.3-0.3-2.1c0-0.8,0.1-1.5,0.3-2.1c0.2-0.6,0.5-1.2,0.9-1.6
		s0.9-0.8,1.4-1c0.6-0.2,1.2-0.3,1.9-0.3c0.7,0,1.3,0.1,1.9,0.3c0.6,0.2,1,0.6,1.4,1s0.7,1,0.9,1.6c0.2,0.6,0.3,1.3,0.3,2.1
		S267.3,64.7,267.1,65.3z"/>
	<path d="M279.8,64.7c0,0.1,0,0.3,0.1,0.4s0.2,0.1,0.4,0.1h1.8v2.6c-0.4,0.2-0.8,0.3-1.2,0.5c-0.4,0.1-0.9,0.2-1.4,0.2
		c-0.7,0-1.4-0.1-2-0.4c-0.6-0.2-1.1-0.6-1.6-1c-0.4-0.5-0.8-1-1-1.6c-0.2-0.7-0.4-1.4-0.4-2.2c0-0.8,0.1-1.5,0.3-2.1
		c0.2-0.6,0.5-1.2,0.9-1.6s0.9-0.8,1.5-1s1.2-0.4,1.9-0.4c0.4,0,0.8,0,1.2,0.1c0.3,0.1,0.6,0.1,0.9,0.2c0.3,0.1,0.5,0.2,0.7,0.3
		c0.2,0.1,0.4,0.3,0.7,0.4c0.2,0.1,0.4,0.2,0.6,0.1c0.2,0,0.4-0.2,0.5-0.4l0.8-1.2c-0.3-0.3-0.6-0.5-1-0.8c-0.4-0.2-0.8-0.4-1.2-0.6
		s-0.9-0.3-1.4-0.4s-1.1-0.1-1.6-0.1c-1.2,0-2.2,0.2-3.1,0.5s-1.7,0.9-2.4,1.5c-0.7,0.7-1.2,1.4-1.5,2.3c-0.4,0.9-0.5,1.9-0.5,3
		s0.2,2.1,0.5,3c0.4,0.9,0.9,1.7,1.6,2.3c0.7,0.7,1.5,1.2,2.4,1.5c1,0.4,2,0.5,3.2,0.5c0.9,0,1.8-0.1,2.7-0.4s1.6-0.6,2.3-1.2V63
		h-4.8v1.7H279.8z"/>
	<polygon points="294.9,55.9 292.2,55.9 292.2,70.4 300.6,70.4 300.6,68.2 294.9,68.2 	"/>
	<path d="M300.8,70.4h2c0.2,0,0.4-0.1,0.6-0.2c0.2-0.1,0.3-0.3,0.4-0.4l1.4-3h5.2l0.4,3.6h8v-2.2h-5.7l-0.5-4.1h4.8V62h-5.1l-0.5-4
		h6.9v-2.1H308L300.8,70.4z M309.1,58.9c0.1-0.3,0.2-0.6,0.3-1l0.9,7h-4l2.5-5.2C308.9,59.5,309,59.2,309.1,58.9z"/>
	<path d="M328.7,64.6c-0.1-0.1-0.3-0.3-0.5-0.4c0.5-0.2,1-0.4,1.4-0.6s0.7-0.6,1-0.9c0.3-0.4,0.5-0.7,0.6-1.2s0.2-0.9,0.2-1.4
		c0-0.6-0.1-1.2-0.3-1.7s-0.5-0.9-1-1.3s-1-0.7-1.7-0.9c-0.7-0.2-1.5-0.3-2.5-0.3h-4.4v14.5h2.7v-5.7h1.2c0.3,0,0.5,0,0.6,0.1
		s0.3,0.2,0.4,0.4l3,4.6c0.2,0.4,0.5,0.5,1,0.5h2.4l-3.6-5.3C328.9,64.9,328.8,64.7,328.7,64.6z M327.1,62.6
		c-0.4,0.1-0.8,0.2-1.3,0.2h-1.7V58h1.7c1,0,1.7,0.2,2.2,0.6s0.7,1,0.7,1.7c0,0.4-0.1,0.7-0.2,1s-0.3,0.6-0.5,0.8
		S327.5,62.5,327.1,62.6z"/>
	<rect x="334.3" y="55.9" width="2.7" height="14.5"/>
	<path d="M350.2,64.7c0,0.2,0,0.4,0,0.6s0,0.5,0,0.7l-7.6-9.7c-0.1-0.1-0.1-0.2-0.2-0.2s-0.1-0.1-0.2-0.1c-0.1,0-0.1,0-0.2-0.1
		c-0.1,0-0.2,0-0.3,0h-1.4v14.5h2.4v-8.9c0-0.4,0-0.8-0.1-1.2l7.5,9.6c0.1,0.2,0.3,0.3,0.4,0.4c0.1,0.1,0.3,0.1,0.5,0.1h1.4V55.9
		H350v8.8H350.2z"/>
	<path d="M362.9,63.1v1.5c0,0.1,0,0.3,0.1,0.4s0.2,0.1,0.4,0.1h1.8v2.6c-0.4,0.2-0.8,0.3-1.2,0.5c-0.4,0.1-0.9,0.2-1.4,0.2
		c-0.7,0-1.4-0.1-2-0.4s-1.1-0.6-1.6-1c-0.4-0.5-0.8-1-1-1.6c-0.2-0.7-0.4-1.4-0.4-2.2c0-0.8,0.1-1.5,0.3-2.1s0.5-1.2,0.9-1.6
		s0.9-0.8,1.5-1s1.2-0.4,1.9-0.4c0.4,0,0.8,0,1.2,0.1c0.3,0.1,0.6,0.1,0.9,0.2c0.3,0.1,0.5,0.2,0.7,0.3c0.2,0.1,0.4,0.3,0.7,0.4
		c0.2,0.1,0.4,0.2,0.6,0.1c0.2,0,0.3-0.2,0.5-0.4l0.8-1.2c-0.3-0.3-0.6-0.5-1-0.8s-0.8-0.4-1.2-0.6s-0.9-0.3-1.4-0.4
		s-1.1-0.1-1.6-0.1c-1.2,0-2.2,0.2-3.1,0.5s-1.7,0.9-2.4,1.5s-1.2,1.4-1.5,2.3c-0.4,0.9-0.5,1.9-0.5,3s0.2,2.1,0.5,3
		c0.4,0.9,0.9,1.7,1.6,2.3s1.5,1.2,2.5,1.5c1,0.4,2,0.5,3.2,0.5c0.9,0,1.8-0.1,2.7-0.4s1.6-0.6,2.3-1.2v-5.8h-4.8V63.1z"/>
	<path class="st0" d="M79.2,27c0.5-0.2,0.9-0.4,1.2-0.7c0.3-0.3,0.6-0.6,0.8-1c0.2-0.4,0.3-0.8,0.3-1.3c0-1.3-0.7-2.1-2.2-2.4
		c0.3-0.1,0.6-0.3,0.9-0.4s0.4-0.3,0.6-0.6c0.2-0.2,0.3-0.4,0.3-0.7c0.1-0.2,0.1-0.5,0.1-0.7c0-0.4-0.1-0.8-0.2-1.2
		c-0.1-0.4-0.4-0.7-0.7-0.9c-0.3-0.2-0.7-0.4-1.2-0.6c-0.5-0.1-1.1-0.2-1.8-0.2h-3.7v10.8h4.1C78.1,27.2,78.7,27.2,79.2,27z
		 M75.4,18h1.7c0.7,0,1.2,0.1,1.5,0.4c0.3,0.2,0.5,0.6,0.5,1.2c0,0.5-0.2,0.9-0.5,1.2c-0.4,0.2-0.9,0.4-1.6,0.4h-1.6V18z M75.4,25.7
		v-3.2h2c0.4,0,0.7,0,0.9,0.1c0.3,0.1,0.5,0.2,0.6,0.3c0.2,0.1,0.3,0.3,0.4,0.5s0.1,0.4,0.1,0.6s0,0.4-0.1,0.6S79.1,25,79,25.1
		c-0.2,0.2-0.4,0.3-0.6,0.4c-0.3,0.1-0.6,0.1-0.9,0.1h-2.1V25.7z"/>
	<path class="st0" d="M84.3,28.1c0.2,0,0.4,0,0.6-0.1s0.4-0.2,0.5-0.4l0.6-0.8c0.4,0.2,0.8,0.4,1.3,0.5c0.4,0.1,0.9,0.2,1.4,0.2
		c0.8,0,1.6-0.1,2.2-0.4c0.7-0.3,1.3-0.7,1.7-1.2c0.5-0.5,0.9-1.1,1.1-1.8s0.4-1.4,0.4-2.2c0-0.8-0.1-1.6-0.4-2.3
		c-0.3-0.7-0.7-1.3-1.2-1.8l1.3-1.8h-1c-0.1,0-0.2,0-0.3,0s-0.1,0-0.2,0.1c-0.1,0.1-0.1,0.1-0.2,0.2s-0.1,0.1-0.2,0.2l-0.4,0.6
		c-0.4-0.2-0.9-0.4-1.3-0.5s-1-0.2-1.6-0.2c-0.8,0-1.6,0.1-2.2,0.4s-1.3,0.7-1.7,1.2s-0.9,1.1-1.1,1.8c-0.3,0.7-0.4,1.4-0.4,2.2
		c0,0.9,0.2,1.7,0.5,2.4c0.3,0.7,0.8,1.3,1.3,1.8l-1.5,2h0.8V28.1z M91.9,20.4c0.1,0.4,0.2,0.9,0.2,1.4c0,0.6-0.1,1.1-0.2,1.6
		c-0.2,0.5-0.4,0.9-0.7,1.2s-0.7,0.6-1.1,0.8c-0.4,0.2-0.9,0.3-1.4,0.3c-0.6,0-1.1-0.1-1.6-0.3l4.4-6C91.6,19.6,91.8,20,91.9,20.4z
		 M85.5,20.2c0.2-0.5,0.4-0.9,0.7-1.2c0.3-0.3,0.7-0.6,1.1-0.8c0.4-0.2,0.9-0.3,1.4-0.3c0.4,0,0.7,0,1,0.1s0.6,0.2,0.8,0.3l-4.4,6.1
		c-0.3-0.3-0.5-0.7-0.6-1.2s-0.2-1-0.2-1.5C85.2,21.2,85.3,20.7,85.5,20.2z"/>
	<path class="st0" d="M98.5,23h0.9c0.2,0,0.4,0,0.5,0.1s0.2,0.1,0.3,0.3l2.3,3.5c0.2,0.3,0.4,0.4,0.8,0.4h1.8l-2.7-4
		c-0.1-0.1-0.2-0.3-0.3-0.4c-0.1-0.1-0.2-0.2-0.4-0.3c0.4-0.1,0.7-0.3,1-0.5s0.5-0.4,0.8-0.7c0.2-0.3,0.4-0.6,0.5-0.9s0.2-0.7,0.2-1
		c0-0.5-0.1-0.9-0.2-1.3c-0.2-0.4-0.4-0.7-0.7-1c-0.3-0.3-0.8-0.5-1.3-0.6s-1.2-0.2-1.9-0.2h-3.3v10.8h2V23H98.5z M98.5,18h1.3
		c0.7,0,1.3,0.1,1.7,0.4c0.4,0.3,0.5,0.7,0.5,1.3c0,0.3,0,0.5-0.1,0.8c-0.1,0.2-0.2,0.4-0.4,0.6c-0.2,0.2-0.4,0.3-0.7,0.4
		c-0.3,0.1-0.6,0.1-1,0.1h-1.3V18z"/>
	<path class="st0" d="M108.4,20.6c0-0.3,0-0.6,0-0.9l5.7,7.2c0.1,0.1,0.2,0.2,0.3,0.3c0.1,0.1,0.2,0.1,0.4,0.1h1V16.5H114v6.6
		c0,0.1,0,0.3,0,0.5s0,0.3,0,0.5l-5.7-7.3c-0.1-0.1-0.1-0.1-0.2-0.2l-0.1-0.1c0,0-0.1,0-0.2,0s-0.1,0-0.2,0h-1.1v10.8h1.8v-6.7
		H108.4z"/>
	<polygon class="st0" points="125.6,25.6 120.8,25.6 120.8,22.6 124.6,22.6 124.6,21 120.8,21 120.8,18 125.6,18 125.6,16.4 
		118.8,16.4 118.8,27.2 125.6,27.2 	"/>
	<rect x="127.6" y="21.9" class="st0" width="3.9" height="1.5"/>
	<path class="st0" d="M139.1,25.8c0.5,0.5,1.1,0.9,1.7,1.2c0.7,0.3,1.4,0.4,2.2,0.4c0.8,0,1.6-0.1,2.2-0.4c0.7-0.3,1.3-0.7,1.7-1.2
		c0.5-0.5,0.9-1.1,1.1-1.8s0.4-1.4,0.4-2.2c0-0.5-0.1-1-0.2-1.5s-0.3-0.9-0.5-1.3s-0.5-0.8-0.8-1.1c-0.3-0.3-0.7-0.6-1.1-0.8
		s-0.8-0.4-1.3-0.5s-1-0.2-1.6-0.2c-0.8,0-1.6,0.1-2.2,0.4c-0.7,0.3-1.3,0.7-1.7,1.2s-0.9,1.1-1.1,1.8c-0.3,0.7-0.4,1.4-0.4,2.2
		s0.1,1.5,0.4,2.2S138.6,25.3,139.1,25.8z M139.9,20.2c0.2-0.5,0.4-0.9,0.7-1.2c0.3-0.3,0.7-0.6,1.1-0.8c0.4-0.2,0.9-0.3,1.4-0.3
		s1,0.1,1.4,0.3c0.4,0.2,0.8,0.4,1.1,0.8s0.5,0.7,0.7,1.2s0.2,1,0.2,1.6s-0.1,1.1-0.2,1.6s-0.4,0.9-0.7,1.2s-0.7,0.6-1.1,0.8
		c-0.4,0.2-0.9,0.3-1.4,0.3s-1-0.1-1.4-0.3c-0.4-0.2-0.8-0.4-1.1-0.8c-0.3-0.3-0.5-0.7-0.7-1.2s-0.2-1-0.2-1.6
		C139.7,21.2,139.7,20.7,139.9,20.2z"/>
	<path class="st0" d="M151.8,25.8c0.5,0.5,1.1,0.9,1.8,1.1c0.7,0.3,1.5,0.4,2.4,0.4c0.7,0,1.4-0.1,2-0.3s1.2-0.5,1.8-0.9v-4.4h-3.6
		v1.1c0,0.1,0,0.2,0.1,0.3c0.1,0.1,0.2,0.1,0.3,0.1h1.4v2c-0.3,0.1-0.6,0.3-0.9,0.3s-0.7,0.1-1.1,0.1c-0.6,0-1.1-0.1-1.5-0.3
		s-0.8-0.4-1.2-0.8c-0.3-0.3-0.6-0.8-0.8-1.2c-0.2-0.5-0.3-1-0.3-1.7c0-0.6,0.1-1.1,0.2-1.6c0.2-0.5,0.4-0.9,0.7-1.2
		s0.7-0.6,1.1-0.8s0.9-0.3,1.5-0.3c0.3,0,0.6,0,0.9,0.1s0.5,0.1,0.7,0.2s0.4,0.2,0.6,0.2c0.2,0.1,0.3,0.2,0.5,0.3
		c0.2,0.1,0.3,0.1,0.5,0.1s0.3-0.1,0.4-0.3l0.6-0.9c-0.2-0.2-0.5-0.4-0.7-0.6s-0.6-0.3-0.9-0.4s-0.7-0.2-1.1-0.3
		c-0.4-0.1-0.8-0.1-1.2-0.1c-0.9,0-1.6,0.1-2.3,0.4c-0.7,0.3-1.3,0.6-1.8,1.1s-0.9,1.1-1.1,1.8s-0.4,1.4-0.4,2.2
		c0,0.8,0.1,1.5,0.4,2.2C150.9,24.7,151.3,25.3,151.8,25.8z"/>
	<path class="st0" d="M74.5,44.1c0.4,0.4,0.9,0.7,1.4,0.9s1.2,0.3,1.9,0.3c0.7,0,1.3-0.1,1.9-0.3c0.6-0.2,1-0.5,1.4-0.9
		s0.7-0.9,0.9-1.4c0.2-0.5,0.3-1.1,0.3-1.8v-6.5h-2v6.5c0,0.4-0.1,0.8-0.2,1.1c-0.1,0.3-0.3,0.6-0.5,0.9c-0.2,0.2-0.5,0.4-0.8,0.5
		s-0.7,0.2-1,0.2c-0.4,0-0.7-0.1-1-0.2s-0.6-0.3-0.8-0.6c-0.2-0.2-0.4-0.5-0.5-0.9c-0.1-0.3-0.2-0.7-0.2-1.1v-6.5h-2v6.5
		c0,0.6,0.1,1.2,0.3,1.8C73.8,43.2,74.1,43.7,74.5,44.1z"/>
	<path class="st0" d="M92.8,45.2c0.1,0.1,0.2,0.1,0.4,0.1h1V34.5h-1.8v6.6c0,0.1,0,0.3,0,0.5s0,0.3,0,0.5l-5.7-7.3
		c-0.1-0.1-0.1-0.1-0.1-0.2l-0.1-0.1c0,0-0.1,0-0.2,0s-0.1,0-0.2,0H85v10.8h1.8v-6.7c0-0.3,0-0.6,0-0.9l5.7,7.2
		C92.6,45,92.7,45.1,92.8,45.2z"/>
	<path class="st0" d="M101.3,34.4h-4.1v10.8h4.1c0.8,0,1.6-0.1,2.2-0.4c0.7-0.3,1.3-0.6,1.7-1.1c0.5-0.5,0.9-1.1,1.1-1.7
		c0.3-0.7,0.4-1.4,0.4-2.2s-0.1-1.5-0.4-2.2s-0.6-1.2-1.1-1.7s-1.1-0.8-1.7-1.1C102.9,34.5,102.1,34.4,101.3,34.4z M104.5,38.2
		c0.2,0.5,0.2,1,0.2,1.6s-0.1,1.1-0.2,1.6s-0.4,0.9-0.7,1.2s-0.7,0.6-1.1,0.8s-0.9,0.3-1.4,0.3h-2.1V36h2.1c0.5,0,1,0.1,1.4,0.3
		s0.8,0.4,1.1,0.8S104.3,37.7,104.5,38.2z"/>
	<polygon class="st0" points="116,43.6 111.1,43.6 111.1,40.6 114.9,40.6 114.9,39 111.1,39 111.1,36 116,36 116,34.4 109.1,34.4 
		109.1,45.2 116,45.2 	"/>
	<path class="st0" d="M124.9,45.2h1.8l-2.7-4c-0.1-0.1-0.2-0.3-0.3-0.4c-0.1-0.1-0.2-0.2-0.4-0.3c0.4-0.1,0.7-0.3,1-0.5
		s0.5-0.4,0.8-0.7c0.2-0.3,0.4-0.6,0.5-0.9s0.2-0.7,0.2-1c0-0.5-0.1-0.9-0.2-1.3c-0.2-0.4-0.4-0.7-0.7-1c-0.3-0.3-0.8-0.5-1.3-0.6
		s-1.2-0.2-1.9-0.2h-3.3v10.8h2V41h0.9c0.2,0,0.4,0,0.5,0.1s0.2,0.1,0.3,0.3l2.3,3.5C124.3,45.1,124.6,45.2,124.9,45.2z M122.6,39.4
		c-0.3,0.1-0.6,0.1-1,0.1h-1.3V36h1.3c0.7,0,1.3,0.1,1.7,0.4c0.4,0.3,0.5,0.7,0.5,1.3c0,0.3,0,0.5-0.1,0.8c-0.1,0.2-0.2,0.4-0.4,0.6
		C123.1,39.2,122.8,39.3,122.6,39.4z"/>
	<path class="st0" d="M135.8,34.4c-0.2,0-0.3,0-0.4,0.1s-0.2,0.2-0.2,0.3l-2.5,6.6c-0.1,0.2-0.2,0.5-0.2,0.7
		c-0.1,0.3-0.1,0.5-0.2,0.8c-0.1-0.3-0.1-0.5-0.2-0.8s-0.2-0.5-0.2-0.7l-2.6-6.6c-0.1-0.1-0.1-0.2-0.2-0.3s-0.3-0.1-0.4-0.1h-1.6
		l4.4,10.8h1.8l4.4-10.8H135.8z"/>
	<rect x="139.1" y="34.4" class="st0" width="2" height="10.8"/>
	<path class="st0" d="M145.8,45.3c0.3,0.1,0.7,0.1,1,0.1c0.6,0,1.1-0.1,1.6-0.3c0.5-0.2,0.9-0.4,1.2-0.8c0.3-0.3,0.6-0.7,0.7-1.1
		s0.3-0.9,0.3-1.4s-0.1-0.8-0.2-1.1c-0.1-0.3-0.3-0.6-0.6-0.8c-0.2-0.2-0.5-0.4-0.8-0.5s-0.6-0.3-0.9-0.4s-0.6-0.2-0.9-0.3
		c-0.3-0.1-0.6-0.2-0.8-0.3s-0.4-0.3-0.6-0.4s-0.2-0.4-0.2-0.6s0-0.4,0.1-0.6s0.2-0.3,0.3-0.4c0.1-0.1,0.3-0.2,0.5-0.3
		c0.2-0.1,0.5-0.1,0.7-0.1c0.3,0,0.6,0,0.8,0.1c0.2,0.1,0.4,0.2,0.6,0.3s0.3,0.2,0.4,0.3c0.1,0.1,0.2,0.1,0.3,0.1
		c0.1,0,0.2,0,0.3-0.1c0.1,0,0.1-0.1,0.2-0.2l0.5-1c-0.4-0.4-0.8-0.6-1.4-0.8c-0.5-0.2-1.1-0.3-1.8-0.3c-0.6,0-1.1,0.1-1.5,0.3
		c-0.4,0.2-0.8,0.4-1.1,0.7s-0.5,0.6-0.7,1s-0.2,0.8-0.2,1.2c0,0.5,0.1,0.9,0.2,1.2c0.1,0.3,0.3,0.6,0.6,0.8
		c0.2,0.2,0.5,0.4,0.8,0.5s0.6,0.3,0.9,0.4s0.6,0.2,0.9,0.3s0.6,0.2,0.8,0.3c0.2,0.1,0.4,0.3,0.6,0.5c0.1,0.2,0.2,0.4,0.2,0.7
		c0,0.5-0.2,0.9-0.5,1.2c-0.3,0.3-0.8,0.4-1.3,0.4c-0.4,0-0.7-0.1-1-0.2s-0.5-0.2-0.7-0.3c-0.2-0.1-0.4-0.2-0.5-0.3
		c-0.1-0.1-0.3-0.2-0.4-0.2s-0.2,0-0.3,0.1c-0.1,0-0.1,0.1-0.2,0.2l-0.6,1c0.2,0.2,0.4,0.4,0.7,0.6c0.3,0.2,0.6,0.3,0.9,0.5
		C145.1,45.1,145.4,45.2,145.8,45.3z"/>
	<path class="st0" d="M160.2,44.9c0.1,0.1,0.2,0.2,0.3,0.3c0.1,0.1,0.2,0.1,0.4,0.1h1V34.5h-1.8v6.6c0,0.1,0,0.3,0,0.5s0,0.3,0,0.5
		l-5.7-7.3c-0.1-0.1-0.1-0.1-0.1-0.2l-0.1-0.1c0,0-0.1,0-0.2,0s-0.1,0-0.2,0h-1.1v10.8h1.8v-6.7c0-0.3,0-0.6,0-0.9L160.2,44.9z"/>
	<rect x="164.9" y="34.4" class="st0" width="2" height="10.8"/>
	<path class="st0" d="M171.7,38.6c0-0.3,0-0.6,0-0.9l5.7,7.2c0.1,0.1,0.2,0.2,0.3,0.3c0.1,0.1,0.2,0.1,0.4,0.1h1V34.5h-1.8v6.6
		c0,0.1,0,0.3,0,0.5s0,0.3,0,0.5l-5.7-7.3c-0.1-0.1-0.1-0.1-0.2-0.2l-0.1-0.1c0,0-0.1,0-0.2,0s-0.1,0-0.2,0h-1.1v10.8h1.8v-6.7
		H171.7z"/>
	<path class="st0" d="M191,44.2v-4.4h-3.6v1.1c0,0.1,0,0.2,0.1,0.3s0.2,0.1,0.3,0.1h1.4v2c-0.3,0.1-0.6,0.3-0.9,0.3
		c-0.3,0.1-0.7,0.1-1.1,0.1c-0.6,0-1.1-0.1-1.5-0.3c-0.5-0.2-0.8-0.4-1.2-0.8c-0.3-0.3-0.6-0.8-0.8-1.2c-0.2-0.5-0.3-1-0.3-1.7
		c0-0.6,0.1-1.1,0.2-1.6c0.2-0.5,0.4-0.9,0.7-1.2s0.7-0.6,1.1-0.8c0.4-0.2,0.9-0.3,1.5-0.3c0.3,0,0.6,0,0.9,0.1
		c0.3,0,0.5,0.1,0.7,0.2s0.4,0.2,0.6,0.2s0.3,0.2,0.5,0.3c0.2,0.1,0.3,0.1,0.5,0.1c0.1,0,0.3-0.1,0.4-0.3l0.6-0.9
		c-0.2-0.2-0.5-0.4-0.7-0.6c-0.3-0.2-0.6-0.3-0.9-0.4s-0.7-0.2-1.1-0.3c-0.4-0.1-0.8-0.1-1.2-0.1c-0.9,0-1.6,0.1-2.3,0.4
		c-0.7,0.3-1.3,0.6-1.8,1.1s-0.9,1.1-1.1,1.8c-0.3,0.7-0.4,1.4-0.4,2.2c0,0.8,0.1,1.5,0.4,2.2s0.7,1.3,1.2,1.8s1.1,0.9,1.8,1.1
		c0.7,0.3,1.5,0.4,2.4,0.4c0.7,0,1.4-0.1,2-0.3C189.8,44.9,190.4,44.6,191,44.2z"/>
	<path class="st0" d="M199.9,41.8c0-0.5-0.1-0.8-0.2-1.1c-0.1-0.3-0.3-0.6-0.6-0.8c-0.2-0.2-0.5-0.4-0.8-0.5s-0.6-0.3-0.9-0.4
		s-0.6-0.2-0.9-0.3c-0.3-0.1-0.6-0.2-0.8-0.3c-0.2-0.1-0.4-0.3-0.6-0.4s-0.2-0.4-0.2-0.6s0-0.4,0.1-0.6s0.2-0.3,0.3-0.4
		c0.1-0.1,0.3-0.2,0.5-0.3c0.2-0.1,0.5-0.1,0.7-0.1c0.3,0,0.6,0,0.8,0.1c0.2,0.1,0.4,0.2,0.6,0.3s0.3,0.2,0.4,0.3
		c0.1,0.1,0.2,0.1,0.3,0.1c0.1,0,0.2,0,0.3-0.1s0.1-0.1,0.2-0.2l0.5-1c-0.4-0.4-0.8-0.6-1.4-0.8c-0.5-0.2-1.1-0.3-1.8-0.3
		c-0.6,0-1.1,0.1-1.5,0.3c-0.4,0.2-0.8,0.4-1.1,0.7s-0.5,0.6-0.7,1s-0.2,0.8-0.2,1.2c0,0.5,0.1,0.9,0.2,1.2c0.1,0.3,0.3,0.6,0.6,0.8
		c0.2,0.2,0.5,0.4,0.8,0.5s0.6,0.3,0.9,0.4s0.6,0.2,0.9,0.3c0.3,0.1,0.6,0.2,0.8,0.3c0.2,0.1,0.4,0.3,0.6,0.5
		c0.1,0.2,0.2,0.4,0.2,0.7c0,0.5-0.2,0.9-0.5,1.2c-0.3,0.3-0.8,0.4-1.3,0.4c-0.4,0-0.7-0.1-1-0.2s-0.5-0.2-0.7-0.3
		c-0.2-0.1-0.4-0.2-0.5-0.3c-0.1-0.1-0.3-0.2-0.4-0.2s-0.2,0-0.3,0.1c-0.1,0-0.1,0.1-0.2,0.2l-0.6,1c0.2,0.2,0.5,0.4,0.7,0.6
		c0.3,0.2,0.6,0.3,0.9,0.5c0.3,0.1,0.6,0.2,1,0.3c0.3,0.1,0.7,0.1,1,0.1c0.6,0,1.1-0.1,1.6-0.3c0.5-0.2,0.9-0.4,1.2-0.8
		c0.3-0.3,0.6-0.7,0.7-1.1S199.9,42.3,199.9,41.8z"/>
	<path class="st0" d="M212.2,34.4c-0.1,0-0.1,0-0.2,0s-0.1,0.1-0.1,0.1s-0.1,0.1-0.1,0.2l-3.2,6c-0.1,0.2-0.2,0.3-0.2,0.5
		c-0.1,0.2-0.1,0.4-0.2,0.5c-0.1-0.2-0.1-0.4-0.2-0.5s-0.2-0.3-0.2-0.5l-3.2-6c0-0.1-0.1-0.1-0.1-0.2l-0.1-0.1c-0.1,0-0.1,0-0.2,0
		s-0.1,0-0.2,0h-1.5v10.8h1.8v-7c0-0.1,0-0.3,0-0.4s0-0.3,0-0.5l3.3,6.2c0.2,0.3,0.4,0.4,0.7,0.4h0.3c0.3,0,0.6-0.1,0.7-0.4l3.3-6.2
		c0,0.3,0,0.6,0,0.9v7h1.8V34.4h-1.5C212.4,34.4,212.3,34.4,212.2,34.4z"/>
	<rect x="216.9" y="34.4" class="st0" width="2" height="10.8"/>
	<path class="st0" d="M229.3,41c0,0.1,0,0.3,0,0.5s0,0.3,0,0.5l-5.7-7.3c-0.1-0.1-0.1-0.1-0.1-0.2l-0.1-0.1c0,0-0.1,0-0.2,0
		s-0.1,0-0.2,0h-1.1v10.8h1.8v-6.7c0-0.3,0-0.6,0-0.9l5.7,7.2c0.1,0.1,0.2,0.2,0.3,0.3c0.1,0.1,0.2,0.1,0.4,0.1h1V34.4h-1.8
		L229.3,41L229.3,41z"/>
	<rect x="234" y="34.4" class="st0" width="2" height="10.8"/>
	<path class="st0" d="M241.8,43.7c-0.4,0-0.7-0.1-1-0.2s-0.5-0.2-0.7-0.3c-0.2-0.1-0.4-0.2-0.5-0.3s-0.3-0.2-0.4-0.2s-0.2,0-0.3,0.1
		c-0.1,0-0.1,0.1-0.2,0.2l-0.6,1c0.2,0.2,0.4,0.4,0.7,0.6s0.6,0.3,0.9,0.5s0.6,0.2,1,0.3s0.7,0.1,1,0.1c0.6,0,1.1-0.1,1.6-0.3
		c0.5-0.2,0.9-0.4,1.2-0.8c0.3-0.3,0.6-0.7,0.7-1.1c0.2-0.4,0.3-0.9,0.3-1.4s-0.1-0.8-0.2-1.1c-0.1-0.3-0.3-0.6-0.6-0.8
		s-0.5-0.4-0.8-0.5s-0.6-0.3-0.9-0.4s-0.6-0.2-0.9-0.3s-0.6-0.2-0.8-0.3c-0.2-0.1-0.4-0.3-0.6-0.4s-0.2-0.4-0.2-0.6s0-0.4,0.1-0.6
		s0.2-0.3,0.3-0.4c0.1-0.1,0.3-0.2,0.5-0.3c0.2-0.1,0.5-0.1,0.7-0.1c0.3,0,0.6,0,0.8,0.1c0.2,0.1,0.4,0.2,0.6,0.3s0.3,0.2,0.4,0.3
		c0.1,0.1,0.2,0.1,0.3,0.1c0.1,0,0.2,0,0.2-0.1c0.1,0,0.1-0.1,0.2-0.2l0.5-1c-0.4-0.4-0.8-0.6-1.4-0.8s-1.1-0.3-1.8-0.3
		c-0.6,0-1.1,0.1-1.5,0.3c-0.4,0.2-0.8,0.4-1.1,0.7c-0.3,0.3-0.5,0.6-0.7,1s-0.2,0.8-0.2,1.2c0,0.5,0.1,0.9,0.2,1.2
		c0.1,0.3,0.3,0.6,0.6,0.8c0.2,0.2,0.5,0.4,0.8,0.5s0.6,0.3,0.9,0.4s0.6,0.2,0.9,0.3c0.3,0.1,0.6,0.2,0.8,0.3s0.4,0.3,0.6,0.5
		c0.1,0.2,0.2,0.4,0.2,0.7c0,0.5-0.2,0.9-0.5,1.2S242.4,43.7,241.8,43.7z"/>
	<polygon class="st0" points="246.8,36.1 250.1,36.1 250.1,45.2 252.1,45.2 252.1,36.1 255.4,36.1 255.4,34.4 246.8,34.4 	"/>
	<polygon class="st0" points="264.2,43.6 259.3,43.6 259.3,40.6 263.1,40.6 263.1,39 259.3,39 259.3,36 264.2,36 264.2,34.4 
		257.3,34.4 257.3,45.2 264.2,45.2 	"/>
	<path class="st0" d="M268.5,41h0.9c0.2,0,0.4,0,0.5,0.1s0.2,0.1,0.3,0.3l2.3,3.5c0.2,0.3,0.4,0.4,0.8,0.4h1.8l-2.7-4
		c-0.1-0.1-0.2-0.3-0.3-0.4c-0.1-0.1-0.2-0.2-0.4-0.3c0.4-0.1,0.7-0.3,1-0.5s0.5-0.4,0.8-0.7c0.2-0.3,0.4-0.6,0.5-0.9s0.2-0.7,0.2-1
		c0-0.5-0.1-0.9-0.2-1.3c-0.2-0.4-0.4-0.7-0.7-1c-0.3-0.3-0.8-0.5-1.3-0.6s-1.2-0.2-1.9-0.2h-3.3v10.8h2V41H268.5z M268.5,36h1.3
		c0.7,0,1.3,0.1,1.7,0.4c0.4,0.3,0.5,0.7,0.5,1.3c0,0.3,0,0.5-0.1,0.8c-0.1,0.2-0.2,0.4-0.4,0.6c-0.2,0.2-0.4,0.3-0.7,0.4
		c-0.3,0.1-0.6,0.1-1,0.1h-1.3V36z"/>
	<rect x="276.7" y="34.4" class="st0" width="2" height="10.8"/>
	<polygon class="st0" points="281.7,45.2 288.5,45.2 288.5,43.6 283.7,43.6 283.7,40.6 287.5,40.6 287.5,39 283.7,39 283.7,36 
		288.5,36 288.5,34.4 281.7,34.4 	"/>
	<polygon class="st0" points="293.1,45.2 295.1,45.2 295.1,36.1 298.4,36.1 298.4,34.4 289.8,34.4 289.8,36.1 293.1,36.1 	"/>
</g>
</svg>
