<svg xmlns="http://www.w3.org/2000/svg" width="1079.485" height="837.312" viewBox="0 0 285.614 221.539"><g transform="translate(24.18 -9.828)"><path style="fill:none;stroke:#000;stroke-width:.5;stroke-linecap:butt;stroke-linejoin:miter;stroke-miterlimit:4;stroke-dasharray:none;stroke-opacity:1" d="m-21.114 83.986 52.518-14.165 29.934 45.436-34.21 42.362-51.049-19.377zm64.813-22.183L68.42 13.16l54.39-3.074 29.8 45.703-24.723 48.51-54.255 2.94zm97.475 49.233 24.38-48.57 53.672-11.15 41.956 34.773-1.134 54.429-43.279 32.884-52.916-13.23zM27.158 157.594l43.12-53.394m-11.15 3.82 84.488-4.578m-9.166-6.902 29.36 63.613M51.23 75.727l72.03 141.125m-48.124-9.186 78.328-130.033"/><circle style="opacity:1;fill:none;fill-opacity:.17674423;stroke:#000;stroke-width:.5;stroke-linecap:round;stroke-miterlimit:4;stroke-dasharray:none;stroke-dashoffset:0;stroke-opacity:1" cx="98.644" cy="168.568" r="62.55"/><circle style="opacity:1;fill:#000;fill-opacity:1;stroke:#000;stroke-width:.01236193;stroke-linecap:round;stroke-miterlimit:4;stroke-dasharray:none;stroke-dashoffset:0;stroke-opacity:1" cx="98.673" cy="168.625" r="1.546"/></g></svg>