<svg xmlns="http://www.w3.org/2000/svg" width="1079.485" height="830.652" viewBox="0 0 285.614 219.777"><path style="fill:none;stroke:#000;stroke-width:.5;stroke-linecap:butt;stroke-linejoin:miter;stroke-miterlimit:4;stroke-dasharray:none;stroke-opacity:1" d="m-21.114 83.986 52.518-14.165 29.934 45.436-34.21 42.362-51.049-19.377zm64.813-22.183L68.42 13.16l54.39-3.074 29.8 45.703-24.723 48.51-54.255 2.94zm97.475 49.233 24.38-48.57 53.672-11.15 41.956 34.773-1.134 54.429-43.279 32.884-52.916-13.23zM127.84 204.43l-83.93-67.778m-6.698 53.328 115.556-53.333m-44.796 92.944-6.704-123.71" transform="translate(24.18 -9.828)"/><path style="opacity:1;fill:none;fill-opacity:.17674423;stroke:#000;stroke-width:.5;stroke-linecap:round;stroke-miterlimit:4;stroke-dasharray:none;stroke-dashoffset:0;stroke-opacity:1" transform="rotate(-51 1.787 -30.261)" d="M-78.572 120.286h2.801v2.801h-2.801z"/><path style="opacity:1;fill:none;fill-opacity:.17674423;stroke:#000;stroke-width:.5;stroke-linecap:round;stroke-miterlimit:4;stroke-dasharray:none;stroke-dashoffset:0;stroke-opacity:1" transform="rotate(-3 -175.576 -466.607)" d="M95.612 111.011h2.801v2.801h-2.801z"/><path style="opacity:1;fill:none;fill-opacity:.17674423;stroke:#000;stroke-width:.5;stroke-linecap:round;stroke-miterlimit:4;stroke-dasharray:none;stroke-dashoffset:0;stroke-opacity:1" transform="rotate(65 19.804 14.063)" d="M188.413-80.899h2.801v2.801h-2.801z"/></svg>