<svg width="13" height="13"
  xmlns="http://www.w3.org/2000/svg" version="1.1">

  <g>
    <g stroke="null" fill-rule="evenodd" fill="none" id="Page-1">
      <g stroke="null" fill="#4A4A4A" id="icons">
        <g stroke="null" id="lock_locked">
          <g stroke="null" id="Layer_1">
            <path stroke="null" id="Shape" d="m3.26763,3.80085l0,1.71762l-0.74592,0c-0.54951,0 -0.9946,0.43923 -0.9946,0.98152l0,4.90761c0,0.54226 0.4451,0.98146 0.9946,0.98146l7.95653,0c0.54947,0 0.99465,-0.43919 0.99465,-0.98146l0,-4.90761c0,-0.54229 -0.44518,-0.98152 -0.99465,-0.98152l-0.74586,0l0,-1.71762c0,-1.76177 -1.44722,-3.18992 -3.23238,-3.18992c-1.78515,0 -3.23238,1.42812 -3.23238,3.18992l0,0zm1.24323,1.71762l0,-1.71762c0,-1.08455 0.89011,-1.96306 1.98911,-1.96306c1.099,0 1.98918,0.87851 1.98918,1.96306l0,1.71762l-3.9783,0l0,0zm0.99454,2.69919c0,-0.54226 0.44507,-0.98149 0.99457,-0.98149c0.54951,0 0.99454,0.43923 0.99454,0.98149c0,0.34602 -0.18155,0.65032 -0.45498,0.82452c0,0 0.09716,0.57921 0.20641,1.26124c0,0.20358 -0.16659,0.36798 -0.37299,0.36798l-0.74597,0c-0.20638,0 -0.37293,-0.1644 -0.37293,-0.36798l0.2064,-1.26124c-0.27345,-0.1742 -0.45506,-0.47852 -0.45506,-0.82452l0,0z"/>
          </g>
        </g>
      </g>
    </g>
  </g>
</svg>