<svg xmlns="http://www.w3.org/2000/svg" width="602.982" height="170.697" viewBox="0 0 159.539 45.164"><defs><marker orient="auto" refY="0" refX="0" id="b" style="overflow:visible"><path d="m0 0 5-5-17.5 5L5 5z" style="fill:#000;fill-opacity:1;fill-rule:evenodd;stroke:#000;stroke-width:1.00000003pt;stroke-opacity:1" transform="matrix(-.8 0 0 -.8 -10 0)"/></marker><marker orient="auto" refY="0" refX="0" id="a" style="overflow:visible"><path style="fill:#000;fill-opacity:1;fill-rule:evenodd;stroke:#000;stroke-width:.625;stroke-linejoin:round;stroke-opacity:1" d="M8.719 4.034-2.207.016 8.719-4.002c-1.746 2.372-1.736 5.618 0 8.036z" transform="matrix(-1.1 0 0 -1.1 -1.1 0)"/></marker><clipPath id="c"><path d="M175 96h25v122h-25z"/></clipPath></defs><path style="fill:none;stroke:#000;stroke-width:.5;stroke-linecap:butt;stroke-linejoin:miter;stroke-miterlimit:4;stroke-dasharray:none;stroke-opacity:1" d="M46.207 35.707v28.738h56.397z" transform="translate(15.933 -19.565)"/><path style="opacity:1;fill:none;fill-opacity:1;stroke:#000;stroke-width:.5;stroke-linecap:round;stroke-miterlimit:4;stroke-dasharray:none;stroke-dashoffset:0;stroke-opacity:1" d="M46.268 61.315h3.069v3.069h-3.069zm48.154 3.076a8.158 8.158 0 0 1 .89-3.703l7.268 3.703z" transform="translate(15.933 -19.565)"/><text xml:space="preserve" style="font-style:normal;font-weight:400;font-size:4.23333311px;line-height:1.25;font-family:sans-serif;letter-spacing:0;word-spacing:0;fill:#000;fill-opacity:1;stroke:none;stroke-width:.26458332" x="85.801" y="63.427" transform="translate(15.933 -19.565)"><tspan x="85.801" y="63.427" style="stroke-width:.26458332">27</tspan></text><text y="62.362" x="91.216" style="font-style:normal;font-variant:normal;font-weight:400;font-size:3.88606763px;line-height:125%;font-family:'Cambria Math';text-align:start;letter-spacing:0;word-spacing:0;text-anchor:start;fill:#000;fill-opacity:1;stroke:none;stroke-width:.26458332" xml:space="preserve" transform="translate(15.933 -19.565)"><tspan y="62.362" x="91.216" style="stroke-width:.26458332"><tspan style="font-style:normal;font-variant:normal;font-weight:400;font-size:3.88606763px;font-family:'Cambria Math';fill:#000;stroke-width:.26458332" dy="0" dx="0">°</tspan></tspan></text><text xml:space="preserve" style="font-style:normal;font-weight:400;font-size:4.23333311px;line-height:1.25;font-family:sans-serif;letter-spacing:0;word-spacing:0;fill:#000;fill-opacity:1;stroke:none;stroke-width:.26458332" x="72.692" y="46.688" transform="translate(15.933 -19.565)"><tspan x="72.692" y="46.688" style="stroke-width:.26458332">830 m</tspan></text><text xml:space="preserve" style="font-style:normal;font-weight:400;font-size:4.23333311px;line-height:1.25;font-family:sans-serif;letter-spacing:0;word-spacing:0;fill:#000;fill-opacity:1;stroke:none;stroke-width:.26458332" x="-16.166" y="48.428" transform="translate(15.933 -19.565)"><tspan x="-16.166" y="48.428" style="stroke-width:.26458332">Mellemstationens højde</tspan><tspan x="-16.166" y="53.72" style="stroke-width:.26458332">over svævebanens bund</tspan></text><text xml:space="preserve" style="font-style:normal;font-weight:400;font-size:4.23333311px;line-height:1.25;font-family:sans-serif;letter-spacing:0;word-spacing:0;fill:#000;fill-opacity:1;stroke:none;stroke-width:.26458332" x="27.662" y="22.781" transform="translate(15.933 -19.565)"><tspan x="27.662" y="22.781" style="stroke-width:.26458332">Mellemstationen</tspan></text><text xml:space="preserve" style="font-style:normal;font-weight:400;font-size:4.23333311px;line-height:1.25;font-family:sans-serif;letter-spacing:0;word-spacing:0;fill:#000;fill-opacity:1;stroke:none;stroke-width:.26458332" x="101.963" y="43.094" transform="translate(15.933 -19.565)"><tspan x="101.963" y="43.094" style="stroke-width:.26458332">Svævebanens bund</tspan></text><path style="fill:none;stroke:#000;stroke-width:.21280384px;stroke-linecap:butt;stroke-linejoin:miter;stroke-opacity:1;marker-end:url(#a)" d="m40.869 24.775 4.275 8.784" transform="translate(15.933 -19.565)"/><path style="fill:none;stroke:#000;stroke-width:.21267992px;stroke-linecap:butt;stroke-linejoin:miter;stroke-opacity:1;marker-end:url(#b)" d="m122.16 44.813-15.724 15.723" transform="translate(15.933 -19.565)"/><g transform="matrix(.26458 0 0 .24126 7.192 -7.43)" clip-path="url(#c)" style="stroke-width:1.60265923;stroke-miterlimit:4;stroke-dasharray:none"><path d="M199.5 217.5c-5.523 0-10-.746-10-1.666v-57.167c0-.921-4.477-1.667-10-1.667 5.523 0 10-.746 10-1.666V98.167c0-.92 4.477-1.667 10-1.667" style="fill:none;fill-rule:evenodd;stroke:#000;stroke-width:1.60265923;stroke-miterlimit:4;stroke-dasharray:none"/></g></svg>