<svg xmlns="http://www.w3.org/2000/svg" width="358.556" height="300.979" viewBox="0 0 94.868 79.634"><path style="fill:none;stroke:#000;stroke-width:.5;stroke-linecap:butt;stroke-linejoin:miter;stroke-miterlimit:4;stroke-dasharray:none;stroke-opacity:1" d="M13.836 34.507 17.71 9.049l22.691 16.824-19.149 25.901zM82.51 23.556H70.037L53.595 36.029H82.51" transform="translate(-9.329 -8.6)"/><path style="fill:none;stroke:#000;stroke-width:.5;stroke-linecap:butt;stroke-linejoin:miter;stroke-miterlimit:4;stroke-dasharray:none;stroke-opacity:1" d="M70.037 23.556H82.51l16.442 12.473H70.037" transform="translate(-9.329 -8.6)"/><path style="opacity:1;fill:none;fill-opacity:1;stroke:#000;stroke-width:.5;stroke-linecap:round;stroke-miterlimit:4;stroke-dasharray:none;stroke-dashoffset:0;stroke-opacity:1" d="M75.11 57.793h24.568v24.568H75.11zm-61.479 8.019h49.712v16.571H13.631z" transform="translate(-9.329 -8.6)"/><path style="fill:none;stroke:#000;stroke-width:.5;stroke-linecap:butt;stroke-linejoin:miter;stroke-miterlimit:4;stroke-dasharray:2,.5;stroke-dashoffset:0;stroke-opacity:1" d="M76.29 16.082v27.796" transform="translate(-9.329 -8.6)"/><path style="fill:none;stroke:#000;stroke-width:.5;stroke-linecap:butt;stroke-linejoin:miter;stroke-miterlimit:4;stroke-dasharray:2.00000002,.50000001;stroke-dashoffset:0;stroke-opacity:1" d="M38.568 60.438v27.796" transform="translate(-9.329 -8.6)"/><path style="fill:none;stroke:#000;stroke-width:.5;stroke-linecap:butt;stroke-linejoin:miter;stroke-miterlimit:4;stroke-dasharray:2,.5;stroke-dashoffset:0;stroke-opacity:1" d="M67.647 74.069H9.329m78.098-20.642v33.37m16.77-16.752H70.73m1.462-15.17 30.404 30.404" transform="translate(-9.329 -8.6)"/><path style="fill:none;stroke:#000;stroke-width:.5;stroke-linecap:butt;stroke-linejoin:miter;stroke-miterlimit:4;stroke-dasharray:2.00000002,.50000001;stroke-dashoffset:0;stroke-opacity:1" d="m72.28 85.273 30.403-30.404" transform="translate(-9.329 -8.6)"/></svg>