<svg xmlns="http://www.w3.org/2000/svg" width="154.657" height="64.63" viewBox="0 0 40.92 17.1"><path style="opacity:1;vector-effect:none;fill:none;fill-opacity:1;stroke:#000;stroke-width:.5;stroke-linecap:round;stroke-linejoin:miter;stroke-miterlimit:4;stroke-dasharray:none;stroke-dashoffset:0;stroke-opacity:1" d="M189.488 27.955h53.555v71.517h-53.555z" transform="translate(-125.915 -31.508)"/><path style="opacity:1;vector-effect:none;fill:none;fill-opacity:1;stroke:#000;stroke-width:.29935762;stroke-linecap:round;stroke-linejoin:miter;stroke-miterlimit:4;stroke-dasharray:1.19743054,.59871527;stroke-dashoffset:0;stroke-opacity:1" d="M226.572 59.052h16.471v40.42h-16.471z" transform="translate(-125.915 -31.508)"/><path style="opacity:1;vector-effect:none;fill:none;fill-opacity:1;stroke:#000;stroke-width:.5;stroke-linecap:round;stroke-linejoin:miter;stroke-miterlimit:4;stroke-dasharray:2,1;stroke-dashoffset:0;stroke-opacity:1" d="M210.1 59.052h16.471v40.42H210.1zm-16.471 0H210.1v40.42h-16.471z" transform="translate(-125.915 -31.508)"/><path style="opacity:1;vector-effect:none;fill:none;fill-opacity:1;stroke:#000;stroke-width:.5;stroke-linecap:round;stroke-linejoin:miter;stroke-miterlimit:4;stroke-dasharray:2,1;stroke-dashoffset:0;stroke-opacity:1" transform="rotate(90 -47.204 -78.712)" d="M42.581-243.043h16.471v40.42H42.581z"/><path style="fill:#b3b3b3;fill-opacity:.19607843;stroke:#000;stroke-width:.49766621;stroke-linecap:butt;stroke-linejoin:miter;stroke-miterlimit:4;stroke-dasharray:none;stroke-opacity:1" d="m193.533 70.81 4.804-11.599 11.709 4.759v23.352zm16.513 16.512-4.804 11.598-11.71-4.758V70.81zm.039-16.232 4.804-11.598 11.71 4.758v23.353zm16.513 16.513-4.804 11.598-11.709-4.758V71.09zm.024-16.513 4.804-11.598 11.709 4.758v23.353zm16.513 16.513-4.804 11.598-11.71-4.758V71.09z" transform="translate(-125.915 -31.508)"/><path d="m237.668 40.795 4.804-11.598 11.709 4.758v23.353z" style="fill:#b3b3b3;fill-opacity:.19607843;stroke:#000;stroke-width:.49766621;stroke-linecap:butt;stroke-linejoin:miter;stroke-miterlimit:4;stroke-dasharray:none;stroke-opacity:1" transform="rotate(-90 156.553 108.701)"/><path d="m254.181 57.308-4.804 11.598-11.709-4.758V40.795z" style="fill:#b3b3b3;fill-opacity:.19607843;stroke:#000;stroke-width:.49766621;stroke-linecap:butt;stroke-linejoin:miter;stroke-miterlimit:4;stroke-dasharray:none;stroke-opacity:1" transform="rotate(-90 156.553 108.701)"/><path style="opacity:1;vector-effect:none;fill:none;fill-opacity:1;stroke:#000;stroke-width:.5;stroke-linecap:round;stroke-linejoin:miter;stroke-miterlimit:4;stroke-dasharray:none;stroke-dashoffset:0;stroke-opacity:1" transform="rotate(90 -47.204 -78.712)" d="M31.801-166.585h16.471v40.42H31.801z"/><path d="m237.668 40.795 4.804-11.598 11.709 4.758v23.353z" style="fill:#b3b3b3;fill-opacity:.19607843;stroke:#000;stroke-width:.49766621;stroke-linecap:butt;stroke-linejoin:miter;stroke-miterlimit:4;stroke-dasharray:none;stroke-opacity:1" transform="rotate(-90 112.934 141.54)"/><path d="m254.181 57.308-4.804 11.598-11.709-4.758V40.795z" style="fill:#b3b3b3;fill-opacity:.19607843;stroke:#000;stroke-width:.49766621;stroke-linecap:butt;stroke-linejoin:miter;stroke-miterlimit:4;stroke-dasharray:none;stroke-opacity:1" transform="rotate(-90 112.934 141.54)"/></svg>