<svg xmlns="http://www.w3.org/2000/svg" width="571.885" height="264.08" viewBox="0 0 151.311 69.871"><defs><marker style="overflow:visible" id="c" refX="0" refY="0" orient="auto"><path transform="matrix(-1.1 0 0 -1.1 -1.1 0)" d="M8.719 4.034-2.207.016 8.719-4.002c-1.746 2.372-1.736 5.618 0 8.036z" style="fill:#000;fill-opacity:1;fill-rule:evenodd;stroke:#000;stroke-width:.625;stroke-linejoin:round;stroke-opacity:1"/></marker><marker orient="auto" refY="0" refX="0" id="b" style="overflow:visible"><path d="m0 0 5-5-17.5 5L5 5z" style="fill:#000;fill-opacity:1;fill-rule:evenodd;stroke:#000;stroke-width:1.00000003pt;stroke-opacity:1" transform="matrix(-.8 0 0 -.8 -10 0)"/></marker><marker orient="auto" refY="0" refX="0" id="a" style="overflow:visible"><path style="fill:#000;fill-opacity:1;fill-rule:evenodd;stroke:#000;stroke-width:.625;stroke-linejoin:round;stroke-opacity:1" d="M8.719 4.034-2.207.016 8.719-4.002c-1.746 2.372-1.736 5.618 0 8.036z" transform="matrix(-1.1 0 0 -1.1 -1.1 0)"/></marker></defs><path style="fill:none;stroke:#000;stroke-width:.5;stroke-linecap:butt;stroke-linejoin:miter;stroke-miterlimit:4;stroke-dasharray:none;stroke-opacity:1" d="M60.319 42.946v21.562h42.314z" transform="translate(7.705 5.114)"/><path style="opacity:1;fill:none;fill-opacity:1;stroke:#000;stroke-width:.5;stroke-linecap:round;stroke-miterlimit:4;stroke-dasharray:none;stroke-dashoffset:0;stroke-opacity:1" d="M60.319 61.438h3.069v3.069h-3.069zm34.103 2.953a8.158 8.158 0 0 1 .89-3.703l7.268 3.703z" transform="translate(7.705 5.114)"/><text xml:space="preserve" style="font-style:normal;font-weight:400;font-size:4.23333311px;line-height:1.25;font-family:sans-serif;letter-spacing:0;word-spacing:0;fill:#000;fill-opacity:1;stroke:none;stroke-width:.26458332" x="85.801" y="63.427" transform="translate(7.705 5.114)"><tspan x="85.801" y="63.427" style="stroke-width:.26458332">27</tspan></text><text y="62.362" x="91.216" style="font-style:normal;font-variant:normal;font-weight:400;font-size:3.88606763px;line-height:125%;font-family:'Cambria Math';text-align:start;letter-spacing:0;word-spacing:0;text-anchor:start;fill:#000;fill-opacity:1;stroke:none;stroke-width:.26458332" xml:space="preserve" transform="translate(7.705 5.114)"><tspan y="62.362" x="91.216" style="stroke-width:.26458332"><tspan style="font-style:normal;font-variant:normal;font-weight:400;font-size:3.88606763px;font-family:'Cambria Math';fill:#000;stroke-width:.26458332" dy="0" dx="0">°</tspan></tspan></text><text xml:space="preserve" style="font-style:normal;font-weight:400;font-size:4.23333311px;line-height:1.25;font-family:sans-serif;letter-spacing:0;word-spacing:0;fill:#000;fill-opacity:1;stroke:none;stroke-width:.26458332" x="79.684" y="50.846" transform="translate(7.705 5.114)"><tspan x="79.684" y="50.846" style="stroke-width:.26458332">830 m</tspan></text><text xml:space="preserve" style="font-style:normal;font-weight:400;font-size:4.23333311px;line-height:1.25;font-family:sans-serif;letter-spacing:0;word-spacing:0;fill:#000;fill-opacity:1;stroke:none;stroke-width:.26458332" x="42.381" y="29.999" transform="translate(7.705 5.114)"><tspan x="42.381" y="29.999" style="stroke-width:.26458332">Mellemstationen</tspan></text><text xml:space="preserve" style="font-style:normal;font-weight:400;font-size:4.23333311px;line-height:1.25;font-family:sans-serif;letter-spacing:0;word-spacing:0;fill:#000;fill-opacity:1;stroke:none;stroke-width:.26458332" x="101.963" y="43.094" transform="translate(7.705 5.114)"><tspan x="101.963" y="43.094" style="stroke-width:.26458332">Svævebanens bund</tspan></text><path style="fill:none;stroke:#000;stroke-width:.21280384px;stroke-linecap:butt;stroke-linejoin:miter;stroke-opacity:1;marker-end:url(#a)" d="m55.587 31.993 4.275 8.784" transform="translate(7.705 5.114)"/><path style="fill:none;stroke:#000;stroke-width:.21267992px;stroke-linecap:butt;stroke-linejoin:miter;stroke-opacity:1;marker-end:url(#b)" d="m122.16 44.813-15.724 15.723" transform="translate(7.705 5.114)"/><path style="fill:none;stroke:#000;stroke-width:.5;stroke-linecap:butt;stroke-linejoin:miter;stroke-miterlimit:4;stroke-dasharray:none;stroke-opacity:1" d="M-7.455 8.363v56.082h110.06z" transform="translate(7.705 5.114)"/><path style="opacity:1;fill:none;fill-opacity:1;stroke:#000;stroke-width:.5;stroke-linecap:round;stroke-miterlimit:4;stroke-dasharray:none;stroke-dashoffset:0;stroke-opacity:1" d="M-7.455 61.376h3.069v3.069h-3.069z" transform="translate(7.705 5.114)"/><text xml:space="preserve" style="font-style:normal;font-weight:400;font-size:4.23333311px;line-height:1.25;font-family:sans-serif;letter-spacing:0;word-spacing:0;fill:#000;fill-opacity:1;stroke:none;stroke-width:.26458332" x="-.966" y="-1.897" transform="translate(7.705 5.114)"><tspan x="-.966" y="-1.897" style="stroke-width:.26458332">Svævebanens top</tspan></text><path style="fill:none;stroke:#000;stroke-width:.26458332px;stroke-linecap:butt;stroke-linejoin:miter;stroke-opacity:1;marker-end:url(#c)" d="M17.81-.619-4.173 6.063" transform="translate(7.705 5.114)"/><text xml:space="preserve" style="font-style:normal;font-weight:400;font-size:4.23333311px;line-height:1.25;font-family:sans-serif;letter-spacing:0;word-spacing:0;fill:#000;fill-opacity:1;stroke:none;stroke-width:.26458332" x="25.894" y="22.678" transform="translate(7.705 5.114)"><tspan x="25.894" y="22.678" style="stroke-width:.26458332">1660 m</tspan></text></svg>