<svg xmlns="http://www.w3.org/2000/svg" width="542.646" height="227.323" viewBox="0 0 143.575 60.146"><path style="opacity:1;vector-effect:none;fill:#dc0000;fill-opacity:.39215686;stroke:#dc0000;stroke-width:.30000001;stroke-linecap:round;stroke-linejoin:miter;stroke-miterlimit:4;stroke-dasharray:none;stroke-dashoffset:0;stroke-opacity:1" d="M-40.254 25.991h10.205v10.205h-10.205zm10.205 0h10.205v10.205h-10.205zm10.205 0h10.205v10.205h-10.205z" transform="translate(142.658 -25.641)"/><path style="opacity:1;vector-effect:none;fill:#dc0000;fill-opacity:.39215686;stroke:#dc0000;stroke-width:.30000001;stroke-linecap:round;stroke-linejoin:miter;stroke-miterlimit:4;stroke-dasharray:none;stroke-dashoffset:0;stroke-opacity:1" transform="rotate(-90 58.508 -84.15)" d="M-77.018-9.638h10.205V.567h-10.205zm10.205 0h10.205V.567h-10.205zm10.206 0h10.205V.567h-10.205zm10.205 0h10.205V.567h-10.205zm10.206 0h10.205V.567h-10.205zM-66.813-50.46h10.205v10.205h-10.205zm-10.205 0h10.205v10.205h-10.205zm0 10.206h10.205v10.205h-10.205zm0 10.205h10.205v10.205h-10.205zm0 10.205h10.205v10.205h-10.205zm20.411-30.616h10.205v10.205h-10.205zm10.205 0h10.205v10.205h-10.205zm10.206 0h10.205v10.205h-10.205zm-40.822-20.411h10.205v10.205h-10.205zm10.205 0h10.205v10.205h-10.205zm10.206 0h10.205v10.205h-10.205zm10.205 0h10.205v10.205h-10.205zm-10.205-30.616h10.205v10.205h-10.205zm-10.206 0h10.205v10.205h-10.205zm-10.205 0h10.205v10.205h-10.205zm0 10.206h10.205v10.205h-10.205zm0 10.205h10.205v10.205h-10.205zm30.616-20.411h10.205v10.205h-10.205zm0 10.206h10.205v10.205h-10.205zm0 10.205h10.205v10.205h-10.205zm-30.616-40.821h10.205v10.205h-10.205zm10.205 0h10.205v10.205h-10.205zm10.206 0h10.205v10.205h-10.205zm0-10.206h10.205v10.205h-10.205z"/><path style="opacity:1;vector-effect:none;fill:#dc0000;fill-opacity:.39215686;stroke:#dc0000;stroke-width:.30000001;stroke-linecap:round;stroke-linejoin:miter;stroke-miterlimit:4;stroke-dasharray:none;stroke-dashoffset:0;stroke-opacity:1" transform="rotate(-90 58.508 -84.15)" d="M-56.607-142.308h10.205v10.205h-10.205zm-10.206 0h10.205v10.205h-10.205zm-10.205 0h10.205v10.205h-10.205z"/><path style="opacity:1;vector-effect:none;fill:#dc0000;fill-opacity:.39215686;stroke:#dc0000;stroke-width:.30000001;stroke-linecap:round;stroke-linejoin:miter;stroke-miterlimit:4;stroke-dasharray:none;stroke-dashoffset:0;stroke-opacity:1" transform="rotate(-90 58.508 -84.15)" d="M-77.018-132.103h10.205v10.205h-10.205z"/><path style="opacity:1;vector-effect:none;fill:none;fill-opacity:.39215686;stroke:#000;stroke-width:.69999999;stroke-linecap:round;stroke-linejoin:miter;stroke-miterlimit:4;stroke-dasharray:none;stroke-dashoffset:0;stroke-opacity:1" d="M-142.308 56.607h10.205v10.205h-10.205z" transform="translate(142.658 -25.641)"/><path style="opacity:1;vector-effect:none;fill:none;fill-opacity:.39215686;stroke:#000;stroke-width:.69999999;stroke-linecap:round;stroke-linejoin:miter;stroke-miterlimit:4;stroke-dasharray:none;stroke-dashoffset:0;stroke-opacity:1" transform="rotate(90 84.15 58.508)" d="M66.813 121.897h10.205v10.205H66.813z"/><path style="opacity:1;vector-effect:none;fill:none;fill-opacity:.39215686;stroke:#000;stroke-width:.69999999;stroke-linecap:round;stroke-linejoin:miter;stroke-miterlimit:4;stroke-dasharray:none;stroke-dashoffset:0;stroke-opacity:1" d="M-121.897 56.607h10.205v10.205h-10.205z" transform="translate(142.658 -25.641)"/><path style="opacity:1;vector-effect:none;fill:none;fill-opacity:.39215686;stroke:#000;stroke-width:.69999999;stroke-linecap:round;stroke-linejoin:miter;stroke-miterlimit:4;stroke-dasharray:none;stroke-dashoffset:0;stroke-opacity:1" transform="rotate(90 84.15 58.508)" d="M46.402 121.897h10.205v10.205H46.402z"/><path style="opacity:1;vector-effect:none;fill:none;fill-opacity:.39215686;stroke:#000;stroke-width:.69999999;stroke-linecap:round;stroke-linejoin:miter;stroke-miterlimit:4;stroke-dasharray:none;stroke-dashoffset:0;stroke-opacity:1" d="M-101.487 46.402h10.205v20.411h-10.205z" transform="translate(142.658 -25.641)"/><path style="opacity:1;vector-effect:none;fill:none;fill-opacity:.39215686;stroke:#000;stroke-width:.69999999;stroke-linecap:round;stroke-linejoin:miter;stroke-miterlimit:4;stroke-dasharray:none;stroke-dashoffset:0;stroke-opacity:1" transform="rotate(90 84.15 58.508)" d="M36.196 70.871h10.205v20.411H36.196zm30.617 0h10.205v20.411H66.813z"/><path style="opacity:1;vector-effect:none;fill:none;fill-opacity:.39215686;stroke:#000;stroke-width:.7;stroke-linecap:round;stroke-linejoin:miter;stroke-miterlimit:4;stroke-dasharray:none;stroke-dashoffset:0;stroke-opacity:1" d="M-9.638 36.196H.567v30.616H-9.638z" transform="translate(142.658 -25.641)"/><path style="opacity:1;vector-effect:none;fill:none;fill-opacity:.39215686;stroke:#000;stroke-width:.7;stroke-linecap:round;stroke-linejoin:miter;stroke-miterlimit:4;stroke-dasharray:none;stroke-dashoffset:0;stroke-opacity:1" transform="rotate(90 84.15 58.508)" d="M25.991 9.638h10.205v30.616H25.991zm40.822 0h10.205v30.616H66.813z"/><text xml:space="preserve" style="font-style:normal;font-weight:400;font-size:4.23333311px;line-height:1.25;font-family:sans-serif;letter-spacing:0;word-spacing:0;fill:#000;fill-opacity:1;stroke:none;stroke-width:.26458332" x="-136.195" y="84.549" transform="translate(142.658 -25.641)"><tspan x="-136.195" y="84.549" style="font-size:5.29166651px;stroke-width:.26458332">Figur 1</tspan></text><text xml:space="preserve" style="font-style:normal;font-weight:400;font-size:4.23333311px;line-height:1.25;font-family:sans-serif;letter-spacing:0;word-spacing:0;fill:#000;fill-opacity:1;stroke:none;stroke-width:.26458332" x="-90.143" y="84.686" transform="translate(142.658 -25.641)"><tspan x="-90.143" y="84.686" style="font-size:5.29166651px;stroke-width:.26458332">Figur 2</tspan></text><text xml:space="preserve" style="font-style:normal;font-weight:400;font-size:4.23333311px;line-height:1.25;font-family:sans-serif;letter-spacing:0;word-spacing:0;fill:#000;fill-opacity:1;stroke:none;stroke-width:.26458332" x="-34.543" y="84.686" transform="translate(142.658 -25.641)"><tspan x="-34.543" y="84.686" style="font-size:5.29166651px;stroke-width:.26458332">Figur 3</tspan></text><text xml:space="preserve" style="font-style:normal;font-weight:400;font-size:5.99722242px;line-height:1.25;font-family:sans-serif;letter-spacing:0;word-spacing:0;fill:#000;fill-opacity:1;stroke:none;stroke-width:.26458332" x="-128.906" y="74.052" transform="translate(142.658 -25.641)"><tspan x="-128.906" y="74.052" style="font-size:5.99722242px;stroke-width:.26458332">1</tspan></text><text xml:space="preserve" style="font-style:normal;font-weight:400;font-size:5.99722242px;line-height:1.25;font-family:sans-serif;letter-spacing:0;word-spacing:0;fill:#000;fill-opacity:1;stroke:none;stroke-width:.26458332" x="-82.918" y="74.116" transform="translate(142.658 -25.641)"><tspan x="-82.918" y="74.116" style="font-size:5.99722242px;stroke-width:.26458332">2</tspan></text><text xml:space="preserve" style="font-style:normal;font-weight:400;font-size:4.23333311px;line-height:1.25;font-family:sans-serif;letter-spacing:0;word-spacing:0;fill:#000;fill-opacity:1;stroke:none;stroke-width:.26458332" x="-26.879" y="74.136" transform="translate(142.658 -25.641)"><tspan x="-26.879" y="74.136" style="font-size:5.99722242px;stroke-width:.26458332">3</tspan></text><path style="opacity:1;vector-effect:none;fill:none;fill-opacity:.39215686;stroke:#000;stroke-width:.69999999;stroke-linecap:round;stroke-linejoin:miter;stroke-miterlimit:4;stroke-dasharray:none;stroke-dashoffset:0;stroke-opacity:1" d="M-70.871 46.402h10.205v20.411h-10.205z" transform="translate(142.658 -25.641)"/><path style="opacity:1;vector-effect:none;fill:none;fill-opacity:.39215686;stroke:#000;stroke-width:.7;stroke-linecap:round;stroke-linejoin:miter;stroke-miterlimit:4;stroke-dasharray:none;stroke-dashoffset:0;stroke-opacity:1" d="M-50.46 36.196h10.205v30.616H-50.46z" transform="translate(142.658 -25.641)"/></svg>