<svg xmlns="http://www.w3.org/2000/svg" width="234.074" height="234.074" viewBox="0 0 61.932 61.932"><path style="opacity:1;vector-effect:none;fill:#dc0000;fill-opacity:.39215686;stroke:#dc0000;stroke-width:.5;stroke-linecap:round;stroke-linejoin:miter;stroke-miterlimit:4;stroke-dasharray:none;stroke-dashoffset:0;stroke-opacity:1" d="M10.772 15.786h10.205v10.205H10.772zm10.206 0h10.205v10.205H20.978zm10.205 0h10.205v10.205H31.183zm10.205 0h10.205v10.205H41.388zm10.206 0h10.205v10.205H51.594zm10.205 0h10.205v10.205H61.799z" transform="translate(-10.422 -15.436)"/><path style="opacity:1;vector-effect:none;fill:#dc0000;fill-opacity:.39215686;stroke:#dc0000;stroke-width:.5;stroke-linecap:round;stroke-linejoin:miter;stroke-miterlimit:4;stroke-dasharray:none;stroke-dashoffset:0;stroke-opacity:1" transform="rotate(-90 -12.929 -2.507)" d="M-77.018 61.799h10.205v10.205h-10.205zm10.205 0h10.205v10.205h-10.205zm10.206 0h10.205v10.205h-10.205zm10.205 0h10.205v10.205h-10.205zm10.206 0h10.205v10.205h-10.205zm-40.822-51.027h10.205v10.205h-10.205zm0 10.206h10.205v10.205h-10.205zm0 10.205h10.205v10.205h-10.205zm0 10.205h10.205v10.205h-10.205zm0 10.206h10.205v10.205h-10.205zm10.205-40.822h10.205v10.205h-10.205zm10.206 0h10.205v10.205h-10.205zm10.205 0h10.205v10.205h-10.205zm10.206 0h10.205v10.205h-10.205z"/><path style="opacity:1;vector-effect:none;fill:none;fill-opacity:.39215686;stroke:#000;stroke-width:.69999999;stroke-linecap:round;stroke-linejoin:miter;stroke-miterlimit:4;stroke-dasharray:none;stroke-dashoffset:0;stroke-opacity:1" d="M20.978 15.786h40.821v10.205H20.978zm0 51.027h40.821v10.205H20.978z" transform="translate(-10.422 -15.436)"/><path style="opacity:1;vector-effect:none;fill:none;fill-opacity:.39215686;stroke:#000;stroke-width:.69999999;stroke-linecap:round;stroke-linejoin:miter;stroke-miterlimit:4;stroke-dasharray:none;stroke-dashoffset:0;stroke-opacity:1" transform="rotate(90 2.507 -12.929)" d="M25.991-20.978h40.821v10.205H25.991zm0-51.026h40.821v10.205H25.991z"/></svg>