<svg xmlns="http://www.w3.org/2000/svg" width="195.503" height="227.323" viewBox="0 0 51.727 60.146"><path style="opacity:1;vector-effect:none;fill:#dc0000;fill-opacity:.39215686;stroke:#dc0000;stroke-width:.30000001;stroke-linecap:round;stroke-linejoin:miter;stroke-miterlimit:4;stroke-dasharray:none;stroke-dashoffset:0;stroke-opacity:1" d="M-40.254 25.991h10.205v10.205h-10.205zm10.205 0h10.205v10.205h-10.205zm10.205 0h10.205v10.205h-10.205z" transform="translate(50.81 -25.641)"/><path style="opacity:1;vector-effect:none;fill:#dc0000;fill-opacity:.39215686;stroke:#dc0000;stroke-width:.30000001;stroke-linecap:round;stroke-linejoin:miter;stroke-miterlimit:4;stroke-dasharray:none;stroke-dashoffset:0;stroke-opacity:1" transform="rotate(-90 12.584 -38.225)" d="M-77.018-9.638h10.205V.567h-10.205zm10.205 0h10.205V.567h-10.205zm10.206 0h10.205V.567h-10.205zm10.205 0h10.205V.567h-10.205zm10.206 0h10.205V.567h-10.205zM-66.813-50.46h10.205v10.205h-10.205zm-10.205 0h10.205v10.205h-10.205zm0 10.206h10.205v10.205h-10.205zm0 10.205h10.205v10.205h-10.205zm0 10.205h10.205v10.205h-10.205zm20.411-30.616h10.205v10.205h-10.205zm10.205 0h10.205v10.205h-10.205zm10.206 0h10.205v10.205h-10.205z"/><path style="opacity:1;vector-effect:none;fill:none;fill-opacity:.39215686;stroke:#000;stroke-width:.69999999;stroke-linecap:round;stroke-linejoin:miter;stroke-miterlimit:4;stroke-dasharray:none;stroke-dashoffset:0;stroke-opacity:1" d="M-9.638 36.196H.567v30.616H-9.638z" transform="translate(50.81 -25.641)"/><path style="opacity:1;vector-effect:none;fill:none;fill-opacity:.39215686;stroke:#000;stroke-width:.69999999;stroke-linecap:round;stroke-linejoin:miter;stroke-miterlimit:4;stroke-dasharray:none;stroke-dashoffset:0;stroke-opacity:1" transform="rotate(90 38.225 12.584)" d="M25.991 9.638h10.205v30.616H25.991zm40.822 0h10.205v30.616H66.813z"/><text xml:space="preserve" style="font-style:normal;font-weight:400;font-size:4.23333311px;line-height:1.25;font-family:sans-serif;letter-spacing:0;word-spacing:0;fill:#000;fill-opacity:1;stroke:none;stroke-width:.26458332" x="-34.543" y="84.686" transform="translate(50.81 -25.641)"><tspan x="-34.543" y="84.686" style="font-size:5.29166651px;stroke-width:.26458332">Figur 3</tspan></text><text xml:space="preserve" style="font-style:normal;font-weight:400;font-size:4.23333311px;line-height:1.25;font-family:sans-serif;letter-spacing:0;word-spacing:0;fill:#000;fill-opacity:1;stroke:none;stroke-width:.26458332" x="-26.879" y="74.136" transform="translate(50.81 -25.641)"><tspan x="-26.879" y="74.136" style="font-size:5.99722242px;stroke-width:.26458332">3</tspan></text><path style="opacity:1;vector-effect:none;fill:none;fill-opacity:.39215686;stroke:#000;stroke-width:.69999999;stroke-linecap:round;stroke-linejoin:miter;stroke-miterlimit:4;stroke-dasharray:none;stroke-dashoffset:0;stroke-opacity:1" d="M-50.46 36.196h10.205v30.616H-50.46z" transform="translate(50.81 -25.641)"/><text xml:space="preserve" style="font-style:normal;font-weight:400;font-size:4.23333311px;line-height:1.25;font-family:sans-serif;letter-spacing:0;word-spacing:0;fill:#000;fill-opacity:1;stroke:none;stroke-width:.26458332" x="-47.134" y="54.027" transform="translate(50.81 -25.641)"><tspan x="-47.134" y="54.027" style="font-size:5.99722242px;stroke-width:.26458332">3</tspan></text><text xml:space="preserve" style="font-style:normal;font-weight:400;font-size:4.23333311px;line-height:1.25;font-family:sans-serif;letter-spacing:0;word-spacing:0;fill:#000;fill-opacity:1;stroke:none;stroke-width:.26458332" x="-6.242" y="53.76" transform="translate(50.81 -25.641)"><tspan x="-6.242" y="53.76" style="font-size:5.99722242px;stroke-width:.26458332">3</tspan></text><text xml:space="preserve" style="font-style:normal;font-weight:400;font-size:4.23333311px;line-height:1.25;font-family:sans-serif;letter-spacing:0;word-spacing:0;fill:#000;fill-opacity:1;stroke:none;stroke-width:.26458332" x="-26.822" y="33.581" transform="translate(50.81 -25.641)"><tspan x="-26.822" y="33.581" style="font-size:5.99722242px;stroke-width:.26458332">3</tspan></text><text xml:space="preserve" style="font-style:normal;font-weight:400;font-size:4.23333311px;line-height:1.25;font-family:sans-serif;letter-spacing:0;word-spacing:0;fill:#000;fill-opacity:1;stroke:none;stroke-width:.26458332" x="-47.134" y="33.314" transform="translate(50.81 -25.641)"><tspan x="-47.134" y="33.314" style="font-size:5.99722242px;stroke-width:.26458332">1</tspan></text><text xml:space="preserve" style="font-style:normal;font-weight:400;font-size:4.23333311px;line-height:1.25;font-family:sans-serif;letter-spacing:0;word-spacing:0;fill:#000;fill-opacity:1;stroke:none;stroke-width:.26458332" x="-6.307" y="33.049" transform="translate(50.81 -25.641)"><tspan x="-6.307" y="33.049" style="font-size:5.99722242px;stroke-width:.26458332">1</tspan></text><text xml:space="preserve" style="font-style:normal;font-weight:400;font-size:4.23333311px;line-height:1.25;font-family:sans-serif;letter-spacing:0;word-spacing:0;fill:#000;fill-opacity:1;stroke:none;stroke-width:.26458332" x="-47.199" y="74.476" transform="translate(50.81 -25.641)"><tspan x="-47.199" y="74.476" style="font-size:5.99722242px;stroke-width:.26458332">1</tspan></text><text xml:space="preserve" style="font-style:normal;font-weight:400;font-size:4.23333311px;line-height:1.25;font-family:sans-serif;letter-spacing:0;word-spacing:0;fill:#000;fill-opacity:1;stroke:none;stroke-width:.26458332" x="-6.039" y="74.342" transform="translate(50.81 -25.641)"><tspan x="-6.039" y="74.342" style="font-size:5.99722242px;stroke-width:.26458332">1</tspan></text></svg>