<svg xmlns="http://www.w3.org/2000/svg" width="233.318" height="233.318" viewBox="0 0 61.732 61.732"><path style="opacity:1;vector-effect:none;fill:#dc0000;fill-opacity:.39215686;stroke:#dc0000;stroke-width:.5;stroke-linecap:round;stroke-linejoin:miter;stroke-miterlimit:4;stroke-dasharray:none;stroke-dashoffset:0;stroke-opacity:1" d="M10.772 15.786h10.205v10.205H10.772zm10.206 0h10.205v10.205H20.978zm10.205 0h10.205v10.205H31.183zm10.205 0h10.205v10.205H41.388zm10.206 0h10.205v10.205H51.594zm10.205 0h10.205v10.205H61.799z" transform="translate(-10.522 -15.536)"/><path style="opacity:1;vector-effect:none;fill:#dc0000;fill-opacity:.39215686;stroke:#dc0000;stroke-width:.5;stroke-linecap:round;stroke-linejoin:miter;stroke-miterlimit:4;stroke-dasharray:none;stroke-dashoffset:0;stroke-opacity:1" transform="rotate(-90 -13.029 -2.507)" d="M-77.018 61.799h10.205v10.205h-10.205zm10.205 0h10.205v10.205h-10.205zm10.206 0h10.205v10.205h-10.205zm10.205 0h10.205v10.205h-10.205zm10.206 0h10.205v10.205h-10.205zm-40.822-51.027h10.205v10.205h-10.205zm0 10.206h10.205v10.205h-10.205zm0 10.205h10.205v10.205h-10.205zm0 10.205h10.205v10.205h-10.205zm0 10.206h10.205v10.205h-10.205zm10.205-40.822h10.205v10.205h-10.205zm10.206 0h10.205v10.205h-10.205zm10.205 0h10.205v10.205h-10.205zm10.206 0h10.205v10.205h-10.205z"/></svg>