<svg xmlns="http://www.w3.org/2000/svg" xmlns:xlink="http://www.w3.org/1999/xlink" width="429.838" height="217.456" viewBox="0 0 113.728 57.535"><defs><symbol id="a" overflow="visible" style="overflow:visible"><path d="m4.64-4.89.485-.36.344.094-.782 3.406a3.547 3.547 0 0 0-.125.813c0 .136.02.242.063.312.05.063.129.094.234.094a.62.62 0 0 0 .344-.125c.125-.094.297-.266.516-.516l.312.297c-.324.355-.601.605-.828.75-.23.145-.48.219-.75.219a.692.692 0 0 1-.531-.219.863.863 0 0 1-.203-.594c0-.195.039-.41.125-.64l-.063-.016c-.344.5-.672.871-.984 1.11-.313.23-.64.343-.985.343-.398 0-.703-.144-.921-.437C.67-.66.562-1.082.562-1.625c0-.613.118-1.207.36-1.781.25-.57.582-1.02 1-1.344.426-.332.898-.5 1.422-.5.238 0 .457.027.656.078.207.055.422.149.64.281zm-.484 1.609c.032-.145.051-.27.063-.375a5.12 5.12 0 0 0 .015-.36c0-.28-.058-.484-.171-.609-.118-.133-.32-.203-.61-.203-.367 0-.7.152-1 .453-.293.305-.523.703-.687 1.203-.168.5-.25 1-.25 1.5 0 .375.05.656.156.844.101.18.273.265.516.265.238 0 .472-.097.703-.296.226-.207.46-.5.703-.875.238-.383.41-.82.515-1.313zm0 0" style="stroke:none"/></symbol><symbol id="c" overflow="visible" style="overflow:visible"><path d="M.797-3.922v-.719h6.656v.72zm0 2.25v-.719h6.656v.72zm6.875-1.484zm0 0" style="stroke:none"/></symbol><symbol id="d" overflow="visible" style="overflow:visible"><path d="m1.344-.266-.5.36L.5 0l1.39-6.172c.083-.363.126-.629.126-.797 0-.144-.047-.25-.141-.312-.086-.063-.246-.098-.484-.11l.062-.28 1.36-.048h.312l-.953 3.782.078.015c.344-.469.664-.805.969-1.015.312-.208.617-.313.922-.313.394 0 .703.152.921.453.22.305.329.727.329 1.266 0 .594-.121 1.18-.36 1.75-.242.574-.574 1.031-1 1.375-.43.336-.902.5-1.422.5-.48 0-.902-.117-1.265-.36zm.468-1.609a3.43 3.43 0 0 0-.078.734c0 .282.063.485.188.61s.328.187.61.187c.144 0 .284-.02.421-.062.133-.051.27-.13.406-.235.145-.113.274-.257.391-.437a3.75 3.75 0 0 0 .344-.672c.101-.27.18-.555.234-.86.063-.312.094-.6.094-.874 0-.375-.055-.657-.156-.844a.534.534 0 0 0-.5-.281.896.896 0 0 0-.516.171c-.168.106-.355.29-.563.547-.199.25-.367.512-.5.782a4.913 4.913 0 0 0-.328 1zm0 0" style="stroke:none"/></symbol><symbol id="e" overflow="visible" style="overflow:visible"><path d="M4.063-3.86a2.53 2.53 0 0 0-.079-.593.49.49 0 0 0-.171-.281.596.596 0 0 0-.36-.094c-.367 0-.695.148-.984.437-.293.293-.531.704-.719 1.235a4.77 4.77 0 0 0-.266 1.531c0 .367.07.637.22.813.144.18.362.265.655.265.32 0 .602-.062.844-.187.238-.125.488-.317.75-.579l.328.329c-.336.375-.672.652-1.015.828a2.55 2.55 0 0 1-1.11.25c-.523 0-.918-.157-1.187-.469C.695-.688.563-1.133.563-1.719c0-.383.07-.804.218-1.265.145-.457.352-.86.625-1.204.282-.351.602-.617.969-.796a2.793 2.793 0 0 1 1.203-.266c.469 0 .906.059 1.313.172L4.625-3.86zm0 0" style="stroke:none"/></symbol><symbol id="b" overflow="visible" style="overflow:visible"><path d="M2.875-1.031v.203c.008.062.02.117.031.156a.252.252 0 0 0 .047.11c.02.023.04.042.063.062.03.031.07.059.125.078l.203.047c.082.012.18.023.297.031h.406V0H.937v-.344a3.894 3.894 0 0 0 .657-.047 1.28 1.28 0 0 0 .187-.03.53.53 0 0 0 .125-.063A1.4 1.4 0 0 0 2-.547a.237.237 0 0 0 .063-.11.358.358 0 0 0 .03-.155c.009-.063.016-.133.016-.22v-2.827c0-.094-.023-.16-.062-.204-.031-.05-.086-.078-.156-.078-.086 0-.211.047-.375.141-.157.086-.36.203-.61.36a2.274 2.274 0 0 1-.094-.172C.782-3.876.75-3.938.72-4c.32-.176.64-.352.953-.531.32-.176.648-.352.984-.532h.235c0 .149-.008.278-.016.391v.641zm0 0" style="stroke:none"/></symbol></defs><path style="fill:none;stroke:#000;stroke-width:.5;stroke-linecap:butt;stroke-linejoin:miter;stroke-miterlimit:4;stroke-dasharray:none;stroke-opacity:1" d="M1.083 26.813h52.074L19.425 1.303zm70.605-.037h33.008l-21.382-16.17z" transform="translate(3.165 3.156)"/><text xml:space="preserve" style="font-style:normal;font-weight:400;font-size:4.23333311px;line-height:1.25;font-family:sans-serif;letter-spacing:0;word-spacing:0;fill:#000;fill-opacity:1;stroke:none;stroke-width:.26458332" x="-2.94" y="28.795" transform="translate(3.165 3.156)"><tspan x="-2.94" y="28.795" style="font-style:italic;stroke-width:.26458332">A</tspan></text><text xml:space="preserve" style="font-style:normal;font-weight:400;font-size:4.23333311px;line-height:1.25;font-family:sans-serif;letter-spacing:0;word-spacing:0;fill:#000;fill-opacity:1;stroke:none;stroke-width:.26458332" x="18.041" y="-.07" transform="translate(3.165 3.156)"><tspan x="18.041" y="-.07" style="font-style:italic;stroke-width:.26458332">B</tspan></text><text xml:space="preserve" style="font-style:normal;font-weight:400;font-size:4.23333311px;line-height:1.25;font-family:sans-serif;letter-spacing:0;word-spacing:0;fill:#000;fill-opacity:1;stroke:none;stroke-width:.26458332" x="54.924" y="28.795" transform="translate(3.165 3.156)"><tspan x="54.924" y="28.795" style="font-style:italic;stroke-width:.26458332">C</tspan></text><text xml:space="preserve" style="font-style:normal;font-weight:400;font-size:4.23333311px;line-height:1.25;font-family:sans-serif;letter-spacing:0;word-spacing:0;fill:#000;fill-opacity:1;stroke:none;stroke-width:.26458332" x="37.685" y="13.16" transform="translate(3.165 3.156)"><tspan x="37.685" y="13.16" style="font-style:italic;stroke-width:.26458332">a</tspan></text><text xml:space="preserve" style="font-style:normal;font-weight:400;font-size:4.23333311px;line-height:1.25;font-family:sans-serif;letter-spacing:0;word-spacing:0;fill:#000;fill-opacity:1;stroke:none;stroke-width:.26458332" x="24.722" y="32.002" transform="translate(3.165 3.156)"><tspan x="24.722" y="32.002" style="font-style:italic;stroke-width:.26458332">b</tspan></text><text xml:space="preserve" style="font-style:normal;font-weight:400;font-size:4.23333311px;line-height:1.25;font-family:sans-serif;letter-spacing:0;word-spacing:0;fill:#000;fill-opacity:1;stroke:none;stroke-width:.26458332" x="5.746" y="13.828" transform="translate(3.165 3.156)"><tspan x="5.746" y="13.828" style="font-style:italic;stroke-width:.26458332">c</tspan></text><text xml:space="preserve" style="font-style:normal;font-weight:400;font-size:4.23333311px;line-height:1.25;font-family:sans-serif;letter-spacing:0;word-spacing:0;fill:#000;fill-opacity:1;stroke:none;stroke-width:.26458332" x="67.293" y="30.131" transform="translate(3.165 3.156)"><tspan x="67.293" y="30.131" style="stroke-width:.26458332"><tspan style="font-style:italic">A</tspan><tspan style="font-size:64.99999762%;baseline-shift:sub">1</tspan></tspan></text><text xml:space="preserve" style="font-style:normal;font-weight:400;font-size:4.23333311px;line-height:1.25;font-family:sans-serif;letter-spacing:0;word-spacing:0;fill:#000;fill-opacity:1;stroke:none;stroke-width:.26458332" x="81.384" y="8.616" transform="translate(3.165 3.156)"><tspan x="81.384" y="8.616" style="stroke-width:.26458332"><tspan style="font-style:italic">B</tspan><tspan style="font-size:64.99999762%;baseline-shift:sub">1</tspan></tspan></text><text xml:space="preserve" style="font-style:normal;font-weight:400;font-size:4.23333311px;line-height:1.25;font-family:sans-serif;letter-spacing:0;word-spacing:0;fill:#000;fill-opacity:1;stroke:none;stroke-width:.26458332" x="106.106" y="29.062" transform="translate(3.165 3.156)"><tspan x="106.106" y="29.062" style="stroke-width:.26458332"><tspan style="font-style:italic">C</tspan><tspan style="font-size:64.99999762%;baseline-shift:sub">1</tspan></tspan></text><text xml:space="preserve" style="font-style:normal;font-weight:400;font-size:4.23333311px;line-height:1.25;font-family:sans-serif;letter-spacing:0;word-spacing:0;fill:#000;fill-opacity:1;stroke:none;stroke-width:.26458332" x="94.881" y="17.035" transform="translate(3.165 3.156)"><tspan x="94.881" y="17.035" style="stroke-width:.26458332"><tspan style="font-style:italic">a</tspan><tspan style="font-size:64.99999762%;baseline-shift:sub">1</tspan></tspan></text><text xml:space="preserve" style="font-style:normal;font-weight:400;font-size:4.23333311px;line-height:1.25;font-family:sans-serif;letter-spacing:0;word-spacing:0;fill:#000;fill-opacity:1;stroke:none;stroke-width:.26458332" x="86.328" y="32.136" transform="translate(3.165 3.156)"><tspan x="86.328" y="32.136" style="stroke-width:.26458332"><tspan style="font-style:italic">b</tspan><tspan style="font-size:64.99999762%;baseline-shift:sub">1</tspan></tspan></text><text xml:space="preserve" style="font-style:normal;font-weight:400;font-size:4.23333311px;line-height:1.25;font-family:sans-serif;letter-spacing:0;word-spacing:0;fill:#000;fill-opacity:1;stroke:none;stroke-width:.26458332" x="71.227" y="18.238" transform="translate(3.165 3.156)"><tspan x="71.227" y="18.238" style="stroke-width:.26458332"><tspan style="font-style:italic">c</tspan><tspan style="font-size:64.99999762%;baseline-shift:sub">1</tspan></tspan></text><use y="81.24" x="270.17" xlink:href="#a" width="100%" height="100%" style="fill:#000;fill-opacity:1" transform="translate(-82.283 11.198) scale(.46626)"/><use y="97.1" x="267.89" xlink:href="#a" width="100%" height="100%" style="fill:#000;fill-opacity:1" transform="translate(-82.283 11.198) scale(.46626)"/><use y="99.38" x="273.77" xlink:href="#b" width="100%" height="100%" style="fill:#000;fill-opacity:1" transform="translate(-82.283 11.198) scale(.46626)"/><path d="M267.89 86.879h10.919v-.719H267.89zm0 0" style="fill:#000;fill-opacity:1;fill-rule:evenodd;stroke:none" transform="translate(-82.283 11.198) scale(.46626)"/><use y="89.64" x="281.93" xlink:href="#c" width="100%" height="100%" style="fill:#000;fill-opacity:1" transform="translate(-82.283 11.198) scale(.46626)"/><use y="81.24" x="295.37" xlink:href="#d" width="100%" height="100%" style="fill:#000;fill-opacity:1" transform="translate(-82.283 11.198) scale(.46626)"/><use y="97.1" x="293.21" xlink:href="#d" width="100%" height="100%" style="fill:#000;fill-opacity:1" transform="translate(-82.283 11.198) scale(.46626)"/><use y="99.38" x="298.61" xlink:href="#b" width="100%" height="100%" style="fill:#000;fill-opacity:1" transform="translate(-82.283 11.198) scale(.46626)"/><path d="M293.21 86.879h10.438v-.719h-10.437zm0 0" style="fill:#000;fill-opacity:1;fill-rule:evenodd;stroke:none" transform="translate(-82.283 11.198) scale(.46626)"/><use y="89.64" x="306.65" xlink:href="#c" width="100%" height="100%" style="fill:#000;fill-opacity:1" transform="translate(-82.283 11.198) scale(.46626)"/><use y="81.24" x="319.97" xlink:href="#e" width="100%" height="100%" style="fill:#000;fill-opacity:1" transform="translate(-82.283 11.198) scale(.46626)"/><use y="97.1" x="317.93" xlink:href="#e" width="100%" height="100%" style="fill:#000;fill-opacity:1" transform="translate(-82.283 11.198) scale(.46626)"/><use y="99.38" x="322.49" xlink:href="#b" width="100%" height="100%" style="fill:#000;fill-opacity:1" transform="translate(-82.283 11.198) scale(.46626)"/><path d="M317.93 86.879h9.601v-.719h-9.601zm0 0" style="fill:#000;fill-opacity:1;fill-rule:evenodd;stroke:none" transform="translate(-82.283 11.198) scale(.46626)"/><use y="89.64" x="327.53" xlink:href="#f" width="100%" height="100%" style="fill:#000;fill-opacity:1" transform="translate(-82.283 11.198) scale(.46626)"/></svg>