<svg xmlns="http://www.w3.org/2000/svg" width="474.574" height="284.643" viewBox="0 0 125.564 75.312"><defs><clipPath id="b"><path d="M141.871 61H425v177H141.871zm0 0"/></clipPath><clipPath clipPathUnits="userSpaceOnUse" id="a"><path style="opacity:1;fill:none;fill-opacity:1;stroke:#000;stroke-width:.70866144;stroke-linecap:round;stroke-miterlimit:4;stroke-dasharray:none;stroke-dashoffset:0;stroke-opacity:1" d="M127.845 57.039h311.786v198.214H127.845z"/></clipPath><marker orient="auto" refY="0" refX="0" id="d" style="overflow:visible"><path style="fill:#000;fill-opacity:1;fill-rule:evenodd;stroke:#000;stroke-width:.625;stroke-linejoin:round;stroke-opacity:1" d="M8.719 4.034-2.207.016 8.719-4.002c-1.746 2.372-1.736 5.618 0 8.036z" transform="scale(-.6)"/></marker><marker orient="auto" refY="0" refX="0" id="c" style="overflow:visible"><path style="fill:#000;fill-opacity:1;fill-rule:evenodd;stroke:#000;stroke-width:.625;stroke-linejoin:round;stroke-opacity:1" d="M8.719 4.034-2.207.016 8.719-4.002c-1.746 2.372-1.736 5.618 0 8.036z" transform="scale(-.6)"/></marker></defs><g transform="translate(-29.761 -17.02) scale(.35278)" clip-path="url(#a)"><path d="m77.852 46.172 1.66-.672h.218v1.25s.418-.7.84-.988c0 0 .418-.293.871-.293 0 0 .82 0 1.348.64 0 0 .672.762.672 2.012 0 0 0 1.399-.8 2.3 0 0-.65.75-1.65.75 0 0-.44 0-.75-.12 0 0-.241-.102-.53-.36v1.637s0 .543.07.692c0 0 .07.152.23.242 0 0 .16.078.598.078v.219H77.82v-.22h.16s.31.02.54-.109c0 0 .109-.07.171-.21 0 0 .07-.149.07-.72v-5.08s0-.528-.05-.668c0 0-.05-.14-.152-.211 0 0-.098-.07-.27-.07 0 0-.14 0-.36.09zm1.878.918v2s0 .66.06.86c0 0 .081.35.401.6 0 0 .32.259.797.259 0 0 .582 0 .953-.45 0 0 .47-.609.47-1.687 0 0 0-1.23-.532-1.89 0 0-.367-.454-.89-.454 0 0-.278 0-.56.14 0 0-.218.09-.699.622zm6.348-4.418v7.11s0 .519.082.679c0 0 .078.16.23.238 0 0 .15.082.57.082V51h-2.64v-.219s.371 0 .508-.07c0 0 .133-.07.211-.25 0 0 .082-.18.082-.68v-4.87s0-.911-.043-1.11c0 0-.039-.211-.137-.281 0 0-.09-.079-.23-.079 0 0-.16 0-.39.09l-.09-.203 1.59-.656zm4.121 2.797s1.223 0 1.95.941c0 0 .632.781.632 1.809 0 0 0 .722-.351 1.453 0 0-.34.738-.942 1.117 0 0-.597.383-1.347.383 0 0-1.22 0-1.922-.973 0 0-.61-.828-.61-1.828 0 0 0-.75.36-1.473 0 0 .37-.726.96-1.078 0 0 .602-.351 1.27-.351zm-.187.39s-.293 0-.614.18c0 0-.32.18-.507.652 0 0-.192.47-.192 1.18 0 0 0 1.18.461 2.027 0 0 .461.852 1.23.852 0 0 .56 0 .938-.469 0 0 .371-.472.371-1.61 0 0 0-1.44-.62-2.25 0 0-.407-.562-1.067-.562zm5.129-1.988v1.75h1.25v.43h-1.25v3.469s0 .53.148.71c0 0 .14.18.383.18 0 0 .187 0 .367-.12 0 0 .191-.118.29-.349h.23s-.22.559-.59.86c0 0-.38.289-.77.289 0 0-.27 0-.52-.149 0 0-.257-.16-.39-.43 0 0-.117-.28-.117-.85v-3.61h-.844v-.211s.313-.121.64-.43c0 0 .34-.3.61-.719 0 0 .14-.242.371-.82zm7.929-.821h4.258v.231l-2.648 7.89h-.66l2.378-7.151h-2.187s-.66 0-.941.152c0 0-.48.27-.79.828l-.16-.059zm7.95 2.571h2.53v.219s-.25 0-.34.09c0 0-.089.09-.089.21 0 0 0 .141.2.438 0 0 .058.094.199.293l.378.61.43-.61s.434-.57.434-.73c0 0 0-.121-.102-.211 0 0-.11-.09-.332-.09v-.219h1.82v.219s-.277.02-.5.16c0 0-.277.2-.777.871l-.742.988 1.352 1.922s.48.7.69.84c0 0 .208.149.56.16V51h-2.54v-.219s.27 0 .41-.11c0 0 .11-.081.11-.222 0 0 0-.14-.383-.668l-.777-1.16-.86 1.16s-.402.528-.402.63c0 0 0 .14.133.25 0 0 .129.12.398.12V51h-1.75v-.219s.2-.011.36-.14c0 0 .23-.172.75-.86l1.12-1.5-1.01-1.48s-.438-.63-.669-.79c0 0-.242-.171-.601-.171zM117.512 53v-.27s.61-.18.93-.609c0 0 .328-.422.328-.89 0 0 0-.11-.04-.18 0 0-.05-.051-.082-.051 0 0-.07 0-.277.11 0 0-.11.062-.242.062 0 0-.277 0-.45-.172 0 0-.167-.172-.167-.469 0 0 0-.3.218-.5 0 0 .211-.203.54-.203 0 0 .378 0 .68.332 0 0 .312.34.312.899 0 0 0 .601-.434 1.12 0 0-.418.52-1.316.821zm5.448-7.379h2.528v.219h-.16s-.226 0-.348.12c0 0-.109.118-.109.31 0 0 0 .199.11.48l1.25 2.95 1.257-3.06s.133-.331.133-.5c0 0 0-.09-.05-.14 0 0-.06-.09-.16-.129 0 0-.11-.031-.4-.031v-.219h1.75v.219s-.32.031-.433.129c0 0-.2.172-.367.59l-1.91 4.613h-.23l-1.923-4.531s-.128-.332-.238-.461c0 0-.121-.13-.289-.23 0 0-.11-.06-.41-.11zm7.642-2.95s.25 0 .418.169c0 0 .171.18.171.43 0 0 0 .23-.171.41 0 0-.168.18-.418.18 0 0-.23 0-.41-.18 0 0-.18-.18-.18-.41 0 0 0-.25.168-.43 0 0 .172-.168.422-.168zm.5 2.798v4.312s0 .52.07.68c0 0 .066.16.207.238 0 0 .14.082.531.082V51h-2.61v-.219s.391 0 .528-.07c0 0 .133-.07.211-.25 0 0 .082-.18.082-.68V47.72s0-.88-.05-1.13c0 0-.052-.179-.13-.26 0 0-.09-.079-.25-.079 0 0-.152 0-.39.09l-.07-.219 1.597-.652zm2.378 2.191s-.011 1.18.579 1.871c0 0 .582.668 1.37.668 0 0 .54 0 .93-.289 0 0 .391-.289.653-.988l.168.129s-.121.789-.711 1.46c0 0-.578.66-1.469.66 0 0-.969 0-1.66-.76 0 0-.692-.75-.692-2.02 0 0 0-1.371.711-2.153 0 0 .7-.77 1.762-.77 0 0 .91 0 1.488.59 0 0 .57.602.57 1.602zm0-.351h2.489s-.04-.508-.13-.72c0 0-.14-.32-.44-.51 0 0-.29-.188-.61-.188 0 0-.48 0-.86.379 0 0-.39.37-.449 1.039zm4.122-1.688h2.25v.219s-.313.031-.403.12c0 0-.097.09-.097.259 0 0 0 .172.097.441l1.153 3.07 1.148-2.511-.3-.778s-.141-.363-.38-.492c0 0-.12-.09-.468-.11v-.218h2.546v.219s-.418.02-.59.16c0 0-.128.09-.128.3 0 0 0 .122.05.25l1.22 3.071 1.14-2.96s.11-.333.11-.52c0 0 0-.11-.11-.192 0 0-.11-.09-.45-.11v-.218h1.7v.219s-.52.082-.75.71l-1.8 4.622h-.25l-1.329-3.442-1.57 3.442h-.211l-1.73-4.512s-.169-.441-.34-.59c0 0-.16-.148-.508-.23zm11.476.207h6.332v.48h-6.332zm0 1.902h6.332v.489h-6.332zm15.222-.652s0-1.36.41-2.348c0 0 .411-.98 1.09-1.46 0 0 .528-.38 1.098-.38 0 0 .903 0 1.641.938 0 0 .902 1.14.902 3.121 0 0 0 1.38-.39 2.352 0 0-.403.969-1.02 1.398 0 0-.62.442-1.203.442 0 0-1.137 0-1.887-1.34 0 0-.64-1.13-.64-2.723zm1.141.14s0 1.641.41 2.673c0 0 .34.879 1 .879 0 0 .31 0 .66-.29 0 0 .34-.28.509-.949 0 0 .27-1 .27-2.84 0 0 0-1.363-.278-2.27 0 0-.211-.671-.551-.952 0 0-.23-.188-.582-.188 0 0-.39 0-.7.36 0 0-.417.48-.577 1.52 0 0-.16 1.038-.16 2.058zm7.93 2.642s.277 0 .457.19c0 0 .192.2.192.47 0 0 0 .261-.192.46 0 0-.2.192-.457.192 0 0-.27 0-.46-.192 0 0-.2-.199-.2-.46 0 0 0-.29.2-.47 0 0 .19-.19.46-.19zm3 0s.277 0 .457.19c0 0 .192.2.192.47 0 0 0 .261-.192.46 0 0-.2.192-.457.192 0 0-.27 0-.46-.192 0 0-.2-.199-.2-.46 0 0 0-.29.2-.47 0 0 .19-.19.46-.19zm2.899-6.032 1.94-.937h.188v6.699s0 .68.051.84c0 0 .063.16.242.25 0 0 .18.09.707.101V51h-2.988v-.219s.57-.011.73-.101c0 0 .16-.09.231-.23 0 0 .059-.141.059-.86v-4.281s0-.868-.051-1.11c0 0-.05-.18-.149-.277 0 0-.109-.094-.27-.094 0 0-.222 0-.589.192zm5.03 3.25s0-1.36.41-2.348c0 0 .411-.98 1.09-1.46 0 0 .528-.38 1.098-.38 0 0 .903 0 1.641.938 0 0 .902 1.14.902 3.121 0 0 0 1.38-.39 2.352 0 0-.403.969-1.02 1.398 0 0-.62.442-1.203.442 0 0-1.137 0-1.887-1.34 0 0-.64-1.13-.64-2.723zm1.141.14s0 1.641.41 2.673c0 0 .34.879 1 .879 0 0 .31 0 .66-.29 0 0 .34-.28.509-.949 0 0 .27-1 .27-2.84 0 0 0-1.363-.278-2.27 0 0-.211-.671-.551-.952 0 0-.23-.188-.582-.188 0 0-.39 0-.7.36 0 0-.417.48-.577 1.52 0 0-.16 1.038-.16 2.058zM190.512 53v-.27s.61-.18.93-.609c0 0 .328-.422.328-.89 0 0 0-.11-.04-.18 0 0-.05-.051-.082-.051 0 0-.07 0-.277.11 0 0-.11.062-.242.062 0 0-.277 0-.45-.172 0 0-.167-.172-.167-.469 0 0 0-.3.218-.5 0 0 .211-.203.54-.203 0 0 .378 0 .68.332 0 0 .312.34.312.899 0 0 0 .601-.434 1.12 0 0-.418.52-1.316.821zm5.788-5.922s0-1.36.41-2.348c0 0 .411-.98 1.09-1.46 0 0 .528-.38 1.098-.38 0 0 .903 0 1.641.938 0 0 .902 1.14.902 3.121 0 0 0 1.38-.39 2.352 0 0-.403.969-1.02 1.398 0 0-.62.442-1.203.442 0 0-1.137 0-1.887-1.34 0 0-.64-1.13-.64-2.723zm1.141.14s0 1.641.41 2.673c0 0 .34.879 1 .879 0 0 .31 0 .66-.29 0 0 .34-.28.509-.949 0 0 .27-1 .27-2.84 0 0 0-1.363-.278-2.27 0 0-.211-.671-.551-.952 0 0-.23-.188-.582-.188 0 0-.39 0-.7.36 0 0-.417.48-.577 1.52 0 0-.16 1.038-.16 2.058zm7.93 2.642s.277 0 .457.19c0 0 .192.2.192.47 0 0 0 .261-.192.46 0 0-.2.192-.457.192 0 0-.27 0-.46-.192 0 0-.2-.199-.2-.46 0 0 0-.29.2-.47 0 0 .19-.19.46-.19zm3 0s.277 0 .457.19c0 0 .192.2.192.47 0 0 0 .261-.192.46 0 0-.2.192-.457.192 0 0-.27 0-.46-.192 0 0-.2-.199-.2-.46 0 0 0-.29.2-.47 0 0 .19-.19.46-.19zm2.699-6.81h4.258v.231l-2.648 7.89h-.66l2.378-7.151h-2.187s-.66 0-.941.152c0 0-.48.27-.79.828l-.16-.059zm5.23 4.028s0-1.36.41-2.348c0 0 .411-.98 1.09-1.46 0 0 .528-.38 1.098-.38 0 0 .903 0 1.641.938 0 0 .902 1.14.902 3.121 0 0 0 1.38-.39 2.352 0 0-.403.969-1.02 1.398 0 0-.62.442-1.203.442 0 0-1.137 0-1.887-1.34 0 0-.64-1.13-.64-2.723zm1.141.14s0 1.641.41 2.673c0 0 .34.879 1 .879 0 0 .31 0 .66-.29 0 0 .34-.28.509-.949 0 0 .27-1 .27-2.84 0 0 0-1.363-.278-2.27 0 0-.211-.671-.551-.952 0 0-.23-.188-.582-.188 0 0-.39 0-.7.36 0 0-.417.48-.577 1.52 0 0-.16 1.038-.16 2.058zM162.27 53h-2.399V43h2.399v.43h-1.66v9.14h1.66zm61.601-10h2.399v10h-2.399v-.43h1.649v-9.14h-1.649zm3.641 10v-.27s.61-.18.93-.609c0 0 .328-.422.328-.89 0 0 0-.11-.04-.18 0 0-.05-.051-.082-.051 0 0-.07 0-.277.11 0 0-.11.062-.242.062 0 0-.277 0-.45-.172 0 0-.167-.172-.167-.469 0 0 0-.3.218-.5 0 0 .211-.203.54-.203 0 0 .378 0 .68.332 0 0 .312.34.312.899 0 0 0 .601-.434 1.12 0 0-.418.52-1.316.821zm9.718-7.3-.359 1.8h-.223s-.027-.8-.34-1.148c0 0-.296-.352-.757-.352 0 0-.36 0-.57.2 0 0-.211.19-.211.472 0 0 0 .2.082.379 0 0 .078.168.378.48 0 0 .758.84.98 1.27 0 0 .22.418.22.789 0 0 0 .61-.508 1.082 0 0-.512.469-1.274.469 0 0-.418 0-.988-.2 0 0-.18-.07-.289-.07 0 0-.27 0-.39.27h-.22l.36-1.91h.207s.043.89.371 1.269c0 0 .34.371.922.371 0 0 .43 0 .7-.25 0 0 .257-.25.257-.601 0 0 0-.239-.09-.442 0 0-.168-.36-.687-.976 0 0-.531-.622-.68-.93 0 0-.14-.313-.14-.621 0 0 0-.57.41-.961 0 0 .41-.39 1.05-.39 0 0 .188 0 .348.019l.383.14s.308.11.398.11c0 0 .258 0 .418-.27zm2.989-2.329s.25 0 .422.168c0 0 .16.16.16.41 0 0 0 .25-.172.422 0 0-.168.18-.41.18 0 0-.25 0-.418-.18 0 0-.172-.172-.172-.422 0 0 0-.25.172-.41 0 0 .168-.168.418-.168zm.082 2.328-1.172 4.102s-.11.418-.11.5c0 0 0 .09.06.148 0 0 .05.07.132.07 0 0 .09 0 .2-.097 0 0 .339-.262.69-.75l.2.129s-.403.61-.942 1.027c0 0-.398.313-.757.313 0 0-.243 0-.391-.141 0 0-.16-.14-.16-.36 0 0 0-.218.14-.718l.77-2.621s.187-.66.187-.82c0 0 0-.122-.09-.211 0 0-.09-.079-.257-.079 0 0-.121 0-.531.059v-.219zm1.59.14h3.71v.141l-4.062 4.22h1.723s.61 0 .77-.04c0 0 .167-.05.308-.21 0 0 .14-.15.308-.54h.204l-.5 1.59h-3.813v-.172l4.05-4.219h-1.69s-.528 0-.637.032c0 0-.172.03-.332.18 0 0-.149.148-.328.488h-.211zm5.09 2.962s-.051.277-.051.48c0 0 0 .52.37.88 0 0 .36.37.9.37 0 0 .421 0 .812-.172 0 0 .386-.168 1.148-.77l.129.18s-1.39 1.372-2.66 1.372c0 0-.84 0-1.277-.54 0 0-.442-.542-.442-1.19 0 0 0-.88.54-1.79 0 0 .538-.922 1.359-1.422 0 0 .812-.5 1.671-.5 0 0 .622 0 .918.25 0 0 .301.25.301.602 0 0 0 .48-.379.93 0 0-.511.578-1.5.94 0 0-.66.24-1.84.38zm.03-.301s.868-.09 1.419-.34c0 0 .718-.32 1.082-.77 0 0 .36-.449.36-.84 0 0 0-.25-.161-.41 0 0-.152-.16-.441-.16 0 0-.61 0-1.282.641 0 0-.668.649-.976 1.879zm7.067-2.672h6.332v.48h-6.332zm0 1.902h6.332v.489h-6.332zm20.16-4.84v.22s-.758.081-1.258.3c0 0-.492.23-.968.711 0 0-.473.469-.782 1.059 0 0-.32.59-.539 1.379 0 0 .848-.579 1.707-.579 0 0 .813 0 1.403.66 0 0 .597.66.597 1.688 0 0 0 1-.597 1.813 0 0-.73 1-1.922 1 0 0-.809 0-1.39-.551 0 0-1.11-1.04-1.11-2.719 0 0 0-1.062.43-2.02 0 0 .43-.96 1.222-1.703 0 0 .79-.738 1.52-1 0 0 .719-.257 1.36-.257zm-3.636 4.09s-.114.801-.114 1.29c0 0 0 .558.211 1.218 0 0 .211.672.621 1.043 0 0 .301.278.73.278 0 0 .5 0 .91-.48 0 0 .411-.49.411-1.38 0 0 0-1-.402-1.719 0 0-.399-.73-1.14-.73 0 0-.208 0-.47.09 0 0-.257.101-.757.39zm4.699.098s0-1.36.41-2.348c0 0 .41-.98 1.09-1.46 0 0 .527-.38 1.097-.38 0 0 .903 0 1.641.938 0 0 .902 1.14.902 3.121 0 0 0 1.38-.39 2.352 0 0-.403.969-1.02 1.398 0 0-.62.442-1.203.442 0 0-1.137 0-1.887-1.34 0 0-.64-1.13-.64-2.723zm1.14.14s0 1.641.41 2.673c0 0 .34.879 1 .879 0 0 .31 0 .66-.29 0 0 .34-.28.509-.949 0 0 .27-1 .27-2.84 0 0 0-1.363-.278-2.27 0 0-.211-.671-.551-.952 0 0-.23-.188-.582-.188 0 0-.39 0-.7.36 0 0-.417.48-.577 1.52 0 0-.16 1.038-.16 2.058zm4.86-.14s0-1.36.41-2.348c0 0 .41-.98 1.09-1.46 0 0 .527-.38 1.097-.38 0 0 .903 0 1.641.938 0 0 .902 1.14.902 3.121 0 0 0 1.38-.39 2.352 0 0-.403.969-1.02 1.398 0 0-.62.442-1.203.442 0 0-1.137 0-1.887-1.34 0 0-.64-1.13-.64-2.723zm1.14.14s0 1.641.41 2.673c0 0 .34.879 1 .879 0 0 .31 0 .66-.29 0 0 .34-.28.509-.949 0 0 .27-1 .27-2.84 0 0 0-1.363-.278-2.27 0 0-.211-.671-.551-.952 0 0-.23-.188-.582-.188 0 0-.39 0-.7.36 0 0-.417.48-.577 1.52 0 0-.16 1.038-.16 2.058zM287.512 53v-.27s.61-.18.93-.609c0 0 .328-.422.328-.89 0 0 0-.11-.04-.18 0 0-.05-.051-.082-.051 0 0-.07 0-.277.11 0 0-.11.062-.242.062 0 0-.277 0-.45-.172 0 0-.167-.172-.167-.469 0 0 0-.3.218-.5 0 0 .211-.203.54-.203 0 0 .378 0 .68.332 0 0 .312.34.312.899 0 0 0 .601-.434 1.12 0 0-.418.52-1.316.821zm10.929-4.941v.851h-1.062V51h-.969v-2.09h-3.36v-.75l3.688-5.27h.64v5.169zm-2.03 0V44.12l-2.782 3.938zm2.89-.98s0-1.36.41-2.349c0 0 .41-.98 1.09-1.46 0 0 .527-.38 1.097-.38 0 0 .903 0 1.641.938 0 0 .902 1.14.902 3.121 0 0 0 1.38-.39 2.352 0 0-.403.969-1.02 1.398 0 0-.62.442-1.203.442 0 0-1.137 0-1.887-1.34 0 0-.64-1.13-.64-2.723zm1.14.14s0 1.64.41 2.672c0 0 .34.879 1 .879 0 0 .31 0 .66-.29 0 0 .34-.28.509-.949 0 0 .27-1 .27-2.84 0 0 0-1.363-.278-2.27 0 0-.211-.671-.551-.952 0 0-.23-.188-.582-.188 0 0-.39 0-.7.36 0 0-.417.48-.577 1.52 0 0-.16 1.038-.16 2.058zm4.86-.14s0-1.36.41-2.349c0 0 .41-.98 1.09-1.46 0 0 .527-.38 1.097-.38 0 0 .903 0 1.641.938 0 0 .902 1.14.902 3.121 0 0 0 1.38-.39 2.352 0 0-.403.969-1.02 1.398 0 0-.62.442-1.203.442 0 0-1.137 0-1.887-1.34 0 0-.64-1.13-.64-2.723zm1.14.14s0 1.64.41 2.672c0 0 .34.879 1 .879 0 0 .31 0 .66-.29 0 0 .34-.28.509-.949 0 0 .27-1 .27-2.84 0 0 0-1.363-.278-2.27 0 0-.211-.671-.551-.952 0 0-.23-.188-.582-.188 0 0-.39 0-.7.36 0 0-.417.48-.577 1.52 0 0-.16 1.038-.16 2.058zM267.27 53h-2.399V43h2.399v.43h-1.66v9.14h1.66zm45.601-10h2.399v10h-2.399v-.43h1.649v-9.14h-1.649zm3.641 10v-.27s.61-.18.93-.609c0 0 .328-.422.328-.89 0 0 0-.11-.04-.18 0 0-.05-.051-.082-.051 0 0-.07 0-.277.11 0 0-.11.062-.242.062 0 0-.277 0-.45-.172 0 0-.167-.172-.167-.469 0 0 0-.3.218-.5 0 0 .211-.203.54-.203 0 0 .378 0 .68.332 0 0 .312.34.312.899 0 0 0 .601-.434 1.12 0 0-.418.52-1.316.821zm11.609-6.941-.18.613h-.96s.097.308.097.598c0 0 0 .761-.648 1.37 0 0-.668.59-1.809.669 0 0-.633.191-.941.441 0 0-.13.09-.13.191 0 0 0 .118.11.22 0 0 .11.089.531.198l1.137.262s.941.219 1.25.52c0 0 .3.308.3.718 0 0 0 .48-.347.88 0 0-.351.402-1.043.632 0 0-.687.219-1.508.219 0 0-.718 0-1.32-.168 0 0-.61-.172-.86-.473 0 0-.261-.289-.261-.61 0 0 0-.25.172-.519 0 0 .168-.27.418-.449 0 0 .16-.101.89-.531 0 0-.257-.2-.257-.45 0 0 0-.23.226-.5 0 0 .242-.269 1.024-.581 0 0-.66-.118-1.032-.54 0 0-.378-.43-.378-.93 0 0 0-.82.726-1.48 0 0 .723-.66 1.941-.66 0 0 .442 0 .72.09 0 0 .28.082.55.27zm-2.043.921s0-.46-.25-.742c0 0-.258-.27-.68-.27 0 0-.668 0-1.097.66 0 0-.43.673-.43 1.392 0 0 0 .449.27.742 0 0 .27.289.68.289 0 0 .3 0 .59-.18 0 0 .3-.172.5-.46 0 0 .19-.302.308-.763 0 0 .11-.457.11-.668zM323.27 51s-.47.219-.711.55c0 0-.239.34-.239.669 0 0 0 .39.34.64 0 0 .52.371 1.488.371 0 0 .84 0 1.43-.28 0 0 .602-.29.602-.75 0 0 0-.22-.22-.43 0 0-.222-.211-.858-.329 0 0-.34-.07-1.832-.441zm5.218-4.969 2.032-.332-.84 2.852s1.011-1.75 1.86-2.461c0 0 .472-.39.76-.39 0 0 .212 0 .321.109 0 0 .11.113.11.332 0 0 0 .39-.211.73 0 0-.141.27-.399.27 0 0-.133 0-.23-.09 0 0-.102-.082-.121-.27 0 0-.008-.11-.06-.14 0 0-.05-.051-.108-.051 0 0-.09 0-.192.05 0 0-.14.079-.45.45 0 0-.48.582-1.062 1.488 0 0-.25.39-.418.871 0 0-.25.672-.289.82l-.18.731h-.89l1.07-3.64s.188-.63.188-.91c0 0 0-.09-.078-.169 0 0-.121-.09-.313-.09 0 0-.117 0-.449.04zm6.73-2.66s.25 0 .423.168c0 0 .16.16.16.41 0 0 0 .25-.172.422 0 0-.168.18-.41.18 0 0-.25 0-.418-.18 0 0-.172-.172-.172-.422 0 0 0-.25.172-.41 0 0 .168-.168.418-.168zm.083 2.328-1.172 4.102s-.11.418-.11.5c0 0 0 .09.06.148 0 0 .05.07.132.07 0 0 .09 0 .2-.097 0 0 .339-.262.69-.75l.2.129s-.403.61-.942 1.027c0 0-.398.313-.757.313 0 0-.243 0-.391-.141 0 0-.16-.14-.16-.36 0 0 0-.218.14-.718l.77-2.621s.187-.66.187-.82c0 0 0-.122-.09-.211 0 0-.09-.079-.257-.079 0 0-.121 0-.532.059v-.219zm7.07-3.027-2.02 6.906s-.171.563-.171.73c0 0 0 .063.05.122 0 0 .051.05.11.05 0 0 .082 0 .172-.07 0 0 .199-.14.668-.71l.21.128s-.43.582-.859.942c0 0-.43.37-.8.37 0 0-.2 0-.333-.14 0 0-.117-.14-.117-.41 0 0 0-.32.168-.89l.223-.72s-.852 1.32-1.55 1.82c0 0-.474.34-.911.34 0 0-.45 0-.781-.402 0 0-.328-.398-.328-1.066 0 0 0-.871.558-1.871 0 0 .55-.992 1.461-1.61 0 0 .73-.492 1.328-.492 0 0 .313 0 .551.13 0 0 .23.12.45.421l.581-2.031s.059-.219.09-.348c0 0 .078-.23.078-.39 0 0 0-.122-.098-.2 0 0-.12-.11-.312-.11 0 0-.14 0-.438.048V43zm-2.191 4.156s0-.379-.211-.598c0 0-.207-.23-.547-.23 0 0-.742 0-1.531 1.219 0 0-.801 1.222-.801 2.332 0 0 0 .43.191.668 0 0 .18.23.469.23 0 0 .602 0 1.52-1.32 0 0 .91-1.32.91-2.3zm5.25-4.156-2 6.969s-.141.52-.141.64c0 0 0 .078.063.14 0 0 .046.06.128.06 0 0 .11 0 .25-.09 0 0 .301-.25.622-.75l.187.187s-.559.781-1.027 1.094c0 0-.34.219-.66.219 0 0-.211 0-.364-.16 0 0-.148-.153-.148-.34 0 0 0-.22.191-.871l1.57-5.5s.208-.68.208-.77c0 0 0-.14-.118-.23 0 0-.12-.098-.351-.098 0 0-.13 0-.41.047V43zm2.46.7s.25 0 .419.167c0 0 .16.16.16.41 0 0 0 .25-.168.422 0 0-.172.18-.41.18 0 0-.25 0-.422-.18 0 0-.168-.172-.168-.422 0 0 0-.25.168-.41 0 0 .172-.168.422-.168zm.079 2.327-1.168 4.102s-.11.418-.11.5c0 0 0 .09.047.148 0 0 .063.07.14.07 0 0 .09 0 .2-.097 0 0 .344-.262.692-.75l.199.129s-.41.61-.938 1.027c0 0-.402.313-.761.313 0 0-.239 0-.391-.141 0 0-.16-.14-.16-.36 0 0 0-.218.14-.718l.77-2.621s.18-.66.18-.82c0 0 0-.122-.079-.211 0 0-.09-.079-.261-.079 0 0-.13 0-.528.059v-.219zm3.222 0-.78 2.66s1.1-1.629 1.667-2.14c0 0 .582-.52 1.133-.52 0 0 .3 0 .48.192 0 0 .188.187.188.5 0 0 0 .359-.168.937l-.723 2.473s-.11.418-.11.508c0 0 0 .101.052.152 0 0 .05.059.09.059 0 0 .058 0 .171-.079 0 0 .32-.25.68-.75l.18.11s-.54.777-1.032 1.11c0 0-.34.23-.609.23 0 0-.219 0-.34-.13 0 0-.129-.14-.129-.35 0 0 0-.29.188-.97l.691-2.363s.121-.437.121-.687c0 0 0-.11-.07-.192 0 0-.082-.078-.191-.078 0 0-.16 0-.391.149 0 0-.437.261-.91.87 0 0-.469.61-.98 1.551 0 0-.278.5-.458 1.09l-.293.969h-.878l1.058-3.672s.192-.656.192-.797c0 0 0-.12-.098-.222 0 0-.102-.09-.262-.09 0 0-.058 0-.25.011l-.219.04-.03-.211zm4.79 3.102s-.051.277-.051.48c0 0 0 .52.37.88 0 0 .36.37.891.37 0 0 .43 0 .82-.172 0 0 .387-.168 1.15-.77l.128.18s-1.39 1.372-2.66 1.372c0 0-.84 0-1.278-.54 0 0-.44-.542-.44-1.19 0 0 0-.88.538-1.79 0 0 .54-.922 1.352-1.422 0 0 .82-.5 1.68-.5 0 0 .62 0 .917.25 0 0 .293.25.293.602 0 0 0 .48-.37.93 0 0-.52.578-1.5.94 0 0-.66.24-1.84.38zm.03-.301s.868-.09 1.419-.34c0 0 .718-.32 1.082-.77 0 0 .36-.449.36-.84 0 0 0-.25-.161-.41 0 0-.16-.16-.441-.16 0 0-.61 0-1.282.641 0 0-.668.649-.976 1.879zm8.208-2.8-.36 1.8h-.21s-.04-.8-.34-1.148c0 0-.309-.352-.758-.352 0 0-.36 0-.57.2 0 0-.211.19-.211.472 0 0 0 .2.082.379 0 0 .078.168.367.48 0 0 .77.84.992 1.27 0 0 .219.418.219.789 0 0 0 .61-.508 1.082 0 0-.512.469-1.274.469 0 0-.43 0-.988-.2 0 0-.191-.07-.3-.07 0 0-.258 0-.391.27h-.219l.36-1.91h.218s.031.89.371 1.269c0 0 .34.371.91.371 0 0 .442 0 .711-.25 0 0 .258-.25.258-.601 0 0 0-.239-.09-.442 0 0-.168-.36-.699-.976 0 0-.52-.622-.668-.93 0 0-.152-.313-.152-.621 0 0 0-.57.422-.961 0 0 .41-.39 1.05-.39 0 0 .188 0 .348.019 0 0 .07.031.383.14 0 0 .297.11.398.11 0 0 .258 0 .418-.27zm2.859.128h6.332v.48h-6.332zm0 1.902h6.332v.489h-6.332zm11.91-3.48-.468 1.59h.921l-.09.36h-.921l-1 3.46s-.168.559-.168.73c0 0 0 .09.039.15 0 0 .05.05.11.05 0 0 .16 0 .39-.2 0 0 .14-.12.629-.73l.199.149s-.55.78-1.027 1.113c0 0-.332.219-.66.219 0 0-.25 0-.41-.16 0 0-.16-.172-.16-.422 0 0 0-.309.179-.97l.969-3.39h-.872l.043-.219s.66-.18 1.079-.53c0 0 .421-.34.96-1.2zm.84 1.781 2.031-.332-.847 2.852s1.02-1.75 1.86-2.461c0 0 .468-.39.769-.39 0 0 .199 0 .308.109 0 0 .11.113.11.332 0 0 0 .39-.2.73 0 0-.14.27-.41.27 0 0-.12 0-.23-.09 0 0-.098-.082-.11-.27 0 0-.02-.11-.07-.14 0 0-.039-.051-.11-.051 0 0-.09 0-.179.05 0 0-.14.079-.46.45 0 0-.481.582-1.06 1.488 0 0-.25.39-.421.871 0 0-.25.672-.278.82l-.191.731h-.89l1.081-3.64s.188-.63.188-.91c0 0 0-.09-.078-.169 0 0-.13-.09-.313-.09 0 0-.129 0-.457.04zm9.703-.191-1.031 3.488s-.219.781-.219.98c0 0 0 .114.04.16 0 0 .03.052.1.052 0 0 .09 0 .208-.09 0 0 .121-.09.621-.73l.172.14s-.473.738-.961 1.082c0 0-.32.219-.621.219 0 0-.219 0-.352-.13 0 0-.136-.14-.136-.34 0 0 0-.19.078-.51 0 0 .101-.442.53-1.891 0 0-1 1.62-1.66 2.25 0 0-.66.62-1.241.62 0 0-.27 0-.457-.19 0 0-.18-.18-.18-.47 0 0 0-.449.25-1.359l.508-1.812s.191-.637.191-.79c0 0 0-.078-.05-.128 0 0-.06-.051-.11-.051 0 0-.121 0-.25.09 0 0-.121.09-.563.648l-.168-.129s.442-.68.918-1c0 0 .383-.25.692-.25 0 0 .219 0 .36.14 0 0 .14.13.14.352 0 0 0 .309-.238 1.118l-.543 1.91s-.239.761-.239.972c0 0 0 .11.07.18 0 0 .07.07.2.07 0 0 .199 0 .512-.203 0 0 .296-.187.82-.86 0 0 .527-.66.86-1.25 0 0 .34-.577.718-1.847l.14-.441zm1.778 2.96s-.047.278-.047.481c0 0 0 .52.367.88 0 0 .371.37.902.37 0 0 .418 0 .809-.172 0 0 .39-.168 1.16-.77l.121.18s-1.39 1.372-2.66 1.372c0 0-.84 0-1.281-.54 0 0-.43-.542-.43-1.19 0 0 0-.88.531-1.79 0 0 .54-.922 1.36-1.422 0 0 .808-.5 1.668-.5 0 0 .62 0 .921.25 0 0 .301.25.301.602 0 0 0 .48-.383.93 0 0-.507.578-1.5.94 0 0-.648.24-1.84.38zm.03-.3s.872-.09 1.423-.34c0 0 .718-.32 1.078-.77 0 0 .36-.449.36-.84 0 0 0-.25-.16-.41 0 0-.15-.16-.438-.16 0 0-.602 0-1.282.641 0 0-.672.649-.98 1.879zm-291.261 4.238-.156.262s-2.05-1.281-2.05-5.102v.204s0-3.84 2.05-5.102l.156.238s-.906.782-1.219 2.192c0 0-.187.87-.187 2.468v.204s0 1.578.187 2.457c0 0 .313 1.41 1.22 2.18zm296.793-9.476.16-.262s2.047 1.281 2.047 5.102v-.204s0 3.84-2.047 5.102l-.16-.238s.91-.782 1.219-2.192c0 0 .191-.87.191-2.468v-.204s0-1.578-.191-2.457c0 0-.309-1.41-1.219-2.18zm0 0" style="fill:#000;fill-opacity:1;fill-rule:nonzero;stroke:none"/><path transform="matrix(1 0 0 -1 0 1008)" d="M144.871 773v172.969M200.66 773v172.969M256.46 773v172.969M312.262 773v172.969M368.059 773v172.969M423.852 773v172.969" style="fill:none;stroke:#a3a3a3;stroke-width:1;stroke-linecap:butt;stroke-linejoin:round;stroke-miterlimit:10;stroke-opacity:1"/><path transform="matrix(1 0 0 -1 0 1008)" d="M172.762 773v172.969M228.559 773v172.969M284.36 773v172.969M340.16 773v172.969M395.95 773v172.969" style="fill:none;stroke:#e8e8e8;stroke-width:1;stroke-linecap:butt;stroke-linejoin:round;stroke-miterlimit:10;stroke-opacity:1"/><path transform="matrix(1 0 0 -1 0 1008)" d="M144.871 773h278.98m-278.98 24.71h278.98m-278.98 24.712h278.98m-278.98 24.707h278.98m-278.98 24.711h278.98m-278.98 24.71h278.98m-278.98 24.712h278.98m-278.98 24.707h278.98" style="fill:none;stroke:#a3a3a3;stroke-width:1;stroke-linecap:butt;stroke-linejoin:round;stroke-miterlimit:10;stroke-opacity:1"/><path transform="matrix(1 0 0 -1 0 1008)" d="M144.871 785.36h278.98m-278.98 24.71h278.98m-278.98 24.711h278.98m-278.98 24.707h278.98M144.871 884.2h278.98m-278.98 24.71h278.98m-278.98 24.711h278.98" style="fill:none;stroke:#e8e8e8;stroke-width:1;stroke-linecap:butt;stroke-linejoin:round;stroke-miterlimit:10;stroke-opacity:1"/><g clip-path="url(#b)" style="clip-rule:nonzero"><path transform="matrix(1 0 0 -1 0 1008)" d="m-134.121 600.031 2.93 1.82 2.562 1.579 2.867 1.78 2.89 1.79 2.872 1.781 2.672 1.66 2.758 1.707 2.851 1.774 2.848 1.758 2.93 1.82 2.582 1.602 2.898 1.796 2.91 1.801 2.813 1.75 2.547 1.582 3.043 1.88 2.57 1.589 2.988 1.852 2.64 1.636 2.9 1.801 2.769 1.723 2.883 1.789 2.648 1.64 2.86 1.77 2.96 1.84 2.59 1.597 2.79 1.73 2.878 1.794 2.82 1.738 2.73 1.7 3.032 1.87 2.719 1.692 2.902 1.797 2.64 1.64 2.88 1.782 2.699 1.68 2.84 1.757 2.762 1.711 2.898 1.8 2.79 1.731 2.858 1.77 2.832 1.75 2.598 1.62 2.98 1.849 2.672 1.652 2.84 1.758 2.72 1.691 3.022 1.871 2.618 1.617L6.148 687l2.711 1.672 2.961 1.84 2.551 1.578 2.91 1.808 2.809 1.743 2.808 1.738 2.801 1.73 2.68 1.672 2.91 1.797 2.77 1.723 2.91 1.808 2.64 1.63 2.922 1.812 5.578 3.46 2.91 1.798 2.68 1.671 2.742 1.7 3.028 1.879 2.75 1.703 2.812 1.738 2.848 1.77 2.621 1.62 2.8 1.739 2.778 1.723 2.961 1.84 2.621 1.617 3.031 1.882 2.72 1.688 2.698 1.672 2.91 1.8 2.91 1.81 2.65 1.64 2.82 1.75 2.742 1.699 2.98 1.852 2.578 1.597 2.961 1.832 2.781 1.73 2.758 1.708 2.762 1.71 2.809 1.743 2.98 1.848 2.73 1.69 2.7 1.68 2.89 1.782 2.88 1.789 2.581 1.598 3.059 1.902 2.558 1.59 3 1.847 2.864 1.782 2.547 1.582 2.87 1.777 2.891 1.79 2.871 1.78 2.668 1.66 2.762 1.711 2.86 1.77 2.84 1.762 2.929 1.816 2.578 1.602 2.902 1.8 2.918 1.801 2.813 1.75 2.55 1.578 3.028 1.88 2.57 1.59 2.993 1.85 2.636 1.641 2.91 1.801 2.762 1.719 2.88 1.789 2.651 1.64 2.86 1.77 2.969 1.84 2.582 1.601 2.789 1.73 2.879 1.79 2.82 1.738 2.73 1.703 3.032 1.868 2.718 1.691 2.91 1.8 2.63 1.641 2.878 1.778 2.711 1.68 2.832 1.761 2.77 1.711 2.89 1.8 2.797 1.727 2.852 1.774 2.832 1.75 2.598 1.617 2.98 1.852 2.672 1.648 2.84 1.762 2.718 1.687 3.032 1.871 2.61 1.621 2.968 1.848 2.71 1.672 2.962 1.84 2.547 1.582 2.91 1.808 2.812 1.739 2.809 1.742 2.8 1.73 2.688 1.668 2.902 1.801 2.77 1.719 2.922 1.812 2.629 1.63 2.918 1.808 2.793 1.73 2.789 1.73 2.91 1.802 2.68 1.668 2.75 1.703 3.03 1.879 2.74 1.699 2.808 1.738 2.851 1.774 2.63 1.617 2.788 1.742 2.782 1.719 2.968 1.84 2.621 1.62 3.02 1.88 2.73 1.69 2.7 1.669 2.902 1.8 2.91 1.81 2.649 1.64 2.82 1.75 2.75 1.7 2.969 1.85 2.582 1.602 2.96 1.828 2.778 1.73 2.762 1.712 2.757 1.71 2.813 1.739 2.98 1.852 2.739 1.687 2.699 1.68 2.883 1.781 2.879 1.79 2.71 1.679" style="fill:none;stroke:#78000c;stroke-width:1.5;stroke-linecap:butt;stroke-linejoin:round;stroke-miterlimit:10;stroke-opacity:1"/></g><path transform="matrix(1 0 0 -1 0 1008)" d="M144.871 773h278.98" style="fill:none;stroke:#000;stroke-width:1;stroke-linecap:butt;stroke-linejoin:round;stroke-miterlimit:10;stroke-opacity:1"/><path transform="matrix(1 0 0 -1 0 1008)" d="M144.871 773v-2.5m55.789 2.5v-2.5" style="fill:none;stroke:#000;stroke-width:1;stroke-linecap:square;stroke-linejoin:miter;stroke-miterlimit:10;stroke-opacity:1"/><path d="m202.441 245.719-.453 1.281h-3.91v-.191s1.723-1.559 2.434-2.559c0 0 .699-1 .699-1.828 0 0 0-.621-.383-1.031 0 0-.387-.41-.93-.41 0 0-.488 0-.878.289 0 0-.391.289-.56.84h-.19s.128-.91.628-1.391c0 0 .5-.489 1.262-.489 0 0 .8 0 1.352.532 0 0 .539.52.539 1.218 0 0 0 .5-.23 1 0 0-.38.801-1.173 1.68 0 0-1.218 1.32-1.527 1.61h1.73s.528 0 .739-.04c0 0 .21-.039.39-.171 0 0 .168-.118.29-.34zm0 0" style="fill:#000;fill-opacity:1;fill-rule:nonzero;stroke:none"/><path transform="matrix(1 0 0 -1 0 1008)" d="M256.46 773v-2.5" style="fill:none;stroke:#000;stroke-width:1;stroke-linecap:square;stroke-linejoin:miter;stroke-miterlimit:10;stroke-opacity:1"/><path d="M258.52 244.559v.691h-.891V247h-.809v-1.75h-2.8v-.629l3.082-4.39h.527v4.328zm-1.7 0v-3.29l-2.308 3.29zm0 0" style="fill:#000;fill-opacity:1;fill-rule:nonzero;stroke:none"/><path transform="matrix(1 0 0 -1 0 1008)" d="M312.262 773v-2.5" style="fill:none;stroke:#000;stroke-width:1;stroke-linecap:square;stroke-linejoin:miter;stroke-miterlimit:10;stroke-opacity:1"/><path d="M314.352 240.23v.192s-.641.058-1.051.258c0 0-.422.191-.813.59 0 0-.386.39-.66.878 0 0-.258.493-.43 1.153 0 0 .704-.492 1.403-.492 0 0 .687 0 1.18.55 0 0 .5.551.5 1.41 0 0 0 .84-.5 1.512 0 0-.61.84-1.602.84 0 0-.688 0-1.149-.45 0 0-.93-.87-.93-2.26 0 0 0-.891.36-1.7 0 0 .352-.8 1.012-1.422 0 0 .656-.617 1.27-.84 0 0 .597-.219 1.128-.219zm-3.032 3.43s-.09.649-.09 1.059c0 0 0 .472.168 1.02 0 0 .172.562.512.87 0 0 .25.23.61.23 0 0 .421 0 .761-.39 0 0 .34-.398.34-1.148 0 0 0-.832-.34-1.442 0 0-.34-.609-.953-.609 0 0-.18 0-.387.078 0 0-.21.082-.62.332zm0 0" style="fill:#000;fill-opacity:1;fill-rule:nonzero;stroke:none"/><path transform="matrix(1 0 0 -1 0 1008)" d="M368.059 773v-2.5" style="fill:none;stroke:#000;stroke-width:1;stroke-linecap:square;stroke-linejoin:miter;stroke-miterlimit:10;stroke-opacity:1"/><path d="M367.79 243.672s-.778-.652-1.02-1.05c0 0-.23-.392-.23-.813 0 0 0-.637.5-1.11 0 0 .5-.469 1.331-.469 0 0 .79 0 1.29.442 0 0 .487.437.487 1 0 0 0 .36-.27.75 0 0-.257.387-1.089.906 0 0 .86.672 1.121 1.043 0 0 .38.5.38 1.05 0 0 0 .7-.528 1.2 0 0-.532.5-1.39.5 0 0-.962 0-1.474-.59 0 0-.418-.48-.418-1.05 0 0 0-.43.29-.86 0 0 .3-.43 1.02-.95zm.76-.531s.579-.532.74-.84c0 0 .151-.301.151-.68 0 0 0-.512-.28-.8 0 0-.282-.29-.782-.29 0 0-.5 0-.809.278 0 0-.308.28-.308.671 0 0 0 .25.117.508 0 0 .133.262.383.492zm-.53.699s-.399.351-.598.75c0 0-.192.41-.192.879 0 0 0 .62.34 1.011 0 0 .34.38.871.38 0 0 .52 0 .84-.31 0 0 .32-.3.32-.722 0 0 0-.348-.19-.629 0 0-.34-.508-1.391-1.36zm0 0" style="fill:#000;fill-opacity:1;fill-rule:nonzero;stroke:none"/><path transform="matrix(1 0 0 -1 0 1008)" d="M423.852 773v-2.5" style="fill:none;stroke:#000;stroke-width:1;stroke-linecap:square;stroke-linejoin:miter;stroke-miterlimit:10;stroke-opacity:1"/><path d="m419.04 241.031 1.608-.8h.153v5.597s0 .563.05.692c0 0 .047.14.2.21 0 0 .14.079.597.079V247h-2.488v-.191s.469 0 .602-.07c0 0 .136-.067.187-.188 0 0 .063-.13.063-.723v-3.558s0-.739-.051-.942c0 0-.031-.156-.133-.226 0 0-.09-.07-.207-.07 0 0-.191 0-.5.14zm4.19 2.7s0-1.141.34-1.961c0 0 .34-.82.91-1.211 0 0 .43-.329.899-.329 0 0 .77 0 1.383.79 0 0 .75.96.75 2.601 0 0 0 1.16-.332 1.969 0 0-.328.8-.852 1.172 0 0-.508.36-1 .36 0 0-.93 0-1.566-1.122 0 0-.532-.941-.532-2.27zm.95.109s0 1.379.34 2.238c0 0 .28.73.832.73 0 0 .27 0 .546-.238 0 0 .282-.242.43-.789 0 0 .223-.84.223-2.37 0 0 0-1.13-.23-1.891 0 0-.173-.57-.45-.801 0 0-.21-.16-.492-.16 0 0-.328 0-.59.3 0 0-.348.41-.48 1.27 0 0-.13.871-.13 1.71zm0 0" style="fill:#000;fill-opacity:1;fill-rule:nonzero;stroke:none"/><path transform="matrix(1 0 0 -1 0 1008)" d="M172.762 773v-1.25m55.797 1.25v-1.25M284.36 773v-1.25m55.8 1.25v-1.25m55.79 1.25v-1.25" style="fill:none;stroke:#000;stroke-width:1;stroke-linecap:square;stroke-linejoin:miter;stroke-miterlimit:10;stroke-opacity:1"/><path transform="matrix(1 0 0 -1 0 1008)" d="M144.871 773v172.969" style="fill:none;stroke:#000;stroke-width:1;stroke-linecap:butt;stroke-linejoin:round;stroke-miterlimit:10;stroke-opacity:1"/><path transform="matrix(1 0 0 -1 0 1008)" d="M144.871 773h-2.5" style="fill:none;stroke:#000;stroke-width:1;stroke-linecap:square;stroke-linejoin:miter;stroke-miterlimit:10;stroke-opacity:1"/><path d="M134.23 235.73s0-1.14.34-1.96c0 0 .34-.82.91-1.211 0 0 .43-.329.899-.329 0 0 .77 0 1.383.79 0 0 .75.96.75 2.601 0 0 0 1.16-.332 1.969 0 0-.328.8-.852 1.172 0 0-.508.36-1 .36 0 0-.93 0-1.566-1.122 0 0-.532-.941-.532-2.27zm.95.11s0 1.379.34 2.238c0 0 .28.73.832.73 0 0 .27 0 .546-.238 0 0 .282-.242.43-.789 0 0 .223-.84.223-2.37 0 0 0-1.13-.23-1.891 0 0-.173-.57-.45-.801 0 0-.21-.16-.492-.16 0 0-.328 0-.59.3 0 0-.348.41-.48 1.27 0 0-.13.871-.13 1.71zm0 0" style="fill:#000;fill-opacity:1;fill-rule:nonzero;stroke:none"/><path transform="matrix(1 0 0 -1 0 1008)" d="M144.871 797.71h-2.5" style="fill:none;stroke:#000;stroke-width:1;stroke-linecap:square;stroke-linejoin:miter;stroke-miterlimit:10;stroke-opacity:1"/><path d="m132.04 208.031 1.608-.8h.153v5.597s0 .563.05.692c0 0 .047.14.2.21 0 0 .14.079.597.079V214h-2.488v-.191s.469 0 .602-.07c0 0 .136-.067.187-.188 0 0 .063-.13.063-.723v-3.558s0-.739-.051-.942c0 0-.031-.156-.133-.226 0 0-.09-.07-.207-.07 0 0-.191 0-.5.14zm4.19 2.7s0-1.141.34-1.961c0 0 .34-.82.91-1.211 0 0 .43-.329.899-.329 0 0 .77 0 1.383.79 0 0 .75.96.75 2.601 0 0 0 1.16-.332 1.969 0 0-.328.8-.852 1.172 0 0-.508.36-1 .36 0 0-.93 0-1.566-1.122 0 0-.532-.941-.532-2.27zm.95.109s0 1.379.34 2.238c0 0 .28.73.832.73 0 0 .27 0 .546-.238 0 0 .282-.242.43-.789 0 0 .223-.84.223-2.37 0 0 0-1.13-.23-1.891 0 0-.173-.57-.45-.801 0 0-.21-.16-.492-.16 0 0-.328 0-.59.3 0 0-.348.41-.48 1.27 0 0-.13.871-.13 1.71zm0 0" style="fill:#000;fill-opacity:1;fill-rule:nonzero;stroke:none"/><path transform="matrix(1 0 0 -1 0 1008)" d="M144.871 822.422h-2.5" style="fill:none;stroke:#000;stroke-width:1;stroke-linecap:square;stroke-linejoin:miter;stroke-miterlimit:10;stroke-opacity:1"/><path d="m135.441 187.719-.453 1.281h-3.91v-.191s1.723-1.559 2.434-2.559c0 0 .699-1 .699-1.828 0 0 0-.621-.383-1.031 0 0-.387-.41-.93-.41 0 0-.488 0-.878.289 0 0-.391.289-.56.84h-.19s.128-.91.628-1.391c0 0 .5-.489 1.262-.489 0 0 .8 0 1.352.532 0 0 .539.52.539 1.218 0 0 0 .5-.23 1 0 0-.38.801-1.173 1.68 0 0-1.218 1.32-1.527 1.61h1.73s.528 0 .739-.04c0 0 .21-.039.39-.171 0 0 .168-.118.29-.34zm.79-1.989s0-1.14.34-1.96c0 0 .34-.82.91-1.211 0 0 .43-.329.898-.329 0 0 .77 0 1.383.79 0 0 .75.96.75 2.601 0 0 0 1.16-.332 1.969 0 0-.328.8-.852 1.172 0 0-.508.36-1 .36 0 0-.93 0-1.566-1.122 0 0-.532-.941-.532-2.27zm.949.11s0 1.379.34 2.238c0 0 .28.73.832.73 0 0 .27 0 .546-.238 0 0 .282-.242.43-.789 0 0 .223-.84.223-2.37 0 0 0-1.13-.23-1.891 0 0-.173-.57-.45-.801 0 0-.21-.16-.492-.16 0 0-.328 0-.59.3 0 0-.348.41-.48 1.27 0 0-.13.871-.13 1.71zm0 0" style="fill:#000;fill-opacity:1;fill-rule:nonzero;stroke:none"/><path transform="matrix(1 0 0 -1 0 1008)" d="M144.871 847.129h-2.5" style="fill:none;stroke:#000;stroke-width:1;stroke-linecap:square;stroke-linejoin:miter;stroke-miterlimit:10;stroke-opacity:1"/><path d="M131.379 158.64s.281-.671.71-1.038c0 0 .43-.372 1.071-.372 0 0 .8 0 1.219.54 0 0 .332.37.332.808 0 0 0 .73-.91 1.5 0 0 .61.23.93.684 0 0 .308.437.308 1.047 0 0 0 .863-.55 1.492 0 0-.72.82-2.06.82 0 0-.667 0-.917-.172 0 0-.242-.168-.242-.36 0 0 0-.14.12-.25 0 0 .122-.109.27-.109 0 0 .13 0 .25.051 0 0 .078.02.38.168 0 0 .288.16.401.192 0 0 .18.05.387.05 0 0 .492 0 .863-.39 0 0 .38-.38.38-.91 0 0 0-.391-.173-.75 0 0-.128-.27-.277-.422 0 0-.223-.188-.582-.348 0 0-.36-.152-.75-.152h-.16v-.16s.39-.04.781-.27c0 0 .39-.23.57-.55 0 0 .168-.317.168-.708 0 0 0-.5-.32-.812 0 0-.308-.309-.777-.309 0 0-.762 0-1.262.809zm4.851 2.09s0-1.14.34-1.96c0 0 .34-.82.91-1.211 0 0 .43-.329.899-.329 0 0 .77 0 1.383.79 0 0 .75.96.75 2.601 0 0 0 1.16-.332 1.969 0 0-.328.8-.852 1.172 0 0-.508.36-1 .36 0 0-.93 0-1.566-1.122 0 0-.532-.941-.532-2.27zm.95.11s0 1.379.34 2.238c0 0 .28.73.832.73 0 0 .27 0 .546-.238 0 0 .282-.242.43-.789 0 0 .223-.84.223-2.37 0 0 0-1.13-.23-1.891 0 0-.173-.57-.45-.801 0 0-.21-.16-.492-.16 0 0-.328 0-.59.3 0 0-.348.41-.48 1.27 0 0-.13.871-.13 1.71zm0 0" style="fill:#000;fill-opacity:1;fill-rule:nonzero;stroke:none"/><path transform="matrix(1 0 0 -1 0 1008)" d="M144.871 871.84h-2.5" style="fill:none;stroke:#000;stroke-width:1;stroke-linecap:square;stroke-linejoin:miter;stroke-miterlimit:10;stroke-opacity:1"/><path d="M135.52 137.559v.691h-.891V140h-.809v-1.75h-2.8v-.629l3.082-4.39h.527v4.328zm-1.7 0v-3.29l-2.308 3.29zm2.41-.829s0-1.14.34-1.96c0 0 .34-.82.91-1.211 0 0 .43-.329.899-.329 0 0 .77 0 1.383.79 0 0 .75.96.75 2.601 0 0 0 1.16-.332 1.969 0 0-.328.8-.852 1.172 0 0-.508.36-1 .36 0 0-.93 0-1.566-1.122 0 0-.532-.941-.532-2.27zm.95.11s0 1.379.34 2.238c0 0 .28.73.832.73 0 0 .27 0 .546-.238 0 0 .282-.242.43-.789 0 0 .223-.84.223-2.37 0 0 0-1.13-.23-1.891 0 0-.173-.57-.45-.801 0 0-.21-.16-.492-.16 0 0-.328 0-.59.3 0 0-.348.41-.48 1.27 0 0-.13.871-.13 1.71zm0 0" style="fill:#000;fill-opacity:1;fill-rule:nonzero;stroke:none"/><path transform="matrix(1 0 0 -1 0 1008)" d="M144.871 896.55h-2.5" style="fill:none;stroke:#000;stroke-width:1;stroke-linecap:square;stroke-linejoin:miter;stroke-miterlimit:10;stroke-opacity:1"/><path d="m135.21 108.371-.39.828h-1.992l-.43.89s1.293.192 2.043.97c0 0 .66.66.66 1.562 0 0 0 .52-.21.969 0 0-.211.441-.532.75 0 0-.32.32-.73.5 0 0-.559.281-1.149.281 0 0-.601 0-.859-.2 0 0-.27-.202-.27-.452 0 0 0-.14.11-.239 0 0 .11-.109.277-.109 0 0 .133 0 .223.04 0 0 .09.038.328.198 0 0 .36.25.73.25 0 0 .583 0 1.012-.43 0 0 .43-.429.43-1.058 0 0 0-.59-.383-1.11 0 0-.387-.53-1.058-.812 0 0-.54-.218-1.45-.25l1.258-2.578zm1.02 3.36s0-1.141.34-1.961c0 0 .34-.82.91-1.211 0 0 .43-.329.899-.329 0 0 .77 0 1.383.79 0 0 .75.96.75 2.601 0 0 0 1.16-.332 1.969 0 0-.328.8-.852 1.172 0 0-.508.36-1 .36 0 0-.93 0-1.566-1.122 0 0-.532-.941-.532-2.27zm.95.109s0 1.379.34 2.238c0 0 .28.73.832.73 0 0 .27 0 .546-.238 0 0 .282-.242.43-.789 0 0 .223-.84.223-2.37 0 0 0-1.13-.23-1.891 0 0-.173-.57-.45-.801 0 0-.21-.16-.492-.16 0 0-.328 0-.59.3 0 0-.348.41-.48 1.27 0 0-.13.871-.13 1.71zm0 0" style="fill:#000;fill-opacity:1;fill-rule:nonzero;stroke:none"/><path transform="matrix(1 0 0 -1 0 1008)" d="M144.871 921.262h-2.5" style="fill:none;stroke:#000;stroke-width:1;stroke-linecap:square;stroke-linejoin:miter;stroke-miterlimit:10;stroke-opacity:1"/><path d="M135.352 83.23v.192s-.641.058-1.051.258c0 0-.422.191-.813.59 0 0-.386.39-.66.878 0 0-.258.493-.43 1.153 0 0 .704-.492 1.403-.492 0 0 .687 0 1.18.55 0 0 .5.551.5 1.41 0 0 0 .84-.5 1.512 0 0-.61.84-1.602.84 0 0-.688 0-1.149-.45 0 0-.93-.87-.93-2.26 0 0 0-.891.36-1.7 0 0 .352-.8 1.012-1.422 0 0 .656-.617 1.27-.84 0 0 .597-.219 1.128-.219zm-3.032 3.43s-.09.649-.09 1.059c0 0 0 .472.168 1.02 0 0 .172.562.512.87 0 0 .25.23.61.23 0 0 .421 0 .761-.39 0 0 .34-.398.34-1.148 0 0 0-.832-.34-1.442 0 0-.34-.609-.953-.609 0 0-.18 0-.387.078 0 0-.21.082-.62.332zm3.91.07s0-1.14.34-1.96c0 0 .34-.82.91-1.211 0 0 .43-.329.899-.329 0 0 .77 0 1.383.79 0 0 .75.96.75 2.601 0 0 0 1.16-.332 1.969 0 0-.328.8-.852 1.172 0 0-.508.36-1 .36 0 0-.93 0-1.566-1.122 0 0-.532-.941-.532-2.27zm.95.11s0 1.379.34 2.238c0 0 .28.73.832.73 0 0 .27 0 .546-.238 0 0 .282-.242.43-.789 0 0 .223-.84.223-2.37 0 0 0-1.13-.23-1.891 0 0-.173-.57-.45-.801 0 0-.21-.16-.492-.16 0 0-.328 0-.59.3 0 0-.348.41-.48 1.27 0 0-.13.871-.13 1.71zm0 0" style="fill:#000;fill-opacity:1;fill-rule:nonzero;stroke:none"/><path transform="matrix(1 0 0 -1 0 1008)" d="M144.871 945.969h-2.5" style="fill:none;stroke:#000;stroke-width:1;stroke-linecap:square;stroke-linejoin:miter;stroke-miterlimit:10;stroke-opacity:1"/><path d="M131.871 59.371h3.559v.188l-2.22 6.582h-.55l1.988-5.97h-1.828s-.55 0-.78.138c0 0-.411.222-.661.691l-.14-.05zm4.36 3.36s0-1.141.34-1.961c0 0 .34-.82.91-1.211 0 0 .43-.329.898-.329 0 0 .77 0 1.383.79 0 0 .75.96.75 2.601 0 0 0 1.16-.332 1.969 0 0-.328.8-.852 1.172 0 0-.508.36-1 .36 0 0-.93 0-1.566-1.122 0 0-.532-.941-.532-2.27zm.949.109s0 1.379.34 2.238c0 0 .28.73.832.73 0 0 .27 0 .546-.238 0 0 .282-.242.43-.789 0 0 .223-.84.223-2.37 0 0 0-1.13-.23-1.891 0 0-.173-.57-.45-.801 0 0-.21-.16-.492-.16 0 0-.328 0-.59.3 0 0-.348.41-.48 1.27 0 0-.13.871-.13 1.71zm0 0" style="fill:#000;fill-opacity:1;fill-rule:nonzero;stroke:none"/><path transform="matrix(1 0 0 -1 0 1008)" d="M144.871 785.36h-1.25m1.25 24.71h-1.25m1.25 24.711h-1.25m1.25 24.707h-1.25m1.25 24.712h-1.25m1.25 24.71h-1.25m1.25 24.711h-1.25" style="fill:none;stroke:#000;stroke-width:1;stroke-linecap:square;stroke-linejoin:miter;stroke-miterlimit:10;stroke-opacity:1"/></g><text xml:space="preserve" style="font-style:normal;font-weight:400;font-size:4.23333311px;line-height:1.25;font-family:sans-serif;letter-spacing:0;word-spacing:0;fill:#000;fill-opacity:1;stroke:none;stroke-width:.26458332" x="26.836" y="58.179" transform="translate(-27.183 -18.73)"><tspan x="26.836" y="58.179" style="font-size:3.52777767px;stroke-width:.26458332">Hundeår</tspan></text><text xml:space="preserve" style="font-style:normal;font-weight:400;font-size:4.23333311px;line-height:1.25;font-family:sans-serif;letter-spacing:0;word-spacing:0;fill:#000;fill-opacity:1;stroke:none;stroke-width:.26458332" x="88.068" y="93.993" transform="translate(-27.183 -18.73)"><tspan x="88.068" y="93.993" style="font-size:3.52777767px;stroke-width:.26458332">Kalenderår</tspan></text><path style="fill:none;stroke:#000;stroke-width:.5;stroke-linecap:butt;stroke-linejoin:miter;stroke-miterlimit:4;stroke-dasharray:none;stroke-opacity:1;marker-end:url(#c)" d="M48.529 84.614V19.487" transform="translate(-27.183 -18.73)"/><path style="fill:none;stroke:#000;stroke-width:.5;stroke-linecap:butt;stroke-linejoin:miter;stroke-miterlimit:4;stroke-dasharray:none;stroke-opacity:1;marker-end:url(#d)" d="M48.529 84.614H151.99" transform="translate(-27.183 -18.73)"/></svg>