<svg xmlns="http://www.w3.org/2000/svg" width="644.181" height="343.997" viewBox="0 0 170.44 91.016"><path style="fill:none;stroke:#000;stroke-width:.5;stroke-linecap:butt;stroke-linejoin:miter;stroke-miterlimit:4;stroke-dasharray:none;stroke-opacity:1" d="M7.233 5.64v33.367h51.73z" transform="translate(-6.983 -5.18)"/><path style="opacity:1;fill:none;fill-opacity:1;stroke:#000;stroke-width:.5;stroke-linecap:round;stroke-miterlimit:4;stroke-dasharray:none;stroke-dashoffset:0;stroke-opacity:1" d="M66.817 10.754h48.376v28.331H66.817z" transform="translate(-6.983 -5.18)"/><path style="fill:none;stroke:#000;stroke-width:.5;stroke-linecap:butt;stroke-linejoin:miter;stroke-miterlimit:4;stroke-dasharray:none;stroke-opacity:1" d="M140.076 6.435h37.096v28.5L147.85 47.181l-7.655-18.49zM8.48 59.196v36.75h49.323V79.748H28.064v-20.43z" transform="translate(-6.983 -5.18)"/><path style="opacity:1;fill:none;fill-opacity:1;stroke:#000;stroke-width:.5;stroke-linecap:round;stroke-miterlimit:4;stroke-dasharray:none;stroke-dashoffset:0;stroke-opacity:1" d="M7.233 35.133h3.874v3.874H7.233zm59.584.078h3.874v3.874h-3.874zm0-24.457h3.874v3.874h-3.874zm44.502 0h3.874v3.874h-3.874zm0 24.457h3.874v3.874h-3.874zm28.757-28.776h3.874v3.874h-3.874zm33.222 0h3.874v3.874h-3.874z" transform="translate(-6.983 -5.18)"/><path style="opacity:1;fill:none;fill-opacity:1;stroke:#000;stroke-width:.5;stroke-linecap:round;stroke-miterlimit:4;stroke-dasharray:none;stroke-dashoffset:0;stroke-opacity:1" transform="rotate(157.4 -2.974 -3.288)" d="M-122.231-100.37h3.874v3.874h-3.874z"/><path style="opacity:1;fill:none;fill-opacity:1;stroke:#000;stroke-width:.5;stroke-linecap:round;stroke-miterlimit:4;stroke-dasharray:none;stroke-dashoffset:0;stroke-opacity:1" d="M8.48 59.196h3.874v3.874H8.48zm15.71.121h3.874v3.874H24.19zM8.48 92.072h3.874v3.874H8.48zm45.448-12.325h3.874v3.874h-3.874zm0 12.325h3.874v3.874h-3.874z" transform="translate(-6.983 -5.18)"/><path style="fill:none;stroke:#000;stroke-width:.5;stroke-linecap:butt;stroke-linejoin:miter;stroke-miterlimit:4;stroke-dasharray:none;stroke-opacity:1" d="M88.351 67.88v-7.05H66.967v35.028h54.235V74.703H96.435z" transform="translate(-6.983 -5.18)"/><path style="opacity:1;fill:none;fill-opacity:1;stroke:#000;stroke-width:.5;stroke-linecap:round;stroke-miterlimit:4;stroke-dasharray:none;stroke-dashoffset:0;stroke-opacity:1" d="M84.477 60.829h3.874v3.874h-3.874zm-17.51 0h3.874v3.874h-3.874zm0 31.155h3.874v3.874h-3.874zm50.361 0h3.874v3.874h-3.874zm0-17.281h3.874v3.874h-3.874z" transform="translate(-6.983 -5.18)"/></svg>