<svg width="41" height="24" viewBox="0 0 41 24" fill="none" xmlns="http://www.w3.org/2000/svg">
<path d="M4.85917 20.818C4.85917 20.9567 4.4475 21.026 3.62417 21.026C2.79217 21.026 2.37617 20.961 2.37617 20.831V12.355C2.37617 12.0517 2.5365 11.9 2.85717 11.9H5.34017C7.61951 11.9 8.75917 12.7883 8.75917 14.565C8.75917 15.1023 8.65517 15.592 8.44717 16.034C8.23917 16.4673 7.94451 16.814 7.56317 17.074L9.20117 19.804C9.13184 20.012 8.90651 20.2503 8.52517 20.519C8.00517 20.8917 7.57617 21.078 7.23817 21.078C6.90017 21.078 6.64884 20.9567 6.48417 20.714L5.26217 17.867H4.85917V20.818ZM4.85917 14.201V16.151H4.92417C5.74751 16.151 6.15917 15.8087 6.15917 15.124C6.15917 14.812 6.07684 14.5823 5.91217 14.435C5.75617 14.279 5.49617 14.201 5.13217 14.201H4.85917ZM11.8381 20.233C11.3008 19.635 11.0321 18.8073 11.0321 17.75C11.0321 16.6927 11.3008 15.865 11.8381 15.267C12.3841 14.669 13.1165 14.37 14.0351 14.37C14.9538 14.37 15.6818 14.669 16.2191 15.267C16.7565 15.865 17.0251 16.6927 17.0251 17.75C17.0251 18.8073 16.7565 19.635 16.2191 20.233C15.6818 20.831 14.9538 21.13 14.0351 21.13C13.1165 21.13 12.3841 20.831 11.8381 20.233ZM14.0351 16.541C13.5498 16.541 13.3071 16.9397 13.3071 17.737C13.3071 18.5343 13.5498 18.933 14.0351 18.933C14.5291 18.933 14.7761 18.5343 14.7761 17.737C14.7761 16.9397 14.5291 16.541 14.0351 16.541ZM21.3762 17.776C21.3762 18.6253 21.6968 19.05 22.3382 19.05C22.7542 19.05 23.1008 18.9677 23.3782 18.803C23.5082 18.803 23.6122 19.0283 23.6902 19.479C23.7768 19.921 23.8202 20.2243 23.8202 20.389C23.8202 20.545 23.7985 20.649 23.7552 20.701C23.2958 20.987 22.6675 21.13 21.8702 21.13C21.0728 21.13 20.3925 20.8353 19.8292 20.246C19.2745 19.648 18.9972 18.8377 18.9972 17.815C18.9972 16.7837 19.2702 15.9517 19.8162 15.319C20.3708 14.6863 21.1032 14.37 22.0132 14.37C22.9318 14.37 23.5688 14.591 23.9242 15.033C24.0022 15.1283 24.0412 15.2713 24.0412 15.462C24.0412 15.644 24.0065 15.8693 23.9372 16.138C23.7812 16.6927 23.5775 17.0133 23.3262 17.1C23.2915 17.1087 23.2395 17.113 23.1702 17.113C23.1095 17.113 23.0315 17.061 22.9362 16.957C22.5982 16.619 22.3252 16.45 22.1172 16.45C21.9178 16.45 21.7445 16.554 21.5972 16.762C21.4498 16.97 21.3762 17.308 21.3762 17.776ZM26.0539 12.004C26.0539 11.8653 26.4483 11.796 27.2369 11.796C27.9736 11.822 28.3419 11.8783 28.3419 11.965V16.957L29.6289 14.578C29.6896 14.448 30.0579 14.383 30.7339 14.383C31.4099 14.383 31.8433 14.4263 32.0339 14.513L30.3439 17.269L32.2939 20.922C32.3113 20.9567 32.1466 20.9827 31.7999 21C31.4619 21.026 31.1803 21.039 30.9549 21.039C30.1229 21.039 29.6766 21 29.6159 20.922L28.3289 18.036V20.909C28.3289 21.0217 27.9476 21.078 27.1849 21.078C26.4309 21.078 26.0539 21.026 26.0539 20.922V12.004ZM34.2793 18.66C34.9813 19.0847 35.536 19.297 35.9433 19.297C36.2033 19.297 36.3333 19.206 36.3333 19.024C36.3333 18.894 36.108 18.725 35.6573 18.517C34.574 18.075 34.0323 17.3513 34.0323 16.346C34.0323 15.7047 34.2663 15.215 34.7343 14.877C35.2023 14.539 35.7613 14.37 36.4113 14.37C37.07 14.37 37.6246 14.4393 38.0753 14.578C38.5346 14.7167 38.7643 14.8987 38.7643 15.124C38.7643 15.3147 38.669 15.566 38.4783 15.878C38.2963 16.19 38.1706 16.359 38.1013 16.385C37.7286 16.177 37.3256 16.073 36.8923 16.073C36.6583 16.073 36.5413 16.1553 36.5413 16.32C36.5413 16.424 36.5846 16.515 36.6713 16.593C36.7666 16.6623 36.9356 16.7533 37.1783 16.866C37.421 16.97 37.6203 17.0653 37.7763 17.152C37.941 17.2387 38.123 17.36 38.3223 17.516C38.7383 17.8453 38.9463 18.2743 38.9463 18.803C38.9463 19.4963 38.7166 20.0597 38.2573 20.493C37.798 20.9177 37.1046 21.13 36.1773 21.13C35.562 21.13 35.003 21.026 34.5003 20.818C33.9976 20.61 33.7463 20.324 33.7463 19.96C33.7463 19.7173 33.8026 19.4617 33.9153 19.193C34.0366 18.9243 34.158 18.7467 34.2793 18.66Z" fill="#F7EDED"/>
<path d="M4.62812 10.818C4.62812 10.9567 4.21645 11.026 3.39312 11.026C2.56112 11.026 2.14512 10.961 2.14512 10.831V2.355C2.14512 2.05167 2.30545 1.9 2.62612 1.9H5.10912C7.38845 1.9 8.52812 2.78833 8.52812 4.565C8.52812 5.10233 8.42412 5.592 8.21612 6.034C8.00812 6.46733 7.71345 6.814 7.33212 7.074L8.97012 9.804C8.90078 10.012 8.67545 10.2503 8.29412 10.519C7.77412 10.8917 7.34512 11.078 7.00712 11.078C6.66912 11.078 6.41778 10.9567 6.25312 10.714L5.03112 7.867H4.62812V10.818ZM4.62812 4.201V6.151H4.69312C5.51645 6.151 5.92812 5.80867 5.92812 5.124C5.92812 4.812 5.84578 4.58233 5.68112 4.435C5.52512 4.279 5.26512 4.201 4.90112 4.201H4.62812ZM9.68309 4.578C9.68309 4.48267 10.0558 4.435 10.8011 4.435C11.5464 4.435 11.9191 4.48267 11.9191 4.578V8.374C11.9191 8.80733 12.0578 9.024 12.3351 9.024C12.5431 9.024 12.7771 8.933 13.0371 8.751V4.578C13.0371 4.49133 13.4054 4.448 14.1421 4.448C14.8788 4.448 15.2471 4.49133 15.2471 4.578V8.842H15.5851C15.8798 8.842 16.0271 9.12367 16.0271 9.687C16.0271 9.973 15.9664 10.2633 15.8451 10.558C15.6718 10.9393 15.4378 11.13 15.1431 11.13C14.5624 11.13 14.1334 10.8917 13.8561 10.415L13.8431 10.428C13.3144 10.896 12.7468 11.13 12.1401 11.13C11.2994 11.13 10.6798 10.922 10.2811 10.506C9.88242 10.0813 9.68309 9.38367 9.68309 8.413V4.578ZM17.0924 8.66C17.7944 9.08467 18.349 9.297 18.7564 9.297C19.0164 9.297 19.1464 9.206 19.1464 9.024C19.1464 8.894 18.921 8.725 18.4704 8.517C17.387 8.075 16.8454 7.35133 16.8454 6.346C16.8454 5.70467 17.0794 5.215 17.5474 4.877C18.0154 4.539 18.5744 4.37 19.2244 4.37C19.883 4.37 20.4377 4.43933 20.8884 4.578C21.3477 4.71667 21.5774 4.89867 21.5774 5.124C21.5774 5.31467 21.482 5.566 21.2914 5.878C21.1094 6.19 20.9837 6.359 20.9144 6.385C20.5417 6.177 20.1387 6.073 19.7054 6.073C19.4714 6.073 19.3544 6.15533 19.3544 6.32C19.3544 6.424 19.3977 6.515 19.4844 6.593C19.5797 6.66233 19.7487 6.75333 19.9914 6.866C20.234 6.97 20.4334 7.06533 20.5894 7.152C20.754 7.23867 20.936 7.36 21.1354 7.516C21.5514 7.84533 21.7594 8.27433 21.7594 8.803C21.7594 9.49633 21.5297 10.0597 21.0704 10.493C20.611 10.9177 19.9177 11.13 18.9904 11.13C18.375 11.13 17.816 11.026 17.3134 10.818C16.8107 10.61 16.5594 10.324 16.5594 9.96C16.5594 9.71733 16.6157 9.46167 16.7284 9.193C16.8497 8.92433 16.971 8.74667 17.0924 8.66ZM25.0379 10.896C25.0379 10.974 24.5959 11.013 23.7119 11.013C23.0186 11.0043 22.6719 10.9697 22.6719 10.909V2.056C22.6719 1.926 23.0922 1.861 23.9329 1.861C24.6696 1.887 25.0379 1.93033 25.0379 1.991V10.896ZM27.0329 6.281C26.7902 5.84767 26.6689 5.49667 26.6689 5.228C26.6689 4.95067 26.7426 4.773 26.8899 4.695C27.3839 4.47833 28.0599 4.37 28.9179 4.37C29.7846 4.37 30.3956 4.57367 30.7509 4.981C31.1062 5.37967 31.2839 5.97333 31.2839 6.762V8.816H31.7259C31.8732 8.816 31.9859 8.90267 32.0639 9.076C32.1506 9.24933 32.1939 9.48767 32.1939 9.791C32.1939 10.0943 32.1159 10.3933 31.9599 10.688C31.8126 10.9827 31.6089 11.13 31.3489 11.13C30.8809 11.13 30.5039 11.0043 30.2179 10.753C30.0879 10.649 29.9882 10.5233 29.9189 10.376C29.5202 10.8787 28.9006 11.13 28.0599 11.13C27.4272 11.13 26.8942 10.9047 26.4609 10.454C26.0276 10.0033 25.8109 9.47033 25.8109 8.855C25.8109 7.44233 26.6559 6.736 28.3459 6.736H29.0609V6.606C29.0609 6.38067 29.0219 6.23767 28.9439 6.177C28.8746 6.10767 28.7056 6.073 28.4369 6.073C28.1076 6.073 27.6396 6.14233 27.0329 6.281ZM28.0729 8.673C28.0729 8.86367 28.1249 9.011 28.2289 9.115C28.3329 9.21033 28.4629 9.258 28.6189 9.258C28.7836 9.258 28.9309 9.193 29.0609 9.063V8.062H28.6969C28.2809 8.062 28.0729 8.26567 28.0729 8.673ZM35.6467 10.922C35.6467 10.9827 35.3347 11.013 34.7107 11.013C33.8441 10.987 33.4107 10.9393 33.4107 10.87V6.658H33.0727C32.8474 6.658 32.7001 6.46733 32.6307 6.086C32.6134 5.97333 32.6047 5.86067 32.6047 5.748C32.6047 5.47933 32.6567 5.21067 32.7607 4.942C32.9167 4.56067 33.1594 4.37 33.4887 4.37C33.8181 4.37 34.1127 4.448 34.3727 4.604C34.6327 4.76 34.8061 4.916 34.8927 5.072C35.4387 4.604 36.0887 4.37 36.8427 4.37C37.5967 4.37 38.1427 4.57367 38.4807 4.981C38.8187 5.38833 38.9877 6.05567 38.9877 6.983V10.883C38.9877 10.987 38.6151 11.039 37.8697 11.039C37.1331 11.039 36.7647 10.987 36.7647 10.883V7.126C36.7647 6.69267 36.6131 6.476 36.3097 6.476C36.2231 6.476 36.1017 6.515 35.9457 6.593C35.7897 6.66233 35.6901 6.71433 35.6467 6.749V10.922Z" fill="#F7EDED"/>
</svg>
