<svg xmlns="http://www.w3.org/2000/svg" xmlns:xlink="http://www.w3.org/1999/xlink" width="80mm" height="347.055" viewBox="0 0 80 91.825"><defs><symbol style="overflow:visible" overflow="visible" id="a"><path style="stroke:none" d="M1.953-5.156 3.86-.97l2.672-9.203h1.375v.719h-.984L4.032.453H3.5L1.266-4.344l-.907.407-.171-.407zm0 0"/></symbol><symbol style="overflow:visible" overflow="visible" id="b"><path style="stroke:none" d="M.813-.297v-1.14h.656c.101.367.265.636.484.812.219.168.5.25.844.25.476 0 .836-.14 1.078-.422.25-.289.375-.723.375-1.297 0-.383-.07-.703-.203-.953a1.118 1.118 0 0 0-.516-.531 1.65 1.65 0 0 0-.765-.172c-.25 0-.465.016-.641.047a4.28 4.28 0 0 0-.563.14l-.437-.25v-3.546h2.984a.68.68 0 0 0 .25-.032c.063-.02.11-.05.141-.093a.951.951 0 0 0 .11-.235h.421l-.078 1.25h-3.11v2.375a2.92 2.92 0 0 1 .61-.187c.219-.04.442-.063.672-.063.426 0 .8.09 1.125.266.332.18.586.43.766.75.187.324.28.695.28 1.11 0 .491-.105.905-.312 1.25a1.994 1.994 0 0 1-.875.796c-.375.176-.824.266-1.343.266-.625 0-1.278-.13-1.954-.39zm0 0"/></symbol></defs><g transform="translate(-20.431 -22.737) scale(2.06441)"><path style="opacity:1;fill:none;fill-opacity:1;stroke:#000;stroke-width:.2;stroke-linecap:round;stroke-miterlimit:4;stroke-dasharray:none;stroke-dashoffset:0;stroke-opacity:1" d="M10.557 11.69h9.354v9.354h-9.354zm9.355 0h9.354v9.354h-9.354zm9.354 0h9.354v9.354h-9.354zm9.354 0h9.354v9.354H38.62zm-28.063 9.354h9.354v9.354h-9.354zm9.355 0h9.354v9.354h-9.354zm9.354 0h9.354v9.354h-9.354zm9.354 0h9.354v9.354H38.62zm-28.063 9.355h9.354v9.354h-9.354zm9.355 0h9.354v9.354h-9.354zm9.354 0h9.354v9.354h-9.354zm9.354 0h9.354v9.354H38.62zm-28.063 9.354h9.354v9.354h-9.354zm9.355 0h9.354v9.354h-9.354zm9.354 0h9.354v9.354h-9.354zm9.354 0h9.354v9.354H38.62z"/><circle r=".645" cy="11.69" cx="10.557" style="opacity:1;fill:#000;fill-opacity:1;stroke:#000;stroke-width:.01262701;stroke-linecap:round;stroke-miterlimit:4;stroke-dasharray:none;stroke-dashoffset:0;stroke-opacity:1"/><circle r=".645" cy="11.698" cx="19.895" style="opacity:1;fill:#000;fill-opacity:1;stroke:#000;stroke-width:.01262701;stroke-linecap:round;stroke-miterlimit:4;stroke-dasharray:none;stroke-dashoffset:0;stroke-opacity:1"/><circle r=".645" cy="11.715" cx="29.258" style="opacity:1;fill:#000;fill-opacity:1;stroke:#000;stroke-width:.01262701;stroke-linecap:round;stroke-miterlimit:4;stroke-dasharray:none;stroke-dashoffset:0;stroke-opacity:1"/><circle r=".645" cy="11.681" cx="38.604" style="opacity:1;fill:#000;fill-opacity:1;stroke:#000;stroke-width:.01262701;stroke-linecap:round;stroke-miterlimit:4;stroke-dasharray:none;stroke-dashoffset:0;stroke-opacity:1"/><circle r=".645" cy="11.665" cx="47.967" style="opacity:1;fill:#000;fill-opacity:1;stroke:#000;stroke-width:.01262701;stroke-linecap:round;stroke-miterlimit:4;stroke-dasharray:none;stroke-dashoffset:0;stroke-opacity:1"/><circle r=".645" cy="21.03" cx="10.565" style="opacity:1;fill:#000;fill-opacity:1;stroke:#000;stroke-width:.01262701;stroke-linecap:round;stroke-miterlimit:4;stroke-dasharray:none;stroke-dashoffset:0;stroke-opacity:1"/><circle r=".645" cy="21.038" cx="19.903" style="opacity:1;fill:#000;fill-opacity:1;stroke:#000;stroke-width:.01262701;stroke-linecap:round;stroke-miterlimit:4;stroke-dasharray:none;stroke-dashoffset:0;stroke-opacity:1"/><circle r=".645" cy="21.055" cx="29.265" style="opacity:1;fill:#000;fill-opacity:1;stroke:#000;stroke-width:.01262701;stroke-linecap:round;stroke-miterlimit:4;stroke-dasharray:none;stroke-dashoffset:0;stroke-opacity:1"/><circle r=".645" cy="21.022" cx="38.611" style="opacity:1;fill:#000;fill-opacity:1;stroke:#000;stroke-width:.01262701;stroke-linecap:round;stroke-miterlimit:4;stroke-dasharray:none;stroke-dashoffset:0;stroke-opacity:1"/><circle r=".645" cy="21.005" cx="47.974" style="opacity:1;fill:#000;fill-opacity:1;stroke:#000;stroke-width:.01262701;stroke-linecap:round;stroke-miterlimit:4;stroke-dasharray:none;stroke-dashoffset:0;stroke-opacity:1"/><circle r=".645" cy="30.338" cx="10.588" style="opacity:1;fill:#000;fill-opacity:1;stroke:#000;stroke-width:.01262701;stroke-linecap:round;stroke-miterlimit:4;stroke-dasharray:none;stroke-dashoffset:0;stroke-opacity:1"/><circle r=".645" cy="30.346" cx="19.926" style="opacity:1;fill:#000;fill-opacity:1;stroke:#000;stroke-width:.01262701;stroke-linecap:round;stroke-miterlimit:4;stroke-dasharray:none;stroke-dashoffset:0;stroke-opacity:1"/><circle r=".645" cy="30.363" cx="29.289" style="opacity:1;fill:#000;fill-opacity:1;stroke:#000;stroke-width:.01262701;stroke-linecap:round;stroke-miterlimit:4;stroke-dasharray:none;stroke-dashoffset:0;stroke-opacity:1"/><circle r=".645" cy="30.329" cx="38.635" style="opacity:1;fill:#000;fill-opacity:1;stroke:#000;stroke-width:.01262701;stroke-linecap:round;stroke-miterlimit:4;stroke-dasharray:none;stroke-dashoffset:0;stroke-opacity:1"/><circle r=".645" cy="30.313" cx="47.998" style="opacity:1;fill:#000;fill-opacity:1;stroke:#000;stroke-width:.01262701;stroke-linecap:round;stroke-miterlimit:4;stroke-dasharray:none;stroke-dashoffset:0;stroke-opacity:1"/><circle r=".645" cy="39.716" cx="47.984" style="opacity:1;fill:#000;fill-opacity:1;stroke:#000;stroke-width:.01262701;stroke-linecap:round;stroke-miterlimit:4;stroke-dasharray:none;stroke-dashoffset:0;stroke-opacity:1"/><circle r=".645" cy="39.725" cx="10.548" style="opacity:1;fill:#000;fill-opacity:1;stroke:#000;stroke-width:.01262701;stroke-linecap:round;stroke-miterlimit:4;stroke-dasharray:none;stroke-dashoffset:0;stroke-opacity:1"/><circle r=".645" cy="39.741" cx="19.91" style="opacity:1;fill:#000;fill-opacity:1;stroke:#000;stroke-width:.01262701;stroke-linecap:round;stroke-miterlimit:4;stroke-dasharray:none;stroke-dashoffset:0;stroke-opacity:1"/><circle r=".645" cy="39.708" cx="29.257" style="opacity:1;fill:#000;fill-opacity:1;stroke:#000;stroke-width:.01262701;stroke-linecap:round;stroke-miterlimit:4;stroke-dasharray:none;stroke-dashoffset:0;stroke-opacity:1"/><circle r=".645" cy="39.691" cx="38.619" style="opacity:1;fill:#000;fill-opacity:1;stroke:#000;stroke-width:.01262701;stroke-linecap:round;stroke-miterlimit:4;stroke-dasharray:none;stroke-dashoffset:0;stroke-opacity:1"/><circle r=".645" cy="49.048" cx="47.984" style="opacity:1;fill:#000;fill-opacity:1;stroke:#000;stroke-width:.01262701;stroke-linecap:round;stroke-miterlimit:4;stroke-dasharray:none;stroke-dashoffset:0;stroke-opacity:1"/><circle r=".645" cy="49.056" cx="10.548" style="opacity:1;fill:#000;fill-opacity:1;stroke:#000;stroke-width:.01262701;stroke-linecap:round;stroke-miterlimit:4;stroke-dasharray:none;stroke-dashoffset:0;stroke-opacity:1"/><circle r=".645" cy="49.073" cx="19.91" style="opacity:1;fill:#000;fill-opacity:1;stroke:#000;stroke-width:.01262701;stroke-linecap:round;stroke-miterlimit:4;stroke-dasharray:none;stroke-dashoffset:0;stroke-opacity:1"/><circle r=".645" cy="49.039" cx="29.257" style="opacity:1;fill:#000;fill-opacity:1;stroke:#000;stroke-width:.01262701;stroke-linecap:round;stroke-miterlimit:4;stroke-dasharray:none;stroke-dashoffset:0;stroke-opacity:1"/><circle r=".645" cy="49.023" cx="38.619" style="opacity:1;fill:#000;fill-opacity:1;stroke:#000;stroke-width:.01262701;stroke-linecap:round;stroke-miterlimit:4;stroke-dasharray:none;stroke-dashoffset:0;stroke-opacity:1"/><text y="55.444" x="10.086" style="font-style:normal;font-weight:400;font-size:4.23333311px;line-height:1.25;font-family:sans-serif;letter-spacing:0;word-spacing:0;fill:#000;fill-opacity:1;stroke:none;stroke-width:.26458332" xml:space="preserve"><tspan style="font-size:3.52777767px;stroke-width:.26458332" y="55.444" x="10.086">Areal: 5</tspan></text><path d="m10.557 21.044 18.709-9.354 9.354 18.709-18.708 9.354-9.355-18.709" style="fill:none;stroke:red;stroke-width:.40000001;stroke-linecap:butt;stroke-linejoin:miter;stroke-miterlimit:4;stroke-dasharray:none;stroke-opacity:1"/></g><path d="M5.209 21.574h38.636v-19.3" style="fill:none;stroke:#009600;stroke-width:.80000001;stroke-linecap:butt;stroke-linejoin:miter;stroke-miterlimit:4;stroke-dasharray:none;stroke-dashoffset:0;stroke-opacity:1" transform="translate(-3.845 -.867)"/><use height="100%" width="100%" xlink:href="#a" x="291.05" y="84.6" style="fill:#000;fill-opacity:1" transform="matrix(.686 0 0 .686 -189.928 -46.966)"/><use height="100%" width="100%" xlink:href="#b" x="298.25" y="84.6" style="fill:#000;fill-opacity:1" transform="matrix(.686 0 0 .686 -189.928 -46.966)"/><path style="fill:#000;fill-opacity:1;fill-rule:evenodd;stroke:none" d="M298.25 75.121h6.121v-.723h-6.121zm0 0" transform="matrix(.686 0 0 .686 -189.928 -46.966)"/><use height="100%" width="100%" xlink:href="#c" x="304.37" y="84.6" style="fill:#000;fill-opacity:1" transform="matrix(.686 0 0 .686 -189.928 -46.966)"/><use height="100%" width="100%" xlink:href="#c" x="72.024" y="106.34" style="fill:#000;fill-opacity:1" transform="matrix(.686 0 0 .686 -189.928 -46.966)"/><use height="100%" width="100%" xlink:href="#c" x="216.05" y="106.34" style="fill:#000;fill-opacity:1" transform="matrix(.686 0 0 .686 -189.928 -46.966)"/><text y="15.124" x="39.31" style="font-style:normal;font-weight:400;font-size:4.23333311px;line-height:1.25;font-family:sans-serif;letter-spacing:0;word-spacing:0;fill:#000;fill-opacity:1;stroke:none;stroke-width:.26458332" xml:space="preserve" transform="translate(-3.845 -.867)"><tspan style="font-style:normal;font-variant:normal;font-weight:400;font-stretch:normal;font-size:7.76111126px;font-family:Cambria;-inkscape-font-specification:Cambria;stroke-width:.26458332" y="15.124" x="39.31">1</tspan></text><text y="28.132" x="27.696" style="font-style:normal;font-weight:400;font-size:4.23333311px;line-height:1.25;font-family:sans-serif;letter-spacing:0;word-spacing:0;fill:#000;fill-opacity:1;stroke:none;stroke-width:.26458332" xml:space="preserve" transform="translate(-3.845 -.867)"><tspan style="font-style:normal;font-variant:normal;font-weight:400;font-stretch:normal;font-size:7.76111126px;font-family:Cambria;-inkscape-font-specification:Cambria;stroke-width:.26458332" y="28.132" x="27.696">2</tspan></text></svg>