<svg xmlns="http://www.w3.org/2000/svg" width="197.587" height="222.857" viewBox="0 0 52.278 58.964"><defs><marker orient="auto" refY="0" refX="0" id="a" style="overflow:visible"><path style="fill:#000;fill-opacity:1;fill-rule:evenodd;stroke:#000;stroke-width:.625;stroke-linejoin:round;stroke-opacity:1" d="M8.719 4.034-2.207.016 8.719-4.002c-1.746 2.372-1.736 5.618 0 8.036z" transform="scale(-.6)"/></marker><marker orient="auto" refY="0" refX="0" id="b" style="overflow:visible"><path style="fill:#000;fill-opacity:1;fill-rule:evenodd;stroke:#000;stroke-width:.625;stroke-linejoin:round;stroke-opacity:1" d="M8.719 4.034-2.207.016 8.719-4.002c-1.746 2.372-1.736 5.618 0 8.036z" transform="scale(-.6)"/></marker><marker orient="auto" refY="0" refX="0" id="c" style="overflow:visible"><path style="fill:#000;fill-opacity:1;fill-rule:evenodd;stroke:#000;stroke-width:.625;stroke-linejoin:round;stroke-opacity:1" d="M8.719 4.034-2.207.016 8.719-4.002c-1.746 2.372-1.736 5.618 0 8.036z" transform="scale(-.6)"/></marker><marker orient="auto" refY="0" refX="0" id="d" style="overflow:visible"><path style="fill:#000;fill-opacity:1;fill-rule:evenodd;stroke:#000;stroke-width:.625;stroke-linejoin:round;stroke-opacity:1" d="M8.719 4.034-2.207.016 8.719-4.002c-1.746 2.372-1.736 5.618 0 8.036z" transform="scale(-.6)"/></marker><marker orient="auto" refY="0" refX="0" id="h" style="overflow:visible"><path style="fill:#000;fill-opacity:1;fill-rule:evenodd;stroke:#000;stroke-width:.625;stroke-linejoin:round;stroke-opacity:1" d="M8.719 4.034-2.207.016 8.719-4.002c-1.746 2.372-1.736 5.618 0 8.036z" transform="scale(-.6)"/></marker><marker orient="auto" refY="0" refX="0" id="g" style="overflow:visible"><path style="fill:#000;fill-opacity:1;fill-rule:evenodd;stroke:#000;stroke-width:.625;stroke-linejoin:round;stroke-opacity:1" d="M8.719 4.034-2.207.016 8.719-4.002c-1.746 2.372-1.736 5.618 0 8.036z" transform="scale(-.6)"/></marker><marker orient="auto" refY="0" refX="0" id="f" style="overflow:visible"><path style="fill:#000;fill-opacity:1;fill-rule:evenodd;stroke:#000;stroke-width:.625;stroke-linejoin:round;stroke-opacity:1" d="M8.719 4.034-2.207.016 8.719-4.002c-1.746 2.372-1.736 5.618 0 8.036z" transform="scale(-.6)"/></marker><marker orient="auto" refY="0" refX="0" id="e" style="overflow:visible"><path style="fill:#000;fill-opacity:1;fill-rule:evenodd;stroke:#000;stroke-width:.625;stroke-linejoin:round;stroke-opacity:1" d="M8.719 4.034-2.207.016 8.719-4.002c-1.746 2.372-1.736 5.618 0 8.036z" transform="scale(-.6)"/></marker></defs><path style="opacity:1;fill:#d70000;fill-opacity:1;stroke:#000;stroke-width:.5;stroke-linecap:round;stroke-miterlimit:4;stroke-dasharray:none;stroke-dashoffset:0;stroke-opacity:1" d="M25.859 15.919h12.096v12.096H25.859z" transform="translate(-23.872 -10.703)"/><path style="opacity:1;fill:#2b86f9;fill-opacity:1;stroke:#000;stroke-width:.5;stroke-linecap:round;stroke-miterlimit:4;stroke-dasharray:none;stroke-dashoffset:0;stroke-opacity:1" d="M37.955 15.919h12.096v12.096H37.955zM25.859 28.015h12.096v12.096H25.859z" transform="translate(-23.872 -10.703)"/><path style="opacity:1;fill:#0d8512;fill-opacity:1;stroke:#000;stroke-width:.5;stroke-linecap:round;stroke-miterlimit:4;stroke-dasharray:none;stroke-dashoffset:0;stroke-opacity:1" d="M37.955 28.015h12.096v12.096H37.955z" transform="translate(-23.872 -10.703)"/><path style="opacity:1;fill:#2b86f9;fill-opacity:1;stroke:#000;stroke-width:.5;stroke-linecap:round;stroke-miterlimit:4;stroke-dasharray:none;stroke-dashoffset:0;stroke-opacity:1" d="M50.052 15.919h12.096v12.096H50.052z" transform="translate(-23.872 -10.703)"/><path style="opacity:1;fill:#d70000;fill-opacity:1;stroke:#000;stroke-width:.5;stroke-linecap:round;stroke-miterlimit:4;stroke-dasharray:none;stroke-dashoffset:0;stroke-opacity:1" d="M62.148 15.919h12.096v12.096H62.148z" transform="translate(-23.872 -10.703)"/><path style="opacity:1;fill:#0d8512;fill-opacity:1;stroke:#000;stroke-width:.5;stroke-linecap:round;stroke-miterlimit:4;stroke-dasharray:none;stroke-dashoffset:0;stroke-opacity:1" d="M50.052 28.015h12.096v12.096H50.052z" transform="translate(-23.872 -10.703)"/><path style="opacity:1;fill:#2b86f9;fill-opacity:1;stroke:#000;stroke-width:.5;stroke-linecap:round;stroke-miterlimit:4;stroke-dasharray:none;stroke-dashoffset:0;stroke-opacity:1" d="M62.148 28.015h12.096v12.096H62.148z" transform="translate(-23.872 -10.703)"/><path style="opacity:1;fill:#0d8512;fill-opacity:1;stroke:#000;stroke-width:.5;stroke-linecap:round;stroke-miterlimit:4;stroke-dasharray:none;stroke-dashoffset:0;stroke-opacity:1" d="M25.859 40.111h12.096v12.096H25.859z" transform="translate(-23.872 -10.703)"/><path style="opacity:1;fill:#2b86f9;fill-opacity:1;stroke:#000;stroke-width:.5;stroke-linecap:round;stroke-miterlimit:4;stroke-dasharray:none;stroke-dashoffset:0;stroke-opacity:1" d="M37.955 40.111h12.096v12.096H37.955z" transform="translate(-23.872 -10.703)"/><path style="opacity:1;fill:#d70000;fill-opacity:1;stroke:#000;stroke-width:.5;stroke-linecap:round;stroke-miterlimit:4;stroke-dasharray:none;stroke-dashoffset:0;stroke-opacity:1" d="M25.859 52.208h12.096v12.096H25.859z" transform="translate(-23.872 -10.703)"/><path style="opacity:1;fill:#0d8512;fill-opacity:1;stroke:#000;stroke-width:.5;stroke-linecap:round;stroke-miterlimit:4;stroke-dasharray:none;stroke-dashoffset:0;stroke-opacity:1" d="M37.955 52.208h12.096v12.096H37.955z" transform="translate(-23.872 -10.703)"/><path style="opacity:1;fill:#2b86f9;fill-opacity:1;stroke:#000;stroke-width:.5;stroke-linecap:round;stroke-miterlimit:4;stroke-dasharray:none;stroke-dashoffset:0;stroke-opacity:1" d="M50.052 40.111h12.096v12.096H50.052z" transform="translate(-23.872 -10.703)"/><path style="opacity:1;fill:#0d8512;fill-opacity:1;stroke:#000;stroke-width:.5;stroke-linecap:round;stroke-miterlimit:4;stroke-dasharray:none;stroke-dashoffset:0;stroke-opacity:1" d="M62.148 40.111h12.096v12.096H62.148zM50.052 52.208h12.096v12.096H50.052z" transform="translate(-23.872 -10.703)"/><path style="opacity:1;fill:#d70000;fill-opacity:1;stroke:#000;stroke-width:.5;stroke-linecap:round;stroke-miterlimit:4;stroke-dasharray:none;stroke-dashoffset:0;stroke-opacity:1" d="M62.148 52.208h12.096v12.096H62.148z" transform="translate(-23.872 -10.703)"/><path style="opacity:1;fill:none;fill-opacity:1;stroke:#000;stroke-width:.5;stroke-linecap:round;stroke-miterlimit:4;stroke-dasharray:none;stroke-dashoffset:0;stroke-opacity:1" d="M24.122 14.048H75.9v51.778H24.122z" transform="translate(-23.872 -10.703)"/><path style="fill:#000;fill-opacity:1;stroke:#000;stroke-width:.5;stroke-linecap:butt;stroke-linejoin:miter;stroke-miterlimit:4;stroke-dasharray:2,1;stroke-dashoffset:0;stroke-opacity:1;marker-end:url(#a)" d="M43.905 23.554h12.19" transform="translate(-23.872 -10.703)"/><path style="fill:#000;fill-opacity:1;stroke:#000;stroke-width:.5;stroke-linecap:butt;stroke-linejoin:miter;stroke-miterlimit:4;stroke-dasharray:2.00000002,1.00000001;stroke-dashoffset:0;stroke-opacity:1;marker-end:url(#b)" d="M43.574 35.125h12.19" transform="translate(-23.872 -10.703)"/><path style="fill:#000;fill-opacity:1;stroke:#000;stroke-width:.5;stroke-linecap:butt;stroke-linejoin:miter;stroke-miterlimit:4;stroke-dasharray:2.00000002,1.00000001;stroke-dashoffset:0;stroke-opacity:1;marker-end:url(#c)" d="M43.928 47.085h12.19" transform="translate(-23.872 -10.703)"/><path style="fill:#000;fill-opacity:1;stroke:#000;stroke-width:.5;stroke-linecap:butt;stroke-linejoin:miter;stroke-miterlimit:4;stroke-dasharray:2.00000004,1.00000002;stroke-dashoffset:0;stroke-opacity:1;marker-end:url(#d)" d="M43.598 60.244h12.19" transform="translate(-23.872 -10.703)"/><path style="fill:#000;fill-opacity:1;stroke:#000;stroke-width:.5;stroke-linecap:butt;stroke-linejoin:miter;stroke-miterlimit:4;stroke-dasharray:2,1;stroke-dashoffset:0;stroke-opacity:1;marker-end:url(#e)" d="M31.252 43.735h37.542" transform="translate(-23.872 -10.703)"/><path style="fill:#000;fill-opacity:1;stroke:#000;stroke-width:.5;stroke-linecap:butt;stroke-linejoin:miter;stroke-miterlimit:4;stroke-dasharray:2,1;stroke-dashoffset:0;stroke-opacity:1;marker-end:url(#f)" d="M31.247 19.875H68.79" transform="translate(-23.872 -10.703)"/><path style="fill:#000;fill-opacity:1;stroke:#000;stroke-width:.5;stroke-linecap:butt;stroke-linejoin:miter;stroke-miterlimit:4;stroke-dasharray:2,1;stroke-dashoffset:0;stroke-opacity:1;marker-end:url(#g)" d="M31.122 30.956h37.542" transform="translate(-23.872 -10.703)"/><path style="fill:#000;fill-opacity:1;stroke:#000;stroke-width:.5;stroke-linecap:butt;stroke-linejoin:miter;stroke-miterlimit:4;stroke-dasharray:2,1;stroke-dashoffset:0;stroke-opacity:1;marker-end:url(#h)" d="M31.117 57.273H68.66" transform="translate(-23.872 -10.703)"/><path style="fill:none;stroke:#999;stroke-width:.50000001;stroke-linecap:butt;stroke-linejoin:miter;stroke-miterlimit:4;stroke-dasharray:none;stroke-dashoffset:0;stroke-opacity:1" d="M50.047 10.703v58.964" transform="translate(-23.872 -10.703)"/></svg>