<svg xmlns="http://www.w3.org/2000/svg" width="80mm" height="302.033" viewBox="0 0 80 79.913"><g transform="translate(-20.431 -22.737) scale(2.06441)"><path style="opacity:1;fill:none;fill-opacity:1;stroke:#000;stroke-width:.2;stroke-linecap:round;stroke-miterlimit:4;stroke-dasharray:none;stroke-dashoffset:0;stroke-opacity:1" d="M10.557 11.69h9.354v9.354h-9.354zm9.355 0h9.354v9.354h-9.354zm9.354 0h9.354v9.354h-9.354zm9.354 0h9.354v9.354H38.62zm-28.063 9.354h9.354v9.354h-9.354zm9.355 0h9.354v9.354h-9.354zm9.354 0h9.354v9.354h-9.354zm9.354 0h9.354v9.354H38.62zm-28.063 9.355h9.354v9.354h-9.354zm9.355 0h9.354v9.354h-9.354zm9.354 0h9.354v9.354h-9.354zm9.354 0h9.354v9.354H38.62zm-28.063 9.354h9.354v9.354h-9.354zm9.355 0h9.354v9.354h-9.354zm9.354 0h9.354v9.354h-9.354zm9.354 0h9.354v9.354H38.62z"/><circle style="opacity:1;fill:#000;fill-opacity:1;stroke:#000;stroke-width:.01262701;stroke-linecap:round;stroke-miterlimit:4;stroke-dasharray:none;stroke-dashoffset:0;stroke-opacity:1" cx="10.557" cy="11.69" r=".645"/><circle style="opacity:1;fill:#000;fill-opacity:1;stroke:#000;stroke-width:.01262701;stroke-linecap:round;stroke-miterlimit:4;stroke-dasharray:none;stroke-dashoffset:0;stroke-opacity:1" cx="19.895" cy="11.698" r=".645"/><circle style="opacity:1;fill:#000;fill-opacity:1;stroke:#000;stroke-width:.01262701;stroke-linecap:round;stroke-miterlimit:4;stroke-dasharray:none;stroke-dashoffset:0;stroke-opacity:1" cx="29.258" cy="11.715" r=".645"/><circle style="opacity:1;fill:#000;fill-opacity:1;stroke:#000;stroke-width:.01262701;stroke-linecap:round;stroke-miterlimit:4;stroke-dasharray:none;stroke-dashoffset:0;stroke-opacity:1" cx="38.604" cy="11.681" r=".645"/><circle style="opacity:1;fill:#000;fill-opacity:1;stroke:#000;stroke-width:.01262701;stroke-linecap:round;stroke-miterlimit:4;stroke-dasharray:none;stroke-dashoffset:0;stroke-opacity:1" cx="47.967" cy="11.665" r=".645"/><circle style="opacity:1;fill:#000;fill-opacity:1;stroke:#000;stroke-width:.01262701;stroke-linecap:round;stroke-miterlimit:4;stroke-dasharray:none;stroke-dashoffset:0;stroke-opacity:1" cx="10.565" cy="21.03" r=".645"/><circle style="opacity:1;fill:#000;fill-opacity:1;stroke:#000;stroke-width:.01262701;stroke-linecap:round;stroke-miterlimit:4;stroke-dasharray:none;stroke-dashoffset:0;stroke-opacity:1" cx="19.903" cy="21.038" r=".645"/><circle style="opacity:1;fill:#000;fill-opacity:1;stroke:#000;stroke-width:.01262701;stroke-linecap:round;stroke-miterlimit:4;stroke-dasharray:none;stroke-dashoffset:0;stroke-opacity:1" cx="29.265" cy="21.055" r=".645"/><circle style="opacity:1;fill:#000;fill-opacity:1;stroke:#000;stroke-width:.01262701;stroke-linecap:round;stroke-miterlimit:4;stroke-dasharray:none;stroke-dashoffset:0;stroke-opacity:1" cx="38.611" cy="21.022" r=".645"/><circle style="opacity:1;fill:#000;fill-opacity:1;stroke:#000;stroke-width:.01262701;stroke-linecap:round;stroke-miterlimit:4;stroke-dasharray:none;stroke-dashoffset:0;stroke-opacity:1" cx="47.974" cy="21.005" r=".645"/><circle style="opacity:1;fill:#000;fill-opacity:1;stroke:#000;stroke-width:.01262701;stroke-linecap:round;stroke-miterlimit:4;stroke-dasharray:none;stroke-dashoffset:0;stroke-opacity:1" cx="10.588" cy="30.338" r=".645"/><circle style="opacity:1;fill:#000;fill-opacity:1;stroke:#000;stroke-width:.01262701;stroke-linecap:round;stroke-miterlimit:4;stroke-dasharray:none;stroke-dashoffset:0;stroke-opacity:1" cx="19.926" cy="30.346" r=".645"/><circle style="opacity:1;fill:#000;fill-opacity:1;stroke:#000;stroke-width:.01262701;stroke-linecap:round;stroke-miterlimit:4;stroke-dasharray:none;stroke-dashoffset:0;stroke-opacity:1" cx="29.289" cy="30.363" r=".645"/><circle style="opacity:1;fill:#000;fill-opacity:1;stroke:#000;stroke-width:.01262701;stroke-linecap:round;stroke-miterlimit:4;stroke-dasharray:none;stroke-dashoffset:0;stroke-opacity:1" cx="38.635" cy="30.329" r=".645"/><circle style="opacity:1;fill:#000;fill-opacity:1;stroke:#000;stroke-width:.01262701;stroke-linecap:round;stroke-miterlimit:4;stroke-dasharray:none;stroke-dashoffset:0;stroke-opacity:1" cx="47.998" cy="30.313" r=".645"/><circle style="opacity:1;fill:#000;fill-opacity:1;stroke:#000;stroke-width:.01262701;stroke-linecap:round;stroke-miterlimit:4;stroke-dasharray:none;stroke-dashoffset:0;stroke-opacity:1" cx="47.984" cy="39.716" r=".645"/><circle style="opacity:1;fill:#000;fill-opacity:1;stroke:#000;stroke-width:.01262701;stroke-linecap:round;stroke-miterlimit:4;stroke-dasharray:none;stroke-dashoffset:0;stroke-opacity:1" cx="10.548" cy="39.725" r=".645"/><circle style="opacity:1;fill:#000;fill-opacity:1;stroke:#000;stroke-width:.01262701;stroke-linecap:round;stroke-miterlimit:4;stroke-dasharray:none;stroke-dashoffset:0;stroke-opacity:1" cx="19.91" cy="39.741" r=".645"/><circle style="opacity:1;fill:#000;fill-opacity:1;stroke:#000;stroke-width:.01262701;stroke-linecap:round;stroke-miterlimit:4;stroke-dasharray:none;stroke-dashoffset:0;stroke-opacity:1" cx="29.257" cy="39.708" r=".645"/><circle style="opacity:1;fill:#000;fill-opacity:1;stroke:#000;stroke-width:.01262701;stroke-linecap:round;stroke-miterlimit:4;stroke-dasharray:none;stroke-dashoffset:0;stroke-opacity:1" cx="38.619" cy="39.691" r=".645"/><circle style="opacity:1;fill:#000;fill-opacity:1;stroke:#000;stroke-width:.01262701;stroke-linecap:round;stroke-miterlimit:4;stroke-dasharray:none;stroke-dashoffset:0;stroke-opacity:1" cx="47.984" cy="49.048" r=".645"/><circle style="opacity:1;fill:#000;fill-opacity:1;stroke:#000;stroke-width:.01262701;stroke-linecap:round;stroke-miterlimit:4;stroke-dasharray:none;stroke-dashoffset:0;stroke-opacity:1" cx="10.548" cy="49.056" r=".645"/><circle style="opacity:1;fill:#000;fill-opacity:1;stroke:#000;stroke-width:.01262701;stroke-linecap:round;stroke-miterlimit:4;stroke-dasharray:none;stroke-dashoffset:0;stroke-opacity:1" cx="19.91" cy="49.073" r=".645"/><circle style="opacity:1;fill:#000;fill-opacity:1;stroke:#000;stroke-width:.01262701;stroke-linecap:round;stroke-miterlimit:4;stroke-dasharray:none;stroke-dashoffset:0;stroke-opacity:1" cx="29.257" cy="49.039" r=".645"/><circle style="opacity:1;fill:#000;fill-opacity:1;stroke:#000;stroke-width:.01262701;stroke-linecap:round;stroke-miterlimit:4;stroke-dasharray:none;stroke-dashoffset:0;stroke-opacity:1" cx="38.619" cy="49.023" r=".645"/><path style="fill:none;stroke:red;stroke-width:.40000001;stroke-linecap:butt;stroke-linejoin:miter;stroke-miterlimit:4;stroke-dasharray:none;stroke-opacity:1" d="m19.912 30.399 9.354-9.355L38.62 30.4l-9.354 9.354z"/></g></svg>