<svg xmlns="http://www.w3.org/2000/svg" xmlns:xlink="http://www.w3.org/1999/xlink" width="80mm" height="347.055" viewBox="0 0 80 91.825"><defs><symbol id="a" overflow="visible" style="overflow:visible"><path d="M1.953-5.156 3.86-.97l2.672-9.203h1.375v.719h-.984L4.032.453H3.5L1.266-4.344l-.907.407-.171-.407zm0 0" style="stroke:none"/></symbol><symbol id="b" overflow="visible" style="overflow:visible"><path d="m4.266-3.89.015.078c.407.156.711.386.922.687.207.305.313.668.313 1.094 0 .43-.106.804-.313 1.125a2 2 0 0 1-.875.734C3.953.004 3.508.094 3 .094c-.48 0-.902-.078-1.266-.235a2.018 2.018 0 0 1-.843-.703 1.986 1.986 0 0 1-.297-1.094c0-.312.05-.582.156-.812.113-.227.258-.414.438-.563.175-.156.394-.296.656-.421l-.016-.063C1.055-4.129.672-4.707.672-5.53c0-.364.098-.692.297-.985a2.1 2.1 0 0 1 .875-.687c.375-.164.789-.25 1.25-.25.52 0 .957.074 1.312.219.352.148.617.359.797.64.176.274.266.602.266.985a1.8 1.8 0 0 1-.297 1.03c-.2.282-.5.513-.906.688zM1.687-5.579c0 .219.024.422.079.61.05.187.129.35.234.484.113.136.258.246.438.328.175.074.394.11.656.11.3 0 .55-.056.75-.173a1.01 1.01 0 0 0 .453-.5c.101-.226.156-.488.156-.781 0-.332-.062-.61-.187-.828a1.113 1.113 0 0 0-.485-.5 1.53 1.53 0 0 0-.703-.156c-.45 0-.793.125-1.031.375-.242.242-.36.586-.36 1.03zm-.062 3.547c0 .23.023.449.078.656.063.2.149.375.266.531.113.149.258.262.437.344a1.6 1.6 0 0 0 .672.125c.3 0 .555-.055.766-.172a1.16 1.16 0 0 0 .469-.547 1.95 1.95 0 0 0 .171-.843c0-.344-.062-.641-.187-.891a1.217 1.217 0 0 0-.5-.563 1.345 1.345 0 0 0-.735-.203 1.7 1.7 0 0 0-.687.125 1.2 1.2 0 0 0-.438.344 1.365 1.365 0 0 0-.234.484 2.17 2.17 0 0 0-.078.61zm0 0" style="stroke:none"/></symbol></defs><g transform="translate(-20.431 -22.737) scale(2.06441)"><path style="opacity:1;fill:none;fill-opacity:1;stroke:#000;stroke-width:.2;stroke-linecap:round;stroke-miterlimit:4;stroke-dasharray:none;stroke-dashoffset:0;stroke-opacity:1" d="M10.557 11.69h9.354v9.354h-9.354zm9.355 0h9.354v9.354h-9.354zm9.354 0h9.354v9.354h-9.354zm9.354 0h9.354v9.354H38.62zm-28.063 9.354h9.354v9.354h-9.354zm9.355 0h9.354v9.354h-9.354zm9.354 0h9.354v9.354h-9.354zm9.354 0h9.354v9.354H38.62zm-28.063 9.355h9.354v9.354h-9.354zm9.355 0h9.354v9.354h-9.354zm9.354 0h9.354v9.354h-9.354zm9.354 0h9.354v9.354H38.62zm-28.063 9.354h9.354v9.354h-9.354zm9.355 0h9.354v9.354h-9.354zm9.354 0h9.354v9.354h-9.354zm9.354 0h9.354v9.354H38.62z"/><circle style="opacity:1;fill:#000;fill-opacity:1;stroke:#000;stroke-width:.01262701;stroke-linecap:round;stroke-miterlimit:4;stroke-dasharray:none;stroke-dashoffset:0;stroke-opacity:1" cx="10.557" cy="11.69" r=".645"/><circle style="opacity:1;fill:#000;fill-opacity:1;stroke:#000;stroke-width:.01262701;stroke-linecap:round;stroke-miterlimit:4;stroke-dasharray:none;stroke-dashoffset:0;stroke-opacity:1" cx="19.895" cy="11.698" r=".645"/><circle style="opacity:1;fill:#000;fill-opacity:1;stroke:#000;stroke-width:.01262701;stroke-linecap:round;stroke-miterlimit:4;stroke-dasharray:none;stroke-dashoffset:0;stroke-opacity:1" cx="29.258" cy="11.715" r=".645"/><circle style="opacity:1;fill:#000;fill-opacity:1;stroke:#000;stroke-width:.01262701;stroke-linecap:round;stroke-miterlimit:4;stroke-dasharray:none;stroke-dashoffset:0;stroke-opacity:1" cx="38.604" cy="11.681" r=".645"/><circle style="opacity:1;fill:#000;fill-opacity:1;stroke:#000;stroke-width:.01262701;stroke-linecap:round;stroke-miterlimit:4;stroke-dasharray:none;stroke-dashoffset:0;stroke-opacity:1" cx="47.967" cy="11.665" r=".645"/><circle style="opacity:1;fill:#000;fill-opacity:1;stroke:#000;stroke-width:.01262701;stroke-linecap:round;stroke-miterlimit:4;stroke-dasharray:none;stroke-dashoffset:0;stroke-opacity:1" cx="10.565" cy="21.03" r=".645"/><circle style="opacity:1;fill:#000;fill-opacity:1;stroke:#000;stroke-width:.01262701;stroke-linecap:round;stroke-miterlimit:4;stroke-dasharray:none;stroke-dashoffset:0;stroke-opacity:1" cx="19.903" cy="21.038" r=".645"/><circle style="opacity:1;fill:#000;fill-opacity:1;stroke:#000;stroke-width:.01262701;stroke-linecap:round;stroke-miterlimit:4;stroke-dasharray:none;stroke-dashoffset:0;stroke-opacity:1" cx="29.265" cy="21.055" r=".645"/><circle style="opacity:1;fill:#000;fill-opacity:1;stroke:#000;stroke-width:.01262701;stroke-linecap:round;stroke-miterlimit:4;stroke-dasharray:none;stroke-dashoffset:0;stroke-opacity:1" cx="38.611" cy="21.022" r=".645"/><circle style="opacity:1;fill:#000;fill-opacity:1;stroke:#000;stroke-width:.01262701;stroke-linecap:round;stroke-miterlimit:4;stroke-dasharray:none;stroke-dashoffset:0;stroke-opacity:1" cx="47.974" cy="21.005" r=".645"/><circle style="opacity:1;fill:#000;fill-opacity:1;stroke:#000;stroke-width:.01262701;stroke-linecap:round;stroke-miterlimit:4;stroke-dasharray:none;stroke-dashoffset:0;stroke-opacity:1" cx="10.588" cy="30.338" r=".645"/><circle style="opacity:1;fill:#000;fill-opacity:1;stroke:#000;stroke-width:.01262701;stroke-linecap:round;stroke-miterlimit:4;stroke-dasharray:none;stroke-dashoffset:0;stroke-opacity:1" cx="19.926" cy="30.346" r=".645"/><circle style="opacity:1;fill:#000;fill-opacity:1;stroke:#000;stroke-width:.01262701;stroke-linecap:round;stroke-miterlimit:4;stroke-dasharray:none;stroke-dashoffset:0;stroke-opacity:1" cx="29.289" cy="30.363" r=".645"/><circle style="opacity:1;fill:#000;fill-opacity:1;stroke:#000;stroke-width:.01262701;stroke-linecap:round;stroke-miterlimit:4;stroke-dasharray:none;stroke-dashoffset:0;stroke-opacity:1" cx="38.635" cy="30.329" r=".645"/><circle style="opacity:1;fill:#000;fill-opacity:1;stroke:#000;stroke-width:.01262701;stroke-linecap:round;stroke-miterlimit:4;stroke-dasharray:none;stroke-dashoffset:0;stroke-opacity:1" cx="47.998" cy="30.313" r=".645"/><circle style="opacity:1;fill:#000;fill-opacity:1;stroke:#000;stroke-width:.01262701;stroke-linecap:round;stroke-miterlimit:4;stroke-dasharray:none;stroke-dashoffset:0;stroke-opacity:1" cx="47.984" cy="39.716" r=".645"/><circle style="opacity:1;fill:#000;fill-opacity:1;stroke:#000;stroke-width:.01262701;stroke-linecap:round;stroke-miterlimit:4;stroke-dasharray:none;stroke-dashoffset:0;stroke-opacity:1" cx="10.548" cy="39.725" r=".645"/><circle style="opacity:1;fill:#000;fill-opacity:1;stroke:#000;stroke-width:.01262701;stroke-linecap:round;stroke-miterlimit:4;stroke-dasharray:none;stroke-dashoffset:0;stroke-opacity:1" cx="19.91" cy="39.741" r=".645"/><circle style="opacity:1;fill:#000;fill-opacity:1;stroke:#000;stroke-width:.01262701;stroke-linecap:round;stroke-miterlimit:4;stroke-dasharray:none;stroke-dashoffset:0;stroke-opacity:1" cx="29.257" cy="39.708" r=".645"/><circle style="opacity:1;fill:#000;fill-opacity:1;stroke:#000;stroke-width:.01262701;stroke-linecap:round;stroke-miterlimit:4;stroke-dasharray:none;stroke-dashoffset:0;stroke-opacity:1" cx="38.619" cy="39.691" r=".645"/><circle style="opacity:1;fill:#000;fill-opacity:1;stroke:#000;stroke-width:.01262701;stroke-linecap:round;stroke-miterlimit:4;stroke-dasharray:none;stroke-dashoffset:0;stroke-opacity:1" cx="47.984" cy="49.048" r=".645"/><circle style="opacity:1;fill:#000;fill-opacity:1;stroke:#000;stroke-width:.01262701;stroke-linecap:round;stroke-miterlimit:4;stroke-dasharray:none;stroke-dashoffset:0;stroke-opacity:1" cx="10.548" cy="49.056" r=".645"/><circle style="opacity:1;fill:#000;fill-opacity:1;stroke:#000;stroke-width:.01262701;stroke-linecap:round;stroke-miterlimit:4;stroke-dasharray:none;stroke-dashoffset:0;stroke-opacity:1" cx="19.91" cy="49.073" r=".645"/><circle style="opacity:1;fill:#000;fill-opacity:1;stroke:#000;stroke-width:.01262701;stroke-linecap:round;stroke-miterlimit:4;stroke-dasharray:none;stroke-dashoffset:0;stroke-opacity:1" cx="29.257" cy="49.039" r=".645"/><circle style="opacity:1;fill:#000;fill-opacity:1;stroke:#000;stroke-width:.01262701;stroke-linecap:round;stroke-miterlimit:4;stroke-dasharray:none;stroke-dashoffset:0;stroke-opacity:1" cx="38.619" cy="49.023" r=".645"/><text xml:space="preserve" style="font-style:normal;font-weight:400;font-size:4.23333311px;line-height:1.25;font-family:sans-serif;letter-spacing:0;word-spacing:0;fill:#000;fill-opacity:1;stroke:none;stroke-width:.26458332" x="10.086" y="55.444"><tspan x="10.086" y="55.444" style="font-size:3.52777767px;stroke-width:.26458332">Areal: 8</tspan></text><path style="fill:none;stroke:red;stroke-width:.40000001;stroke-linecap:butt;stroke-linejoin:miter;stroke-miterlimit:4;stroke-dasharray:none;stroke-opacity:1" d="m10.557 30.399 18.709-18.71L47.975 30.4 29.266 49.108z"/></g><path style="fill:none;stroke:#009600;stroke-width:.80000001;stroke-linecap:butt;stroke-linejoin:miter;stroke-miterlimit:4;stroke-dasharray:none;stroke-opacity:1" d="M-2.351 45.421h38.702V6.514" transform="translate(3.714 -5.403)"/><use y="84.6" x="291.05" xlink:href="#a" width="100%" height="100%" style="fill:#000;fill-opacity:1" transform="translate(-185.847 -38.777) scale(.67106)"/><use y="84.36" x="298.25" xlink:href="#b" width="100%" height="100%" style="fill:#000;fill-opacity:1" transform="translate(-185.847 -38.777) scale(.67106)"/><path d="M298.25 75.121h6.121v-.723h-6.121zm0 0" style="fill:#000;fill-opacity:1;fill-rule:evenodd;stroke:none" transform="translate(-185.847 -38.777) scale(.67106)"/><use y="84.36" x="304.37" xlink:href="#c" width="100%" height="100%" style="fill:#000;fill-opacity:1" transform="translate(-185.847 -38.777) scale(.67106)"/><use y="106.1" x="72.024" xlink:href="#c" width="100%" height="100%" style="fill:#000;fill-opacity:1" transform="translate(-185.847 -38.777) scale(.67106)"/><use y="106.1" x="216.05" xlink:href="#c" width="100%" height="100%" style="fill:#000;fill-opacity:1" transform="translate(-185.847 -38.777) scale(.67106)"/><text xml:space="preserve" style="font-style:normal;font-weight:400;font-size:4.23333311px;line-height:1.25;font-family:sans-serif;letter-spacing:0;word-spacing:0;fill:#000;fill-opacity:1;stroke:none;stroke-width:.26458332" x="21.138" y="53.477" transform="translate(3.714 -5.403)"><tspan x="21.138" y="53.477" style="font-style:normal;font-variant:normal;font-weight:400;font-stretch:normal;font-size:7.76111126px;font-family:cambria;-inkscape-font-specification:cambria;stroke-width:.26458332">2</tspan></text><text xml:space="preserve" style="font-style:normal;font-weight:400;font-size:4.23333311px;line-height:1.25;font-family:sans-serif;letter-spacing:0;word-spacing:0;fill:#000;fill-opacity:1;stroke:none;stroke-width:.26458332" x="37.484" y="33.223" transform="translate(3.714 -5.403)"><tspan x="37.484" y="33.223" style="font-style:normal;font-variant:normal;font-weight:400;font-stretch:normal;font-size:7.76111126px;font-family:cambria;-inkscape-font-specification:cambria;stroke-width:.26458332">2</tspan></text></svg>