<svg xmlns="http://www.w3.org/2000/svg" width="88" height="160" style="enable-background:new 0 0 88 160" xml:space="preserve"><path d="M13.57 27.29c-.89-.12-2.11.09-3.12.43v-.01c-.01-.9-.01-1.81-.11-2.71 1.9-.34 4.53-.36 6.92-.66 1-.35.67-1.96-.39-1.91-2.45.13-4.91.31-7.33.68-.41.08-.87.21-1.09.6-.41 1.02-.01 1.31-.05 1.91.11 1.17-.02 2.39.08 3.56-.08.31 0 .6.18.82.14.2.34.33.57.37.02.01.04.01.06.02h.03c.3.05.62-.03.87-.32.02-.03.04-.06.06-.08a.18.18 0 0 0 .05-.07c.34-.17 1.21-.49 2.01-.62 1.2-.09 1.21-.04 2.33.2.03.01.04.02.06.02.69.42.94.6 1.13.79 1.07.9.54 3.48-.44 4.15-1.45.92-1.85.7-3.18.88-.29-.05-.57-.14-.84-.26.51.26-1.18-.54-1.48-.74-.08-.05-.15-.1-.22-.15l-.02-.02c-.06-.1-.21-.3-.31-.35-.81-.7-2.04.4-1.47 1.29.85 1.2 2.44 1.72 3.8 2.16 2 .13 4.45-.16 5.96-2.38 2.09-3.48-.01-7.39-4.06-7.6zm45.3-1.64c.57-.73.05-1.88-.92-1.77-1.8.1-2.36.28-3.86.39-2.18.09-4.37.12-6.56.2-.26 0-.52.11-.71.29-.63.59-.16 1.73.71 1.71 2.6-.04 6.4-.2 8.73-.42-.7 1.34-1.06 2.6-1.62 3.89-.52.03-1.03.07-1.55.09-.74.11-1.65-.17-2.25.35-.63.59-.15 1.74.71 1.71.74-.02 1.49-.06 2.23-.1-.43 1.27-.7 2.6-1.08 3.88-.02.05-.03.08-.04.1 0 .01-.01.02-.01.02-.01.02-.03.06-.07.12-.34.55-.02 1.31.6 1.47 1.76.35 1.7-2.99 2.37-4.56.11-.4.25-.79.41-1.18.56-.04 1.13-.08 1.69-.13.26 0 .52-.11.71-.29.63-.59.15-1.74-.71-1.71l-.78.06c.13-.31.27-.63.41-.98.54-1.34.56-1.81 1.59-3.14zm19.19 2.96c-1.08-.52-2.3-.36-3.46-.36-1.17.03-2.37.14-3.45.56-.08-1.15-.29-2.39-.33-3.06 1.56-.2 3.08-.65 4.63-.93.62-.19 1.46-.08 1.83-.71.46-.73-.3-1.73-1.13-1.47-1.78.31-4.8 1.09-5.68 1.16-1.22.06-1.69.63-1.65 2.07.14 1.74.54 2.9.25 4.35-.14.31-.12 1.72 1.2 1.48.65-.3.46-.34.67-.52.19-.1.72-.4.94-.53 1.5-.51 3.84-.5 5.01-.36.08.02.15.04.21.06.61.76.74.97.64 2.71-.06.32-.92 1.89-2.49 2.58-.66.21-1.19.19-2.38.1-.23-.06-2.34-.65-2.98-.92-.21-.13-.96-.58-1.19-.57-.79-.16-1.42.81-1 1.49.83.9 2.16 1.2 3.3 1.54 1.73.6 3.8.85 5.47-.03 1.47-.8 2.76-2.15 3.2-3.79.32-1.7-.04-3.84-1.61-4.85z"/><path d="M82.7 19.61c-3.59-.4-9.35-.12-13.88-.2-2.57.08-5.12-.24-7.68-.2-3.29.06-6.57.29-9.86.2-2.18-.02-4.36 0-6.54.2-3.3.01-6.61-.13-9.17.42-1.49.22-3.11.93-3.74 2.39-.28 1.38-.1 2.86.1 4.24-.13 1.67.23 4.93.77 7.58-.03.03.03 1.5 0 1.87 0 .84-.03 1.6-.09 1.75-.35 1.04-.36.92-1.05 1.54-1.36.79-1.81.66-4.02.67-3.48-.01-5.61-.43-8.65-.6-5.16-.01-10.32.34-15.46.8-1.28-.01-1.33 2 0 2 4.66-.43 9.33-.72 14.01-.8 2.67-.03 3.83.28 6.59.4 1.03.19 4.47.35 6.45.09 1.97-.38 3.85-1.82 4.12-3.9.5-3.93-.7-7.15-.69-9.95.04-1.91-.36-3.84-.17-5.03.63-.71.66-.6 1.48-.92 2.43-.63 5.25-.53 8.84-.52 3.56-.22 7.12-.23 10.69-.2 2.13.06 4.24-.25 6.37-.2 2.09-.07 4.17.22 6.26.19 5.19.1 10.95-.22 15.31.2 1.28-.01 1.35-2.01.01-2.02zM56.6 63.13c-1.67.1-1.98.19-3.66.25-1.62.14-3.24.32-4.85.57-.25.07-.47.24-.6.46-.46.73.3 1.73 1.13 1.47 1.88-.34 5.51-.56 7.55-.73-.48.91-.86 1.9-1.21 2.9-.8.03-1.6.05-2.4.08-1.31 0-1.3 1.99 0 2l1.73-.06c-.13.41-.26.81-.39 1.21-.38 1.23-.57 2.51-.89 3.76-.26.83.73 1.59 1.47 1.13.88-.7.64-2.21 1.04-3.2.27-1.01.56-2 .87-2.96l1-.03c.26 0 .52-.11.71-.29.63-.59.15-1.74-.71-1.71-.1 0-.19.01-.29.01.55-1.41 1.15-2.65 1.8-3.55.28-1.52-1.28-1.35-2.3-1.31zm2.27 28.61c-.31-1.67-1.15-2.22-2.77-3.16-.97-.44-2.09-.39-3.14-.38-.47-.01-1.06.07-1.63.23-.06-1.02-.17-2.06-.27-2.65 1.07-.05 3.45 0 4.91-.01.39 0 .79-.24.91-.61.31-.62-.23-1.41-.91-1.39-2.15.14-4.43-.35-6.49.33-.87.55-.4 1.7-.3 2.52.23.94.11 2.16.22 3.57-.01.17-.01.35.04.55.05.13.11.23.19.31.03.03.07.05.11.08.05.04.1.09.17.12.06.03.12.03.18.05.05.01.09.03.14.03.05 0 .1-.01.15-.01.06 0 .13 0 .19-.02.03-.01.05-.02.08-.03.08-.03.17-.05.24-.1.02-.01.03-.02.04-.03a.91.91 0 0 0 .21-.18c.02-.03.04-.06.06-.1a.81.81 0 0 0 .1-.18c.01-.02.02-.05.02-.07l.01-.01c.14-.1.3-.18.46-.25.08-.02.21-.06.32-.09.17-.01 1.23-.11 1.48-.09.85.03 1.06.04 1.36.1.26.01 1.28.69 1.47.89.82.61.74 2.46-.87 3.4-1.49.89-3.92.2-4.88-1.26-.81-.7-2.04.4-1.47 1.29.96 1.5 2.73 2.24 4.46 2.35 2.84.28 5.72-2.26 5.21-5.2zm23.78 8.96c-.53-.49-1.32-.23-1.98-.29-4.29.32-9.35.17-14.37.2-3.79.01-7.59.46-11.37.06-3.8-.19-7.62-.36-11.4-.86-1.29 0-1.32 1.99 0 2 4.64.59 9.32.78 13.98 1 2.96.11 5.91-.21 8.87-.2 5.64-.03 10.95.14 15.95-.29.65-.22.82-1.16.32-1.62zm-24.27 14.62-.12.03h-.13c-.02 0-.02 0-.04-.01-1.39-.25-1.76-.76-3.25-1.55-.15-.08-.3-.13-.46-.18.29-.29.59-.58.88-.89 1.46-1.54 2.49-3.68 1.92-5.83-.48-1.43-1.79-2.76-3.38-2.71-1.27-.02-2.13 1.03-2.89 1.91-.39.56-1.12 1-1.16 1.73-.03.86 1.12 1.33 1.71.71 1.57-1.89 2.18-2.57 2.67-2.31.13.03.73.34 1.09 1.13.01.02.02.04.03.05.02.07.04.17.05.24 0-.03-.01-.05-.01-.09.07.18.05.88.05 1.09-.1.76-.93 2.05-1.16 2.32-.91 1.04-2.01 2.04-2.88 2.82-.91.34-1.8.98-1.93 1.91-.05.82.96 1.42 1.66.97.35-.29.79-.66 1.29-1.09.65-.17 1.33-.16 1.55-.02 1.65.92 3.62 2.48 5.57 1.5 1.13-.73.05-2.38-1.06-1.73z"/><path d="M55.3 107.63c.02.21.02.14 0 0zm.49-92.85c-.56-.07-1.13-.09-1.69-.1.07-.61.09-1.55.06-2.22.05-2.76-.11-7.04.1-8.85.06-.18.1-.37.08-.57-.05-.69-.91-1.09-1.49-.73-.22.14-.36.34-.45.56-.14.31-.29.61-.46.89-.96 1.58-1.68 2.45-2.55 3.5-.27.33-.66.64-.64 1.11-.03.86 1.12 1.34 1.71.71.59-.69 1.17-1.39 1.71-2.12-.03 2.95-.07 6.63.04 7.26-.07.14-.12.31-.17.48l-1.69.09c-1.3 0-1.31 1.99 0 2 1.49-.05 2.98-.23 4.47-.1.9.08 2.45.42 2.5-.9 0-.82-.84-1.07-1.53-1.01zM78.6 113.6c-.04-.93-.08-1.95-.58-2.76-1.12-1.64-3.32-2.52-5.26-2.03-.42.08-.84.19-1.24.33-.04-.69-.16-1.39-.33-2.06.57-.11 1.15-.26 1.7-.28 1.41-.33 2.99-.29 4.32-.8.88-.6.14-2.07-.87-1.75-1.96.26-5.53.89-6.53 1v.01c-.78.01-1.31.99-.77 1.62.5 1.46.61 2.87.42 3.58-.27.84.71 1.64 1.47 1.16 1.15-.7 2.15-.95 3.24-.95.02 0 .03 0 .05.01.75.11 1.51.6 1.85.9.04.04.08.08.11.12.07.1.14.19.2.29.25.7.23 2.11.22 2.3-.22.55.03.28-.9.9-1.21.7-2.83.81-4.42.41-.95-.16-.79-.59-1.89-.53-.52.13-.85.72-.7 1.23.14.55.71.73 1.18.92 1.35.55 2.87.72 4.31.51 2.15-.21 4.79-1.63 4.42-4.13zm-20.05 20.22c-.57-.14-1.1.26-1.65.35-.05.01-.09.02-.13.02-.95.06-1.56-.21-2.5-.7.21-.21.42-.43.64-.64 1.33-1.44 2.6-3.24 2.64-5.27.25-2.29-1.3-4.91-3.88-4.26-.64.16-1.05.71-1.49 1.16-1.04 1.21-1.74 2.24-2 3.24-.2 1.04 1.35 1.57 1.85.64.56-1.29.98-1.88 2.19-3.1.73-.1 1.45.28 1.32 2.53-.03 1.31-1.63 3.43-3.3 4.91-.19-.01-.37.01-.56.06-.78.28-1.66.83-1.71 1.74-.02.52.31 1.04.83 1.18.52.12 1.02-.13 1.44-.43.16-.1.3-.22.45-.33 1.09.55 3.21 1.7 4.77 1.16.58-.21 1.34-.25 1.7-.81.32-.52 0-1.29-.61-1.45zm16.08-5.41c-.76-.4-1.93-.28-2.88-.02.04-.44.08-.87.09-1.31 0-.13.02-.43.03-.57.01-.03.01-.06.02-.09.01-.04.02-.05.02-.07 0-.01.01-.02.01-.02l.04-.04c.18-.05.58-.17.72-.17 1.33-.25 2.65-.53 4-.69.25-.07.47-.24.6-.46.46-.73-.3-1.73-1.13-1.47-1.74.3-3.57.44-5.23 1.08-.95.55-1.09 1.7-1.09 2.7-.03.87-.13 1.73-.21 2.6-.03.4.14.82.5 1.03.93.45 1.35-.36 1.67-.42.96-.44 2.33-.45 3.1.41 2.08 2.48-.73 5.22-4.63 4.34-.83-.26-1.59.73-1.13 1.47.3.53.95.52 1.48.61 2.69.43 6.05-.76 6.86-3.58.5-2.18-.7-4.61-2.84-5.33zm8.89 11.32c-.27-.47-.8-.5-1.28-.58-5.05-.11-10.13-.09-15.18 0-2.75.43-4.28.82-7.22.74-4.05-.22-8.13-.37-12.18-.02-1.33.14-2.67.25-3.99.46-.25.07-.47.24-.6.46-.46.73.3 1.73 1.13 1.47 4.65-.83 11.47-.55 17.07-.38 2.32.03 4.8-.66 6.35-.76 4.99.02 11.11-.17 15.18.1.68-.05 1.09-.92.72-1.49zm-5.05 5.53c-.46-.2-.87-.56-1.37-.65-.47-.1-.9.22-1.06.64-1.69-.18-3.43.04-5.02.62-.85.7-1.19 1.24-1.89 2.31-2.71 5.22 1.69 8.08 6.52 8.19 2.21-.02 3.75-1.88 4.61-3.74.38-.95.32-2 .36-3.01.01-1.7-.42-3.64-2.15-4.36zm-.02 6.51c-.01.04-.03.08-.04.12-.09.16-.37.67-.47.8-.45.66-.45.69-.68.93-.6.51-1.03.8-1.97.76-.4.08-3.06-.68-3.28-.8-.08-.04-.24-.14-.34-.22-1.31-1.15-1.31-1.1-1.34-2.18.1-1.01.14-1.32.8-2.42.17-.3.29-.32.78-.99.03-.04.04-.06.06-.08.01-.02.03-.03.06-.07.01-.01.01-.01.02-.01.57-.09 2.16-.57 3.64-.43.48.06 1 .27 1.45 0 .11-.06.2-.14.27-.24.19.1.38.2.54.33.08.05.15.1.23.16l.02.02c.36.2.59 3.08.25 4.32zm-.13-141.68c-1.39-3.05-2.73-3.7-6.02-3.13-.28.06-.59.13-.89.24-.02-.66-.04-1.32.03-1.97.99-.2 2.97-.38 4.97-.46 1.3 0 1.31-1.99 0-2-1.56.02-4.41.35-5.03.45-.53.05-1.08.18-1.45.59-.43.46-.48 1.11-.5 1.71-.06 1.22-.03 2.43-.04 3.65 0 .03.01.05.02.08a.751.751 0 0 0 .08.33c.04.08.08.15.14.21.02.03.03.06.05.08.02.02.05.03.07.04.02.01.04.03.06.04.21.16.47.21.73.18.08-.01.15-.02.22-.04l.06-.03c.09-.04.18-.1.26-.17.01-.01.02-.01.03-.02.02-.02.03-.05.04-.07.04-.05.08-.08.11-.14 0-.02.01-.03.01-.05.02-.04.04-.07.06-.11.03-.03.07-.06.11-.09.22-.36 2.62-.89 3.7-.5.01.01.02.01.03.02.25.22.28.1.67.78.51.99.71 1.09.86 1.78.01.05.01.07.02.1.06.71.12.56-.04 1.03-.75 1.66-3.47 1.91-5.1 1.03-.23-.13-.47-.26-.69-.41 0-.01 0-.01-.01-.01-.03-.13-.27-.74-.52-.78-1.42-.61-1.92 1.07-1.05 2.02.91.97 2.29 1.46 3.6 1.61 3.51.68 7.2-2.37 5.41-5.99z"/></svg>