<svg xmlns="http://www.w3.org/2000/svg" xmlns:xlink="http://www.w3.org/1999/xlink" width="257.143" height="110.357" viewBox="0 0 68.036 29.199"><defs><symbol id="g" overflow="visible" style="overflow:visible"><path d="M4.86-1.75a4.22 4.22 0 0 0-.11.813c0 .136.02.242.063.312.05.063.125.094.218.094.114 0 .227-.04.344-.125.125-.094.3-.266.531-.516l.297.297c-.324.355-.601.605-.828.75a1.36 1.36 0 0 1-.734.219c-.23 0-.414-.074-.547-.219a.916.916 0 0 1-.188-.594c0-.195.04-.41.125-.64l-.062-.016c-.356.5-.696.871-1.016 1.11-.312.23-.637.343-.969.343-.336 0-.593-.094-.78-.281-.18-.195-.266-.469-.266-.813 0-.218.05-.535.156-.953l.36-1.422c.093-.382.14-.66.14-.828 0-.144-.028-.25-.078-.312-.043-.063-.118-.094-.22-.094a.6.6 0 0 0-.359.14c-.117.087-.28.25-.5.5l-.312-.312c.313-.3.54-.508.688-.625.156-.125.304-.207.453-.25.144-.05.304-.078.484-.078.227 0 .406.078.531.234.133.157.203.368.203.625 0 .282-.058.637-.171 1.063l-.235.937c-.062.243-.11.43-.14.563a3.25 3.25 0 0 0-.047.344 1.895 1.895 0 0 0-.016.234c0 .25.04.434.125.547.082.105.219.156.406.156.145 0 .305-.055.485-.172.175-.125.359-.304.546-.547a4.48 4.48 0 0 0 .47-.718c.124-.227.222-.508.296-.844l.516-2.328h.937zm0 0" style="stroke:none"/></symbol><symbol id="h" overflow="visible" style="overflow:visible"><path d="M4.516-2.797v3.11H3.75v-3.11H.797v-.719H3.75v-3.109h.766v3.11h2.937v.718zm0 0" style="stroke:none"/></symbol><symbol id="i" overflow="visible" style="overflow:visible"><path d="M1.922.094a.446.446 0 0 1-.266-.078.486.486 0 0 1-.172-.22 1.25 1.25 0 0 1-.093-.327 6.452 6.452 0 0 1 .016-1.094c.03-.238.062-.473.093-.703l.234-1.5c.008-.082.02-.16.032-.235.007-.082.015-.144.015-.187a.567.567 0 0 0-.062-.266.176.176 0 0 0-.172-.109.554.554 0 0 0-.234.063 2.217 2.217 0 0 0-.47.359c-.073.074-.14.148-.202.219l-.266-.313c.113-.113.234-.226.36-.344.124-.113.253-.21.39-.296.145-.094.297-.165.453-.22.156-.062.313-.093.469-.093.133 0 .242.027.328.078.094.043.16.102.203.172a.76.76 0 0 1 .11.25.982.982 0 0 1 .015.406.643.643 0 0 1-.015.125L2.39-2.266c-.032.2-.059.399-.079.594a4.403 4.403 0 0 0-.015.89c.02.095.055.141.11.141.113 0 .257-.046.437-.14.187-.094.379-.223.578-.39.195-.165.394-.364.594-.595a5.25 5.25 0 0 0 .53-.734c.157-.27.282-.55.376-.844.101-.3.156-.601.156-.906a.443.443 0 0 0-.094-.297c-.054-.07-.136-.11-.25-.11a.61.61 0 0 0-.421.188 2.975 2.975 0 0 0-.391.453l-.313-.265c.094-.133.196-.258.313-.375a2.04 2.04 0 0 1 .36-.313c.132-.093.269-.164.405-.218.145-.051.286-.079.422-.079.258 0 .446.07.563.204a.804.804 0 0 1 .172.53c0 .18-.032.384-.094.61a5.16 5.16 0 0 1-.266.703 6.303 6.303 0 0 1-.39.75 8.754 8.754 0 0 1-.516.766c-.187.25-.39.484-.61.703-.21.219-.429.414-.655.578-.22.156-.45.281-.688.375-.242.094-.477.14-.703.14zm0 0" style="stroke:none"/></symbol><symbol id="j" overflow="visible" style="overflow:visible"><path d="M.797-3.922v-.719h6.656v.72zm0 2.25v-.719h6.656v.72zm6.875-1.484zm0 0" style="stroke:none"/></symbol><symbol id="k" overflow="visible" style="overflow:visible"><path d="M3.75-1.406c0 .21.008.367.031.468a.55.55 0 0 0 .125.266.685.685 0 0 0 .25.156c.114.032.254.059.422.079.176.023.399.039.672.046V0H1.266v-.39c.394-.02.675-.047.843-.079.176-.031.313-.078.407-.14a.444.444 0 0 0 .187-.25c.04-.114.063-.297.063-.547v-4.375c0-.145-.028-.25-.079-.313-.042-.07-.117-.11-.218-.11-.117 0-.278.063-.485.188-.21.118-.468.278-.78.485l-.25-.407 2.53-1.515h.297a23.07 23.07 0 0 0-.031 1.437zm0 0" style="stroke:none"/></symbol><symbol id="l" overflow="visible" style="overflow:visible"><path d="m4.266-3.89.015.078c.407.156.711.386.922.687.207.305.313.668.313 1.094 0 .43-.106.804-.313 1.125a2 2 0 0 1-.875.734C3.953.004 3.508.094 3 .094c-.48 0-.902-.078-1.266-.235a2.018 2.018 0 0 1-.843-.703 1.986 1.986 0 0 1-.297-1.094c0-.312.05-.582.156-.812.113-.227.258-.414.438-.563.175-.156.394-.296.656-.421l-.016-.063C1.055-4.129.672-4.707.672-5.53c0-.364.098-.692.297-.985a2.1 2.1 0 0 1 .875-.687c.375-.164.789-.25 1.25-.25.52 0 .957.074 1.312.219.352.148.617.359.797.64.176.274.266.602.266.985a1.8 1.8 0 0 1-.297 1.03c-.2.282-.5.513-.906.688zM1.687-5.579c0 .219.024.422.079.61.05.187.129.35.234.484.113.136.258.246.438.328.175.074.394.11.656.11.3 0 .55-.056.75-.173a1.01 1.01 0 0 0 .453-.5c.101-.226.156-.488.156-.781 0-.332-.062-.61-.187-.828a1.113 1.113 0 0 0-.485-.5 1.53 1.53 0 0 0-.703-.156c-.45 0-.793.125-1.031.375-.242.242-.36.586-.36 1.03zm-.062 3.547c0 .23.023.449.078.656.063.2.149.375.266.531.113.149.258.262.437.344a1.6 1.6 0 0 0 .672.125c.3 0 .555-.055.766-.172a1.16 1.16 0 0 0 .469-.547 1.95 1.95 0 0 0 .171-.843c0-.344-.062-.641-.187-.891a1.217 1.217 0 0 0-.5-.563 1.345 1.345 0 0 0-.735-.203 1.7 1.7 0 0 0-.687.125 1.2 1.2 0 0 0-.438.344 1.365 1.365 0 0 0-.234.484 2.17 2.17 0 0 0-.078.61zm0 0" style="stroke:none"/></symbol><symbol id="m" overflow="visible" style="overflow:visible"><path d="M3 .094c-.781 0-1.36-.305-1.734-.922C.89-1.441.703-2.368.703-3.61c0-.664.055-1.239.172-1.72.113-.476.273-.874.484-1.187a1.95 1.95 0 0 1 .75-.703 2.08 2.08 0 0 1 .97-.234c.788 0 1.378.308 1.765.922.383.605.578 1.523.578 2.75 0 1.273-.211 2.234-.625 2.89C4.39-.234 3.789.094 3 .094zM1.75-3.781c0 1.18.11 2.043.328 2.594.219.542.55.812 1 .812.438 0 .758-.254.969-.766.219-.52.328-1.32.328-2.406 0-.82-.059-1.488-.172-2-.105-.52-.258-.89-.453-1.11a.874.874 0 0 0-.688-.327c-.25 0-.46.074-.624.218-.168.149-.305.36-.407.641-.105.273-.18.605-.219 1-.042.398-.062.844-.062 1.344zm0 0" style="stroke:none"/></symbol><symbol id="n" overflow="visible" style="overflow:visible"><path d="M2.031-4.219c-.312 0-.59-.066-.828-.203a1.496 1.496 0 0 1-.562-.594 1.818 1.818 0 0 1-.188-.828c0-.312.067-.586.203-.828.145-.25.336-.441.578-.578.25-.133.532-.203.844-.203.313 0 .586.07.828.203.25.137.438.328.563.578.133.242.203.516.203.828 0 .305-.074.578-.219.828-.137.25-.328.45-.578.594-.25.137-.531.203-.844.203zm.031-2.703a1.09 1.09 0 0 0-.546.14.938.938 0 0 0-.36.391 1.12 1.12 0 0 0-.125.547c0 .211.04.399.125.563a.915.915 0 0 0 .36.39c.164.086.347.125.546.125.208 0 .391-.039.547-.125a.94.94 0 0 0 .36-.39c.094-.164.14-.352.14-.563 0-.207-.046-.39-.14-.547a.964.964 0 0 0-.36-.39 1.046 1.046 0 0 0-.546-.14zm0 0" style="stroke:none"/></symbol><clipPath clipPathUnits="userSpaceOnUse" id="f"><path style="opacity:1;vector-effect:none;fill:#80aa00;fill-opacity:.32367153;stroke:none;stroke-width:.73629534;stroke-linecap:round;stroke-linejoin:miter;stroke-miterlimit:4;stroke-dasharray:none;stroke-dashoffset:0;stroke-opacity:1" d="M208.512 70.177h166.981v72.822H208.512z"/></clipPath><clipPath clipPathUnits="userSpaceOnUse" id="e"><path style="opacity:1;vector-effect:none;fill:#80aa00;fill-opacity:.32367153;stroke:none;stroke-width:.30000001;stroke-linecap:round;stroke-linejoin:miter;stroke-miterlimit:4;stroke-dasharray:none;stroke-dashoffset:0;stroke-opacity:1" d="M49.235 111.198h68.036v29.671H49.235z"/></clipPath><clipPath clipPathUnits="userSpaceOnUse" id="d"><path style="opacity:1;vector-effect:none;fill:#80aa00;fill-opacity:.32367153;stroke:none;stroke-width:.30000001;stroke-linecap:round;stroke-linejoin:miter;stroke-miterlimit:4;stroke-dasharray:none;stroke-dashoffset:0;stroke-opacity:1" d="M49.235 111.198h68.036v29.671H49.235z"/></clipPath><clipPath clipPathUnits="userSpaceOnUse" id="c"><path style="opacity:1;vector-effect:none;fill:#80aa00;fill-opacity:.32367153;stroke:none;stroke-width:.30000001;stroke-linecap:round;stroke-linejoin:miter;stroke-miterlimit:4;stroke-dasharray:none;stroke-dashoffset:0;stroke-opacity:1" d="M49.235 111.198h68.036v29.671H49.235z"/></clipPath><clipPath clipPathUnits="userSpaceOnUse" id="b"><path style="opacity:1;vector-effect:none;fill:#80aa00;fill-opacity:.32367153;stroke:none;stroke-width:.30000001;stroke-linecap:round;stroke-linejoin:miter;stroke-miterlimit:4;stroke-dasharray:none;stroke-dashoffset:0;stroke-opacity:1" d="M49.235 111.198h68.036v29.671H49.235z"/></clipPath><clipPath clipPathUnits="userSpaceOnUse" id="a"><path style="opacity:1;vector-effect:none;fill:#80aa00;fill-opacity:.32367153;stroke:none;stroke-width:.30000001;stroke-linecap:round;stroke-linejoin:miter;stroke-miterlimit:4;stroke-dasharray:none;stroke-dashoffset:0;stroke-opacity:1" d="M49.235 111.198h68.036v29.671H49.235z"/></clipPath></defs><path style="fill:none;stroke:#000;stroke-width:.5;stroke-linecap:butt;stroke-linejoin:miter;stroke-miterlimit:4;stroke-dasharray:none;stroke-opacity:1" d="m49.3 120.695 72.625 19.46" clip-path="url(#a)" transform="translate(-49.235 -111.198)"/><path style="fill:none;stroke:#000;stroke-width:.5;stroke-linecap:butt;stroke-linejoin:miter;stroke-miterlimit:4;stroke-dasharray:none;stroke-opacity:1" d="m74.367 137.872 61.796-35.678" clip-path="url(#b)" transform="translate(-49.235 -111.198)"/><path style="opacity:1;fill:none;fill-opacity:1;stroke:#000;stroke-width:.5;stroke-linecap:round;stroke-miterlimit:4;stroke-dasharray:none;stroke-dashoffset:0;stroke-opacity:1" d="M83.182 129.744a3.809 3.809 0 0 1 2.686-2.727 3.809 3.809 0 0 1 3.699.985 3.809 3.809 0 0 1 .976 3.7l-3.672-1.01z" clip-path="url(#c)" transform="translate(-49.235 -111.198)"/><text xml:space="preserve" style="font-style:normal;font-weight:400;font-size:4.23333311px;line-height:1.25;font-family:sans-serif;letter-spacing:0;word-spacing:0;fill:#000;fill-opacity:1;stroke:none;stroke-width:.26458332" x="84.997" y="125.635" clip-path="url(#d)" transform="translate(-49.235 -111.198)"><tspan x="84.997" y="125.635" style="font-style:italic;stroke-width:.26458332">u</tspan></text><text xml:space="preserve" style="font-style:normal;font-weight:400;font-size:4.23333311px;line-height:1.25;font-family:sans-serif;letter-spacing:0;word-spacing:0;fill:#000;fill-opacity:1;stroke:none;stroke-width:.26458332" x="92.09" y="131.13" clip-path="url(#e)" transform="translate(-49.235 -111.198)"><tspan x="92.09" y="131.13" style="font-style:italic;stroke-width:.26458332">v</tspan></text><g transform="translate(-84.957 -28.593) scale(.40745)" clip-path="url(#f)"><use y="82.56" x="266.33" xlink:href="#g" width="100%" height="100%" style="fill:#000;fill-opacity:1"/><use y="82.56" x="275.33" xlink:href="#h" width="100%" height="100%" style="fill:#000;fill-opacity:1"/><use y="82.56" x="286.01" xlink:href="#i" width="100%" height="100%" style="fill:#000;fill-opacity:1"/><use y="82.56" x="295.37" xlink:href="#j" width="100%" height="100%" style="fill:#000;fill-opacity:1"/><g style="fill:#000;fill-opacity:1"><use y="82.56" x="306.65" xlink:href="#k" width="100%" height="100%"/><use y="82.56" x="312.77" xlink:href="#l" width="100%" height="100%"/><use y="82.56" x="318.89" xlink:href="#m" width="100%" height="100%"/></g><use y="82.56" x="325.01" xlink:href="#n" width="100%" height="100%" style="fill:#000;fill-opacity:1"/><use y="82.56" x="329.09" xlink:href="#p" width="100%" height="100%" style="fill:#000;fill-opacity:1"/></g></svg>