<svg xmlns="http://www.w3.org/2000/svg" width="208.827" height="121.975" viewBox="0 0 55.252 32.272"><g transform="translate(-8.63 -24.249)"><path style="fill:none;stroke:#000;stroke-width:.5;stroke-linecap:butt;stroke-linejoin:miter;stroke-miterlimit:4;stroke-dasharray:none;stroke-opacity:1" d="M63.297 56.23H9.449l35.625-23.98z"/><path style="opacity:1;vector-effect:none;fill:none;fill-opacity:.32367153;stroke:#000;stroke-width:.5;stroke-linecap:round;stroke-linejoin:miter;stroke-miterlimit:4;stroke-dasharray:none;stroke-dashoffset:0;stroke-opacity:1" d="M14.435 52.866a6.014 6.014 0 0 1 1.028 3.363H9.449zm43.94 3.405a5.006 5.006 0 0 1 1.994-3.998l3.012 3.998zM47.553 35.542a4.12 4.12 0 0 1-3.16.773 4.12 4.12 0 0 1-2.735-1.76l3.416-2.304z"/><text xml:space="preserve" style="font-style:normal;font-weight:400;font-size:4.23333311px;line-height:1.25;font-family:sans-serif;letter-spacing:0;word-spacing:0;fill:#000;fill-opacity:1;stroke:none;stroke-width:.26458332" x="16.725" y="55.095"><tspan x="16.725" y="55.095" style="font-style:italic;stroke-width:.26458332">A</tspan></text><text xml:space="preserve" style="font-style:normal;font-weight:400;font-size:4.23333311px;line-height:1.25;font-family:sans-serif;letter-spacing:0;word-spacing:0;fill:#000;fill-opacity:1;stroke:none;stroke-width:.26458332" x="42.617" y="40.354"><tspan x="42.617" y="40.354" style="font-style:italic;stroke-width:.26458332">B</tspan></text><text xml:space="preserve" style="font-style:normal;font-weight:400;font-size:4.23333311px;line-height:1.25;font-family:sans-serif;letter-spacing:0;word-spacing:0;fill:#000;fill-opacity:1;stroke:none;stroke-width:.26458332" x="54.618" y="54.623"><tspan x="54.618" y="54.623" style="font-style:italic;stroke-width:.26458332">C</tspan></text><text xml:space="preserve" style="font-style:normal;font-weight:400;font-size:4.23333311px;line-height:1.25;font-family:sans-serif;letter-spacing:0;word-spacing:0;fill:#000;fill-opacity:1;stroke:none;stroke-width:.26458332" x="18.521" y="27.975"><tspan x="18.521" y="27.975" style="stroke-width:.26458332"><tspan style="font-style:italic">A</tspan> + <tspan style="font-style:italic">B</tspan> + <tspan style="font-style:italic">C</tspan> = 180</tspan></text><circle style="opacity:1;vector-effect:none;fill:none;fill-opacity:.32367153;stroke:#000;stroke-width:.30000001;stroke-linecap:round;stroke-linejoin:miter;stroke-miterlimit:4;stroke-dasharray:none;stroke-dashoffset:0;stroke-opacity:1" cx="49.988" cy="25.008" r=".61"/></g></svg>