<svg xmlns="http://www.w3.org/2000/svg" width="147" height="203" style="enable-background:new 0 0 147 203" xml:space="preserve"><path d="M14.45 36.85c-.22 0-.44.01-.66.02-.01-1.36-.2-1.95-.16-3.11.02-1.94-.03-3.89.03-5.83.07-1.2.34-2.5-.02-3.67-.38-.68-1.47-.63-1.76.09l-.01.01c.01-.02.01-.03.02-.05-.02.03-.02.04-.02.05-.08.1-.15.2-.19.32-.05.12-.09.24-.11.28-.1.21-.25.49-.31.62-1.16 1.14-1.65 1.44-2.79 2.25-.35.24-.8.43-.91.89-.26.83.73 1.59 1.47 1.13.89-.62 1.84-1.25 2.68-1.97-.06 1.89-.12 3.78-.07 5.68-.05 1.58.17 1.77.16 3.27v.14c-.72.06-1.44.13-2.16.19-1.3 0-1.31 1.99 0 2 1.97-.18 3.94-.36 5.92-.32.39 0 .79-.24.91-.61.41-1.4-1.02-1.45-2.02-1.38zm21.71-.17c-.47-.02-.26-.04-1.08-.21-1.1-.19-.86-.06-1.8-.31-.36-.13-.73-.25-1.11-.34.59-.52 1.18-1.04 1.75-1.58 1.14-1.51 2.7-3.19 2.8-5.16-.02-.92.03-1.89-.41-2.72-.52-.97-1.34-1.72-2.33-2.21-.37-.19-.79-.29-1.2-.24-.04 0-.05.01-.08.01-.01 0-.04.01-.14.02-2.08.08-3.58 2.05-4.3 3.82-.2 1.05 1.35 1.57 1.85.64 1.15-2.12 2.01-2.53 2.9-2.5.01 0 .03.01.04.01.13.07.37.19.45.26 1.1.82 1.29 1.01 1.21 3.16-.02.09-.04.2-.07.3-.05.11-.17.35-.23.45-.61 1.1-1.38 2.12-1.74 2.58-.92.95-2.73 2.5-3.47 3.18-.18.07-.36.15-.53.25-.5.27-1.56 1.1-.57 2.04.71.46 1.45.05 2.09-.5h.02c.37-.03.73-.04 1.1 0 .03.01.04.01.08.02 1.9.72 2.82.67 4.47 1.01 1.48.32 1.82-1.89.3-1.98zm41.23-2.12c0-.72-.06-1.49-.54-2.07-.75-.96-.79-1.05-1.46-1.66-.09-.07-.19-.12-.29-.18 1.28-1.42 2-3.4.51-4.89-1.34-1.12-3.16-1.28-4.82-.98-1.46.72-2.57 2.05-3.44 3.4-1.11 1.19.46 2.75 1.47 1.43.89-1.5 1.53-2.15 2.58-2.91.53-.03 1.06-.04 1.59-.02.17.05.47.14.6.17.23.12.6.35.71.41l.03.03c.48 1-1.02 2.53-1.99 3.04-.07.02-.14.02-.2.05-.11.02-.19.05-.24.09-.84.34-.96 1.6.05 1.92.19.06.37.04.55-.02-.01 0-.01.01-.02.01.17-.04.34-.09.5-.16.11-.02.21-.05.32-.07.07-.01.14-.01.21-.01.1.03.27.07.41.11.02.01.03.01.06.03.09.05.17.1.24.15.03.02.05.05.07.07.05.06.1.13.14.18.6.72.5.5.87 1.08.18 1.09.23 1.43-.51 2.2-.87.8-.92.97-1.68 1.34-.11.02-.34.07-.47.11-1.02.1-1.77.17-1.92.11-.82-.23-1.09-.29-1.41-.49l-.02-.02c-.32-.51-.61-1.15-1.18-1.42-.73-.37-1.58.42-1.35 1.18.38.82.38.37.76 1.19.4.71 1.16 1.04 1.9 1.26.85.32 1.78.39 2.67.21-.09.01-.18.02-.27.04.62-.07 1.27-.06 1.87-.27.95-.33 1.66-1.04 2.38-1.72.83-.74 1.43-1.78 1.32-2.92zm19.52-2.08c-.77-2.11-3.49-3-5.56-2.55-.18.06-.36.13-.53.21 1.14-1.7 2.36-2.62 3.96-4.4.47-.95-.9-1.87-1.62-1.09-1.9 1.73-3.74 3.62-4.89 5.95-.5 1-.98 2.09-.81 3.23.19 1.33.84 2.76 1.94 3.58 1.82.98 4.15 1.01 5.93-.08 1.5-1.05 1.97-3.13 1.58-4.85zm-2.69 3.18c-.07.04-.15.09-.24.14-.12.04-.44.15-.57.17-.93.26-1.09.22-1.19.21-1.37-.33-1.7-.27-2.01-.71-.45-.71-.74-1.3-.75-1.99.04-.02.07-.02.11-.04.25-.19 1.3-1.01 1.34-1.05 1.53-1.07 2.77-.51 3.85.32.29.39.27.11.27 1.17-.09.84-.22 1.24-.81 1.78zm22.77.81c-.14-3.21-.46-4.49-.45-7.18.03-.58.21-2.96.19-2.52.04-.48.28-1 .01-1.45-.41-.75-1.63-.59-1.83.24-.33 1.82-.38 3.33-.34 4.73-1.31-.1-3.21-.03-4.86.22.19-.74.36-1.48.5-2.24.03-.91.6-2.06-.03-2.85-.59-.63-1.74-.15-1.71.71-.07.98-.3 2.43-.73 4.01-.3.96-.81 2.46.69 2.59 1.86-.27 2.35-.51 4.21-.45.65-.08 1.38.06 2.05.02.08 1.02.18 2.04.22 3.14.2.87-.09 2.1.35 2.82.38.57 1.33.49 1.65-.1.26-.74.07-.73.08-1.69zm19.58-7.23c.33-.6.6-1.36.53-2.07.12-.5-.12-1.1-.68-1.23-1.98-.55-4.23-1.45-6.23-.61-1.82.68-3.74 3.06-2.24 4.88.39.57.95.9 1.57 1.14-1.22.54-2.41 1.24-3 2.43-.79 1.87.48 4.22 2.43 4.69 2.8.17 4.78.14 6.68-1.63 1.26-1.5.79-3.86-.62-5.1-.18-.15-.37-.29-.57-.43.77-.5 1.49-1.14 2.13-2.07zm-3.23 3.7c.9.89.79.66 1 1.52-.01.65.06.33-.14.97-1.18 1.07-2.03 1.15-4.84 1.09l-.12-.03c-.05-.03-.14-.07-.22-.12-.06-.07-.32-.32-.41-.43-.02-.03-.04-.04-.05-.06-.09-.13-.17-.28-.24-.42-.04-.49-.32-1.02 1.09-1.8.9-.55 1.9-.9 2.91-1.31.35.18.85.49 1.02.59zm.08-3.35c-.32.21-.68.4-1.05.57-.26-.1-.51-.2-.78-.28-1.48-.45-1.55-.28-2.09-.9-.03-.05-.07-.11-.11-.17v-.03c.01-.67 1.27-1.71 2.24-1.81 1.29.07 1.9.2 3.45.65-.05.17-.11.33-.16.5-.14.24-.72.98-1.5 1.47z"/><path d="M143.21 21.05c-.36-.22-.79-.1-1.18-.16h-.01c-.37-.12-.75-.17-1.13-.21-3.16-.74-7.93.26-12.18.23-6.75.4-13.52.34-20.29.29-5.26-.49-8.88.59-13.8.64-4.16-.07-9.65.22-12.86-.3-4.92.06-9.85-.14-14.76.1-3.26.2-6.52-.23-9.79-.1-2.06-.07-4.57.08-5.8 1.98-.78 1.01-.52 2.41-.45 3.6.22 1.04.41 1.2.4 1.78.22 3.49 1.56 6.99.23 10.06-1.66 2.28-4.91 1.9-8.84 2.13-3.68.31-5.7.27-8.8-.27-2.83-.26-5.67-.26-8.51-.23-4.64.35-10.17 1-15.46.94-2.47.35-5.32-.04-8.4.08-.97.35-.69 1.96.39 1.91 6.34.36 10.66-.09 16.68-.32 4.14-.39 6.23-.73 10.54-.62 1.66.01 4.18.16 4.98.28 1.46.35 3.22.33 3.93.41 1.83.14 3.68-.17 5.51-.22 2.48-.09 3.53-.03 5.76-.5 6.94-1.36 4.39-9.44 4.17-12.54-.18-1.09-.08-1.23-.39-2.58-.36-.73-.21-.95-.23-2.5.02-.09.05-.2.1-.26-.06.24-.16.29.03.05.05-.07.1-.14.14-.21.05-.05.24-.26.34-.34.43-.25 1.46-.71 2.84-.62 3.33-.09 6.65.16 9.98.16 3.19-.29 6.41-.11 9.61-.16 3.67-.08 6.01.07 9.44.31 6.68.07 13.17.01 18.54-.77 6.08.13 12.16.18 18.25.14 2.8-.19 5.61-.25 8.42-.36 2.8-.2 5.05-.38 7.34-.42.61.01 1.22-.01 1.83.01.29.07.59.13.88.19.05.02.22.04.35.05.7.13 1.43.37 2.13.13.68-.26.77-1.4.07-1.78zM78.02 72.96c-.33-.98-.87-2.04-1.77-2.59.51-.54.92-1.15 1.06-1.88.14-1.04-.12-2.14-.63-3.05-.4-.55-.97-.98-1.54-1.34-1.77-.71-3.87-.07-5.07 1.38-.65.74-1.12 1.61-1.58 2.47-.18.32-.36.67-.25 1.05.2.83 1.42.99 1.83.24 1.4-2.56 1.92-3.47 3.75-3.4.11 0 .22.01.33.02.02 0 .04.01.07.02.02.01.05.03.09.05.09.08.31.26.4.34.1.07.18.16.27.25.04.08.11.19.16.3.02.11.14.57.2.85 0 .07.01.32 0 .52-.01.02-.01.05-.03.11 0 .01 0 .01-.01.03-.03.06-.06.12-.09.17-.05.06-.07.1-.1.13-.46.52-.95 1.01-1.46 1.48-.06.02-.11.07-.19.13-.58.17-1.01.5-1.07 1.13.1 1.1 1.04 1.12 1.81.75.07 0 .2 0 .49-.02.12-.01.39 0 .52-.01 0 0 .01 0 .01.01.82.9 1.01 1.35.91 3.11-.01.07-.04.15-.06.22-.13.3-.28.6-.42.9-.02.04-.03.08-.05.11-.01.01-.03.04-.06.1 0 .01 0 .01-.01.01-.03.04-.07.09-.16.19-.44.77-1.91.64-2.73.7-1.2-.34-2.16-.86-3.04-1.77-.04-.14-.16-.46-.23-.56-.41-.76-1.63-.59-1.83.24-.17.29.31 1.27.07.67.12.45.34.86.67 1.19 1.09 1.02 2.44 1.81 3.89 2.17 1.25.1 2.61.07 3.77-.48 1.87-1.42 2.56-3.35 2.08-5.94zm19.13-.15c-.38-1.19-1.54-1.89-2.66-2.3-.69-.14-1.41-.13-2.11-.12-.66.08-1.28.37-1.82.78.86-1.34 2.6-3.16 4.17-4.69.92-.92-.48-2.33-1.41-1.41-2.31 2.44-5.39 4.89-5.58 8.5-.01 1.89.29 2.74 1.37 3.98 1.67 1.26 4.05 1.55 5.89.49.74-.37 1.52-.85 1.89-1.61.55-1.13.82-2.44.26-3.62zm-4.25 3.88c-.3.17-2.35-.33-2.54-.73-.22-.24-.49-.77-.59-1.49.29.05.6-.01.84-.27.35-.66 1.2-1.67 1.76-1.78.05-.01.08-.02.12-.03.15-.01.3 0 .45 0 .65.01.93.02 1.04.06.14.06.28.13.42.2.09.04.29.17.42.26.12.1.23.2.33.32.04.07.08.15.11.21.01.01.01.03.02.04.21.62.21.75.21.85v.02c-.02.16-.07.32-.12.47-.25 1.07-.82 1.37-2.47 1.87zM77.82 92.01c-.33-.64-.83-1.2-1.44-1.61.04-.05.08-.09.12-.14.9-1.08 1.09-2.6.71-3.93-.74-1.81-2.86-1.98-4.51-1.44-1.79.69-3.3 2.23-4 4-.2 1.04 1.35 1.57 1.85.64 1.84-3.46 4.75-3.22 4.81-2.39.17 1.53-.43 1.93-.89 2.42-.76.42-.46.28-1 .48-.02 0-.03.02-.05.02-.03.01-.06.01-.1.02 0 0 0 .01.01.02-.25.08-.48.21-.6.44-.34.54-.02 1.31.6 1.47.79.08.72-.13 1.62-.09h.04l.1.03c.03.02.07.04.11.06.26.18.09.03.59.5.44.47.92 2.4.18 3.31-.13.14-.46.51-.66.69-.07.05-.18.13-.26.17-.16.02-1.84.56-2.48.36.54.12-.58-.11-1.06-.29-.1-.06-.52-.29-.65-.36-.43-.34-.79-.86-1.37-.86-.64-.02-1.14.65-.96 1.27.56 1.05 1.8 1.65 2.9 2.03 1.54.47 3.22.17 4.68-.43.91-.6 1.73-1.47 2.08-2.52.28-1.28.19-2.71-.37-3.87zm19.22.02c-.53-.71-1.34-1.43-2.12-1.85-1.25-.6-2.67-.52-3.92 0 .74-.91 1.96-2.3 2.8-3.2.33-.44.91-.8.91-1.4.03-.86-1.12-1.34-1.71-.71-2.28 2.72-5.6 5.32-5.44 9.21.04.74.34 1.43.79 2-.01-.01.03.05.13.17.74 1.06 1.83 1.88 3.07 2.25 2.23.27 4.63-1.17 5.62-3.15a3.73 3.73 0 0 0-.13-3.32zM95.49 94c.14 1.32-3.02 3-3.7 2.48-1.44-.76-2.13-1.61-2.19-2.69 1-.59.78-1.02 1.73-1.52.78-.57 1.55-.53 2.13-.48 1.06.27.64.24 1.83 1.2.03.05.06.11.09.16.04.11.07.23.09.34.01.16.03.4.02.51zm.59-83.83c-.26-.15-.52-.29-.79-.4.3-.36.6-.73.93-1.06.94-1.16.81-2.92.02-4.12-.86-1.04-2.2-1.72-3.56-1.59-2.54.12-4.25 2.24-5.3 4.37-.65 1.13 1.06 2.13 1.73 1.01.59-1.07 1.15-2 1.58-2.42a.7.7 0 0 1 .1-.08c.07-.05.17-.12.24-.16.33-.22.68-.4 1.03-.58 1.23-.25 1.18-.28 2.16.28.52.37.52.4.66 1.25.22.73-1.33 1.83-1.94 2.78-.11.07-.18.12-.25.17-.6.13-1.3.47-1.29 1.17.01 1.01 1.23 1.26 1.95.77.02-.01.03-.03.05-.04.87-.18.49-.18 1.73.41.05.08.11.17.15.25.03.15.25.93.32 1.31-.01.16-.01.52-.01.74-.17.38-.63 1.36-1.35 1.92-.49.42-1.35.82-2.86.71-1.06-.14-1.37-.05-2.26-1.11l-.02-.02c-.01-.02-.02-.03-.05-.06-.2-.35-.37-.78-.82-.87-.62-.19-1.27.32-1.27.96.03.56.42 1.03.76 1.44 1.46 1.91 4.33 1.98 6.44 1.29 1.77-.79 3.35-2.61 3.44-4.6-.1-1.3-.29-3-1.52-3.72zm5.71 90.5c-7.1.95-18.63.1-27.6.61-4.02.07-8.09-.18-12.08.24-.99.35-.67 1.95.39 1.91 7.51-.22 15.01-.28 22.51-.31 5.76-.07 12.37.23 17.23-.51 1.85-.21 1.31-2.65-.45-1.94zm-4.91 6.39c-.03-.01-.06-.01-.08-.02-.15-.35-.48-.62-.9-.61-1.93-.04-3.99.11-5.57 1.34-2.14 1.91-3.67 5.22-2.39 8.01 1.35 2.56 4.38 3.77 6.93 2.12 1.48-.78 2.92-1.74 3.74-3.25 1.04-2.59 1.22-6.23-1.73-7.59zm.28 5.37c-.21 1.05-.18 1.14-.59 1.71-.14.16-.65.76-.81.87-.75.54-1.57.98-2.38 1.42-.3.12-.61.19-.93.25h-.15c-1.3-.34-1.15-.21-1.78-.78-1.05-1.14-1.22-1.7-.93-3.21.13-.93.46-1.43 1.27-2.54.78-1.16 1.69-1.54 3.39-1.69.41-.08.88-.01 1.32-.02 0 .01 0 .02.01.02.09.25.53.44.69.49.11.07.25.2.57.54.09.16.28.47.36.6.03.09.05.2.07.27v.01c.06 1.22.09 1.08-.11 2.06zm18.93 4.3c.04.1.06.15 0-.01-.01-.24-.01-.47-.02-.71-.46-2.93.29-5.92.25-8.82-.36-1-1.95-.67-1.91.39-.13 1.07-.24 2.13-.32 3.2-.1 0-.21.01-.3.01-1.28.01-2.57.07-3.83.32.3-1.24.62-2.47.8-3.73.1-.38-.03-.83-.36-1.05-.52-.45-1.41-.14-1.57.52-.27 1.86-.83 3.67-1.19 5.52-.16.48-.06 1.07.41 1.33.39.21.9.17 1.21-.16.02-.02.03-.04.05-.06 1-.71 2.71-.58 4.68-.69-.04 1.45-.01 2.91.15 4.36.15 1.11 1.67 1.41 2.03.27.05-.23.02-.46-.07-.67-.01 0-.01-.01-.01-.02zm3.74 13.32c-.14-1.05-.72-2.02-1.4-2.81-.5-.53-1.02-1.11-1.78-1.22a.926.926 0 0 0-.78-.39c-1.31-.04-2.73-.18-3.95.4-2.55 1.55-4.59 4.72-3.83 7.77.31 1.73 2.77 3.14 3.44 3.28 1.49.67 1.95.93 3.48.35 1.15-.46 2.3-1.01 3.05-2.04 1.13-1.57 1.95-3.37 1.77-5.34zm-3.15 3.77c-.47.73-.66.95-1.57 1.38-.82.36-.5.28-1.34.54-.56-.01-2.33-.75-3.08-1.42-2.21-1.86.78-6.15 2.46-6.64.67-.1 1.35-.1 2.02-.08.31.26.74.3 1.13.4 1.7 1.28 2.22 3.27.38 5.82zm2.65-125.6c-.41-.9-1.04-1.69-1.69-2.43-.42-.52-1.06-.68-1.53-.5-1.9-.07-3.81.18-5.48 1.15-.5.26-1.04.48-1.34.98a8.404 8.404 0 0 0-1.38 3.83c-.09 1.02-.22 2.1.31 3.03.83 2.07 3.3 3.54 5.52 3.16 1.6-.19 3.01-1.06 3.92-2.38.7-.85 1.41-1.73 1.65-2.83.25-1.3.36-2.72.02-4.01zm-1.83 2.69c-.05.68-.14 1.07-.41 1.57-1.21 1.75-1.8 2.8-4 3.06-.96.12-3.38-1.28-3.26-2.93-.04-1.68.53-3.25 1.16-4.12.21-.05 1.74-.92 2.42-1.05.04-.04 1.61-.18 2.51-.16.13 0 .26.01.39.02.45.52.34.34.7.91.43.73.39.43.5.99.01.28.02 1.43-.01 1.71zm3.65 130.5c-2.07.32-6.18-.22-9.18-.32-4.73.02-9.46.45-14.19.45-5.05-.24-10.1.04-15.15.28-.51.05-1.1-.07-1.49.33-.62.59-.16 1.74.71 1.71 4.38-.19 8.76-.45 13.14-.42 4.79.32 9.6-.17 14.39-.28 3.83-.33 9.13.71 12 .25 2.11.18 1.82-2.48-.23-2zm-4.29 15.94c-.15-1.34-.17-1.55-.15-3.1.03-2.6-.09-5.21 0-7.81 0-.26-.11-.52-.29-.71-.59-.63-1.74-.16-1.71.71-.06 1.9-.03 3.8-.01 5.7-.18 0-.35.01-.52-.01-1.21-.12-2.44-.23-3.65-.04-.21.03-.42.07-.64.11.2-1.09.36-2.19.51-3.29-.01-.83.54-1.86-.07-2.56-.59-.63-1.74-.15-1.71.71-.24 1.86-.3 2.91-.73 5.07-.29 1.01-.3 2.2 1.05 2.24 1.71-.19 2.03-.45 3.68-.37.68.01 1.4.17 2.09.16v1.25c-.03 1.23.13 1.17.15 2.13 0 .42-.04.89.3 1.21 1.09.85 1.93-.26 1.7-1.4zm19.63-8.16c-.01.01-.01.02-.02.02-.02.03-.04.06-.06.08.02-.03.05-.05.08-.1z"/><path d="M137.6 154.31c-.49-1.39-1.61-2.37-3.33-2.95.76-.55 1.52-1.17 2.21-2.14.11-.15.29-.4.35-.5.13-.21.16-.47.1-.71.5-.41.52-1.31-.11-1.65-1.67-.85-3.72-1.25-5.5-.52-1.47.8-2.88 2.31-2.99 3.99.16 1.19.88 1.89 1.82 2.35-.19.21-.39.42-.55.65-1.63 2.1-.32 4.17 1.62 5.44 1.39.59 3.36.54 4.76-.01.86-.41 1.42-1.33 1.72-2.21.14-1.09.03-.86-.1-1.74zm-4.3-6.84c.64-.06 1.26.13 1.74.3-.01.02-.03.04-.04.06-.02.13-1.04 1.34-1.35 1.51-.64.43-1.28.87-1.89 1.34-.38-.1-.62-.17-.55-.15-.17-.02-.76-.61-.84-.67-.01-.02-.03-.04-.04-.06 0-.01-.01-.02-.01-.03.05-.14.2-.53.58-1.15.55-.43 1.04-1.2 2.4-1.15zm1.69 9.04c.08.14-2.58.19-2.51.09-.09-.01-.17-.03-.23-.05-.08-.05-.17-.11-.24-.16-.38-.3-.67-.68-.99-1.04-.05-.07-.1-.17-.14-.24 0-.01-.01-.02-.01-.03-.01-.16-.01-.31 0-.47 0-.01 0-.01.01-.02.01-.02.01-.03.02-.05.07-.14.19-.39.3-.56.32-.44.66-.79 1.02-1.11.63.16 1.25.31 1.79.5 2.13.88 2.08 2.54.98 3.14z"/><path d="M136.42 149.29c-.06.07-.05.06 0 0zm-18.95 28.17c-.15-1.51-.32-3.03-.42-4.55-.17-2.6-.12-5.25-.27-7.82-.36-1-1.95-.67-1.91.39-.03 1.3-.01 2.59.03 3.89-.22.04-.45.09-.67.12-1.34.08-2.63.41-3.91.76.04-.29.09-.58.11-.69.17-1.08.3-2.17.42-3.25.58-1.69-1.65-2.43-1.92-.67-.23 1.95-.31 2.65-.64 4.71-.17.6-.31 2.44 1.49 2.12 1.74-.42 2.85-.86 4.1-.93.18 0 .76-.09 1.09-.15.11 2.11.29 4.21.51 6.31-.03.86 1.12 1.34 1.71.71.25-.27.34-.61.28-.95zm19.76-9.12c.17-.41.37-.89.28-1.33.23-.52.04-1.25-.62-1.4-1.65-.56-3.4-.74-5.11-.38-.87.07-1.62.51-2.21 1.15-1.19 1.1-1.48 3.3-.28 4.5.38.33.81.56 1.27.75-.36.32-.69.66-.99 1.04-2.83 3.66 1.36 6.6 4.94 5.77 2.97-.3 3.4-3.19 2.01-5.4-.44-.86-1.11-1.46-1.88-1.91.44-.29.87-.57 1.26-.91.49-.6.97-1.2 1.33-1.88zm-4.61 8.19c-.71-.14-.53-.11-1.36-.59-.29-.2-.14-.06-.51-.43-.1-.29-.2-.15.01-.93.49-.88.32-.66.92-1.32.04-.04.08-.07.1-.09.33-.26.67-.5 1.02-.74.29.11.54.23 1.12.56 1.05 1.1 1.37 1.65 1.36 2.86-.01.02-.01.05-.02.08-.03.06-.07.11-.11.16l-.07.07c-.75.42-1.32.47-2.46.37zm1.94-7.8-.14.14c-.63.46-1.29.89-1.95 1.32-.36-.12-.72-.23-1.07-.35-.82-.45-1.05-.35-.79-1.39.04-.14.08-.29.13-.43.17-.18.35-.33.53-.51.04-.04.08-.07.12-.1.05-.04.11-.07.16-.1.18-.04.63-.16.78-.16.28-.07.34-.04 1.13-.11.33-.02.66-.02.98.02.36.04.71.14 1.05.25-.01.02-.01.03-.02.05-.07.14-.14.27-.22.4-.08.15-.57.81-.69.97zm7.81 12.58c-.65-.55-1.61-.2-2.39-.3-1.69-.08-3.53-.32-5.81-.02-2.05.13-4.09-.08-6.13-.13-2.32.04-4.63.17-6.95.22-1.61.3-3.22.12-4.85.09-4.43.18-8.9-.55-13.28.35-1.24.35-.74 2.27.53 1.93 2.08-.43 4.35-.5 7.04-.28 2.69.06 5.39-.11 8.08.11 2.73-.23 5.46-.27 8.19-.41 1.97-.09 3.93.2 5.9.15 1.64.01 3.27-.23 4.91-.16.86.03 2.46.22 4.04.16.87.03 1.35-1.12.72-1.71zm-6.05 4.76c-.43-.11-.95-.28-1.38-.1-.03.01-.05.03-.07.04-3.35.12-6.09 1.7-6.64 5.38-.23 1.45-.17 3.06.7 4.31 1.59 2.05 4.63 2.73 6.95 1.56 1.67-.94 2.76-2.43 3.11-4.79.32-3.12-.43-5.69-2.67-6.4zm.71 5.41c-.02 1.11.01 1.01-.41 2.17-.84 2.29-4.15 3.1-6.06.89-.75-1.12-.48-3.5.42-4.85.04-.05.06-.08.08-.11l.26-.32c.05-.09.2-.22.28-.31.01 0 .01-.01.02-.01.95-.48 1.01-.6 2.29-.85-.09.01-.18.02-.27.04.64-.18 1.5-.03 2.19-.13.07.04.19.12.41.27l.1.1c.04.05.11.14.17.22.11.16.21.34.29.52.31 1.09.21 1.09.23 2.37zm-2.31-185.9c-.29 1.42-.52 2.85-.67 4.3-.35-.02-.72.03-1.07.07-.96.07-1.95.12-2.91.3.02-.11.03-.21.05-.32.18-1.17.4-2.34.55-3.52.06-.48.21-1.04-.2-1.42-.59-.63-1.74-.15-1.71.71-.14 1.25-.42 2.67-.68 4.5-.05.55-.3 1.09-.2 1.64.15.56.77.89 1.32.72 1.16-.51 2.65-.52 4.72-.69-.03.7-.03 1.4 0 2.1.16.99-.48 2.55.61 3.1 1.6.47 1.4-1.33 1.39-2.37-.1-3.34.15-5.74.74-8.58.33-1.27-1.58-1.8-1.94-.54z"/></svg>