<svg xmlns="http://www.w3.org/2000/svg" width="298.875" height="298.875" viewBox="0 0 79.077 79.077"><path style="opacity:1;vector-effect:none;fill:none;fill-opacity:1;stroke:#c8c8c8;stroke-width:.5;stroke-linecap:round;stroke-linejoin:miter;stroke-miterlimit:4;stroke-dasharray:none;stroke-dashoffset:0;stroke-opacity:1" d="M18.442 11.556h11.225v11.225H18.442zm11.225 0h11.225v11.225H29.667zm11.225 0h11.225v11.225H40.892zm11.226 0h11.225v11.225H52.118zm11.225 0h11.225v11.225H63.343zm11.225 0h11.225v11.225H74.568zm11.226 0h11.225v11.225H85.794zM18.442 22.781h11.225v11.225H18.442zm11.225 0h11.225v11.225H29.667zm11.225 0h11.225v11.225H40.892zm11.226 0h11.225v11.225H52.118zm11.225 0h11.225v11.225H63.343zm11.225 0h11.225v11.225H74.568zm11.226 0h11.225v11.225H85.794zM18.442 34.007h11.225v11.225H18.442zm11.225 0h11.225v11.225H29.667zm11.225 0h11.225v11.225H40.892zm11.226 0h11.225v11.225H52.118zm11.225 0h11.225v11.225H63.343zm11.225 0h11.225v11.225H74.568zm11.226 0h11.225v11.225H85.794zM18.442 45.232h11.225v11.225H18.442zm11.225 0h11.225v11.225H29.667zm11.225 0h11.225v11.225H40.892zm11.226 0h11.225v11.225H52.118zm11.225 0h11.225v11.225H63.343zm11.225 0h11.225v11.225H74.568zm11.226 0h11.225v11.225H85.794zM18.442 56.457h11.225v11.225H18.442zm11.225 0h11.225v11.225H29.667zm11.225 0h11.225v11.225H40.892zm11.226 0h11.225v11.225H52.118zm11.225 0h11.225v11.225H63.343zm11.225 0h11.225v11.225H74.568zm11.226 0h11.225v11.225H85.794zM18.442 67.683h11.225v11.225H18.442zm11.225 0h11.225v11.225H29.667zm11.225 0h11.225v11.225H40.892zm11.226 0h11.225v11.225H52.118zm11.225 0h11.225v11.225H63.343zm11.225 0h11.225v11.225H74.568zm11.226 0h11.225v11.225H85.794zM18.442 78.908h11.225v11.225H18.442zm11.225 0h11.225v11.225H29.667zm11.225 0h11.225v11.225H40.892zm11.226 0h11.225v11.225H52.118zm11.225 0h11.225v11.225H63.343zm11.225 0h11.225v11.225H74.568zm11.226 0h11.225v11.225H85.794z" transform="translate(-18.192 -11.306)"/><path style="fill:none;stroke:#000;stroke-width:.5;stroke-linecap:butt;stroke-linejoin:miter;stroke-miterlimit:4;stroke-dasharray:1.5,1.5;stroke-dashoffset:0;stroke-opacity:1" d="m18.442 90.133 78.577-78.577" transform="translate(-18.192 -11.306)"/><text xml:space="preserve" style="font-style:normal;font-weight:400;font-size:4.23333311px;line-height:1.25;font-family:sans-serif;letter-spacing:0;word-spacing:0;fill:#0000c8;fill-opacity:1;stroke:none;stroke-width:.26458332" x="31.372" y="31.85" transform="translate(-18.192 -11.306)"><tspan x="31.372" y="31.85" style="font-style:italic;font-size:5.29166651px;fill:#0000c8;fill-opacity:1;stroke-width:.26458332">P</tspan></text><text xml:space="preserve" style="font-style:normal;font-weight:400;font-size:4.23333311px;line-height:1.25;font-family:sans-serif;letter-spacing:0;word-spacing:0;fill:#000;fill-opacity:1;stroke:none;stroke-width:.26458332" x="87.903" y="16.164" transform="translate(-18.192 -11.306)"><tspan x="87.903" y="16.164" style="font-style:italic;font-size:5.29166651px;stroke-width:.26458332">s</tspan></text><path style="fill:none;stroke:#000;stroke-width:.5;stroke-linecap:butt;stroke-linejoin:miter;stroke-miterlimit:4;stroke-dasharray:none;stroke-dashoffset:0;stroke-opacity:1" d="m29.667 34.007 22.45 22.45" transform="translate(-18.192 -11.306)"/><path style="fill:none;stroke:#0000c8;stroke-width:.5;stroke-linecap:butt;stroke-linejoin:miter;stroke-miterlimit:4;stroke-dasharray:none;stroke-opacity:1" d="m28.257 35.42 2.806-2.806m-.003 2.801-2.806-2.807" transform="translate(-18.192 -11.306)"/><path style="opacity:1;vector-effect:none;fill:none;fill-opacity:1;stroke:#000;stroke-width:.30000001;stroke-linecap:round;stroke-linejoin:miter;stroke-miterlimit:4;stroke-dasharray:none;stroke-dashoffset:0;stroke-opacity:1" transform="rotate(-45 -22.744 16.306)" d="M-3.069 75.144h1.63v1.63h-1.63z"/></svg>