<svg xmlns="http://www.w3.org/2000/svg" width="342.376" height="315.155" viewBox="0 0 90.587 83.385"><path style="fill:#ececec;stroke:#000;stroke-width:.5;stroke-linecap:butt;stroke-linejoin:miter;stroke-miterlimit:4;stroke-dasharray:none;stroke-opacity:1" d="M53.382 42.5v71.71h57.885V99.373H82.268V42.051z" transform="translate(-36.974 -36.458)"/><path style="opacity:1;vector-effect:none;fill:none;fill-opacity:1;stroke:#001400;stroke-width:.30000001;stroke-linecap:round;stroke-linejoin:miter;stroke-miterlimit:4;stroke-dasharray:none;stroke-dashoffset:0;stroke-opacity:1" d="M53.382 42.501h3.147v3.147h-3.147zm25.739-.45h3.147v3.147h-3.147zm-25.739 69.012h3.147v3.147h-3.147zm28.886-14.837h3.147v3.147h-3.147zm25.852 14.837h3.147v3.147h-3.147zm0-11.69h3.147v3.147h-3.147z" transform="translate(-36.974 -36.458)"/><path style="fill:none;stroke:#c80000;stroke-width:.69999999;stroke-linecap:butt;stroke-linejoin:miter;stroke-miterlimit:4;stroke-dasharray:none;stroke-opacity:1" d="m53.382 42.5 28.886-.45v57.323h28.999v14.837" transform="translate(-36.974 -36.458)"/><text xml:space="preserve" style="font-style:normal;font-weight:400;font-size:4.23333311px;line-height:1.25;font-family:sans-serif;letter-spacing:0;word-spacing:0;fill:#000;fill-opacity:1;stroke:none;stroke-width:.26458332" x="36.664" y="81.365" transform="translate(-36.974 -36.458)"><tspan x="36.664" y="81.365" style="stroke-width:.26458332">2,50 m</tspan></text><text xml:space="preserve" style="font-style:normal;font-weight:400;font-size:4.23333311px;line-height:1.25;font-family:sans-serif;letter-spacing:0;word-spacing:0;fill:#000;fill-opacity:1;stroke:none;stroke-width:.26458332" x="91.092" y="96.484" transform="translate(-36.974 -36.458)"><tspan x="91.092" y="96.484" style="stroke-width:.26458332">1,00 m</tspan></text><text xml:space="preserve" style="font-style:normal;font-weight:400;font-size:4.23333311px;line-height:1.25;font-family:sans-serif;letter-spacing:0;word-spacing:0;fill:#000;fill-opacity:1;stroke:none;stroke-width:.26458332" x="83.911" y="73.994" transform="translate(-36.974 -36.458)"><tspan x="83.911" y="73.994" style="stroke-width:.26458332">2,00 m</tspan></text><text xml:space="preserve" style="font-style:normal;font-weight:400;font-size:4.23333311px;line-height:1.25;font-family:sans-serif;letter-spacing:0;word-spacing:0;fill:#000;fill-opacity:1;stroke:none;stroke-width:.26458332" x="113.015" y="108.768" transform="translate(-36.974 -36.458)"><tspan x="113.015" y="108.768" style="stroke-width:.26458332">0,50 m</tspan></text><text xml:space="preserve" style="font-style:normal;font-weight:400;font-size:4.23333311px;line-height:1.25;font-family:sans-serif;letter-spacing:0;word-spacing:0;fill:#000;fill-opacity:1;stroke:none;stroke-width:.26458332" x="74.461" y="119.351" transform="translate(-36.974 -36.458)"><tspan x="74.461" y="119.351" style="stroke-width:.26458332">2,00 m</tspan></text><text xml:space="preserve" style="font-style:normal;font-weight:400;font-size:4.23333311px;line-height:1.25;font-family:sans-serif;letter-spacing:0;word-spacing:0;fill:#000;fill-opacity:1;stroke:none;stroke-width:.26458332" x="60.719" y="39.6" transform="translate(-36.974 -36.458)"><tspan x="60.719" y="39.6" style="stroke-width:.26458332">1,00 m</tspan></text></svg>