<svg version="1.1" id="Layer_1" xmlns="http://www.w3.org/2000/svg" x="0" y="0" width="289" height="357" style="enable-background:new 0 0 289 357" xml:space="preserve"><style>.st2{fill:#ff2a0c}</style><path class="st2" d="M55.27 76.66c-.22-1.32-1.51-1.61-1.95-.39C45.69 93.99 38 109.19 30.6 126.66c-4.53 10.58-8.87 21.34-13.1 32.17-1.89 4.22-3.66 8.54-5.59 12.72-.53 1.52-1.17 1.89-1.73 4.11-.17 1.27.86 2.3 1.58 1.61.88-1.24.72-1.7 1.25-2.48 2.49-5.38 4.81-10.95 7.23-16.41 1.26-3.19 2.29-6.59 3.7-9.65 5.01-12.36 11.38-27.18 16.12-37.91 4.09-8.03 7.74-16.6 11.58-24.91 1.17-2.68 2.37-5.32 3.53-8.02.14-.37.17-.82.1-1.23z"/><path d="M52.07 274.12c-.2 1.3-1.4 1.58-1.81.38-7.09-17.38-14.24-32.28-21.11-49.41-4.21-10.37-8.24-20.92-12.17-31.55-1.75-4.14-3.4-8.38-5.19-12.48-.5-1.5-1.09-1.85-1.6-4.03-.16-1.25.8-2.25 1.47-1.58.82 1.22.67 1.66 1.16 2.43 2.32 5.27 4.47 10.74 6.71 16.09 1.17 3.13 2.13 6.46 3.44 9.46 4.65 12.12 10.58 26.65 14.97 37.17 3.8 7.88 7.19 16.27 10.75 24.43 1.08 2.63 2.21 5.22 3.28 7.86.13.38.17.82.1 1.23zM80.65 66.98c.03-.86-1.12-1.34-1.71-.71-.69 1.01-.07 2.83-.16 4.04-.07 4.34.13 8.55-.74 12.26-.89-.97-2.1-2.42-2.68-3.36-2.46-3.98-4.67-8.11-6.87-12.24-.27-.46-.72-.55-1.11-.43-.58-.15-1.32.22-1.29.94.21 5.44.1 10.94.23 16.35.22.65 1.16.81 1.62.32.6-.84.21-2.03.32-3-.02-3.5.03-7.04-.09-10.54 1.55 2.87 3.12 5.72 4.77 8.53.99 1.69 2.19 3.25 3.51 4.7.48.51.97 1.14 1.64 1.38 3.19.8 2.49-11.81 2.69-14.01.05-1.41-.18-2.82-.13-4.23zm7.13 15.24c-.11-2.85-.33-5.7-.57-8.54-.13-.52-.02-1.17-.35-1.61-.6-.88-2.07-.14-1.75.87.38 2.54.46 6.73.77 10.1.59 1.24 2.2.45 1.9-.82zm-2.6-18.06c-1.31 0-1.3 1.99 0 2 1.3-.01 1.3-1.99 0-2zm23.62 9.72c-.44-.41-1.12-.33-1.68-.44-1.36-.11-2.72-.12-4.08-.09-.1-1.64-.19-3.27-.19-4.92-.04-1.33-.02-2.67-.02-4 0-.26-.11-.52-.29-.71-.59-.63-1.74-.16-1.71.71-.06 3.01.06 6 .23 9-1.46.09-2.92.23-4.38.38-.22-2.93-.42-5.88-.48-9.2.29-1.5-1.87-1.93-2-.36.05 3.28.25 6.68.49 9.78-.94.12-1.88.26-2.8.54-.37.1-.69.44-.72.83-.14.68.59 1.3 1.25 1.1.75-.17 1.56-.32 2.42-.46.05.64.11 1.28.16 1.88.12 1.88.16 3.78.43 5.65.04.3.14.63.41.8 1.01.74 1.93-.52 1.52-1.33-.08-.56-.17-1.73-.22-2.61-.09-1.6-.2-3.14-.32-4.66 1.41-.17 2.89-.29 4.35-.35.04.68.08 1.37.13 2.05.07 1.83.06 3.66.06 5.49-.02.12-.01.21.02.28-.09.77.72 1.68 1.68.89.17-.21.25-.46.29-.72v-.01c.08-.58-.07-1.23 0-1.79.05-2.09-.06-4.17-.19-6.26 1.84-.02 3.58.04 5.06.21.81-.04 1.16-1.13.58-1.68zm11.35 7.66c-.49-.14-.93.2-1.4.3-3.83 1.34-6.78.13-7.95-1.34-.03-.21-.27-1.14-.36-1.41.05-.12.14-.3.25-.6.03-.13.12-.33.25-.57.11.04.23.07.37.06 1.98.12 3.98-.23 5.86-.85.82-.25 1.79-.59 2.07-1.5.22-1.25-.68-2.61-1.84-3.06-1.89-.43-4.01-.2-5.63.92-1.7 1.66-3.11 3.99-3.35 5.67.2.89.4 2.19.97 2.76 2.28 2.53 5.92 2.97 9.06 2.07.76-.26 1.78-.3 2.29-.98.34-.55.02-1.31-.59-1.47zm-6.72-6.71c1.37-.57 1.69-.48 3.24-.39h.01c.03.01.03.01.05.01.02.01.04.02.06.04.1.08.18.17.26.26.02.04.05.08.08.13l.06.12c-.09.04-.17.06-.63.21-1.78.62-2.84.69-4.34.77.57-.73 1.1-1.29 1.21-1.15zm83.06-67.06c.03-.86-1.12-1.34-1.71-.71-.69 1.01-.07 2.83-.16 4.04-.07 4.34.13 8.55-.74 12.26-.89-.97-2.1-2.42-2.68-3.36-2.46-3.98-4.67-8.11-6.87-12.24-.27-.46-.72-.55-1.11-.43-.58-.15-1.32.22-1.29.94.21 5.44.1 10.94.23 16.35.22.65 1.16.81 1.62.32.6-.84.21-2.03.32-3-.02-3.5.03-7.04-.09-10.54 1.55 2.87 3.12 5.72 4.77 8.53.99 1.69 2.19 3.25 3.51 4.7.48.51.97 1.14 1.64 1.38 3.19.8 2.49-11.81 2.69-14.01.05-1.41-.18-2.82-.13-4.23zm7.13 15.24c-.11-2.85-.33-5.7-.57-8.54-.13-.52-.02-1.17-.35-1.61-.6-.88-2.07-.14-1.75.87.38 2.54.46 6.73.77 10.1.59 1.24 2.2.44 1.9-.82zm-2.6-18.07c-1.31 0-1.3 1.99 0 2 1.31 0 1.3-1.99 0-2zm23.62 9.73c-.44-.41-1.12-.33-1.68-.44-1.36-.11-2.72-.12-4.08-.09-.1-1.64-.19-3.27-.19-4.92-.04-1.33-.02-2.67-.02-4 0-.26-.11-.52-.29-.71-.59-.63-1.74-.16-1.71.71-.06 3.01.06 6 .23 9-1.46.09-2.92.23-4.38.38-.22-2.93-.42-5.88-.48-9.2.29-1.5-1.87-1.93-2-.36.05 3.28.25 6.68.49 9.78-.94.12-1.88.26-2.8.54-.37.1-.69.44-.72.83-.14.68.59 1.3 1.25 1.1.75-.17 1.56-.32 2.42-.46.05.64.11 1.28.16 1.88.12 1.88.16 3.78.43 5.65.04.3.14.63.41.8 1.01.74 1.93-.52 1.52-1.33-.08-.56-.17-1.73-.22-2.61-.09-1.6-.2-3.14-.32-4.66 1.41-.17 2.89-.29 4.35-.35.04.68.08 1.37.13 2.05.07 1.83.06 3.66.06 5.49-.02.12-.01.21.02.28-.09.77.72 1.68 1.68.89.17-.21.25-.46.29-.72v-.01c.08-.58-.07-1.23 0-1.79.05-2.09-.06-4.17-.19-6.26 1.84-.02 3.58.04 5.06.21.81-.04 1.16-1.14.58-1.68zm11.35 7.65c-.49-.14-.93.2-1.4.3-3.83 1.34-6.78.13-7.95-1.34-.03-.21-.27-1.14-.36-1.41.05-.12.14-.3.25-.6.03-.13.12-.33.25-.57.11.04.23.07.37.06 1.98.12 3.98-.23 5.86-.85.82-.25 1.79-.59 2.07-1.5.22-1.25-.68-2.61-1.84-3.06-1.89-.43-4.01-.2-5.63.92-1.7 1.66-3.11 3.99-3.35 5.67.2.89.4 2.19.97 2.76 2.28 2.53 5.92 2.97 9.06 2.07.76-.26 1.78-.3 2.29-.98.34-.54.02-1.3-.59-1.47zm-6.72-6.7c1.37-.57 1.69-.48 3.24-.39h.01c.03.01.03.01.05.01.02.01.04.02.06.04.1.08.18.17.26.26.02.04.05.08.08.13l.06.12c-.09.04-.17.06-.63.21-1.78.62-2.84.69-4.34.77.57-.73 1.1-1.3 1.21-1.15zM65.56 255.56c-.2-1.32-.36-2.65-.65-3.96-.07-.25-.24-.47-.46-.6-.73-.46-1.73.3-1.47 1.13.92 5.39 1.69 10.46 2.09 15.29.2 1.95-.17 3.98.11 5.91.52 1.16 2.14.53 1.91-.69.26-5.74-.68-11.41-1.53-17.08zm17.32 15.13c-.38-.79-.32-.38-.9-.97-1.92-2.05-4.25-3.9-6.98-4.61.24-.25.49-.5.73-.75 1.57-1.59 3.09-3.22 4.66-4.81.92-.92-.48-2.33-1.41-1.41-1.78 1.8-3.51 3.66-5.3 5.46-.22.3-.57.59-.91.89-.46-4.6-1.03-9.2-1.61-13.79-.35-1.25-2.27-.73-1.93.53.62 5.11 1.51 11.93 1.95 17.93.04.61-.21 1.36.27 1.84.44.46 1.26.35 1.57-.2.26-.57.11-1.26.14-1.88-.06-.71-.13-1.43-.2-2.14.17.02.62.07.86.1 3.2.57 4.68 2.35 7.26 4.7.74.81 2.09.16 1.8-.89zm4.62-1.03c-.08-6.67-1.41-13.26-2.36-19.84-.35-1.25-2.27-.73-1.93.53 1.05 6.97 2.16 12.63 2.34 19.71.23.96 1.69.96 1.93 0 .04-.1.03-.28.02-.4z"/><path d="M94.36 267.86c-1.15-1.4-2.43-2.5-4.03-3.2.94-1.07 1.83-2.42 3.03-3.66.59-.7 1.18-1.41 1.7-2.17.14-.23.17-.51.1-.77-.2-.83-1.42-.99-1.83-.24-1.03 1.46-3.99 4.76-4.94 6.06-.03.03-.07.06-.1.09-.35.2-.72.4-.83.82-.24 1.01.7 1.25 1.45 1.47.78.29 1.19.46 2.18 1.09 1.24 1.23 2.39 2.54 3.58 3.81.15.12.2.6 1 .68.53.01 1.01-.47 1-1-.12-.99-1.35-1.79-2.31-2.98zm14.7 1.01c-.84-.36-1.78.21-2.64.31-1.29.27-2.84.37-4.76.22h-.46c-1.78-1.46-2.56-3.2-2.4-3.95.07-.32.13-.65.2-.94.24.28.61.44 1.01.32 1.55-.23 8.21-1.22 6.77-5.03-2.13-2.29-7.21.66-8.99 2.42-.75 1.02-1.02 2.7-.94 3.95.22 2.11 1.84 3.75 3.41 5.03 2.55.59 5.35.24 7.89-.37.46-.1 1.02-.12 1.27-.59.28-.46.11-1.11-.36-1.37zm-4.13-7.87c-.06.11-.2.21-.53.45-1.05.7-3.31 1.21-4.17 1.34 1.42-.99 3.45-1.92 4.7-1.79zm-28.91 38.38c-.01-.06-.15-.49-.15-.64.01-.15-.12-2.73-.18-3.84.07-1.45-.09-2.87-.75-4.18-.48-1.34-1.5-2.72-3.06-2.72-2.02-.01-4 .29-5.7 1.45-.52.24-1 .56-1.4.94-.02-.06-.03-.12-.05-.18-.6-.88-2.07-.14-1.75.87.13.94.31 2.45.48 4-.09 1.25-.13 2.68.02 3.76.17.87-.07 2.39 1.09 2.58.5.1.94-.27 1.13-.71.41-1.11 0-2.36-.03-3.52-.1-.66-.16-1.33-.22-2 .09-1.54.28-2.93.58-3.28-.41.21 2.6-1.66 3.08-1.66.32-.16 2.79-.28 2.93-.23.36.05 1.02 1.01 1.52 2.72.19.51.09 1.14.13 2.25.14 1.58.03 3.21.35 4.77.11.43.34.89.81 1 .62.18 1.27-.32 1.27-.96 0-.15-.04-.29-.1-.42zm5.06-.61c0-.53-.06-1.06-.06-1.59-.11-2.3-.25-4.61-.5-6.9 0-.26-.11-.52-.29-.71-.59-.63-1.74-.16-1.71.71.4 3.06.43 7.21.63 9.37.31.86 1.66.78 1.96-.05.14-.28.11-.58-.03-.83zm-3.17-16.65c-1.31 0-1.3 1.99 0 2 1.31 0 1.3-1.99 0-2zm21.38 7.47c-.86-.33-1.86-.01-2.75.04-.5.09-1.01.17-1.51.24-.39-3.57-.92-7.11-1.65-10.58-.6-.87-2.07-.14-1.75.87.53 3.57 1.03 6.77 1.42 10-1.7.24-3.41.48-5.1.77-.35-3.9-.82-7.79-1.38-11.66-.35-1.25-2.27-.73-1.93.53.46 3.18.99 7.46 1.35 11.51-.7.15-1.39.31-2.07.5-.88.6-.14 2.07.87 1.75.45-.08.91-.17 1.37-.25.01.17.03.34.04.5.27 1.83-.12 4.1.59 5.77.45.66 1.56.43 1.75-.34.09-.76-.17-.93-.12-1.14-.07-1.72-.17-3.44-.31-5.15 1.72-.31 3.47-.6 5.14-.85.24 2.29.41 4.64.47 7.19-.03.86 1.12 1.34 1.71.71.42-.42.27-1.04.28-1.58-.13-2.19-.29-4.4-.5-6.6 1.12-.15 2.19-.28 3.15-.37.4 0 .83.03 1.12-.29.47-.44.36-1.26-.19-1.57zm9.48 9.22c-3.85.6-7.89.4-8.21-1.45-.07.2.48-2.19.84-2.71.03-.05.07-.1.1-.15.16.11.35.18.57.18 1.5-.29 7.22-.42 6.86-2.6-.12-.42-.21-.88-.52-1.21-.49-.48-1.2-.61-1.86-.64-1.53-.05-3.17-.19-4.47.78-1.96 1.3-3.04 3.47-3.45 5.73-.44 4.03 4.88 4.69 7.86 4.28.93-.16 2.42.01 3.16-.54.7-.63.05-1.87-.88-1.67zm71.27-170.27c-.2-1.32-.36-2.65-.65-3.96-.07-.25-.24-.47-.46-.6-.73-.46-1.73.3-1.47 1.13.92 5.39 1.69 10.46 2.09 15.29.2 1.95-.17 3.98.11 5.91.52 1.16 2.14.53 1.91-.69.26-5.75-.67-11.42-1.53-17.08zm17.33 15.12c-.38-.79-.32-.38-.9-.97-1.92-2.05-4.25-3.9-6.98-4.61.24-.25.49-.5.73-.75 1.57-1.59 3.09-3.22 4.66-4.81.92-.92-.48-2.33-1.41-1.41-1.78 1.8-3.51 3.66-5.3 5.46-.22.3-.57.59-.91.89-.46-4.6-1.03-9.2-1.61-13.79-.35-1.25-2.27-.73-1.93.53.62 5.11 1.51 11.93 1.95 17.93.04.61-.21 1.36.27 1.84.44.46 1.26.35 1.57-.2.26-.57.11-1.26.14-1.88-.06-.71-.13-1.43-.2-2.14.17.02.62.07.86.1 3.2.57 4.68 2.35 7.26 4.7.73.81 2.08.17 1.8-.89zm4.62-1.03c-.08-6.67-1.41-13.26-2.36-19.84-.35-1.25-2.27-.73-1.93.53 1.05 6.97 2.16 12.63 2.34 19.71.23.96 1.69.96 1.93 0 .04-.09.03-.28.02-.4z"/><path d="M208.84 140.83c-1.15-1.4-2.43-2.5-4.03-3.2.94-1.07 1.83-2.42 3.03-3.66.59-.7 1.18-1.41 1.7-2.17.14-.23.17-.51.1-.77-.2-.83-1.42-.99-1.83-.24-1.03 1.46-3.99 4.76-4.94 6.06-.03.03-.07.06-.1.09-.35.2-.72.4-.83.82-.24 1.01.7 1.25 1.45 1.47.78.29 1.19.46 2.18 1.09 1.24 1.23 2.39 2.54 3.58 3.81.15.12.2.6 1 .68.53.01 1.01-.47 1-1-.12-.98-1.34-1.79-2.31-2.98zm14.71 1.01c-.84-.36-1.78.21-2.64.31-1.29.27-2.84.37-4.76.22h-.46c-1.78-1.46-2.56-3.2-2.4-3.95.07-.32.13-.65.2-.94.24.28.61.44 1.01.32 1.55-.23 8.21-1.22 6.77-5.03-2.13-2.29-7.21.66-8.99 2.42-.75 1.02-1.02 2.7-.94 3.95.22 2.11 1.84 3.75 3.41 5.03 2.55.59 5.35.24 7.89-.37.46-.1 1.02-.12 1.27-.59.28-.46.11-1.11-.36-1.37zm-4.13-7.87c-.06.11-.2.21-.53.45-1.05.7-3.31 1.21-4.17 1.34 1.42-.99 3.45-1.92 4.7-1.79zm30.34 8.32c-.01-.06-.15-.49-.15-.64.01-.15-.12-2.73-.18-3.84.07-1.45-.09-2.87-.75-4.18-.48-1.34-1.5-2.72-3.06-2.72-2.02-.01-4 .29-5.7 1.45-.52.24-1 .56-1.4.94-.02-.06-.03-.12-.05-.18-.6-.88-2.07-.14-1.75.87.13.94.31 2.45.48 4-.09 1.25-.13 2.68.02 3.76.17.87-.07 2.39 1.09 2.58.5.1.94-.27 1.13-.71.41-1.11 0-2.36-.03-3.52-.1-.66-.16-1.33-.22-2 .09-1.54.28-2.93.58-3.28-.41.21 2.6-1.66 3.08-1.66.32-.16 2.79-.28 2.93-.23.36.05 1.02 1.01 1.52 2.72.19.51.09 1.14.13 2.25.14 1.58.03 3.21.35 4.77.11.43.34.89.81 1 .62.18 1.27-.32 1.27-.96 0-.15-.04-.29-.1-.42zm5.06-.61c0-.53-.06-1.06-.06-1.59-.11-2.3-.25-4.61-.5-6.9 0-.26-.11-.52-.29-.71-.59-.63-1.74-.16-1.71.71.4 3.06.43 7.21.63 9.37.31.86 1.66.78 1.96-.05.14-.28.11-.58-.03-.83zm-3.17-16.65c-1.31 0-1.3 1.99 0 2 1.3 0 1.3-1.99 0-2zm21.37 7.47c-.86-.33-1.86-.01-2.75.04-.5.09-1.01.17-1.51.24-.39-3.57-.92-7.11-1.65-10.58-.6-.87-2.07-.14-1.75.87.53 3.57 1.03 6.77 1.42 10-1.7.24-3.41.48-5.1.77-.35-3.9-.82-7.79-1.38-11.66-.35-1.25-2.27-.73-1.93.53.46 3.18.99 7.46 1.35 11.51-.7.15-1.39.31-2.07.5-.88.6-.14 2.07.87 1.75.45-.08.91-.17 1.37-.25.01.17.03.34.04.5.27 1.83-.12 4.1.59 5.77.45.66 1.56.43 1.75-.34.09-.76-.17-.93-.12-1.14-.07-1.72-.17-3.44-.31-5.15 1.72-.31 3.47-.6 5.14-.85.24 2.29.41 4.64.47 7.19-.03.86 1.12 1.34 1.71.71.42-.42.27-1.04.28-1.58-.13-2.19-.29-4.4-.5-6.6 1.12-.15 2.19-.28 3.15-.37.4 0 .83.03 1.12-.29.48-.44.37-1.25-.19-1.57zm9.49 9.23c-3.85.6-7.89.4-8.21-1.45-.07.2.48-2.19.84-2.71.03-.05.07-.1.1-.15.16.11.35.18.57.18 1.5-.29 7.22-.42 6.86-2.6-.12-.42-.21-.88-.52-1.21-.49-.48-1.2-.61-1.86-.64-1.53-.05-3.17-.19-4.47.78-1.96 1.3-3.04 3.47-3.45 5.73-.44 4.03 4.88 4.69 7.86 4.28.93-.16 2.42.01 3.16-.54.7-.63.05-1.88-.88-1.67z"/><path class="st2" d="m170.5 15.72-.03.03c-5.24 6.26-9.75 13.78-14.57 20.71-4.28 7.18-8.78 14.01-13.59 20.44-4.17 5.27-7.87 11.26-11.25 17.64-.9 1.33.47 3.45 1.41 2.08 5.05-9.98 11.56-17.91 17.6-26.52 3.72-5.51 7.01-11.6 10.85-16.92 2.91-4.23 5.74-8.58 8.75-12.66.73-.97 1.16-1.56 1.52-1.93.42-.49.97-.88 1.1-1.71.32-1.73-1.25-2.45-1.79-1.16z"/><path d="m170.5 136.51-.03-.03c-5.24-6.36-9.75-14-14.57-21.04-4.28-7.29-8.78-14.24-13.59-20.77-4.17-5.36-7.87-11.44-11.25-17.93-.9-1.35.47-3.5 1.41-2.11 5.05 10.15 11.56 18.2 17.6 26.95 3.72 5.59 7.01 11.78 10.85 17.2 2.91 4.3 5.74 8.72 8.75 12.86.73.98 1.16 1.59 1.52 1.96.42.5.97.89 1.1 1.74.32 1.75-1.25 2.48-1.79 1.17zM136.54 26.82c-.01-2.01-.24-4-.39-6-.08-1.59-.15-3.18-.16-4.77 0-.26-.11-.52-.29-.71-.59-.63-1.74-.16-1.71.71-.05 3.65.48 7.28.55 10.92.01.64-.14 1.53.62 1.8 1.39.41 1.46-.94 1.38-1.95zm8.12 4.01c-3.35.2-6.68.03-10.02 0-2.98.04-5.96.43-8.93.69-1.3 0-1.31 1.99 0 2 3.18-.28 6.36-.71 9.56-.69 3.41.03 6.87.26 10.26-.09 1.25-.64.43-2.18-.87-1.91zm-4.8 11.57c-1.96-.86-4.63-1.46-6.46-.03-.1.07-.2.15-.3.24.08-.3.18-.62.29-.97.82-1.4 2.98-4.38 4.32-6.1.47-.95-.9-1.87-1.62-1.09-1.69 2.17-3.5 4.34-4.7 6.83-.48 1.61-.95 3.5-.25 5.11.44.89 1.09 1.7 1.88 2.32.74.37 1.58.54 2.38.7 1.85.26 3.53.08 4.89-1.31.88-.96 1.21-2.33 1.14-3.6-.31-.82-.78-1.67-1.57-2.1zm-1.89 4.95c-.01 0-.01 0-.01.01-.14.04-.29.07-.43.09-.17.01-.7.06-.86.05-.14.02-.59-.02-.8-.03-.6-.1-1.19-.27-1.77-.45-.74-.71-1.12-1.29-1.25-1.96.47.15 1.05-.02 1.25-.54.04-.08.09-.15.14-.23.02-.02.03-.04.06-.06.04-.04.08-.07.13-.11.1-.07.21-.14.31-.22.59-.65 3.16-.32 4.27.33.01 0 .01.01.02.02l.04.04c.14.22.27.45.4.67 0 .02-.01.04-.01.06-.39 1.87-.21 1.31-1.49 2.33zM20.12 113.01c-.01-2.01-.24-4-.39-6-.08-1.59-.15-3.18-.16-4.77 0-.26-.11-.52-.29-.71-.59-.63-1.74-.16-1.71.71-.05 3.65.48 7.28.55 10.92.01.64-.14 1.53.62 1.8 1.38.41 1.46-.95 1.38-1.95zm8.12 4c-3.35.2-6.68.03-10.02 0-2.98.04-5.96.43-8.93.69-1.3 0-1.31 1.99 0 2 3.18-.28 6.36-.71 9.56-.69 3.41.03 6.87.26 10.26-.09 1.25-.63.43-2.18-.87-1.91zm-4.81 11.57c-1.96-.86-4.63-1.46-6.46-.03-.1.07-.2.15-.3.24.08-.3.18-.62.29-.97.82-1.4 2.98-4.38 4.32-6.1.47-.95-.9-1.87-1.62-1.09-1.69 2.17-3.5 4.34-4.7 6.83-.48 1.61-.95 3.5-.25 5.11.44.89 1.09 1.7 1.88 2.32.74.37 1.58.54 2.38.7 1.85.26 3.53.08 4.89-1.31.88-.96 1.21-2.33 1.14-3.6-.31-.81-.77-1.67-1.57-2.1zm-1.89 4.95c-.01 0-.01 0-.01.01-.14.04-.29.07-.43.09-.17.01-.7.06-.86.05-.14.02-.59-.02-.8-.03-.6-.1-1.19-.27-1.77-.45-.74-.71-1.12-1.29-1.25-1.96.47.15 1.05-.02 1.25-.54.04-.08.09-.15.14-.23.02-.02.03-.04.06-.06.04-.04.08-.07.13-.11.1-.07.21-.14.31-.22.59-.65 3.16-.32 4.27.33.01 0 .01.01.02.02l.04.04c.14.22.27.45.4.67 0 .02-.01.04-.01.06-.38 1.87-.2 1.32-1.49 2.33zm2.76 97.39c-.29-.58-.8-.96-1.31-1.33a2.67 2.67 0 0 0-1.18-.59c-1.49-.24-3.13-.11-4.52.52v-.25c.02-.61-.16-2.34-.26-3.1 1.47-.17 3.98-.56 5.45-.74 1-.35.67-1.96-.39-1.91-2.32.18-5.37.74-6.25.81-1.67.46-.57 2.38-.69 3.05.13 1.18.16 2.37.09 3.56-.05.14-.23 1.04.31 1.34.68.56 1.39-.08 1.89-.58.04-.03.09-.06.15-.09 1.28-.86 3.42-.8 3.93-.61 1.1.77 1.37.8 1.35 3.36-.18 1.47-1.84 3.01-3.7 2.44-.51-.06-1.79-1.27-2.59-1.39-.64-.02-1.14.65-.96 1.27.32.79 1.28 1.11 1.96 1.56 2.53 1.63 6.07.19 7.02-2.61.5-1.51.36-3.28-.3-4.71zm4.75 9.13c-.8-.08-.74.12-1.06.08-5.55.14-11.1.09-16.65.25-.49.05-1.07-.07-1.45.33-.63.59-.16 1.74.71 1.71 5.51-.23 11.02-.08 16.53-.28.74-.03 1.61.09 2.26-.33.66-.46.43-1.57-.34-1.76zm-6.1 10.26c-1.21-.52-2.66-.41-3.93-.16-.21.07-.4.17-.59.28.09-.19.18-.38.29-.58.75-1.56 1.53-2.76 2.26-3.63.3-.39.72-.81.55-1.35-.2-.83-1.42-.99-1.83-.24-1.49 1.93-4.55 5.94-3.69 9.47.63 2.01 2.46 3.23 4.52 3.35 1.64-.09 2.98-1.33 3.51-2.84.58-1.44.4-3.46-1.09-4.3zm-.64 3.18c-.13.58-.62 1.72-1.75 1.97-.19-.03-.65-.11-.79-.15-.13-.05-.18-.07-.21-.07-.01 0-.01 0-.01-.01-.15-.04-.63-.34-.82-.46-.42-.41-.68-.88-.8-1.42a.85.85 0 0 0 .32-.21c1.18-1.31 2.11-1.34 3.74-1.07 0 0 .01 0 .01.01.07.06.14.12.21.19.12.29.15.24.1 1.22zm121.52-146.66c-.29-.58-.8-.96-1.31-1.33a2.67 2.67 0 0 0-1.18-.59c-1.49-.24-3.13-.11-4.52.52v-.25c.02-.61-.16-2.34-.26-3.1 1.47-.17 3.98-.56 5.45-.74 1-.35.67-1.96-.39-1.91-2.32.18-5.37.74-6.25.81-1.67.46-.57 2.38-.69 3.05.13 1.18.16 2.37.09 3.56-.05.14-.23 1.04.31 1.34.68.56 1.39-.08 1.89-.58.04-.03.09-.06.15-.09 1.28-.86 3.42-.8 3.93-.61 1.1.77 1.37.8 1.35 3.36-.18 1.47-1.84 3.01-3.7 2.44-.51-.06-1.79-1.27-2.59-1.39-.64-.02-1.14.65-.96 1.27.32.79 1.28 1.11 1.96 1.56 2.53 1.63 6.07.19 7.02-2.61.5-1.52.36-3.29-.3-4.71zm4.75 9.12c-.8-.08-.74.12-1.06.08-5.55.14-11.1.09-16.65.25-.49.05-1.07-.07-1.45.33-.63.59-.16 1.74.71 1.71 5.51-.23 11.02-.08 16.53-.28.74-.03 1.61.09 2.26-.33.66-.45.43-1.57-.34-1.76zm-6.1 10.27c-1.21-.52-2.66-.41-3.93-.16-.21.07-.4.17-.59.28.09-.19.18-.38.29-.58.75-1.56 1.53-2.76 2.26-3.63.3-.39.72-.81.55-1.35-.2-.83-1.42-.99-1.83-.24-1.49 1.93-4.55 5.94-3.69 9.47.63 2.01 2.46 3.23 4.52 3.35 1.64-.09 2.98-1.33 3.51-2.84.58-1.45.4-3.47-1.09-4.3zm-.64 3.17c-.13.58-.62 1.72-1.75 1.97-.19-.03-.65-.11-.79-.15-.13-.05-.18-.07-.21-.07-.01 0-.01 0-.01-.01-.15-.04-.63-.34-.82-.46-.42-.41-.68-.88-.8-1.42a.85.85 0 0 0 .32-.21c1.18-1.31 2.11-1.34 3.74-1.07 0 0 .01 0 .01.01.07.06.14.12.21.19.12.3.16.24.1 1.22zm52.73 78.15c.03-.86-1.12-1.34-1.71-.71-.69 1.01-.07 2.83-.16 4.04-.07 4.34.13 8.55-.74 12.26-.89-.97-2.1-2.42-2.68-3.36-2.46-3.98-4.67-8.11-6.87-12.24-.27-.46-.72-.55-1.11-.43-.58-.15-1.32.22-1.29.94.21 5.44.1 10.94.23 16.35.22.65 1.16.81 1.62.32.6-.84.21-2.03.32-3-.02-3.5.03-7.04-.09-10.54 1.55 2.87 3.12 5.72 4.77 8.53.99 1.69 2.19 3.25 3.51 4.7.48.51.97 1.14 1.64 1.38 3.19.8 2.49-11.81 2.69-14.01.04-1.41-.19-2.82-.13-4.23zm7.13 15.24c-.11-2.85-.33-5.7-.57-8.54-.13-.52-.02-1.17-.35-1.61-.6-.88-2.07-.14-1.75.87.38 2.54.46 6.73.77 10.1.59 1.24 2.19.45 1.9-.82zm-2.61-18.06c-1.31 0-1.3 1.99 0 2 1.31-.01 1.31-1.99 0-2zm23.63 9.73c-.44-.41-1.12-.33-1.68-.44-1.36-.11-2.72-.12-4.08-.09-.1-1.64-.19-3.27-.19-4.92-.04-1.33-.02-2.67-.02-4 0-.26-.11-.52-.29-.71-.59-.63-1.74-.16-1.71.71-.06 3.01.06 6 .23 9-1.46.09-2.92.23-4.38.38-.22-2.93-.42-5.88-.48-9.2.29-1.5-1.87-1.93-2-.36.05 3.28.25 6.68.49 9.78-.94.12-1.88.26-2.8.54-.37.1-.69.44-.72.83-.14.68.59 1.3 1.25 1.1.75-.17 1.56-.32 2.42-.46.05.64.11 1.28.16 1.88.12 1.88.16 3.78.43 5.65.04.3.14.63.41.8 1.01.74 1.93-.52 1.52-1.33-.08-.56-.17-1.73-.22-2.61-.09-1.6-.2-3.14-.32-4.66 1.41-.17 2.89-.29 4.35-.35.04.68.08 1.37.13 2.05.07 1.83.06 3.66.06 5.49-.02.12-.01.21.02.28-.09.77.72 1.68 1.68.89.17-.21.25-.46.29-.72v-.01c.08-.58-.07-1.23 0-1.79.05-2.09-.06-4.17-.19-6.26 1.84-.02 3.58.04 5.06.21.81-.05 1.16-1.14.58-1.68zm11.34 7.65c-.49-.14-.93.2-1.4.3-3.83 1.34-6.78.13-7.95-1.34-.03-.21-.27-1.14-.36-1.41.05-.12.14-.3.25-.6.03-.13.12-.33.25-.57.11.04.23.07.37.06 1.98.12 3.98-.23 5.86-.85.82-.25 1.79-.59 2.07-1.5.22-1.25-.68-2.61-1.84-3.06-1.89-.43-4.01-.2-5.63.92-1.7 1.66-3.11 3.99-3.35 5.67.2.89.4 2.19.97 2.76 2.28 2.53 5.92 2.97 9.06 2.07.76-.26 1.78-.3 2.29-.98.35-.55.03-1.31-.59-1.47zm-6.71-6.71c1.37-.57 1.69-.48 3.24-.39h.01c.03.01.03.01.05.01.02.01.04.02.06.04.1.08.18.17.26.26.02.04.05.08.08.13l.06.12c-.09.04-.17.06-.63.21-1.78.62-2.84.69-4.34.77.56-.73 1.09-1.29 1.21-1.15zm-49.23 112.92c-.2-1.32-.36-2.65-.65-3.96-.07-.25-.24-.47-.46-.6-.73-.46-1.73.3-1.47 1.13.92 5.39 1.69 10.46 2.09 15.29.2 1.95-.17 3.98.11 5.91.52 1.16 2.14.53 1.91-.69.26-5.74-.67-11.42-1.53-17.08zm17.33 15.12c-.38-.79-.32-.38-.9-.97-1.92-2.05-4.25-3.9-6.98-4.61.24-.25.49-.5.73-.75 1.57-1.59 3.09-3.22 4.66-4.81.92-.92-.48-2.33-1.41-1.41-1.78 1.8-3.51 3.66-5.3 5.46-.22.3-.57.59-.91.89-.46-4.6-1.03-9.2-1.61-13.79-.35-1.25-2.27-.73-1.93.53.62 5.11 1.51 11.93 1.95 17.93.04.61-.21 1.36.27 1.84.44.46 1.26.35 1.57-.2.26-.57.11-1.26.14-1.88-.06-.71-.13-1.43-.2-2.14.17.02.62.07.86.1 3.2.57 4.68 2.35 7.26 4.7.73.81 2.08.17 1.8-.89zm4.61-1.03c-.08-6.67-1.41-13.26-2.36-19.84-.35-1.25-2.27-.73-1.93.53 1.05 6.97 2.16 12.63 2.34 19.71.23.96 1.69.96 1.93 0 .04-.09.04-.28.02-.4z"/><path d="M206.92 340.6c-1.15-1.4-2.43-2.5-4.03-3.2.94-1.07 1.83-2.42 3.03-3.66.59-.7 1.18-1.41 1.7-2.17.14-.23.17-.51.1-.77-.2-.83-1.42-.99-1.83-.24-1.03 1.46-3.99 4.76-4.94 6.06-.03.03-.07.06-.1.09-.35.2-.72.4-.83.82-.24 1.01.7 1.25 1.45 1.47.78.29 1.19.46 2.18 1.09 1.24 1.23 2.39 2.54 3.58 3.81.15.12.2.6 1 .68.53.01 1.01-.47 1-1-.12-.98-1.35-1.79-2.31-2.98zm14.71 1.01c-.84-.36-1.78.21-2.64.31-1.29.27-2.84.37-4.76.22h-.46c-1.78-1.46-2.56-3.2-2.4-3.95.07-.32.13-.65.2-.94.24.28.61.44 1.01.32 1.55-.23 8.21-1.22 6.77-5.03-2.13-2.29-7.21.66-8.99 2.42-.75 1.02-1.02 2.7-.94 3.95.22 2.11 1.84 3.75 3.41 5.03 2.55.59 5.35.24 7.89-.37.46-.1 1.02-.12 1.27-.59.27-.45.1-1.1-.36-1.37zm-4.14-7.87c-.06.11-.2.21-.53.45-1.05.7-3.31 1.21-4.17 1.34 1.42-.99 3.45-1.92 4.7-1.79zm30.34 8.33c-.01-.06-.15-.49-.15-.64.01-.15-.12-2.73-.18-3.84.07-1.45-.09-2.87-.75-4.18-.48-1.34-1.5-2.72-3.06-2.72-2.02-.01-4 .29-5.7 1.45-.52.24-1 .56-1.4.94-.02-.06-.03-.12-.05-.18-.6-.88-2.07-.14-1.75.87.13.94.31 2.45.48 4-.09 1.25-.13 2.68.02 3.76.17.87-.07 2.39 1.09 2.58.5.1.94-.27 1.13-.71.41-1.11 0-2.36-.03-3.52-.1-.66-.16-1.33-.22-2 .09-1.54.28-2.93.58-3.28-.41.21 2.6-1.66 3.08-1.66.32-.16 2.79-.28 2.93-.23.36.05 1.02 1.01 1.52 2.72.19.51.09 1.14.13 2.25.14 1.58.03 3.21.35 4.77.11.43.34.89.81 1 .62.18 1.27-.32 1.27-.96a.842.842 0 0 0-.1-.42zm5.06-.61c0-.53-.06-1.06-.06-1.59-.11-2.3-.25-4.61-.5-6.9 0-.26-.11-.52-.29-.71-.59-.63-1.74-.16-1.71.71.4 3.06.43 7.21.63 9.37.31.86 1.66.78 1.96-.05.15-.28.11-.58-.03-.83zm-3.17-16.65c-1.31 0-1.3 1.99 0 2 1.31-.01 1.3-1.99 0-2zm21.38 7.47c-.86-.33-1.86-.01-2.75.04-.5.09-1.01.17-1.51.24-.39-3.57-.92-7.11-1.65-10.58-.6-.87-2.07-.14-1.75.87.53 3.57 1.03 6.77 1.42 10-1.7.24-3.41.48-5.1.77-.35-3.9-.82-7.79-1.38-11.66-.35-1.25-2.27-.73-1.93.53.46 3.18.99 7.46 1.35 11.51-.7.15-1.39.31-2.07.5-.88.6-.14 2.07.87 1.75.45-.08.91-.17 1.37-.25.01.17.03.34.04.5.27 1.83-.12 4.1.59 5.77.45.66 1.56.43 1.75-.34.09-.76-.17-.93-.12-1.14-.07-1.72-.17-3.44-.31-5.15 1.72-.31 3.47-.6 5.14-.85.24 2.29.41 4.64.47 7.19-.03.86 1.12 1.34 1.71.71.42-.42.27-1.04.28-1.58-.13-2.19-.29-4.4-.5-6.6 1.12-.15 2.19-.28 3.15-.37.4 0 .83.03 1.12-.29.47-.44.36-1.26-.19-1.57zm9.48 9.22c-3.85.6-7.89.4-8.21-1.45-.07.2.48-2.19.84-2.71.03-.05.07-.1.1-.15.16.11.35.18.57.18 1.5-.29 7.22-.42 6.86-2.6-.12-.42-.21-.88-.52-1.21-.49-.48-1.2-.61-1.86-.64-1.53-.05-3.17-.19-4.47.78-1.96 1.3-3.04 3.47-3.45 5.73-.44 4.03 4.88 4.69 7.86 4.28.93-.16 2.42.01 3.16-.54.7-.63.05-1.88-.88-1.67zm-112-126.01-.03.03c-5.24 6.26-9.75 13.78-14.57 20.71-4.28 7.18-8.78 14.01-13.59 20.44-4.17 5.27-7.87 11.26-11.25 17.64-.9 1.33.47 3.45 1.41 2.08 5.05-9.98 11.56-17.91 17.6-26.52 3.72-5.51 7.01-11.6 10.85-16.92 2.91-4.23 5.74-8.58 8.75-12.66.73-.97 1.16-1.56 1.52-1.93.42-.49.97-.88 1.1-1.71.31-1.72-1.25-2.45-1.79-1.16z"/><path d="m168.58 336.29-.03-.03c-5.24-6.36-9.75-14-14.57-21.04-4.28-7.29-8.78-14.24-13.59-20.77-4.17-5.36-7.87-11.44-11.25-17.93-.9-1.35.47-3.5 1.41-2.11 5.05 10.15 11.56 18.2 17.6 26.95 3.72 5.59 7.01 11.78 10.85 17.2 2.91 4.3 5.74 8.72 8.75 12.86.73.98 1.16 1.59 1.52 1.96.42.5.97.89 1.1 1.74.31 1.74-1.25 2.48-1.79 1.17zm-33.97-109.7c-.01-2.01-.24-4-.39-6-.08-1.59-.15-3.18-.16-4.77 0-.26-.11-.52-.29-.71-.59-.63-1.74-.16-1.71.71-.05 3.65.48 7.28.55 10.92.01.64-.14 1.53.62 1.8 1.39.42 1.47-.94 1.38-1.95zm8.13 4.01c-3.35.2-6.68.03-10.02 0-2.98.04-5.96.43-8.93.69-1.3 0-1.31 1.99 0 2 3.18-.28 6.36-.71 9.56-.69 3.41.03 6.87.26 10.26-.09 1.25-.63.42-2.18-.87-1.91zm-4.81 11.57c-1.96-.86-4.63-1.46-6.46-.03-.1.07-.2.15-.3.24.08-.3.18-.62.29-.97.82-1.4 2.98-4.38 4.32-6.1.47-.95-.9-1.87-1.62-1.09-1.69 2.17-3.5 4.34-4.7 6.83-.48 1.61-.95 3.5-.25 5.11.44.89 1.09 1.7 1.88 2.32.74.37 1.58.54 2.38.7 1.85.26 3.53.08 4.89-1.31.88-.96 1.21-2.33 1.14-3.6-.31-.81-.78-1.67-1.57-2.1zm-1.89 4.95c-.01 0-.01 0-.01.01-.14.04-.29.07-.43.09-.17.01-.7.06-.86.05-.14.02-.59-.02-.8-.03-.6-.1-1.19-.27-1.77-.45-.74-.71-1.12-1.29-1.25-1.96.47.15 1.05-.02 1.25-.54.04-.08.09-.15.14-.23.02-.02.03-.04.06-.06.04-.04.08-.07.13-.11.1-.07.21-.14.31-.22.59-.65 3.16-.32 4.27.33.01 0 .01.01.02.02l.04.04c.14.22.27.45.4.67 0 .02-.01.04-.01.06-.38 1.87-.2 1.32-1.49 2.33zm5.87 59.48c-.29-.58-.8-.96-1.31-1.33a2.67 2.67 0 0 0-1.18-.59c-1.49-.24-3.13-.11-4.52.52v-.25c.02-.61-.16-2.34-.26-3.1 1.47-.17 3.98-.56 5.45-.74 1-.35.67-1.96-.39-1.91-2.32.18-5.37.74-6.25.81-1.67.46-.57 2.38-.69 3.05.13 1.18.16 2.37.09 3.56-.05.14-.23 1.04.31 1.34.68.56 1.39-.08 1.89-.58.04-.03.09-.06.15-.09 1.28-.86 3.42-.8 3.93-.61 1.1.77 1.37.8 1.35 3.36-.18 1.47-1.84 3.01-3.7 2.44-.51-.06-1.79-1.27-2.59-1.39-.64-.02-1.14.65-.96 1.27.32.79 1.28 1.11 1.96 1.56 2.53 1.63 6.07.19 7.02-2.61.49-1.51.35-3.28-.3-4.71zm4.75 9.13c-.8-.08-.74.12-1.06.08-5.55.14-11.1.09-16.65.25-.49.05-1.07-.07-1.45.33-.63.59-.16 1.74.71 1.71 5.51-.23 11.02-.08 16.53-.28.74-.03 1.61.09 2.26-.33.66-.46.42-1.57-.34-1.76zm-6.1 10.26c-1.21-.52-2.66-.41-3.93-.16-.21.07-.4.17-.59.28.09-.19.18-.38.29-.58.75-1.56 1.53-2.76 2.26-3.63.3-.39.72-.81.55-1.35-.2-.83-1.42-.99-1.83-.24-1.49 1.93-4.55 5.94-3.69 9.47.63 2.01 2.46 3.23 4.52 3.35 1.64-.09 2.98-1.33 3.51-2.84.58-1.44.4-3.46-1.09-4.3zm-.65 3.18c-.13.58-.62 1.72-1.75 1.97-.19-.03-.65-.11-.79-.15-.13-.05-.18-.07-.21-.07-.01 0-.01 0-.01-.01-.15-.04-.63-.34-.82-.46-.42-.41-.68-.88-.8-1.42a.85.85 0 0 0 .32-.21c1.18-1.31 2.11-1.34 3.74-1.07 0 0 .01 0 .01.01.07.06.14.12.21.19.12.29.16.24.1 1.22z"/></svg>