<svg xmlns="http://www.w3.org/2000/svg" width="125.5" height="200.74" style="enable-background:new 0 0 125.5 200.74" xml:space="preserve"><path d="M15.78 25.23c0-.05.01-.11 0-.15a2.83 2.83 0 0 0-.09-.65c-.13-.37-.46-.57-.81-.6.07-.48-.19-1-.71-1.13-1.75-.6-3.8-.93-5.53-.1-2.1 1.17-3.8 3.73-3.11 6.19 1.03 3.55 4.84 3.98 7.5 1.88.21-.15.41-.31.59-.48-.01.65-.02 1.3-.01 1.94.07 1.87-.23 2.71-.18 4.85-.03.86 1.12 1.34 1.71.71.52-.58.21-1.44.3-2.14.04-1.12.21-1.45.17-2.91.01-1.8-.02-3.61.05-5.41-.01-.66.12-1.34.12-2zm-2.12.99c-.06 1.68-1.99 3.05-2.94 3.51-1.53.58-2.33.06-2.87-.64-1.15-1.49-.03-3.27 1.07-4.29 1.44-.99 2.07-.77 4.03-.38.29.09.59.22.89.24-.01.06-.03.12-.04.17h-.02c0 .04 0 .08-.01.12-.07.58.01 1.01-.11 1.27zm42.43 5.12c-.08-2.59-2.28-3.64-4.6-3.74-.96-.02-1.96.12-2.88.44 0-.83-.01-1.66-.06-2.49-.01-.05-.01-.08-.01-.12.51-.06 1.18-.15 1.41-.19.48-.06 2.16-.29 3.43-.36.44-.03.94.03 1.26-.32.63-.59.15-1.74-.71-1.71-1.95.06-4.55.48-5.66.61-1.82.03-1.96 1.12-1.72 2.08.01.3.08 2.14.05 2.56.07.71-.21 1.56.31 2.13.6.61 1.37.19 1.96-.2.04-.01.08-.03.11-.04 1.93-.65 3.26-.41 4.39.06.66.23.93 1.81.67 3.11-.5 1.41-1.99 2.68-3.29 2.17-.9-.26-1.14-.62-1.74-1.24-.61-.54-1.63-.01-1.61.79.13.98 1.17 1.6 1.96 2.06 3.59 1.89 7.38-1.94 6.73-5.6zm17.71-8.05c-.35-1-1.95-.67-1.91.39.09 1.73.27 3.46.4 5.18-.1.02-.19.05-.28.11-.12.06-.23.11-.35.17-.02.01-.03.01-.07.02h-.01c-.2.02-.41.02-.62.04-.8.09-2.14.4-3.06.61.24-1.86.28-3.74.38-5.61 0-.26-.11-.52-.29-.71-.59-.63-1.74-.15-1.71.71-.1 2.28-.19 4.56-.44 6.12-.4 1.81.83 1.92 2.84 1.37.95-.19 2.27-.52 2.44-.5.41-.01.86-.07 1.27-.2.01.32.03.63.02.95.01 1.3 0 2.61 0 3.91 0 .26.11.52.29.71.59.63 1.74.16 1.71-.71.07-4.19-.12-8.41-.61-12.56zm21.87 12.19c-.49-.25-1.06-.13-1.59-.16-1.16.03-2.34-.03-3.5.01.74-.93 1.53-2.02 1.96-2.73 1.55-2.13 2.37-5.1 1.27-7.61-.42-1.08-1.55-1.92-2.74-1.75-1.15.07-2.08.82-2.87 1.6-.8.73-1.56 1.54-1.88 2.6-.34 1.26 1.57 1.78 1.93.53.21-.7.84-1.26 2.09-2.36.67-.44.48-.33 1.12-.39 1.2.62 1.29 3.85-.6 6.3-1.22 1.93-1.92 2.74-3.56 4.47-.35.45-.19 1.17.31 1.44.63.32 1.35-.02 2.01-.08.41-.1 3.71-.02 5.23-.04.03.02.07.03.09.04.35.18.82.07 1.09-.21.51-.5.27-1.36-.36-1.66zm19.85-5.58c-.22.01-.44.04-.66.06.58-1.73 1.14-3.37 1.66-4.53.69-1.15-.15-2.15-1.41-1.68.31-.07-3.09.11-3.92.16-1.48.11-2.95.22-4.42.36-.26 0-.52.11-.71.29-.63.59-.16 1.73.71 1.71 2.49-.22 4.98-.43 7.48-.5-.48 1.25-1.04 2.85-1.57 4.42-.29.03-.58.07-.87.1-.58.12-1.36.02-1.69.62-.46.73.3 1.73 1.13 1.47.21-.03.47-.07.73-.1-.12.37-.24.73-.36 1.06-.38.88-.66 1.8-.98 2.7v.01c0 .01 0 0-.01.01-.34.55-.02 1.31.6 1.47 1.5.27 1.47-1.82 1.97-2.76.33-.86.66-1.8.99-2.74.49-.05 1-.09 1.52-.12.69.07 1.53-.19 1.51-1.02-.03-.92-.97-1.12-1.7-.99z"/><path d="M122.01 19.11c-.2-.18-.44-.3-.71-.29-1.66.01-3.33-.04-4.99.13-9.56.12-19.13.01-28.69.04-12.12.12-24.23.28-36.35.15-3.63-.18-7.26-.22-10.89-.32-2.74.12-5.73-.42-8.25.91-2.42 1.83-2.08 4.85-1.71 8.28.45 6.76.85 10.83-5.33 10.96-5.8.33-11.61.42-17.42.38-2.02.01-4.04-.09-6.05 0-.39 0-.78.24-.91.61-.3.61.23 1.41.91 1.39 6.01-.09 12.03.14 18.04-.17 1.74.04 3.47-.09 5.2-.19 1.88-.11 3.82-.36 5.37-1.51 4.7-3.73 1.01-13.6 2.14-16.76.64-1.85 2.13-1.93 6.2-1.89 6-.02 12 .41 18 .35 9.84.05 19.68-.04 29.52-.18 11.86-.1 23.78.27 35.6-.26.64-.23.82-1.17.32-1.63zM53.08 68.55c-1.42-.32-3.1-.22-4.48.41 0-.59 0-1.17-.01-1.76.02-.42-.07-1.27-.15-1.85.04-.01.07-.02.1-.02 2.36-.4 3.51-.48 6.01-.83.25-.07.47-.24.6-.46.46-.73-.3-1.73-1.13-1.47-1.69.25-4.47.48-6.88 1.02.04 0 .05-.01.08-.01-.16.03-.41.1-.48.2-.31.21-.43.62-.4.98.27 1.4.29 2.51.28 4.42.07.73-.17 1.57.16 2.24.39.7 1.4.61 1.77-.06l.01-.01c.08-.08.16-.16.25-.23.09-.06.22-.15.29-.19.22-.24 2.15-.62 2.25-.59.42-.08 1.43.2 1.6.24 1.99.81 1.26 4.49-.93 4.95-.14.04-.27.06-.41.08-.12.01-.29.03-.38.03-.35.07-2.1 0-1.49.05-.18.02-.77-.2-.91-.24-.45-.18-.88-.56-1.38-.4-.85.2-.99 1.46-.2 1.85 2.66 1.48 6.95 1.04 8.34-1.97 1.15-2.31.32-5.84-2.51-6.38zm22.26-5.38c-.59-.63-1.74-.16-1.71.71-.02 1.92 0 4.2.01 6.37H70.5c-.64 0-1.27 0-1.91-.01.21-1.38.43-2.76.59-4.15-.03-.83.43-1.88-.16-2.58-.59-.63-1.74-.15-1.71.71-.12 2.37-.35 3.37-.69 5.73-.04.57-.32 1.18-.03 1.72.66.97 2.11.42 3.11.57h3.94c0 1.99-.03 3.75-.13 4.86.04.69.91 1.09 1.49.73.81-.71.47-1.27.63-2.15.01-2.16 0-4.31 0-6.47v-5.34c.01-.26-.1-.51-.29-.7zm.68-52.89c-1.11-1.99-3.94-2.64-5.95-1.73-.15.1-.32.19-.5.29.02-.03.03-.06.04-.09 1.13-2.38 2.34-3.62 3.65-5.39.47-.95-.9-1.87-1.62-1.09-2.71 3.09-7.98 10.57-2.66 13.47 2.22.57 5.18.7 6.75-1.26.79-1.22.77-2.89.29-4.2zm-2.66 3.56c-1.26.38-2.55.32-3.88-.06-.52-.31-.85-1.36-.66-2.72.38.22.88.23 1.22-.13.98-1.02 3.01-1.04 3.97-.05.37.51.28.16.32 1.53.03.95-.47 1.11-.97 1.43zm-19 74.88c-.92-.68-2.16-.76-3.27-.75-.73.02-1.52.1-2.25.33.01-.95-.05-1.9-.14-2.83-.02-.03-.02-.15-.02-.28 1.6.09 3.19.24 4.79.32.26 0 .52-.11.71-.29.63-.59.15-1.74-.71-1.71-1.47-.08-2.93-.2-4.4-.31-.91-.12-2.14.01-2.32 1.1-.18 1.58.15 1.81.08 3.41 0 .63.03 1.26-.02 1.88-.06.31-.16.64 0 .92.17.49.83.76 1.3.53.22-.06.36-.24.49-.41.01-.01.03-.02.04-.04.02-.01.03-.02.06-.04 1.1-.66 2.68-.77 4.14-.4.41-.09 1.32 1.51 1.3 2.4.18 1.88-1.49 3.28-4.05 2.96-.1-.02-.23-.04-.33-.08-.19-.08-.6-.33-.7-.38-.21-.18-.45-.32-.73-.31-.64-.02-1.14.65-.96 1.27.14.5.66.77 1.09.99 2.61 1.44 6.53.13 7.51-2.75.49-1.92-.09-4.21-1.61-5.53zm20.98-5.26c-.59-.63-1.74-.15-1.71.71-.08 1.71-.12 3.43-.14 5.15-1.41 0-2.82.02-4.22.14l-.5.06c.19-1.53.4-3.06.52-4.6.07-.56.04-1.28-.59-1.49-.62-.31-1.41.23-1.39.91-.08 1.97-.42 3.92-.63 5.88-.04.3-.02.64.19.87.24.37.72.41 1.12.46 1.02 0 2.03-.18 3.05-.2.81-.01 1.61-.02 2.42-.02-.01 1.6-.01 3.19-.01 4.79-.05.48.12 1.03.61 1.2.62.31 1.41-.23 1.39-.91v-5.43c.02-2.27.07-4.54.17-6.8a.9.9 0 0 0-.28-.72zm4.85 15.3c-7.76.58-18.15.47-26.91.46-4.16.1-8.37-.19-12.49-.08-.99.36-.68 1.95.39 1.91 8.73.31 17.47.12 26.2.17 3.08.09 6.15-.1 9.22-.33 1.93-.04 3.05.06 4.49-.26 1.26-.62.39-2.29-.9-1.87zm-5.43 6.3a.789.789 0 0 0-.38-.18.886.886 0 0 0-.44-.57c-3.33-1.94-5.88-.62-7.49 2.66-1.01 2.71-1.59 6.13-.09 8.76 1.06 1.56 3.54 3.13 5.41 2.23 3.01-1.59 4.35-5.23 4.2-8.49.03-1.53-.05-3.29-1.21-4.41zm-.86 6.34c-.13 1.31-1.19 2.99-1.3 3.32-.83.94-1.48 1.36-1.91 1.52-.04 0-.08 0-.12-.01-1.62-.53-2.05-.69-2.84-2.23-.96-2.95.81-10.2 4.47-8.33.03.01.06.02.08.03.3.13.6.33.92.42.08.23.24.42.36.63.05.08.13.23.17.33.02.05.04.1.06.16.3.82.21 3.53.11 4.16zm.86 13.04a.789.789 0 0 0-.38-.18.886.886 0 0 0-.44-.57c-3.33-1.94-5.88-.62-7.49 2.66-1.01 2.71-1.59 6.13-.09 8.76 1.06 1.56 3.54 3.13 5.41 2.23 3.01-1.59 4.35-5.23 4.2-8.49.03-1.53-.05-3.29-1.21-4.41zm-.86 6.34c-.13 1.31-1.19 2.99-1.3 3.32-.83.94-1.48 1.36-1.91 1.52-.04 0-.08 0-.12-.01-1.62-.53-2.05-.69-2.84-2.23-.96-2.95.81-10.2 4.47-8.33.03.01.06.02.08.03.3.13.6.33.92.42.08.23.24.42.36.63.05.08.13.23.17.33.02.05.04.1.06.16.3.82.21 3.53.11 4.16zm21.43-6.34a.789.789 0 0 0-.38-.18.886.886 0 0 0-.44-.57c-3.33-1.94-5.88-.62-7.49 2.66-1.01 2.71-1.59 6.13-.09 8.76 1.06 1.56 3.54 3.13 5.41 2.23 3.01-1.59 4.35-5.23 4.2-8.49.03-1.53-.06-3.29-1.21-4.41zm-.87 6.34c-.13 1.31-1.19 2.99-1.3 3.32-.83.94-1.48 1.36-1.91 1.52-.04 0-.08 0-.12-.01-1.62-.53-2.05-.69-2.84-2.23-.96-2.95.81-10.2 4.47-8.33.03.01.06.02.08.03.3.13.6.33.92.42.08.23.24.42.36.63.05.08.13.23.17.33.02.05.04.1.06.16.31.82.21 3.53.11 4.16zM93.74 114c-.78-.31-1.61-.63-2.44-.79 1.48-1.84 2.85-3.9 2.72-6.32-.14-2.15-1.79-3.67-3.97-3.07-1.23.32-1.98 1.44-2.69 2.41-.3.55-.9 1.09-.72 1.77.2.83 1.42.99 1.83.24.77-1.38 1.71-2.41 1.98-2.45 1.24-.41 1.74.54 1.51 2.16-.48 2.09-1.61 3.3-3.22 5.23-.16.19-.33.36-.49.51-.55.32-1.12.71-1.33 1.32-.21.73.5 1.5 1.25 1.27.46-.24.88-.6 1.27-.97.27-.13.61-.19 1.31-.2 1.47.4 2.15.76 3.14 1.14.63.23 1.49.15 1.69-.61.22-1.45-1.31-1.25-1.84-1.64zm.77-109.95c-.18-.33-.51-.47-.85-.47-.07-.21-.2-.4-.42-.52-5.32-3.92-7.9 2.6-7.57 7.1.64 1.99 1.73 4.93 4.16 5.07 1.59.1 2.74-1.22 3.55-2.43 2.01-2.37 2.45-5.93 1.13-8.75zm-1.75 6.07c-.14.26-1.41 2.29-2.17 2.87-.06.05-.19.12-.29.17-.08.03-.17.05-.26.07h-.27c-.04-.01-.12-.04-.2-.05-.67-.45-1.63-2.13-1.95-3.37-.12-1.29.3-3.81 1.52-5.52.2-.28 1.17-.73 2.28-.04.42.22.8.65 1.28.67.09.39.31.63.47 1.46.16.9.15 2.1-.41 3.74zm8.31 128.7c-9.6-.13-19.18.69-28.78.68-3.67.11-7.39-.24-11.02-.26-.99.36-.67 1.95.39 1.91 13.25.95 26.56-.36 39.79-.43.99-.34.68-1.94-.38-1.9zm-4.68 15.83c-.31-.32-.74-.29-1.15-.32-1.04-.13-2.09-.19-3.14-.12-.31.01-.78.05-1.27.11 1.73-2.11 3.91-4.28 3.7-7.2-.12-3.66-3.45-4.71-6.01-2.3-.72.79-1.08 1.82-1.37 2.83-.11.45-.34.95-.06 1.38.41.75 1.63.59 1.83-.24.6-2.29.89-2.8 2.17-3.22.93-.16.8-.02 1.25.61.93 2.71-1.28 4.64-3.79 7.77-.32.41-.74.74-1.04 1.16-.33.57-.02 1.35.63 1.51.21.14 1.65-.16 1.78-.2 1.48-.2 2.97-.34 4.46-.2.55.02 1.15.24 1.68.04.66-.21.82-1.14.33-1.61zm20.47-4.14c-.22-.81-1.02-.76-1.71-.69.55-1.44 1.07-2.85 1.53-3.92.3-1.49-1.14-1.57-2.22-1.3-.11.07-2.15.03-3.16.1-1.41 0-2.81.01-4.22-.08-.26 0-.52.11-.71.29-.63.59-.16 1.73.71 1.71 2.14.12 5.12.11 7.14-.03-.39 1-.82 2.27-1.24 3.41-1 .09-2 .17-3 .26-1.3 0-1.31 1.99 0 2 .73-.06 1.45-.13 2.18-.19-.55 1.22-1.09 2.44-1.49 3.72-.32.65.17 1.46.9 1.45 1.04-.02 1.08-1.28 1.4-2.02.42-.89.9-2.07 1.39-3.33.51-.04 1.03-.09 1.54-.12.64.02 1.13-.65.96-1.26zM113.57 7.72c1.34-1.95 1.44-4.52-1.67-4.81-2.77-.24-5.25 2.29-5.64 4.9.08 1.06 1.7 1.15 1.95.13.81-2.63 3.15-3.51 4.25-2.84.01.02.01.04.02.06-.03.59-.01.56-.66 1.56-.27.33-.55.64-.84.95.04-.03.06-.04.08-.06-.12.1-.36.32-.37.46-.27.55.12 1.26.69 1.4 1.38.12 2.05.12 2.36.45.27.46.33.87.34 1.37-.04.12-.15.55-.24.78-.1.18-.44.8-.54 1.01-.01.01-.01.02-.02.03-.58.55-1.04.61-2.58.72-.11 0-.21-.01-.32-.02-.03-.01-.06-.02-.1-.03-.14-.08-.62-.35-.74-.47-.85-.53-1.89.52-1.37 1.37.79.97 2.13 1.31 3.33 1.08 1.22-.1 2.57-.42 3.35-1.44.65-.95 1.21-2.07 1.24-3.23-.06-1.52-.88-3.14-2.52-3.37zM92.02 174.34c-.33.02-1.21-.01-1.9-.04 2.52-2.41 5.17-5.24 5.49-8.86.25-2.02-1.91-4.52-3.94-3.22-1.52 1.07-2.91 2.8-3.16 3.93-.2 1.04 1.35 1.57 1.85.64.27-.93 1.55-2.26 2.22-2.77.08-.06.18-.1.27-.15 2.12 1.2-.46 5.52-3.67 8.62-.72.78-2.51 1.71-1.92 2.95.94 1.15 2.68.76 4 .9 1.41-.07 2.87.13 4.25-.09a.87.87 0 0 0 .53-.53c.56-2.15-2.83-1.18-4.02-1.38zm22.11-5.46c.32-.81.63-1.61 1.01-2.62.22-.71.76-1.39.74-2.15-.11-.98-1.27-.95-2.02-.83-1.73.19-3.47.29-5.2.39-.69.12-1.55-.15-2.11.36-.63.59-.15 1.73.71 1.71 1.63-.06 4.4-.25 6.13-.41-.19.45-.37.91-.52 1.37-.19.36-.51 1.19-.87 2.18-.73.03-1.45.08-2.18.15-.26 0-.52.11-.71.29-.63.59-.15 1.74.71 1.71.45-.05.95-.09 1.45-.12-.3.85-.59 1.67-.81 2.28-.27 1.12-.64 1.07-.54 1.96.13.52.72.85 1.23.7.49-.12.67-.58.83-1.01.38-.96.67-1.96 1.06-2.92.13-.38.24-.73.36-1.06.52 0 .97.01 1.25.03.8-.05 1.15-1.15.57-1.69-.3-.27-.7-.31-1.09-.32zm5.85 10.41c-8.22.17-16.43.15-24.65.17-4.18-.12-8.37-.66-12.54-.11-.58.1-1.34.01-1.67.6-.46.73.3 1.73 1.13 1.47 3.27-.62 9.04-.12 13.28.04 8.37-.1 16.79.13 25.14-.26 1.14-.49.52-2.15-.69-1.91zm-6.02 5.03c-.38-.41-.95-.34-1.32-.05-1.67-.66-3.71-.85-4.77.77-1.33 2.31-1.96 5.21-1.4 7.84.63 2.58 2.83 4.85 5.65 4.32 1.3-.22 2.26-1.27 3.14-2.18.7-.85.88-1.99 1.07-3.04.42-2.76-.01-5.88-2.37-7.66zm-.19 9.34c-1.12 1.11-1.28 1.44-2.25 1.61-.04 0-.09.01-.13.01-.44-.01-1.08-.2-1.63-.54-.15-.16-.48-.51-.51-.52-.2-.29-.5-.89-.58-1.07-.54-1.35-.45-1.63-.33-3.18.04-1.19.7-3.35 1.41-4.07.02-.01.04-.03.07-.04.37-.12.83-.07 1.23 0 1.12.22 1.02.46 2.22.88.1.02.2.01.29 0 .11.16.22.37.47.81.01.02.02.03.02.05.14.45.31.9.41 1.36-.02.16 0 1.79-.04 2.17-.05.58-.28 1.95-.65 2.53z"/></svg>