<svg xmlns="http://www.w3.org/2000/svg" width="169.977" height="217.183" viewBox="0 0 44.973 57.463"><path style="fill:none;stroke:#000;stroke-width:.49637172;stroke-linecap:butt;stroke-linejoin:miter;stroke-miterlimit:4;stroke-dasharray:.99274342,2.97823025;stroke-dashoffset:0;stroke-opacity:1" d="m97.305 52.648-7.639 57.398" transform="translate(-52.578 -52.615)"/><path style="fill:none;stroke:#000;stroke-width:.5;stroke-linecap:butt;stroke-linejoin:miter;stroke-miterlimit:4;stroke-dasharray:none;stroke-opacity:1" d="m96.217 60.867-43.03 34.545 37.818 5.212" transform="translate(-52.578 -52.615)"/><path style="opacity:1;vector-effect:none;fill:none;fill-opacity:1;stroke:#000;stroke-width:.30000001;stroke-linecap:round;stroke-linejoin:miter;stroke-miterlimit:4;stroke-dasharray:none;stroke-dashoffset:0;stroke-opacity:1" d="M57.946 91.558a6.125 6.125 0 0 1 1.306 4.706l-6.065-.852zM95.47 66.946a6.125 6.125 0 0 1-3.945-2.142l4.692-3.937z" transform="translate(-52.578 -52.615)"/><path style="opacity:1;vector-effect:none;fill:none;fill-opacity:1;stroke:#000;stroke-width:.30000001;stroke-linecap:round;stroke-linejoin:miter;stroke-miterlimit:4;stroke-dasharray:none;stroke-dashoffset:0;stroke-opacity:1" d="M91.525 64.804a6.125 6.125 0 0 1-.69-6.86 6.125 6.125 0 0 1 6.128-3.156l-.746 6.08z" transform="translate(-52.578 -52.615)"/><path style="opacity:1;vector-effect:none;fill:none;fill-opacity:1;stroke:#000;stroke-width:.30000001;stroke-linecap:round;stroke-linejoin:miter;stroke-miterlimit:4;stroke-dasharray:none;stroke-dashoffset:0;stroke-opacity:1" transform="rotate(7 403.839 -456.125)" d="M99.873 86.066h2.717v2.717h-2.717z"/><text xml:space="preserve" style="font-style:normal;font-weight:400;font-size:4.23333311px;line-height:1.25;font-family:sans-serif;letter-spacing:0;word-spacing:0;fill:#000;fill-opacity:1;stroke:none;stroke-width:.26458332" x="60.004" y="95.066" transform="translate(-52.578 -52.615)"><tspan x="60.004" y="95.066" style="font-style:italic;font-size:5.29166651px;stroke-width:.26458332">v</tspan></text><text xml:space="preserve" style="font-style:normal;font-weight:400;font-size:4.23333311px;line-height:1.25;font-family:sans-serif;letter-spacing:0;word-spacing:0;fill:#000;fill-opacity:1;stroke:none;stroke-width:.26458332" x="89.675" y="70.309" transform="translate(-52.578 -52.615)"><tspan x="89.675" y="70.309" style="font-style:italic;font-size:5.29166651px;stroke-width:.26458332">w</tspan></text><text xml:space="preserve" style="font-style:normal;font-weight:400;font-size:4.23333311px;line-height:1.25;font-family:sans-serif;letter-spacing:0;word-spacing:0;fill:#000;fill-opacity:1;stroke:none;stroke-width:.26458332" x="79.469" y="58.214" transform="translate(-52.578 -52.615)"><tspan x="79.469" y="58.214" style="font-size:5.29166651px;stroke-width:.26458332">140<tspan style="font-size:64.99999762%;baseline-shift:super">o</tspan></tspan></text></svg>