<svg xmlns="http://www.w3.org/2000/svg" width="450" height="191.852" viewBox="0 0 119.063 50.761"><defs><marker orient="auto" refY="0" refX="0" id="a" style="overflow:visible"><path style="fill:#000;fill-opacity:1;fill-rule:evenodd;stroke:#000;stroke-width:.625;stroke-linejoin:round;stroke-opacity:1" d="M8.719 4.034-2.207.016 8.719-4.002c-1.746 2.372-1.736 5.618 0 8.036z" transform="scale(-.6)"/></marker><marker orient="auto" refY="0" refX="0" id="b" style="overflow:visible"><path style="fill:#000;fill-opacity:1;fill-rule:evenodd;stroke:#000;stroke-width:.625;stroke-linejoin:round;stroke-opacity:1" d="M8.719 4.034-2.207.016 8.719-4.002c-1.746 2.372-1.736 5.618 0 8.036z" transform="scale(-.6)"/></marker><marker orient="auto" refY="0" refX="0" id="c" style="overflow:visible"><path style="fill:#000;fill-opacity:1;fill-rule:evenodd;stroke:#000;stroke-width:.625;stroke-linejoin:round;stroke-opacity:1" d="M8.719 4.034-2.207.016 8.719-4.002c-1.746 2.372-1.736 5.618 0 8.036z" transform="scale(-.6)"/></marker><marker orient="auto" refY="0" refX="0" id="d" style="overflow:visible"><path style="fill:#000;fill-opacity:1;fill-rule:evenodd;stroke:#000;stroke-width:.625;stroke-linejoin:round;stroke-opacity:1" d="M8.719 4.034-2.207.016 8.719-4.002c-1.746 2.372-1.736 5.618 0 8.036z" transform="scale(-.6)"/></marker><marker orient="auto" refY="0" refX="0" id="e" style="overflow:visible"><path style="fill:#000;fill-opacity:1;fill-rule:evenodd;stroke:#000;stroke-width:.625;stroke-linejoin:round;stroke-opacity:1" d="M8.719 4.034-2.207.016 8.719-4.002c-1.746 2.372-1.736 5.618 0 8.036z" transform="scale(-.6)"/></marker></defs><path style="fill:none;stroke:#000;stroke-width:.5;stroke-linecap:butt;stroke-linejoin:miter;stroke-miterlimit:4;stroke-dasharray:none;stroke-opacity:1" d="M11.666 60.75h11.906m0 0h11.906m-12.095-1.702v3.402m12.095-1.7h11.907M35.29 59.048v3.402m12.095-1.7H59.29m-12.094-1.702v3.402m12.094-1.7h11.907m-12.095-1.702v3.402m12.095-1.7h11.906m-12.095-1.702v3.402m12.095-1.7H95.01m-12.096-1.702v3.402m12.096-1.7h11.906M94.82 59.048v3.402m12.096-1.7h11.906m-12.095-1.702v3.402m12.095-1.7h11.906m-12.095-1.702v3.402" transform="translate(-11.666 -35.02)"/><path style="opacity:1;fill:none;fill-opacity:.17674423;stroke:#000;stroke-width:.50115556;stroke-linecap:round;stroke-miterlimit:4;stroke-dasharray:none;stroke-dashoffset:0;stroke-opacity:1" d="M47.22 35.27h35.651v15.954H47.22z" transform="translate(-11.666 -35.02)"/><path style="fill:none;stroke:#000;stroke-width:.5;stroke-linecap:butt;stroke-linejoin:miter;stroke-miterlimit:4;stroke-dasharray:none;stroke-opacity:1" d="M83.02 43.327h23.48m.228-4.724v8.971M47.22 43.327H35.314m.095 4.559v-8.971m35.599-3.521v15.837" transform="translate(-11.666 -35.02)"/><text xml:space="preserve" style="font-style:normal;font-weight:400;font-size:4.23333311px;line-height:1.25;font-family:sans-serif;letter-spacing:0;word-spacing:0;fill:#000;fill-opacity:1;stroke:none;stroke-width:.26458332" x="15.24" y="75.786" transform="translate(-11.666 -35.02)"><tspan x="15.24" y="75.786" style="font-size:3.88055563px;stroke-width:.26458332">Mindsteværdi</tspan></text><text xml:space="preserve" style="font-style:normal;font-weight:400;font-size:4.23333311px;line-height:1.25;font-family:sans-serif;letter-spacing:0;word-spacing:0;fill:#000;fill-opacity:1;stroke:none;stroke-width:.26458332" x="97.504" y="75.896" transform="translate(-11.666 -35.02)"><tspan x="97.504" y="75.896" style="font-size:3.88055563px;stroke-width:.26458332">Størsteværdi</tspan></text><text xml:space="preserve" style="font-style:normal;font-weight:400;font-size:3.88055563px;line-height:1.25;font-family:sans-serif;letter-spacing:0;word-spacing:0;fill:#000;fill-opacity:1;stroke:none;stroke-width:.26458332" x="34.957" y="85.726" transform="translate(-11.666 -35.02)"><tspan x="34.957" y="85.726" style="font-size:3.88055563px;stroke-width:.26458332">Nedre kvartil</tspan></text><text xml:space="preserve" style="font-style:normal;font-weight:400;font-size:4.23333311px;line-height:1.25;font-family:sans-serif;letter-spacing:0;word-spacing:0;fill:#000;fill-opacity:1;stroke:none;stroke-width:.26458332" x="63.542" y="76.44" transform="translate(-11.666 -35.02)"><tspan x="63.542" y="76.44" style="font-size:3.88055563px;stroke-width:.26458332">Median</tspan></text><text xml:space="preserve" style="font-style:normal;font-weight:400;font-size:4.23333311px;line-height:1.25;font-family:sans-serif;letter-spacing:0;word-spacing:0;fill:#000;fill-opacity:1;stroke:none;stroke-width:.26458332" x="77.187" y="85.271" transform="translate(-11.666 -35.02)"><tspan x="77.187" y="85.271" style="font-size:3.88055563px;stroke-width:.26458332">Øvre kvartil</tspan></text><path style="fill:none;stroke:#000;stroke-width:.5;stroke-linecap:butt;stroke-linejoin:miter;stroke-miterlimit:4;stroke-dasharray:none;stroke-opacity:1;marker-end:url(#a)" d="m28.197 71.425 6.481-7.35" transform="translate(-11.666 -35.02)"/><path style="fill:none;stroke:#000;stroke-width:.5;stroke-linecap:butt;stroke-linejoin:miter;stroke-miterlimit:4;stroke-dasharray:none;stroke-opacity:1;marker-end:url(#b)" d="m47.374 81.18-.2-16.57" transform="translate(-11.666 -35.02)"/><path style="fill:none;stroke:#000;stroke-width:.5;stroke-linecap:butt;stroke-linejoin:miter;stroke-miterlimit:4;stroke-dasharray:none;stroke-opacity:1;marker-end:url(#c)" d="m70.426 71.491.534-7.082" transform="translate(-11.666 -35.02)"/><path style="fill:none;stroke:#000;stroke-width:.5;stroke-linecap:butt;stroke-linejoin:miter;stroke-miterlimit:4;stroke-dasharray:none;stroke-opacity:1;marker-end:url(#d)" d="m87.731 80.846-4.477-16.237" transform="translate(-11.666 -35.02)"/><path style="fill:none;stroke:#000;stroke-width:.5;stroke-linecap:butt;stroke-linejoin:miter;stroke-miterlimit:4;stroke-dasharray:none;stroke-opacity:1;marker-end:url(#e)" d="m109.514 71.96-2.406-7.752" transform="translate(-11.666 -35.02)"/></svg>