<svg xmlns="http://www.w3.org/2000/svg" width="88" height="162" style="enable-background:new 0 0 88 162" xml:space="preserve"><path d="M16.79 28.14c-2.08-.69-4.26-.73-6.21.09.01-.59-.03-1.19-.18-1.77-.1-.42-.23-.82-.39-1.22 2.48-.35 4.99-.54 7.45-.85 1-.35.67-1.96-.39-1.91-2.59.17-5.16.51-7.73.85.08-.01-.49.05-.65.11-.32.11-.69.26-.86.58-.4.66.09 1.36.37 1.97.01.03.02.04.03.06.01.03.03.11.08.28.1.4.23.8.29 1.22.23 1.48-.91 3.15.87 3.48.73-.06 1.26-.69 1.9-.99.02-.01.03-.01.06-.02 2.05-.78 3.54-.36 5.07.16 2.61 1.03 2.2 3.27.99 4.89-.54.67-2.49 1.18-3.83 1.23-2.27.12-2.09.09-3.54-.99-.62-.32-1.41.24-1.39.91 0 .64.6.98 1.04 1.33 1.15.89 2.64.84 4.01.74 1.74-.15 3.62-.51 4.98-1.67 2.75-2.96 2.04-7.19-1.97-8.48zm43.09 4.19c-.38-1.11-1.01-2.21-1.91-2.97-1.66-1.19-3.89-1.34-5.85-.74 1.66-2.09 3.75-3.84 5.59-5.71.47-.95-.9-1.87-1.62-1.09-3.1 2.83-6.91 5.83-7.75 10.15-.83 6.05 6.92 7.73 10.39 3.63.78-.89 1.36-2.07 1.15-3.27zm-2.08 1.09c-.96 2.2-4.24 2.86-5.59 2.22-1.74-.72-2.14-2.22-1.8-3.78.11-.05.22-.11.31-.2.06-.07.23-.22.34-.32 1.91-1.32 3.99-1.38 5.65-.44.11.1.27.25.37.36.31.43.57.89.81 1.36.02.05.03.09.04.13 0 .1 0 .19-.02.29-.01.05-.02.11-.04.17-.03.08-.05.15-.07.21zm24.41-6.39c-.71-1.69-2.35-2.99-3.97-3.74-.21-.4-.66-.68-1.15-.53-4.67 1.1-10.58 5.22-8.78 10.69.95 2.28 2.7 3.6 4.46 4.34.96.37 2.53.13 2.68.09 1.44-.14 2.81-.73 3.9-1.68 2.65-2.28 3.61-5.81 2.86-9.17zm-2.73 5.93c-1.51 2.76-4.85 3.57-6.57 2.74-.91-.66-2.72-1.83-2.86-3.63-.73-2.79 2.85-5.69 6.11-6.99.31-.15.68-.19 1.03-.26.08.11.17.21.31.28 1.15.67 2.2 1.59 2.56 2.1.48.88.32.47.36 1.8-.06 1.88-.05 2.55-.94 3.96z"/><path d="M84.64 18.65H67.09c-2.36.01-4.27.02-6-.23-3.21-.01-6.42 0-9.63-.01-4 .04-7.99.38-11.97.67-2.41.57-5.84 1.74-5.7 4.75-.07 5.44.2 11.59-2.34 12.96-1.92 1.01-5.04 1.65-7.25 1.83-2.67.59-4.09.68-6.92.61-4.77.07-9.53-.37-14.3-.48-1.28-.01-1.32 2 0 2 5.99.2 11.96.63 17.95.46 2.56-.42 3.79-.63 6.15-.98 4.59-.92 7.41-1.86 8.27-6.62.35-3.05.52-7.59.41-10.07.18-1.14 1.57-1.84 3.89-2.45.63-.23 1.86-.15 3.19-.22 2.18-.18 4.36-.34 6.55-.44 6.02-.12 11.16.04 16.7.22h18.55c.27 0 .52-.11.71-.29.61-.58.16-1.74-.71-1.71zM52.99 67.69c-.08.03-.15.07-.23.1 1.23-2.12 2.48-3.53 4.1-5.54.47-.95-.9-1.87-1.62-1.09-1.72 1.9-3.3 3.95-4.54 6.21-.64 1.07-1.13 2.25-1.02 3.52-.23 3.37 2.08 6.56 5.67 6.19 1.44-.28 2.5-1.44 3.57-2.36 3.4-3.84-1.68-9.26-5.93-7.03zm4.45 5.69c-1.63 1.47-2.22 1.93-3.08 1.7-1.24-.34-1.6-.68-2.28-1.72-.4-1.29-.49-2.46-.34-3.32.39.34 1.05.37 1.63-.31 2.18-1.51 4.25.4 4.65 1.63-.03 1.28-.09 1.45-.58 2.02zm1.26 15.01c-1.3-1.62-3.29-1.86-5.23-1.59-.78.08-1.55.32-2.25.7 0-.71 0-1.41.01-2.12 1.44-.31 3.07-.57 3.78-.65.88-.11 1.77-.24 2.65-.38.25-.07.47-.24.6-.46.46-.73-.3-1.73-1.13-1.47-2.26.35-4.32.53-7.04 1.16-.33.07-.64.31-.75.63-.28 1.69-.04 3.47-.12 5.19-.02.37.07.77.39.98.49.42 1.2.17 1.52-.34.09-.08.24-.22.32-.3 1.46-1.18 3.06-1.06 4.29-1 .72.21.67.2 1.52 1.01.05.05.09.11.14.16.03.05.05.09.07.12.03.08.05.17.06.25.18 2.16-1.46 3.29-3.17 3.51-1.39.06-1.7.17-2.68-.23-.98-.3-.77-.54-1.68-.46-.52.13-.85.72-.7 1.23.23.76 1.15.81 1.77 1.13 2.52.9 5.9.32 7.56-1.9.97-1.45 1.4-3.79.07-5.17zM56.53 2.28c-.43-1-1.74-.67-2.09.23.06-.03-1.11 1.17-1.67 1.72-.58.59-1.2 1.14-1.83 1.67a.99.99 0 0 0-.29.71c-.03.86 1.12 1.34 1.71.71.69-.63 1.42-1.25 2.1-1.91-.01.17-.02.33-.02.49-.33 2.96-.16 5.93-.2 8.9-.12.73.53 1.42 1.27 1.21.42-.11.74-.53.73-.96V9.42c-.09-2.65.56-5.18.29-7.14zm26.92 96.51c-.84-.31-1.81-.06-2.7-.12-3.52.19-5.97.53-9.79.47-3.82.33-7.84.23-12.28.24-5.17.05-10.41-.1-15.55.33-.99.35-.68 1.95.39 1.91 10.94-.5 23.22.07 32.56-.66 2.06-.03 2.85-.2 4.64-.28.96-.14 2.13.29 2.94-.31.46-.44.35-1.26-.21-1.58zm-26.79 5.07c.1-.84-.83-1.47-1.56-1.04-.38.34-1.42 1.19-2.75 2.31-1.13.92-1.34 1.13-2.64 2.03-.22.13-.39.35-.46.6-.26.83.73 1.59 1.47 1.13 1.31-.91 2.53-1.9 3.63-2.83-.2 2.86-.09 6.63-.11 9.5 0 .02.01.03.01.04.01.14.03.27.08.38 0 .01.01.01.01.02.05.11.13.21.21.29.03.03.07.04.1.06.07.05.14.1.22.13.06.02.12.02.18.03.06.01.12.03.19.03.06 0 .11-.02.17-.03.07-.01.13-.01.19-.03.04-.02.08-.05.12-.07.07-.03.14-.06.2-.11.04-.04.07-.09.1-.14.04-.06.1-.1.13-.17s.04-.17.05-.25c.01-.06.04-.11.04-.18.06-4.11-.26-8.36.42-11.7zm21.5 1.4c-.11-.23-.31-.44-.66-.59-1.94-.53-4.38-1.1-6.2.02-5.37 3.71-4.27 13 3.36 11.9.97-.18 2.01-.3 2.86-.83.99-.74 1.68-1.84 2.26-2.92 1.09-2.46.63-5.92-1.62-7.58zm.07 6.07c-.24.91-.9 1.92-1.78 2.76-.77.36-2.21.67-3.51.58-.51-.05-1.69-.45-2.25-1.09-.27-.41-.2-.42-.54-1.25a6.66 6.66 0 0 1-.22-.88c-.11-.96.67-3.38.86-3.38 1.77-2.45 2.65-2.2 5.38-1.68.32.21.71.34.99.6.75.28 1.51 2.85 1.07 4.34zm-21.75 23.48c-.06-.76-.12-1.52-.2-2.27-.09-2.09-.29-3.15-.46-4.83-.12-1.71.03-3.43-.15-5.14.06.55.03-.04-.04-.23-.17-.6-.91-1-1.49-.71-1.03.64-1.74 1.71-2.66 2.5-.99.93-1.09.99-2 1.68-.22.13-.39.35-.46.6-.26.83.73 1.59 1.47 1.13 1.2-.83 2.24-1.84 3.27-2.86 0 .61 0 1.21.02 1.82.02 1.88.37 3.52.42 4.74.08 1.36.19 2.73.34 4.08.16.77 1.15 1.1 1.7.53.2-.19.28-.44.29-.71.02-.08-.02-.22-.05-.33zm23.89-8.72c-.46-.99-1.27-1.82-2.16-2.45-.39-.24-.84-.14-1.15.12-2.36-.03-5.17.01-6.87 1.85-1.11 1.5-1.47 3.61-1.15 5.43.76 3.03 4.39 4.24 7.21 3.8 2.79-.2 4.66-2.72 4.61-5.41.04-1.12-.11-2.28-.49-3.34zm-2.42 5.86c-1.41 1.5-4.89 1.38-6.6-.55-.47-.54-.7-1.99.09-4.05.08-.17.31-.64 1.14-1.05 1.32-.42 2.02-.41 2.96-.53.65-.15 1.42.15 2.04-.07.2.21.46.47.6.6.08.1.15.2.22.31.71 1.45.7 4.44-.45 5.34zm2.41-118.24c-.55-.13-1.08.22-1.61.34-1.41.47-2.11-.12-2.28-.29-.4-.36-.86-.7-1.35-.97 1.04-1.28 2.05-2.6 2.69-4.12.5-1.24.85-2.62.3-3.91-.24-.7-.55-1.42-1.25-1.76-2.66-1.09-5.76 2.01-7.23 3.96-.47.96.9 1.87 1.62 1.09 1.67-2.17 3.94-3.4 4.49-3.33.06.01.13.03.19.05l.01.01c.52 1 .65 1.52 0 3.2-.48 1.07-1.7 2.88-2.95 4.25-.14 0-.29.01-.43.03-1.22.54-1.86.86-2.42 1.93-.23.73.31 1.56 1.1 1.57.99-.05 1.79-.72 2.5-1.43 1.43.53 1.88 2.2 4.68 1.83.81-.22 1.99-.28 2.53-.98.34-.55.03-1.31-.59-1.47zm3.16 125.37c-10.07.01-20.15-.02-30.22.01-3.54.1-7.14-.03-10.64.32-.99.36-.67 1.95.39 1.91 13.61-.54 27.28.01 40.87-.33.97-.35.66-1.95-.4-1.91zm-2.09 9.13c-.51-1.62-1.66-2.96-3.05-3.9-.28-.22-.65-.36-1-.25-.2.06-.34.17-.46.29-.06.01-.12.01-.18.02-3.36.42-6.61 1.95-8.41 4.93-.79 1.19-.72 2.82-.59 4.2.57 2.18 2.1 4.44 4.22 5.34 1.16.34 2.42.32 3.61.18 1.25-.44 2.38-1.21 3.36-2.09 2.46-1.95 3.81-5.76 2.5-8.72zm-1.46 2.68c-.47 2.33-.71 3.12-2.33 4.53-.68.67-1.95 1.47-2.61 1.68-1.27.03-1.83.09-2.62-.2-.63-.14-2.94-3.04-2.75-4.09-.05-1.1.12-1.9.2-2.19.99-1.41 1.72-2.36 3.38-3.18.5-.25 1.66-.71 2.89-.89.45-.13 1.02-.11 1.41-.36.43.34 1.23 1.06 1.52 1.63.34.44.92 2.34.92 2.6.02.08.01.31-.01.47z"/></svg>