<svg xmlns="http://www.w3.org/2000/svg" width="127" height="238" style="enable-background:new 0 0 127 238" xml:space="preserve"><path d="M19.24 24.09c.3-.45.28-1.14-.19-1.46-.86-.53-2.17.08-3.17-.05-2.1.01-4.2-.05-6.3-.15-.36-.04-.74 0-1 .28-.63.59-.16 1.73.71 1.71 2.51.07 5.04.25 7.55.09-.54 1.26-1.23 3.11-1.76 4.51-.04.09-.07.17-.1.25-.96.07-1.92.12-2.85.31-1 .35-.67 1.95.39 1.91.56-.06 1.11-.1 1.67-.15-.12.38-.23.81-.35 1.36-.23.86-.66 2.5-.72 2.53-.04.07-.1.16-.16.24-.5.49-.37 1.5.41 1.69 2 .35 2.13-3.87 2.74-5.17.06-.21.16-.5.28-.85.55-.05 1.1-.09 1.65-.15.83-.2.99-1.42.24-1.83-.5-.18-.75-.15-1.12-.09.53-1.35 1.11-2.79 1.47-3.59.38-.92.25-.75.61-1.39zm38.79-1.39c-.57.06-1.15.03-1.72.06-.26.02-.52.07-.78.11-2.28.04-4.56 0-6.84.01-.26 0-.52.11-.71.29-.63.59-.16 1.73.71 1.71 3.18-.04 5.87.1 8.57-.15-.5 1.41-1.3 3.08-1.94 4.51-1.16.06-2.37.14-3.47.32-1 .36-.67 1.95.39 1.91.75-.09 1.5-.13 2.25-.17-.01.02-.02.05-.03.08-.54 1.12-.97 2.28-1.39 3.45-.23.46-.34 1.06.08 1.45.54.58 1.64.23 1.69-.58v-.02c.03-.03.06-.06.07-.13.55-1.47.79-2.17 1.27-3.17.14-.41.3-.8.46-1.2.48-.03.97-.07 1.45-.12 1.17-.12 1.56-1.63.36-2.04-.27.03-.57.06-.87.08.6-1.29 1.23-2.65 1.73-4.24.62-1.26.4-2.63-1.28-2.16zm22.6 5.39c-.04-.71-.08-1.45-.49-2.06-.07-.25-.82-1.99-1.68-2.75a.908.908 0 0 0-.93-.25.906.906 0 0 0-.69-.3c-1.78-.04-3.66.26-5.15 1.29-.71.77-.99 1.11-1.68 2.34-.33.92-1.68 2.91-1.4 4.76.2 4.03 5.27 6.67 8.67 4.47.85-.65 1.35-.87 2.25-2.03.58-.89.81-1.93 1-2.96.16-.83.24-1.67.1-2.51zm-2.44 3.74c-.4.98-1.71 2.23-3.28 2.56-1.17-.02-1.72-.15-2.49-.56-.74-.47-1.55-1.35-1.77-2.46v-.03c-.06-.47-.02-.94-.01-1.41.01-.05.02-.1.03-.14.38-.94 1.38-3.15 2.14-4.03-.03.05.12-.1.21-.21.04-.02.07-.04.11-.06.83-.39.83-.43 2-.67.24-.04-.06 0-.15.02.64-.17 1.46.02 2.1-.15.49.72.85.94 1.02 1.59.12.35.3.68.46 1.01.01.03.01.05.03.09.15.95.19 2.75-.4 4.45zm20.1 1.61c-1.03-.33-.9.07-1.68-.01-1.15 0-1.34-.17-2.69-.92 1.71-1.52 3.31-3.21 3.85-5.46.3-1.23.07-2.63-.69-3.65-.77-.9-2.1-1.47-3.24-1-1.72.64-3.28 2.01-3.83 3.79-.2 1.04 1.35 1.57 1.85.64.68-1.59 1.78-2.21 2.74-2.59.1 0 .21.01.31.02h.02c.03 0 .05.01.08.01-.02 0-.04 0-.05-.01.02.01.05.01.09.02.08.04.19.1.25.16.18.22.32.09.57 1.12.57 1.99-2.78 5.27-5.45 7.27-.02.02-.04.03-.06.04-.07.05-.14.1-.2.15-.82.8.22 2.16 1.21 1.57.26-.15.51-.33.77-.46h.02c.11 0 .29-.01.41-.01.06.01.12.02.17.03.06.02.13.04.19.06.04.05 1.31.75 1.64.85 1.18.41 2.68.55 3.82 0 .57-.36.49-1.3-.1-1.62z"/><path d="M94.9 24.25s.02 0 .06.01c-.01 0-.02 0-.03-.01h-.03zm20.9 10.01c.03-1.23-.18-2.44-.16-3.66 0-1.63-.26-3.27-.03-4.9.04-.92.37-1.94-.02-2.82-.24-.39-.72-.58-1.17-.47-.07.01-.18.07-.27.13.01 0 .02.01.02.01-.28.15-.54.4-.72.66-.93 1-1.94 1.91-2.89 2.87-.19.18-.29.44-.29.71-.03.86 1.12 1.34 1.71.71.54-.54 1.09-1.06 1.63-1.59-.08 1.23-.13 2.66.01 3.56 0 1.49.15 2.96.19 4.44.04.47-.09.98.09 1.42.16.47.71.7 1.18.58.74-.19.76-1.01.72-1.65zm-1.75-11.66c.03-.02.05-.04.09-.06h-.01c-.03.03-.05.04-.08.06zm0 0c-.09.07-.12.09 0 0z"/><path d="M123.82 18.79c-.78-.18-1.61-.01-2.41-.11-.86-.19-2.9-.26-4.83-.36-4.14-.2-8.29-.01-12.42-.42-4.79.01-8.42.15-13.38.32-5.91.07-11.84-.16-17.74.12-4.31.04-8.62.32-12.93.37-6.15-.02-12.29-.25-18.45-.16-5.5.02-10.82.98-9.59 7.52-.17 2.44.84 5.04.84 5.99.21 1.79.05 3.35-.1 4.09-.42 1.52-.44 1.44-2.09 2.4-.18.07-.47.19-.59.22-.15.07-.53.15-.71.18-1.64.11-3.3-.09-4.93.12-2 .07-6.26.23-9.2.23-1.69-.01-2.77.28-3.55.04-2.77.01-5.37-.67-7.89-.83-1.03.07-1.17 1.71-.13 1.95 2.66.34 5.93.87 8.22.93 2.69-.04 5.64-.06 8.93-.24 2 .02 3.62-.06 4.96-.17 1.97-.05 4.04.27 5.86-.69.74-.4 1.52-.83 2.07-1.48.71-.85 1.01-1.95 1.1-3.04.04-.16.06-.49.04-.45.39-2.72-.39-5.56-.78-7.15-.09-4.5-1.11-6.23 2.85-7.16 2.4-.61 4.77-.44 8.25-.46 3.72-.04 7.42.01 11.13.16 6.77.08 13.52-.39 20.29-.48 9.38.12 18.66-.18 27.34-.32 4 .33 8.02.31 12.03.36.95.12 1.91.09 2.86.14.39.04 2.01.2 1.72.13.73.15 1.47.18 2.21.16.1-.01.34 0 .48 0 .05.01.09.03.14.04 1.27.36 1.84-1.67.4-1.95zM57.76 68.13h.03-.04c-.32.04-.65.07-.97.11.57-1.41.84-2.55 1.45-3.45.03-.05.06-.09.08-.13.03-.04.06-.06.07-.08.46-.35.57-1.09.12-1.51-.63-.53-1.57-.23-2.33-.24-.7.12-1.68.12-3.01.14-1.22.02-2.45.05-3.67-.03-.26 0-.52.11-.71.29-.63.59-.16 1.73.71 1.71 2.14.06 4.31.11 6.45-.09-.09.22-.18.45-.26.66-.37.99-.76 1.98-1.1 2.98-.89.09-1.78.18-2.67.25-.26 0-.52.11-.71.29-.63.59-.15 1.74.71 1.71.7-.05 1.39-.12 2.09-.19-.07.3-.15.59-.2.89-.45 1.49-.87 2.68-.9 3.61.04.69.91 1.09 1.49.73.52-.32.59-.98.65-1.53.24-.46.65-2.32 1.08-3.92.55-.06 1.1-.13 1.65-.19.44.19 1 .04 1.25-.4.48-.81-.41-1.78-1.26-1.61zm.47 14.31c-1.54.3-1.83.46-3.13.45-2.09.03-4.16.23-6.25.31-.26 0-.52.11-.71.29-.63.59-.16 1.73.71 1.71 2.61-.24 5.27-.13 7.86-.47-.52 1.11-1.04 2.43-1.55 3.76-1.06.05-2.14.06-3.16.27-1 .36-.67 1.95.39 1.91.66-.06 1.32-.1 1.98-.14-.23.59-.47 1.16-.69 1.68-.11.24-.42 1.13-.48 1.32-.13.24-.19.52-.11.79.13.52.72.85 1.23.7.55-.15.74-.71.9-1.19.48-1.21.9-2.33 1.31-3.41.13-.01.27-.01.4-.02.62-.09 1.39.14 1.88-.33.46-.44.35-1.26-.2-1.57-.4-.15-.83-.16-1.27-.13.61-1.51 1.27-3 2.11-4.62.27-.73-.47-1.54-1.22-1.31zm-2.75-67.48c-.15-4 .26-7.97.32-11.95.07-.96-1.22-1.51-1.8-.7-.47.9-.8 1.44-1.67 2.46-.45.64-1.35 1.09-1.42 1.92-.03.86 1.12 1.34 1.71.71.36-.39.72-.78 1.07-1.18-.14 2.75-.3 6.21-.2 8.74 0 .33.13.57.31.73.03.03.08.04.11.07.07.04.13.09.21.12.05.02.1.02.15.03.07.01.14.04.22.04.03 0 .06-.01.09-.01.1-.01.19-.02.28-.05.04-.01.07-.04.11-.06.07-.04.15-.07.21-.12.05-.04.08-.11.12-.16.04-.05.08-.09.11-.15s.03-.15.05-.22c-.01-.08.02-.14.02-.22zm28.46 84.26c-.24-.88-1.21-.74-1.92-.74-4.22-.32-10.56-.09-15.71-.16-3.89.07-7.79-.17-11.67.16-3.76-.07-7.58-.34-11.32.09-.99.35-.67 1.95.39 1.91 3.77-.27 7.53-.05 11.3-.02 4.57-.32 9.17-.05 13.76-.14 5.02 0 9.87-.06 14.21.16.64.02 1.14-.64.96-1.26zm-24.8 6.23c-.25-.45-.45-.95-.83-1.32-.08-.12-.5-.43-.7-.58-.46-.51-1.17-.45-1.56-.05-.02.01-.05 0-.07.01-2.1.28-4.51 1.11-5.57 3.09-1.3 2.7-2.49 6.32.61 8.26 1.78 1.26 4.75 1.89 6.35.04 1.48-1.51 2.39-3.6 2.57-5.7.01-1.26-.3-2.6-.8-3.75zm-1.31 4.49c-.29 1.72-1.88 3.97-2.61 4.06-.89.31-3.47-.5-4.09-1.93-.01-.04-.03-.09-.04-.15-.04-.25-.07-.46-.02-.07-.06-.17-.04-.75-.04-.85.17-1.49 1.24-3.65 1.24-3.7.85-.92 1.6-1.28 2.95-1.62.45-.17 1.03-.12 1.46-.32.07.05.14.1.2.17.46.84.56.9.67 1.39.41 1.61.52 2.15.28 3.02zm22.05-2.38c-.21-.83-.59-1.66-1.24-2.23-.19-.2-1.16-.79-1.29-.85-.26-.21-.51-.49-.86-.5a.808.808 0 0 0-.31 0c-.05-.01-.1-.02-.15-.02-2.07.23-4.45.6-5.9 2.24-1.21 1.17-1.76 2.77-1.81 4.43-.23 1.5.57 2.88 1.63 3.88 1.55 1.56 4.39 2.39 6.44 1.41 2.79-1.62 3.77-5.31 3.49-8.36zm-2.49 4.11c-.43.97-1.48 2.6-2.35 2.62-1.3.32-3.76-.55-4.65-2.47-.22-.81-.17-3.11 1.27-4.33.75-.83 1.24-.83 3.03-1.33.51-.2.87-.09 1.32-.18.49.37 1.12.64 1.35.9.81.79.74 2.56.03 4.79zm2.34 14.78c-.62-1.58-1.8-2.24-2.88-2.82-.37-.19-.76-.1-1.05.12-1.93.06-3.74.43-5.6 2.04-1.81 1.97-2.06 5.02-.46 7.19.65.95 1.32 1.95 2.45 2.36 1.21.62 2.68 1 3.93.24 3.47-1.44 4.33-5.79 3.61-9.13zm-2.47 5.49c-.08.14-.24.43-.28.54-.1.17-.59.59-.78.75-.42.3-.88.53-1.35.74-.02.01-.03.01-.05.02-.03.01-.07.01-.1.02-.76-.01-1.03-.14-2.25-.81-.79-.82-1.48-1.84-1.78-3.04-.11-1.24.32-3.04 2.37-3.85 1.27-.65 1.35-.34 3.38-.67h.01c.26.2.52.41.8.58.03.02.05.04.08.06l.08.08c.4.54.59.66.54 2.03.04 1.59-.06 2-.67 3.55zM79.25 5.1c-.57-.87-1.31-1.74-2.33-2.04-.16-.34-.48-.6-.89-.59-2.03-.19-4.35.33-5.72 1.95-.39.84-.89 1.56-1.35 2.95-.27 1.09-.24 2.28.01 3.37.47 1.78 1.69 3 3.3 3.83 1.48.82 3.37.55 4.75-.35 1.15-.91 2.11-2.16 2.56-3.56.21-1.06.14-.81.31-1.89.05-1.26-.07-2.55-.64-3.67zm-1.54 4.78c-.55 1.77-1.89 3.34-3.79 3.17-.43-.03-2.37-1.03-2.74-2.13-.09-.24-.3-.77-.34-.93-.04-.45-.07-.91-.06-1.36 0-.14.02-.28.03-.42.01-.04.02-.09.03-.14.22-.9.86-1.94 1.17-2.58l.02-.02c.98-.72 1.87-.94 2.37-1.01.27-.05.56-.03.85-.01.26.29.66.41 1.03.51.1.02.17.04.23.06.07.04.14.08.21.13.86.97.65.57.96 1.35.37.8.16 2.87.03 3.38zm4.47 127.69c-4.54.22-9.78.09-15.07.55-3.32.14-7.8-.13-10.18.35-4.44.03-8.94-.08-13.35.08-.99.35-.67 1.95.39 1.91 4.37.08 8.74-.04 13.11 0 2.44-.43 5.58-.27 8.74-.29 2.59-.1 5.17-.29 7.75-.44 3.23 0 5.99-.01 8.62-.16 2.21.35 2.23-2.36-.01-2zm-3.85 7.01c-.52-.22-1.05-.65-1.64-.51-.04.01-.06.04-.1.05-1.77-.52-3.72-.27-5.34.61-.8.69-.71.9-1.17 1.38-1.8 2.12-2.54 5.3-1.12 7.8 1.24 1.59 3.24 2.63 5.28 2.38 2.36-.34 4.55-2.15 5.5-4.32.99-2.38.98-5.88-1.41-7.39zm-1.12 7.79c-.28.45-1.05 1.01-2.42 1.76-.17.06-.67.27-1.64.15-.6.1-2.13-.96-2.5-1.45-.05-.11-.09-.17-.11-.21-.01-.04-.04-.1-.07-.19-.1-.36-.17-.72-.23-1.08v-.03c-.09-2.26.73-2.98 2.08-4.86.02-.02.03-.04.05-.05.61-.32 1.84-.7 2.8-.56.17.02.4.06.5.08.39.09.82.27 1.21.15.15.07.3.13.44.21.08.04.23.14.32.2.92 1.35 1.19 3.65-.43 5.88zm22.13 2.08c-.23-.41-.7-.53-1.13-.46h-.06c-.5.03-.84-.24-2.04-.94-.61-.37-1.01-.63-1.05-.71-.01-.02-.03-.03-.04-.05.65-.8 1.18-1.71 1.67-2.64.68-1.65 1.38-3.52.85-5.31-.54-1.4-2.16-2.33-3.64-2.13-1.8.68-3.11 2.34-3.67 4.14-.2 1.05 1.35 1.57 1.85.64.79-1.69 1.04-2.08 2.3-2.81.47.1 1.33.36 1.36 1.25.12.94-.76 3.61-2.1 5.5-.25.21-.75.74-1.37 1.27-.96.43-1.97.98-2.12 1.95.32 1.92 2.22.6 3.3-.31.08-.04.14-.06.2-.09.26.25.53.48.85.65 1.18.68 2.34 1.67 3.78 1.57.82.06 1.5-.76 1.06-1.52zm-1.9 9.3c-.31-.18-.63-.18-.91-.08-1.24-.55-2.76-.7-4-.19-1.94 1.36-2.68 2.48-3.72 4.69-2.71 5.35 1.69 9.28 7.04 8.15 1.53-.39 2.57-1.61 3.38-2.89.83-1.25 1.5-2.63 1.61-4.14.67-2.71-.58-5.01-3.4-5.54zm1.53 4.42c-.2 1.92-.33 2.64-1.79 4.68-1.3 2.72-6.92 2.07-7.23-1.3-.11-1.5 1.9-5.47 3.52-6.31.54-.11 1.18-.11 2.16.19.14.09.53.29.68.28.19.04.36 0 .51-.06.33.1.68.16 1 .28.1.07.32.2.45.28.51.47.37.3.63.77.18.55.12.31.07 1.19zm3.92 10.44c-9.06.31-20.92-.21-30.97.23-1.69.03-2.01-.05-3.5-.33-1.64-.07-3.34-.15-4.94.12-.99.36-.67 1.95.39 1.91 1.54-.07 3.09-.15 4.63-.02.35.27 3.37.41 4.75.26 7.38-.24 14.78-.02 22.17-.09 2.9-.09 6.42.22 8.47-.23 1.28-.69.36-2.31-1-1.85zm-4.58 15.72c-.8-.56-.65-.11-1.29-.44-.17-.06-1.58-.97-2.65-1.46.21-.26.41-.52.61-.77 2.3-2.39 2.55-10.61-2.46-8.8-1.69.58-2.36 2.65-2.44 4.28.08 1.06 1.7 1.15 1.95.13.15-.83.28-1.47.4-1.64.05-.13.29-.49.41-.65.05-.06.1-.11.16-.16.28-.1.56-.17.85-.23h.11c.02.01.04.03.07.05l.06.06c.05.09.12.22.18.32.51 1.68.32 3.5-.4 4.76-.67.96-1.34 1.89-2.18 2.62-.13.05-.26.09-.39.15-.49.24-.99.55-1.28 1.02-.34.56-.06 1.38.59 1.54.46.13.91-.14 1.29-.37.28-.16.53-.35.77-.54.1-.01.2-.03.34-.04.5-.33 2.58 1.74 4.51 1.89.89.09 1.45-1.1.79-1.72zM97.1 3.48c-.21-.22-.48-.37-.77-.36-.01 0-.03.01-.04.01a.823.823 0 0 0-.44-.11c-1.4.02-1.93.06-2.84.28-.78.29-1.53.71-2.13 1.3l-.38.47c.01-.01.01-.02.02-.03l-.04.04c.08-.11.03-.05-.02.02-1.53 1.74-3.14 4.42-1.84 7.23 1.3 2.97 5.39 3.89 7.96 1.96.95-.57 2.55-2.89 2.76-4.81.4-2.4-.84-5.06-2.24-6zm.15 6.35c-.07.43-1.21 2.35-1.44 2.55l-.02.02c-1.71 1.45-4.12 1.09-5.25-.65-.8-1.62-.34-3.36 1.48-5.39.29-.52 1.5-1.42 3.12-1.33.22-.01.46.01.69 0 .06.05.13.1.19.14.15.12.12.1.44.47.04.06.09.13.12.19.5.77.44.77.8 1.89.06-.04 0 1.91-.13 2.11zm18.55 173.88c0-.28-.01-.59-.17-.82-.48-.82-1.55-.51-1.92.24-.54.71-1.13 1.38-1.75 2.03a42.5 42.5 0 0 1-1.79 1.76.99.99 0 0 0-.29.71c-.03.86 1.12 1.34 1.71.71.78-.72 1.52-1.46 2.23-2.25-.02 2.33-.14 4.66-.19 7 .1.84-.28 1.88.29 2.58.44.46 1.26.35 1.57-.2.37-1.85-.04-3.85.27-5.74.1-2 .03-4.01.04-6.02zm-17.35 30.12c-.44-.28-.9-.04-1.35.06-.29.01-.47.14-1.37-.15-.1-.05-.53-.29-1.06-.54 1.7-1.59 3.2-3.69 3.1-6.11.18-4.25-2.04-7.51-5.56-3.89-.8.81-1.3 1.85-1.65 2.93-.15.36-.24.77-.02 1.12.41.75 1.63.59 1.83-.24.33-1.6 1.65-2.92 2.33-3.29.09-.03.19-.05.29-.07.45.17.9 2.09.76 4.22-.02.3-.46 1.48-1.22 2.62-.14.13-1.34 1.36-1.68 1.67-.25.24-.46.42-.65.58-.7.16-1.39.45-1.83 1.02-.43.68.1 1.65.91 1.62.64-.06 1.19-.34 1.69-.7.1.03.21.06.31.1 1.07.47 2.08 1.13 3.28 1.14.67-.02 1.42-.07 1.99-.44.57-.39.49-1.33-.1-1.65zm17.71-.18c0-1.01-.04-2.01-.14-3.01-.16-2.48-.19-4.98-.28-7.45-.21-.9-1.48-1.14-1.94-.31-.53.92-1 1.88-1.67 2.71-.06.3-1.23 1.14-1.36 2.05-.03.86 1.12 1.34 1.71.71.48-.56.93-1.14 1.36-1.73.04 1.01.09 2.07.14 2.79.01 1.39.23 2.78.19 4.17.02.51-.12 1.11.29 1.5.37.39 1.04.38 1.41 0 .39-.39.28-.94.29-1.43zm7.84 3.7c-10.69.08-22.8-.29-32.51.71-2.43-.01-4.86.04-7.28.15-.47.04-1.01-.05-1.36.32-.62.59-.16 1.74.71 1.71 2.81-.16 5.64-.14 8.45-.21 2.18-.33 3.91-.33 6.54-.49 8.48-.2 16.97-.22 25.45-.19 1.28 0 1.32-1.99 0-2zm-6.36 5.1c-.59-.44-1.39-.03-1.55.6-2.17-.07-4.53.82-5.25 3.04-.48 1.4-1.46 2.83-1.44 4.91.12 2.05 1.83 3.68 3.78 4.11 1.24.32 2.62.53 3.76-.19 2.03-1.31 2.6-3.94 2.92-6.18.23-2.29-.09-4.99-2.22-6.29zm-.09 7.78c-.45 2.06-1.52 3.04-2.05 3.15-2.07-.05-3.17-.4-4-1.97-.04-.12-.09-.3-.09-.4 0-.02-.01-.05-.01-.07-.01-.1-.03-.34-.02-.5.06-.2.31-1.15.42-1.36.05-.25.89-2.27.77-2 .82-1.82 1.33-1.9 3.37-2.06.58.15 1.04.01 1.32-.25.03.04.07.07.1.11.01.02.02.03.04.06.63 1.21.7 3.29.15 5.29zm.82-221c-.4-.82-1.08-1.34-1.88-1.61.84-.85.92-1.01 1.21-1.94.13-.92.09-1.94-.34-2.78-1.08-1.61-3.51-1.5-4.88-.33-.88.63-1.56 1.49-2.11 2.41-.21.32-.4.68-.27 1.07.2.83 1.42.99 1.83.24 1.35-2.42 2.92-3.06 3.74-2.3.02.06.04.14.05.21.04.31.05.63.05.94v.06c-.02.09-.05.19-.08.28-.03.07-.06.14-.09.22l-.01.01c-.11.1-.51.53-.63.65-.24.27-.45.58-.73.82-.39.25-.88.41-1.13.84-.41.66.15 1.61.94 1.52.11-.01.38-.05.53-.08.34-.02.69-.05 1.04-.02.13.03.25.07.37.11.78.5.88.9.57 2.39-.06.11-.13.21-.2.31-.14.08-.29.16-.43.27-.41.27-1.05.31-2.42.27-1.01-.26-.88-.24-1.86-.91-1.13-1.05-2.58.66-1.3 1.54.86.62 1.76 1.19 2.83 1.33 1.22.1 2.58.12 3.7-.46.7-.38 1.3-.91 1.58-1.68.3-1.08.38-2.33-.08-3.38z"/></svg>