<svg xmlns="http://www.w3.org/2000/svg" width="87" height="159.12" style="enable-background:new 0 0 87 159.12" xml:space="preserve"><path d="M16.43 28.74c-2.08-.69-4.26-.73-6.21.09.01-.59-.03-1.19-.18-1.77-.1-.42-.23-.82-.39-1.22 2.48-.35 4.99-.54 7.45-.85 1-.35.67-1.96-.39-1.91-2.59.17-5.16.51-7.73.85.08-.01-.49.05-.65.11-.33.11-.7.26-.88.58-.4.66.09 1.36.37 1.97.01.03.02.04.03.06.01.03.03.11.08.28.1.4.23.8.29 1.22.23 1.48-.91 3.15.87 3.48.73-.06 1.26-.69 1.9-.99.02-.01.03-.01.06-.02 2.05-.78 3.54-.36 5.07.16 2.61 1.03 2.2 3.27.99 4.89-.54.67-2.49 1.18-3.83 1.23-2.27.12-2.09.09-3.54-.99-.62-.32-1.41.24-1.39.91 0 .64.6.98 1.04 1.33 1.15.89 2.64.84 4.01.74 1.74-.15 3.62-.51 4.98-1.67 2.76-2.96 2.05-7.19-1.95-8.48zm65.41-1.11c-.71-1.69-2.35-2.99-3.97-3.74-.21-.4-.66-.68-1.15-.53-4.67 1.1-10.58 5.22-8.78 10.69.95 2.28 2.7 3.6 4.46 4.34.96.37 2.53.13 2.68.09 1.44-.14 2.81-.73 3.9-1.68 2.65-2.28 3.62-5.81 2.86-9.17zm-2.72 5.93c-1.51 2.76-4.85 3.57-6.57 2.74-.91-.66-2.72-1.83-2.86-3.63-.73-2.79 2.85-5.69 6.11-6.99.31-.15.68-.19 1.03-.26.08.11.17.21.31.28 1.15.67 2.2 1.59 2.56 2.1.48.88.32.47.36 1.8-.07 1.88-.06 2.55-.94 3.96z"/><path d="M84.27 19.26H66.72c-2.36.01-4.27.02-6-.23-3.21-.01-6.42 0-9.63-.01-4 .04-7.99.38-11.97.67-2.41.57-5.84 1.74-5.7 4.75-.07 5.44.2 11.59-2.34 12.96-1.92 1.01-5.04 1.65-7.25 1.83-2.67.59-4.09.68-6.92.61-4.77.07-9.53-.37-14.3-.48-1.28-.01-1.32 2 0 2 5.99.2 11.96.63 17.95.46 2.56-.42 3.79-.63 6.15-.98 4.59-.92 7.41-1.86 8.27-6.62.35-3.05.52-7.59.41-10.07.18-1.14 1.57-1.84 3.89-2.45.63-.23 1.86-.15 3.19-.22 2.18-.18 4.36-.34 6.55-.44 6.02-.12 11.16.04 16.7.22h18.55c.27 0 .52-.11.71-.29.62-.59.17-1.74-.71-1.71zM58.33 88.99c-1.3-1.62-3.29-1.86-5.23-1.59-.78.08-1.55.32-2.25.7 0-.71 0-1.41.01-2.12 1.44-.31 3.07-.57 3.78-.65.88-.11 1.77-.24 2.65-.38.25-.07.47-.24.6-.46.46-.73-.3-1.73-1.13-1.47-2.26.35-4.32.53-7.04 1.16-.33.07-.64.31-.75.63-.28 1.69-.04 3.47-.12 5.19-.02.37.07.77.39.98.49.42 1.2.17 1.52-.34.09-.08.24-.22.32-.3 1.46-1.18 3.06-1.06 4.29-1 .72.21.67.2 1.52 1.01.05.05.09.11.14.16.03.05.05.09.07.12.03.08.05.17.06.25.18 2.16-1.46 3.29-3.17 3.51-1.39.06-1.7.17-2.68-.23-.98-.3-.77-.54-1.68-.46-.52.13-.85.72-.7 1.23.23.76 1.15.81 1.77 1.13 2.52.9 5.9.32 7.56-1.9.98-1.44 1.4-3.79.07-5.17zm-2.16-86.1c-.43-1-1.74-.67-2.09.23.06-.03-1.11 1.17-1.67 1.72-.58.59-1.2 1.14-1.83 1.67a.99.99 0 0 0-.29.71c-.03.86 1.12 1.34 1.71.71.69-.63 1.42-1.25 2.1-1.91-.01.17-.02.33-.02.49-.33 2.96-.16 5.93-.2 8.9-.12.73.53 1.42 1.27 1.21.42-.11.74-.53.73-.96v-5.63c-.09-2.66.56-5.19.29-7.14zM83.09 99.4c-.84-.31-1.81-.06-2.7-.12-3.52.19-5.97.53-9.79.47-3.82.33-7.84.23-12.28.24-5.17.05-10.41-.1-15.55.33-.99.35-.68 1.95.39 1.91 10.94-.5 23.22.07 32.56-.66 2.06-.03 2.85-.2 4.64-.28.96-.14 2.13.29 2.94-.31.45-.45.34-1.27-.21-1.58zm-5.29 6.47c-.11-.23-.31-.44-.66-.59-1.94-.53-4.38-1.1-6.2.02-5.37 3.71-4.27 13 3.36 11.9.97-.18 2.01-.3 2.86-.83.99-.74 1.68-1.84 2.26-2.92 1.09-2.47.63-5.93-1.62-7.58zm.07 6.06c-.24.91-.9 1.92-1.78 2.76-.77.36-2.21.67-3.51.58-.51-.05-1.69-.45-2.25-1.09-.27-.41-.2-.42-.54-1.25a6.66 6.66 0 0 1-.22-.88c-.11-.96.67-3.38.86-3.38 1.77-2.45 2.65-2.2 5.38-1.68.32.21.71.34.99.6.75.28 1.5 2.85 1.07 4.34z"/><path d="M56.61 30.25c-.51-.4-1.1-.69-1.66-1.01 1.28-.8 2.55-1.68 3.37-2.95.48-1.04 1.54-3.37-.53-3.18-.11.03-.21.08-.3.14-.01 0-.02-.01-.04-.02-2.07-.68-4.3-1.27-6.45-.58-1.07.38-2.21.93-2.66 2.04-.44 1.05-.98 2.45-.03 3.37.74.63 1.57 1.11 2.44 1.51-.73.53-1.41 1.1-1.97 1.72-2.62 3.36.91 5.69 3.97 6.48 1.45.19 2.95-.18 4.36-.53 3.75-1.29 1.96-5.32-.5-6.99zm-5.8-2.9c-.2-.07-.86-.53-1-.62-.01-.01-.02-.02-.03-.02.01-.04.01-.09.02-.13.02-.18.24-.8.25-.86.01-.01.01-.02.02-.03.07-.16.16-.31.26-.45.25-.26.82-.5 1.19-.65 1.74-.52 2.83-.21 5.15.5-.31.96-2.05 1.97-3.94 3.16-.63-.23-1.13-.43-1.92-.9zM57 35.1c-.74.51-3.24.8-3.8.74-1.61-.48-3.28-1.38-3.32-2.15-.19-.74 1.11-1.93 3.12-3.24.11.04.23.08.34.11.73.58 1.64.89 2.36 1.49.02.02.06.05.11.09 1.88 1.84 1.56 2.69 1.19 2.96zm-.68 35.61c-.51-.4-1.1-.69-1.66-1.01 1.28-.8 2.55-1.68 3.37-2.95.48-1.04 1.54-3.37-.53-3.18-.11.03-.21.08-.3.14-.01 0-.02-.01-.04-.02-2.07-.68-4.3-1.27-6.45-.58-1.07.38-2.21.93-2.66 2.04-.44 1.05-.98 2.45-.03 3.37.74.63 1.57 1.11 2.44 1.51-.73.53-1.41 1.1-1.97 1.72-2.62 3.36.91 5.69 3.97 6.48 1.45.19 2.95-.18 4.36-.53 3.75-1.29 1.96-5.33-.5-6.99zm-5.8-2.9c-.2-.07-.86-.53-1-.62-.01-.01-.02-.02-.03-.02.01-.04.01-.09.02-.13.02-.18.24-.8.25-.86.01-.01.01-.02.02-.03.07-.16.16-.31.26-.45.25-.26.82-.5 1.19-.65 1.74-.52 2.83-.21 5.15.5-.31.96-2.05 1.97-3.94 3.16a9.46 9.46 0 0 1-1.92-.9zm6.19 7.75c-.74.51-3.24.8-3.8.74-1.61-.48-3.28-1.38-3.32-2.15-.19-.74 1.11-1.93 3.12-3.24.11.04.23.08.34.11.73.58 1.64.89 2.36 1.49.02.02.06.05.11.09 1.88 1.83 1.55 2.69 1.19 2.96zm2.92 38.05c-.03-1.62-.64-3.44-2.15-4.23.41-.5.78-1.03.93-1.66.19-.85-.1-1.7-.43-2.48-.84-2.07-3.54-2.27-5.39-1.61-1.23.38-1.95 1.55-2.65 2.54-.3.46-.61.92-.8 1.44.12-.26.11-.27 0 0-.15.32-.33.66-.21 1.02.2.83 1.42.99 1.83.24.46-1.27 2.03-3.33 2.42-3.32 1.76-.61 2.9-.01 3.01.51.37 1.17.37.88.21 1.44-.02.05-.05.1-.08.15-.34.48-.89 1.24-1.72 1.64-.54.27-.84.73-.53 1.45.38.57.92.56 1.44.34.88-.23 1.21.18 1.51.4.82 1.26.8 3.09.21 3.53-.95.88-.53.66-1.89 1.05-1.84.45-2.49.16-4.63-1.37-.14-.12-.63-.49-.84-.4-.53-.01-1.01.47-1 1 .07.93 1.39 1.47 2.06 1.99 1.06.51 2.15 1.03 3.36.99 2.54-.13 5.57-1.74 5.34-4.66zm-2.07 16.99c-.27-.7-.69-1.4-1.4-1.69.6-.96.92-2.11.72-3.22-.51-1.65-2.12-3.09-3.92-2.8-2 .54-3.72 2.26-4.4 4.19-.2 1.04 1.35 1.57 1.85.64.74-1.58 1.89-2.57 3-2.88.3.12.79-.09 1.5 1.27.02.06.04.13.05.18 0 .12-.01.24-.01.31-.07.3-.26.83-.33 1.02-.28.55-.18.32-.4.61-.22.23-.45.45-.7.65-.26.1-.5.25-.7.45-.45.52-.14 1.4.52 1.57.33.08.64 0 .93-.15.44-.1.69-.09 1.13 0 .01.01.01.02.02.02.01.01.01.01.02.03.35.68.17.23.39.98.25 1.39.29 1.22-.3 2.01-1.31 1.06-2.23 1.21-4.47-.19-.73-.47-1.73.3-1.47 1.13.35.88 1.47 1.07 2.22 1.51 2.25 1.03 5.17-.18 6.07-2.47.27-1.05.02-2.18-.32-3.17zm20.91-2.96c-.29-.91-.65-1.89-1.56-2.35a.897.897 0 0 0-.4-.13.861.861 0 0 0-.54-.38c-1.97-.56-4.1-.15-5.87.82-.81.5-1.25 1.39-1.7 2.18-.72 2.09-1.1 4.7.01 6.71 1.35 1.92 4.05 2.63 6.2 1.75 2.33-1 3.81-3.13 4-5.66.05-1.29.32-1.49-.14-2.94zm-5.12 6.91c-1.04.09-1.17.1-2.05-.17-.73-.44-.58-.36-.98-.69-.09-.09-.18-.18-.26-.28-.04-.06-.08-.13-.11-.19-.02-.05-.03-.1-.05-.15-.51-1.7.07-4.59.99-5.55.21-.38 2.23-1.01 3.07-1.01.4-.13.94.21 1.6.22.09.14.34.32.47.4.05.04.09.09.13.14.02.04.05.08.07.13.12.19.12.34.37 1.04.04.11.1.4.13.55.01.18-.02.32.01.07v.01c-.21 1.81-.15 2.48-.99 3.86-.13.4-1.58 1.45-2.4 1.62zM76.57 9.48c-1.18-1.1-3.01-1.04-4.44-.52-.34.16-.74.34-1.11.56.3-.8.74-1.63 1.34-2.51.57-.91 1.4-1.76 2.61-2.85.38-.36.94-.67.92-1.26.03-.86-1.12-1.34-1.71-.71-3.13 2.58-6.01 6.36-5.6 10.63.01 1.05.39 2.1 1.27 2.73 1.08.78 2.45 1.29 3.79 1.22 1.12-.14 2.17-.79 2.98-1.56 1.47-1.62 1.56-4.18-.05-5.73zm-2.86 5.25c-.41.11-.73.1-1.92-.34-.35-.16-.99-.58-1.09-.86-.14-.66-.18-1.32-.13-1.98.38.24.91.26 1.25-.11.82-.71 2.36-1.22 3.37-.51l.09.09c.06.1.28.44.39.67.03.07.08.22.11.34 0 .06.01.14 0 .21-.06.33-.12.66-.21.99-.09.41-1.06 1.28-1.86 1.5zm9.26 124.45c-.44-.44-1.1-.26-1.67-.28-4.16.38-9.94.4-14.96.15-4.25-.06-8.51.15-12.74-.14-3.68.08-7.35.4-11.03.47-1.29 0-1.32 1.99 0 2 3.36-.12 6.73-.24 10.08-.48 2.26.07 4.52.21 6.78.15 7.36-.06 16.04.42 22.45-.16 1 .2 1.86-.9 1.09-1.71zm-3.44 8.98c-.45-1.12-1.2-2.08-1.9-3.05-.53-.67-1.46-.57-1.8.01-1.4-.2-2.86-.23-4.2.18-1.36.6-2.19 2-2.72 3.33-1.07 2.34-1.07 5.66 1.19 7.3 1.61.92 3.59 1.58 5.37.76 1.21-.63 2.17-1.7 2.88-2.86.11-.15.36-.83.43-1.03.46-.9.87-1.83.84-2.87.01-.58.06-1.19-.09-1.77zm-2.49 3.64c-.69 2.15-2.53 3.71-4.08 3.19-1.89-.59-2.11-.9-2.56-1.93-.62-1.85.33-4.34 1.62-5.67.16-.3 1.39-.47 3.28-.34.44.07.91.23 1.33.11.16.22.31.43.45.66.12.13.41.71.51.91.01.02.01.05.02.06 0 .02 0 .04.01.06-.04 1.88.1 1.55-.58 2.95z"/></svg>