<svg xmlns="http://www.w3.org/2000/svg" width="87" height="159.12" style="enable-background:new 0 0 87 159.12" xml:space="preserve"><path d="M13.62 29.26c2.12-2.46 1.13-6.98-2.84-6.7-2.58.22-4.79 1.86-6.06 4.08-.65 1.13 1.06 2.13 1.73 1.01 1.31-2.6 4.75-3.6 5.53-2.9.79.69.61.71.74 1.38-.04 1.4-.24 1.79-1.9 2.67-.84.32-1.56 1.04-.83 1.89.22.23.56.33.88.29.18-.02.86-.14.97-.16.1-.01.22-.01.31-.01.98.28 1.61 1.38 1.56 3.04-.19.77-.1.54-.56 1.27-.17.17-.69.72-.85.84-.04.03-.03.03-.04.03 0 0-.01 0-.01.01-2.41.68-2.96.6-5.12-.79-1.33-1-2.48 1.08-.96 1.76 3.41 2.73 9.25 1.49 9.57-3.35 0-1.61-.75-3.51-2.12-4.36zm39.69.36c.98-1.21 1.44-2.78.96-4.39-.47-1.65-2.54-2.44-4.1-1.98-1.95.71-3.94 2.19-4.56 4.24-.2 1.05 1.35 1.57 1.85.64.55-1.33 1.28-1.82 2.33-2.53 1.38-.64 1.22-.69 2.33-.14l.01.01c.06.05.11.1.16.15l.03.06c.02.06.05.14.06.21.11.52.11.92-.05 1.6-.1.28-.37.71-1.19 1.47-.39.3-.17.2-.76.53-.69.12-1.13.88-.75 1.51.62 1.01 2.19.09 2.34.27.58.2 1.41.33 1.64 1.82 0 .09 0 .25.01.36-.33 1.33-.83 1.98-1.61 2.49-.69.63-3.08.53-3.49.27-.95-.41-1.04-.74-1.8-.85-.86-.03-1.34 1.12-.71 1.71 3.47 2.66 8.65 1.38 9.56-3.16.32-1.76-.72-3.56-2.26-4.29zm20.06.54c-1.55-1.07-3.6-1.44-5.45-1.07 1.4-1.76 2.86-3.1 4.23-4.09.7-.8-.39-2.04-1.29-1.47-1.76 1.1-3.16 2.69-4.48 4.28-.66.9-1.52 1.77-1.5 2.96 0 .73-.95 4.05.36 5.47 1.03 1.33 2.81 1.59 4.39 1.42 1.11-.11 2.27-.29 3.12-1.08 2.09-1.83 2.85-4.34.62-6.42zm-.66 3.1c-.18.7-.8 1.66-1.91 2.21-1.43.39-4.23.43-4.22-1.1-.07-.17.06-1.64.2-2.77 1.44-.91 3.8-.81 5.29.06.22.22.86 1.12.64 1.6z"/><path d="M77.39 18.09c-2.3-.23-4.6-.14-6.91-.15-6.18.41-12.38.4-18.58.51-5.31.28-10.64.02-15.95.3-2.82.05-7.65.25-7.46 4.1-.05.39-.3 2.12-.14 3.31.06.26.5 1.56.58 1.74.35 1.8.26 3.19.6 5.45.55 1.58.03 2.65-.94 3.82-1.78 2.06-4.41 2-7.89 2.23-2.5.28-4.82.52-7.85.27-2.2-.04-4.18.02-5.72-.18-1.91.04-3.81-.17-5.72-.3-.41-.03-.88-.07-1.2.27-.62.58-.16 1.74.71 1.71 4.35.28 7.32.52 11.53.48 2.97.27 5.99.03 8.23-.25 4.72-.1 10.14-.81 11.06-6.4.2-1.07-.45-2.57-.36-2.83-.15-2.73-.25-4.29-1.09-6.55.05-1 .13-2.96.35-3.7.04-.04.08-.08.12-.11.02-.01.02-.02.03-.03.12-.09.24-.17.38-.24 1.38-.61.88-.53 2.43-.66 7.94-.49 15.92-.25 23.88-.51 3.92-.25 7.85.02 11.77-.38 2.99-.24 7.77.11 9.75.09.71.29 1.67.02 1.67-.88-.17-1.52-2.21-1-3.28-1.11zM54.83 68.08c-.1-.05-.22-.09-.36-.13.47-.54.89-1.15 1.03-1.85.15-.71-.11-1.41-.41-2.04-.73-1.84-2.76-1.97-4.44-1.5-1.86.27-3.23 1.61-4.38 3-.36.52-1 1.05-.81 1.74.2.83 1.42.99 1.83.24.52-.81 1.85-2.26 2.65-2.69.01 0 .01 0 .02-.01.58-.22 1.18-.36 1.79-.46.1-.02.3-.05.44-.07.31 0 .16-.05.69.1.03.01.06.03.08.04.05.04.09.09.14.14 0 .01 0 0 .01.01.39.78.41.67.42 1.16-.01.02-.01.05-.02.07-.52.92-.97 1.29-1.57 1.72-.37.24-.75.47-1.15.68.02-.01.03 0 .05-.01-.45.27-.69.68-.48 1.26.16.45.73.72 1.18.58h.02c.01 0 .02-.01.02-.01.23-.1.47-.17.72-.21.25-.01 1.09-.06 1.37-.05.11.03.22.06.33.1.14.06.27.13.4.2l.01.01c.27 1.02.53 2.46-.97 3.64-1.39 1.17-3.85 1.49-6.23-.11-.73-.47-1.73.3-1.47 1.13.37.87 1.57 1.14 2.36 1.56 1.56.47 3.36.6 4.89-.02 1.75-.75 3.43-2.29 3.59-4.28.13-1.49-.08-3.44-1.75-3.94zm.69 22.43c-.17-1.24-1.15-1.85-2.25-2.05.1-.13.2-.27.29-.41 1.05-1.75 1.42-4.01-.88-4.89-1-.14-2.08-.19-3.08 0-1.41.61-2.48 1.89-3.28 3.17-.24.49-.7.97-.53 1.54.2.83 1.42.99 1.83.24.74-1.52 2.02-2.88 2.72-3.07.28.01 1.22.01 1.45.01.14-.01.19-.01.21-.01.01 0 .02 0 .03.01h.01c.01 0 .02 0 .03.01.02.01.03.02.05.03.1.08.19.17.27.27 0 .02.01.03.01.05v.14c-.05.15-.26.93-.37 1.1.26-.57-.34.7-.55.88.08-.1.25-.32.06-.08-.5.67-1.28 1.14-1.7 1.84-.33.65.24 1.45.94 1.43 1.18-.36 2.29-.48 2.69-.08 0 .01.01.02.01.03.04.22.19.84.26 1.11.09.9-.27 1.21-.58 1.67-1.11 1.25-1.58 1.39-2.88 1.46-.7.13-1.04-.48-2.02-.12-.75.4-.59 1.63.24 1.83 3.68 1.39 8.4-2.14 7.02-6.11zm23.66 8.34c-4.64.35-9.35-.01-14-.17-5.4-.02-10.79.16-16.18.48-3.05 0-6.11.03-9.16.16-.27 0-.52.11-.71.29-.62.59-.16 1.74.71 1.71 7.48-.14 14.95-.47 22.43-.64 5.66-.07 11.33.62 16.99.17 1.68.15 1.61-2.26-.08-2zm-22.94 10.42c-.19-.63-.2-1.33-.55-1.91-.62-.83-1.18-1.87-2.27-2.1-.07-.03-.15-.04-.22-.06-.12-.15-.29-.29-.54-.38-3.87-1.33-5.59 1-7.11 4.21-.56 1.04-.7 2.25-.72 3.42.01.92.09 1.9.67 2.65.72 1.04 1.79 1.82 3.07 1.91 1.17.17 2.42.27 3.51-.28 2.83-1.19 4.7-4.42 4.16-7.46zm-2.35 3.15c-1.22 1.88-2.29 2.93-4.53 2.68-.46-.03-1.12-.15-1.45-.35-.13-.11-.26-.23-.38-.35-.08-.07-.23-.24-.32-.35-.07-.09-.14-.19-.19-.29l-.04-.08c-.04-.09-.07-.25-.1-.36-.1-2-.07-2.42.8-4.08.73-1.38.9-1.66 2.03-2.66.02-.02.05-.03.08-.04.04-.01.1-.03.15-.04 1.03-.03 1.17-.01 1.75.12.13.07.26.11.39.14.24.33.64.39 1.01.51l.01.01c.56.69.86.86 1 1.57.45 1.41.14 2.55-.21 3.57zm19.6-3.26c-1.49-.73-3.39-1.04-4.96-.34.06-.1.11-.2.17-.3.52-.89 1.71-2.11 2.89-3.31a.99.99 0 0 0 .29-.71c.03-.86-1.12-1.34-1.71-.71-2.07 2.04-4.19 4.4-4.64 7.37-.09.7-.16 1.41-.05 2.11 0-.01 0 .03.02.18.03.47.16.93.48 1.28 1.72 2.1 5.04 2.42 7.1.65 1.72-1.53 2.43-4.66.41-6.22zm-.95 3.59c-.01.03-.03.06-.05.11-.21.48-.75 1.04-.83 1.12-.77.49-1.81.67-2.21.53-1.24-.3-1.09-.29-1.94-1.09-.1-.42-.12-.97-.05-1.6.14-.05.27-.11.38-.23 1.28-1.38 3.18-1.42 4.58-.75.21.36.32.77.31 1.23-.04.19-.08.37-.14.55-.02.07-.04.1-.05.13zM69 127.7c.21-.29.43-.57.64-.86-.22.07 1.56-1.63 2.11-2.14.42-.41 1.11-.71 1.1-1.38.03-.86-1.12-1.34-1.71-.71-1.73 1.35-3.17 3-4.4 4.81-.71.83-1.01 1.86-1.12 2.93-.32 4.48 2.88 7.69 7.47 4.93 1.3-.76 1.67-2.3 1.8-3.7.09-3.12-3.24-4.34-5.89-3.88zm1.42 6.52c-1.37.26-1.96-.12-2.52-1.52-.21-.52-.37-1.13-.31-1.96.28.03.57-.05.79-.28.64-.58.84-.67 1.06-.81.04-.01.06-.02.09-.03 2.49-.05 3.46.61 3.33 2.18-.15 1.13-.48 2.12-2.44 2.42zm9.94 4.8c-.73-.3-1.6-.07-2.38-.14-1.31.01-2.64-.06-3.92.25-2.75.18-5.52.01-8.27.08-1.89.03-3.79.07-5.68.15-.26 0-.52.11-.71.29-.63.59-.16 1.74.71 1.71 5.23-.32 11.64.12 15.94-.48 1.27-.01 2.53 0 3.8-.01.26 0 .52-.11.71-.29.46-.43.35-1.25-.2-1.56zm-5.24 7.95c-.4-.72-.78-1.49-1.48-1.96a1.57 1.57 0 0 0-.48-.22.877.877 0 0 0-.56-.4c-1.81-.42-3.51-.62-5.41.85-1.08 1.26-1.5 2.98-1.74 4.6-.13.89-.35 1.81-.11 2.7.26.72.71 1.41 1.32 1.88 1.39.85 3.13.76 4.71.93 2.57-.11 4.33-3.26 4.51-5.58.13-1.01-.15-1.99-.76-2.8zm-1.77 4.45c-1.4 2.15-1.1 2.03-3.93 1.76-1.95-.22-2.45-.65-2.04-2.83.28-1.73.43-2.39 1.16-3.64.19-.15.55-.39 1.44-.61.63-.15.72.04 1.98.19.12.16.3.31.56.42.02.01.03.01.05.01.07.08.15.15.22.23.02.02.02.03.04.05.07.09.13.19.18.29.23.51.57.96.83 1.45.14.9.09 1.59-.49 2.68zm1.42-138.09c-.47-.3-.93-.01-1.4.1-.75-.03-.64 0-1.63-.36-.31-.06-.95-.51-1.7-.86 1.74-1.59 3.44-3.31 3.7-5.68.23-3.32-2.47-6.06-5.47-3.61-.79.8-1.47 1.7-2.07 2.65-.23.32-.43.69-.3 1.09.2.83 1.42.99 1.83.24 1.4-2.27 2.45-3.32 3.27-2.75.28.04.7 1.06.74 1.73.09 1.16-.4 1.97-.93 2.6-1.02 1.23-2.55 2.76-3.7 3.72-.69.29-1.39.68-1.68 1.36-.2.68.4 1.32 1.08 1.29.67-.03 1.15-.57 1.67-.94l.04-.04c1.15-.27 1.72 1.24 4.96 1.55.67-.01 1.54-.13 1.95-.72.28-.46.11-1.11-.36-1.37zM52.47 2.52c-.16-.71-1.08-1.1-1.66-.61-.22.13-.3.37-.38.6-.03.07-.09.16-.14.25-.09.1-.71.86-.87.99-.99 1.06-1.61 1.52-2.36 2.1-.22.13-.39.35-.46.6-.26.83.73 1.59 1.47 1.13.76-.59 1.54-1.2 2.26-1.88-.21 1.44-.47 3.18-.39 4.98.01 1.62.01 2.04-.14 3.34v.05c-.04.16-.08.32-.04.48.04.69.91 1.09 1.49.73.51-.29.54-.9.57-1.42.16-.79.13-2.77.14-4.35-.1-2.68.82-3.88.51-6.99z"/></svg>