<svg xmlns="http://www.w3.org/2000/svg" width="622.489" height="387.766" viewBox="0 0 164.7 102.597"><defs><marker style="overflow:visible" id="e" refX="0" refY="0" orient="auto"><path transform="scale(-.6)" d="M8.719 4.034-2.207.016 8.719-4.002c-1.746 2.372-1.736 5.618 0 8.036z" style="fill:#000;fill-opacity:1;fill-rule:evenodd;stroke:#000;stroke-width:.625;stroke-linejoin:round;stroke-opacity:1"/></marker><marker orient="auto" refY="0" refX="0" id="c" style="overflow:visible"><path style="fill-rule:evenodd;stroke-width:.625;stroke-linejoin:round;stroke:#000;stroke-opacity:1;fill:#000;fill-opacity:1" d="M8.719 4.034-2.207.016 8.719-4.002c-1.746 2.372-1.736 5.618 0 8.036z" transform="rotate(180) scale(.6)"/></marker><marker orient="auto" refY="0" refX="0" id="b" style="overflow:visible"><path style="fill:#000;fill-opacity:1;fill-rule:evenodd;stroke:#000;stroke-width:.625;stroke-linejoin:round;stroke-opacity:1" d="M8.719 4.034-2.207.016 8.719-4.002c-1.746 2.372-1.736 5.618 0 8.036z" transform="scale(-.6)"/></marker><marker orient="auto" refY="0" refX="0" id="a" style="overflow:visible"><path style="fill:#000;fill-opacity:1;fill-rule:evenodd;stroke:#000;stroke-width:.625;stroke-linejoin:round;stroke-opacity:1" d="M8.719 4.034-2.207.016 8.719-4.002c-1.746 2.372-1.736 5.618 0 8.036z" transform="scale(-.6)"/></marker><marker orient="auto" refY="0" refX="0" id="d" style="overflow:visible"><path style="fill:#000;fill-opacity:1;fill-rule:evenodd;stroke:#000;stroke-width:.625;stroke-linejoin:round;stroke-opacity:1" d="M8.719 4.034-2.207.016 8.719-4.002c-1.746 2.372-1.736 5.618 0 8.036z" transform="scale(-.6)"/></marker></defs><path style="fill:none;stroke:#000;stroke-width:.5;stroke-linecap:butt;stroke-linejoin:miter;stroke-miterlimit:4;stroke-dasharray:none;stroke-opacity:1;marker-end:url(#a)" d="M11.626 102.962H147.4" transform="translate(-4.32 -7.803)"/><path style="fill:none;stroke:#000;stroke-width:.5;stroke-linecap:butt;stroke-linejoin:miter;stroke-miterlimit:4;stroke-dasharray:none;stroke-opacity:1;marker-end:url(#b)" d="M12.528 104.5V14.273" transform="translate(-4.32 -7.803)"/><path style="fill:none;stroke:#000;stroke-width:.5;stroke-linecap:butt;stroke-linejoin:miter;stroke-miterlimit:4;stroke-dasharray:none;stroke-opacity:1" d="M30.051 103.18v1.052m17.256-1.044v1.052m17.289-1.035v1.052m17.389-1.052v1.052m17.205-1.069v1.052m17.323-1.069v1.052m17.322-1.035v1.052M12.29 91.783h-1.052m1.048-11.397h-1.052m1.06-11.384h-1.052m1.052-11.359h-1.052m1.052-11.367h-1.052m1.036-11.434h-1.053m1.053-11.476h-1.053" transform="translate(-4.32 -7.803)"/><text xml:space="preserve" style="font-style:normal;font-weight:400;font-size:4.23333311px;line-height:1.25;font-family:sans-serif;letter-spacing:0;word-spacing:0;fill:#000;fill-opacity:1;stroke:none;stroke-width:.26458332" x="7.484" y="11.823" transform="translate(-4.32 -7.803)"><tspan x="7.484" y="11.823" style="font-size:5.29166651px;stroke-width:.26458332">fart (km/t)</tspan></text><text xml:space="preserve" style="font-style:normal;font-weight:400;font-size:4.23333311px;line-height:1.25;font-family:sans-serif;letter-spacing:0;word-spacing:0;fill:#000;fill-opacity:1;stroke:none;stroke-width:.26458332" x="142.616" y="109.702" transform="translate(-4.32 -7.803)"><tspan x="142.616" y="109.702" style="font-size:5.29166651px;stroke-width:.26458332">tid (timer)</tspan></text><text xml:space="preserve" style="font-style:normal;font-weight:400;font-size:4.23333311px;line-height:1.25;font-family:sans-serif;letter-spacing:0;word-spacing:0;fill:#000;fill-opacity:1;stroke:none;stroke-width:.26458332" x="10.91" y="110.051" transform="translate(-4.32 -7.803)"><tspan x="10.91" y="110.051" style="font-size:5.29166651px;stroke-width:.26458332">0</tspan></text><text xml:space="preserve" style="font-style:normal;font-weight:400;font-size:4.23333311px;line-height:1.25;font-family:sans-serif;letter-spacing:0;word-spacing:0;fill:#000;fill-opacity:1;stroke:none;stroke-width:.26458332" x="28.509" y="110.127" transform="translate(-4.32 -7.803)"><tspan x="28.509" y="110.127" style="font-size:5.29166651px;stroke-width:.26458332">1</tspan></text><text xml:space="preserve" style="font-style:normal;font-weight:400;font-size:4.23333311px;line-height:1.25;font-family:sans-serif;letter-spacing:0;word-spacing:0;fill:#000;fill-opacity:1;stroke:none;stroke-width:.26458332" x="45.659" y="110.174" transform="translate(-4.32 -7.803)"><tspan x="45.659" y="110.174" style="font-size:5.29166651px;stroke-width:.26458332">2</tspan></text><text xml:space="preserve" style="font-style:normal;font-weight:400;font-size:4.23333311px;line-height:1.25;font-family:sans-serif;letter-spacing:0;word-spacing:0;fill:#000;fill-opacity:1;stroke:none;stroke-width:.26458332" x="62.999" y="110.222" transform="translate(-4.32 -7.803)"><tspan x="62.999" y="110.222" style="font-size:5.29166651px;stroke-width:.26458332">3</tspan></text><text xml:space="preserve" style="font-style:normal;font-weight:400;font-size:4.23333311px;line-height:1.25;font-family:sans-serif;letter-spacing:0;word-spacing:0;fill:#000;fill-opacity:1;stroke:none;stroke-width:.26458332" x="80.339" y="109.985" transform="translate(-4.32 -7.803)"><tspan x="80.339" y="109.985" style="font-size:5.29166651px;stroke-width:.26458332">4</tspan></text><text xml:space="preserve" style="font-style:normal;font-weight:400;font-size:4.23333311px;line-height:1.25;font-family:sans-serif;letter-spacing:0;word-spacing:0;fill:#000;fill-opacity:1;stroke:none;stroke-width:.26458332" x="97.631" y="110.08" transform="translate(-4.32 -7.803)"><tspan x="97.631" y="110.08" style="font-size:5.29166651px;stroke-width:.26458332">5</tspan></text><text xml:space="preserve" style="font-style:normal;font-weight:400;font-size:4.23333311px;line-height:1.25;font-family:sans-serif;letter-spacing:0;word-spacing:0;fill:#000;fill-opacity:1;stroke:none;stroke-width:.26458332" x="114.971" y="110.174" transform="translate(-4.32 -7.803)"><tspan x="114.971" y="110.174" style="font-size:5.29166651px;stroke-width:.26458332">6</tspan></text><text xml:space="preserve" style="font-style:normal;font-weight:400;font-size:4.23333311px;line-height:1.25;font-family:sans-serif;letter-spacing:0;word-spacing:0;fill:#000;fill-opacity:1;stroke:none;stroke-width:.26458332" x="132.216" y="110.127" transform="translate(-4.32 -7.803)"><tspan x="132.216" y="110.127" style="font-size:5.29166651px;stroke-width:.26458332">7</tspan></text><text xml:space="preserve" style="font-style:normal;font-weight:400;font-size:4.23333311px;line-height:1.25;font-family:sans-serif;letter-spacing:0;word-spacing:0;fill:#000;fill-opacity:1;stroke:none;stroke-width:.26458332" x="7.318" y="104.883" transform="translate(-4.32 -7.803)"><tspan x="7.318" y="104.883" style="font-size:5.29166651px;stroke-width:.26458332">0</tspan></text><text xml:space="preserve" style="font-style:normal;font-weight:400;font-size:4.23333311px;line-height:1.25;font-family:sans-serif;letter-spacing:0;word-spacing:0;fill:#000;fill-opacity:1;stroke:none;stroke-width:.26458332" x="7.413" y="93.638" transform="translate(-4.32 -7.803)"><tspan x="7.413" y="93.638" style="font-size:5.29166651px;stroke-width:.26458332">5</tspan></text><text xml:space="preserve" style="font-style:normal;font-weight:400;font-size:4.23333311px;line-height:1.25;font-family:sans-serif;letter-spacing:0;word-spacing:0;fill:#000;fill-opacity:1;stroke:none;stroke-width:.26458332" x="3.893" y="82.299" transform="translate(-4.32 -7.803)"><tspan x="3.893" y="82.299" style="font-size:5.29166651px;stroke-width:.26458332">10</tspan></text><text xml:space="preserve" style="font-style:normal;font-weight:400;font-size:4.23333311px;line-height:1.25;font-family:sans-serif;letter-spacing:0;word-spacing:0;fill:#000;fill-opacity:1;stroke:none;stroke-width:.26458332" x="4.035" y="70.912" transform="translate(-4.32 -7.803)"><tspan x="4.035" y="70.912" style="font-size:5.29166651px;stroke-width:.26458332">15</tspan></text><text xml:space="preserve" style="font-style:normal;font-weight:400;font-size:4.23333311px;line-height:1.25;font-family:sans-serif;letter-spacing:0;word-spacing:0;fill:#000;fill-opacity:1;stroke:none;stroke-width:.26458332" x="3.964" y="59.526" transform="translate(-4.32 -7.803)"><tspan x="3.964" y="59.526" style="font-size:5.29166651px;stroke-width:.26458332">20</tspan></text><text xml:space="preserve" style="font-style:normal;font-weight:400;font-size:4.23333311px;line-height:1.25;font-family:sans-serif;letter-spacing:0;word-spacing:0;fill:#000;fill-opacity:1;stroke:none;stroke-width:.26458332" x="4.011" y="48.234" transform="translate(-4.32 -7.803)"><tspan x="4.011" y="48.234" style="font-size:5.29166651px;stroke-width:.26458332">25</tspan></text><text xml:space="preserve" style="font-style:normal;font-weight:400;font-size:4.23333311px;line-height:1.25;font-family:sans-serif;letter-spacing:0;word-spacing:0;fill:#000;fill-opacity:1;stroke:none;stroke-width:.26458332" x="3.917" y="36.776" transform="translate(-4.32 -7.803)"><tspan x="3.917" y="36.776" style="font-size:5.29166651px;stroke-width:.26458332">30</tspan></text><text xml:space="preserve" style="font-style:normal;font-weight:400;font-size:4.23333311px;line-height:1.25;font-family:sans-serif;letter-spacing:0;word-spacing:0;fill:#000;fill-opacity:1;stroke:none;stroke-width:.26458332" x="4.058" y="25.271" transform="translate(-4.32 -7.803)"><tspan x="4.058" y="25.271" style="font-size:5.29166651px;stroke-width:.26458332">35</tspan></text><path style="fill:none;stroke:#000;stroke-width:.5;stroke-linecap:butt;stroke-linejoin:miter;stroke-miterlimit:4;stroke-dasharray:none;stroke-opacity:.19607843" d="M30.051 14.203v88.517m17.256-88.525v88.516m17.289-88.516v88.516M81.99 14.195v88.516m17.2-88.514v88.516m17.323-88.518v88.516m17.322-88.516v88.516m13.677-10.928H12.291m135.217-11.397H12.286m135.23-11.384H12.294m135.222-11.359H12.294m135.222-11.367H12.294M147.5 34.842H12.277M147.5 23.366H12.277" transform="translate(-4.32 -7.803)"/><path style="fill:none;stroke:#000;stroke-width:.5;stroke-linecap:butt;stroke-linejoin:miter;stroke-miterlimit:4;stroke-dasharray:none;stroke-opacity:1" d="M104.503 102.967c-1.805.101-1.421-15.392-1.897-22.832-1.203-7.573 1.05-23.753-3.406-22.651l-4.075.067c-3.24-1.186-1.987 15.606-2.54 22.985 0 7.483.14 22.293-2.163 22.409l-7.634-.012c-2.004-.476-1.085-15.249-1.627-22.873-.216-7.864.686-21.394-2.238-22.438l-19.432-.005c-2.37-.485-2.403 15.235-2.612 22.852-.114 7.791.464 22.91-1.586 22.484l-7.974-.008c-1.865.233-1.325-15.218-1.84-23.01-.502-7.389-.096-21.855-3.608-22.455l-25.123.401c-4.718-.075-2.8 30.079-4.201 45.118" transform="translate(-4.32 -7.803)"/><text xml:space="preserve" style="font-style:normal;font-weight:400;font-size:4.23333311px;line-height:1.25;font-family:sans-serif;letter-spacing:0;word-spacing:0;fill:#000;fill-opacity:1;stroke:none;stroke-width:.26458332" x="41.361" y="51.435" transform="translate(-4.32 -7.803)"><tspan x="41.361" y="51.435" style="font-size:4.93888903px;stroke-width:.26458332">1. pause</tspan></text><text xml:space="preserve" style="font-style:normal;font-weight:400;font-size:4.23333311px;line-height:1.25;font-family:sans-serif;letter-spacing:0;word-spacing:0;fill:#000;fill-opacity:1;stroke:none;stroke-width:.26458332" x="77.789" y="51.435" transform="translate(-4.32 -7.803)"><tspan x="77.789" y="51.435" style="font-size:4.93888903px;stroke-width:.26458332">2. pause</tspan></text><text xml:space="preserve" style="font-style:normal;font-weight:400;font-size:4.23333311px;line-height:1.25;font-family:sans-serif;letter-spacing:0;word-spacing:0;fill:#000;fill-opacity:1;stroke:none;stroke-width:.26458332" x="106.468" y="97.218" transform="translate(-4.32 -7.803)"><tspan x="106.468" y="97.218" style="font-size:4.93888903px;stroke-width:.26458332">5:20</tspan></text><path style="fill:none;stroke:#000;stroke-width:.5;stroke-linecap:butt;stroke-linejoin:miter;stroke-miterlimit:4;stroke-dasharray:none;stroke-opacity:1;marker-end:url(#c)" d="m50.703 53.195.301 7.185" transform="translate(-4.32 -7.803)"/><path style="fill:none;stroke:#000;stroke-width:.5;stroke-linecap:butt;stroke-linejoin:miter;stroke-miterlimit:4;stroke-dasharray:none;stroke-opacity:1;marker-end:url(#d)" d="m87.609 52.148.3 7.185" transform="translate(-4.32 -7.803)"/><path style="fill:none;stroke:#000;stroke-width:.5;stroke-linecap:butt;stroke-linejoin:miter;stroke-miterlimit:4;stroke-dasharray:none;stroke-opacity:1;marker-end:url(#e)" d="m110.956 98.115-5.055 3.355" transform="translate(-4.32 -7.803)"/></svg>