<svg xmlns="http://www.w3.org/2000/svg" width="197.587" height="197.587" viewBox="0 0 52.278 52.278"><path style="opacity:1;fill:#d70000;fill-opacity:1;stroke:#000;stroke-width:.5;stroke-linecap:round;stroke-miterlimit:4;stroke-dasharray:none;stroke-dashoffset:0;stroke-opacity:1" d="M25.859 15.919h12.096v12.096H25.859z" transform="translate(-23.872 -13.798)"/><path style="opacity:1;fill:#2b86f9;fill-opacity:1;stroke:#000;stroke-width:.5;stroke-linecap:round;stroke-miterlimit:4;stroke-dasharray:none;stroke-dashoffset:0;stroke-opacity:1" d="M37.955 15.919h12.096v12.096H37.955zM25.859 28.015h12.096v12.096H25.859z" transform="translate(-23.872 -13.798)"/><path style="opacity:1;fill:#0d8512;fill-opacity:1;stroke:#000;stroke-width:.5;stroke-linecap:round;stroke-miterlimit:4;stroke-dasharray:none;stroke-dashoffset:0;stroke-opacity:1" d="M37.955 28.015h12.096v12.096H37.955z" transform="translate(-23.872 -13.798)"/><path style="opacity:1;fill:#2b86f9;fill-opacity:1;stroke:#000;stroke-width:.5;stroke-linecap:round;stroke-miterlimit:4;stroke-dasharray:none;stroke-dashoffset:0;stroke-opacity:1" d="M50.052 15.919h12.096v12.096H50.052z" transform="translate(-23.872 -13.798)"/><path style="opacity:1;fill:#d70000;fill-opacity:1;stroke:#000;stroke-width:.5;stroke-linecap:round;stroke-miterlimit:4;stroke-dasharray:none;stroke-dashoffset:0;stroke-opacity:1" d="M62.148 15.919h12.096v12.096H62.148z" transform="translate(-23.872 -13.798)"/><path style="opacity:1;fill:#0d8512;fill-opacity:1;stroke:#000;stroke-width:.5;stroke-linecap:round;stroke-miterlimit:4;stroke-dasharray:none;stroke-dashoffset:0;stroke-opacity:1" d="M50.052 28.015h12.096v12.096H50.052z" transform="translate(-23.872 -13.798)"/><path style="opacity:1;fill:#2b86f9;fill-opacity:1;stroke:#000;stroke-width:.5;stroke-linecap:round;stroke-miterlimit:4;stroke-dasharray:none;stroke-dashoffset:0;stroke-opacity:1" d="M62.148 28.015h12.096v12.096H62.148z" transform="translate(-23.872 -13.798)"/><path style="opacity:1;fill:#0d8512;fill-opacity:1;stroke:#000;stroke-width:.5;stroke-linecap:round;stroke-miterlimit:4;stroke-dasharray:none;stroke-dashoffset:0;stroke-opacity:1" d="M25.859 40.111h12.096v12.096H25.859z" transform="translate(-23.872 -13.798)"/><path style="opacity:1;fill:#2b86f9;fill-opacity:1;stroke:#000;stroke-width:.5;stroke-linecap:round;stroke-miterlimit:4;stroke-dasharray:none;stroke-dashoffset:0;stroke-opacity:1" d="M37.955 40.111h12.096v12.096H37.955z" transform="translate(-23.872 -13.798)"/><path style="opacity:1;fill:#d70000;fill-opacity:1;stroke:#000;stroke-width:.5;stroke-linecap:round;stroke-miterlimit:4;stroke-dasharray:none;stroke-dashoffset:0;stroke-opacity:1" d="M25.859 52.208h12.096v12.096H25.859z" transform="translate(-23.872 -13.798)"/><path style="opacity:1;fill:#0d8512;fill-opacity:1;stroke:#000;stroke-width:.5;stroke-linecap:round;stroke-miterlimit:4;stroke-dasharray:none;stroke-dashoffset:0;stroke-opacity:1" d="M37.955 52.208h12.096v12.096H37.955z" transform="translate(-23.872 -13.798)"/><path style="opacity:1;fill:#2b86f9;fill-opacity:1;stroke:#000;stroke-width:.5;stroke-linecap:round;stroke-miterlimit:4;stroke-dasharray:none;stroke-dashoffset:0;stroke-opacity:1" d="M50.052 40.111h12.096v12.096H50.052z" transform="translate(-23.872 -13.798)"/><path style="opacity:1;fill:#0d8512;fill-opacity:1;stroke:#000;stroke-width:.5;stroke-linecap:round;stroke-miterlimit:4;stroke-dasharray:none;stroke-dashoffset:0;stroke-opacity:1" d="M62.148 40.111h12.096v12.096H62.148zM50.052 52.208h12.096v12.096H50.052z" transform="translate(-23.872 -13.798)"/><path style="opacity:1;fill:#d70000;fill-opacity:1;stroke:#000;stroke-width:.5;stroke-linecap:round;stroke-miterlimit:4;stroke-dasharray:none;stroke-dashoffset:0;stroke-opacity:1" d="M62.148 52.208h12.096v12.096H62.148z" transform="translate(-23.872 -13.798)"/><path style="opacity:1;fill:none;fill-opacity:1;stroke:#000;stroke-width:.5;stroke-linecap:round;stroke-miterlimit:4;stroke-dasharray:none;stroke-dashoffset:0;stroke-opacity:1" d="M24.122 14.048H75.9v51.778H24.122z" transform="translate(-23.872 -13.798)"/></svg>