<svg xmlns="http://www.w3.org/2000/svg" xmlns:xlink="http://www.w3.org/1999/xlink" width="80mm" height="347.055" viewBox="0 0 80 91.825"><defs><symbol id="a" overflow="visible" style="overflow:visible"><path d="M1.953-5.156 3.86-.97l2.672-9.203h1.375v.719h-.984L4.032.453H3.5L1.266-4.344l-.907.407-.171-.407zm0 0" style="stroke:none"/></symbol><symbol id="b" overflow="visible" style="overflow:visible"><path d="M3.75-1.406c0 .21.008.367.031.468a.55.55 0 0 0 .125.266.685.685 0 0 0 .25.156c.114.032.254.059.422.079.176.023.399.039.672.046V0H1.266v-.39c.394-.02.675-.047.843-.079.176-.031.313-.078.407-.14a.444.444 0 0 0 .187-.25c.04-.114.063-.297.063-.547v-4.375c0-.145-.028-.25-.079-.313-.042-.07-.117-.11-.218-.11-.117 0-.278.063-.485.188-.21.118-.468.278-.78.485l-.25-.407 2.53-1.515h.297a23.07 23.07 0 0 0-.031 1.437zm0 0" style="stroke:none"/></symbol><symbol id="c" overflow="visible" style="overflow:visible"><path d="M3 .094c-.781 0-1.36-.305-1.734-.922C.89-1.441.703-2.368.703-3.61c0-.664.055-1.239.172-1.72.113-.476.273-.874.484-1.187a1.95 1.95 0 0 1 .75-.703 2.08 2.08 0 0 1 .97-.234c.788 0 1.378.308 1.765.922.383.605.578 1.523.578 2.75 0 1.273-.211 2.234-.625 2.89C4.39-.234 3.789.094 3 .094zM1.75-3.781c0 1.18.11 2.043.328 2.594.219.542.55.812 1 .812.438 0 .758-.254.969-.766.219-.52.328-1.32.328-2.406 0-.82-.059-1.488-.172-2-.105-.52-.258-.89-.453-1.11a.874.874 0 0 0-.688-.327c-.25 0-.46.074-.624.218-.168.149-.305.36-.407.641-.105.273-.18.605-.219 1-.042.398-.062.844-.062 1.344zm0 0" style="stroke:none"/></symbol></defs><g transform="translate(-20.431 -22.737) scale(2.06441)"><path style="opacity:1;fill:none;fill-opacity:1;stroke:#000;stroke-width:.2;stroke-linecap:round;stroke-miterlimit:4;stroke-dasharray:none;stroke-dashoffset:0;stroke-opacity:1" d="M10.557 11.69h9.354v9.354h-9.354zm9.355 0h9.354v9.354h-9.354zm9.354 0h9.354v9.354h-9.354zm9.354 0h9.354v9.354H38.62zm-28.063 9.354h9.354v9.354h-9.354zm9.355 0h9.354v9.354h-9.354zm9.354 0h9.354v9.354h-9.354zm9.354 0h9.354v9.354H38.62zm-28.063 9.355h9.354v9.354h-9.354zm9.355 0h9.354v9.354h-9.354zm9.354 0h9.354v9.354h-9.354zm9.354 0h9.354v9.354H38.62zm-28.063 9.354h9.354v9.354h-9.354zm9.355 0h9.354v9.354h-9.354zm9.354 0h9.354v9.354h-9.354zm9.354 0h9.354v9.354H38.62z"/><circle style="opacity:1;fill:#000;fill-opacity:1;stroke:#000;stroke-width:.01262701;stroke-linecap:round;stroke-miterlimit:4;stroke-dasharray:none;stroke-dashoffset:0;stroke-opacity:1" cx="10.557" cy="11.69" r=".645"/><circle style="opacity:1;fill:#000;fill-opacity:1;stroke:#000;stroke-width:.01262701;stroke-linecap:round;stroke-miterlimit:4;stroke-dasharray:none;stroke-dashoffset:0;stroke-opacity:1" cx="19.895" cy="11.698" r=".645"/><circle style="opacity:1;fill:#000;fill-opacity:1;stroke:#000;stroke-width:.01262701;stroke-linecap:round;stroke-miterlimit:4;stroke-dasharray:none;stroke-dashoffset:0;stroke-opacity:1" cx="29.258" cy="11.715" r=".645"/><circle style="opacity:1;fill:#000;fill-opacity:1;stroke:#000;stroke-width:.01262701;stroke-linecap:round;stroke-miterlimit:4;stroke-dasharray:none;stroke-dashoffset:0;stroke-opacity:1" cx="38.604" cy="11.681" r=".645"/><circle style="opacity:1;fill:#000;fill-opacity:1;stroke:#000;stroke-width:.01262701;stroke-linecap:round;stroke-miterlimit:4;stroke-dasharray:none;stroke-dashoffset:0;stroke-opacity:1" cx="47.967" cy="11.665" r=".645"/><circle style="opacity:1;fill:#000;fill-opacity:1;stroke:#000;stroke-width:.01262701;stroke-linecap:round;stroke-miterlimit:4;stroke-dasharray:none;stroke-dashoffset:0;stroke-opacity:1" cx="10.565" cy="21.03" r=".645"/><circle style="opacity:1;fill:#000;fill-opacity:1;stroke:#000;stroke-width:.01262701;stroke-linecap:round;stroke-miterlimit:4;stroke-dasharray:none;stroke-dashoffset:0;stroke-opacity:1" cx="19.903" cy="21.038" r=".645"/><circle style="opacity:1;fill:#000;fill-opacity:1;stroke:#000;stroke-width:.01262701;stroke-linecap:round;stroke-miterlimit:4;stroke-dasharray:none;stroke-dashoffset:0;stroke-opacity:1" cx="29.265" cy="21.055" r=".645"/><circle style="opacity:1;fill:#000;fill-opacity:1;stroke:#000;stroke-width:.01262701;stroke-linecap:round;stroke-miterlimit:4;stroke-dasharray:none;stroke-dashoffset:0;stroke-opacity:1" cx="38.611" cy="21.022" r=".645"/><circle style="opacity:1;fill:#000;fill-opacity:1;stroke:#000;stroke-width:.01262701;stroke-linecap:round;stroke-miterlimit:4;stroke-dasharray:none;stroke-dashoffset:0;stroke-opacity:1" cx="47.974" cy="21.005" r=".645"/><circle style="opacity:1;fill:#000;fill-opacity:1;stroke:#000;stroke-width:.01262701;stroke-linecap:round;stroke-miterlimit:4;stroke-dasharray:none;stroke-dashoffset:0;stroke-opacity:1" cx="10.588" cy="30.338" r=".645"/><circle style="opacity:1;fill:#000;fill-opacity:1;stroke:#000;stroke-width:.01262701;stroke-linecap:round;stroke-miterlimit:4;stroke-dasharray:none;stroke-dashoffset:0;stroke-opacity:1" cx="19.926" cy="30.346" r=".645"/><circle style="opacity:1;fill:#000;fill-opacity:1;stroke:#000;stroke-width:.01262701;stroke-linecap:round;stroke-miterlimit:4;stroke-dasharray:none;stroke-dashoffset:0;stroke-opacity:1" cx="29.289" cy="30.363" r=".645"/><circle style="opacity:1;fill:#000;fill-opacity:1;stroke:#000;stroke-width:.01262701;stroke-linecap:round;stroke-miterlimit:4;stroke-dasharray:none;stroke-dashoffset:0;stroke-opacity:1" cx="38.635" cy="30.329" r=".645"/><circle style="opacity:1;fill:#000;fill-opacity:1;stroke:#000;stroke-width:.01262701;stroke-linecap:round;stroke-miterlimit:4;stroke-dasharray:none;stroke-dashoffset:0;stroke-opacity:1" cx="47.998" cy="30.313" r=".645"/><circle style="opacity:1;fill:#000;fill-opacity:1;stroke:#000;stroke-width:.01262701;stroke-linecap:round;stroke-miterlimit:4;stroke-dasharray:none;stroke-dashoffset:0;stroke-opacity:1" cx="47.984" cy="39.716" r=".645"/><circle style="opacity:1;fill:#000;fill-opacity:1;stroke:#000;stroke-width:.01262701;stroke-linecap:round;stroke-miterlimit:4;stroke-dasharray:none;stroke-dashoffset:0;stroke-opacity:1" cx="10.548" cy="39.725" r=".645"/><circle style="opacity:1;fill:#000;fill-opacity:1;stroke:#000;stroke-width:.01262701;stroke-linecap:round;stroke-miterlimit:4;stroke-dasharray:none;stroke-dashoffset:0;stroke-opacity:1" cx="19.91" cy="39.741" r=".645"/><circle style="opacity:1;fill:#000;fill-opacity:1;stroke:#000;stroke-width:.01262701;stroke-linecap:round;stroke-miterlimit:4;stroke-dasharray:none;stroke-dashoffset:0;stroke-opacity:1" cx="29.257" cy="39.708" r=".645"/><circle style="opacity:1;fill:#000;fill-opacity:1;stroke:#000;stroke-width:.01262701;stroke-linecap:round;stroke-miterlimit:4;stroke-dasharray:none;stroke-dashoffset:0;stroke-opacity:1" cx="38.619" cy="39.691" r=".645"/><circle style="opacity:1;fill:#000;fill-opacity:1;stroke:#000;stroke-width:.01262701;stroke-linecap:round;stroke-miterlimit:4;stroke-dasharray:none;stroke-dashoffset:0;stroke-opacity:1" cx="47.984" cy="49.048" r=".645"/><circle style="opacity:1;fill:#000;fill-opacity:1;stroke:#000;stroke-width:.01262701;stroke-linecap:round;stroke-miterlimit:4;stroke-dasharray:none;stroke-dashoffset:0;stroke-opacity:1" cx="10.548" cy="49.056" r=".645"/><circle style="opacity:1;fill:#000;fill-opacity:1;stroke:#000;stroke-width:.01262701;stroke-linecap:round;stroke-miterlimit:4;stroke-dasharray:none;stroke-dashoffset:0;stroke-opacity:1" cx="19.91" cy="49.073" r=".645"/><circle style="opacity:1;fill:#000;fill-opacity:1;stroke:#000;stroke-width:.01262701;stroke-linecap:round;stroke-miterlimit:4;stroke-dasharray:none;stroke-dashoffset:0;stroke-opacity:1" cx="29.257" cy="49.039" r=".645"/><circle style="opacity:1;fill:#000;fill-opacity:1;stroke:#000;stroke-width:.01262701;stroke-linecap:round;stroke-miterlimit:4;stroke-dasharray:none;stroke-dashoffset:0;stroke-opacity:1" cx="38.619" cy="49.023" r=".645"/><text xml:space="preserve" style="font-style:normal;font-weight:400;font-size:4.23333311px;line-height:1.25;font-family:sans-serif;letter-spacing:0;word-spacing:0;fill:#000;fill-opacity:1;stroke:none;stroke-width:.26458332" x="10.086" y="55.444"><tspan x="10.086" y="55.444" style="font-size:3.52777767px;stroke-width:.26458332">Areal: 10</tspan></text><path style="fill:none;stroke:red;stroke-width:.40000001;stroke-linecap:butt;stroke-linejoin:miter;stroke-miterlimit:4;stroke-dasharray:none;stroke-opacity:1" d="M10.557 21.044 38.62 11.69l9.355 28.063-28.063 9.355z"/></g><path style="fill:none;stroke:#009600;stroke-width:.80000001;stroke-linecap:butt;stroke-linejoin:miter;stroke-miterlimit:4;stroke-dasharray:none;stroke-opacity:1" d="M-15.202 32.913h57.837V13.561" transform="translate(16.565 -12.207)"/><use y="84.6" x="288.05" xlink:href="#a" width="100%" height="100%" style="fill:#000;fill-opacity:1" transform="translate(-174.352 -48.494) scale(.67888)"/><g style="fill:#000;fill-opacity:1" transform="translate(-174.352 -48.494) scale(.67888)"><use y="84.36" x="295.25" xlink:href="#b" width="100%" height="100%"/><use y="84.36" x="301.37" xlink:href="#c" width="100%" height="100%"/></g><path d="M295.25 75.121h12.238v-.723H295.25zm0 0" style="fill:#000;fill-opacity:1;fill-rule:evenodd;stroke:none" transform="translate(-174.352 -48.494) scale(.67888)"/><use y="84.36" x="307.49" xlink:href="#d" width="100%" height="100%" style="fill:#000;fill-opacity:1" transform="translate(-174.352 -48.494) scale(.67888)"/><text xml:space="preserve" style="font-style:normal;font-weight:400;font-size:4.23333311px;line-height:1.25;font-family:sans-serif;letter-spacing:0;word-spacing:0;fill:#000;fill-opacity:1;stroke:none;stroke-width:.26458332" x="11.498" y="39.753" transform="translate(16.565 -12.207)"><tspan x="11.498" y="39.753" style="font-style:normal;font-variant:normal;font-weight:400;font-stretch:normal;font-size:7.76111126px;font-family:cambria;-inkscape-font-specification:cambria;stroke-width:.26458332">3</tspan></text><text xml:space="preserve" style="font-style:normal;font-weight:400;font-size:4.23333311px;line-height:1.25;font-family:sans-serif;letter-spacing:0;word-spacing:0;fill:#000;fill-opacity:1;stroke:none;stroke-width:.26458332" x="36.515" y="26.17" transform="translate(16.565 -12.207)"><tspan x="36.515" y="26.17" style="font-style:normal;font-variant:normal;font-weight:400;font-stretch:normal;font-size:7.76111126px;font-family:cambria;-inkscape-font-specification:cambria;stroke-width:.26458332">1</tspan></text></svg>