<svg xmlns="http://www.w3.org/2000/svg" xmlns:xlink="http://www.w3.org/1999/xlink" width="181.785" height="295.955" viewBox="0 0 48.097 78.305"><defs><symbol id="a" overflow="visible" style="overflow:visible"><path d="M1.953-5.156 3.86-.97l2.672-9.203h1.375v.719h-.984L4.032.453H3.5L1.266-4.344l-.907.407-.171-.407zm0 0" style="stroke:none"/></symbol><symbol id="b" overflow="visible" style="overflow:visible"><path d="M3.781-.86c.176 0 .317-.007.422-.03A.536.536 0 0 0 4.47-1a.599.599 0 0 0 .156-.203c.04-.082.086-.207.14-.375h.47L5.14 0H.703v-.266c.145-.375.348-.757.61-1.156.269-.394.644-.86 1.125-1.39.414-.458.718-.805.906-1.047a4.54 4.54 0 0 0 .437-.672c.102-.188.176-.364.219-.532.04-.164.063-.335.063-.515 0-.258-.043-.492-.125-.703a1.045 1.045 0 0 0-.391-.485c-.18-.125-.402-.187-.672-.187-.68 0-1.133.375-1.36 1.125H.86V-6.86c.438-.207.844-.36 1.22-.454.382-.093.722-.14 1.015-.14.676 0 1.18.152 1.515.453.344.293.516.715.516 1.266 0 .187-.023.367-.063.53a1.75 1.75 0 0 1-.171.47 2.917 2.917 0 0 1-.329.515 9.83 9.83 0 0 1-.453.547c-.156.18-.437.485-.843.922-.688.719-1.196 1.352-1.516 1.89zm0 0" style="stroke:none"/></symbol></defs><path d="M47.855 84.273H7.732V44.15z" style="fill:none;stroke:#000;stroke-width:.63946998;stroke-linecap:butt;stroke-linejoin:miter;stroke-miterlimit:4;stroke-dasharray:none;stroke-opacity:1" transform="translate(-.53 -15.455)"/><path d="m7.732 44.15 28.4-28.037 11.723 68.16" style="fill:none;stroke:#000;stroke-width:.63946998;stroke-linecap:butt;stroke-linejoin:miter;stroke-miterlimit:4;stroke-dasharray:none;stroke-opacity:1" transform="translate(-.53 -15.455)"/><path style="opacity:1;fill:none;fill-opacity:1;stroke:#000;stroke-width:.63946998;stroke-linecap:round;stroke-miterlimit:4;stroke-dasharray:none;stroke-dashoffset:0;stroke-opacity:1" d="M7.732 80.615h3.658v3.658H7.732z" transform="translate(-.53 -15.455)"/><path transform="rotate(-45 -18.92 -7.089)" style="opacity:1;fill:none;fill-opacity:1;stroke:#000;stroke-width:.63946998;stroke-linecap:round;stroke-miterlimit:4;stroke-dasharray:none;stroke-dashoffset:0;stroke-opacity:1" d="M-25.752 36.686h3.658v3.658h-3.658z"/><text y="93.76" x="25.928" style="font-style:normal;font-weight:400;font-size:4.23333311px;line-height:1.25;font-family:sans-serif;letter-spacing:0;word-spacing:0;fill:#000;fill-opacity:1;stroke:none;stroke-width:.26458332" xml:space="preserve" transform="translate(-.53 -15.455)"><tspan style="font-style:normal;font-variant:normal;font-weight:400;font-stretch:normal;font-size:8.81944466px;font-family:cambria;-inkscape-font-specification:cambria;stroke-width:.26458332" y="93.76" x="25.928">1</tspan></text><text y="69.271" x="-.237" style="font-style:normal;font-weight:400;font-size:4.23333311px;line-height:1.25;font-family:sans-serif;letter-spacing:0;word-spacing:0;fill:#000;fill-opacity:1;stroke:none;stroke-width:.26458332" xml:space="preserve" transform="translate(-.53 -15.455)"><tspan style="font-style:normal;font-variant:normal;font-weight:400;font-stretch:normal;font-size:8.81944466px;font-family:Cambria;-inkscape-font-specification:Cambria;stroke-width:.26458332" y="69.271" x="-.237">1</tspan></text><text y="27.316" x="14.504" style="font-style:normal;font-weight:400;font-size:4.23333311px;line-height:1.25;font-family:sans-serif;letter-spacing:0;word-spacing:0;fill:#000;fill-opacity:1;stroke:none;stroke-width:.26458332" xml:space="preserve" transform="translate(-.53 -15.455)"><tspan style="font-style:normal;font-variant:normal;font-weight:400;font-stretch:normal;font-size:8.81944466px;font-family:cambria;-inkscape-font-specification:cambria;stroke-width:.26458332" y="27.316" x="14.504">1</tspan></text><use y="84.62" x="291.05" xlink:href="#a" width="100%" height="100%" style="fill:#000;fill-opacity:1" transform="translate(-194.83 -18.574) scale(.75338)"/><use y="84.38" x="298.27" xlink:href="#b" width="100%" height="100%" style="fill:#000;fill-opacity:1" transform="translate(-194.83 -18.574) scale(.75338)"/><path d="M298.27 75.121h6.12v-.723h-6.12zm0 0" style="fill:#000;fill-opacity:1;fill-rule:evenodd;stroke:none" transform="translate(-194.83 -18.574) scale(.75338)"/><use y="84.38" x="304.39" xlink:href="#c" width="100%" height="100%" style="fill:#000;fill-opacity:1" transform="translate(-194.83 -18.574) scale(.75338)"/><use y="106.22" x="72.024" xlink:href="#c" width="100%" height="100%" style="fill:#000;fill-opacity:1" transform="translate(-194.83 -18.574) scale(.75338)"/><use y="128.78" x="72.024" xlink:href="#c" width="100%" height="100%" style="fill:#000;fill-opacity:1" transform="translate(-194.83 -18.574) scale(.75338)"/></svg>