<svg xmlns="http://www.w3.org/2000/svg" xmlns:xlink="http://www.w3.org/1999/xlink" width="80mm" height="347.055" viewBox="0 0 80 91.825"><defs><symbol style="overflow:visible" id="a" overflow="visible"><path d="M1.953-5.156 3.86-.97l2.672-9.203h1.375v.719h-.984L4.032.453H3.5L1.266-4.344l-.907.407-.171-.407zm0 0" style="stroke:none"/></symbol><symbol style="overflow:visible" id="b" overflow="visible"><path d="M3.781-.86c.176 0 .317-.007.422-.03A.536.536 0 0 0 4.47-1a.599.599 0 0 0 .156-.203c.04-.082.086-.207.14-.375h.47L5.14 0H.703v-.266c.145-.375.348-.757.61-1.156.269-.394.644-.86 1.125-1.39.414-.458.718-.805.906-1.047a4.54 4.54 0 0 0 .437-.672c.102-.188.176-.364.219-.532.04-.164.063-.335.063-.515 0-.258-.043-.492-.125-.703a1.045 1.045 0 0 0-.391-.485c-.18-.125-.402-.187-.672-.187-.68 0-1.133.375-1.36 1.125H.86V-6.86c.438-.207.844-.36 1.22-.454.382-.093.722-.14 1.015-.14.676 0 1.18.152 1.515.453.344.293.516.715.516 1.266 0 .187-.023.367-.063.53a1.75 1.75 0 0 1-.171.47 2.917 2.917 0 0 1-.329.515 9.83 9.83 0 0 1-.453.547c-.156.18-.437.485-.843.922-.688.719-1.196 1.352-1.516 1.89zm0 0" style="stroke:none"/></symbol></defs><g transform="translate(-20.431 -22.737) scale(2.06441)"><path style="opacity:1;fill:none;fill-opacity:1;stroke:#000;stroke-width:.2;stroke-linecap:round;stroke-miterlimit:4;stroke-dasharray:none;stroke-dashoffset:0;stroke-opacity:1" d="M10.557 11.69h9.354v9.354h-9.354zm9.355 0h9.354v9.354h-9.354zm9.354 0h9.354v9.354h-9.354zm9.354 0h9.354v9.354H38.62zm-28.063 9.354h9.354v9.354h-9.354zm9.355 0h9.354v9.354h-9.354zm9.354 0h9.354v9.354h-9.354zm9.354 0h9.354v9.354H38.62zm-28.063 9.355h9.354v9.354h-9.354zm9.355 0h9.354v9.354h-9.354zm9.354 0h9.354v9.354h-9.354zm9.354 0h9.354v9.354H38.62zm-28.063 9.354h9.354v9.354h-9.354zm9.355 0h9.354v9.354h-9.354zm9.354 0h9.354v9.354h-9.354zm9.354 0h9.354v9.354H38.62z"/><circle style="opacity:1;fill:#000;fill-opacity:1;stroke:#000;stroke-width:.01262701;stroke-linecap:round;stroke-miterlimit:4;stroke-dasharray:none;stroke-dashoffset:0;stroke-opacity:1" cx="10.557" cy="11.69" r=".645"/><circle style="opacity:1;fill:#000;fill-opacity:1;stroke:#000;stroke-width:.01262701;stroke-linecap:round;stroke-miterlimit:4;stroke-dasharray:none;stroke-dashoffset:0;stroke-opacity:1" cx="19.895" cy="11.698" r=".645"/><circle style="opacity:1;fill:#000;fill-opacity:1;stroke:#000;stroke-width:.01262701;stroke-linecap:round;stroke-miterlimit:4;stroke-dasharray:none;stroke-dashoffset:0;stroke-opacity:1" cx="29.258" cy="11.715" r=".645"/><circle style="opacity:1;fill:#000;fill-opacity:1;stroke:#000;stroke-width:.01262701;stroke-linecap:round;stroke-miterlimit:4;stroke-dasharray:none;stroke-dashoffset:0;stroke-opacity:1" cx="38.604" cy="11.681" r=".645"/><circle style="opacity:1;fill:#000;fill-opacity:1;stroke:#000;stroke-width:.01262701;stroke-linecap:round;stroke-miterlimit:4;stroke-dasharray:none;stroke-dashoffset:0;stroke-opacity:1" cx="47.967" cy="11.665" r=".645"/><circle style="opacity:1;fill:#000;fill-opacity:1;stroke:#000;stroke-width:.01262701;stroke-linecap:round;stroke-miterlimit:4;stroke-dasharray:none;stroke-dashoffset:0;stroke-opacity:1" cx="10.565" cy="21.03" r=".645"/><circle style="opacity:1;fill:#000;fill-opacity:1;stroke:#000;stroke-width:.01262701;stroke-linecap:round;stroke-miterlimit:4;stroke-dasharray:none;stroke-dashoffset:0;stroke-opacity:1" cx="19.903" cy="21.038" r=".645"/><circle style="opacity:1;fill:#000;fill-opacity:1;stroke:#000;stroke-width:.01262701;stroke-linecap:round;stroke-miterlimit:4;stroke-dasharray:none;stroke-dashoffset:0;stroke-opacity:1" cx="29.265" cy="21.055" r=".645"/><circle style="opacity:1;fill:#000;fill-opacity:1;stroke:#000;stroke-width:.01262701;stroke-linecap:round;stroke-miterlimit:4;stroke-dasharray:none;stroke-dashoffset:0;stroke-opacity:1" cx="38.611" cy="21.022" r=".645"/><circle style="opacity:1;fill:#000;fill-opacity:1;stroke:#000;stroke-width:.01262701;stroke-linecap:round;stroke-miterlimit:4;stroke-dasharray:none;stroke-dashoffset:0;stroke-opacity:1" cx="47.974" cy="21.005" r=".645"/><circle style="opacity:1;fill:#000;fill-opacity:1;stroke:#000;stroke-width:.01262701;stroke-linecap:round;stroke-miterlimit:4;stroke-dasharray:none;stroke-dashoffset:0;stroke-opacity:1" cx="10.588" cy="30.338" r=".645"/><circle style="opacity:1;fill:#000;fill-opacity:1;stroke:#000;stroke-width:.01262701;stroke-linecap:round;stroke-miterlimit:4;stroke-dasharray:none;stroke-dashoffset:0;stroke-opacity:1" cx="19.926" cy="30.346" r=".645"/><circle style="opacity:1;fill:#000;fill-opacity:1;stroke:#000;stroke-width:.01262701;stroke-linecap:round;stroke-miterlimit:4;stroke-dasharray:none;stroke-dashoffset:0;stroke-opacity:1" cx="29.289" cy="30.363" r=".645"/><circle style="opacity:1;fill:#000;fill-opacity:1;stroke:#000;stroke-width:.01262701;stroke-linecap:round;stroke-miterlimit:4;stroke-dasharray:none;stroke-dashoffset:0;stroke-opacity:1" cx="38.635" cy="30.329" r=".645"/><circle style="opacity:1;fill:#000;fill-opacity:1;stroke:#000;stroke-width:.01262701;stroke-linecap:round;stroke-miterlimit:4;stroke-dasharray:none;stroke-dashoffset:0;stroke-opacity:1" cx="47.998" cy="30.313" r=".645"/><circle style="opacity:1;fill:#000;fill-opacity:1;stroke:#000;stroke-width:.01262701;stroke-linecap:round;stroke-miterlimit:4;stroke-dasharray:none;stroke-dashoffset:0;stroke-opacity:1" cx="47.984" cy="39.716" r=".645"/><circle style="opacity:1;fill:#000;fill-opacity:1;stroke:#000;stroke-width:.01262701;stroke-linecap:round;stroke-miterlimit:4;stroke-dasharray:none;stroke-dashoffset:0;stroke-opacity:1" cx="10.548" cy="39.725" r=".645"/><circle style="opacity:1;fill:#000;fill-opacity:1;stroke:#000;stroke-width:.01262701;stroke-linecap:round;stroke-miterlimit:4;stroke-dasharray:none;stroke-dashoffset:0;stroke-opacity:1" cx="19.91" cy="39.741" r=".645"/><circle style="opacity:1;fill:#000;fill-opacity:1;stroke:#000;stroke-width:.01262701;stroke-linecap:round;stroke-miterlimit:4;stroke-dasharray:none;stroke-dashoffset:0;stroke-opacity:1" cx="29.257" cy="39.708" r=".645"/><circle style="opacity:1;fill:#000;fill-opacity:1;stroke:#000;stroke-width:.01262701;stroke-linecap:round;stroke-miterlimit:4;stroke-dasharray:none;stroke-dashoffset:0;stroke-opacity:1" cx="38.619" cy="39.691" r=".645"/><circle style="opacity:1;fill:#000;fill-opacity:1;stroke:#000;stroke-width:.01262701;stroke-linecap:round;stroke-miterlimit:4;stroke-dasharray:none;stroke-dashoffset:0;stroke-opacity:1" cx="47.984" cy="49.048" r=".645"/><circle style="opacity:1;fill:#000;fill-opacity:1;stroke:#000;stroke-width:.01262701;stroke-linecap:round;stroke-miterlimit:4;stroke-dasharray:none;stroke-dashoffset:0;stroke-opacity:1" cx="10.548" cy="49.056" r=".645"/><circle style="opacity:1;fill:#000;fill-opacity:1;stroke:#000;stroke-width:.01262701;stroke-linecap:round;stroke-miterlimit:4;stroke-dasharray:none;stroke-dashoffset:0;stroke-opacity:1" cx="19.91" cy="49.073" r=".645"/><circle style="opacity:1;fill:#000;fill-opacity:1;stroke:#000;stroke-width:.01262701;stroke-linecap:round;stroke-miterlimit:4;stroke-dasharray:none;stroke-dashoffset:0;stroke-opacity:1" cx="29.257" cy="49.039" r=".645"/><circle style="opacity:1;fill:#000;fill-opacity:1;stroke:#000;stroke-width:.01262701;stroke-linecap:round;stroke-miterlimit:4;stroke-dasharray:none;stroke-dashoffset:0;stroke-opacity:1" cx="38.619" cy="49.023" r=".645"/><path style="fill:none;stroke:red;stroke-width:.40000001;stroke-linecap:butt;stroke-linejoin:miter;stroke-miterlimit:4;stroke-dasharray:none;stroke-opacity:1" d="m19.912 30.399 9.354-9.355L38.62 30.4l-9.354 9.354z"/><text xml:space="preserve" style="font-style:normal;font-weight:400;font-size:4.23333311px;line-height:1.25;font-family:sans-serif;letter-spacing:0;word-spacing:0;fill:#000;fill-opacity:1;stroke:none;stroke-width:.26458332" x="10.086" y="55.444"><tspan x="10.086" y="55.444" style="font-size:3.52777767px;stroke-width:.26458332">Areal: 2</tspan></text></g><use y="84.6" x="291.05" xlink:href="#a" width="100%" height="100%" style="fill:#000;fill-opacity:1" transform="translate(-175.358 -28.055) scale(.67484)"/><use y="84.36" x="298.25" xlink:href="#b" width="100%" height="100%" style="fill:#000;fill-opacity:1" transform="translate(-175.358 -28.055) scale(.67484)"/><path d="M298.25 75.121h6.121v-.723h-6.121zm0 0" style="fill:#000;fill-opacity:1;fill-rule:evenodd;stroke:none" transform="translate(-175.358 -28.055) scale(.67484)"/><use y="84.36" x="304.37" xlink:href="#c" width="100%" height="100%" style="fill:#000;fill-opacity:1" transform="translate(-175.358 -28.055) scale(.67484)"/><use y="106.1" x="72.024" xlink:href="#c" width="100%" height="100%" style="fill:#000;fill-opacity:1" transform="translate(-175.358 -28.055) scale(.67484)"/><use y="106.1" x="216.05" xlink:href="#c" width="100%" height="100%" style="fill:#000;fill-opacity:1" transform="translate(-175.358 -28.055) scale(.67484)"/><text xml:space="preserve" style="font-style:normal;font-weight:400;font-size:4.23333311px;line-height:1.25;font-family:sans-serif;letter-spacing:0;word-spacing:0;fill:#000;fill-opacity:1;stroke:none;stroke-width:.26458332" x="41.104" y="41.337" transform="translate(-12.16 5.18)"><tspan x="41.104" y="41.337" style="font-style:normal;font-variant:normal;font-weight:400;font-stretch:normal;font-size:7.76111126px;font-family:cambria;-inkscape-font-specification:cambria;stroke-width:.26458332">1</tspan></text><text xml:space="preserve" style="font-style:normal;font-weight:400;font-size:4.23333311px;line-height:1.25;font-family:sans-serif;letter-spacing:0;word-spacing:0;fill:#000;fill-opacity:1;stroke:none;stroke-width:.26458332" x="52.614" y="28.357" transform="translate(-12.16 5.18)"><tspan x="52.614" y="28.357" style="font-style:normal;font-variant:normal;font-weight:400;font-stretch:normal;font-size:7.76111126px;font-family:cambria;-inkscape-font-specification:cambria;stroke-width:.26458332">1</tspan></text><path style="fill:none;stroke:#009600;stroke-width:.80000001;stroke-linecap:butt;stroke-linejoin:miter;stroke-miterlimit:4;stroke-dasharray:none;stroke-dashoffset:0;stroke-opacity:1" d="M32.835 34.838h19.312V15.527" transform="translate(-12.16 5.18)"/></svg>