<svg xmlns="http://www.w3.org/2000/svg" width="150mm" height="392.901" viewBox="0 0 150 103.955"><defs><marker style="overflow:visible" id="a" refX="0" refY="0" orient="auto"><path transform="scale(-.6)" d="M8.719 4.034-2.207.016 8.719-4.002c-1.746 2.372-1.736 5.618 0 8.036z" style="fill:#000;fill-opacity:1;fill-rule:evenodd;stroke:#000;stroke-width:.625;stroke-linejoin:round;stroke-opacity:1"/></marker><marker style="overflow:visible" id="b" refX="0" refY="0" orient="auto"><path transform="scale(-.6)" d="M8.719 4.034-2.207.016 8.719-4.002c-1.746 2.372-1.736 5.618 0 8.036z" style="fill:#000;fill-opacity:1;fill-rule:evenodd;stroke:#000;stroke-width:.625;stroke-linejoin:round;stroke-opacity:1"/></marker></defs><path style="opacity:1;fill:none;fill-opacity:1;stroke:#000;stroke-width:.5;stroke-linecap:round;stroke-miterlimit:4;stroke-dasharray:none;stroke-dashoffset:0;stroke-opacity:1" d="M25.859 15.919h12.096v12.096H25.859zm12.096 0h12.096v12.096H37.955zM25.859 28.015h12.096v12.096H25.859zm12.096 0h12.096v12.096H37.955zm12.097-12.096h12.096v12.096H50.052zm12.096 0h12.096v12.096H62.148zM50.052 28.015h12.096v12.096H50.052zm12.096 0h12.096v12.096H62.148z" transform="translate(-24.006 -27.437) scale(1.9885)"/><path style="opacity:1;fill:none;fill-opacity:1;stroke:#000;stroke-width:.5;stroke-linecap:round;stroke-miterlimit:4;stroke-dasharray:none;stroke-dashoffset:0;stroke-opacity:1" d="M25.859 40.111h12.096v12.096H25.859zm12.096 0h12.096v12.096H37.955zM25.859 52.208h12.096v12.096H25.859zm12.096 0h12.096v12.096H37.955zm12.097-12.097h12.096v12.096H50.052zm12.096 0h12.096v12.096H62.148zM50.052 52.208h12.096v12.096H50.052zm12.096 0h12.096v12.096H62.148z" transform="translate(-24.006 -27.437) scale(1.9885)"/><path style="opacity:1;fill:none;fill-opacity:1;stroke:#000;stroke-width:.5;stroke-linecap:round;stroke-miterlimit:4;stroke-dasharray:none;stroke-dashoffset:0;stroke-opacity:1" d="M24.122 14.048H75.9v51.778H24.122z" transform="translate(-24.006 -27.437) scale(1.9885)"/><text y="26.721" x="27.28" style="font-style:normal;font-weight:400;font-size:4.23333311px;line-height:1.25;font-family:sans-serif;letter-spacing:0;word-spacing:0;fill:#000;fill-opacity:1;stroke:none;stroke-width:.26458332" xml:space="preserve" transform="translate(-24.006 -27.437) scale(1.9885)"><tspan style="font-size:2.82222223px;stroke-width:.26458332" y="26.721" x="27.28">5,5 cm</tspan></text><text y="26.65" x="39.415" style="font-style:normal;font-weight:400;font-size:4.23333311px;line-height:1.25;font-family:sans-serif;letter-spacing:0;word-spacing:0;fill:#000;fill-opacity:1;stroke:none;stroke-width:.26458332" xml:space="preserve" transform="translate(-24.006 -27.437) scale(1.9885)"><tspan style="font-size:2.82222223px;stroke-width:.26458332" y="26.65" x="39.415">5,5 cm</tspan></text><text y="26.717" x="51.509" style="font-style:normal;font-weight:400;font-size:4.23333311px;line-height:1.25;font-family:sans-serif;letter-spacing:0;word-spacing:0;fill:#000;fill-opacity:1;stroke:none;stroke-width:.26458332" xml:space="preserve" transform="translate(-24.006 -27.437) scale(1.9885)"><tspan style="font-size:2.82222223px;stroke-width:.26458332" y="26.717" x="51.509">5,5 cm</tspan></text><text y="26.516" x="63.202" style="font-style:normal;font-weight:400;font-size:4.23333311px;line-height:1.25;font-family:sans-serif;letter-spacing:0;word-spacing:0;fill:#000;fill-opacity:1;stroke:none;stroke-width:.26458332" xml:space="preserve" transform="translate(-24.006 -27.437) scale(1.9885)"><tspan style="font-size:2.82222223px;stroke-width:.26458332" y="26.516" x="63.202">5,5 cm</tspan></text><text y="32.196" x="11.886" style="font-style:normal;font-weight:400;font-size:4.23333311px;line-height:1.25;font-family:sans-serif;letter-spacing:0;word-spacing:0;fill:#000;fill-opacity:1;stroke:none;stroke-width:.26458332" xml:space="preserve" transform="translate(-24.006 -27.437) scale(1.9885)"><tspan style="font-size:2.82222223px;stroke-width:.26458332" y="32.196" x="11.886">0,4 cm</tspan></text><text y="32.749" x="78.051" style="font-style:normal;font-weight:400;font-size:4.23333311px;line-height:1.25;font-family:sans-serif;letter-spacing:0;word-spacing:0;fill:#000;fill-opacity:1;stroke:none;stroke-width:.26458332" xml:space="preserve" transform="translate(-24.006 -27.437) scale(1.9885)"><tspan style="font-size:2.82222223px;stroke-width:.26458332" y="32.749" x="78.051">0,4 cm</tspan></text><path d="m17.274 29.494 6.974-1.365" style="fill:none;stroke:#000;stroke-width:.5;stroke-linecap:butt;stroke-linejoin:miter;stroke-miterlimit:4;stroke-dasharray:none;stroke-opacity:1;marker-end:url(#a)" transform="translate(-24.006 -27.437) scale(1.9885)"/><path d="m82.88 29.5-6.976-1.365" style="fill:none;stroke:#000;stroke-width:.5;stroke-linecap:butt;stroke-linejoin:miter;stroke-miterlimit:4;stroke-dasharray:none;stroke-opacity:1;marker-end:url(#b)" transform="translate(-24.006 -27.437) scale(1.9885)"/></svg>