<svg xmlns="http://www.w3.org/2000/svg" width="103" height="160" style="enable-background:new 0 0 103 160" xml:space="preserve"><path d="M16.55 31.27c-.4-1.01-1.2-1.94-2.21-2.36-.07-.02-.14-.03-.2-.04 1.29-1.73 1.18-4.51-.38-6.03-1.09-.95-2.76-.79-4.08-.51-1.72.69-2.97 2.21-3.94 3.74-.2.47-.6.96-.45 1.49.2.83 1.42.99 1.83.24.74-1.81 2.38-3.22 3.11-3.55 1.07-.23 2.11-.12 2.25.13.49.29.73 2.4.32 2.88-.35.8-1.18 1.14-2.02 1.52-.83.2-.99 1.41-.24 1.83.34.2.73.15 1.1.09h.01c1.11-.07 1.36-.06 1.99.09l.09.03s.01 0 .01.01c.53.44.69.66.81.87.22.41.49 1.28.45 1.98 0 .04 0 .05-.01.08-.47 2.73-4.37 3.09-6.98 1.69-.33-.08-.64-.86-1.56-1-.99-.02-1.35 1.35-.53 1.87 4.14 3.9 13.17 1.68 10.63-5.05zm37.38 2.22c-.01-1.65.02-3.31-.05-4.96-.14-1.3-.12-2.61-.3-3.9-.03-.39-.07-.87-.44-1.1-.72-.55-1.46.01-1.68.76-.09.16-.3.54-.41.64.38-.46-.66.75-.93.93-.68.62-1.38 1.2-2.07 1.8a.99.99 0 0 0-.29.71c-.03.86 1.12 1.34 1.71.71.73-.67 1.55-1.29 2.28-1.98.11 1.69.18 3.38.17 5.08.07 1.24-.14 2.54.09 3.75.22.65 1.16.81 1.62.32.59-.76.19-1.86.3-2.76zm21.28-3.86c.29-.33.54-.68.69-1.09.39-1.38.24-3.08-.91-4.06-1.02-1.02-2.66-.88-4-.89-2.06.41-3.77 2.25-4.57 4.11-.2 1.05 1.35 1.57 1.85.64.9-1.54 1.91-2.42 2.88-2.76.73-.04 1.47.05 2.19.14-.21-.03-.11-.02.04.02.61.38.9 1.12.6 2.21-.05.1-.12.19-.19.28-.07.08-.17.19-.23.25-.11.1-.22.2-.34.29-.01.01-.02.01-.03.02-.5.34-1.01.65-1.54.93h-.02v.01s-.01 0-.01.01c-1.2.36-.75 2.24.54 1.92-.08-.01 1.67-.18 2.54-.1.54.1.32.03.68.23.01.01.01.01.02.01.06.05.1.11.15.17.01.05.03.1.04.16.01.1.02.21.02.29.04.82 0 1.66-.07 1.81-.04.07-.08.14-.13.2-.14.17-.39.47-.49.55-.13.18-1.15.76-1.38.78-.08.1-3.15.16-3.23.05a.845.845 0 0 1-.17-.05c-.86-.6-1.75-1.16-2.78-1.44-.39-.13-.83-.28-1.21-.03-.56.31-.66 1.13-.2 1.57 1 .59 1.38.44 2 .85.54.29.97.75 1.56.96 1.51.35 3.16.26 4.67-.01 1.42-.52 2.87-1.54 3.32-3.05.53-3.19-.34-4.6-2.29-4.98zm20.33 5.82c-.63.15-1.53.01-2.01-.23-.57-.58-1.26-1.09-2.05-1.33 1.86-1.9 3.29-4.18 3.16-6.92-.03-1-.14-2.08-.69-2.94-.59-.82-1.68-1.28-2.66-.92-1.64.64-2.95 1.89-4.08 3.2-.36.35-.72.86-.45 1.37.23.65 1.16.81 1.62.32 1.26-1.6 3.09-2.99 3.68-3.01l.24.15.01.01c.2.35.29.87.33 1.42.39 2.96-1.99 5.69-4.42 7.58-.73.26-1.39.67-1.84 1.29-.4.63.12 1.53.86 1.5.51-.03.97-.28 1.37-.58.17-.12.33-.25.5-.38.8-.26 1.85-.42 2.51.18.08.09.79.75 1 .85 1.15.47 2.66.78 3.8.19.86-.61.13-2.07-.88-1.75z"/><path d="M101.76 20.51c-.29-.97-1.38-.69-2.16-.75-1.49-.2-3-.17-4.51-.16-8.1-.12-16.23.3-24.31-.32-8.62-.02-17.23-.15-25.85-.23-2.83-.08-4.57.21-7 .19-1.94 0-3.57.33-4.87.49-1.68.32-3.48 1.35-4.16 2.98-.94 1.57-.3 3.87-.24 4.77.14 2.22 1.09 5.86.71 8.26-.51 2.62-1.48 3.31-4.28 4.07-1.59.03-5.62.25-8.17.24-2.96.13-5.91.4-8.88.35-2.07-.01-4.14.18-6.22.18-.47.01-1.01-.09-1.36.29-.62.58-.16 1.74.71 1.71 5.32-.11 10.63-.21 15.94-.53 1.77.04 3.52-.08 5.28-.18 1.49-.03 3.01.13 4.41-.48 6.76-2.03 4.21-10.03 3.89-13.69-.1-1.62-.82-3.14.39-4.82.04-.04.08-.09.13-.13.2-.12 1.01-.63 1.19-.75.36-.25 1.01-.31 1.33-.37 2.34-.5 5.55-.3 7.64-.57 5.42-.13 10.82.07 16.23.16 5.99.02 11.98-.15 17.95.35 8.4.11 16.82-.21 25.21.19.67.03 1.18-.64 1-1.25zM52.62 64.46c.01-.08.03-.16.04-.25h-.06l-.03-.39c-.26-.76-1.4-.81-1.78-.12-.39.98.04.49-.82 1.5-1.12 1.2-1.48 1.41-2.62 2.28-.22.13-.39.35-.46.6-.26.83.73 1.59 1.47 1.13.75-.59 1.57-1.18 2.3-1.85 0 2.13-.04 4.27-.21 6.4 0 .03-.01.07-.01.1-.12 1.19-.27 2.47-.06 3.65.22.65 1.16.81 1.62.32.64-.91.11-2.47.38-3.57.22-1.96.43-6.66.24-9.8zM74.3 69.8c.28-.32.52-.68.67-1.1.22-1.39.26-3.22-.94-4.19-1.37-1.09-3.56-.58-4.96.23-1.28 1.08-2.65 2.57-2.83 4.29.08 1.06 1.7 1.15 1.95.13.44-1.14 1.22-2.33 2.4-2.96.26-.07.76-.21.91-.26.3-.03.86-.01 1.03-.01.03.01.06.01.08.02.05.03.09.05.12.07l.17.17c.01.02.03.04.04.06.13.46.08.22.13 1.05.01.25.03.5 0 .75 0 .02-.01.04-.02.05-.03.06-.08.14-.13.21-.61.7-.44.51-1.17.96-.41.28-.96.4-1.28.79-.38.44-.22 1.19.28 1.47.31.17.67.18.98.03l.15-.06c.01 0 .04-.01.1-.03.05-.02.11-.03.16-.04.12-.01.24-.02.36-.02.11 0 .23.01.34.02.03.01.05.01.09.02.23.05.45.12.67.2.01.01.01.01.02.01l.01.01.02.02c.37.65.41.63.46.9v.68c-.36 1.91-1.49 2.12-4.16 2.2-.75.02-1.11-.4-2.44-.85-.79-.16-1.42.81-1 1.49.46.59 1.32.76 1.98 1.08 1.12.43 2.36.29 3.52.16 1.46-.23 2.9-.9 3.62-2.27 1.01-2.02.44-4.37-1.33-5.28zM53.04 92.51c-.1-2.58-.37-5.16-.67-7.72-.17-.72-1.16-.98-1.67-.44-.83 1.08-.83 1.17-1.7 2.23-.6.7-1.17 1.42-1.84 2.05-.19.18-.29.44-.29.71-.03.86 1.12 1.34 1.71.71.74-.75 1.43-1.55 2.1-2.38.18 1.97.33 3.95.47 5.92.15.95-.27 1.94-.02 2.86.22.65 1.16.81 1.62.32.32-.31.3-.74.32-1.15.11-1.04.09-2.07-.03-3.11zm22.73 2.43c-.82-.3-.95.02-2.04-.11-1.09.03-1.06-.28-2.14-.61 1.91-2.31 3.42-5.34 2.4-8.3-.46-1.2-1.34-2.59-2.77-2.6-1.1.13-1.84 1.13-2.5 1.93-.69.92-1.55 1.94-1.58 3.13.08 1.06 1.7 1.15 1.95.13.46-1.27.94-1.82 2.11-3.03.03-.03.05-.04.07-.06.02-.01.04-.03.06-.04.62.36 1.19 2.37.98 3.09-.53 2.47-1.72 4-3.51 5.82-.27.11-.54.24-.79.41-.59.34-1.17.95-1.07 1.68.04.57.66.96 1.2.87.73-.17 1.27-.69 1.78-1.24.29-.07.55-.01 1.07.09.24.12 1.07.49 1.28.56.92.16 1.87.21 2.8.16 1.09.08 1.66-1.29.7-1.88zm-.99-82.64c-.01-1.59 1-5.35 1.57-7.76-.08-1.05-1.7-1.16-1.95-.13-.56 1.71-.99 3.46-1.28 5.24-.24.01-.54.02-.66.02-1.08.07-2.93.37-4.01.55.43-1.57.68-3.19.79-4.8.02-.7.3-1.71-.54-2.02-.62-.31-1.41.23-1.39.91-.12 2.4-.35 4.03-1.17 6.65-.04.09-.03.08-.01.03-.19.48.01 1.1.53 1.29.99.26 2.05-.17 3.05-.26 1.43-.2 1.66-.31 3.15-.37-.1 1.06-.16 2.12-.15 3.19v.05c-.02.09-.04.23-.07.31-.25.74-.33 1.89.6 2.15.51.15 1.1-.18 1.23-.7.04-.16.03-.32 0-.48v-.04c.38-1.24.21-2.55.31-3.83zm5.52 88.16c-11.03.09-22.07-.66-33.1-.23-2.25.12-4.5.12-6.75.23-.26 0-.52.11-.71.29-.62.59-.16 1.74.71 1.71 7.34-.28 14.68-.57 22.01-.18 6.07-.18 12.18.42 18.23.09.98-.36.67-1.95-.39-1.91zm-7.38 16.28c0-1.06-.02-2.11-.14-3.16-.14-2.92.08-5.86-.1-8.77-.14-.89-1.41-1.14-1.85-.34-.32.66-.53.97-1.25 1.93.3-.42-.96 1.2-1.27 1.51-.35.48-.99.86-1.01 1.52-.03.86 1.12 1.34 1.71.71.55-.67 1.15-1.32 1.72-2 .01 1.47.02 3.15.01 4.23.02 1.54.23 3.08.18 4.63-.01.38.01.34.03.11-.04.13-.05.27-.02.4.03.49.5.86.98.87.87-.02 1.1-.93 1.01-1.64zm22.42-1.68c-.78-.56-.98-.14-1.42-.4-.73-.26-1.46-.61-2.21-.85.34-.43.66-.87.97-1.32.71-.89 1.2-1.88 1.48-2.98.66-1.55.45-3.41-.44-4.84-.95-1.4-3.01-1.44-4.36-.63-1.32.88-2.06 2.41-2.39 3.93.02.27-.3.61 0 1.4.41.75 1.63.59 1.83-.24.24-2.81 2.21-4.4 3.3-3.31.28.45.28.64.45 1.6l.03.18v.17l-.03.14c-.62 2.47-1.7 4.06-3.39 5.76-.53.19-.97.6-1.37.98-.4.63-.78.54-.55 1.53.12.33.46.56.81.6-.08-.01-.09 0 .21.03.24.01.46-.08.66-.19.44-.34.86-.72 1.26-1.11.45.01 1.07.21 2.06.61.87.34 1.84.85 2.78.55.65-.21.81-1.14.32-1.61zm-21.51 10.76c-.03-.66.07-1.37-.21-1.98-.35-.63-1.29-.63-1.74-.1-.73.91-1.36 1.89-2.08 2.81-.07.09-.37.45-.47.56-.33.48-.93.86-.94 1.48-.03.86 1.12 1.34 1.71.71.49-.55 1.14-1.38 1.73-2.16 0 1.97 0 4.53-.17 6.2.03 1.3-.06 1.26-.13 2.35.05.8 1.15 1.15 1.69.57.74-1.19.28-2.79.51-4.13.19-2.09.07-4.2.1-6.31zm17.98-1.53c.01 0 .02.01.03.01-.01 0-.01-.01-.03-.01.01 0 .01 0 0 0z"/><path d="M95.39 134.93c-.08.01-.16.01-.23.01-1.09-.2-2.08-1.15-3.69-1.42 1.6-1.75 3.25-3.55 3.66-5.91.33-2.32-1.02-5.35-3.66-5.37-1.83.12-2.75 1.85-3.48 3.3-.3.82-1.05 1.77-.65 2.65.41.75 1.63.59 1.83-.24.1-.74 1.43-3.02 1.67-3.32.32-.27.21-.23.75-.4h.05c.05.01.11.03.17.05-.06-.03-.07-.03 0 0 .06.02.11.04.15.06a.694.694 0 0 1-.13-.05c.02.01.03.01.06.03.63.2 1.17 1.34 1.21 1.8.37 2.9-1.87 4.47-4.26 7.32l-.27.3c-.9.36-1.58 1.03-1.52 2.09.67 1.51 1.92.5 2.69-.38.75-.16 1.85-.01 2.83.57.98.43 2.09 1.16 3.2.81 1-.34.67-1.93-.38-1.9zm-1.1-124.91c.1-1.8.17-3.59.07-5.37-.36-1-1.95-.67-1.91.39-.03 1.48-.09 2.96-.16 4.44-1.33.01-2.68.26-4.01.48.38-1.81.76-3.78.65-5.48-.35-1-1.95-.67-1.91.39-.13 1.44-.4 3.52-.87 5.61-.04.12-.48 1.05.38 1.56.26.15.58.17.87.09 1.62-.33 2.28-.41 4.19-.59.2-.03.41-.04.61-.04-.05 1.12-.1 2.24-.12 3.37.1.85-.38 2.18.61 2.61.96.4 1.55-.6 1.38-1.46-.03-1.66.06-3.33.15-4.99.2-.32.22-.7.07-1.01zm6 129.87c-6.4.07-12.79-.06-19.19-.18-3.92-.1-7.82.22-11.73.18-2.95-.04-5.91.08-8.85.36-.26 0-.52.11-.71.29-.62.59-.16 1.74.71 1.71 5.56-.55 11.16-.26 16.74-.54 7.8-.09 15.64.45 23.41.09 1-.35.68-1.95-.38-1.91zm-4.91 4.51c-.48-.28-.93-.12-1.21.2-2.52 0-5.25 1.01-6.55 3.28-1.29 2.37-1.94 6.1.55 7.92 1.71 1.26 4.12 1.44 5.95.33 1.27-.62 2.21-1.81 2.93-2.99.49-1.03.47-2.2.49-3.32-.05-1.87-.2-4.57-2.16-5.42zm-.15 7.89c-.77 1.25-1.95 2.35-3.43 2.59-1.03.1-3.07-.48-3.27-2.01-.25-2.72.92-5.79 4.64-6.22.02-.12 1.03.13 1.7-.22.01.01.02.02.03.04.8 1.2.77 5.02.33 5.82z"/></svg>