<svg xmlns="http://www.w3.org/2000/svg" width="84.5" height="160" style="enable-background:new 0 0 84.5 160" xml:space="preserve"><path d="M15.92 32.49c-.11-1.13-.58-2.28-1.51-2.98-1.15-.9-2.66-.96-4.06-.89-.82.02-1.65.17-2.41.48-.01-.93-.08-1.87-.31-2.77.11-.03.21-.06.32-.07.72-.09 3.69-.49 5.31-.83.62-.14 1.52-.22 1.58-1.03.14-.68-.6-1.3-1.25-1.1-1.81.43-3.66.68-5.5.93.56-.09-1.3.14-1.65.39-.57.17-.89.74-.91 1.32.42 1.84.43 2.81.43 5 .04.65.83 1.1 1.41.81.8-.45.84-.73 1.76-.95 1.48-.42 3.71-.17 4.1.31.67.41.94 2.55.81 3.11-.01.07-.04.16-.06.24-.69.98-.78 1.24-1.89 1.64-1.68.58-1.99.63-3.39.3-.14-.03-.28-.07-.42-.11-.12-.06-.31-.15-.4-.19-.12-.04-.4-.24-.55-.35-.26-.22-.53-.47-.9-.45-.64-.02-1.14.65-.96 1.27.27.68 1.05 1.05 1.66 1.38 3.26 1.62 7.64-.09 8.72-2.78.31-.86.25-1.8.07-2.68zm40.25-1.62c-.69-.53-1.51-.88-2.33-1.12-.12-.06-.59-.13-.81-.15-1.01-.2-2.08-.28-3.04.16-.28.1-.54.25-.79.42.75-2.3 1.75-3.25 3.84-5.83.92-.92-.48-2.33-1.41-1.41-2.17 2.59-3.89 4.55-4.58 7.46-.44 1.51-.89 3.16-.28 4.69.52.81 1.3 1.44 2.12 1.92 2.26.94 5.29 1.61 7.13-.46.81-.88 1.19-2.03 1.2-3.22-.13-.87-.46-1.8-1.05-2.46zm-2.22 4.8-.22.06c-1.37.3-.75.3-2.02.05-1.91-.51-2.07-.43-3.17-1.61-.01-.06-.02-.11-.03-.15-.03-.21-.04-.41-.05-.58.31-.19.33-.36.37-.36.75-.76 1.3-1.28 2.12-1.57.6-.22 1.52.01 2.13.1.91.27.87.24 1.7.72.29.54.23.36.43 1.09v.09c-.07.35-.12.7-.22 1.05 0 .01 0 .01-.01.01-.69.95-.21.48-1.03 1.1zm22.52-8.35c-.2-.62-.61-1.09-1.1-1.5-.32-.39-.64-.79-1.03-1.11-.09-.44-.46-.84-.96-.82-1.89.02-3.94.37-5.51 1.45-1.77 2.13-3.16 4.89-2.55 7.73.44 3.08 5.18 4.93 7.85 3.78 4.05-1.61 4.84-5.73 3.3-9.53zM74.75 33c-.76 1.44-2.72 2.93-5.36 1.81-.63-.14-1.55-.88-2.02-1.62-.27-1.2-.32-1.85.03-3.1-.02-.43 1.58-3.06 1.8-3.25.01-.01.03-.02.04-.03l.04-.02c.55-.36 2.74-.88 3.36-.88h.04c.15.17.34.31.4.35.48.43.82.99 1.32 1.39.51.88.84 2.25.79 3.42-.05 1.24-.02.56-.44 1.93z"/><path d="M82.14 20.39c-.11-.42-.53-.74-.96-.73H66.59c-5.11.08-10.19-.46-15.3-.31-5.57.15-11.2-.37-16.74.35-3.75.58-6.64 2.15-5.72 6.43.27 2.9 1.85 9.34.85 12.31-.57 1.01-.89.84-2.96 1.51-.09-.07-3.43 0-4.56-.02-5.44.16-10.87.32-16.31.31-1.63-.02-3.25-.08-4.88-.16-.27 0-.52.11-.71.29-.62.58-.16 1.74.71 1.71 8.15.43 16.3-.18 24.45-.16 1 .04 1.98 0 2.92-.38 1.3-.24 2.58-1 3.14-2.24.66-1.34.43-2.88.48-4.32 0-2.24-.59-5.59-.89-6.87-.23-2.5-.94-4.64.53-5.35 3.3-1.91 8.33-1.29 13.2-1.41 11.81-.08 23.61.5 35.43.31.88.07 2.17.01 1.91-1.27zM48.27 75.03s.01 0 .01.01c-.01-.01-.03-.02-.05-.04.02.01.03.02.04.03z"/><path d="M55.08 70.76c-1.34-1.33-3.64-1.83-5.87-.91-.08.06-.16.11-.24.17.13-.28.26-.5.36-.63 1.33-1.57 2.65-3.16 4.02-4.69a.99.99 0 0 0 .29-.71c.03-.86-1.12-1.34-1.71-.71-2.26 2.69-5.12 5.16-5.81 8.77-.44 1.61-.53 3.7 1.1 4.66 2.07 1.33 5.71 1.53 7.45-.42 1.43-1.41 1.7-3.93.41-5.53zm-1.2 2.93c-.45 1.99-2.32 2.47-5.02 1.67-.15-.08-.41-.22-.58-.33l-.01-.01c-.06-.04-.11-.08-.14-.1.05.03.07.05.09.07-.03-.02-.06-.05-.1-.09-.06-.07-.1-.1-.12-.12-.03-.05-.06-.1-.09-.16-.18-.35-.08-1.13.14-1.99.5.32 1.29.09 1.66-.6.74-1.01 2.74-.67 3.73-.08.06.06.12.13.18.2.03.04.05.09.08.13.09.22.15.45.2.68v.01c.04.63.01.46-.02.72zm1 14.91c-1.44-1.25-3.43-1.28-5.2-.84-.14.04-.27.09-.41.14-.09-.46-.19-.86-.16-1.19v-.16c.25-.08.53-.17.64-.17 1.56-.35 3.3-.27 4.77-.86.88-.6.14-2.07-.87-1.75-1.99.47-4.21.31-6.05 1.27-.85.83-.42 2.32-.24 3.39 0 .03.01.07.01.12.1.89-.07.41-.06 1.29.06.86 1.23 1.13 1.74.51.01 0 .01-.01.02-.01.05-.04.12-.08.17-.12.78-.53.51-.36 1.19-.56 1.64-.33 2.93-.14 3.61 1.07.51 1.08.43.61.42 2.09-.02.09-.04.18-.06.26-.09.2-.23.36-.35.54-.05.06-.08.1-.1.13-.02.03-.05.06-.09.1-1.12 1.49-3.38 1.72-5.2 1.41-.81-.07-.25-.13-1.37-.54-.68-.14-1.3.6-1.1 1.25.36.71.46.66 1.35 1.1 1.56.43 4.73.63 6.77-.91 2.68-1.89 2.88-5.3.57-7.56zm6.5 10.97c-.69-.56-1.7-.2-2.52-.29-3.85.12-7.67.65-11.53.47-2.05-.06-4.09.2-6.14.32-.26 0-.52.11-.71.29-.63.59-.16 1.74.71 1.71 3.85-.4 7.71-.27 11.57-.35 2.75-.38 5.56-.35 8.31-.52.63-.23.8-1.17.31-1.63zM52.39 5.14c-.15-.97.44-2.49-.63-3.03-1.04-.42-1.43.76-1.52.93-.76 1.3-1.04 1.59-2.21 2.78-.37.39-.96.71-.95 1.32-.03.86 1.12 1.33 1.71.71.55-.51 1.09-1.04 1.59-1.6 0 1.25-.01 2.5 0 3.75.09 2.04-.39 3.64-.07 6.1.22.65 1.16.81 1.62.32.48-.51.24-1.26.29-1.89.11-2.85.22-5.92.17-9.39zm-.65 98.77c-.42.1-.62.47-.75.84-.01.02-.02.05-.05.1-.55.91-.51.75-1 1.4-.59.93-1.85 1.95-2.06 2.98-.03.86 1.12 1.34 1.71.71.32-.43.81-1.04 1.31-1.68-.1 1.28-.24 2.56-.27 3.84-.12 1.67-.07 3.35-.08 5.02-.02.65.65 1.14 1.27.96.42-.11.74-.53.73-.96 0-1.14-.01-2.28 0-3.42.03-2.8.49-5.59.46-8.39.14-.77-.4-1.64-1.27-1.4zm25.29 4.54c-.17-1.2-.58-2.66-1.74-3.24-.22-.12-.42-.14-.61-.12-.17-.28-.46-.48-.82-.47-1.46.1-2.98.18-4.32.82-1.31.72-2.21 2.02-3.02 3.25-.92 1.84-1.27 4.24-.38 6.15.92 1.77 3.03 2.87 5.01 2.55 3.15-.42 5.33-3.49 5.6-6.52-.07.45.33-1.88.28-2.42zm-2.1 1.16c-.27 1.97-.59 3.22-1.47 4.24-2.13 2.54-4.82 1.59-5.63-.04-.8-2.52.61-5.35 2.7-6.66.07-.13 2.33-.54 2.57-.51.27-.03.56-.01.83-.05.08.12.19.24.34.33.07.03.13.07.2.11.35.57.23.41.35.69.35 1.2.19.96.11 1.89zm-22 13.86c-.64-1.09-2.05-.54-2.52.42.25-.3-1.71 2.11-2.24 2.54-.92.93.48 2.33 1.41 1.41.45-.41 1.02-1.07 1.53-1.68-.1 3.21-.23 6.45-.01 9.63.35.99 1.95.67 1.91-.39.03-2.99-.08-5.98.08-8.96.01-.98.26-2.05-.16-2.97zm24.11 3.27c-.26-.73-.82-1.29-1.35-1.83a.935.935 0 0 0-.76-.28.917.917 0 0 0-.77-.37c-3.14-.07-6.75 1.32-7.85 4.49-.68 1.88-1.13 4.1-.28 6 1.02 2.16 3.82 3 5.92 1.93 2.72-1.46 4.84-4.14 5.21-7.25.03-.9.12-1.82-.12-2.69zm-2.8 5.12c-2.87 4.69-7.86 4.33-6.42-1.33.84-2.88 1.9-3.61 5.2-4.26.39-.03.82.03 1.21-.03.34.51.9.86.9 1.09.22.65.06 3.05-.89 4.53zm7.01 7.76c-.47-.45-1.16-.26-1.74-.28-1.96.22-4.22.14-6.81.15-2.76.08-5.51.22-8.27.16-3.81.2-7.61.6-11.43.47-3.39.02-6.77-.27-10.16-.12-.78.13-1.73-.1-2.37.42-.62.59-.16 1.74.71 1.71 5.27-.42 10.56.16 15.84 0 4.08-.26 8.15-.59 12.25-.47 3.99-.3 7.98-.06 11.27-.31.86.01 1.34-1.14.71-1.73zm-6.48 5.61a1.12 1.12 0 0 0-1.28-.42c-1.45-.23-3.01-.29-4.38.29-.97.61-1.65 1.56-2.16 2.57-.83 1.76-1.23 3.86-.9 5.77.6 2.11 2.63 3.95 5.75 3.54 2.57-.62 3.81-2.79 4.59-5.14.54-2.3-.06-4.83-1.62-6.61zm-.75 7.16c-.73 1.58-.84 1.75-2.08 2.42-.05.02-.1.05-.15.07-.14.06-.29.11-.43.15-.14-.01-.59-.01-.75-.03-1.36-.09-2-.62-2.57-1.97.02.06.01.04-.02-.04-.02-.04-.04-.08-.05-.12.03.06.04.09.05.12-.01-.04-.03-.08-.05-.15-.06-.55.02-2.19.31-3.08.3-1.01.75-1.78 1.16-2.31.09-.12.43-.42.57-.55.38-.23 1.12-.3 2.46-.24.19.04.65.13 1.03.13.06.08.14.21.26.42 1.06 1.82 1.1 3.55.26 5.18z"/><path d="M68.01 152.99c.01.01.01.02.02.04 0-.02-.01-.03-.02-.04zm6.92-139.01h-.05c-.08 0-.22-.01-.32-.02-.08-.01-.17-.02-.25-.04-1.24-.32-2.54-.83-3.85-.98.98-.9 1.67-2.08 2.13-2.59.91-1.23 1.88-2.61 1.93-4.19.14-2.24-1.54-4.47-3.95-3.78-1.18.27-2.06 1.19-2.8 2.09-.51.61-1.01 1.29-1.19 2.08-.2 1.05 1.35 1.57 1.85.64.46-1.2 1.5-2.2 2.15-2.68.5-.21.39-.24 1.08-.23.01 0 .02.01.03.01.75.51.37.1.77 1.06.05.44.19.85-.16 1.69-1.02 2.28-3.46 4.72-6.1 7.44.01-.01.03 0 .04 0-.11.1-.22.2-.29.29-.42.68.2 1.64 1 1.49.25-.01.47-.17.65-.34l.01-.01c.62-.42 1.57-1.11 1.53-.97.59-.15 2.56.15 4.22.83.9.19 2.56.62 2.77-.67.14-.68-.55-1.29-1.2-1.12z"/></svg>