<svg xmlns="http://www.w3.org/2000/svg" width="125" height="201" style="enable-background:new 0 0 125 201" xml:space="preserve"><path d="M15.61 30.14c-.14-.17-.71-.12-.91-.09-.25.03-.51.04-.76.04.54-1.53 1.05-2.96 1.28-3.61.23-.69.86-1.23.94-1.96-.04-1.27-1.55-1.04-2.43-.9-.02 0-.06 0-.13.01-.88.06-1.77.12-2.66.12-1.55.09-3.11.17-4.66.22-.26 0-.52.11-.71.29-.63.59-.16 1.73.71 1.71 1.98-.1 5.22-.21 7.15-.34-.1.24-.21.49-.29.74-.48 1.25-.92 2.51-1.36 3.78-.9.04-1.79.09-2.69.16-.26 0-.52.11-.71.29-.63.59-.15 1.74.71 1.71.66-.07 1.32-.1 1.98-.13-.13.38-.26.76-.4 1.14-.42 1.43-.51 1.62-1.02 3.09-.26.83.73 1.59 1.47 1.13.48-.29.54-.9.73-1.38.15-.43.43-1.21.72-2.24.18-.52.4-1.15.64-1.81.72-.03 1.44-.07 2.15-.16.85-.18 1.01-1.4.25-1.81zm40.46 5.61c-.48-.72-1.2-.43-1.21-.46-.75.3-2.68-.28-4.45-.56a65.34 65.34 0 0 0 4.04-3.94c3.54-4.25.83-10.05-4.9-7.88-1.52.68-2.82 2.56-2.95 4.21.08 1.06 1.7 1.15 1.95.13.27-1.09.94-1.98 1.67-2.46.2-.07.54-.2.66-.23.45-.07 1.39-.23 2.13.09 1.44.74 1.63 3.67-1.2 6.01-1.36 1.33-2.76 2.62-4.16 3.91-.35.46-1.07.37-1.25 1.45-.02.73.82 1.21 1.45.9.06-.02.12-.04.17-.07.12-.05.25-.11.37-.16.01 0 .01 0 .02-.01.14-.05.28-.08.42-.11.05 0 .1-.01.15-.01.82-.04 2.49.48 4.02.7 1.2.19 1.84.04 2.48-.05.61-.15.91-.91.59-1.46zm17.73-1.56c.13-2.75-.35-5.47-.35-8.21-.16-1.05.55-3-.88-3.31-.49-.09-.94.26-1.1.71.02-.04.02-.04-.03.05v.02c0 .01 0 .01-.01.01-.67 1.51-2.2 2.53-3.65 4.08-.47.96.9 1.87 1.62 1.09.6-.4 1.37-1.13 2.06-1.89.02.81.06 1.62.15 2.43.27 2.38.17 4.78.19 7.18-.02.36.02.74.29 1 .37.39 1.04.38 1.41 0 .62-.88.17-2.14.3-3.16zm21.99 1.56c-.48-.72-1.2-.43-1.21-.46-.75.3-2.68-.28-4.45-.56a65.34 65.34 0 0 0 4.04-3.94c3.54-4.25.83-10.05-4.9-7.88-1.52.68-2.82 2.56-2.95 4.21.08 1.06 1.7 1.15 1.95.13.27-1.09.94-1.98 1.67-2.46.2-.07.54-.2.66-.23.45-.07 1.39-.23 2.13.09 1.44.74 1.63 3.67-1.2 6.01-1.36 1.33-2.76 2.62-4.16 3.91-.35.46-1.07.37-1.25 1.45-.02.73.82 1.21 1.45.9.06-.02.12-.04.17-.07.12-.05.25-.11.37-.16.01 0 .01 0 .02-.01.14-.05.28-.08.42-.11.05 0 .1-.01.15-.01.82-.04 2.49.48 4.02.7 1.2.19 1.84.04 2.48-.05.61-.15.92-.91.59-1.46zm17.01-1.56c.13-2.75-.35-5.47-.35-8.21-.16-1.05.55-3-.88-3.31-.49-.09-.94.26-1.1.71.02-.04.02-.04-.03.05v.02c0 .01 0 .01-.01.01-.67 1.51-2.2 2.53-3.65 4.08-.47.96.9 1.87 1.62 1.09.6-.4 1.37-1.13 2.06-1.89.02.81.06 1.62.15 2.43.27 2.38.17 4.78.19 7.18-.02.36.02.74.29 1 .37.39 1.04.38 1.41 0 .62-.88.17-2.14.3-3.16z"/><path d="M121.65 19.83c-1.48-.57-2.96-.25-5-.36-4.8-.3-11.92-.24-17.68-.2-10.18.28-20.37.23-30.55.21-4.4-.43-8.8-.11-13.21-.11-3.09-.01-4.78.44-7.75.47-2.39-.08-4.79-.05-7.17-.28-2.76-.18-5.73-.34-8.11 1.31-1.53.96-2.05 2.71-1.85 4.43-.04 2.16.25 2.46.36 3.92-.01 1.59.32 2.1.23 3.93-.05 1.59-.34 2.87-.74 3.61-1.28 2.22-4.01 3.02-6.97 2.99-4.01-.29-11.75.02-15.8.25-2.13-.02-4.26.02-6.38.24-.39 0-.78.24-.91.61-.3.61.23 1.41.91 1.39 2.47-.29 4.95-.2 7.43-.27 2.18-.29 6.45-.23 9.55-.33 4.4-.17 8.97 1.07 12.83-2.45 2.12-2.13 2.24-5.43 1.99-8.25-.19-2.52-.63-4.89-.49-7.23.08-.28.69-1.08.87-1.14 1.22-.7 1.3-.74 2.64-1.07.03-.01.05-.01.08-.01 2.9-.16 5.76.27 8.66.24 3.05.31 6.03-.14 8.38-.29 2.3-.18 4.61.02 6.9-.18 2.87-.09 5.73-.02 8.58.21 6.3.03 12.59 0 18.89.01 10.71-.3 26.22-.34 33.34.1 1.09.67 2.24-1.08.97-1.75zm-65.9 56.26c-.32-.34-.77-.28-1.19-.31.52.06.03.01-.19-.03-.48-.08-.96-.06-1.44-.07-.13.01-.48-.02-.62-.03-.06-.01-.11-.03-.16-.04-.14-.07-.29-.13-.41-.23-.26-.18-.52-.37-.78-.55.32-.31.64-.61.94-.93 1.49-1.78 3.1-3.88 3.11-6.3-.2-1.25.07-1.62-.68-2.95-.45-.61-1.06-1.17-1.78-1.44-.73-.12-1.51-.07-2.23.09-1.72.65-2.86 2.54-3.01 4.33.08 1.06 1.7 1.15 1.95.13.45-1.49.61-1.94 1.67-2.55.07-.02.14-.03.21-.04.18 0 .63-.02.86-.02.59.4.44.33.74.72.15.47.3.9.24 2.41-.12.32-.69 1.91-.91 2.01-1 1.7-2.09 2.81-3.59 4.13-.64.19-1.21.58-1.56 1.18-.61.96.42 2.14 1.42 1.53.34-.26.66-.56.99-.84h.16c.01 0 .02.01.04.01.57.31 1.04.79 1.63 1.06.74.38 1.6.31 2.41.33.76.01.45.09 1.46.11.87.03 1.35-1.12.72-1.71zm17.09-11.04c.11-.28.19-.58.18-.88-.29-1.35-1.89-1-2.08.24-.21.49-.24.38-.92 1.26-.72.8-1.43 1.62-2.26 2.32a.99.99 0 0 0-.29.71c-.03.86 1.12 1.34 1.71.71.5-.44.98-.91 1.43-1.4-.11 2.71.01 5.45-.04 8.16-.05.47.14 1 .61 1.16 1.8.53 1.34-1.83 1.39-2.89.03-2.37-.07-4.74.09-7.1.05-1.2.03-1.6.18-2.29zM55.73 95.99c-.6-.34-1.25.1-1.85.24-.38-.06-1.47.08-2.02-.39-.3-.13-.55-.41-.86-.65l.25-.25c1.44-1.62 3.66-4.66 3.76-7.73.03-2.1-1.11-4.06-3.45-3.83-1.85.06-3.26 1.79-3.46 3.55-.06.56-.26 1.26.2 1.71.59.63 1.74.15 1.71-.71-.02-1.19.46-1.95 1.13-2.44.13-.03.34-.09.51-.12h.05c.72.05.28-.06.9.22.04.07.09.14.13.21.78 1.58-.12 4.23-2.17 6.88-.09.11-.37.45-.48.6-.09.08-.95 1.03-1.39 1.52-.89.22-1.72.84-1.81 1.8 0 1.05 1.28 1.43 2.05.87.32-.27.55-.51.76-.74h.02c1.27 1.25 3.14 1.84 4.89 1.41.41-.17.9-.2 1.25-.47.56-.41.48-1.36-.12-1.68zm17.99-11.02c.43-1.04-.12-2.26-1.35-1.72-.29.16-.42.45-.51.75-.01.03-.02.04-.04.08-.44.79-.33.51-.93 1.31-.57.76-1.23 1.43-1.94 2.06a.99.99 0 0 0-.29.71c-.03.86 1.12 1.34 1.71.71.42-.4.84-.82 1.25-1.25.01 1.36.08 2.73.03 4.09 0 1.46-.04 2.92.11 4.37-.1.73.53 1.41 1.27 1.2 1.22-.4.54-1.9.62-2.84.04-2.94-.12-7.52.07-9.47zm2.03-75.61c-.37-.49-.96-.86-1.59-1.08 1-1 1.75-2.17 1.53-3.64-.02-1.09-.78-2.04-1.7-2.58-.77-.4-1.64-.18-2.46-.13-2.74.07-4.66 2.53-5.48 4.94-.2 1.04 1.35 1.57 1.85.64 1.53-3.12 2.09-3.59 5.11-3.68.03.01.06.01.09.02.01.01.02.01.03.02.19.17.35.36.51.56.1.34.09.49.06 1.19v.01c-.07.12-.23.41-.32.5.39-.5-.58.7-.77.9-.44.46-.98.81-1.45 1.24-.35.37-.38.05-.73.81-.15.51.18 1.1.7 1.23.65.1.7-.11.83-.1.11-.03.4-.08.57-.11 1.03-.07.6-.09 1.57.37.01.02.02.04.04.07l.12.33c.27.92.21.64.25 1.45 0 .01 0 .01-.01.02-.85 1.45-.73 1.49-2.23 2.22-.23.13-2.27.44-2.85.31-.87-.24-.58-.35-1.57-.69-.79-.16-1.42.81-1 1.49 1.53 1.56 3.47 1.23 4.72 1.06.22.03 2.03-.34 2.85-1.09.85-.66 1.49-1.58 1.92-2.56.41-1.21-.03-2.63-.59-3.72zm4.34 90.21c-2.69.43-6.58.16-10.07.23-5.76.18-11.54.05-17.3.24-4.06.08-8.18-.16-12.21.09-.99.36-.67 1.95.39 1.91 8.97 0 17.95-.03 26.92-.21 3.88-.17 9.39.23 12.28-.26 1.76.24 1.79-2.26-.01-2zm-4.4 8.28c-.27-.49-.49-1.73-1.57-2.41-.13-.11-.68-.52-.88-.48a.647.647 0 0 0-.24-.01c-1.11-.44-2.36-.75-3.42-.18-2.72 1.92-4.14 5.45-3.74 8.73.31 1.95 1.53 3.69 3.58 3.99 1.57.43 3.02.33 4.73-.98 1.47-.94 2.05-2.86 2.03-3.35a7.62 7.62 0 0 0-.49-5.31zm-1.5 5.19c-.2.67.05.58-.99 1.7-.89.65-1.16.78-2.02 1.02h-.09c.02 0 .05.01.06.01-.02 0-.03 0-.07-.01h-.05c-.27-.02-.16-.05-.88-.16-.16 0-.62-.13-.77-.17-.28-.14-.56-.29-.82-.47-.11-.12-.16-.26-.45-.82-.81-1.52-.15-4.94 1.4-6.55 1.39-1.43.78-1.14 1.92-1.02.18 0 .85.24 1.04.3.02.01.05.02.07.04.16.09.34.18.52.23.08.05.17.13.26.23.02.03.05.08.08.14.42 1.24.59 1.19.92 2.39.27 1.29.14 1.65-.13 3.14z"/><path d="M71.03 115.75h.06c-.05-.01-.1-.01-.14-.02.03.01.06.02.08.02zm24.5-.71c-1.16-.01-1.5.29-2.96-.19-.07.01-.33-.15-.67-.32l.6-.72c.62-.81 2.21-2.9 2.27-4.79.16-4.1-1.39-6.07-5.62-4.95-.84.3-1.64.93-1.96 1.78-.22 1.12-.21 2.45.37 3.45.6.88 2.07.14 1.75-.87-.3-.87-.24-.79-.23-1.91 0-.01.01-.02.01-.03.02-.04.04-.08.06-.11.42-.22.01-.33 1.34-.54.29-.02 1.07-.07 1.31-.06.03.01.06.02.09.02.01.01.03.01.05.02.68.17 1.07 2.27.72 3.83-.39 1.09-1.5 2.78-2.36 3.72-.4.46-.86.85-1.31 1.25-.39.19-.76.43-1.02.79-.51.78.29 1.82 1.17 1.53.34-.18.65-.39.96-.62.22-.08.39-.09.59-.12.29.12 1.52.79 2.32.82.93.11 2.02.31 2.85-.22.68-.46.44-1.57-.33-1.76zm-21.5 9.25c-.13.01-.25.04-.35.1-.04 0-.08-.02-.12-.02-3.49-.05-6.88 2.52-7.24 5.33-.15.91-.3 1.93.1 3.4.5 1.13 1.23 2.36 2.36 2.95 1.35.65 2.92.83 4.36.38.77-.32 1.38-.93 2.02-1.46 3.04-2.99 2.79-10.64-1.13-10.68zm.57 8.06c-.11.2-.38.68-.5.79-.01.02-.02.02-.03.03-.02.02-.04.04-.07.08-.65.67-.95.84-1.27 1.1-.52.34-.45.2-.93.29-.98.1-1.71-.18-2.29-.48-1.16-1.02-1.52-2.61-1.35-3.33.15-2.07 1.21-3.5 4.08-4.34.21-.18 1.01.06 1.71-.25.1.01.2.04.3.07.03.02.05.03.08.05.09.08.19.16.26.26.33.19 1.2 2.62.01 5.73zm20.36-8.56c-.46-.51-1.18-.43-1.56-.03-.05-.01-.09-.02-.14-.02-1.82-.01-3.61.69-5.11 1.68-.69.49-.91 1.35-1.29 2.07-.62 1.42-1.13 3.02-1 4.58.77 2.91 3.74 4.3 6.57 3.59 3.06-.92 4.45-3.09 4.73-5.9.17-2.17-.46-4.55-2.2-5.97zm.21 5.33c.08 1.18-.59 2.59-.75 2.88-.29.37-.61.71-.99.98-.19.12-.68.45-.83.51-.03.02-.07.03-.1.05-.22.08-.68.2-.83.24-1.51.1-1.76.04-2.98-.67-.03-.03-.05-.06-.08-.09-.1-.15-.33-.48-.4-.59-.68-1.15-.45-1.02 0-2.91.1-.65.99-2.27 1.04-2.43.49-.42 1.49-.87 2.68-1.22.34-.24 1.16.11 1.94-.38.11.09.23.22.4.43.35.41 1.02 1.93.9 3.2zM93.63 2.81c-.22-.13-.45-.18-.66-.16-.23-.18-.52-.28-.85-.17-1.55.45-2.85 1.44-4.04 2.51-.68.61-1.37 1.27-1.57 2.19-.72 2.37-.6 5.25 1.21 7.11 1.37 1.16 3.35 1.88 5.05 1.01 2.23-1.3 3.25-4.24 3.41-6.7.32-1.24-.18-4.8-2.55-5.79zm.42 6.88c-.34 1.64-1.29 3.27-1.96 3.67-.65.47-1.42.34-1.85.17-2.81-1.06-2.23-4.74-1.7-6.17 1.52-1.63 2.38-2.22 3.9-2.89.13.08.28.14.44.19.09.05.2.12.28.17.1.08.19.16.27.26.69 1.27.59.83.8 1.99.12.76-.04 1.73-.18 2.61zM102 140.9c-.23-.85-1.18-.75-1.87-.73-8.19.44-16.43.24-24.64.2-4.72-.23-9.46 0-14.19.05-1.29 0-1.32 1.99 0 2 13.24-.37 26.5.4 39.74-.25.64.01 1.14-.66.96-1.27zm-5.52 14.26c-.85-.34-1.1.08-1.47.01-.12.03-.44.01-.62-.01-.49-.08-.96-.23-1.42-.41-.03-.02-.06-.03-.1-.05-.28-.2-.57-.38-.86-.53.46-.46.89-.93 1.15-1.32 1.06-1.33 2.37-2.61 2.57-4.39.36-2.34-1.34-4.93-3.86-4.85-1.26-.05-2.51.75-3.27 1.71-.72.98-.87 2.29-.54 3.43.36 1 1.95.67 1.91-.39-.29-1.94.35-2.1 1.49-2.73 1.2-.2 2.36.56 2.3 2.49-.05.21-.14.66-.19.79.05 0-.81 1.39-.98 1.48-1.48 1.88-2.47 3.02-4.09 4.14-.04.03-.07.07-.11.1-.04.03-.07.06-.1.09l-.06.06.01.01c-.08.09-.17.19-.22.31-.31.62.23 1.41.91 1.39.28 0 .5-.13.7-.29.76-.36.54-.34 1.26-.37 1.15.74 2.42 1.33 3.81 1.35.62-.06 1.35-.02 1.88-.38.57-.37.49-1.32-.1-1.64zm17.12-5.91c-.02-1.44-.23-2.87-.25-4.31-.03-.56.13-1.29-.41-1.66-.44-.38-1.2-.22-1.47.28-.14.3-.2.63-.33.94-.11.24-.09.26-.3.5-.74.87-1.47 1.74-2.26 2.56-.3.29-.66.6-.64 1.05-.03.86 1.12 1.34 1.71.71.58-.66 1.23-1.29 1.84-1.96.09 1.61.18 3.23.12 4.85.03 1.42-.01 2.04-.09 2.96.05.8 1.15 1.15 1.69.57.31-.3.32-.76.38-1.16.03-1.76 0-3.55.01-5.33zm.44-141.45c.17-.19.35-.38.51-.61.83-1.06.92-2.62.34-3.82-.86-1.09-1.84-1.89-3.69-1.62-2.2.33-4.36 2.29-5.14 4.34-.2 1.04 1.35 1.57 1.85.64 1.32-2.56 3.99-3.71 4.92-2.65.42.46.48.11.37 1.5-.09.16-.2.32-.29.48-.03.05-.07.1-.11.15-.15.16-.68.74-.87.83.28-.22.17-.11-.05.01l-.12.06c.57-.26-.4.19-.59.3-.6.3-.77 1.16-.28 1.63.38.39.97.33 1.47.33.11.02.42.03 1.14.42l.01.01.01.01c.09.12.26.47.32.6.26.67.07 1.55-.07 1.79l-.01.01c-.09.11-.3.35-.44.48-.15.1-.58.4-.73.46-.08.04-.16.07-.24.11-.35.15-1.47.22-1.56.27-1.58.22-2.38-.24-3.02-.65-.06-.07-.12-.14-.18-.17a.892.892 0 0 0-.74-.2c-1.23.21-1.02 1.7-.03 2.14 1.38.85 2.97 1.12 4.55.78.93.04 4.46-.89 4.61-3.88.08-1.72-.63-3.08-1.94-3.75zM95.83 175.09c-.23-.83-1.11-.79-1.79-.59-.19.01-.67.08-1.16-.07-.03-.01-.05-.02-.08-.03-.13-.06-.35-.16-.44-.22-.06-.04-.1-.06-.12-.08a.27.27 0 0 1-.08-.07 7.53 7.53 0 0 0-.84-.65l.13-.13c1.23-1.52 2.19-3.33 2.7-5.21.18-.4-.14-2.36-.06-1.79-.11-1.26-.97-2.78-2.36-2.83-2.19.06-3.95 2.71-4.34 3.79-.34 1.26 1.57 1.78 1.93.53.13-.41.31-.64 1.5-1.9.19-.19.48-.31.55-.34.08-.03.19-.05.28-.07.03.03.06.05.09.09.25.2.58 1.5.44 2.21-.67 2.14-1.72 3.89-3.59 5.59-.69.31-1.31.81-1.6 1.48-.23.75.54 1.46 1.28 1.22.52-.26.99-.62 1.43-1.01.94-.28.9 1.33 3.92 1.53.89-.04 2.51-.16 2.21-1.45zm16.87-11.01c-.6-.96-1.85-.39-1.99.6-.01.06-.03.11-.05.17-.22.43-.52.8-.8 1.19-.05.06-.7.9-.85 1.06-.36.53-1.06.92-1.08 1.61-.03.86 1.12 1.34 1.71.71.3-.38.63-.75.96-1.13-.04 1.68-.02 3.35-.02 5.03.13 1.02-.32 2.27.29 3.14.37.39 1.04.38 1.41 0 .18-.2.3-.44.29-.71v-6.35c0-1.34.01-2.68.2-4.01.05-.43.17-.91-.07-1.31zm7.63 15.26c-.36.11-2.08.01-3.25.09-2.63.33-5.29.31-7.94.1-6.56-.06-13.11.02-19.65.42-2.87.04-5.79-.05-8.63.09-.99.36-.67 1.95.39 1.91 6.6.25 13.18-.39 19.78-.42 4.46-.07 8.91.1 13.37.14 2.04-.29 5.5-.21 6.39-.4 1.93 0 1.39-2.54-.46-1.93zm-3.72 9.6c-.2-1.33-1.2-2.37-2.13-3.26-.21-.31-.5-.47-.8-.54a.865.865 0 0 0-.57-.18c-1.96.01-3.83.7-4.89 1.44-1.52 1.66-2.47 3.9-2.38 6.17.48 3.62 5.18 4.79 8.13 3.41 1.5-.84 2.1-2.22 2.39-3.25.38-1.24.47-2.51.25-3.79zm-2.11 2.98c-.35 1.29-.5 1.58-1.46 2.29-1.46.69-4.29.24-4.97-1.15-.7-.86.21-3.69 1.33-4.99.2-.31 1.24-.76 3.08-1.1.1 0 .29-.01.45-.01.32.31.63.64.95.95.19.23.11.09.49.68.07.16.16.32.23.48.01.02.01.05.02.06.16 1.33.18 1.72-.12 2.79z"/></svg>