<svg xmlns="http://www.w3.org/2000/svg" width="204.303" height="126.134" viewBox="0 0 54.055 33.373"><defs><clipPath id="b"><path d="M158 34h4.871v1H158zm0 0"/></clipPath><clipPath id="c"><path d="M189 34h4.871v1H189zm0 0"/></clipPath><clipPath id="d"><path d="M208 82h1.871v2H208zm0 0"/></clipPath><clipPath id="e"><path d="M219 149h1.871v2H219zm0 0"/></clipPath><clipPath id="f"><path d="M219 132h1.871v2H219zm0 0"/></clipPath><clipPath id="g"><path d="M219 114h1.871v2H219zm0 0"/></clipPath><clipPath id="h"><path d="M219 96h1.871v2H219zm0 0"/></clipPath><clipPath clipPathUnits="userSpaceOnUse" id="a"><path style="opacity:1;fill:none;fill-opacity:1;stroke:#000;stroke-width:2.58413363;stroke-linecap:round;stroke-miterlimit:4;stroke-dasharray:none;stroke-dashoffset:0;stroke-opacity:1" d="M204.007 57.4h153.228v96.596H204.007z"/></clipPath></defs><g transform="translate(-72.23 -33.472)"><g transform="translate(.26 13.223) scale(.35278)" clip-path="url(#a)"><path d="m78.52 32.7-.399 1.35s.64-.75 1.14-1.05c0 0 .5-.3 1.009-.3 0 0 .53 0 .902.41 0 0 .367.41.367 1.081 0 0 0 1.278-1.05 2.61 0 0-1.048 1.34-2.438 1.34 0 0-.29 0-.52-.063 0 0-.23-.058-.511-.238l-.418 1.52s-.141.449-.141.581c0 0 0 .118.07.22 0 0 .07.089.219.14 0 0 .148.039.602.039l-.051.219h-2.762l.063-.22s.546-.01.726-.179c0 0 .192-.16.41-.91l1.492-5.129s.122-.48.122-.601c0 0 0-.16-.09-.25 0 0-.082-.079-.274-.079 0 0-.168 0-.476.028V33zm-1.36 4.69s.36.419.969.419c0 0 .312 0 .633-.16 0 0 .308-.169.61-.5 0 0 .308-.34.55-.778 0 0 .238-.43.43-1.031 0 0 .187-.59.187-1.168 0 0 0-.473-.21-.723 0 0-.208-.25-.509-.25 0 0-.629 0-1.242.73 0 0-.617.731-.918 1.692zm8.27-7.718-2 6.969s-.14.52-.14.64c0 0 0 .078.05.14 0 0 .058.06.14.06 0 0 .098 0 .25-.09 0 0 .29-.25.622-.75l.187.187s-.559.781-1.027 1.094c0 0-.352.219-.66.219 0 0-.223 0-.372-.16 0 0-.152-.153-.152-.34 0 0 0-.22.192-.871l1.582-5.5s.199-.68.199-.77c0 0 0-.14-.11-.23 0 0-.12-.098-.363-.098 0 0-.117 0-.398.047V30zm5.32 4.86s0 .878-.46 1.738c0 0-.462.851-1.302 1.359 0 0-.84.512-1.617.512 0 0-.812 0-1.312-.52 0 0-.5-.512-.5-1.32 0 0 0-.86.492-1.73 0 0 .488-.872 1.32-1.372 0 0 .828-.5 1.61-.5 0 0 .769 0 1.269.512 0 0 .5.508.5 1.32zm-.969-.41s0-.544-.27-.833c0 0-.261-.289-.683-.289 0 0-.86 0-1.59 1.23 0 0-.726 1.239-.726 2.461 0 0 0 .559.277.86 0 0 .29.289.711.289 0 0 .828 0 1.55-1.219 0 0 .731-1.23.731-2.5zm4.547-2.872-.469 1.59h.922l-.101.36h-.918l-1 3.46s-.172.559-.172.73c0 0 0 .09.05.15 0 0 .04.05.11.05 0 0 .148 0 .39-.2 0 0 .141-.12.622-.73l.207.149s-.547.78-1.04 1.113c0 0-.32.219-.648.219 0 0-.25 0-.422-.16 0 0-.16-.172-.16-.422 0 0 0-.309.192-.97l.968-3.39h-.879l.051-.219s.649-.18 1.078-.53c0 0 .422-.34.95-1.2zm6.942-.422 1.94-.937h.188v6.699s0 .68.051.84c0 0 .063.16.242.25 0 0 .18.09.707.101V38h-2.988v-.219s.57-.011.73-.101c0 0 .16-.09.231-.23 0 0 .059-.141.059-.86v-4.281s0-.868-.051-1.11c0 0-.05-.18-.149-.277 0 0-.109-.094-.27-.094 0 0-.222 0-.589.192zm5.03 3.25s0-1.36.41-2.348c0 0 .411-.98 1.09-1.46 0 0 .528-.38 1.098-.38 0 0 .903 0 1.641.938 0 0 .902 1.14.902 3.121 0 0 0 1.38-.39 2.352 0 0-.403.969-1.02 1.398 0 0-.62.442-1.203.442 0 0-1.137 0-1.887-1.34 0 0-.64-1.13-.64-2.723zm1.141.14s0 1.641.41 2.673c0 0 .34.879 1 .879 0 0 .31 0 .66-.29 0 0 .34-.28.509-.949 0 0 .27-1 .27-2.84 0 0 0-1.363-.278-2.27 0 0-.211-.671-.551-.952 0 0-.23-.188-.582-.188 0 0-.39 0-.7.36 0 0-.417.48-.577 1.52 0 0-.16 1.038-.16 2.058zM112.512 40v-.27s.61-.18.93-.609c0 0 .328-.422.328-.89 0 0 0-.11-.04-.18 0 0-.05-.051-.082-.051 0 0-.07 0-.277.11 0 0-.11.062-.242.062 0 0-.277 0-.45-.172 0 0-.167-.172-.167-.469 0 0 0-.3.218-.5 0 0 .211-.203.54-.203 0 0 .378 0 .68.332 0 0 .312.34.312.899 0 0 0 .601-.434 1.12 0 0-.418.52-1.316.821zm5.617-6.941 1.691-.36s.192.422.301.88c0 0 .149.671.25 1.581 0 0 .04.45.117 1.918 0 0 .742-.797.883-1 0 0 .777-1.047.89-1.219 0 0 .2-.308.278-.55 0 0 .063-.188.063-.34 0 0 0-.14-.274-.348 0 0-.277-.2-.277-.45 0 0 0-.19.148-.331 0 0 .153-.14.352-.14 0 0 .25 0 .437.198 0 0 .192.192.192.512 0 0 0 .29-.102.559 0 0-.148.453-.566 1.09 0 0-.41.64-1.332 1.722 0 0-.13.14-1.309 1.36h-.223s-.136-3.7-.578-4.621c0 0-.14-.301-.492-.301 0 0-.148 0-.418.05zm7.75-2.688s.25 0 .41.168c0 0 .172.16.172.41 0 0 0 .25-.172.422 0 0-.18.18-.41.18 0 0-.25 0-.418-.18 0 0-.172-.172-.172-.422 0 0 0-.25.172-.41 0 0 .168-.168.418-.168zm.082 2.328-1.172 4.102s-.11.418-.11.5c0 0 0 .09.051.148 0 0 .06.07.13.07 0 0 .1 0 .21-.097 0 0 .34-.262.68-.75l.21.129s-.41.61-.94 1.027c0 0-.41.313-.77.313 0 0-.23 0-.39-.141 0 0-.15-.14-.15-.36 0 0 0-.218.142-.718l.757-2.621s.192-.66.192-.82c0 0 0-.122-.082-.211 0 0-.09-.079-.258-.079 0 0-.133 0-.531.059v-.219zm2 3.102s-.04.277-.04.48c0 0 0 .52.36.88 0 0 .367.37.899.37 0 0 .421 0 .82-.172 0 0 .39-.168 1.148-.77l.133.18s-1.39 1.372-2.66 1.372c0 0-.84 0-1.281-.54 0 0-.442-.542-.442-1.19 0 0 0-.88.543-1.79 0 0 .54-.922 1.348-1.422 0 0 .812-.5 1.672-.5 0 0 .629 0 .93.25 0 0 .289.25.289.602 0 0 0 .48-.371.93 0 0-.52.578-1.5.94 0 0-.66.24-1.848.38zM128 35.5s.871-.09 1.422-.34c0 0 .719-.32 1.078-.77 0 0 .352-.449.352-.84 0 0 0-.25-.153-.41 0 0-.16-.16-.437-.16 0 0-.614 0-1.282.641 0 0-.671.649-.98 1.879zm8.879-2.8.41 4.39s1.02-1.2 1.621-2.25c0 0 .36-.61.36-.89 0 0 0-.122-.06-.22 0 0-.01-.058-.179-.16 0 0-.16-.101-.222-.21 0 0-.07-.11-.07-.239 0 0 0-.172.14-.293 0 0 .133-.129.332-.129 0 0 .25 0 .418.172 0 0 .16.18.16.488 0 0 0 .301-.078.563 0 0-.191.5-.691 1.297 0 0-.622.953-1.282 1.77 0 0-.648.82-.976 1.152h-.223l-.379-4.063-2.422 4.063h-.258s-.03-2.5-.25-3.95c0 0-.082-.601-.3-.78 0 0-.14-.141-.442-.141 0 0-.168 0-.43.03v-.21l1.68-.39s.352.972.461 3c0 0 .031.769.063.972l2.398-3.973zm5.199.128h6.332v.48h-6.332zm0 1.902h6.332v.489h-6.332zm0 0" style="fill:#000;fill-opacity:1;fill-rule:nonzero;stroke:none"/><g clip-path="url(#b)" style="clip-rule:nonzero"><path d="M166.82 34.719h-7.91v-.63h7.91zm0 0" style="fill:#000;fill-opacity:1;fill-rule:nonzero;stroke:none"/></g><path d="m166.27 30.828 1.94-.937h.188v6.699s0 .68.051.84c0 0 .063.16.242.25 0 0 .18.09.707.101V38h-2.988v-.219s.57-.011.73-.101c0 0 .16-.09.231-.23 0 0 .059-.141.059-.86v-4.281s0-.868-.051-1.11c0 0-.05-.18-.149-.277 0 0-.109-.094-.27-.094 0 0-.222 0-.589.192zm8.101 6.032s.277 0 .457.19c0 0 .192.2.192.47 0 0 0 .261-.192.46 0 0-.2.192-.457.192 0 0-.27 0-.46-.192 0 0-.2-.199-.2-.46 0 0 0-.29.2-.47 0 0 .19-.19.46-.19zm3 0s.277 0 .457.19c0 0 .192.2.192.47 0 0 0 .261-.192.46 0 0-.2.192-.457.192 0 0-.27 0-.46-.192 0 0-.2-.199-.2-.46 0 0 0-.29.2-.47 0 0 .19-.19.46-.19zm2.699-6.81h4.258v.231l-2.648 7.89h-.66l2.378-7.151h-2.187s-.66 0-.941.152c0 0-.48.27-.79.828l-.16-.059zm5.442 9.95v-.27s.61-.18.93-.609c0 0 .328-.422.328-.89 0 0 0-.11-.04-.18 0 0-.05-.051-.082-.051 0 0-.07 0-.277.11 0 0-.11.062-.242.062 0 0-.277 0-.45-.172 0 0-.167-.172-.167-.469 0 0 0-.3.218-.5 0 0 .211-.203.54-.203 0 0 .378 0 .68.332 0 0 .312.34.312.899 0 0 0 .601-.434 1.12 0 0-.418.52-1.316.821zm0 0" style="fill:#000;fill-opacity:1;fill-rule:nonzero;stroke:none"/><g clip-path="url(#c)" style="clip-rule:nonzero"><path d="M197.82 34.719h-7.91v-.63h7.91zm0 0" style="fill:#000;fill-opacity:1;fill-rule:nonzero;stroke:none"/></g><path d="M201.441 35.059v.851h-1.062V38h-.969v-2.09h-3.36v-.75l3.688-5.27h.64v5.169zm-2.03 0V31.12l-2.782 3.938zm5.96 1.801s.277 0 .457.19c0 0 .192.2.192.47 0 0 0 .261-.192.46 0 0-.2.192-.457.192 0 0-.27 0-.46-.192 0 0-.2-.199-.2-.46 0 0 0-.29.2-.47 0 0 .19-.19.46-.19zm3 0s.277 0 .457.19c0 0 .192.2.192.47 0 0 0 .261-.192.46 0 0-.2.192-.457.192 0 0-.27 0-.46-.192 0 0-.2-.199-.2-.46 0 0 0-.29.2-.47 0 0 .19-.19.46-.19zm2.899-6.032 1.94-.937h.188v6.699s0 .68.051.84c0 0 .063.16.242.25 0 0 .18.09.707.101V38h-2.988v-.219s.57-.011.73-.101c0 0 .16-.09.231-.23 0 0 .059-.141.059-.86v-4.281s0-.868-.051-1.11c0 0-.05-.18-.149-.277 0 0-.109-.094-.27-.094 0 0-.222 0-.589.192zm-56 9.172h-2.399V30h2.399v.43h-1.66v9.14h1.66zm62.601-10h2.399v10h-2.399v-.43h1.649v-9.14h-1.649zm3.641 10v-.27s.61-.18.93-.609c0 0 .328-.422.328-.89 0 0 0-.11-.04-.18 0 0-.05-.051-.082-.051 0 0-.07 0-.277.11 0 0-.11.062-.242.062 0 0-.277 0-.45-.172 0 0-.167-.172-.167-.469 0 0 0-.3.218-.5 0 0 .211-.203.54-.203 0 0 .378 0 .68.332 0 0 .312.34.312.899 0 0 0 .601-.434 1.12 0 0-.418.52-1.316.821zm10.976-7.3-1.136 3.972-.122.527s-.019.082-.019.13c0 0 0 .093.059.171 0 0 .05.05.109.05 0 0 .082 0 .2-.1 0 0 .241-.169.612-.7l.207.14s-.41.61-.84.93c0 0-.429.32-.788.32 0 0-.25 0-.372-.12 0 0-.128-.13-.128-.38 0 0 0-.28.128-.75l.122-.44s-.758 1-1.418 1.41c0 0-.454.28-.91.28 0 0-.422 0-.731-.35 0 0-.313-.349-.313-.981 0 0 0-.938.563-1.97 0 0 .559-1.03 1.418-1.648 0 0 .672-.492 1.27-.492 0 0 .363 0 .59.192 0 0 .242.187.363.609l.218-.66zm-2.078.3s-.37 0-.789.36c0 0-.601.48-1.07 1.468 0 0-.473.98-.473 1.762 0 0 0 .41.211.64 0 0 .2.22.45.22 0 0 .64 0 1.39-.93 0 0 1-1.25 1-2.579 0 0 0-.492-.188-.71 0 0-.203-.231-.53-.231zm4.531-.3s.297.3.438.609c0 0 .11.21.351 1.101l.508-.77s.203-.28.5-.538c0 0 .301-.262.524-.352 0 0 .136-.05.308-.05 0 0 .25 0 .399.14 0 0 .152.129.152.32 0 0 0 .211-.101.309 0 0-.149.14-.372.14 0 0-.109 0-.25-.05 0 0-.277-.09-.378-.09 0 0-.141 0-.329.152 0 0-.37.32-.87 1.188l.48 2.02s.11.452.187.542c0 0 .082.098.16.098 0 0 .114 0 .282-.14 0 0 .332-.27.55-.708l.2.11s-.36.69-.942 1.14c0 0-.308.27-.547.27 0 0-.32 0-.511-.371 0 0-.13-.22-.52-1.97 0 0-.898 1.59-1.45 2.04 0 0-.358.3-.698.3 0 0-.242 0-.434-.171 0 0-.137-.13-.137-.348 0 0 0-.18.13-.32 0 0 .12-.13.327-.13 0 0 .18 0 .391.188 0 0 .152.141.23.141 0 0 .083 0 .192-.09 0 0 .27-.238.738-.969 0 0 .48-.742.621-1.07 0 0-.36-1.422-.39-1.5 0 0-.13-.39-.352-.543 0 0-.207-.156-.637-.156 0 0-.14 0-.312.02v-.223zm5.938-2.329s.25 0 .41.168c0 0 .172.16.172.41 0 0 0 .25-.172.422 0 0-.18.18-.41.18 0 0-.25 0-.418-.18 0 0-.172-.172-.172-.422 0 0 0-.25.172-.41 0 0 .168-.168.418-.168zm.082 2.328-1.172 4.102s-.11.418-.11.5c0 0 0 .09.051.148 0 0 .06.07.13.07 0 0 .1 0 .21-.097 0 0 .34-.262.68-.75l.21.129s-.41.61-.94 1.027c0 0-.41.313-.77.313 0 0-.23 0-.39-.141 0 0-.15-.14-.15-.36 0 0 0-.218.142-.718l.757-2.621s.192-.66.192-.82c0 0 0-.122-.082-.211 0 0-.09-.079-.258-.079 0 0-.133 0-.531.059v-.219zm4.93 0-.36 1.801h-.222s-.028-.8-.34-1.148c0 0-.297-.352-.758-.352 0 0-.36 0-.57.2 0 0-.211.19-.211.472 0 0 0 .2.082.379 0 0 .078.168.379.48 0 0 .757.84.98 1.27 0 0 .219.418.219.789 0 0 0 .61-.512 1.082 0 0-.508.469-1.27.469 0 0-.417 0-.988-.2 0 0-.18-.07-.289-.07 0 0-.27 0-.39.27h-.22l.36-1.91H242s.031.89.36 1.269c0 0 .34.371.921.371 0 0 .43 0 .7-.25 0 0 .269-.25.269-.601 0 0 0-.239-.102-.442 0 0-.168-.36-.687-.976 0 0-.531-.622-.68-.93 0 0-.14-.313-.14-.621 0 0 0-.57.41-.961 0 0 .41-.39 1.05-.39 0 0 .188 0 .348.019l.38.14s.312.11.401.11c0 0 .27 0 .418-.27zm7.379-1.871 1.94-.937h.188v6.699s0 .68.051.84c0 0 .063.16.242.25 0 0 .18.09.707.101V38h-2.988v-.219s.57-.011.73-.101c0 0 .16-.09.231-.23 0 0 .059-.141.059-.86v-4.281s0-.868-.051-1.11c0 0-.05-.18-.149-.277 0 0-.109-.094-.27-.094 0 0-.222 0-.589.192zm-3 9.172h-2.399V30h2.399v.43h-1.66v9.14h1.66zm9.601-10h2.399v10h-2.399v-.43h1.649v-9.14h-1.649zm6.207 2.828h6.332v.48h-6.332zm0 1.902h6.332v.489h-6.332zm21.043-1.671-.18.613h-.96s.097.308.097.598c0 0 0 .761-.648 1.37 0 0-.668.59-1.809.669 0 0-.633.191-.941.441 0 0-.13.09-.13.191 0 0 0 .118.11.22 0 0 .11.089.531.198l1.137.262s.941.219 1.25.52c0 0 .3.308.3.718 0 0 0 .48-.347.88 0 0-.351.402-1.043.632 0 0-.687.219-1.508.219 0 0-.718 0-1.32-.168 0 0-.61-.172-.86-.473 0 0-.261-.289-.261-.61 0 0 0-.25.172-.519 0 0 .168-.27.418-.449 0 0 .16-.101.89-.531 0 0-.257-.2-.257-.45 0 0 0-.23.226-.5 0 0 .242-.269 1.024-.581 0 0-.66-.118-1.032-.54 0 0-.378-.43-.378-.93 0 0 0-.82.726-1.48 0 0 .723-.66 1.941-.66 0 0 .442 0 .72.09 0 0 .28.082.55.27zm-2.043.921s0-.46-.25-.742c0 0-.258-.27-.68-.27 0 0-.668 0-1.097.66 0 0-.43.673-.43 1.392 0 0 0 .449.27.742 0 0 .27.289.68.289 0 0 .3 0 .59-.18 0 0 .3-.172.5-.46 0 0 .19-.302.308-.763 0 0 .11-.457.11-.668zM282.27 38s-.47.219-.711.55c0 0-.239.34-.239.669 0 0 0 .39.34.64 0 0 .52.371 1.488.371 0 0 .84 0 1.43-.28 0 0 .602-.29.602-.75 0 0 0-.22-.22-.43 0 0-.222-.211-.858-.329 0 0-.34-.07-1.832-.441zm5.218-4.969 2.032-.332-.84 2.852s1.011-1.75 1.86-2.461c0 0 .472-.39.76-.39 0 0 .212 0 .321.109 0 0 .11.113.11.332 0 0 0 .39-.211.73 0 0-.141.27-.399.27 0 0-.133 0-.23-.09 0 0-.102-.082-.121-.27 0 0-.008-.11-.06-.14 0 0-.05-.051-.108-.051 0 0-.09 0-.192.05 0 0-.14.079-.45.45 0 0-.48.582-1.062 1.488 0 0-.25.39-.418.871 0 0-.25.672-.289.82l-.18.731h-.89l1.07-3.64s.188-.63.188-.91c0 0 0-.09-.078-.169 0 0-.121-.09-.313-.09 0 0-.117 0-.449.04zm6.73-2.66s.25 0 .423.168c0 0 .16.16.16.41 0 0 0 .25-.172.422 0 0-.168.18-.41.18 0 0-.25 0-.418-.18 0 0-.172-.172-.172-.422 0 0 0-.25.172-.41 0 0 .168-.168.418-.168zm.083 2.328-1.172 4.102s-.11.418-.11.5c0 0 0 .09.06.148 0 0 .05.07.132.07 0 0 .09 0 .2-.097 0 0 .339-.262.69-.75l.2.129s-.403.61-.942 1.027c0 0-.398.313-.757.313 0 0-.243 0-.391-.141 0 0-.16-.14-.16-.36 0 0 0-.218.14-.718l.77-2.621s.187-.66.187-.82c0 0 0-.122-.09-.211 0 0-.09-.079-.257-.079 0 0-.121 0-.532.059v-.219zm7.07-3.027-2.02 6.906s-.171.563-.171.73c0 0 0 .063.05.122 0 0 .051.05.11.05 0 0 .082 0 .172-.07 0 0 .199-.14.668-.71l.21.128s-.43.582-.859.942c0 0-.43.37-.8.37 0 0-.2 0-.333-.14 0 0-.117-.14-.117-.41 0 0 0-.32.168-.89l.223-.72s-.852 1.32-1.55 1.82c0 0-.474.34-.911.34 0 0-.45 0-.781-.402 0 0-.328-.398-.328-1.066 0 0 0-.871.558-1.871 0 0 .55-.992 1.461-1.61 0 0 .73-.492 1.328-.492 0 0 .313 0 .551.13 0 0 .23.12.45.421l.581-2.031s.059-.219.09-.348c0 0 .078-.23.078-.39 0 0 0-.122-.098-.2 0 0-.12-.11-.312-.11 0 0-.14 0-.438.048V30zm-2.191 4.156s0-.379-.211-.598c0 0-.207-.23-.547-.23 0 0-.742 0-1.531 1.219 0 0-.801 1.222-.801 2.332 0 0 0 .43.191.668 0 0 .18.23.469.23 0 0 .602 0 1.52-1.32 0 0 .91-1.32.91-2.3zm5.25-4.156-2 6.969s-.141.52-.141.64c0 0 0 .078.063.14 0 0 .046.06.128.06 0 0 .11 0 .25-.09 0 0 .301-.25.622-.75l.187.187s-.559.781-1.027 1.094c0 0-.34.219-.66.219 0 0-.211 0-.364-.16 0 0-.148-.153-.148-.34 0 0 0-.22.191-.871l1.57-5.5s.208-.68.208-.77c0 0 0-.14-.118-.23 0 0-.12-.098-.351-.098 0 0-.13 0-.41.047V30zm2.46.7s.25 0 .419.167c0 0 .16.16.16.41 0 0 0 .25-.168.422 0 0-.172.18-.41.18 0 0-.25 0-.422-.18 0 0-.168-.172-.168-.422 0 0 0-.25.168-.41 0 0 .172-.168.422-.168zm.079 2.327-1.168 4.102s-.11.418-.11.5c0 0 0 .09.047.148 0 0 .063.07.14.07 0 0 .09 0 .2-.097 0 0 .344-.262.692-.75l.199.129s-.41.61-.938 1.027c0 0-.402.313-.761.313 0 0-.239 0-.391-.141 0 0-.16-.14-.16-.36 0 0 0-.218.14-.718l.77-2.621s.18-.66.18-.82c0 0 0-.122-.079-.211 0 0-.09-.079-.261-.079 0 0-.13 0-.528.059v-.219zm3.222 0-.78 2.66s1.1-1.629 1.667-2.14c0 0 .582-.52 1.133-.52 0 0 .3 0 .48.192 0 0 .188.187.188.5 0 0 0 .359-.168.937l-.723 2.473s-.11.418-.11.508c0 0 0 .101.052.152 0 0 .05.059.09.059 0 0 .058 0 .171-.079 0 0 .32-.25.68-.75l.18.11s-.54.777-1.032 1.11c0 0-.34.23-.609.23 0 0-.219 0-.34-.13 0 0-.129-.14-.129-.35 0 0 0-.29.188-.97l.691-2.363s.121-.437.121-.687c0 0 0-.11-.07-.192 0 0-.082-.078-.191-.078 0 0-.16 0-.391.149 0 0-.437.261-.91.87 0 0-.469.61-.98 1.551 0 0-.278.5-.458 1.09l-.293.969h-.878l1.058-3.672s.192-.656.192-.797c0 0 0-.12-.098-.222 0 0-.102-.09-.262-.09 0 0-.058 0-.25.011l-.219.04-.03-.211zm4.79 3.102s-.051.277-.051.48c0 0 0 .52.37.88 0 0 .36.37.891.37 0 0 .43 0 .82-.172 0 0 .387-.168 1.15-.77l.128.18s-1.39 1.372-2.66 1.372c0 0-.84 0-1.278-.54 0 0-.44-.542-.44-1.19 0 0 0-.88.538-1.79 0 0 .54-.922 1.352-1.422 0 0 .82-.5 1.68-.5 0 0 .62 0 .917.25 0 0 .293.25.293.602 0 0 0 .48-.37.93 0 0-.52.578-1.5.94 0 0-.66.24-1.84.38zm.03-.301s.868-.09 1.419-.34c0 0 .718-.32 1.082-.77 0 0 .36-.449.36-.84 0 0 0-.25-.161-.41 0 0-.16-.16-.441-.16 0 0-.61 0-1.282.641 0 0-.668.649-.976 1.879zm8.208-2.8-.36 1.8h-.21s-.04-.8-.34-1.148c0 0-.309-.352-.758-.352 0 0-.36 0-.57.2 0 0-.211.19-.211.472 0 0 0 .2.082.379 0 0 .078.168.367.48 0 0 .77.84.992 1.27 0 0 .219.418.219.789 0 0 0 .61-.508 1.082 0 0-.512.469-1.274.469 0 0-.43 0-.988-.2 0 0-.191-.07-.3-.07 0 0-.258 0-.391.27h-.219l.36-1.91h.218s.031.89.371 1.269c0 0 .34.371.91.371 0 0 .442 0 .711-.25 0 0 .258-.25.258-.601 0 0 0-.239-.09-.442 0 0-.168-.36-.699-.976 0 0-.52-.622-.668-.93 0 0-.152-.313-.152-.621 0 0 0-.57.422-.961 0 0 .41-.39 1.05-.39 0 0 .188 0 .348.019 0 0 .07.031.383.14 0 0 .297.11.398.11 0 0 .258 0 .418-.27zm2.859.128h6.332v.48h-6.332zm0 1.902h6.332v.489h-6.332zm16.192-3.902 1.94-.937h.188v6.699s0 .68.051.84c0 0 .063.16.242.25 0 0 .18.09.707.101V38h-2.988v-.219s.57-.011.73-.101c0 0 .16-.09.231-.23 0 0 .059-.141.059-.86v-4.281s0-.868-.051-1.11c0 0-.05-.18-.149-.277 0 0-.109-.094-.27-.094 0 0-.222 0-.589.192zm5.03 3.25s0-1.36.41-2.348c0 0 .411-.98 1.09-1.46 0 0 .528-.38 1.098-.38 0 0 .903 0 1.641.938 0 0 .902 1.14.902 3.121 0 0 0 1.38-.39 2.352 0 0-.403.969-1.02 1.398 0 0-.62.442-1.203.442 0 0-1.137 0-1.887-1.34 0 0-.64-1.13-.64-2.723zm1.141.14s0 1.641.41 2.673c0 0 .34.879 1 .879 0 0 .31 0 .66-.29 0 0 .34-.28.509-.949 0 0 .27-1 .27-2.84 0 0 0-1.363-.278-2.27 0 0-.211-.671-.551-.952 0 0-.23-.188-.582-.188 0 0-.39 0-.7.36 0 0-.417.48-.577 1.52 0 0-.16 1.038-.16 2.058zM353.512 40v-.27s.61-.18.93-.609c0 0 .328-.422.328-.89 0 0 0-.11-.04-.18 0 0-.05-.051-.082-.051 0 0-.07 0-.277.11 0 0-.11.062-.242.062 0 0-.277 0-.45-.172 0 0-.167-.172-.167-.469 0 0 0-.3.218-.5 0 0 .211-.203.54-.203 0 0 .378 0 .68.332 0 0 .312.34.312.899 0 0 0 .601-.434 1.12 0 0-.418.52-1.316.821zm10-3.281s-.614.73-1.242 1.082c0 0-.622.34-1.31.34 0 0-.831 0-1.3-.47 0 0-.469-.472-.469-1.26 0 0 0-.891.5-1.763 0 0 .5-.867 1.36-1.41 0 0 .847-.539 1.66-.539 0 0 .64 0 .95.27 0 0 .32.261.32.64 0 0 0 .371-.22.621 0 0-.183.211-.41.211 0 0-.19 0-.3-.12 0 0-.121-.122-.121-.29 0 0 0-.11.05-.203 0 0 .04-.098.18-.226 0 0 .13-.133.16-.192 0 0 .032-.07.032-.129 0 0 0-.12-.114-.203 0 0-.168-.129-.476-.129 0 0-.582 0-1.14.41 0 0-.571.41-.962 1.16 0 0-.48.903-.48 1.79 0 0 0 .613.34.96 0 0 .351.34.921.34 0 0 .457 0 .899-.23 0 0 .449-.219.988-.82zm6.226-2.188s0 .88-.457 1.739c0 0-.46.851-1.3 1.359 0 0-.833.512-1.622.512 0 0-.808 0-1.308-.52 0 0-.5-.512-.5-1.32 0 0 0-.86.488-1.73 0 0 .5-.872 1.32-1.372 0 0 .832-.5 1.61-.5 0 0 .77 0 1.27.512 0 0 .5.508.5 1.32zm-.968-.41s0-.543-.27-.832c0 0-.262-.289-.68-.289 0 0-.86 0-1.59 1.23 0 0-.73 1.239-.73 2.461 0 0 0 .559.29.86 0 0 .28.289.698.289 0 0 .832 0 1.551-1.219 0 0 .73-1.23.73-2.5zm4.98-4.45-2 6.97s-.14.52-.14.64c0 0 0 .078.062.14 0 0 .047.06.129.06 0 0 .11 0 .25-.09 0 0 .3-.25.629-.75l.18.187s-.56.781-1.032 1.094c0 0-.34.219-.648.219 0 0-.22 0-.371-.16 0 0-.149-.153-.149-.34 0 0 0-.22.192-.871l1.578-5.5s.199-.68.199-.77c0 0 0-.14-.117-.23 0 0-.114-.098-.352-.098 0 0-.12 0-.41.047V30zm5.32 4.86s0 .88-.46 1.739c0 0-.462.851-1.29 1.359 0 0-.84.512-1.62.512 0 0-.81 0-1.31-.52 0 0-.5-.512-.5-1.32 0 0 0-.86.489-1.73 0 0 .492-.872 1.32-1.372 0 0 .832-.5 1.61-.5 0 0 .761 0 1.261.512 0 0 .5.508.5 1.32zm-.968-.41s0-.543-.262-.832c0 0-.27-.289-.692-.289 0 0-.859 0-1.578 1.23 0 0-.73 1.239-.73 2.461 0 0 0 .559.281.86 0 0 .277.289.7.289 0 0 .827 0 1.558-1.219 0 0 .723-1.23.723-2.5zm2.046-1.09 2.032-.332-.84 2.852s1.012-1.75 1.86-2.461c0 0 .472-.39.76-.39 0 0 .212 0 .321.109 0 0 .11.113.11.332 0 0 0 .39-.211.73 0 0-.14.27-.399.27 0 0-.133 0-.23-.09 0 0-.102-.082-.121-.27 0 0-.008-.11-.059-.14 0 0-.05-.051-.11-.051 0 0-.09 0-.19.05 0 0-.141.079-.45.45 0 0-.48.582-1.062 1.488 0 0-.25.39-.418.871 0 0-.25.672-.29.82l-.18.731h-.89l1.07-3.64s.188-.63.188-.91c0 0 0-.09-.078-.169 0 0-.121-.09-.313-.09 0 0-.117 0-.449.04zm6.93-.203h6.332v.48h-6.332zm0 1.902h6.332v.489h-6.332zm15.043-1.671-.18.613h-.96s.097.308.097.598c0 0 0 .761-.648 1.37 0 0-.668.59-1.809.669 0 0-.633.191-.941.441 0 0-.13.09-.13.191 0 0 0 .118.11.22 0 0 .11.089.531.198l1.137.262s.941.219 1.25.52c0 0 .3.308.3.718 0 0 0 .48-.347.88 0 0-.351.402-1.043.632 0 0-.687.219-1.508.219 0 0-.718 0-1.32-.168 0 0-.61-.172-.86-.473 0 0-.261-.289-.261-.61 0 0 0-.25.172-.519 0 0 .168-.27.418-.449 0 0 .16-.101.89-.531 0 0-.257-.2-.257-.45 0 0 0-.23.226-.5 0 0 .242-.269 1.024-.581 0 0-.66-.118-1.032-.54 0 0-.378-.43-.378-.93 0 0 0-.82.726-1.48 0 0 .723-.66 1.941-.66 0 0 .442 0 .72.09 0 0 .28.082.55.27zm-2.043.921s0-.46-.25-.742c0 0-.258-.27-.68-.27 0 0-.668 0-1.097.66 0 0-.43.673-.43 1.392 0 0 0 .449.27.742 0 0 .27.289.68.289 0 0 .3 0 .59-.18 0 0 .3-.172.5-.46 0 0 .19-.302.308-.763 0 0 .11-.457.11-.668zM397.27 38s-.47.219-.711.55c0 0-.239.34-.239.669 0 0 0 .39.34.64 0 0 .52.371 1.488.371 0 0 .84 0 1.43-.28 0 0 .602-.29.602-.75 0 0 0-.22-.22-.43 0 0-.222-.211-.858-.329 0 0-.34-.07-1.832-.441zm5.218-4.969 2.032-.332-.84 2.852s1.011-1.75 1.86-2.461c0 0 .472-.39.76-.39 0 0 .212 0 .321.109 0 0 .11.113.11.332 0 0 0 .39-.211.73 0 0-.141.27-.399.27 0 0-.133 0-.23-.09 0 0-.102-.082-.121-.27 0 0-.008-.11-.06-.14 0 0-.05-.051-.108-.051 0 0-.09 0-.192.05 0 0-.14.079-.45.45 0 0-.48.582-1.062 1.488 0 0-.25.39-.418.871 0 0-.25.672-.289.82l-.18.731h-.89l1.07-3.64s.188-.63.188-.91c0 0 0-.09-.078-.169 0 0-.121-.09-.313-.09 0 0-.117 0-.449.04zm9.672-.332-1.14 3.973-.122.527s-.02.082-.02.13c0 0 0 .093.063.171 0 0 .047.05.11.05 0 0 .078 0 .199-.1 0 0 .238-.169.61-.7l.21.14s-.41.61-.84.93c0 0-.43.32-.789.32 0 0-.25 0-.37-.12 0 0-.13-.13-.13-.38 0 0 0-.28.13-.75l.12-.44s-.761 1-1.421 1.41c0 0-.45.28-.91.28 0 0-.419 0-.731-.35 0 0-.309-.349-.309-.981 0 0 0-.938.559-1.97 0 0 .562-1.03 1.422-1.648 0 0 .668-.492 1.27-.492 0 0 .359 0 .59.192 0 0 .237.187.359.609l.218-.66zm-2.082.301s-.367 0-.789.36c0 0-.598.48-1.07 1.468 0 0-.469.98-.469 1.762 0 0 0 .41.21.64 0 0 .2.22.45.22 0 0 .64 0 1.39-.93 0 0 1-1.25 1-2.579 0 0 0-.492-.19-.71 0 0-.2-.231-.532-.231zm4.383-.3s.187.331.258.628c0 0 .082.293.16 1.172l.27 2.871s.34-.422 1.011-1.32c0 0 .309-.461.8-1.223 0 0 .278-.469.34-.656 0 0 .052-.094.052-.192 0 0 0-.058-.051-.109 0 0-.051-.043-.223-.101 0 0-.168-.051-.277-.2 0 0-.11-.148-.11-.34 0 0 0-.25.137-.39 0 0 .14-.14.352-.14 0 0 .261 0 .441.21 0 0 .18.211.18.59 0 0 0 .469-.32 1.059 0 0-.32.601-1.22 1.82 0 0-.902 1.23-2.183 2.68 0 0-.887 1-1.316 1.27 0 0-.434.26-.723.26 0 0-.187 0-.328-.14 0 0-.14-.14-.14-.308 0 0 0-.23.19-.422 0 0 .2-.188.419-.188 0 0 .12 0 .18.047 0 0 .05.031.109.172 0 0 .07.14.11.191 0 0 .03.028.07.028 0 0 .03 0 .12-.059 0 0 .333-.21.75-.64 0 0 .56-.57.833-.942l-.332-3.707s-.079-.922-.239-1.121c0 0-.172-.2-.562-.2 0 0-.117 0-.43.028l-.05-.207zM339.27 40h-2.399V30h2.399v.43h-1.66v9.14h1.66zm79.601-10h2.399v10h-2.399v-.43h1.649v-9.14h-1.649zM279.27 40h-2.399V30h2.399v.43h-1.66v9.14h1.66zm144.601-10h2.399v10h-2.399v-.43h1.649v-9.14h-1.649zm3.641 10v-.27s.61-.18.93-.609c0 0 .328-.422.328-.89 0 0 0-.11-.04-.18 0 0-.05-.051-.082-.051 0 0-.07 0-.277.11 0 0-.11.062-.242.062 0 0-.277 0-.45-.172 0 0-.167-.172-.167-.469 0 0 0-.3.218-.5 0 0 .211-.203.54-.203 0 0 .378 0 .68.332 0 0 .312.34.312.899 0 0 0 .601-.434 1.12 0 0-.418.52-1.316.821zm10.976-7.3-1.136 3.972-.122.527s-.019.082-.019.13c0 0 0 .093.059.171 0 0 .05.05.109.05 0 0 .082 0 .2-.1 0 0 .241-.169.612-.7l.207.14s-.41.61-.84.93c0 0-.43.32-.788.32 0 0-.25 0-.372-.12 0 0-.128-.13-.128-.38 0 0 0-.28.128-.75l.122-.44s-.758 1-1.418 1.41c0 0-.454.28-.91.28 0 0-.422 0-.731-.35 0 0-.313-.349-.313-.981 0 0 0-.938.563-1.97 0 0 .559-1.03 1.418-1.648 0 0 .672-.492 1.27-.492 0 0 .363 0 .59.192 0 0 .242.187.363.609l.218-.66zm-2.078.3s-.37 0-.789.36c0 0-.601.48-1.07 1.468 0 0-.473.98-.473 1.762 0 0 0 .41.211.64 0 0 .2.22.45.22 0 0 .64 0 1.39-.93 0 0 1-1.25 1-2.579 0 0 0-.492-.188-.71 0 0-.203-.231-.53-.231zm4.531-.3s.297.3.438.609c0 0 .11.21.351 1.101l.508-.77s.203-.28.5-.538c0 0 .301-.262.524-.352 0 0 .136-.05.308-.05 0 0 .25 0 .399.14 0 0 .152.129.152.32 0 0 0 .211-.101.309 0 0-.149.14-.372.14 0 0-.109 0-.25-.05 0 0-.277-.09-.378-.09 0 0-.141 0-.329.152 0 0-.37.32-.87 1.188l.48 2.02s.11.452.187.542c0 0 .082.098.16.098 0 0 .114 0 .282-.14 0 0 .332-.27.55-.708l.2.11s-.36.69-.942 1.14c0 0-.308.27-.547.27 0 0-.32 0-.511-.371 0 0-.13-.22-.52-1.97 0 0-.898 1.59-1.45 2.04 0 0-.358.3-.698.3 0 0-.242 0-.434-.171 0 0-.137-.13-.137-.348 0 0 0-.18.13-.32 0 0 .12-.13.327-.13 0 0 .18 0 .391.188 0 0 .152.141.23.141 0 0 .083 0 .192-.09 0 0 .27-.238.738-.969 0 0 .48-.742.621-1.07 0 0-.36-1.422-.39-1.5 0 0-.13-.39-.352-.543 0 0-.207-.156-.637-.156 0 0-.14 0-.312.02v-.223zm5.938-2.329s.25 0 .41.168c0 0 .172.16.172.41 0 0 0 .25-.172.422 0 0-.18.18-.41.18 0 0-.25 0-.418-.18 0 0-.172-.172-.172-.422 0 0 0-.25.172-.41 0 0 .168-.168.418-.168zm.082 2.328-1.172 4.102s-.11.418-.11.5c0 0 0 .09.051.148 0 0 .06.07.13.07 0 0 .1 0 .21-.097 0 0 .34-.262.68-.75l.21.129s-.41.61-.94 1.027c0 0-.41.313-.77.313 0 0-.23 0-.39-.141 0 0-.15-.14-.15-.36 0 0 0-.218.142-.718l.757-2.621s.192-.66.192-.82c0 0 0-.122-.082-.211 0 0-.09-.079-.258-.079 0 0-.133 0-.531.059v-.219zm4.93 0-.36 1.801h-.222s-.028-.8-.34-1.148c0 0-.297-.352-.758-.352 0 0-.36 0-.57.2 0 0-.211.19-.211.472 0 0 0 .2.082.379 0 0 .078.168.379.48 0 0 .757.84.98 1.27 0 0 .219.418.219.789 0 0 0 .61-.512 1.082 0 0-.508.469-1.27.469 0 0-.417 0-.988-.2 0 0-.18-.07-.289-.07 0 0-.27 0-.39.27h-.22l.36-1.91H448s.031.89.36 1.269c0 0 .34.371.921.371 0 0 .43 0 .7-.25 0 0 .269-.25.269-.601 0 0 0-.239-.102-.442 0 0-.168-.36-.687-.976 0 0-.531-.622-.68-.93 0 0-.14-.313-.14-.621 0 0 0-.57.41-.961 0 0 .41-.39 1.05-.39 0 0 .188 0 .348.019l.38.14s.312.11.401.11c0 0 .27 0 .418-.27zm11.48 3.77-.55 1.531h-4.692v-.219s2.062-1.89 2.91-3.082c0 0 .84-1.199.84-2.18 0 0 0-.75-.457-1.25 0 0-.461-.488-1.121-.488 0 0-.57 0-1.04.34 0 0-.472.348-.69 1.02h-.22s.16-1.09.758-1.672c0 0 .602-.578 1.512-.578 0 0 .957 0 1.61.62 0 0 .648.61.648 1.458 0 0 0 .61-.277 1.222 0 0-.442.93-1.41 2 0 0-1.454 1.59-1.82 1.918h2.07s.636 0 .886-.05c0 0 .25-.04.473-.188 0 0 .21-.14.347-.402zM456.27 40h-2.399V30h2.399v.43h-1.66v9.14h1.66zm9.601-10h2.399v10h-2.399v-.43h1.649v-9.14h-1.649zM98.078 39.738l-.156.262s-2.05-1.281-2.05-5.102v.204s0-3.84 2.05-5.102l.156.238s-.906.782-1.219 2.192c0 0-.187.87-.187 2.468v.204s0 1.578.187 2.457c0 0 .313 1.41 1.22 2.18zm1 6.09h6.332v.48h-6.332zm0 1.902h6.332v.489h-6.332zm21.043-1.671-.18.613h-.96s.097.308.097.598c0 0 0 .761-.648 1.37 0 0-.668.59-1.809.669 0 0-.633.191-.941.441 0 0-.13.09-.13.191 0 0 0 .118.11.22 0 0 .11.089.531.198l1.137.262s.942.219 1.25.52c0 0 .3.308.3.718.001 0 .001.48-.347.88 0 0-.351.402-1.043.632 0 0-.687.219-1.507.219 0 0-.72 0-1.32-.168 0 0-.61-.172-.86-.473 0 0-.262-.289-.262-.61 0 0 0-.25.172-.519 0 0 .168-.27.418-.449 0 0 .16-.101.89-.531 0 0-.257-.2-.257-.45 0 0 0-.23.226-.5 0 0 .243-.269 1.024-.581 0 0-.66-.118-1.031-.54 0 0-.38-.43-.38-.93 0 0 0-.82.727-1.48 0 0 .723-.66 1.942-.66 0 0 .441 0 .718.09 0 0 .282.082.551.27zm-2.043.921s0-.46-.25-.742c0 0-.258-.27-.68-.27 0 0-.668 0-1.097.66 0 0-.43.673-.43 1.392 0 0 0 .449.27.742 0 0 .27.289.68.289 0 0 .3 0 .59-.18 0 0 .3-.172.5-.46 0 0 .19-.302.308-.763 0 0 .11-.457.11-.668zM115.27 51s-.47.219-.711.55c0 0-.239.34-.239.669 0 0 0 .39.34.64 0 0 .52.371 1.488.371 0 0 .84 0 1.43-.28 0 0 .602-.29.602-.75 0 0 0-.22-.22-.43 0 0-.222-.211-.858-.329 0 0-.34-.07-1.832-.441zm5.218-4.969 2.032-.332-.84 2.852s1.011-1.75 1.86-2.461c0 0 .472-.39.76-.39 0 0 .212 0 .321.109 0 0 .11.113.11.332 0 0 0 .39-.211.73 0 0-.141.27-.399.27 0 0-.133 0-.23-.09 0 0-.102-.082-.121-.27 0 0-.008-.11-.06-.14 0 0-.05-.051-.108-.051 0 0-.09 0-.192.05 0 0-.14.079-.45.45 0 0-.48.582-1.062 1.488 0 0-.25.39-.418.871 0 0-.25.672-.289.82l-.18.731h-.89l1.07-3.64s.188-.63.188-.91c0 0 0-.09-.078-.169 0 0-.121-.09-.313-.09 0 0-.117 0-.449.04zm6.73-2.66s.25 0 .423.168c0 0 .16.16.16.41 0 0 0 .25-.172.422 0 0-.168.18-.41.18 0 0-.25 0-.418-.18 0 0-.172-.172-.172-.422 0 0 0-.25.172-.41 0 0 .168-.168.418-.168zm.083 2.328-1.172 4.102s-.11.418-.11.5c0 0 0 .09.06.148 0 0 .05.07.132.07 0 0 .09 0 .2-.097 0 0 .339-.262.69-.75l.2.129s-.403.61-.942 1.027c0 0-.398.313-.757.313 0 0-.243 0-.391-.141 0 0-.16-.14-.16-.36 0 0 0-.218.14-.718l.77-2.621s.187-.66.187-.82c0 0 0-.122-.09-.211 0 0-.09-.079-.257-.079 0 0-.121 0-.531.059v-.219zm7.07-3.027-2.02 6.906s-.171.563-.171.73c0 0 0 .063.05.122 0 0 .051.05.11.05 0 0 .082 0 .172-.07 0 0 .199-.14.668-.71l.21.128s-.43.582-.859.942c0 0-.43.37-.8.37 0 0-.2 0-.333-.14 0 0-.117-.14-.117-.41 0 0 0-.32.168-.89l.223-.72s-.852 1.32-1.55 1.82c0 0-.474.34-.911.34 0 0-.45 0-.781-.402 0 0-.328-.398-.328-1.066 0 0 0-.871.558-1.871 0 0 .55-.992 1.461-1.61 0 0 .73-.492 1.328-.492 0 0 .313 0 .551.13 0 0 .23.12.45.421l.581-2.031s.059-.219.09-.348c0 0 .078-.23.078-.39 0 0 0-.122-.098-.2 0 0-.12-.11-.312-.11 0 0-.14 0-.438.048V43zm-2.191 4.156s0-.379-.211-.598c0 0-.207-.23-.547-.23 0 0-.742 0-1.531 1.219 0 0-.801 1.222-.801 2.332 0 0 0 .43.191.668 0 0 .18.23.469.23 0 0 .602 0 1.52-1.32 0 0 .91-1.32.91-2.3zm5.25-4.156-2 6.969s-.141.52-.141.64c0 0 0 .078.063.14 0 0 .046.06.128.06 0 0 .11 0 .25-.09 0 0 .301-.25.622-.75l.187.187s-.559.781-1.027 1.094c0 0-.34.219-.66.219 0 0-.211 0-.364-.16 0 0-.148-.153-.148-.34 0 0 0-.22.191-.871l1.57-5.5s.208-.68.208-.77c0 0 0-.14-.118-.23 0 0-.12-.098-.351-.098 0 0-.13 0-.41.047V43zm2.46.7s.25 0 .419.167c0 0 .16.16.16.41 0 0 0 .25-.168.422 0 0-.172.18-.41.18 0 0-.25 0-.422-.18 0 0-.168-.172-.168-.422 0 0 0-.25.168-.41 0 0 .172-.168.422-.168zm.079 2.327-1.168 4.102s-.11.418-.11.5c0 0 0 .09.047.148 0 0 .063.07.14.07 0 0 .09 0 .2-.097 0 0 .344-.262.691-.75l.2.129s-.41.61-.938 1.027c0 0-.402.313-.762.313 0 0-.238 0-.39-.141 0 0-.16-.14-.16-.36 0 0 0-.218.14-.718l.77-2.621s.18-.66.18-.82c0 0 0-.122-.079-.211 0 0-.09-.079-.261-.079 0 0-.13 0-.528.059v-.219zm3.222 0-.78 2.66s1.1-1.629 1.667-2.14c0 0 .582-.52 1.133-.52 0 0 .3 0 .48.192 0 0 .188.187.188.5 0 0 0 .359-.168.937l-.723 2.473s-.11.418-.11.508c0 0 0 .101.052.152 0 0 .05.059.09.059 0 0 .058 0 .171-.079 0 0 .32-.25.68-.75l.18.11s-.54.777-1.032 1.11c0 0-.34.23-.609.23 0 0-.219 0-.34-.13 0 0-.129-.14-.129-.35 0 0 0-.29.188-.97l.691-2.363s.121-.437.121-.687c0 0 0-.11-.07-.192 0 0-.082-.078-.191-.078 0 0-.16 0-.391.149 0 0-.438.261-.91.87 0 0-.469.61-.98 1.551 0 0-.278.5-.458 1.09l-.293.969h-.878l1.058-3.672s.192-.656.192-.797c0 0 0-.12-.098-.222 0 0-.102-.09-.262-.09 0 0-.058 0-.25.011l-.219.04-.03-.211zm4.79 3.102s-.051.277-.051.48c0 0 0 .52.37.88 0 0 .36.37.891.37 0 0 .43 0 .82-.172 0 0 .387-.168 1.15-.77l.128.18s-1.39 1.372-2.66 1.372c0 0-.84 0-1.278-.54 0 0-.44-.542-.44-1.19 0 0 0-.88.538-1.79 0 0 .54-.922 1.352-1.422 0 0 .82-.5 1.68-.5 0 0 .62 0 .917.25 0 0 .293.25.293.602 0 0 0 .48-.37.93 0 0-.52.578-1.5.94 0 0-.66.24-1.84.38zm.03-.301s.868-.09 1.419-.34c0 0 .718-.32 1.082-.77 0 0 .36-.449.36-.84 0 0 0-.25-.161-.41 0 0-.16-.16-.441-.16 0 0-.61 0-1.282.641 0 0-.668.649-.976 1.879zm8.208-2.8-.36 1.8h-.21s-.04-.8-.34-1.148c0 0-.309-.352-.758-.352 0 0-.36 0-.57.2 0 0-.211.19-.211.472 0 0 0 .2.082.379 0 0 .078.168.367.48 0 0 .77.84.992 1.27 0 0 .219.418.219.789 0 0 0 .61-.508 1.082 0 0-.512.469-1.274.469 0 0-.43 0-.988-.2 0 0-.191-.07-.3-.07 0 0-.258 0-.391.27h-.219l.36-1.91h.218s.031.89.371 1.269c0 0 .34.371.91.371 0 0 .442 0 .711-.25 0 0 .258-.25.258-.601 0 0 0-.239-.09-.442 0 0-.168-.36-.699-.976 0 0-.52-.622-.668-.93 0 0-.152-.313-.152-.621 0 0 0-.57.422-.961 0 0 .41-.39 1.05-.39 0 0 .188 0 .348.019 0 0 .07.031.383.14 0 0 .297.11.398.11 0 0 .258 0 .418-.27zm2.859.128h6.332v.48h-6.332zm0 1.902h6.332v.489h-6.332zm20.16-4.84v.22s-.758.081-1.258.3c0 0-.492.23-.968.711 0 0-.473.469-.782 1.059 0 0-.32.59-.539 1.379 0 0 .848-.579 1.707-.579 0 0 .813 0 1.403.66 0 0 .597.66.597 1.688 0 0 0 1-.597 1.813 0 0-.73 1-1.922 1 0 0-.809 0-1.39-.551 0 0-1.11-1.04-1.11-2.719 0 0 0-1.062.43-2.02 0 0 .43-.96 1.222-1.703 0 0 .79-.738 1.52-1 0 0 .719-.257 1.36-.257zm-3.636 4.09s-.114.801-.114 1.29c0 0 0 .558.211 1.218 0 0 .211.672.621 1.043 0 0 .301.278.73.278 0 0 .5 0 .91-.48 0 0 .411-.49.411-1.38 0 0 0-1-.402-1.719 0 0-.399-.73-1.14-.73 0 0-.208 0-.47.09 0 0-.257.101-.757.39zm4.91 6.02v-.27s.61-.18.93-.609c0 0 .328-.422.328-.89 0 0 0-.11-.04-.18 0 0-.05-.051-.082-.051 0 0-.07 0-.277.11 0 0-.11.062-.242.062 0 0-.277 0-.45-.172 0 0-.167-.172-.167-.469 0 0 0-.3.218-.5 0 0 .211-.203.54-.203 0 0 .378 0 .68.332 0 0 .312.34.312.899 0 0 0 .601-.434 1.12 0 0-.418.52-1.316.821zm10-3.281s-.614.73-1.242 1.082c0 0-.622.34-1.31.34 0 0-.831 0-1.3-.47 0 0-.469-.472-.469-1.26 0 0 0-.891.5-1.763 0 0 .5-.867 1.36-1.41 0 0 .847-.539 1.66-.539 0 0 .64 0 .95.27 0 0 .32.261.32.64 0 0 0 .371-.22.621 0 0-.183.211-.41.211 0 0-.19 0-.3-.12 0 0-.121-.122-.121-.29 0 0 0-.11.05-.203 0 0 .04-.098.18-.226 0 0 .13-.133.16-.192 0 0 .032-.07.032-.129 0 0 0-.12-.114-.203 0 0-.168-.129-.476-.129 0 0-.582 0-1.14.41 0 0-.571.41-.962 1.16 0 0-.48.903-.48 1.79 0 0 0 .613.34.96 0 0 .351.34.921.34 0 0 .457 0 .899-.23 0 0 .449-.219.988-.82zm6.226-2.188s0 .88-.457 1.739c0 0-.46.851-1.3 1.359 0 0-.833.512-1.622.512 0 0-.808 0-1.308-.52 0 0-.5-.512-.5-1.32 0 0 0-.86.488-1.73 0 0 .5-.872 1.32-1.372 0 0 .832-.5 1.61-.5 0 0 .77 0 1.27.512 0 0 .5.508.5 1.32zm-.968-.41s0-.543-.27-.832c0 0-.262-.289-.68-.289 0 0-.86 0-1.59 1.23 0 0-.73 1.239-.73 2.461 0 0 0 .559.29.86 0 0 .28.289.698.289 0 0 .832 0 1.551-1.219 0 0 .73-1.23.73-2.5zm4.98-4.45-2 6.97s-.14.52-.14.64c0 0 0 .078.062.14 0 0 .047.06.129.06 0 0 .11 0 .25-.09 0 0 .3-.25.629-.75l.18.187s-.56.781-1.032 1.094c0 0-.34.219-.648.219 0 0-.22 0-.371-.16 0 0-.149-.153-.149-.34 0 0 0-.22.192-.871l1.578-5.5s.199-.68.199-.77c0 0 0-.14-.117-.23 0 0-.114-.098-.352-.098 0 0-.12 0-.41.047V43zm5.32 4.86s0 .88-.46 1.739c0 0-.462.851-1.29 1.359 0 0-.84.512-1.62.512 0 0-.81 0-1.31-.52 0 0-.5-.512-.5-1.32 0 0 0-.86.489-1.73 0 0 .492-.872 1.32-1.372 0 0 .832-.5 1.61-.5 0 0 .761 0 1.261.512 0 0 .5.508.5 1.32zm-.968-.41s0-.543-.262-.832c0 0-.27-.289-.692-.289 0 0-.859 0-1.578 1.23 0 0-.73 1.239-.73 2.461 0 0 0 .559.281.86 0 0 .277.289.7.289 0 0 .827 0 1.558-1.219 0 0 .723-1.23.723-2.5zm2.046-1.09 2.032-.332-.84 2.852s1.012-1.75 1.86-2.461c0 0 .472-.39.76-.39 0 0 .212 0 .321.109 0 0 .11.113.11.332 0 0 0 .39-.211.73 0 0-.14.27-.399.27 0 0-.133 0-.23-.09 0 0-.102-.082-.121-.27 0 0-.008-.11-.059-.14 0 0-.05-.051-.11-.051 0 0-.09 0-.19.05 0 0-.141.079-.45.45 0 0-.48.582-1.062 1.488 0 0-.25.39-.418.871 0 0-.25.672-.29.82l-.18.731h-.89l1.07-3.64s.188-.63.188-.91c0 0 0-.09-.078-.169 0 0-.121-.09-.313-.09 0 0-.117 0-.449.04zm6.93-.203h6.332v.48h-6.332zm0 1.902h6.332v.489h-6.332zm15.043-1.671-.18.613h-.96s.097.308.097.598c0 0 0 .761-.648 1.37 0 0-.668.59-1.809.669 0 0-.633.191-.941.441 0 0-.13.09-.13.191 0 0 0 .118.11.22 0 0 .11.089.531.198l1.137.262s.942.219 1.25.52c0 0 .301.308.301.718 0 0 0 .48-.348.88 0 0-.351.402-1.043.632 0 0-.687.219-1.507.219 0 0-.72 0-1.32-.168 0 0-.61-.172-.86-.473 0 0-.262-.289-.262-.61 0 0 0-.25.172-.519 0 0 .168-.27.418-.449 0 0 .16-.101.89-.531 0 0-.257-.2-.257-.45 0 0 0-.23.226-.5 0 0 .243-.269 1.024-.581 0 0-.66-.118-1.031-.54 0 0-.38-.43-.38-.93 0 0 0-.82.727-1.48 0 0 .723-.66 1.942-.66 0 0 .441 0 .718.09 0 0 .282.082.551.27zm-2.043.921s0-.46-.25-.742c0 0-.258-.27-.68-.27 0 0-.668 0-1.097.66 0 0-.43.673-.43 1.392 0 0 0 .449.27.742 0 0 .27.289.68.289 0 0 .3 0 .59-.18 0 0 .3-.172.5-.46 0 0 .19-.302.308-.763 0 0 .11-.457.11-.668zM224.27 51s-.47.219-.711.55c0 0-.239.34-.239.669 0 0 0 .39.34.64 0 0 .52.371 1.488.371 0 0 .84 0 1.43-.28 0 0 .602-.29.602-.75 0 0 0-.22-.22-.43 0 0-.222-.211-.858-.329 0 0-.34-.07-1.832-.441zm5.218-4.969 2.032-.332-.84 2.852s1.011-1.75 1.86-2.461c0 0 .472-.39.76-.39 0 0 .212 0 .321.109 0 0 .11.113.11.332 0 0 0 .39-.211.73 0 0-.141.27-.399.27 0 0-.133 0-.23-.09 0 0-.102-.082-.121-.27 0 0-.008-.11-.06-.14 0 0-.05-.051-.108-.051 0 0-.09 0-.192.05 0 0-.14.079-.45.45 0 0-.48.582-1.062 1.488 0 0-.25.39-.418.871 0 0-.25.672-.289.82l-.18.731h-.89l1.07-3.64s.188-.63.188-.91c0 0 0-.09-.078-.169 0 0-.121-.09-.313-.09 0 0-.117 0-.449.04zm9.672-.332-1.14 3.973-.122.527s-.02.082-.02.13c0 0 0 .093.063.171 0 0 .047.05.11.05 0 0 .078 0 .199-.1 0 0 .238-.169.61-.7l.21.14s-.41.61-.84.93c0 0-.43.32-.789.32 0 0-.25 0-.37-.12 0 0-.13-.13-.13-.38 0 0 0-.28.13-.75l.12-.44s-.761 1-1.421 1.41c0 0-.45.28-.91.28 0 0-.419 0-.731-.35 0 0-.309-.349-.309-.981 0 0 0-.938.559-1.97 0 0 .562-1.03 1.422-1.648 0 0 .668-.492 1.27-.492 0 0 .359 0 .59.192 0 0 .237.187.359.609l.218-.66zm-2.082.301s-.367 0-.789.36c0 0-.598.48-1.07 1.468 0 0-.469.98-.469 1.762 0 0 0 .41.21.64 0 0 .2.22.45.22 0 0 .64 0 1.39-.93 0 0 1-1.25 1-2.579 0 0 0-.492-.19-.71 0 0-.2-.231-.532-.231zm4.383-.3s.187.331.258.628c0 0 .082.293.16 1.172l.27 2.871s.34-.422 1.011-1.32c0 0 .309-.461.8-1.223 0 0 .278-.469.34-.656 0 0 .052-.094.052-.192 0 0 0-.058-.051-.109 0 0-.051-.043-.223-.101 0 0-.168-.051-.277-.2 0 0-.11-.148-.11-.34 0 0 0-.25.137-.39 0 0 .14-.14.352-.14 0 0 .261 0 .441.21 0 0 .18.211.18.59 0 0 0 .469-.32 1.059 0 0-.32.601-1.22 1.82 0 0-.902 1.23-2.183 2.68 0 0-.887 1-1.316 1.27 0 0-.434.26-.723.26 0 0-.187 0-.328-.14 0 0-.14-.14-.14-.308 0 0 0-.23.19-.422 0 0 .2-.188.419-.188 0 0 .12 0 .18.047 0 0 .05.031.109.172 0 0 .07.14.11.191 0 0 .03.028.07.028 0 0 .03 0 .12-.059 0 0 .333-.21.75-.64 0 0 .56-.57.833-.942l-.332-3.707s-.079-.922-.239-1.121c0 0-.172-.2-.562-.2 0 0-.117 0-.43.028l-.05-.207zM172.27 53h-2.399V43h2.399v.43h-1.66v9.14h1.66zm73.601-10h2.399v10h-2.399v-.43h1.649v-9.14h-1.649zM112.27 53h-2.399V43h2.399v.43h-1.66v9.14h1.66zm138.601-10h2.399v10h-2.399v-.43h1.649v-9.14h-1.649zm3.641 10v-.27s.61-.18.93-.609c0 0 .328-.422.328-.89 0 0 0-.11-.04-.18 0 0-.05-.051-.082-.051 0 0-.07 0-.277.11 0 0-.11.062-.242.062 0 0-.277 0-.45-.172 0 0-.167-.172-.167-.469 0 0 0-.3.218-.5 0 0 .211-.203.54-.203 0 0 .378 0 .68.332 0 0 .312.34.312.899 0 0 0 .601-.434 1.12 0 0-.418.52-1.316.821zm9.718-7.3-.359 1.8h-.223s-.027-.8-.34-1.148c0 0-.296-.352-.757-.352 0 0-.36 0-.57.2 0 0-.211.19-.211.472 0 0 0 .2.082.379 0 0 .078.168.378.48 0 0 .758.84.98 1.27 0 0 .22.418.22.789 0 0 0 .61-.508 1.082 0 0-.512.469-1.274.469 0 0-.418 0-.988-.2 0 0-.18-.07-.289-.07 0 0-.27 0-.39.27h-.22l.36-1.91h.207s.043.89.371 1.269c0 0 .34.371.922.371 0 0 .43 0 .7-.25 0 0 .257-.25.257-.601 0 0 0-.239-.09-.442 0 0-.168-.36-.687-.976 0 0-.531-.622-.68-.93 0 0-.14-.313-.14-.621 0 0 0-.57.41-.961 0 0 .41-.39 1.05-.39 0 0 .188 0 .348.019l.383.14s.308.11.398.11c0 0 .258 0 .418-.27zm4.95 4.019s-.61.73-1.239 1.082c0 0-.62.34-1.312.34 0 0-.828 0-1.3-.47 0 0-.47-.472-.47-1.26 0 0 0-.891.5-1.763 0 0 .5-.867 1.36-1.41 0 0 .851-.539 1.66-.539 0 0 .64 0 .95.27 0 0 .32.261.32.64 0 0 0 .371-.22.621 0 0-.179.211-.41.211 0 0-.19 0-.3-.12 0 0-.117-.122-.117-.29 0 0 0-.11.046-.203 0 0 .043-.098.18-.226 0 0 .133-.133.16-.192 0 0 .032-.07.032-.129 0 0 0-.12-.11-.203 0 0-.172-.129-.48-.129 0 0-.578 0-1.141.41 0 0-.57.41-.96 1.16 0 0-.477.903-.477 1.79 0 0 0 .613.34.96 0 0 .347.34.917.34 0 0 .461 0 .903-.23 0 0 .449-.219.988-.82zm6.308-4.02-1.136 3.973-.133.527s-.008.082-.008.13c0 0 0 .093.058.171 0 0 .051.05.11.05 0 0 .082 0 .199-.1 0 0 .242-.169.613-.7l.2.14s-.403.61-.833.93c0 0-.43.32-.789.32 0 0-.25 0-.379-.12 0 0-.12-.13-.12-.38 0 0 0-.28.12-.75l.13-.44s-.77 1-1.419 1.41c0 0-.46.28-.91.28 0 0-.422 0-.73-.35 0 0-.32-.349-.32-.981 0 0 0-.938.57-1.97 0 0 .558-1.03 1.418-1.648 0 0 .672-.492 1.261-.492 0 0 .36 0 .598.192 0 0 .23.187.363.609l.22-.66zM273.41 46s-.379 0-.8.36c0 0-.59.48-1.06 1.468 0 0-.472.98-.472 1.762 0 0 0 .41.203.64 0 0 .207.22.457.22 0 0 .64 0 1.39-.93 0 0 1-1.25 1-2.579 0 0 0-.492-.198-.71 0 0-.192-.231-.52-.231zm6.012-3.328-2 6.969s-.14.52-.14.64c0 0 0 .078.058.14 0 0 .05.06.129.06 0 0 .11 0 .25-.09 0 0 .3-.25.633-.75l.18.187s-.563.781-1.032 1.094c0 0-.34.219-.648.219 0 0-.223 0-.372-.16 0 0-.152-.153-.152-.34 0 0 0-.22.192-.871l1.582-5.5s.199-.68.199-.77c0 0 0-.14-.121-.23 0 0-.11-.098-.352-.098 0 0-.117 0-.406.047V43zm2.457.7s.25 0 .422.167c0 0 .16.16.16.41 0 0 0 .25-.172.422 0 0-.168.18-.41.18 0 0-.25 0-.418-.18 0 0-.172-.172-.172-.422 0 0 0-.25.172-.41 0 0 .168-.168.418-.168zm.082 2.327-1.172 4.102s-.11.418-.11.5c0 0 0 .09.06.148 0 0 .05.07.132.07 0 0 .09 0 .2-.097 0 0 .34-.262.69-.75l.2.129s-.402.61-.941 1.027c0 0-.399.313-.758.313 0 0-.242 0-.39-.141 0 0-.161-.14-.161-.36 0 0 0-.218.14-.718l.77-2.621s.188-.66.188-.82c0 0 0-.122-.09-.211 0 0-.09-.079-.258-.079 0 0-.121 0-.531.059v-.219zm3.23 0-.78 2.66s1.089-1.629 1.667-2.14c0 0 .582-.52 1.121-.52 0 0 .301 0 .492.192 0 0 .18.187.18.5 0 0 0 .359-.172.937l-.719 2.473s-.109.418-.109.508c0 0 0 .101.05.152 0 0 .048.059.09.059 0 0 .067 0 .18-.079 0 0 .309-.25.668-.75l.192.11s-.551.777-1.04 1.11c0 0-.34.23-.6.23 0 0-.22 0-.352-.13 0 0-.118-.14-.118-.35 0 0 0-.29.18-.97l.688-2.363s.132-.437.132-.687c0 0 0-.11-.082-.192 0 0-.078-.078-.187-.078 0 0-.16 0-.39.149 0 0-.442.261-.91.87 0 0-.462.61-.981 1.551 0 0-.282.5-.45 1.09l-.3.969h-.88l1.067-3.672s.184-.656.184-.797c0 0 0-.12-.102-.222 0 0-.101-.09-.25-.09 0 0-.07 0-.25.011l-.219.04-.03-.211zm9.59.36-.172.613h-.968s.109.308.109.598c0 0 0 .761-.66 1.37 0 0-.668.59-1.809.669 0 0-.62.191-.941.441 0 0-.121.09-.121.191 0 0 0 .118.11.22 0 0 .112.089.53.198l1.141.262s.941.219 1.25.52c0 0 .3.308.3.718 0 0 0 .48-.359.88 0 0-.351.402-1.03.632 0 0-.692.219-1.52.219 0 0-.72 0-1.32-.168 0 0-.602-.172-.86-.473 0 0-.262-.289-.262-.61 0 0 0-.25.172-.519 0 0 .18-.27.43-.449 0 0 .148-.101.89-.531 0 0-.27-.2-.27-.45 0 0 0-.23.24-.5 0 0 .23-.269 1.01-.581 0 0-.66-.118-1.03-.54 0 0-.38-.43-.38-.93 0 0 0-.82.727-1.48 0 0 .73-.66 1.953-.66 0 0 .43 0 .72.09 0 0 .28.082.538.27zm-2.031.921s0-.46-.262-.742c0 0-.258-.27-.68-.27 0 0-.667 0-1.097.66 0 0-.43.673-.43 1.392 0 0 0 .449.27.742 0 0 .277.289.68.289 0 0 .3 0 .597-.18 0 0 .293-.172.492-.46 0 0 .192-.302.309-.763 0 0 .121-.457.121-.668zM289.941 51s-.472.219-.71.55c0 0-.25.34-.25.669 0 0 0 .39.347.64 0 0 .512.371 1.48.371 0 0 .852 0 1.442-.28 0 0 .59-.29.59-.75 0 0 0-.22-.219-.43 0 0-.21-.211-.86-.329 0 0-.34-.07-1.82-.441zm7.137-5.172h6.332v.48h-6.332zm0 1.902h6.332v.489h-6.332zm13.434 1.989s-.614.73-1.242 1.082c0 0-.622.34-1.31.34 0 0-.831 0-1.3-.47 0 0-.469-.472-.469-1.26 0 0 0-.891.5-1.763 0 0 .5-.867 1.36-1.41 0 0 .847-.539 1.66-.539 0 0 .64 0 .95.27 0 0 .32.261.32.64 0 0 0 .371-.22.621 0 0-.183.211-.41.211 0 0-.19 0-.3-.12 0 0-.121-.122-.121-.29 0 0 0-.11.05-.203 0 0 .04-.098.18-.226 0 0 .13-.133.16-.192 0 0 .032-.07.032-.129 0 0 0-.12-.114-.203 0 0-.168-.129-.476-.129 0 0-.582 0-1.14.41 0 0-.571.41-.962 1.16 0 0-.48.903-.48 1.79 0 0 0 .613.34.96 0 0 .351.34.921.34 0 0 .457 0 .899-.23 0 0 .449-.219.988-.82zm6.226-2.188s0 .88-.457 1.739c0 0-.46.851-1.3 1.359 0 0-.833.512-1.622.512 0 0-.808 0-1.308-.52 0 0-.5-.512-.5-1.32 0 0 0-.86.488-1.73 0 0 .5-.872 1.32-1.372 0 0 .832-.5 1.61-.5 0 0 .77 0 1.27.512 0 0 .5.508.5 1.32zm-.968-.41s0-.543-.27-.832c0 0-.262-.289-.68-.289 0 0-.86 0-1.59 1.23 0 0-.73 1.239-.73 2.461 0 0 0 .559.29.86 0 0 .28.289.698.289 0 0 .832 0 1.551-1.219 0 0 .73-1.23.73-2.5zm4.082-1.422-.782 2.66s1.09-1.629 1.668-2.14c0 0 .582-.52 1.121-.52 0 0 .301 0 .493.192 0 0 .187.187.187.5 0 0 0 .359-.18.937l-.71 2.473s-.11.418-.11.508c0 0 0 .101.04.152 0 0 .05.059.1.059 0 0 .06 0 .173-.079 0 0 .308-.25.668-.75l.191.11s-.55.777-1.031 1.11c0 0-.352.23-.61.23 0 0-.218 0-.351-.13 0 0-.117-.14-.117-.35 0 0 0-.29.187-.97l.68-2.363s.133-.437.133-.687c0 0 0-.11-.082-.192 0 0-.078-.078-.192-.078 0 0-.148 0-.387.149 0 0-.44.261-.902.87 0 0-.469.61-.988 1.551 0 0-.281.5-.45 1.09l-.3.969h-.871l1.058-3.672s.192-.656.192-.797c0 0 0-.12-.102-.222 0 0-.11-.09-.258-.09 0 0-.07 0-.25.011l-.218.04-.032-.211zm7.699 0-.36 1.801h-.222s-.028-.8-.328-1.148c0 0-.313-.352-.762-.352 0 0-.36 0-.57.2 0 0-.207.19-.207.472 0 0 0 .2.078.379 0 0 .07.168.37.48 0 0 .77.84.989 1.27 0 0 .211.418.211.789 0 0 0 .61-.5 1.082 0 0-.512.469-1.281.469 0 0-.418 0-.98-.2 0 0-.188-.07-.298-.07 0 0-.261 0-.39.27h-.223l.363-1.91h.22s.03.89.37 1.269c0 0 .328.371.91.371 0 0 .438 0 .707-.25 0 0 .262-.25.262-.601 0 0 0-.239-.09-.442 0 0-.172-.36-.699-.976 0 0-.52-.622-.672-.93 0 0-.148-.313-.148-.621 0 0 0-.57.418-.961 0 0 .41-.39 1.05-.39 0 0 .192 0 .34.019 0 0 .082.031.39.14 0 0 .302.11.4.11 0 0 .261 0 .421-.27zm3.437-1.449-.468 1.59h.921l-.09.36h-.93l-1 3.46s-.171.559-.171.73c0 0 0 .09.05.15 0 0 .052.05.11.05 0 0 .16 0 .39-.2 0 0 .141-.12.622-.73l.207.149s-.55.78-1.027 1.113c0 0-.333.219-.66.219 0 0-.25 0-.41-.16 0 0-.173-.172-.173-.422 0 0 0-.309.192-.97l.969-3.39h-.88l.051-.219s.66-.18 1.079-.53c0 0 .421-.34.949-1.2zm.832 1.781 2.032-.332-.84 2.852s1.008-1.75 1.86-2.461c0 0 .468-.39.757-.39 0 0 .21 0 .32.109 0 0 .11.113.11.332 0 0 0 .39-.207.73 0 0-.141.27-.403.27 0 0-.129 0-.23-.09 0 0-.098-.082-.117-.27 0 0-.012-.11-.063-.14 0 0-.05-.051-.11-.051 0 0-.09 0-.19.05 0 0-.137.079-.45.45 0 0-.48.582-1.059 1.488 0 0-.25.39-.421.871 0 0-.25.672-.29.82l-.18.731h-.89l1.07-3.64s.192-.63.192-.91c0 0 0-.09-.082-.169 0 0-.117-.09-.309-.09 0 0-.12 0-.449.04zm9.668-.332-1.136 3.973-.122.527s-.019.082-.019.13c0 0 0 .093.059.171 0 0 .05.05.109.05 0 0 .082 0 .2-.1 0 0 .241-.169.612-.7l.207.14s-.41.61-.84.93c0 0-.429.32-.788.32 0 0-.25 0-.372-.12 0 0-.128-.13-.128-.38 0 0 0-.28.128-.75l.122-.44s-.758 1-1.418 1.41c0 0-.454.28-.91.28 0 0-.422 0-.731-.35 0 0-.313-.349-.313-.981 0 0 0-.938.563-1.97 0 0 .559-1.03 1.418-1.648 0 0 .672-.492 1.27-.492 0 0 .363 0 .59.192 0 0 .242.187.363.609l.218-.66zM339.41 46s-.37 0-.789.36c0 0-.601.48-1.07 1.468 0 0-.473.98-.473 1.762 0 0 0 .41.211.64 0 0 .2.22.45.22 0 0 .64 0 1.39-.93 0 0 1-1.25 1-2.579 0 0 0-.492-.188-.71 0 0-.203-.231-.53-.231zm5.14-2.629s.25 0 .419.168c0 0 .16.16.16.41 0 0 0 .25-.168.422 0 0-.172.18-.41.18 0 0-.25 0-.422-.18 0 0-.168-.172-.168-.422 0 0 0-.25.168-.41 0 0 .172-.168.422-.168zm.079 2.328-1.168 4.102s-.11.418-.11.5c0 0 0 .09.06.148 0 0 .05.07.128.07 0 0 .09 0 .2-.097 0 0 .34-.262.69-.75l.2.129s-.399.61-.938 1.027c0 0-.402.313-.761.313 0 0-.239 0-.391-.141 0 0-.16-.14-.16-.36 0 0 0-.218.14-.718l.77-2.621s.191-.66.191-.82c0 0 0-.122-.09-.211 0 0-.09-.079-.261-.079 0 0-.117 0-.528.059v-.219zm3.23 0-.78 2.66s1.093-1.629 1.671-2.14c0 0 .578-.52 1.121-.52 0 0 .3 0 .488.192 0 0 .18.187.18.5 0 0 0 .359-.168.937l-.723 2.473s-.109.418-.109.508c0 0 0 .101.05.152 0 0 .052.059.09.059 0 0 .071 0 .18-.079 0 0 .313-.25.672-.75l.188.11s-.547.777-1.04 1.11c0 0-.34.23-.6.23 0 0-.22 0-.348-.13 0 0-.122-.14-.122-.35 0 0 0-.29.18-.97l.692-2.363s.128-.437.128-.687c0 0 0-.11-.078-.192 0 0-.082-.078-.191-.078 0 0-.16 0-.39.149 0 0-.438.261-.91.87 0 0-.462.61-.981 1.551 0 0-.278.5-.45 1.09l-.3.969h-.88l1.071-3.672s.18-.656.18-.797c0 0 0-.12-.102-.222 0 0-.097-.09-.25-.09 0 0-.066 0-.25.011l-.219.04-.03-.211zm4.782 3.102s-.051.277-.051.48c0 0 0 .52.37.88 0 0 .368.37.9.37 0 0 .421 0 .812-.172 0 0 .387-.168 1.156-.77l.121.18s-1.39 1.372-2.66 1.372c0 0-.84 0-1.277-.54 0 0-.434-.542-.434-1.19 0 0 0-.88.531-1.79 0 0 .54-.922 1.36-1.422 0 0 .812-.5 1.672-.5 0 0 .62 0 .918.25 0 0 .3.25.3.602 0 0 0 .48-.379.93 0 0-.511.578-1.5.94 0 0-.652.24-1.84.38zm.03-.301s.868-.09 1.419-.34c0 0 .719-.32 1.082-.77 0 0 .36-.449.36-.84 0 0 0-.25-.16-.41 0 0-.153-.16-.442-.16 0 0-.602 0-1.282.641 0 0-.668.649-.976 1.879zm10.36-5.828-2.02 6.906s-.171.563-.171.73c0 0 0 .063.05.122 0 0 .04.05.11.05 0 0 .07 0 .172-.07 0 0 .2-.14.668-.71l.2.128s-.419.582-.849.942c0 0-.43.37-.8.37 0 0-.211 0-.332-.14 0 0-.13-.14-.13-.41 0 0 0-.32.173-.89l.218-.72s-.84 1.32-1.539 1.82c0 0-.472.34-.91.34 0 0-.45 0-.781-.402 0 0-.328-.398-.328-1.066 0 0 0-.871.558-1.871 0 0 .551-.992 1.461-1.61 0 0 .73-.492 1.32-.492 0 0 .32 0 .547.13 0 0 .243.12.454.421l.578-2.031s.07-.219.101-.348c0 0 .07-.23.07-.39 0 0 0-.122-.09-.2 0 0-.12-.11-.312-.11 0 0-.14 0-.437.048V43zm-2.191 4.156s0-.379-.211-.598c0 0-.207-.23-.559-.23 0 0-.73 0-1.53 1.219 0 0-.79 1.222-.79 2.332 0 0 0 .43.18.668 0 0 .191.23.468.23 0 0 .614 0 1.524-1.32 0 0 .918-1.32.918-2.3zM362.512 53v-.27s.61-.18.93-.609c0 0 .328-.422.328-.89 0 0 0-.11-.04-.18 0 0-.05-.051-.082-.051 0 0-.07 0-.277.11 0 0-.11.062-.242.062 0 0-.277 0-.45-.172 0 0-.167-.172-.167-.469 0 0 0-.3.218-.5 0 0 .211-.203.54-.203 0 0 .378 0 .68.332 0 0 .312.34.312.899 0 0 0 .601-.434 1.12 0 0-.418.52-1.316.821zm9.718-7.3-.359 1.8h-.223s-.027-.8-.34-1.148c0 0-.296-.352-.757-.352 0 0-.36 0-.57.2 0 0-.211.19-.211.472 0 0 0 .2.082.379 0 0 .078.168.378.48 0 0 .758.84.98 1.27 0 0 .22.418.22.789 0 0 0 .61-.508 1.082 0 0-.512.469-1.274.469 0 0-.418 0-.988-.2 0 0-.18-.07-.289-.07 0 0-.27 0-.39.27h-.22l.36-1.91h.207s.043.89.371 1.269c0 0 .34.371.922.371 0 0 .43 0 .7-.25 0 0 .257-.25.257-.601 0 0 0-.239-.09-.442 0 0-.168-.36-.687-.976 0 0-.531-.622-.68-.93 0 0-.14-.313-.14-.621 0 0 0-.57.41-.961 0 0 .41-.39 1.05-.39 0 0 .188 0 .348.019l.383.14s.308.11.398.11c0 0 .258 0 .418-.27zm2.989-2.329s.25 0 .422.168c0 0 .16.16.16.41 0 0 0 .25-.172.422 0 0-.168.18-.41.18 0 0-.25 0-.418-.18 0 0-.172-.172-.172-.422 0 0 0-.25.172-.41 0 0 .168-.168.418-.168zm.082 2.328-1.172 4.102s-.11.418-.11.5c0 0 0 .09.06.148 0 0 .05.07.132.07 0 0 .09 0 .2-.097 0 0 .339-.262.69-.75l.2.129s-.403.61-.942 1.027c0 0-.398.313-.757.313 0 0-.243 0-.391-.141 0 0-.16-.14-.16-.36 0 0 0-.218.14-.718l.77-2.621s.187-.66.187-.82c0 0 0-.122-.09-.211 0 0-.09-.079-.257-.079 0 0-.121 0-.532.059v-.219zm1.59.14h3.71v.141l-4.062 4.22h1.723s.61 0 .77-.04c0 0 .167-.05.308-.21 0 0 .14-.15.308-.54h.204l-.5 1.59h-3.813v-.172l4.05-4.219h-1.69s-.528 0-.637.032c0 0-.172.03-.332.18 0 0-.149.148-.328.488h-.211zm5.09 2.962s-.051.277-.051.48c0 0 0 .52.37.88 0 0 .36.37.9.37 0 0 .421 0 .812-.172 0 0 .386-.168 1.148-.77l.129.18s-1.39 1.372-2.66 1.372c0 0-.84 0-1.277-.54 0 0-.442-.542-.442-1.19 0 0 0-.88.54-1.79 0 0 .538-.922 1.359-1.422 0 0 .812-.5 1.671-.5 0 0 .622 0 .918.25 0 0 .301.25.301.602 0 0 0 .48-.379.93 0 0-.511.578-1.5.94 0 0-.66.24-1.84.38zm.03-.301s.868-.09 1.419-.34c0 0 .718-.32 1.082-.77 0 0 .36-.449.36-.84 0 0 0-.25-.161-.41 0 0-.152-.16-.441-.16 0 0-.61 0-1.282.641 0 0-.668.649-.976 1.879zm7.067-2.672h6.332v.48h-6.332zm0 1.902h6.332v.489h-6.332zm15.402-3.171s.34-.79.848-1.23c0 0 .524-.438 1.3-.438 0 0 .95 0 1.45.629 0 0 .402.449.402.98 0 0 0 .871-1.101 1.8 0 0 .742.278 1.11.81 0 0 .382.53.382 1.261 0 0 0 1.04-.66 1.79 0 0-.84.98-2.473.98 0 0-.808 0-1.097-.2 0 0-.29-.21-.29-.421 0 0 0-.18.137-.31 0 0 .14-.132.332-.132 0 0 .16 0 .301.043 0 0 .11.04.457.219 0 0 .352.191.473.219 0 0 .219.062.469.062 0 0 .601 0 1.039-.46 0 0 .453-.462.453-1.083 0 0 0-.469-.211-.906 0 0-.153-.332-.34-.5 0 0-.25-.23-.691-.422 0 0-.442-.191-.891-.191h-.188v-.188s.457-.043.93-.32c0 0 .457-.281.68-.672 0 0 .21-.379.21-.848 0 0 0-.59-.382-.972 0 0-.367-.368-.938-.368 0 0-.921 0-1.53.97zm5.82 2.52s0-1.36.41-2.349c0 0 .411-.98 1.09-1.46 0 0 .528-.38 1.098-.38 0 0 .903 0 1.641.938 0 0 .902 1.14.902 3.121 0 0 0 1.38-.39 2.352 0 0-.403.969-1.02 1.398 0 0-.62.442-1.203.442 0 0-1.137 0-1.887-1.34 0 0-.64-1.13-.64-2.723zm1.141.14s0 1.64.41 2.672c0 0 .34.879 1 .879 0 0 .31 0 .66-.29 0 0 .34-.28.509-.949 0 0 .27-1 .27-2.84 0 0 0-1.363-.278-2.27 0 0-.211-.671-.551-.952 0 0-.23-.188-.582-.188 0 0-.39 0-.7.36 0 0-.417.48-.577 1.52 0 0-.16 1.038-.16 2.058zm4.86-.14s0-1.36.41-2.349c0 0 .41-.98 1.09-1.46 0 0 .527-.38 1.097-.38 0 0 .903 0 1.641.938 0 0 .902 1.14.902 3.121 0 0 0 1.38-.39 2.352 0 0-.403.969-1.02 1.398 0 0-.62.442-1.203.442 0 0-1.137 0-1.887-1.34 0 0-.64-1.13-.64-2.723zm1.14.14s0 1.64.41 2.672c0 0 .34.879 1 .879 0 0 .31 0 .66-.29 0 0 .34-.28.509-.949 0 0 .27-1 .27-2.84 0 0 0-1.363-.278-2.27 0 0-.211-.671-.551-.952 0 0-.23-.188-.582-.188 0 0-.39 0-.7.36 0 0-.417.48-.577 1.52 0 0-.16 1.038-.16 2.058zM422.512 53v-.27s.61-.18.93-.609c0 0 .328-.422.328-.89 0 0 0-.11-.04-.18 0 0-.05-.051-.082-.051 0 0-.07 0-.277.11 0 0-.11.062-.242.062 0 0-.277 0-.45-.172 0 0-.167-.172-.167-.469 0 0 0-.3.218-.5 0 0 .211-.203.54-.203 0 0 .378 0 .68.332 0 0 .312.34.312.899 0 0 0 .601-.434 1.12 0 0-.418.52-1.316.821zm10.859-3.531-.55 1.531h-4.692v-.219s2.062-1.89 2.91-3.082c0 0 .84-1.199.84-2.18 0 0 0-.75-.457-1.25 0 0-.461-.488-1.121-.488 0 0-.57 0-1.04.34 0 0-.472.348-.69 1.02h-.22s.16-1.09.758-1.672c0 0 .602-.578 1.512-.578 0 0 .957 0 1.61.62 0 0 .648.61.648 1.458 0 0 0 .61-.277 1.222 0 0-.442.93-1.41 2 0 0-1.454 1.59-1.82 1.918h2.07s.636 0 .886-.05c0 0 .25-.04.473-.188 0 0 .21-.14.347-.402zm.93-2.39s0-1.36.41-2.349c0 0 .41-.98 1.09-1.46 0 0 .527-.38 1.097-.38 0 0 .903 0 1.641.938 0 0 .902 1.14.902 3.121 0 0 0 1.38-.39 2.352 0 0-.403.969-1.02 1.398 0 0-.62.442-1.203.442 0 0-1.137 0-1.887-1.34 0 0-.64-1.13-.64-2.723zm1.14.14s0 1.64.41 2.672c0 0 .34.879 1 .879 0 0 .31 0 .66-.29 0 0 .34-.28.509-.949 0 0 .27-1 .27-2.84 0 0 0-1.363-.278-2.27 0 0-.211-.671-.551-.952 0 0-.23-.188-.582-.188 0 0-.39 0-.7.36 0 0-.417.48-.577 1.52 0 0-.16 1.038-.16 2.058zm4.86-.14s0-1.36.41-2.349c0 0 .41-.98 1.09-1.46 0 0 .527-.38 1.097-.38 0 0 .903 0 1.641.938 0 0 .902 1.14.902 3.121 0 0 0 1.38-.39 2.352 0 0-.403.969-1.02 1.398 0 0-.62.442-1.203.442 0 0-1.137 0-1.887-1.34 0 0-.64-1.13-.64-2.723zm1.14.14s0 1.64.41 2.672c0 0 .34.879 1 .879 0 0 .31 0 .66-.29 0 0 .34-.28.509-.949 0 0 .27-1 .27-2.84 0 0 0-1.363-.278-2.27 0 0-.211-.671-.551-.952 0 0-.23-.188-.582-.188 0 0-.39 0-.7.36 0 0-.417.48-.577 1.52 0 0-.16 1.038-.16 2.058zM402.27 53h-2.399V43h2.399v.43h-1.66v9.14h1.66zm45.601-10h2.399v10h-2.399v-.43h1.649v-9.14h-1.649zm5 .262.16-.262s2.047 1.281 2.047 5.102v-.204s0 3.84-2.047 5.102l-.16-.238s.91-.782 1.219-2.192c0 0 .191-.87.191-2.468v-.204s0-1.578-.191-2.457c0 0-.309-1.41-1.219-2.18zm0 0" style="fill:#000;fill-opacity:1;fill-rule:nonzero;stroke:none"/><path transform="matrix(1 0 0 -1 0 1008)" d="M209.871 858.309v88.382m17.75-88.382v88.382m17.739-88.382v88.382m17.75-88.382v88.382m17.75-88.382v88.382m17.75-88.382v88.382m17.75-88.382v88.382m17.75-88.382v88.382m17.75-88.382v88.382m-141.989-88.382H351.86m-141.989 17.679H351.86M209.871 893.66H351.86m-141.989 17.68H351.86m-141.989 17.672H351.86m-141.989 17.679H351.86" style="fill:none;stroke:#bfbfbf;stroke-width:1;stroke-linecap:butt;stroke-linejoin:round;stroke-miterlimit:10;stroke-opacity:1"/><path transform="matrix(1 0 0 -1 0 1008)" d="M209.871 929.012H351.86" style="fill:none;stroke:#000;stroke-width:1;stroke-linecap:butt;stroke-linejoin:round;stroke-miterlimit:10;stroke-opacity:1"/><path transform="matrix(1 0 0 -1 0 1008)" d="M209.871 929.012v-1.25" style="fill:none;stroke:#000;stroke-width:1;stroke-linecap:square;stroke-linejoin:miter;stroke-miterlimit:10;stroke-opacity:1"/><g clip-path="url(#d)" style="clip-rule:nonzero"><path d="M212.68 83.078h-4.63v-.36h4.63zm0 0" style="fill:#000;fill-opacity:1;fill-rule:nonzero;stroke:none"/></g><path d="m211.691 80.809 1.13-.54h.109v3.922s0 .387.03.48c0 0 .028.099.13.138 0 0 .101.05.422.062V85h-1.743v-.129s.333-.012.422-.062c0 0 .098-.04.137-.13 0 0 .043-.09.043-.488v-2.5s0-.52-.043-.66c0 0-.027-.11-.09-.16 0 0-.058-.062-.16-.062 0 0-.117 0-.34.113zm0 0" style="fill:#000;fill-opacity:1;fill-rule:nonzero;stroke:none"/><path transform="matrix(1 0 0 -1 0 1008)" d="M227.621 929.012v-1.25" style="fill:none;stroke:#000;stroke-width:1;stroke-linecap:square;stroke-linejoin:miter;stroke-miterlimit:10;stroke-opacity:1"/><path d="M222.121 82.7s0-.778.238-1.36c0 0 .243-.57.63-.86 0 0 .312-.21.64-.21 0 0 .531 0 .95.539 0 0 .542.671.542 1.832 0 0 0 .8-.242 1.37 0 0-.23.567-.59.817 0 0-.36.25-.687.25 0 0-.672 0-1.114-.777 0 0-.367-.66-.367-1.602zm.668.1s0 .95.23 1.56c0 0 .211.5.583.5 0 0 .187 0 .386-.16 0 0 .203-.169.301-.56 0 0 .152-.581.152-1.66 0 0 0-.789-.152-1.308 0 0-.129-.402-.328-.563 0 0-.14-.109-.332-.109 0 0-.23 0-.418.2 0 0-.25.28-.34.89 0 0-.082.61-.082 1.21zm0 0" style="fill:#000;fill-opacity:1;fill-rule:nonzero;stroke:none"/><path transform="matrix(1 0 0 -1 0 1008)" d="M245.36 929.012v-1.25" style="fill:none;stroke:#000;stroke-width:1;stroke-linecap:square;stroke-linejoin:miter;stroke-miterlimit:10;stroke-opacity:1"/><path d="m244.691 80.809 1.13-.54h.109v3.922s0 .387.03.48c0 0 .028.099.13.138 0 0 .101.05.422.062V85h-1.743v-.129s.333-.012.422-.062c0 0 .098-.04.137-.13 0 0 .043-.09.043-.488v-2.5s0-.52-.043-.66c0 0-.027-.11-.09-.16 0 0-.058-.062-.16-.062 0 0-.117 0-.34.113zm0 0" style="fill:#000;fill-opacity:1;fill-rule:nonzero;stroke:none"/><path transform="matrix(1 0 0 -1 0 1008)" d="M263.11 929.012v-1.25" style="fill:none;stroke:#000;stroke-width:1;stroke-linecap:square;stroke-linejoin:miter;stroke-miterlimit:10;stroke-opacity:1"/><path d="m265.07 84.11-.308.89h-2.742v-.129s1.21-1.101 1.699-1.8c0 0 .492-.7.492-1.27 0 0 0-.442-.27-.723 0 0-.28-.277-.652-.277 0 0-.348 0-.61.187 0 0-.269.203-.41.59h-.12s.09-.629.44-.969c0 0 .352-.34.891-.34 0 0 .56 0 .93.36 0 0 .38.371.38.851 0 0 0 .36-.161.711 0 0-.25.559-.828 1.168 0 0-.84.942-1.063 1.121h1.223s.36 0 .508-.03c0 0 .152-.028.27-.11 0 0 .132-.07.202-.23zm0 0" style="fill:#000;fill-opacity:1;fill-rule:nonzero;stroke:none"/><path transform="matrix(1 0 0 -1 0 1008)" d="M280.86 929.012v-1.25" style="fill:none;stroke:#000;stroke-width:1;stroke-linecap:square;stroke-linejoin:miter;stroke-miterlimit:10;stroke-opacity:1"/><path d="M279.23 81.25s.18-.469.489-.73c0 0 .3-.25.761-.25 0 0 .56 0 .848.351 0 0 .223.29.223.578 0 0 0 .52-.64 1.051 0 0 .44.172.66.48 0 0 .218.32.218.739 0 0 0 .59-.39 1.031 0 0-.5.578-1.438.578 0 0-.473 0-.64-.117 0 0-.173-.121-.173-.242 0 0 0-.11.082-.18 0 0 .07-.07.2-.07 0 0 .082 0 .172.031 0 0 .058.02.27.121 0 0 .198.098.276.129 0 0 .121.031.262.031 0 0 .352 0 .602-.261 0 0 .258-.27.258-.649 0 0 0-.262-.11-.531 0 0-.09-.18-.2-.281 0 0-.14-.137-.401-.25 0 0-.258-.11-.52-.11h-.11v-.11s.262-.03.54-.19c0 0 .27-.169.402-.38 0 0 .117-.218.117-.5 0 0 0-.347-.219-.57 0 0-.218-.219-.539-.219 0 0-.539 0-.902.57zm0 0" style="fill:#000;fill-opacity:1;fill-rule:nonzero;stroke:none"/><path transform="matrix(1 0 0 -1 0 1008)" d="M298.61 929.012v-1.25" style="fill:none;stroke:#000;stroke-width:1;stroke-linecap:square;stroke-linejoin:miter;stroke-miterlimit:10;stroke-opacity:1"/><path d="M300.121 83.3v.481h-.61V85h-.57v-1.219h-1.96v-.441l2.148-3.07h.383v3.03zm-1.18 0v-2.32l-1.64 2.32zm0 0" style="fill:#000;fill-opacity:1;fill-rule:nonzero;stroke:none"/><path transform="matrix(1 0 0 -1 0 1008)" d="M316.36 929.012v-1.25" style="fill:none;stroke:#000;stroke-width:1;stroke-linecap:square;stroke-linejoin:miter;stroke-miterlimit:10;stroke-opacity:1"/><path d="m317.898 80.36-.27.59h-1.39l-.297.609s.91.14 1.438.671c0 0 .45.47.45 1.098 0 0 0 .371-.138.692 0 0-.152.308-.382.53 0 0-.23.22-.508.34 0 0-.39.188-.813.188 0 0-.41 0-.597-.137 0 0-.2-.14-.2-.32 0 0 0-.09.09-.16 0 0 .09-.07.2-.07 0 0 .09 0 .148.02 0 0 .062.03.242.14 0 0 .25.18.508.18 0 0 .41 0 .7-.301 0 0 .3-.309.3-.739 0 0 0-.421-.258-.78 0 0-.27-.36-.75-.571 0 0-.383-.149-1.02-.168l.887-1.813zm0 0" style="fill:#000;fill-opacity:1;fill-rule:nonzero;stroke:none"/><path transform="matrix(1 0 0 -1 0 1008)" d="M334.11 929.012v-1.25" style="fill:none;stroke:#000;stroke-width:1;stroke-linecap:square;stroke-linejoin:miter;stroke-miterlimit:10;stroke-opacity:1"/><path d="M336.012 80.27v.12s-.461.051-.75.18c0 0-.282.13-.563.41 0 0-.27.29-.46.622 0 0-.188.34-.31.808 0 0 .5-.332 1-.332 0 0 .47 0 .821.383 0 0 .352.379.352.98 0 0 0 .579-.364 1.059 0 0-.418.578-1.117.578 0 0-.473 0-.8-.308 0 0-.66-.61-.66-1.579 0 0 0-.632.25-1.191 0 0 .25-.559.71-1 0 0 .457-.441.89-.59 0 0 .43-.14.79-.14zm-2.133 2.39s-.059.461-.059.75c0 0 0 .32.121.711 0 0 .11.379.36.61 0 0 .18.16.43.16 0 0 .289 0 .53-.282 0 0 .227-.28.227-.8 0 0 0-.59-.226-1.008 0 0-.242-.43-.66-.43 0 0-.141 0-.293.059 0 0-.149.05-.43.23zm0 0" style="fill:#000;fill-opacity:1;fill-rule:nonzero;stroke:none"/><path transform="matrix(1 0 0 -1 0 1008)" d="M351.86 929.012v-1.25" style="fill:none;stroke:#000;stroke-width:1;stroke-linecap:square;stroke-linejoin:miter;stroke-miterlimit:10;stroke-opacity:1"/><path d="M350.57 80.36h2.48v.14l-1.538 4.59h-.383l1.383-4.168h-1.274s-.386 0-.547.098c0 0-.293.152-.46.48l-.102-.031zm0 0" style="fill:#000;fill-opacity:1;fill-rule:nonzero;stroke:none"/><path transform="matrix(1 0 0 -1 0 1008)" d="M227.621 858.309v88.382" style="fill:none;stroke:#000;stroke-width:1;stroke-linecap:butt;stroke-linejoin:round;stroke-miterlimit:10;stroke-opacity:1"/><path transform="matrix(1 0 0 -1 0 1008)" d="M227.621 858.309h-1.25" style="fill:none;stroke:#000;stroke-width:1;stroke-linecap:square;stroke-linejoin:miter;stroke-miterlimit:10;stroke-opacity:1"/><g clip-path="url(#e)" style="clip-rule:nonzero"><path d="M223.68 150.078h-4.63v-.36h4.63zm0 0" style="fill:#000;fill-opacity:1;fill-rule:nonzero;stroke:none"/></g><path d="M225.121 150.3v.481h-.61V152h-.57v-1.219h-1.96v-.441l2.148-3.07h.383v3.03zm-1.18 0v-2.32l-1.64 2.32zm0 0" style="fill:#000;fill-opacity:1;fill-rule:nonzero;stroke:none"/><path transform="matrix(1 0 0 -1 0 1008)" d="M227.621 875.988h-1.25" style="fill:none;stroke:#000;stroke-width:1;stroke-linecap:square;stroke-linejoin:miter;stroke-miterlimit:10;stroke-opacity:1"/><g clip-path="url(#f)" style="clip-rule:nonzero"><path d="M223.68 133.078h-4.63v-.36h4.63zm0 0" style="fill:#000;fill-opacity:1;fill-rule:nonzero;stroke:none"/></g><path d="M222.23 131.25s.18-.469.489-.73c0 0 .3-.25.761-.25 0 0 .56 0 .848.351 0 0 .223.29.223.578 0 0 0 .52-.64 1.051 0 0 .44.172.66.48 0 0 .218.32.218.739 0 0 0 .59-.39 1.031 0 0-.5.578-1.438.578 0 0-.473 0-.64-.117 0 0-.173-.121-.173-.242 0 0 0-.11.082-.18 0 0 .07-.07.2-.07 0 0 .082 0 .172.031 0 0 .058.02.27.121 0 0 .198.098.276.129 0 0 .121.031.262.031 0 0 .352 0 .602-.262 0 0 .257-.27.257-.648 0 0 0-.262-.109-.531 0 0-.09-.18-.2-.281 0 0-.14-.137-.401-.25 0 0-.258-.11-.52-.11h-.11v-.11s.262-.03.54-.19c0 0 .27-.169.402-.38 0 0 .117-.218.117-.5 0 0 0-.347-.219-.57 0 0-.218-.219-.539-.219 0 0-.539 0-.902.57zm0 0" style="fill:#000;fill-opacity:1;fill-rule:nonzero;stroke:none"/><path transform="matrix(1 0 0 -1 0 1008)" d="M227.621 893.66h-1.25" style="fill:none;stroke:#000;stroke-width:1;stroke-linecap:square;stroke-linejoin:miter;stroke-miterlimit:10;stroke-opacity:1"/><g clip-path="url(#g)" style="clip-rule:nonzero"><path d="M223.68 115.078h-4.63v-.36h4.63zm0 0" style="fill:#000;fill-opacity:1;fill-rule:nonzero;stroke:none"/></g><path d="m225.07 116.11-.308.89h-2.742v-.129s1.21-1.101 1.699-1.8c0 0 .492-.7.492-1.27 0 0 0-.442-.27-.723 0 0-.28-.277-.652-.277 0 0-.348 0-.61.187 0 0-.269.203-.41.59h-.12s.09-.629.44-.969c0 0 .352-.34.891-.34 0 0 .56 0 .93.36 0 0 .38.371.38.851 0 0 0 .36-.161.711 0 0-.25.559-.828 1.168 0 0-.84.942-1.063 1.121h1.223s.36 0 .508-.03c0 0 .152-.028.27-.11 0 0 .132-.07.202-.23zm0 0" style="fill:#000;fill-opacity:1;fill-rule:nonzero;stroke:none"/><path transform="matrix(1 0 0 -1 0 1008)" d="M227.621 911.34h-1.25" style="fill:none;stroke:#000;stroke-width:1;stroke-linecap:square;stroke-linejoin:miter;stroke-miterlimit:10;stroke-opacity:1"/><g clip-path="url(#h)" style="clip-rule:nonzero"><path d="M223.68 97.078h-4.63v-.36h4.63zm0 0" style="fill:#000;fill-opacity:1;fill-rule:nonzero;stroke:none"/></g><path d="m222.691 94.809 1.13-.54h.109v3.922s0 .387.03.48c0 0 .028.099.13.138 0 0 .101.05.422.062V99h-1.743v-.129s.333-.012.422-.062c0 0 .098-.04.137-.13 0 0 .043-.09.043-.488v-2.5s0-.52-.043-.66c0 0-.027-.11-.09-.16 0 0-.058-.062-.16-.062 0 0-.117 0-.34.113zm0 0" style="fill:#000;fill-opacity:1;fill-rule:nonzero;stroke:none"/><path transform="matrix(1 0 0 -1 0 1008)" d="M227.621 929.012h-1.25m1.25 17.679h-1.25" style="fill:none;stroke:#000;stroke-width:1;stroke-linecap:square;stroke-linejoin:miter;stroke-miterlimit:10;stroke-opacity:1"/><path d="m222.691 59.809 1.13-.54h.109v3.922s0 .387.03.48c0 0 .028.099.13.138 0 0 .101.05.422.062V64h-1.743v-.129s.333-.012.422-.062c0 0 .098-.04.137-.13 0 0 .043-.09.043-.488v-2.5s0-.52-.043-.66c0 0-.027-.11-.09-.16 0 0-.058-.062-.16-.062 0 0-.117 0-.34.113zm0 0" style="fill:#000;fill-opacity:1;fill-rule:nonzero;stroke:none"/></g><text xml:space="preserve" style="font-style:normal;font-weight:400;font-size:4.23333311px;line-height:1.25;font-family:sans-serif;letter-spacing:0;word-spacing:0;fill:#000;fill-opacity:1;stroke:none;stroke-width:.26458332" x="115.732" y="59.42"><tspan x="115.732" y="59.42" style="font-size:3.52777767px;stroke-width:.26458332">P</tspan></text><circle style="opacity:1;fill:#000;fill-opacity:1;stroke:#000;stroke-width:.07081266;stroke-linecap:round;stroke-miterlimit:4;stroke-dasharray:none;stroke-dashoffset:0;stroke-opacity:1" cx="118.125" cy="59.771" r=".42"/><path style="fill:none;stroke:#fa0000;stroke-width:.30000001;stroke-linecap:butt;stroke-linejoin:miter;stroke-miterlimit:4;stroke-dasharray:.6,.3;stroke-dashoffset:0;stroke-opacity:1" d="M80.56 59.794h37.573m0 0V41.357"/></g></svg>