<svg xmlns="http://www.w3.org/2000/svg" width="262.705" height="306.358" viewBox="0 0 69.507 81.057"><path style="opacity:1;vector-effect:none;fill:none;fill-opacity:1;stroke:#000;stroke-width:.5;stroke-linecap:round;stroke-linejoin:miter;stroke-miterlimit:4;stroke-dasharray:none;stroke-dashoffset:0;stroke-opacity:1" d="M189.488 27.955h53.555v71.517h-53.555z" transform="translate(-189.238 -27.705)"/><path style="opacity:1;vector-effect:none;fill:none;fill-opacity:1;stroke:#000;stroke-width:.29935762;stroke-linecap:round;stroke-linejoin:miter;stroke-miterlimit:4;stroke-dasharray:1.19743054,.59871527;stroke-dashoffset:0;stroke-opacity:1" d="M226.572 59.052h16.471v40.42h-16.471z" transform="translate(-189.238 -27.705)"/><path style="opacity:1;vector-effect:none;fill:none;fill-opacity:1;stroke:#000;stroke-width:.5;stroke-linecap:round;stroke-linejoin:miter;stroke-miterlimit:4;stroke-dasharray:2,1;stroke-dashoffset:0;stroke-opacity:1" d="M210.1 59.052h16.471v40.42H210.1zm-16.471 0H210.1v40.42h-16.471z" transform="translate(-189.238 -27.705)"/><path style="opacity:1;vector-effect:none;fill:none;fill-opacity:1;stroke:#000;stroke-width:.5;stroke-linecap:round;stroke-linejoin:miter;stroke-miterlimit:4;stroke-dasharray:2,1;stroke-dashoffset:0;stroke-opacity:1" transform="rotate(90 -80.766 -108.471)" d="M42.581-243.043h16.471v40.42H42.581z"/><path style="fill:#b3b3b3;fill-opacity:.19607843;stroke:#000;stroke-width:.49766621;stroke-linecap:butt;stroke-linejoin:miter;stroke-miterlimit:4;stroke-dasharray:none;stroke-opacity:1" d="m193.533 70.81 4.804-11.599 11.709 4.759v23.352zm16.513 16.512-4.804 11.598-11.71-4.758V70.81zm.039-16.232 4.804-11.598 11.71 4.758v23.353zm16.513 16.513-4.804 11.598-11.709-4.758V71.09zm.024-16.513 4.804-11.598 11.709 4.758v23.353zm16.513 16.513-4.804 11.598-11.71-4.758V71.09z" transform="translate(-189.238 -27.705)"/><path d="m237.668 40.795 4.804-11.598 11.709 4.758v23.353z" style="fill:#b3b3b3;fill-opacity:.19607843;stroke:#000;stroke-width:.49766621;stroke-linecap:butt;stroke-linejoin:miter;stroke-miterlimit:4;stroke-dasharray:none;stroke-opacity:1" transform="rotate(-90 126.793 142.264)"/><path d="m254.181 57.308-4.804 11.598-11.709-4.758V40.795z" style="fill:#b3b3b3;fill-opacity:.19607843;stroke:#000;stroke-width:.49766621;stroke-linecap:butt;stroke-linejoin:miter;stroke-miterlimit:4;stroke-dasharray:none;stroke-opacity:1" transform="rotate(-90 126.793 142.264)"/><text xml:space="preserve" style="font-style:normal;font-weight:400;font-size:4.23333311px;line-height:1.25;font-family:sans-serif;letter-spacing:0;word-spacing:0;fill:#000;fill-opacity:1;stroke:none;stroke-width:.26458332" x="200.879" y="70.882" transform="translate(-189.238 -27.705)"><tspan x="200.879" y="70.882" style="font-size:4.93888903px;stroke-width:.26458332">2</tspan></text><text xml:space="preserve" style="font-style:normal;font-weight:400;font-size:4.23333311px;line-height:1.25;font-family:sans-serif;letter-spacing:0;word-spacing:0;fill:#000;fill-opacity:1;stroke:none;stroke-width:.26458332" x="199.529" y="89.616" transform="translate(-189.238 -27.705)"><tspan x="199.529" y="89.616" style="font-size:4.93888903px;stroke-width:.26458332">1</tspan></text><text xml:space="preserve" style="font-style:normal;font-weight:400;font-size:4.23333311px;line-height:1.25;font-family:sans-serif;letter-spacing:0;word-spacing:0;fill:#000;fill-opacity:1;stroke:none;stroke-width:.26458332" x="217.421" y="70.889" transform="translate(-189.238 -27.705)"><tspan x="217.421" y="70.889" style="font-size:4.93888903px;stroke-width:.26458332">4</tspan></text><text xml:space="preserve" style="font-style:normal;font-weight:400;font-size:4.23333311px;line-height:1.25;font-family:sans-serif;letter-spacing:0;word-spacing:0;fill:#000;fill-opacity:1;stroke:none;stroke-width:.26458332" x="216.071" y="89.622" transform="translate(-189.238 -27.705)"><tspan x="216.071" y="89.622" style="font-size:4.93888903px;stroke-width:.26458332">3</tspan></text><text xml:space="preserve" style="font-style:normal;font-weight:400;font-size:4.23333311px;line-height:1.25;font-family:sans-serif;letter-spacing:0;word-spacing:0;fill:#000;fill-opacity:1;stroke:none;stroke-width:.26458332" x="234.222" y="70.889" transform="translate(-189.238 -27.705)"><tspan x="234.222" y="70.889" style="font-size:4.93888903px;stroke-width:.26458332">6</tspan></text><text xml:space="preserve" style="font-style:normal;font-weight:400;font-size:4.23333311px;line-height:1.25;font-family:sans-serif;letter-spacing:0;word-spacing:0;fill:#000;fill-opacity:1;stroke:none;stroke-width:.26458332" x="232.872" y="89.622" transform="translate(-189.238 -27.705)"><tspan x="232.872" y="89.622" style="font-size:4.93888903px;stroke-width:.26458332">5</tspan></text><text xml:space="preserve" style="font-style:normal;font-weight:400;font-size:4.23333311px;line-height:1.25;font-family:sans-serif;letter-spacing:0;word-spacing:0;fill:#000;fill-opacity:1;stroke:none;stroke-width:.26458332" x="231.703" y="53.233" transform="translate(-189.238 -27.705)"><tspan x="231.703" y="53.233" style="font-size:4.93888903px;stroke-width:.26458332">7</tspan></text><text xml:space="preserve" style="font-style:normal;font-weight:400;font-size:4.23333311px;line-height:1.25;font-family:sans-serif;letter-spacing:0;word-spacing:0;fill:#000;fill-opacity:1;stroke:none;stroke-width:.26458332" x="209.346" y="53.233" transform="translate(-189.238 -27.705)"><tspan x="209.346" y="53.233" style="font-size:4.93888903px;stroke-width:.26458332">8</tspan></text><text xml:space="preserve" style="font-style:normal;font-weight:400;font-size:4.23333311px;line-height:1.25;font-family:sans-serif;letter-spacing:0;word-spacing:0;fill:#000;fill-opacity:1;stroke:none;stroke-width:.26458332" x="213.05" y="108.188" transform="translate(-189.238 -27.705)"><tspan x="213.05" y="108.188" style="font-size:4.93888903px;stroke-width:.26458332">84,9</tspan></text><path style="fill:none;stroke:#000;stroke-width:.5;stroke-linecap:butt;stroke-linejoin:miter;stroke-miterlimit:4;stroke-dasharray:none;stroke-opacity:1" d="M193.63 102.118h49.3m-49.273-.699v1.38m49.392-1.374v1.38" transform="translate(-189.238 -27.705)"/><text xml:space="preserve" style="font-style:normal;font-weight:400;font-size:4.23333311px;line-height:1.25;font-family:sans-serif;letter-spacing:0;word-spacing:0;fill:#000;fill-opacity:1;stroke:none;stroke-width:.26458332" x="248.052" y="73.767" transform="translate(-189.238 -27.705)"><tspan x="248.052" y="73.767" style="font-size:4.93888903px;stroke-width:.26458332">96,6</tspan></text><path style="fill:none;stroke:#000;stroke-width:.5;stroke-linecap:butt;stroke-linejoin:miter;stroke-miterlimit:4;stroke-dasharray:none;stroke-opacity:1" d="M246.747 42.462v57.01m.695-56.87h-1.38m1.378 56.858h-1.38" transform="translate(-189.238 -27.705)"/></svg>