<svg xmlns="http://www.w3.org/2000/svg" width="120.259" height="103.675" viewBox="0 0 31.818 27.431"><path style="fill:#500;stroke:#960000;stroke-width:.5;stroke-linecap:butt;stroke-linejoin:miter;stroke-miterlimit:4;stroke-dasharray:none;stroke-opacity:1" d="M37.266 35.61h10.462m-15.693 9.06 5.231-9.06m5.231 9.06-5.231-9.06m5.231 9.06 5.23-9.06m5.232 9.06-5.231-9.06m5.231 9.06 5.23-9.06m5.231 9.06-5.23-9.06m5.23 9.06 5.231-9.06m5.231 9.06-5.23-9.06m-20.924 0H58.19m0 0h10.46" transform="translate(-112.795 -16.103)"/><path style="fill:none;stroke:#000;stroke-width:.5;stroke-linecap:butt;stroke-linejoin:miter;stroke-miterlimit:4;stroke-dasharray:none;stroke-opacity:1" d="m37.266 35.61 5.23-9.06m5.232 9.06-5.231-9.06m5.231 9.06 5.23-9.06m5.232 9.06-5.231-9.06m5.231 9.06 5.23-9.06m5.231 9.06-5.23-9.06m-20.924 0h10.462m0 0H63.42m-15.692-9.06 5.23-9.06m5.232 9.06-5.231-9.06M42.497 26.55l5.23-9.06m5.232 9.06-5.231-9.06m5.231 9.06 5.23-9.06m5.231 9.06-5.23-9.06m-10.462 0H58.19" transform="translate(-112.795 -16.103)"/><text xml:space="preserve" style="font-style:normal;font-weight:400;font-size:4.23333311px;line-height:1.25;font-family:sans-serif;letter-spacing:0;word-spacing:0;fill:#960000;fill-opacity:1;stroke:none;stroke-width:.26458332" x="33.687" y="49.396" transform="translate(-112.795 -16.103)"><tspan x="33.687" y="49.396" style="fill:#960000;fill-opacity:1;stroke-width:.26458332">1</tspan></text><text xml:space="preserve" style="font-style:normal;font-weight:400;font-size:4.23333311px;line-height:1.25;font-family:sans-serif;letter-spacing:0;word-spacing:0;fill:#960000;fill-opacity:1;stroke:none;stroke-width:.26458332" x="38.614" y="49.603" transform="translate(-112.795 -16.103)"><tspan x="38.614" y="49.603" style="fill:#960000;fill-opacity:1;stroke-width:.26458332">2</tspan></text><text xml:space="preserve" style="font-style:normal;font-weight:400;font-size:4.23333311px;line-height:1.25;font-family:sans-serif;letter-spacing:0;word-spacing:0;fill:#960000;fill-opacity:1;stroke:none;stroke-width:.26458332" x="43.796" y="49.736" transform="translate(-112.795 -16.103)"><tspan x="43.796" y="49.736" style="fill:#960000;fill-opacity:1;stroke-width:.26458332">3</tspan></text><text xml:space="preserve" style="font-style:normal;font-weight:400;font-size:4.23333311px;line-height:1.25;font-family:sans-serif;letter-spacing:0;word-spacing:0;fill:#960000;fill-opacity:1;stroke:none;stroke-width:.26458332" x="48.971" y="49.67" transform="translate(-112.795 -16.103)"><tspan x="48.971" y="49.67" style="fill:#960000;fill-opacity:1;stroke-width:.26458332">4</tspan></text><text xml:space="preserve" style="font-style:normal;font-weight:400;font-size:4.23333311px;line-height:1.25;font-family:sans-serif;letter-spacing:0;word-spacing:0;fill:#960000;fill-opacity:1;stroke:none;stroke-width:.26458332" x="59.528" y="49.603" transform="translate(-112.795 -16.103)"><tspan x="59.528" y="49.603" style="fill:#960000;fill-opacity:1;stroke-width:.26458332">6</tspan></text><text xml:space="preserve" style="font-style:normal;font-weight:400;font-size:4.23333311px;line-height:1.25;font-family:sans-serif;letter-spacing:0;word-spacing:0;fill:#960000;fill-opacity:1;stroke:none;stroke-width:.26458332" x="64.844" y="49.67" transform="translate(-112.795 -16.103)"><tspan x="64.844" y="49.67" style="fill:#960000;fill-opacity:1;stroke-width:.26458332">7</tspan></text><text xml:space="preserve" style="font-style:normal;font-weight:400;font-size:4.23333311px;line-height:1.25;font-family:sans-serif;letter-spacing:0;word-spacing:0;fill:#960000;fill-opacity:1;stroke:none;stroke-width:.26458332" x="69.952" y="49.603" transform="translate(-112.795 -16.103)"><tspan x="69.952" y="49.603" style="fill:#960000;fill-opacity:1;stroke-width:.26458332">8</tspan></text><text xml:space="preserve" style="font-style:normal;font-weight:400;font-size:4.23333311px;line-height:1.25;font-family:sans-serif;letter-spacing:0;word-spacing:0;fill:#960000;fill-opacity:1;stroke:none;stroke-width:.26458332" x="41.172" y="34.757" transform="translate(-112.795 -16.103)"><tspan x="41.172" y="34.757" style="fill:#960000;fill-opacity:1;stroke-width:.26458332">9</tspan></text><text xml:space="preserve" style="font-style:normal;font-weight:400;font-size:4.23333311px;line-height:1.25;font-family:sans-serif;letter-spacing:0;word-spacing:0;fill:#960000;fill-opacity:1;stroke:none;stroke-width:.26458332" x="50.326" y="34.791" transform="translate(-112.795 -16.103)"><tspan x="50.326" y="34.791" style="fill:#960000;fill-opacity:1;stroke-width:.26458332">10</tspan></text><text xml:space="preserve" style="font-style:normal;font-weight:400;font-size:4.23333311px;line-height:1.25;font-family:sans-serif;letter-spacing:0;word-spacing:0;fill:#960000;fill-opacity:1;stroke:none;stroke-width:.26458332" x="60.753" y="34.859" transform="translate(-112.795 -16.103)"><tspan x="60.753" y="34.859" style="fill:#960000;fill-opacity:1;stroke-width:.26458332">11</tspan></text><text xml:space="preserve" style="font-style:normal;font-weight:400;font-size:4.23333311px;line-height:1.25;font-family:sans-serif;letter-spacing:0;word-spacing:0;fill:#960000;fill-opacity:1;stroke:none;stroke-width:.26458332" x="54.334" y="49.596" transform="translate(-112.795 -16.103)"><tspan x="54.334" y="49.596" style="fill:#960000;fill-opacity:1;stroke-width:.26458332">5</tspan></text><path style="fill:none;stroke:#000;stroke-width:.5;stroke-linecap:butt;stroke-linejoin:miter;stroke-miterlimit:4;stroke-dasharray:none;stroke-opacity:1" d="m113.011 43.408 5.231-9.06m5.231 9.06-5.231-9.06m5.231 9.06 5.23-9.06m5.232 9.06-5.231-9.06m5.231 9.06 5.23-9.06m5.232 9.06-5.231-9.06m-20.924 0h10.462m0 0h10.462m-15.693-9.06 5.23-9.06m5.232 9.06-5.231-9.06m-10.462 18.12 5.23-9.06m5.232 9.06-5.231-9.06m5.231 9.06 5.23-9.06m5.232 9.06-5.231-9.06m-10.462 0h10.462" transform="translate(-112.795 -16.103)"/></svg>