<svg xmlns="http://www.w3.org/2000/svg" width="408.762" height="189.359" viewBox="0 0 108.151 50.101"><path style="fill:none;stroke:#000;stroke-width:.5;stroke-linecap:butt;stroke-linejoin:miter;stroke-miterlimit:4;stroke-dasharray:none;stroke-opacity:1" d="M57.412 46.915h56.953m-56.953 0L97.684 6.643" transform="translate(-18.144 -1.8)"/><path style="fill:none;stroke:#000;stroke-width:.5;stroke-linecap:butt;stroke-linejoin:miter;stroke-miterlimit:4;stroke-dasharray:1.50000004,1.50000004;stroke-dashoffset:0;stroke-opacity:1" d="m97.684 6.643 16.68 40.272" transform="translate(-18.144 -1.8)"/><path style="fill:none;stroke:#000;stroke-width:.5;stroke-linecap:butt;stroke-linejoin:miter;stroke-miterlimit:4;stroke-dasharray:none;stroke-dashoffset:0;stroke-opacity:1" d="m97.684 6.643 28.285 11.716m0 .001-11.716 28.284" transform="translate(-18.144 -1.8)"/><path style="opacity:1;vector-effect:none;fill:none;fill-opacity:1;stroke:#000;stroke-width:.5;stroke-linecap:round;stroke-linejoin:miter;stroke-miterlimit:4;stroke-dasharray:none;stroke-dashoffset:0;stroke-opacity:1" d="M61.502 42.824a5.785 5.785 0 0 1 1.695 4.091h-5.785z" transform="translate(-18.144 -1.8)"/><path style="opacity:1;vector-effect:none;fill:none;fill-opacity:1;stroke:#000;stroke-width:.5;stroke-linecap:round;stroke-linejoin:miter;stroke-miterlimit:4;stroke-dasharray:none;stroke-dashoffset:0;stroke-opacity:1" d="M47.61-91.797a5.785 5.785 0 0 1 1.695 4.091h-5.786z" transform="rotate(67.5 -7.725 -14.478)"/><path style="opacity:1;vector-effect:none;fill:none;fill-opacity:1;stroke:#000;stroke-width:.5;stroke-linecap:round;stroke-linejoin:miter;stroke-miterlimit:4;stroke-dasharray:none;stroke-dashoffset:0;stroke-opacity:1" d="M4.72 119.315a5.785 5.785 0 0 1 1.694 4.09H.63z" transform="rotate(-67.5 -10.42 12.677)"/><path style="opacity:1;vector-effect:none;fill:none;fill-opacity:1;stroke:#000;stroke-width:.5;stroke-linecap:round;stroke-linejoin:miter;stroke-miterlimit:4;stroke-dasharray:none;stroke-dashoffset:0;stroke-opacity:1" transform="rotate(22.5 -4.546 -46.509)" d="M120.224-31.245h3.182v3.182h-3.182z"/><path style="fill:none;stroke:#000;stroke-width:.5;stroke-linecap:butt;stroke-linejoin:miter;stroke-miterlimit:4;stroke-dasharray:none;stroke-opacity:1" d="M97.684 6.643H40.73m56.954 0L57.412 46.915" transform="translate(-18.144 -1.8)"/><path style="fill:none;stroke:#000;stroke-width:.5;stroke-linecap:butt;stroke-linejoin:miter;stroke-miterlimit:4;stroke-dasharray:1.50000004,1.50000004;stroke-dashoffset:0;stroke-opacity:1" d="M57.412 46.915 40.73 6.643" transform="translate(-18.144 -1.8)"/><path style="fill:none;stroke:#000;stroke-width:.5;stroke-linecap:butt;stroke-linejoin:miter;stroke-miterlimit:4;stroke-dasharray:none;stroke-dashoffset:0;stroke-opacity:1" d="M57.412 46.915 29.126 35.199m0 0L40.842 6.914" transform="translate(-18.144 -1.8)"/><path style="opacity:1;vector-effect:none;fill:none;fill-opacity:1;stroke:#000;stroke-width:.5;stroke-linecap:round;stroke-linejoin:miter;stroke-miterlimit:4;stroke-dasharray:none;stroke-dashoffset:0;stroke-opacity:1" d="M-93.593-10.734a5.785 5.785 0 0 1 1.695 4.091h-5.786z" transform="rotate(180 -9.072 -.9)"/><path style="opacity:1;vector-effect:none;fill:none;fill-opacity:1;stroke:#000;stroke-width:.5;stroke-linecap:round;stroke-linejoin:miter;stroke-miterlimit:4;stroke-dasharray:none;stroke-dashoffset:0;stroke-opacity:1" d="M-61.223 30.997a5.785 5.785 0 0 1 1.694 4.09h-5.785z" transform="rotate(-112.5 -9.674 5.161)"/><path style="opacity:1;vector-effect:none;fill:none;fill-opacity:1;stroke:#000;stroke-width:.5;stroke-linecap:round;stroke-linejoin:miter;stroke-miterlimit:4;stroke-dasharray:none;stroke-dashoffset:0;stroke-opacity:1" d="M-5.152-44.47a5.785 5.785 0 0 1 1.695 4.09h-5.785z" transform="rotate(112.5 -8.47 -6.962)"/><path style="opacity:1;vector-effect:none;fill:none;fill-opacity:1;stroke:#000;stroke-width:.5;stroke-linecap:round;stroke-linejoin:miter;stroke-miterlimit:4;stroke-dasharray:none;stroke-dashoffset:0;stroke-opacity:1" transform="rotate(-157.5 -9.251 .904)" d="M-43.561-21.373h3.182v3.182h-3.182z"/><path style="fill:none;stroke:#000;stroke-width:.5;stroke-linecap:butt;stroke-linejoin:miter;stroke-miterlimit:4;stroke-dasharray:1.50000004,1.50000004;stroke-dashoffset:0;stroke-opacity:1" d="M57.412 46.915H28.935M126.16 6.643H97.684M29.126 35.199V6.722m96.843 40.114V18.359m0 28.477h-11.79M40.916 6.722h-11.79m0 40.266v-11.79m96.843-16.838V6.57" transform="translate(-18.144 -1.8)"/><path style="opacity:1;vector-effect:none;fill:none;fill-opacity:1;stroke:#000;stroke-width:.5;stroke-linecap:round;stroke-linejoin:miter;stroke-miterlimit:4;stroke-dasharray:none;stroke-dashoffset:0;stroke-opacity:1" transform="rotate(-179.9 -9.073 -.892)" d="M-32.392-46.855h3.182v3.182h-3.182zm.072 37.002h3.182v3.182h-3.182zm-93.663.248h3.182v3.182h-3.182zm-.068-37.011h3.182v3.182h-3.182z"/><text xml:space="preserve" style="font-style:normal;font-weight:400;font-size:4.23333311px;line-height:1.25;font-family:sans-serif;letter-spacing:0;word-spacing:0;fill:#000;fill-opacity:1;stroke:none;stroke-width:.26458332" x="20.543" y="42.244" transform="translate(-18.144 -1.8)"><tspan x="20.543" y="42.244" style="stroke-width:.26458332">8,3</tspan></text><text xml:space="preserve" style="font-style:normal;font-weight:400;font-size:4.23333311px;line-height:1.25;font-family:sans-serif;letter-spacing:0;word-spacing:0;fill:#000;fill-opacity:1;stroke:none;stroke-width:.26458332" x="37.703" y="51.41" transform="translate(-18.144 -1.8)"><tspan x="37.703" y="51.41" style="stroke-width:.26458332">20,0</tspan></text><text xml:space="preserve" style="font-style:normal;font-weight:400;font-size:4.23333311px;line-height:1.25;font-family:sans-serif;letter-spacing:0;word-spacing:0;fill:#000;fill-opacity:1;stroke:none;stroke-width:.26458332" x="63.62" y="45.438" transform="translate(-18.144 -1.8)"><tspan x="63.62" y="45.438" style="stroke-width:.26458332">45<tspan style="font-size:2.75166631px;baseline-shift:super;stroke-width:.26458332">o</tspan></tspan></text><text xml:space="preserve" style="font-style:normal;font-weight:400;font-size:4.23333311px;line-height:1.25;font-family:sans-serif;letter-spacing:0;word-spacing:0;fill:#000;fill-opacity:1;stroke:none;stroke-width:.26458332" x="84.145" y="51.345" transform="translate(-18.144 -1.8)"><tspan x="84.145" y="51.345" style="stroke-width:.26458332">40,0</tspan></text><text xml:space="preserve" style="font-style:normal;font-weight:400;font-size:4.23333311px;line-height:1.25;font-family:sans-serif;letter-spacing:0;word-spacing:0;fill:#000;fill-opacity:1;stroke:none;stroke-width:.26458332" x="117.258" y="51.318" transform="translate(-18.144 -1.8)"><tspan x="117.258" y="51.318" style="stroke-width:.26458332">8,3</tspan></text><text xml:space="preserve" style="font-style:normal;font-weight:400;font-size:4.23333311px;line-height:1.25;font-family:sans-serif;letter-spacing:0;word-spacing:0;fill:#000;fill-opacity:1;stroke:none;stroke-width:.26458332" x="17.834" y="23.752" transform="translate(-18.144 -1.8)"><tspan x="17.834" y="23.752" style="stroke-width:.26458332">20,0</tspan></text><text xml:space="preserve" style="font-style:normal;font-weight:400;font-size:4.23333311px;line-height:1.25;font-family:sans-serif;letter-spacing:0;word-spacing:0;fill:#000;fill-opacity:1;stroke:none;stroke-width:.26458332" x="63.833" y="4.943" transform="translate(-18.144 -1.8)"><tspan x="63.833" y="4.943" style="stroke-width:.26458332">40,0</tspan></text><text xml:space="preserve" style="font-style:normal;font-weight:400;font-size:4.23333311px;line-height:1.25;font-family:sans-serif;letter-spacing:0;word-spacing:0;fill:#000;fill-opacity:1;stroke:none;stroke-width:.26458332" x="75.928" y="31.212" transform="translate(-18.144 -1.8)"><tspan x="75.928" y="31.212" style="stroke-width:.26458332">40,0</tspan></text><text xml:space="preserve" style="font-style:normal;font-weight:400;font-size:4.23333311px;line-height:1.25;font-family:sans-serif;letter-spacing:0;word-spacing:0;fill:#000;fill-opacity:1;stroke:none;stroke-width:.26458332" x="46.612" y="42.055" transform="translate(-18.144 -1.8)"><tspan x="46.612" y="42.055" style="stroke-width:.26458332">45<tspan style="font-size:2.75166631px;baseline-shift:super;stroke-width:.26458332">o</tspan></tspan></text><text xml:space="preserve" style="font-style:normal;font-weight:400;font-size:4.23333311px;line-height:1.25;font-family:sans-serif;letter-spacing:0;word-spacing:0;fill:#000;fill-opacity:1;stroke:none;stroke-width:.26458332" x="36.974" y="17.77" transform="translate(-18.144 -1.8)"><tspan x="36.974" y="17.77" style="stroke-width:.26458332">45<tspan style="font-size:2.75166631px;baseline-shift:super;stroke-width:.26458332">o</tspan></tspan></text><text xml:space="preserve" style="font-style:normal;font-weight:400;font-size:4.23333311px;line-height:1.25;font-family:sans-serif;letter-spacing:0;word-spacing:0;fill:#000;fill-opacity:1;stroke:none;stroke-width:.26458332" x="84.315" y="11.628" transform="translate(-18.144 -1.8)"><tspan x="84.315" y="11.628" style="stroke-width:.26458332">45<tspan style="font-size:2.75166631px;baseline-shift:super;stroke-width:.26458332">o</tspan></tspan></text><text xml:space="preserve" style="font-style:normal;font-weight:400;font-size:4.23333311px;line-height:1.25;font-family:sans-serif;letter-spacing:0;word-spacing:0;fill:#000;fill-opacity:1;stroke:none;stroke-width:.26458332" x="100.946" y="14.652" transform="translate(-18.144 -1.8)"><tspan x="100.946" y="14.652" style="stroke-width:.26458332">45<tspan style="font-size:2.75166631px;baseline-shift:super;stroke-width:.26458332">o</tspan></tspan></text><text xml:space="preserve" style="font-style:normal;font-weight:400;font-size:4.23333311px;line-height:1.25;font-family:sans-serif;letter-spacing:0;word-spacing:0;fill:#000;fill-opacity:1;stroke:none;stroke-width:.26458332" x="111.057" y="38.937" transform="translate(-18.144 -1.8)"><tspan x="111.057" y="38.937" style="stroke-width:.26458332">45<tspan style="font-size:2.75166631px;baseline-shift:super;stroke-width:.26458332">o</tspan></tspan></text></svg>