<svg xmlns="http://www.w3.org/2000/svg" width="133.5" height="202" style="enable-background:new 0 0 133.5 202" xml:space="preserve"><path d="M19.27 36.94c-.03-.11-.07-3.21-.09-4.35l-.12-7.76c0-.26-.11-.52-.29-.71-.59-.63-1.74-.16-1.71.71.03 1.84.06 3.68.08 5.51-.04-.01-.09-.02-.13-.01-.26 0-.48.11-.68.26-.43-.03-3.08.2-4.16.19.32-1.56.38-3.17.56-4.74.01-.64.35-1.41-.17-1.92-.59-.63-1.74-.15-1.71.71-.3 2.58-.28 4.59-.87 6.56-.38 1.72 1.87 1.39 2.95 1.38 1.01-.02 2.02-.16 3.03-.16.4.02.84-.03 1.21-.2l.06 3.64c-.04.38.17 1.9.18 1.95.03.45.16.95.64 1.1.44.22 1 0 1.25-.41.3-.54.01-1.18-.03-1.75zM60.46 36c-.4-.23-.88-.09-1.31-.17-1.35-.14-2.7-.25-4.06-.3.77-.8 1.54-1.6 2.3-2.41 1.46-1.81 2.46-4.13 1.93-6.48-.26-1.57-1.2-2.75-2.91-2.52-1.78.13-2.96 1.59-3.79 3.03-.25.47-.71.95-.54 1.52.2.83 1.42.99 1.83.24.89-1.45 1.22-2.18 2.06-2.62.19-.08.39-.15.59-.18h.27c.08.01.16.04.24.06.01.01.02.02.03.04.32.51.73 3-.53 4.56-.98 1.74-3.03 3.31-4.72 5.31-.21.22-.34.54-.28.84.06.72.94 1.09 1.56.81.57-.19.56-.14.62-.16 1.67-.15 3.35.12 5.02.23.62.05 1.38.26 1.88-.22.47-.45.36-1.26-.19-1.58zm21.41-7.78c-.45-1.12-1.07-2.39-2.31-2.77a.937.937 0 0 0-.48-.11c-2.39-.56-5 .01-7.03 1.36-.27.14-.66 1.2-.69 1.33-.38.8-.86 1.57-1.01 2.46-.27 1.59-.15 2.78.23 3.74.83.98 1.74 2 2.96 2.48 1.48.38 1.96.64 3.29.14 2.14-.82 4.01-2.52 4.76-4.72.33-1.26.66-2.63.28-3.91zm-4.24 5.92c-1.01.65-.98.69-1.92.98-.02 0-.05 0-.06-.01-.05-.01-.11-.01-.16-.02-1.3-.1-1.83-.42-3.17-1.87-.17-1.11-.2-1.56.02-2.53.12-.65.68-1.3 1.05-2.46.01-.03.03-.05.04-.08.08-.04.15-.07.23-.11.63-.32.96-.48 1.06-.51 1.9-.58 2.35-.5 3.96-.29.22.1.39.1.43.17.03.02.06.04.1.06l.03.03c.65.99.79 1.34.8 1.68.06 2.04-.9 4.08-2.41 4.96zm23.78-8.01c-.42-.48-.86-.96-1.5-1.14-1.15-.37-1.69-.01-1.83.49-.86-.08-1.73-.05-2.58.04-1.14.06-2.34.35-2.98 1.38-2.28 2.27-2.51 6.5-.17 8.79 1.17 1.23 2.92 1.21 4.5 1.24 3.54-.13 6.29-3.66 6.42-7.05-.12-1.42-.89-2.73-1.86-3.75zm-1.51 7.13c-.84.93-1.73 1.43-2.57 1.65.56.01-1.79.03-2.26-.05-.34-.05-.54-.05-.98-.32-.63-.37-1.51-1.81-1.37-3.05.13-1.81.27-2.12 1.64-3.69.02-.02.03-.03.05-.04.03-.02.06-.04.09-.05.1-.04.2-.07.3-.09 1.15-.29 3.24-.21 4.64.08.21-.02.37-.1.5-.22.68.74.99 1.26 1.25 2.03.37.74-.55 3-1.29 3.75zm20.53-5.55c.21-.9.59-1.99.05-2.84-.36-.54-1.22-.49-1.59.02-2.22-.38-4.51-.21-6.68.37-.44.13-.81.46-.96.9v.01s-.01.01-.05.09c-.73.73-1.4 2.13.44 3.48.56.35 1.17.57 1.8.76-1.2.65-2.45 1.52-3.07 2.51-.38.87-.45 1.92.03 2.77.94 1.03 2.29 1.68 3.61 2.09 1.86.52 3.67-.29 5.1-1.47.41-.34.87-.71 1.03-1.24.14-.63.02-1.3-.12-1.92-.36-1.1-1.08-1.98-1.95-2.69 1.1-.65 2-1.6 2.36-2.84zm-7.93.14.06-.09c.03-.03.06-.07.09-.11.1-.07.24-.32.34-.52 1.78-.43 2.83-.53 4.99-.38.04 0 .08.01.12.01.15.02.31.05.47.09-.35 1.34-.68 1.48-2.42 2.47-1.7-.76-3.23-.9-3.65-1.47zm5.71 6.67-.04.04c-.45.48-1.56 1.15-2.04 1.32-1.01.23-.95.17-1.88-.03-.59-.17-1.28-.54-2.17-1.19-.01-.04-.03-.09-.04-.13-.11-.73.9-1.5 2.98-2.65.08-.09.49-.19.97-.34.33.2.67.4.79.48.59.43 1.56 1.85 1.41 2.41.02.03.02.06.02.09z"/><path d="M125.68 20.27c-1.2-.06-2.26-.27-3.99-.19H110.8c-13.94.22-27.9.26-41.85.15-3.07-.21-5.85-.77-9.44-.71-4.32.12-8.62-.23-12.94-.18-1.04.01-1.57.18-2.03.18-1.26.05-2.58-.16-3.81.21-3.06.49-5.88 2.79-5.43 6.15-.11 3.46.27 7.64-.25 10.23-.02.32-1.31 1.84-1.91 2.21-.8.54-1.74.82-2.23 1.08-3.03.9-4.95.86-8.61 1.06-2.8.23-5.6.36-8.42.31-3.06-.03-6.11-.29-9.18-.19-.27 0-.52.11-.71.29-.62.58-.16 1.74.71 1.71 3.02-.1 6.03.15 9.05.19 3.15.07 6.29-.15 9.43-.36 4.99-.29 10-.24 13.27-4.69.97-1.42.81-3.27.85-4.91V24.7c.15-.51.01-.81.66-1.36 1.08-.93.99-1.05 2.13-1.37 1.6-.5 1.92-.46 3.6-.45 2.69-.1 5.16-.4 8.35-.05 4.68.17 10.51-.18 14.25.56 7.35.53 14.75.13 22.11.25 11.82.17 25.37-.53 36.19-.06.28.03.56.04.84.05l.01.01s-.01 0-.01-.01h.01c.38.25.92.22 1.24-.12.74-.77-.04-1.89-1-1.88zM61.16 75.09c-.44-.44-1.1-.25-1.66-.33h-.01c-.82-.14-1.64-.31-2.42-.61-.15-.08-.52-.27-.63-.35a4.97 4.97 0 0 0-.86-.44c1.06-1.08 2.08-2.19 2.96-3.42.88-1.09 1.52-2.42 1.31-3.85-.1-1.44-.64-1.79-1.21-2.62-.99-1.3-2.53-1.23-3.71-.22-1.01.69-1.7 1.71-2.3 2.76-.22.37-.51.77-.36 1.22.2.83 1.42.99 1.83.24.66-1.08.94-1.68 1.5-2.19.07-.08.28-.25.4-.35.22-.16.44-.31.69-.43.02-.01.03-.01.05-.02.02 0 .04-.01.05-.01.4.27.6.67.97 1.19.14.54.06.03.1.79.02.11.01.35.01.5-.59 2.26-3.4 4.44-5.56 7.01-.38.29-.68.66-.77 1.13-.14.73.69 1.43 1.38 1.09.26-.08.42-.3.55-.53a2 2 0 0 0 .19-.22c.15-.08.46-.22.64-.31.01 0 .01 0 .02-.01.22-.01.1-.01.66.12.59.33 1.15.72 1.8.92.87.3 1.77.48 2.68.59.45.01.95.14 1.38-.04.65-.21.81-1.15.32-1.61zm19.13-8.93c-.57-.7-1.22-.94-1.39-1.17-.36-.6-1.1-.68-1.56-.34-1.41-.21-2.88-.03-4.23.43-.73.17-1.34.56-1.66 1.26-2.1 2.82-2.13 7.44.7 9.79 1.52.82 3.4.76 5.05.44 2.24-.73 4.27-2.53 4.52-4.98.45-1.93-.21-3.91-1.43-5.43zm-1.5 7.18c-.42.51-.7.5-1.6 1.1-.09.06-.19.1-.29.15-1.13.4-3.14.12-3.47-.03-.26-.07-1.21-1.26-1.41-2.43-.14-.64-.01-2.94.54-3.79.19-.45.52-.81.77-1.22.57-.21 2.14-.68 3.44-.53.11.01.17.01.2.01.34.06.69.2 1.03.22 1 .72 1.49 1.47 1.85 2.96.12.61-.23 3-1.06 3.56zM59.27 93.56c-1.13-.14-2.28-.21-3.41-.06.44-.56.85-1.14 1.27-1.72 1.05-1.39 2.15-2.9 2.53-4.63.06-.9.01-1.87-.43-2.67-.76-1.08-2.19-1.93-3.5-1.41-1.45.65-2.64 1.85-3.57 3.11-.3.47-.82.92-.64 1.53.2.83 1.42.99 1.83.24 1.05-1.77 3.15-3.26 3.32-3.04.8.45 1 .27 1.03 2.01-.14.99-3.14 5.35-4.66 6.78-.43.47-1.2.78-1.29 1.47-.14.68.6 1.3 1.25 1.1 1.33-.59 1.17-.6 2.14-.66 1.28-.21 2.47-.26 4.23-.04.02.01.07.02.14.05.38.1.83-.03 1.05-.36.66-.92-.35-1.78-1.29-1.7zm23.15-5.3c-.26-1.66-1.72-2.86-2.45-3.4-.35-.21-.79-.43-1.21-.37-.22.01-.4.11-.54.25-2.05-.17-4.2.31-5.88 1.5-1.4 1.6-2.33 3.73-2.23 5.88.01 2.12 1.52 3.42 2.66 4.15 1.4.93 3.11.58 4.62.14 1.45-.5 2.94-1.37 3.72-2.74.5-.91.93-1.87 1.22-2.87.14-.83.11-1.69.09-2.54zm-3.02 4.38c-.42 1.14-3.06 2.18-4.34 2.24-1.06-.03-.92-.09-2.01-.88-.31-.25-.21-.1-.71-.86-.16-.27-.21-.66-.25-1.08-.03-.17.02-.8.03-1.03.4-1.59 1.05-2.73 1.58-3.31.28-.17 1.43-.74 2.78-.98.12-.01.33-.02.44-.01.62-.07 1.3.15 1.89-.05.05-.02.08-.05.13-.08.22.16.46.34.81.69.01.01.02.02.02.03.24.35.46.71.65 1.08.1 2.09-.18 2.65-1.02 4.24zm1.12-82.03c-.44-.72-.97-1.45-1.7-1.89-.19-.17-1.17-.33-1.4-.37-.94-.27-2.13.02-3.05.34.03-.84.09-1.67.16-2.51 1.43-.15 2.85-.37 4.28-.47.26 0 .52-.11.71-.29.63-.59.15-1.74-.71-1.71-1.84.15-3.66.43-5.49.6-.76.21-.81 1.01-.77 1.67-.11 1.39-.23 2.78-.19 4.18-.01.36.2.68.5.86.97.45 1.91-.51 2.23-.48 1.48-.51 1.65-.24 2.29-.19.12.01.39.1.52.14.13.11.25.22.35.35.66.85.99 1.36.94 2.65-.36.63-.15.38-.67.89-.12.12-.59.5-.69.58-.2.12-.44.22-.06.06-.17.14-.99.3-1.18.33-.64.08-1.17.18-1.57.18-.2-.02-.11-.01-.51-.07h-.02.01c-.02 0-.04-.01-.06-.02-.06-.03-.13-.07-.2-.11l-.03-.03c-.03-.04-.06-.09-.09-.13-.03-.07-.05-.12-.07-.15l-.02-.04c-.09-1.08-1.69-1.21-1.96-.17-.13.72.3 1.46.78 1.97 1.65 1.25 2.92.59 4.16.51 1.76-.22 3.35-1.53 4.06-3.13.35-1.18.01-2.48-.55-3.55zm-6.02 4.86c.02 0 .01 0 0 0s-.01 0 0 0zm10.96 84.52c-2.88-.01-5.76-.03-8.63.15-2.29-.21-4.58-.17-6.88-.11-2.29.24-4.6.08-6.9.19-2.26.41-4.88.33-7.79.52-3.3.11-6.66-.23-9.94-.1-.99.36-.67 1.95.39 1.91 4.81.28 9.62.17 14.43.01 2.57-.27 4.1-.48 6.94-.38 3.32-.15 6.65-.32 9.97-.03 2.92-.3 5.9.01 8.79-.24 1-.36.68-1.96-.38-1.92zm-3.6 9.6c-.51-1.05-.36-.99-.82-2.11-.51-.68-.81-.76-1.05-.98-.5-.6-1.35-.66-1.75-.16-3.39-.95-6.22-.04-7.47 3.53-2.03 4.16 1.66 8.78 6.15 8.04 3.81-.71 6.84-4.53 4.94-8.32zm-2.01 4.31c-2.04 2.83-7.06 3.06-7.67-1.48-.01-.07-.01-.16-.01-.23.05-.24.1-.48.14-.71.15-.79 1.02-2.4 1.42-2.79.13-.1.27-.19.41-.27.08-.06.28-.16.41-.23l.27-.09.3-.06c.02 0 .03 0 .05-.01.76-.07 1.72.03 1.72.04.61.07 1.26.52 1.86.17.04-.02.07-.06.11-.09.18.13.35.23.44.31l.01.01c.33 1.17.88 2.09 1.03 2.67.2.93.09 1.87-.49 2.76zm20.23-7.22a.919.919 0 0 0-.6-.18.926.926 0 0 0-.66-.64c-1.61-.51-3.34-.6-4.99-.22-.56.09-1.08.35-1.46.77-2.08 2.1-3.97 5.22-3.05 8.25.89 2.61 4.09 3.53 6.56 2.85 2.1-.67 4.5-1.35 5.67-3.37 1.55-2.69.9-5.84-1.47-7.46zm-1.03 7.35c-.65.6-4.52 2.07-5.45 1.65-3.26-.54-3.18-3.42-.98-6.51.3-.5 1.14-1.4 1.44-1.56.5-.12 2.85-.42 4.23.18.1.03.19.02.28.02.43.84.54.42 1.13 1.15.78.98 1.21 3.57-.65 5.07zm3.43 15.48c-.75-2.41-2.21-3.19-3.92-4.13-.03-.02-.07-.03-.1-.05-.22-.37-.65-.62-1.12-.48-2.1.21-4.25 1.01-5.65 2.65-1.13 1.73-1.2 4.39-.87 5.54 1.31 3.43 5.87 4.38 9.01 3.04 2.28-1.28 3.02-4.12 2.65-6.57zm-2.47 3.73c-.03.05-.06.09-.09.13-.14.14-.59.59-.72.7-.06.06-.13.12-.2.18-.02.01-.04.02-.05.03-1.85.5-2.18.58-4.07.06-.39-.04-1.84-1.19-2.08-1.65-.03-.11-.06-.23-.07-.34-.08-.66-.12-.66-.12-.85 0-.07 0-.15.01-.22.2-1.31.25-1.8.75-2.67.07-.07.16-.16.23-.22 1.39-.95 1.87-1.25 3.4-1.46.05-.01.1-.01.15-.02.13.1.28.17.44.23.13.08.51.3.63.38 2.6 1.14 2.8 3.3 1.79 5.72zm6.92 6.02c-.42-.25-.87-.08-1.31.02-4.62.34-12.15.15-17.79.21-4.04.3-8.09.47-12.13.69-3.41.19-6.87.11-10.25.33-.99.35-.67 1.95.39 1.91 7.7.02 15.39-.59 23.07-.94 5.92-.14 11.91.37 17.79-.39.82-.2.98-1.42.23-1.83zm-6.94 6.91c-.63-.56-1.4-.54-1.78-.14-1.74-.51-3.59-.35-5.33.07-.56.04-1.05.37-1.35.84-1.38 2.01-2.8 4.6-1.61 7.02 1.24 2.05 3.75 3.32 6.14 3.07 1.66-.08 3.03-1.17 4.17-2.29.83-.75 1.08-1.87 1.22-2.94.14-.85.43-1.65.36-2.53-.06-1.24-.8-2.41-1.82-3.1zm-.22 4.02c-.31.89-.29 1.86-.64 2.74-.02.03-.03.06-.06.1-1.27 1.41-2.4 1.97-3.06 1.99-1.85.29-3.58-.95-4.26-1.87-.25-.31-.38-1.64-.18-2.09.02-.11.59-1.31.99-2.09.19-.31.4-.61.61-.91.49-.1.97-.21 1.46-.28.33-.03 1.34-.1 1.6-.07.11 0 .36.02.49.02.53.08 1.05.36 1.59.31.21-.02.38-.11.51-.22.32.2.42.18.68.67.35.53.27.61.31.77-.01.32-.02.63-.04.93zm1.84-143.3c-.17-.48-.5-.87-.83-1.26-.27-.4-.57-.79-1-1.02-.58-.41-1.21-.28-1.56.08a.852.852 0 0 0-.23-.03c-1.71.17-3.77.02-5.06 1.36-.71.87-1.31 1.83-1.8 2.83-.27.7-.52 1.42-.64 2.16-.02.22-.09.65-.02.15-.35 1.06-.03 2.14.19 3.2.69 1.7 2.71 2.85 4.5 2.98 1.02.24 1.96-.23 2.75-.82 2.11-1.22 3.51-2.56 3.96-4.59.44-1.68.16-3.4-.26-5.04zm-1.92 5.36c-.02.04-.05.09-.09.13.01-.01.01-.02.02-.03-.5.67-.53.81-1.42 1.58-.5.42-.15.18-.89.61-.48.24-.89.6-1.38.83-.01 0-.01 0-.02.01-.78.07-2.2-.27-3.17-1.36-.19-.18-.15-.21-.38-1.32-.01-.07-.04-.19-.05-.28-.01-.09-.02-.19-.01-.29.05-.23.11-.45.13-.69-.01.06-.02.13-.02.16.34-1.81.77-2.51 1.88-4.1.09-.08.24-.23.32-.32.05-.03.09-.06.14-.08 1.46-.42 1.76-.34 3.25-.46.26 0 .52-.11.71-.29.02-.01.02-.03.04-.05.03.01.06.02.12.06l.07.07.29.41c.51.7.42.31.63 1.21.3 1.94.45 2.14-.17 4.2zm18.18 138.8c.71-.48 1.37-1.02 1.92-1.7.3-.42 1.08-1.43 1.12-2.6-.03-.55-.59-.91-1.11-.85-.08-.41-.39-.78-.94-.78-1.45-.11-2.9-.17-4.31.24-.88.16-1.8.49-2.32 1.26-.53.77-.82 1.83-.35 2.69.34.9 1.17 1.41 1.95 1.9-.75.5-1.45 1.05-2 1.78-1.56 2.37.82 4.31 3.04 4.76 1.06.2 2.11-.15 3.14-.35.83-.14 1.61-.57 2.07-1.29.53-.89.35-2.03.11-2.98-.41-.98-1.35-1.68-2.32-2.08zm-4.02-2.28c-.06-.11-.13-.24-.18-.34l-.03-.09c.03-.13.06-.26.11-.38.27-.74 2.65-1.07 5.04-.84-.06.14-.12.29-.18.43-.01.03-.08.17-.17.28-.11.15.04-.05.1-.13-.14.17-.26.34-.39.51l-.16.16c-.7.64-.53.49-1.06.89-.38.28-.79.53-1.2.77-.78-.44-1.52-.93-1.88-1.26zm4.35 6.48c-.02.01-.03.02-.06.04-.04.03-.08.05-.13.07-.15 0-1.98.52-2.67.45-.12-.02-.38-.06-.48-.11-.03-.01-.04-.01-.06-.02-.38-.2-.76-.4-1.12-.65l-.2-.2a1.35 1.35 0 0 1-.15-.26c.01-.07.03-.15.06-.22.04-.09.12-.25.17-.35.44-.49.31-.36.68-.63.5-.38 1.03-.72 1.57-1.05.44.22.89.42 1.36.58.11.05.23.1.33.16.36.25.62.44.82.77.02.07.05.17.05.24 0 .02 0 .02.01.03.01.06.01.12.02.18.02.15.02.51.03.65-.01.04-.01.07-.03.11-.01.01-.01.02-.02.03 0 .01-.01.01-.01.01-.02.02-.05.05-.09.1-.03.03-.06.05-.08.07zm.15 15.31c.41-.38.79-.79 1.14-1.21.62-.85.54-1.01.81-1.59.14-.23.17-.51.1-.77-.11-.43-.45-.65-.81-.7-.1-.3-.32-.57-.66-.65-1.63-.57-3.44-.59-5.13-.26-.58.11-1.24.28-1.53.85-.3 1.06-.38.91-.54 1.73.03.9.5 1.79 1.26 2.3.29.24.59.42.89.57-.62.33-1.23.77-1.58 1.44-.33.86-.76 1.8-.54 2.73.11.55.23 1.16.72 1.51 1.65 1.79 4.79 1.84 6.85.76 3.38-2.11 1.46-4.94-.98-6.71zm-1.04-3.28c.11.02.23.04.3.05.21.06.43.15.65.21-.37.74-1.08 1.47-1.82 2.03-.85-.27-1.65-.42-1.99-.71-.06-.04-.16-.12-.25-.18-.11-.08-.2-.18-.29-.28-.02-.03-.04-.07-.06-.1-.02-.06-.06-.15-.08-.23.07-.17.17-.44.25-.67 1.08-.28 1.78-.27 3.29-.12zm.34 8.55c-.76.2-2.57.2-3.13-.22-.35-.24-.25-.18-.7-.58-.05-.17-.09-.35-.13-.52v-.04c.08-.42.22-.84.36-1.24.01-.02.03-.04.04-.06.02-.02.03-.03.05-.06.74-.79.78-.52 2.33-1.22.05-.02.09-.06.14-.08.09.05.18.1.26.17 2.44 1.75 3.19 2.99.78 3.85zm8.81 4.64c-4.32 0-7.47.3-11.98.19-5.72.08-11.44.19-17.16.38-3.84.11-7.74-.19-11.56-.1-.99.36-.67 1.95.39 1.91 8.05.37 16.11.09 24.15-.16 3.7-.07 7.39-.01 11.09-.03 1.27-.23 3.28-.19 5.28-.19 1.4-.04 1.21-2.19-.21-2zm-4.09 10.14c-.28-1.44-1.52-3.04-2.65-3.95-.57-.3-1.17-.87-1.85-.71-.31.08-.54.3-.65.58-1.73.1-3.74.36-5.06 1.32-.91 1.56-1.37 1.99-1.83 3.52-.69 4.02 2.57 5.7 6.07 5.94 3.78.39 6.33-2.89 5.97-6.7zm-3.29 3.98c-.64.91-3.73 1.11-6.05-.32-.05-.06-.14-.16-.2-.23-.17-.23-.33-.47-.45-.73-.06-.22-.11-.58-.04-.12-.07-.2-.07-.99-.07-1.22.06-.28.16-.55.26-.83.01-.02.01-.02.03-.05l-.03.04c.09-.14.95-1.49 1.08-1.85.01-.01.01-.02.02-.03.03-.02.06-.03.1-.05.28-.08 1.71-.49 2.1-.51.9-.15 1.02-.2 2.29-.19.18 0 .35-.07.51-.16.72.55 1.43 1.73 1.75 2.39.28.87-.3 3.07-1.3 3.86zm-4.6-179.76c.23-.29.36-.46.25-.34.07-.08.14-.17.21-.25 1.82-2.03 4.3-4.15 4.48-7.05-1.27-6.35-6.6-3.1-8.77.77-.65 1.13 1.06 2.13 1.73 1.01 1.35-2.23 3.06-3.55 4.16-3.32.01 0 .01.01.02.01.07.06.17.15.25.23.46.75.33.51.58 1.27.01.04.02.05.02.08 0 .15 0 .3-.02.44l-.03.09c-.09.16-.35.68-.43.83-.42.84-.7 1.21-.94 1.5-.9 1.16-2.86 3.07-3.14 3.59-.47.53-.88 1.12-1.43 1.57l.01-.01c-.08.07-.15.15-.18.22-.18.31-.18.7 0 1.01.35.61 1.13.54 1.73.44.85-.12 1.7-.12 2.55-.12 1.26-.01 1.92-.03 2.62.1.85.34 1.96.46 2.05-.74 0-1.44-3.24-1.48-5.72-1.33z"/></svg>