<svg xmlns="http://www.w3.org/2000/svg" width="396.71" height="96.866" viewBox="0 0 104.963 25.629"><path style="fill:none;stroke:#000;stroke-width:.5;stroke-linecap:butt;stroke-linejoin:miter;stroke-miterlimit:4;stroke-dasharray:none;stroke-opacity:1" d="M9.577 41.12h58.106L30.706 16.217z" transform="translate(-9.037 -15.885)"/><path style="opacity:1;fill:none;fill-opacity:1;stroke:#000;stroke-width:.40000001;stroke-linecap:round;stroke-miterlimit:4;stroke-dasharray:none;stroke-dashoffset:0;stroke-opacity:1" d="M13.78 36.2a6.472 6.472 0 0 1 2.268 4.92H9.577zm22.354-16.458a6.472 6.472 0 0 1-4.493 2.88 6.472 6.472 0 0 1-5.129-1.476l4.194-4.929zm23.009 21.299a8.281 8.281 0 0 1 1.416-4.63l6.866 4.63z" transform="translate(-9.037 -15.885)"/><path style="fill:none;stroke:#000;stroke-width:.40000001;stroke-linecap:butt;stroke-linejoin:miter;stroke-miterlimit:4;stroke-dasharray:none;stroke-opacity:1" d="m14.322 38.873 2.198-1.034M30.829 21.35l.119 2.703m.89-2.803.334 2.704m25.814 15.303 2.55.589m-2.25-1.567 2.467.895m-2.051-1.715 2.301 1.1" transform="translate(-9.037 -15.885)"/><path style="fill:none;stroke:#000;stroke-width:.5;stroke-linecap:butt;stroke-linejoin:miter;stroke-miterlimit:4;stroke-dasharray:none;stroke-opacity:1" d="M72.021 41.264h41.16l-26.193-17.64z" transform="translate(-9.037 -15.885)"/><path style="opacity:1;fill:none;fill-opacity:1;stroke:#000;stroke-width:.40000001;stroke-linecap:round;stroke-miterlimit:4;stroke-dasharray:none;stroke-dashoffset:0;stroke-opacity:1" d="M74.999 37.778a4.584 4.584 0 0 1 1.606 3.486h-4.584zm15.834-11.657a4.584 4.584 0 0 1-3.183 2.04 4.584 4.584 0 0 1-3.633-1.046l2.971-3.49zm16.299 15.087a5.866 5.866 0 0 1 1.003-3.28l4.863 3.28z" transform="translate(-9.037 -15.885)"/><path style="fill:none;stroke:#000;stroke-width:.40000001;stroke-linecap:butt;stroke-linejoin:miter;stroke-miterlimit:4;stroke-dasharray:none;stroke-opacity:1" d="m75.383 39.673 1.557-.733m10.135-11.68.084 1.915m.631-1.985.237 1.915m18.285 10.84 1.806.417m-1.594-1.111 1.748.635m-1.452-1.216 1.63.78" transform="translate(-9.037 -15.885)"/></svg>