<svg xmlns="http://www.w3.org/2000/svg" width="125.5" height="203" style="enable-background:new 0 0 125.5 203" xml:space="preserve"><path d="M15.13 29.99c-.27.04-.45.06-.64.09l.66-1.89c.39-1.52.53-1.76 1.35-3.14.73-1.17-.28-2.11-1.5-1.69.31-.13-3.3.42-3.46.41-1.76-.02-3.52.07-5.27.3-.37.02-.75.17-.94.51-.46.73.3 1.73 1.13 1.47 1.47-.25 5.89-.25 7.57-.6-.72 1.56-1.21 3.22-1.73 4.86-.79.07-1.58.13-2.36.23-.26 0-.52.11-.71.29-.63.59-.15 1.74.71 1.71.5-.06 1.07-.11 1.66-.17-.08.23-.15.46-.24.68-.38 1.43-.75 2.06-1.19 3.83-.26.83.73 1.59 1.47 1.13.58-.36.54-1.13.78-1.71.25-1.06.38-.94.7-2.13.21-.67.44-1.33.66-2 .52-.05.96-.1 1.22-.14.82-.16.34.02 1.12-.19.65-.22.81-1.16.32-1.62-.34-.37-.85-.31-1.31-.23zm39.46-.86c-.25-.15-.51-.26-.78-.36.25-.2.52-.44.94-.91 1.32-1.6-.16-3.77-1.69-4.6-1.48-.8-3.1-.42-3.92.02-.11.06-1.14.4-1.78 1-.65.59-1.07 1.4-1.47 2.18-.29.72-.84 1.58-.47 2.35.41.75 1.63.59 1.83-.24.66-2.68 2.01-3.39 3.67-3.81 1.05-.17 2.44 1.08 2.35 1.75v.01c0 .01-.01.02-.01.03-.63.75-2.15 1.73-2.3 2.07a.98.98 0 0 1-.22.13c.03-.02.11-.05.16-.07-.45.12-.8.62-.7 1.09.07.78.94 1 1.59.78.12-.02.19-.03.23-.04.03 0 .06-.01.11-.01 1.6.02 2.25.74 2.86 2.4.34 1.48.27 1.69-.9 2.92-.84.82-2.52 1.11-4.92.93-1.01-.21-1-.23-1.79-.66-.9-.88-2.36-.11-1.78 1.1 2.09 2.13 7.05 2.11 9.42.42 1.17-.83 2.08-2.14 2.14-3.61-.05-1.87-.93-3.88-2.57-4.87zm18.64.05c-1.21-.4-2.48-.32-3.72-.1-.57.09-1.18.21-1.74.42-.03-.54-.07-1.08-.16-1.62-.03-.53-.09-1.05-.17-1.57.16-.02.32-.05.48-.08 2.08-.41 4.17-.72 6.26-1.05.41-.03.86-.12 1.07-.52.46-.73-.3-1.73-1.13-1.47-2.14.31-4.28.66-6.4 1.05-.78.24-1.93.05-2.31.94-.26.88.23 1.62.14 1.87.03.85.19 1.69.24 2.54.07.76-.11 1.59.09 2.32.32.87 1.6.74 1.87-.09.01-.02.02-.04.04-.07.02-.02.05-.05.1-.09.38-.36 3.18-.98 4.09-.72 2.2.34 3.08 2.29 2.87 3.6 0 .99-1.87 2.25-2.74 2.57-.42.13-.09.04-.83.15-.19.07-.91.01-1.17-.01-.45-.07-.87-.25-1.29-.41l-.04-.02c-.39-.22-.78-.57-1.26-.41-.62.15-.93.92-.6 1.47.37.53 1.04.77 1.62.98 2.83 1.19 6.38-.21 7.89-2.83 1.32-2.71-.44-5.94-3.2-6.85zm23.86.87c-.89-1.08-2.36-1.4-3.63-1.8-1.28-.36-2.61-.15-3.87.19-.32.09-.64.2-.96.33-.01-1.08-.05-2.16-.29-3.21 0-.01 0-.02-.01-.04.18-.01.35-.03.52-.06 2.16-.67 4.11-.29 6.66-1.05.88-.6.14-2.07-.87-1.75-1.52.23-4.07.32-6.3.87-.29 0-1.31.04-1.49.21-1.03.67-.45 2.04-.32 3.05.01.11.03.27.04.36.15 1.33-.1 2.73.14 4.04.3.84 1.56.77 1.84-.03 0-.01.01-.01.01-.02l.01-.01c.32-.5 2.45-1.07 3.41-1.07.72-.02 2.61.59 3.27 1 .73.41 1.21 1.91.86 3.25-.5 1.47-2.41 2.73-4.59 2.78-1.44.08-1.8-.33-3.3-.92.1.04.15.06.17.07-.03-.01-.11-.05-.2-.1-.07-.07-.3-.26-.42-.29-.99-.49-1.89.97-1.05 1.67.97.71 2.04 1.16 3.55 1.51 2.95.36 6.34-.88 7.58-3.75.67-1.68.47-3.88-.76-5.23z"/><path d="M88.39 36.22c.01.01.02.01 0 0zm27.5-6.31c-1.89-1.37-4.63-.9-6.59.12.1-.29.21-.56.33-.77 1.04-2.4 2.17-3.35 3.8-5.46.47-.95-.9-1.87-1.62-1.09-2.33 2.52-4.37 5.44-4.99 8.88-.47 2.35-.77 5.65 2.07 6.54 1.62.71 3.55.96 5.23.31.8-.43 1.34-1.19 2.03-1.77 1.85-1.79 1.95-5.22-.26-6.76zm-.36 3.67c-.32 1.59-.66 1.44-2.15 2.96-.05.04-.11.08-.16.11-.74.2-2.05.24-2.81-.09-1.34-.55-1.34-.4-1.7-.99-.26-.38-.24-1.56-.05-2.84.05-.03.1-.05.14-.08 3.78-2.69 7.12-1.64 6.73.93z"/><path d="M121.59 20.44c-.11-.42-.53-.74-.96-.73h-3.4c-1.46-.02-2.92.05-4.38-.07-5.02-.11-10.03-.11-15.05-.17-5.1-.28-10.21-.17-15.31.03-2.63-.02-5.25.17-7.86.39-2.56.03-5.12.11-7.68.34-6.1-.08-12.17.4-18.27.21-3.51-.01-7.02.07-10.51-.18-2.5 0-4.32-.44-6.22.45-2.97 1.59-1.43 4.6-1.45 6.78.03 3.67-.26 6.08-.53 9.85-.12 1.48-1.46 2.8-2.86 2.89-2.06.28-3.69.18-6.23.23-2 .23-3.99-.07-5.99-.13-2.85-.09-4.33.34-7.06.19-2.13-.24-4.25-.4-6.39-.2-.53-.02-1.16.04-1.36.62-.3.61.23 1.41.91 1.39 1.42-.02 2.85-.19 4.28-.06 1.7.22 3.41.32 5.12.27 2.09-.28 5.07-.26 7.9-.01 2.54-.1 5.1-.01 7.63-.18.7-.15 1.35.01 2.52-.38 1.45-.67 1.79-.89 2.7-2.06.99-1.62.92-3.58 1.05-5.42.07-2.1.34-3.15.32-5.5.14-1.99-.34-4.27-.39-4.92-.16-2.23 1.85-2.03 6.39-1.79 5.39.2 10.8.24 16.18.15 5.11-.18 10.22-.09 15.32-.42 5.31-.14 10.6-.62 15.91-.63 11.57-.24 23.14.38 34.72.31.62.04 1.14-.63.95-1.25zM54.26 69.38c.54-.67.94-1.4 1-1.88.46-1.86-2.06-4.92-4.2-4.64-1.37.13-2.79.68-3.69 1.76-.55 1.07-1.1 2.44-.85 3.64.36 1 1.95.67 1.91-.39.01-.11.01-.21.02-.32 0-.03.01-.04.01-.07.11-.54.28-1.08.47-1.59.02-.04.04-.07.06-.1.53-.46.91-.66 1.67-.85.17-.03.33-.06.5-.08.05 0 .11-.01.18-.01.04 0 .08 0 .11.01.53.12.95.59 1.4 1.19.04.05.1.14.16.21.12.16.21.33.29.51 0 .01 0 .01.01.03.01.11 0 .23-.01.34-.01.06-.03.14-.05.2-.13.32-.85 1.32-1.52 1.68-.78.22-1.34.75-.96 1.63.3.4.7.51 1.13.45v.01c.02-.01.03-.01.04-.02a2 2 0 0 0 .49-.16c.57-.14.6.05.82.15 1.27 1.44 1.74 2.31.79 4.65.23-.5-.27.63-.53 1.03-.1.09-.3.29-.37.37-.12.08-.27.16-.35.2l-.09.03c-.63.24-2.62.16-3.12.03-.23-.01-.95-.47-1.68-.93-.23-.38-.44-.83-.9-.94-.62-.19-1.27.33-1.27.96-.01.42.31.73.5 1.08 1.18 1.33 3.04 2.04 4.81 1.94 1.22.03 2.54-.07 3.48-.93 1.33-1.27 1.97-3.27 2.03-5.08-.15-1.58-.99-3.18-2.29-4.11zm20.69.82c-1.13-.81-2.52-.99-3.88-.93-.62.01-1.25.08-1.85.26.03-.98 0-1.95-.02-2.93.81 0 1.62-.13 2.43-.21.85-.17 2.27-.11 2.94-.53.88-.6.14-2.07-.87-1.75-1.19.22-3.68.5-5.68.54-1.36.51-.69 2.31-.78 3.42.11 1.59-.18 2.69-.26 3.66.05.8 1.15 1.15 1.69.57.34-.54.79-.87 1.63-.97 2.45-.16 3.04-.01 4.33 1.18.03.03.05.06.08.09.47.78.65 1.63.62 2.5v.02c-.14.76-1.29 1.95-1.59 2.15-.63.74-2.96.69-3.95.57-1.37-.17-.9-.3-2.11-1.19-.73-.37-1.58.42-1.35 1.18.21.55.72.94 1.16 1.29 1.09.76 2.52.79 3.81.77 1.13-.1 2.38-.07 3.31-.8 1.19-.88 2.29-2.06 2.64-3.53.29-2-.46-4.34-2.3-5.36zM54.5 90.04c.16-.17.32-.35.44-.55.93-1.53.28-3.56-.64-4.94-1.31-1.9-4.04-1.9-5.94-.95-.95.49-1.49 1.42-1.88 2.38-.24.61-.6 1.25-.56 1.92.08 1.06 1.7 1.15 1.95.13.32-1.27.91-2.42 1.38-2.64 1.23-.55 2.6-.68 3.39.27.31.24.99 2.26.67 2.67-.08.19-.68.88-1.99 1.61-.66.36-.64 1.41.02 1.76.41.25.87.11 1.3-.01.44-.07.38-.1.78 0 .01.01.03.02.04.03.1.12.36.39.49.53.37.49.42.63.47.78.4 1.1.1 1.87-.34 2.81-.2.24-.42.46-.67.65-.14.09-.4.26-.59.36.06-.02.07-.02-.01.01-.06.03-.11.05-.15.06.03-.02.07-.03.1-.04-.01 0-.01 0-.03.01-1.74.46-2.5.63-3.29.39-.65-.16-2.13-1.1-2.68-1.39-.73-.37-1.58.42-1.35 1.18.14.51.65.75 1.08.99.96.51 1.9 1.12 3 1.3 2.5.11 5.69-.63 6.65-3.23 1.05-2.09.2-5.01-1.64-6.09z"/><path d="M52.84 96.84c-.02.01-.04.01-.06.02.02-.01.03-.01.05-.02h.01zm21.87-7.17c-1.58-1.03-3.6-1.56-5.46-1.05-.19.05-.39.12-.59.2-.04-1.03-.14-2.03-.16-2.68 1.55-.02 3.05-.43 4.56-.73.6-.18 1.42-.07 1.78-.69.46-.73-.3-1.73-1.13-1.47-1.72.3-3.47.79-4.49.87-.86.11-2.05-.26-2.54.69-.45.99-.07 2.12-.03 3.16.12 1.05-.17 2.15.06 3.16.29.8 1.47.77 1.8.05.02-.02.04-.03.06-.05.14-.09.47-.32.65-.41.32-.12.65-.19.97-.26.03-.01.05-.01.07-.01 1.61-.26 3.62.92 3.96 1.48 1.63 1.85.46 3.26-.59 4.5-.92.59-3.36.88-4.21.66-.95-.17-1.03-.58-2.19-1.35-.73-.37-1.58.42-1.35 1.18.43.86 1.42 1.4 2.24 1.86 1.32.53 2.82.49 4.18.14.81-.14 1.68-.26 2.36-.77 1.1-.86 1.89-2.17 2.29-3.5.45-1.95-.72-3.85-2.24-4.98zm6.89 10.39c-.45-.44-1.11-.28-1.67-.26-4.29.19-8.59.24-12.88.45-2.93.12-6.11.59-9.27.52-5.49-.25-11-.18-16.5-.19-1.53-.24-2.03 1.82-.41 2.02 6.36-.17 12.74.17 19.08.13 7.08-.56 13.36-.7 20.93-.96.87.03 1.35-1.12.72-1.71zm-4.22 11.01c.1-1.52-.38-2.3-.75-3.19-.64-1.7-2.16-2.76-2.91-2.99a.95.95 0 0 0-.21-.09.888.888 0 0 0-.62-.52c-1.37-.14-3-.44-4.22.33-2.31 1.96-4.18 4.86-4.23 7.97-.03 2.29 1.18 4.8 3.23 5.93 2.04.74 4.67 1.41 6.56-.01 2.92-1.74 3.29-4.15 3.15-7.43zm-2.18 3.4c0 .01 0 .01-.01.02-.4.85-.34.81-1 1.55-.33.39-1.57 1.15-1.75 1.2-.08.02-.26.06-.4.08-3.29.02-4.88-.86-5.58-3.98-.01-.15-.03-.37-.03-.47-.04-.25.08-1.5.01-.86-.02-.26.31-1.29.33-1.4.83-2.05 2.17-3.69 3.11-4.4.08-.02.14-.03.18-.04.7-.07 2.15.01 1.86-.01.1.01.21.03.32.05.15.28.44.52.89.64.07.02.13.04.17.05.03.02.07.04.1.06.53.46.49.33.74.63.12.17.47.68.54.81.01.03.01.03.02.04.18.45.35.9.55 1.34.02.03.02.04.03.06.02.05.04.1.05.15.04.41.15 3.61-.13 4.48zm.29-105.21c-1.3-1.52-3.91-1.75-4.94-1.48-.33.04-.67.1-1 .18.03-.74-.09-1.48-.1-2.21 0-.22-.05-.76-.09-1.24.09.01.17.01.26.02.93-.04 1.86-.15 2.79-.26.72-.16 1.56-.07 2.19-.46.88-.6.14-2.07-.87-1.75-1.76.26-2.52.46-4.54.45-.42-.01-.88-.16-1.28.02-.4.14-.62.56-.63.97-.01.11.02.39.05.55.08.9.14 1.8.18 2.71.07 1.17.15 1.03-.13 1.94-.03.16-.06.35-.08.5-.39.7.29 1.7 1.14 1.44.15-.09.29-.18.44-.26.6-.34 1.21-.56 1.95-.61 1.34-.16 2.39-.08 3.46 1.18.09.16.26.43.35.58.31 1.05.3 2.07.03 2.49-.71 1.27-.99 1.38-2.73 2.35-.17.06-.51.17-.66.19-.43.04-.86.05-1.28.03l-.32-.03-.16-.03c-1.24-.25-1.58-.7-1.84-1-.31-.41-.59-.94-1.07-1.17-.96-.47-1.87.9-1.09 1.62l.29.33c1.24 2.02 3.87 2.6 6.09 2.17 1.31-.31 2.42-1.13 3.45-1.95.67-.73 1.3-1.61 1.48-2.6.17-1.67-.12-3.46-1.34-4.67zm20.62-3.82c-.13-.3-.56-1.65-1.33-2.43a.937.937 0 0 0-.73-.37c-.16-.18-.4-.31-.75-.34-1.39-.09-3.01-.27-4.17.66-.75.52-1.21 1.34-1.74 2.07-.78 1.19-1.6 2.42-1.92 3.82-.21 1.86-.07 4.52.51 5.41.99 3.85 4.78 5.3 8.02 2.92 1.41-.94 2.2-2.48 2.74-4.05.16-.85.13-1.73.21-2.59.13-2.11-.19-3.67-.84-5.1zm-1.27 6.96c.11.11-.89 2.18-1.11 2.37-1.21 1.32-2.65 1.74-3.55 1.57-.68-.22-1.47-.8-1.82-1.43-.28-.47-.9-2.44-.91-2.35-.22-3.34-.11-4.02 1.79-6.71 1.22-1.64.96-1.65 3.57-1.6.16.05.31.06.45.06.21.3.28.21.56.81.04.07.07.15.1.23.01.03.03.08.05.14.06.15.34.83.37.89.77 1.81.69 2.99.5 6.02zm18.54-2.68c-.11-.05-.27-.12-.44-.19.33-.29.66-.6 1.01-.98.8-.94 1.71-1.99 1.62-3.31-.04-.67-.14-1.45-.7-1.89-.27-.24-.63-.26-.95-.14-.1-.04-.21-.06-.34-.08-1.52-.16-3.15-.42-4.63.02-1.61.62-3.26 2.07-3.18 3.93.04.83.54 1.5 1.22 1.93.62.45 1.27.8 1.91 1.08-1.5 1.23-2.47 2.67-2.56 4.41.18 1.78 1.85 3.27 3.59 3.48 2.2.22 4.85-.2 5.97-2.36 1.18-2.22-.4-4.94-2.52-5.9zm-3.74-4.71c.05-.02.12-.04.18-.06 1.1-.07 2.21-.04 3.31.11.16.05.31.07.44.06v.34c-.27 1.03-1.46 2.24-2.77 3.23-.5-.19-.97-.39-1.34-.56-.56-.27-1.09-.59-1.58-.97l-.03-.03-.02-.02a.21.21 0 0 0-.04-.06c-.01-.02-.01-.02-.01-.05-.01-.03-.01-.04-.01-.07 0-.03 0-.06-.01-.09.27-.84.6-1.21 1.88-1.83zm4.49 9.72c-.2.48-1.06 1.03-1.86 1.23-.64.06-1.28.04-1.92.05-.1 0-.2-.01-.3-.02-.05-.01-.11-.03-.17-.05-.8-.19-1.62-1.28-1.53-1.63.11-.24.38-1.45 1.11-2.03.54-.54 1.09-.94 1.65-1.34.22.08.43.17.63.25 1.66.44 3.09 2.23 2.39 3.54zm-18.39 97.24c-.56-.52-1.11-1.06-1.71-1.53-.86-.52-1.9-.74-2.9-.74-.7.02-1.44.04-2.12.23-.02-1.02-.1-2.04-.24-3.05.9-.06 2.33-.19 3.18-.33.67-.15 1.58.03 1.98-.64.46-.73-.3-1.73-1.13-1.47-.65.06-2.53.38-3.97.45-.92-.07-2.27.08-2.16 1.29.22 1.23.34 3.06.37 4.98-.02.24-.05.48-.07.72v-.01c-.01.18.02.36.13.54.42.76 1.5.55 1.79-.14l.02-.02.12-.12c.28-.36 2.13-.72 3.74-.1.07.03.14.07.2.11.1.1.52.48.63.6.2.11.77.73.91.86.04.05.07.11.1.16.28.81.29.42-.12 1.47-.01.02-.03.05-.05.07-.21.25-.82.85-.98 1.02-.61.37-1.14.59-1.19.6-.82.31-1.16.2-2.45.23-.63.03-1.03-.24-2.28-.94-.1-.11-.21-.21-.35-.25-.73-.37-1.58.42-1.35 1.18.13.45.54.73.94.92.73.45 1.52.85 2.36 1.04 1.53.12 3.15.11 4.54-.64 2.87-1.38 4.13-4.49 2.06-6.49zm1.71 16.55c-.09-1.01-.22-2.02-1.25-3.24-.62-.36-.61-.74-1.62-1.21-.5-.12-1.1-.24-1.59-.06a.79.79 0 0 0-.31.2c-1.55-.18-3.2.42-4.48 1.27-2.15 2.04-3.21 5.23-2.77 8.14.58 1.22 1.09 2.7 2.33 3.37.9.59 1.99.71 3.04.7 1.07.12 2.05-.23 2.97-.76 1.53-.81 2.58-2.39 3.23-3.95.57-1.29.55-3.86.45-4.46zm-2.04 2.66c.08.85-.96 2.69-1.8 3.48-.44.43-.5.39-1.39.84l-.24.12c-.1.03-.21.06-.28.08-.17.01-.34 0-.52 0-1.18-.04-1.23.05-2.05-.23-.12-.07-.45-.25-.62-.36l-.02-.02c-.01-.02-.02-.03-.03-.04-.43-.59-1.18-2.15-1.08-1.96-.01-.03-.01-.05-.02-.07-.03-1.41-.01-1.64.34-2.96.25-1.22 1.47-2.79 1.83-3.09.57-.36 2.12-.89 2.77-.81.5.16.89.03 1.14-.22.2.02.36 0 .47.01.1.09.3.29.38.37.09.08.35.28.51.39.18.28.34.57.49.86.02.03.02.04.03.07 0 .01.01.01.01.01.19 1.31.24 2.17.08 3.53zm4.19 9.16c-6.56.52-16.06.32-24.27.14-4.75-.25-9.5-.02-14.25-.36-1.29 0-1.32 1.99 0 2 5.85.32 11.71.2 17.56.42 4.25.11 8.51.11 12.76.17 1.93-.11 3.99-.06 5.19-.23 1.02-.14 2.06.03 3.07-.14.02 0 .02 0 .03-.01.61-.02 1.43.09 1.68-.63.42-1.21-.81-1.54-1.77-1.36zm-5.18 9.47c-1.84-1.29-4.35-1.53-6.35-.57-.15-.89-.39-1.75-.51-2.4.29-.01.44.11 1.36.17 1.85-.19 2.7-.3 4.82-.51.6-.13 1.4-.05 1.76-.65.46-.73-.3-1.73-1.13-1.47-1.02.21-2.17.29-3.79.42-1.12.16-1.08.25-1.86.2-.08-.01-.12-.02-.16-.02-.02 0-.02 0-.04-.01-.88-.17-1.94-.2-2.69.35-.3.28-.33.75-.33 1.15.18 1.78.73 2.77.69 4.08-.1 1.16 1.12 2.05 1.92 1-.06.07-.16.22-.07.1.54-.46.31-.28.61-.45.13-.07.61-.3.77-.38.1-.04.33-.08.48-.11 1.88-.22 2.81.33 3.7 1.01 2.44 3.11-1.67 6.08-4.82 4.73-.82-.51-.66-.43-1.47-1.35-.61-.54-1.63-.01-1.61.79.03.64.56 1.12 1 1.52.49.41.93.81 2.05 1.16.96.31 1.96.21 2.94.05.1-.01.69-.09.84-.15.8-.24 1.52-.66 2.11-1.26 2.33-1.85 2.17-5.71-.22-7.4zm15.8.82c-.01.01-.02.01-.03.02.79-1.99 2.02-4 3.24-5.35.92-.92-.48-2.33-1.41-1.41-1.19 1.23-3.16 4.45-3.27 5.17-.68 1.19-1.04 2.48-1.23 3.83-.28 1.84-.3 4.27 1.35 5.49 1.23.73 2.8 1.02 4.2.69 1.4-.69 1.7-1.01 2.61-1.93 3.19-4.14-.87-8.62-5.46-6.51zm2.56 6.36c-.07.05-.2.12-.28.17-.01 0-.02.01-.03.01-.04.01-.07.01-.11.02-.13.02-.3.03-.38.04-.1.01-.31-.01-.44-.02-1.4-.29-1.66-.49-1.75-.67-.39-.61-.47-1.78-.35-2.99.26-.1.52-.28.72-.53 1.74-1.53 4.73-1.03 4.64 1.05-.15 1.51-.62 1.94-2.02 2.92zM94.31 170.5c-1.24-1.13-3.11-1.55-4.74-1.2-.34.06-.67.16-.99.28v-2.52c.9-.25 1.2-.26 1.99-.32 1.03-.06 2.04-.21 3.06-.35.25-.07.47-.24.6-.46.46-.73-.3-1.73-1.13-1.47-.92.26-4.08.14-5.8.94-.97.49-.68 1.64-.72 2.54.15 1.28-.36 2.81.3 3.95.75.75 1.58-.13 2.32-.42a4.03 4.03 0 0 1 3.11.08c.11.05.32.15.43.22.3.28.56.59.83.91 1.77 3.42-.58 5.01-3.42 4.6-.73-.03-1.96-.98-2.13-1.11-.11-.03-.12-.4-.74-.62-.87-.27-1.64.83-1.08 1.55 1.22 1.5 3.25 2.44 5.2 2.21 1.12-.01 3.74-.68 4.45-2.75.78-2.08.03-4.56-1.54-6.06zm19.78.7c-.94-.64-1.8-.81-3.37-.61-.36.16-.75.3-1.14.47.41-1.21 1-2.35 1.7-2.99.59-.86 1.89-1.78 2.05-2.78.03-.86-1.12-1.34-1.71-.71-1.25 1.59-2.83 2.98-3.61 4.88-.83 2.3-1.65 4.98-.46 7.3 1.14 2.7 4.61 3.11 7.12.66 1.96-1.7 1.38-4.78-.58-6.22zm-1.21 5.14c-.02.01-.03.02-.05.03-.95.48-.94.6-1.63.71h-.16c-.77-.16-.78-.15-1.19-.41a.218.218 0 0 1-.04-.05l-.23-.3c.05.06.05.08 0 0a1.35 1.35 0 0 0-.09-.11c.03.04.06.08.09.11-.01-.02-.02-.03-.04-.06-.34-.61-.23-.41-.55-1.33-.05-.34-.04-.76.01-1.22.27-.07.49-.25.7-.44.22-.11 1.1-.6 1.35-.67-.02.01-.03.01-.04.02l.24-.09c.15.01.76-.01 1.06.01.03.01.08.02.13.04s.11.05.17.07c.58.29.8.65 1.09 1.12.04.17.17.58.21.73 0 .02 0 .04.01.07 0 .09-.01.23-.01.33-.33.95-.05.47-1.03 1.44zm-3.3-.02z"/><path d="M110.99 172.61c-.16.06-.24.11 0 0zm10.76 7.86c-.19-.72-.96-.81-1.59-.75-2.35.23-4.72.05-7.07.24-3.18-.22-6.38.08-9.56-.05-3.9 0-7.78.38-11.68.45-3.74.07-7.43-.62-11.15-.04-.99.35-.67 1.95.39 1.91 1.68-.01 3.36-.29 5.04-.13 2.76.33 5.54.3 8.31.15 3.59-.04 7.17-.49 10.76-.3 5.15-.12 10.29.05 15.43-.22.66.11 1.33-.58 1.12-1.26zm-7.71 4.07c-.05-.01-.1-.03-.15-.04-.14-.07-.28-.16-.45-.16-.03-.01-.06 0-.09 0a.799.799 0 0 0-.31-.14c-3.11-.98-5.6 1.58-6.7 4.25-.78 1.84-.66 3.9-.48 5.85.29 1.3.77 2.68 1.85 3.53.96.5 1.65.81 3.18.72.99-.06 1.86-.58 2.66-1.13 1.74-1.09 2.26-3.11 2.77-4.97.67-2.53 1.09-6.68-2.28-7.91zm.62 6.17c.02.26-.92 3.6-1.16 3.89 0 .25-1.1 1.23-1.14 1.2-1.58 1.06-2.1.86-3.25.47-.07-.03-.13-.05-.2-.08.08.04.11.06-.03-.01-.02-.01-.03-.01-.05-.02.01 0 .02.01.04.01-.01 0-.01 0-.01-.01-.02-.01-.03-.02-.04-.03l-.04-.04c-1.23-1.53-1.24-4.37-.81-6.29.61-1.67 1.19-2.7 2.84-3.73l.13-.03c.16-.01.75-.07.91-.05.08 0 .16.01.23.01.22.05.44.11.67.12.23.16.52.25.79.34.08.04.18.09.26.12.02.02.04.03.05.05.96.85 1.1 2.22.81 4.08z"/><path d="M108.89 196.19c.01 0 .02.01.03.01-.01-.01-.03-.01-.05-.02l.02.01z"/></svg>