<svg xmlns="http://www.w3.org/2000/svg" width="522.535" height="327.853" viewBox="0 0 138.254 86.745"><path style="opacity:1;vector-effect:none;fill:none;fill-opacity:.19607843;stroke:#000;stroke-width:.30000001;stroke-linecap:round;stroke-linejoin:miter;stroke-miterlimit:4;stroke-dasharray:none;stroke-dashoffset:0;stroke-opacity:1" d="M103.861 18.396h3.207v3.207h-3.207zm0-24.455h3.207v3.207h-3.207zm42.295 48.911h3.207v3.207h-3.207zm0-24.456h3.207v3.207h-3.207zm42.296 24.456h3.207v3.207h-3.207z" transform="translate(-98.656 33.958)"/><path style="fill:#008282;fill-opacity:.19607843;stroke:#008282;stroke-width:.5;stroke-linecap:butt;stroke-linejoin:miter;stroke-miterlimit:4;stroke-dasharray:none;stroke-opacity:1" d="M103.86 21.604v24.455h42.296z" transform="translate(-98.656 33.958)"/><path style="opacity:1;vector-effect:none;fill:none;fill-opacity:.19607843;stroke:#000;stroke-width:.30000001;stroke-linecap:round;stroke-linejoin:miter;stroke-miterlimit:4;stroke-dasharray:none;stroke-dashoffset:0;stroke-opacity:1" d="M103.861 42.852h3.207v3.207h-3.207z" transform="translate(-98.656 33.958)"/><path style="fill:#008282;fill-opacity:.19607843;stroke:#008282;stroke-width:.5;stroke-linecap:butt;stroke-linejoin:miter;stroke-miterlimit:4;stroke-dasharray:none;stroke-opacity:1" d="M103.86-27.306v73.365h126.886z" transform="translate(-98.656 33.958)"/><text xml:space="preserve" style="font-style:normal;font-weight:400;font-size:4.23333311px;line-height:1.25;font-family:sans-serif;letter-spacing:0;word-spacing:0;fill:#000;fill-opacity:1;stroke:none;stroke-width:.26458332" x="100.377" y="-29.329" transform="translate(-98.656 33.958)"><tspan x="100.377" y="-29.329" style="font-style:italic;font-size:6.3499999px;stroke-width:.26458332">D</tspan></text><text xml:space="preserve" style="font-style:normal;font-weight:400;font-size:4.23333311px;line-height:1.25;font-family:sans-serif;letter-spacing:0;word-spacing:0;fill:#000;fill-opacity:1;stroke:none;stroke-width:.26458332" x="232.911" y="48.891" transform="translate(-98.656 33.958)"><tspan x="232.911" y="48.891" style="font-style:italic;font-size:6.3499999px;stroke-width:.26458332">E</tspan></text><text xml:space="preserve" style="font-style:normal;font-weight:400;font-size:4.23333311px;line-height:1.25;font-family:sans-serif;letter-spacing:0;word-spacing:0;fill:#000;fill-opacity:1;stroke:none;stroke-width:.26458332" x="100.672" y="52.787" transform="translate(-98.656 33.958)"><tspan x="100.672" y="52.787" style="font-style:italic;font-size:6.3499999px;stroke-width:.26458332">F</tspan></text><path style="fill:#008282;fill-opacity:.19607843;stroke:#008282;stroke-width:.5;stroke-linecap:butt;stroke-linejoin:miter;stroke-miterlimit:4;stroke-dasharray:none;stroke-opacity:1" d="M146.156 46.059V21.604h-42.295z" transform="translate(-98.656 33.958)"/><path style="opacity:1;vector-effect:none;fill:none;fill-opacity:.19607843;stroke:#000;stroke-width:.30000001;stroke-linecap:round;stroke-linejoin:miter;stroke-miterlimit:4;stroke-dasharray:none;stroke-dashoffset:0;stroke-opacity:1" transform="rotate(180 -49.328 16.979)" d="M-146.156-24.811h3.207v3.207h-3.207z"/><path style="fill:#008282;fill-opacity:.19607843;stroke:#008282;stroke-width:.5;stroke-linecap:butt;stroke-linejoin:miter;stroke-miterlimit:4;stroke-dasharray:none;stroke-opacity:1" d="M103.86-2.852v24.456h42.296zm42.296 24.456V-2.852h-42.295z" transform="translate(-98.656 33.958)"/><path style="opacity:1;vector-effect:none;fill:none;fill-opacity:.19607843;stroke:#000;stroke-width:.30000001;stroke-linecap:round;stroke-linejoin:miter;stroke-miterlimit:4;stroke-dasharray:none;stroke-dashoffset:0;stroke-opacity:1" transform="rotate(180 -49.328 16.979)" d="M-146.156-.356h3.207v3.207h-3.207z"/><path style="fill:#008282;fill-opacity:.19607843;stroke:#008282;stroke-width:.5;stroke-linecap:butt;stroke-linejoin:miter;stroke-miterlimit:4;stroke-dasharray:none;stroke-opacity:1" d="M103.86-27.307v24.455h42.296zm42.296 48.911v24.455h42.296zm42.296 24.455V21.604h-42.296z" transform="translate(-98.656 33.958)"/><path style="opacity:1;vector-effect:none;fill:none;fill-opacity:.19607843;stroke:#000;stroke-width:.30000001;stroke-linecap:round;stroke-linejoin:miter;stroke-miterlimit:4;stroke-dasharray:none;stroke-dashoffset:0;stroke-opacity:1" transform="rotate(180 -49.328 16.979)" d="M-188.452-24.811h3.207v3.207h-3.207z"/><path style="fill:#008282;fill-opacity:.19607843;stroke:#008282;stroke-width:.5;stroke-linecap:butt;stroke-linejoin:miter;stroke-miterlimit:4;stroke-dasharray:none;stroke-opacity:1" d="M146.156-2.852v24.456h42.296zm42.296 24.456v24.455h42.295z" transform="translate(-98.656 33.958)"/><path style="opacity:1;vector-effect:none;fill:#fff;fill-opacity:1;stroke:none;stroke-width:.5;stroke-linecap:round;stroke-linejoin:miter;stroke-miterlimit:4;stroke-dasharray:none;stroke-dashoffset:0;stroke-opacity:1" d="M98.656-6.059h4.944v29.934h-4.944z" transform="translate(-98.656 33.958)"/></svg>