<svg xmlns="http://www.w3.org/2000/svg" width="369.287" height="340.612" viewBox="0 0 97.707 90.12"><path d="M13.096 94.944V16.501h31.672v31.671h46.37v46.505z" style="fill:none;stroke:#000;stroke-width:.5;stroke-linecap:butt;stroke-linejoin:miter;stroke-miterlimit:4;stroke-dasharray:none;stroke-opacity:1" transform="translate(.701 -11.132)"/><text y="14.095" x="27.261" style="font-style:normal;font-weight:400;font-size:4.23333311px;line-height:1.25;font-family:sans-serif;letter-spacing:0;word-spacing:0;fill:#000;fill-opacity:1;stroke:none;stroke-width:.26458332" xml:space="preserve" transform="translate(.701 -11.132)"><tspan style="font-style:italic;font-size:5.29166651px;stroke-width:.26458332" y="14.095" x="27.261">a</tspan></text><text y="45.366" x="66.55" style="font-style:normal;font-weight:400;font-size:4.23333311px;line-height:1.25;font-family:sans-serif;letter-spacing:0;word-spacing:0;fill:#000;fill-opacity:1;stroke:none;stroke-width:.26458332" xml:space="preserve" transform="translate(.701 -11.132)"><tspan style="font-style:italic;font-size:5.29166651px;stroke-width:.26458332" y="45.366" x="66.55">b</tspan></text><text y="34.382" x="46.82" style="font-style:normal;font-weight:400;font-size:4.23333311px;line-height:1.25;font-family:sans-serif;letter-spacing:0;word-spacing:0;fill:#000;fill-opacity:1;stroke:none;stroke-width:.26458332" xml:space="preserve" transform="translate(.701 -11.132)"><tspan style="font-style:italic;font-size:5.29166651px;stroke-width:.26458332" y="34.382" x="46.82">a</tspan></text><text y="74.466" x="93.9" style="font-style:normal;font-weight:400;font-size:4.23333311px;line-height:1.25;font-family:sans-serif;letter-spacing:0;word-spacing:0;fill:#000;fill-opacity:1;stroke:none;stroke-width:.26458332" xml:space="preserve" transform="translate(.701 -11.132)"><tspan style="font-style:italic;font-size:5.29166651px;stroke-width:.26458332" y="74.466" x="93.9">b</tspan></text><path style="opacity:1;fill:none;fill-opacity:.41860465;stroke:#000;stroke-width:.5;stroke-linecap:round;stroke-miterlimit:4;stroke-dasharray:none;stroke-dashoffset:0;stroke-opacity:1" d="M13.096 16.501H15.6v2.504h-2.504zm29.167 0h2.504v2.504h-2.504zm2.505 29.167h2.504v2.504h-2.504zm43.867 2.504h2.504v2.504h-2.504zm0 44.001h2.504v2.504h-2.504zm-75.539.267H15.6v2.504h-2.504z" transform="translate(.701 -11.132)"/><path d="M44.768 16.5h46.504" style="fill:none;stroke:#000;stroke-width:.5;stroke-linecap:butt;stroke-linejoin:miter;stroke-miterlimit:4;stroke-dasharray:1.00000003,2.00000006;stroke-dashoffset:0;stroke-opacity:1" transform="translate(.701 -11.132)"/><path d="M91.139 48.172V16.461" style="fill:none;stroke:#000;stroke-width:.5;stroke-linecap:butt;stroke-linejoin:miter;stroke-miterlimit:4;stroke-dasharray:1,2;stroke-dashoffset:0;stroke-opacity:1" transform="translate(.701 -11.132)"/><path style="opacity:1;fill:none;fill-opacity:.41860465;stroke:#000;stroke-width:.5;stroke-linecap:round;stroke-miterlimit:4;stroke-dasharray:none;stroke-dashoffset:0;stroke-opacity:1" d="M44.768 16.501h2.504v2.504h-2.504zm43.867 29.167h2.504v2.504h-2.504zm0-29.207h2.504v2.504h-2.504z" transform="translate(.701 -11.132)"/><text xml:space="preserve" style="font-style:normal;font-weight:400;font-size:4.23333311px;line-height:1.25;font-family:sans-serif;letter-spacing:0;word-spacing:0;fill:#000;fill-opacity:1;stroke:none;stroke-width:.26458332" x="-7.463" y="72.961" transform="translate(7.246 -25.915)"><tspan x="-7.463" y="72.961" style="font-style:italic;font-size:5.29166651px;stroke-width:.26458332">a+b</tspan></text><text xml:space="preserve" style="font-style:normal;font-weight:400;font-size:4.23333311px;line-height:1.25;font-family:sans-serif;letter-spacing:0;word-spacing:0;fill:#000;fill-opacity:1;stroke:none;stroke-width:.26458332" x="39.688" y="115.96" transform="translate(7.246 -25.915)"><tspan x="39.688" y="115.96" style="font-style:italic;font-size:5.29166651px;stroke-width:.26458332">a+b</tspan></text></svg>