<svg xmlns="http://www.w3.org/2000/svg" width="106" height="162.5" style="enable-background:new 0 0 106 162.5" xml:space="preserve"><path d="M16.73 30.27c-.01-.01-.03-.01-.04-.02 1.36-1.32 2.03-3.38.94-5.09-.47-.9-1.23-1.58-2.1-2.08a2.45 2.45 0 0 0-1.46-.56c-1.35-.09-2.12.18-2.84.54.55-.24-.93.32-1.11.63-1.1 1.09-1.44 2.76-1.55 4.25.08 1.06 1.7 1.15 1.95.13.21-1.5.59-2.62.9-2.84.05-.05.09-.09.14-.13.06-.04.11-.07.18-.1.21-.08.58-.23.7-.29.03-.01.03-.02.05-.02.02-.01.06-.03.13-.05-.03.01-.04.02-.05.02h.01c.01 0 .03-.01.07-.03.04-.02.07-.03.13-.06-.03.01-.07.03-.11.05.43-.15.54-.11 1.36-.09.06.01.11.03.16.04 1.21.87 1.01.52 1.64 1.45.35.67.23.36.35.81.02.2.03.41-.01.61-.11.53-.95 1.84-2.17 2.16h-.02c-.32-.01-.64.05-.87.29-.46.44-.35 1.26.2 1.57.16.08.33.11.51.13v.01c1.38.08 2.19.25 2.7 1.25.32.69.52 1.4.51 2.29-.05.18-.14.54-.2.67-.01.02-.01.02-.01.03-.13.26-.47.79-.56.93-.69.79-.4.55-1.22.86-1.31.4-1.57.4-3.09.33-.09-.01-.19-.04-.26-.06-.41-.21-.8-.45-1.18-.72-.83-.77-.74-.68-1.27-1.42-.16-.29-.37-.56-.71-.64-1.08-.28-1.66 1.06-.92 1.8 1.08 1.56 2.74 3.06 4.73 3.07 1.57.04 3.24-.19 4.58-1.06 1.1-.91 1.91-2.28 2.11-3.7 0-1.83-.61-3.97-2.3-4.96z"/><path d="M12.62 24.62c-.01 0-.01.01-.02.01.01-.01.03-.01.04-.02h-.01l-.01.01zm45.49 11.83c-.34-.11-.65.06-.98.13-.08 0-.19 0-.28-.01-.32-.05-.63-.11-.93-.24.3.17-1.19-.6-2.09-.9.44-.4.86-.82 1.2-1.31 1.1-1.57 2.24-3.29 2.39-5.25.2-3-.98-6.52-4.65-5.74-1.15.17-2.14.91-2.72 1.9-.48.78-1.13 1.65-1.15 2.58.08 1.06 1.7 1.15 1.95.13.5-1.3 1.36-2.36 1.72-2.49.93-.28 1.04-.24 1.63-.16.07.01.14.04.2.05 1.28 1.03 1.22 4.04.62 5.11-.73 1.48-1.37 2.45-2.1 3.28-.89.92-1.98 1.64-2.81 2.62-.73.68.02 1.96.97 1.67.72-.32.26-.23.74-.43.11-.03.38-.13.51-.15.15-.02.48.01.6.01.21.04.5.13.61.17.01 0 .02.01.02.01 1.4.63 2.98 1.53 4.53.92.98-.21.98-1.66.02-1.9zm17.22-1.74v-7.97c0-.88.01-1.76-.01-2.64-.02-.47-.03-1.03-.46-1.32-.52-.45-1.43-.15-1.59.52-.09.5-.24 1.3-.58 1.85-.29.49-1.11 1.41-1.97 2.29-.32.31-.75.62-.72 1.12-.03.86 1.12 1.34 1.71.71.55-.54 1.12-1.1 1.63-1.69 0 1.4-.02 2.81-.01 4.21.07 1.99-.15 4.03.09 5.99.22.65 1.16.81 1.62.32.62-.96.15-2.3.29-3.39zm24.28-6.31c-.22-1.49-.49-3.38-1.8-4.3a.745.745 0 0 0-.35-.08c-.16-.18-.4-.31-.75-.34-1.44-.02-3.12-.01-4.32.88-2.51 1.93-4.08 5.13-4.19 8.28.09 1.89.59 4.02 2.07 5.29 1.69 1.17 4 1.35 5.75.21 3.34-2.01 4.32-6.32 3.59-9.94zm-2.55 5.97c-1.37 2.49-3.48 3.2-4.99 2.48-.14-.03-.51-.26-.66-.37-.02-.02-.04-.04-.06-.05-.61-.93-.64-1.01-.91-1.92-.77-2.61.49-5.96 2.75-8.02.86-.79 1.32-.74 3.12-.82.14.03.26.04.38.03.21.33.32.36.48.89.89 2.58.9 5.81-.11 7.78z"/><path d="M103.04 19.81c-4.84-.05-9.67.06-14.51.11-14.07-.05-26.79.27-40.66.01-3.65-.03-7.29 0-10.94-.01-1.47-.04-3.02.27-3.99 1.46-.94.88-.82 2.23-.82 3.41.16 3.32.13 7.7.34 10.13.17 1.6.77 3.67.14 4.47-.72.98-3.36 1.05-6.59.98-1.54-.07-3.72.09-4.42.22-2.34-.05-4.67-.16-7.02-.11-3.95.11-7.95-.34-11.87.09-.98.35-.68 1.96.39 1.91 4.95-.2 9.9.09 14.86 0 1.24-.02 2.47.16 3.71.11 1.04-.07 1.15-.21 1.7-.21 2.08-.04 5.61.07 6.74-.09 1.61-.08 3.38-.54 4.28-1.99 1.18-2.61-.09-4.51.04-6.12-.18-2.23-.27-8.56-.3-10.75.03-.16.05-.32.09-.47.01-.01.02-.03.04-.04 1.06-1.02.32-.56 1.72-.96 2.5-.07 7.76-.02 11.25-.03 8.19.3 15.86.01 23.48 0 10.89.14 21.85-.02 32.72-.19.97-.36.69-1.97-.38-1.93zM58.68 75.36c-.8-.29-1.25-.04-2.49-.15-.62-.17-1.24-.35-1.89-.4-.46.07-.89-.08-1.37-.25.35-.36.71-.72 1.09-1.05 1.37-1.66 2.53-2.74 2.89-5.22-.36-2.87-.74-5.02-4.12-4.63-1.1.04-2.08.58-2.68 1.51-.52.72-1.19 1.57-1.2 2.48.08 1.06 1.7 1.15 1.95.13.15-.5 1.01-1.78 1.43-2.01.75-.17.34-.1.99-.15.21 0 .42-.02.63 0 .06.01.12.03.18.05.12.08.21.14.18.11.01 0 .01.01.02.01.3.89.27.56.43 1.23.74 2.51-1.34 4.19-4.27 7.21-.09.11-.19.19-.29.29-.6.32-1.13.83-1.19 1.5-.01.75.86 1.26 1.5.86.29-.22.56-.45.83-.7h.03c.1.02.22.04.29.07.85.27 1.68.59 2.59.54.04 0 .07 0 .11.01.08.01.16.02.25.04 1.11.36 2.24.43 3.4.39 1.08.15 1.69-1.28.71-1.87zm16.65-.8c.01-1.01 0-2.03-.11-3.03-.22-1.37-.12-4 .09-6.15.2-.93-.58-1.9-1.53-1.37-.75.67-.58 1.17-1.53 2.1-.86 1.16-1.58 1.13-2.1 2.11-.26.83.73 1.59 1.47 1.13.53-.38 1.04-.81 1.52-1.27-.11 2.29.17 3.47.21 5.51.06 1.13-.14 2.32.08 3.42.13.37.53.62.91.61 1.5-.12.86-2.04.99-3.06zM59.53 95.9c-.26-.44-.83-.59-1.28-.39.03-.01.05-.02.02-.01-.03.01-.06.01-.09.02-.22.01-.81.04-.98.02-.76-.07-1.49-.2-2.57-.97-.07-.06-.16-.13-.26-.2 1.15-1.37 2.07-3.02 2.41-4.75.13-1.56-.08-3.34-1.04-4.62-.77-.7-1.13-.77-2.33-1.02-.96-.01-1.97.42-2.52 1.22-.62.99-1.02 2.43-.36 3.48.6.88 2.07.14 1.75-.87-.2-.48.02-.97.12-1.22.03-.08.11-.21.17-.3l.05-.05c.08-.05.21-.13.32-.18.01 0 .01 0 .03-.01.51-.11.39-.08 1.22.24.04.04.07.07.1.11.71 1.68.89 3.29-.53 5.37-.44.74-.89 1.34-1.32 1.8-.22-.01-.46.01-.7.08-1.08.23-2.24 1.71-1.18 2.61.8.53 1.65.06 2.36-.49 1.38 1.16 3.11 1.88 4.93 1.77.96.06 2.26-.49 1.68-1.64zm16.34-6c-.13-1.98.49-4.33.14-5.48-.38-.68-1.43-.63-1.79.04-.49.97-.33.8-.97 1.51-.53.76-1.91 1.43-1.96 2.32-.03.86 1.12 1.34 1.71.71.31-.28.62-.57.93-.86-.08 2.11-.09 4.66-.04 6.46.09 1.05.18 1.21.19 1.82-.01.34.04.7.3.94.44.46 1.26.35 1.57-.2.35-.97-.06-1.78-.02-2.14-.14-1.69-.03-3.41-.06-5.12zm2.3-80a7.35 7.35 0 0 0-.82-.07c.35-1.14.53-1.77.96-2.55 2.98-4.3-.3-3.97-4.16-3.75-1.49.15-2.97.36-4.45.56-.35.02-.69.19-.87.5-.46.73.3 1.72 1.13 1.47 1.47-.24 4.63-.66 7.13-.63-.91 1.54-1.39 2.93-1.87 4.37h-.87c-.57.04-1.25-.16-1.7.29-.63.59-.15 1.74.71 1.71.39.01.78.01 1.16 0-.17.47-.36.95-.58 1.45-.33.78-.35 1.64-.63 2.43-.02.04-.02.05-.03.07-.13.28-.33.53-.35.83-.2.92 1.06 1.58 1.7.88.12-.12.19-.27.23-.43.37-.68.57-1.42.69-2.18.36-1.42.68-2.07 1.09-3.06.5.01 1 .03 1.5.1 1.56.2 1.59-2.1.03-1.99zm5.34 90.66c-.8-.3-1.75-.09-2.6-.1-2.9.4-4.52.13-8.06.18-2.77.14-5.53-.08-8.3.07-2.29-.03-4.58-.25-6.88-.2-4.33-.22-8.31.02-12.02-.14-.94.16-2.12-.12-2.92.45-.62.59-.16 1.74.71 1.71 3.98-.29 7.78 0 12.21-.11 5.52.18 11.04.37 16.56.22 3.68-.05 5.93.21 8.91-.2.84-.14 1.89.26 2.59-.31.46-.44.35-1.26-.2-1.57zm-4.58 7.09c-.34-1.16-1.38-2.19-2.55-2.49-.21-.39-.63-.66-1.13-.51-4.01.68-6.19 2.25-6.6 6.47-.09 1.52-.24 3.28.76 4.55 1.85 2.31 5.38 1.59 7.65.3.67-.49 1.05-.67 1.73-1.73.62-1.51.79-3.15.74-4.77-.03-.64-.31-1.24-.6-1.82zm-2.24 6.1c-.6.62-2.11 1.4-3.82 1.42-.3.01-.59-.01-.88-.04-.03-.01-.06-.02-.1-.03-1.05-.58-.86-.61-1.11-.94-.51-1.98-.04-5.04 1.14-6.14.48-.56 1.74-.88 3.16-1.29.07.08.14.15.24.22.16.1.34.12.53.14.06.01.14.03.22.05l.01.01a.7.7 0 0 0 .1.08c1.02.87.5.3 1 1.37.06.14.15.28.21.42v.01c.06.16.11.32.15.49-.01.98.01 1.88-.08 2.17-.35 1.34-.39 1.74-.77 2.06zm22.12-5.86c-.34-1.36-1.85-2.25-2.3-2.6-.33-.29-.74-.32-1.08-.2-1.52-.32-3.16-.26-4.59.33-.91.59-1.66 1.42-2.16 2.38-1.2 1.66-1.23 3.85-.78 5.78.7 3.29 4.83 3.76 7.41 2.41 2.69-.92 4.05-4.61 3.5-8.1zm-2.31 4.08c-.05.15-.23.62-.27.72-.05.1-.11.2-.15.25-1.61 2.06-5.12 2.15-5.86.98-.55-.89-.57-1.43-.57-2.62-.02-1.45.24-1.69 1.24-3.29.18-.17.65-.62.8-.78.02-.02.05-.03.07-.05.27-.11.94-.27 1.81-.29.99-.02.73 0 1.81.23.1.03.2.02.3.02.24.17.5.32 1.01.88.05.08.12.19.18.3v.02c.01.15.04.46.04.59 0 1.53.04 1.67-.41 3.04zm.22 13.56c-.54-.47-1.24-.43-1.63-.09-.38-.23-.79-.42-1.21-.53-1.12-.18-2.29.07-3.32.52-1.67 1.18-2.59 3.18-2.86 5.16-.08.97-.31 1.98.19 2.88.88 1.85 2.82 3.09 4.8 3.44 3.06.01 6.31-2.37 6.32-5.6.08-2.09-.58-4.47-2.29-5.78zm-.62 7.85c-1 1.1-2.15 1.45-3.33 1.53-1.66-.49-2.93-1.45-3.24-2.71.03-.37.11-1.88.56-3.06.11-.19.57-1.01.78-1.32.11-.1.46-.46.67-.65.48-.2 2.01-.52 2.29-.13.78.29.51.59 1.48.78.27.01.49-.1.66-.27.44.49.91 1.98 1 2.44.09 2.02 0 2.44-.87 3.39zm7.05 7.72c-.11.01-.22.03-.32.07.01-.02-.03-.01-.21.04-3.58.37-10.02.18-14.6-.15-4.32-.16-8.66-.09-12.99-.29-3.91-.13-7.86-.7-11.75-.45-.99.36-.67 1.95.39 1.91 3.46.06 6.9.19 10.34.51 4.63.18 9.26.18 13.89.3 5.15.28 10.37.72 15.49.03 1.12-.28.93-1.97-.24-1.97zM99.26 8.72c-.43-2.25-1.08-3.17-1.76-4.46-.15-.46-.56-.64-.96-.62a.898.898 0 0 0-.69-.29c-1.17-.04-2.42.04-3.52.45-.79.41-1.51.99-2.16 1.6-1.26 1.86-1.83 4.16-1.96 6.38-.63 6.64 3.52 7.98 8.44 4.83 2.5-1.66 2.82-5.15 2.61-7.89zm-2.15 3.31c-.23 1.13-.23 1.34-.65 1.98-.44.57-.2.39-.59.71-2.18 1.58-4.37 1.76-4.73 1.3-1.15-.91-1.01-2.42-.86-4.91.06-1.27.72-3.19 1.37-4.35.13-.13.79-.73 1.42-1.09.53-.23 1.34-.36 2.74-.32.31.79.54.69.81 1.53.7 1.43.92 3.42.49 5.15zm1.59 136.05c-.57-.98-1.35-2.1-2.55-2.29-.47-.16-.9 0-1.18.29-4.45.57-6.34 2.29-6.67 6.81-.62 2.6 1.58 4.88 4.02 5.33 1.39.27 2.72-.29 3.95-.87 3.07-1.55 4.14-6.4 2.43-9.27zm-1.89 6.02c-.75 1.22-1.06 1.36-2.22 1.8-.97.32-.92.43-1.56.37-1.31.01-2.9-1.36-2.81-2.32.2-2.91.61-4.22 1.79-5 .29-.16 1.94-.74 3.07-.88.32-.05.68-.07.97-.2.01.01.02.01.03.02.02.02.04.03.06.06.56.54 1.06 1.47 1.26 2.05.25 1.1.04 3.1-.59 4.1z"/></svg>