<svg viewBox="0 0 30.719 39.159" xmlns="http://www.w3.org/2000/svg"><g transform="translate(-39.545 -129)"><g transform="matrix(.34613 0 0 .34613 6.3956 97.376)" fill="#e7e7e7"><path transform="matrix(.7644 0 0 .7644 95.772 91.36)" d="m60.165 123s25.617 10.187 38.145 14.669c3.049 1.0824 4.1543 0.84577 4.1543-0.89063 0.19442-0.91269 1.0174-1.025 1.6777-1.5117 0.52875-0.56758 0.91313-0.66849 1.8633-0.49023 1.2677 0.23782 2.3438-0.41393 2.3438-1.4199 0-0.43036 0.17142-0.42728 1.25 0.0234 2.0368 1.999 9.1029-1.006 5.5566-2.877-4.7233-2.245-9.5731-3.0567-14.248-5.0625-7.935-3.3922-14.736-5.6507-22.182-9.1661-9.6611 2.6064-18.561 6.7262-18.561 6.7262z" stroke-width=".34613"/><path transform="matrix(.7644 0 0 .7644 95.772 91.36)" d="m41.217 50.891-8.1964 0.97238 0.59998 5.8974s2.0104 0.78414 3.8964 5.6149c0.92729 0 3.0936-1.736 2.8153-2.4417-0.5889-1.494-0.58948-4.1286-2e-3 -5.3672 0.32633-0.8447 0.7729-0.82029 0.76535-1.1671-0.14901-0.24108 0.15514-0.6254 0.32645-0.74693 0.34576-0.96613 0.03516-1.7408-0.20503-2.7617zm-14.744 21.912c-2.0308 6.4345-9.1526 13.085-5.4512 18.711 3.2487 4.9381 5.7301 8.7302 8.834 13.449-0.83764 1.585-1.5815 3.236-2.1289 4.9277-0.59503 2.2617-3.0772 7.3871-4.6758 9.6524-1.4909 2.1128-2.1772 3.343-3.332 5.9707-2.7569 4.0323 14.153 2.1342 14.508 1.3359 0.38031-2.4136-2.1004-3.5895-4.7031-3.6797 0.69297-1.0011-1.4101-2.4398-2.9121-3.0918 2.0577-3.5916 3.822-7.1866 5.3828-10.471 2.7725-4.4477 1.354-6.5414 1.0664-9.1211-0.65765-9.5132 0.73323-17.849 0.10547-26.094-0.95023-5.2711-4.7251-7.0044-6.6934-1.5898zm-18.474 20.493c-0.31318 2.7112 2.0175 6.0018 3.3642 7.9019 1.9959 2.8219 3.6392 5.2562 5.5879 8.125-1.6541 2.7797-7.1814 13.932-6.1337 15.07 0.27703 0.17523 2.1379 0.47683 2.709 0.47814 0 0 5.0841-10.761 7.5271-15.498-3.8396-5.1086-7.4416-10.727-10.509-15.251-0.90157-0.59699-1.8184-1.3425-2.5458-0.82588z" stroke-width=".34613"/><path transform="matrix(.26458 0 0 .26458 95.772 91.36)" d="m78.24 348.86c-1.0723 0.0598-2.0838 0.67829-2.6191 1.377-0.79279 1.0676-1.8179 4.0366-1.4414 4.334 8.3287 1.6426 13.207-2.0285 5.1367-5.5664-0.35557-0.12238-0.71872-0.16448-1.0762-0.14453z"/><path transform="matrix(.26458 0 0 .26458 95.772 91.36)" d="m97.849 369.19s-34.185 16.246-44.329 16.619c-15.572 0.57236-21.719-8.4461-29.046-5.347 4.1318 4.7575 10.138 7.6851 14.818 10.02 34.372 12.383 66.981 21.432 101.73 35.354 5.9173 2.4151 5.7348 2.4253 8.4531-0.50781 7.5615-3.7906 10.175 1.3408 17.602 2.0254 5.5716-6.2336-1.4272-9.7713 6.9629-6.4746 5.133 2.0232 8.2681 1.6353 9.1914-1.1348 0.28161-0.84464 1.3792-0.79063 4.1328 0.20508 4.8796 1.7645 7.2208 0.41641 7.0039-4.0352 1.1068-7.6757 13.144 4.4054 17.047-1.293 1.7909-2.8569-0.41661-4.9584-9-8.5684-33.968-14.243-68.351-29.321-104.57-36.862z"/><path d="m144.27 109.95 0.0437 74.136 9.5408-3.6739-0.35963-73.331z"/><ellipse transform="matrix(.95221 -.30544 .46076 .88753 0 0)" cx="52.07" cy="123.81" rx="6.6596" ry="1.4085"/></g><ellipse cx="53.772" cy="143.9" rx="1.3758" ry="1.6676" fill="#e7e7e7"/><path d="m43.463 164.73c-0.21674-0.0941-0.3892-0.25749-0.4851-0.45959-0.13444-0.28331-0.18597-0.31371-0.53373-0.31484-0.58437-2e-3 -0.76194-0.0787-0.93812-0.40587-0.2028-0.37657-0.14766-0.86714 0.16811-1.4958 0.12674-0.25235 0.19584-0.49407 0.15354-0.53717-0.09812-0.1 0.18671-1.3142 0.65069-2.7738 0.2703-0.85033 0.33372-1.156 0.25051-1.2074-0.06128-0.0379-0.1461-0.0475-0.18849-0.0212-0.04239 0.0262-0.12678 8e-3 -0.18753-0.0395-0.06076-0.0479-0.29592-0.11007-0.52258-0.13812-0.32014-0.0396-0.47104-0.11985-0.67611-0.35937-0.25643-0.29951-0.2635-0.33487-0.24678-1.2349 0.01128-0.60683-0.01845-0.94865-0.08617-0.99049-0.13856-0.0856-0.90105-1.2805-1.1097-1.739-0.2065-0.45373-0.22341-1.6631-0.03073-2.198 0.07259-0.20148 0.1326-0.44349 0.13336-0.53781 7.05e-4 -0.0943 0.24922-0.43644 0.55213-0.76025l0.55075-0.58875-0.0092-18.536 0.30096-0.20914c0.83232-0.57841 2.2036-1.017 3.6441-1.1655 0.43689-0.0451 0.69322-0.024 0.9616 0.0786 0.20126 0.077 2.035 0.68174 4.075 1.3439 2.04 0.66214 4.5333 1.4714 5.5407 1.7984 1.0074 0.32696 2.2644 0.7356 2.7934 0.9081 0.52898 0.1725 1.0276 0.31363 1.1081 0.31363 0.29192 0 0.86517 0.51288 0.98326 0.87971 0.09028 0.28044 0.10902 3.034 0.0877 12.888l-0.0271 12.532-0.22446 0.18175c-0.15662 0.1268-0.33655 0.17492-0.59528 0.15915-0.39066-0.0239-0.43423-0.0121-1.2523 0.33817-0.28333 0.12129-0.55688 0.22053-0.60789 0.22053-0.21736 0-1.3039 0.57779-1.3039 0.69338 0 0.0696-0.10135 0.19304-0.22524 0.2742-0.27701 0.18151-0.40436 0.15641-2.1559-0.42486-2.7515-0.91313-6.4415-2.0992-6.4616-2.0769-0.01149 0.0127-0.12336 0.23684-0.2486 0.49804-0.12525 0.2612-0.31332 0.61341-0.41794 0.78269l-0.19022 0.30778 0.30653 0.16508c0.16859 0.0908 0.3434 0.2477 0.38846 0.34869 0.04733 0.10604 0.27083 0.24729 0.52909 0.33436 0.642 0.21645 0.81632 0.49001 0.73369 1.1514-0.05896 0.47193-0.0986 0.54486-0.40692 0.7489-0.18787 0.12434-0.60519 0.32278-0.92738 0.44098-0.32218 0.1182-0.91548 0.36655-1.3184 0.55187-0.88927 0.409-1.9579 0.52477-2.5342 0.27453zm2.2463-0.35111c0.69735-0.31897 1.5178-0.6587 1.799-0.74494 0.36661-0.11242 0.91581-0.49215 0.91581-0.6332 0-0.0901-0.15787-0.0345-0.51904 0.18302-0.28548 0.1719-0.60486 0.33856-0.70975 0.37034-0.10489 0.0317-0.60862 0.23842-1.1194 0.4592-1.0291 0.44482-1.5943 0.50866-2.4767 0.27977-0.36604-0.095-0.4594-0.0968-0.42543-8e-3 0.17875 0.4658 1.607 0.51877 2.5355 0.094zm0.6416-0.68474c1.4838-0.6449 1.7674-0.80465 2.0128-1.1339l0.10099-0.26341-0.09968-0.2381c-0.23167-0.3103-0.44261-0.37075-1.3339-0.38228-0.46461-6e-3 -0.73761 0.03-0.79815 0.10536-0.75311 0.93703-1.0379 1.0985-1.8776 1.0647l-0.54288-0.0219-0.16913 0.49742c-0.21157 0.62223-0.18627 0.75583 0.15704 0.8293 0.82974 0.17756 1.2727 0.0982 2.5505-0.4572zm-2.93-0.26992c0.1832-0.65293 0.18545-0.74954 0.01748-0.74954-0.17513 0-0.22244 0.0898-0.31867 0.60484-0.15281 0.81797 0.0808 0.93019 0.3012 0.1447zm-0.58321 0.25785c0-0.0504-0.13553-0.0916-0.30117-0.0916s-0.45412-0.078-0.64106-0.17329c-0.18695-0.0953-0.3399-0.1444-0.3399-0.10909 0 0.10773 0.22074 0.34996 0.36632 0.40199 0.24355 0.087 0.91581 0.0665 0.91581-0.0281zm0.18189-0.72733c0.12333-0.51409 0.06074-0.82896-0.16516-0.8308-0.08475-6.5e-4 -0.24248-0.0249-0.35052-0.054-0.17018-0.0456-0.22218 0.0162-0.38922 0.46259-0.10604 0.28342-0.1928 0.55629-0.1928 0.6064 0 0.12418 0.35044 0.2555 0.70062 0.26254 0.27138 5e-3 0.29495-0.021 0.39708-0.44678zm-1.0487-0.50764c0.12105-0.29784 0.16972-0.52887 0.11812-0.56076-0.10561-0.0652-0.10565-0.0652-0.29287 0.30299-0.14154 0.27839-0.2148 0.94799-0.09007 0.82326 0.03243-0.0325 0.15159-0.28689 0.26482-0.56549zm3.2296 0.0989c0.37773-0.19654 0.59436-0.48002 1.0914-1.4282 0.25083-0.47851 0.82153-1.55 1.2682-2.3811 1.0086-1.8765 1.0127-1.9157 0.32111-3.068-0.27208-0.45332-0.71395-1.1387-0.98193-1.5231-0.26797-0.38441-0.66875-1.0438-0.89062-1.4653-0.35937-0.68275-0.47195-0.81342-1.0316-1.1974-0.70041-0.48058-1.2644-0.71015-2.4141-0.98264-0.79208-0.18773-2.1926-0.30751-2.3567-0.20156-0.37769 0.24384-0.60784 1.664-0.39365 2.429 0.20444 0.73018 1.7255 2.8039 2.8191 3.8434 0.55718 0.52959 0.6925 0.81841 0.48206 1.0288-0.28386 0.28386-1.2183 3.6766-1.0804 3.9229 0.11435 0.20434 0.56442 0.41929 0.87791 0.41929 0.23939 0 0.29345-0.0613 0.54539-0.61817 0.15381-0.34 0.3096-0.7212 0.34619-0.84713 0.08368-0.28793 0.81352-1.7512 1.0991-2.2035l0.21455-0.33987-0.20062-0.2701c-0.11034-0.14856-0.28027-0.34901-0.37761-0.44544-0.09734-0.0964-0.40153-0.52563-0.67597-0.95378-0.27445-0.42813-0.73012-1.1356-1.0126-1.5721l-0.51361-0.79368-0.59624-0.15824c-0.68236-0.18109-1.0999-0.3711-1.0999-0.50049 0-0.11831 0.0045-0.11743 0.47901 0.0925 0.55587 0.24589 1.6129 0.45939 2.2744 0.45939 0.30128 0 0.5435 0.0408 0.5435 0.0916 0 0.10993-0.07403 0.11915-0.75555 0.0941-0.28962-0.0106-0.52659 7e-3 -0.52659 0.0389 0 0.0321 0.17515 0.32247 0.38922 0.64539s0.65024 0.99305 0.96926 1.4892c0.31902 0.49613 0.74974 1.0804 0.95715 1.2984l0.37711 0.39634-0.21366 0.37706c-0.56257 0.9928-0.77346 1.413-1.0555 2.103-0.16786 0.41072-0.41562 0.98373-0.55059 1.2734-0.13496 0.28963-0.23207 0.59506-0.21578 0.67875 0.0661 0.33967 1.3902 0.52802 1.8887 0.26865zm1.9214-1.2516c0.03649-0.19269-0.41366-0.40222-0.57552-0.26789-0.06447 0.0535-0.139 0.18057-0.16562 0.28237-0.0436 0.16673-0.01066 0.18231 0.33274 0.15726 0.25866-0.0189 0.3899-0.0741 0.4084-0.17174zm9.6421-0.45456c0.17265-0.0924 0.17714-0.26418 0.17714-6.7716 0-4.3524 0.03188-6.6965 0.09158-6.7334 0.06074-0.0375 0.09158 2.1951 0.09158 6.6287v6.6852l0.82423-0.28084v-2.5099c0-1.6122 0.03274-2.5099 0.09158-2.5099 0.05879 0 0.09158 0.88301 0.09158 2.4659v2.4659l0.73079-0.30693 0.0011-3.8693c7.05e-4 -2.5179 0.03292-3.8693 0.0925-3.8693 0.05951 0 0.09208 1.2907 0.09298 3.6861 7.06e-4 2.0496 0.03834 3.7445 0.08461 3.8176 0.06895 0.10897 0.10792 0.11097 0.22755 0.0117 0.13012-0.10799 0.14435-1.3504 0.14435-12.604 0-8.2644-0.03111-12.503-0.09202-12.541-0.1082-0.0669-1.7281 0.41565-2.518 0.75007l-0.54949 0.23261 0.02312 12.559c0.0127 6.9075 0.04232 12.611 0.06581 12.674 0.05188 0.13911 0.1006 0.14202 0.32922 0.0197zm-3.3223-0.80897c0.82253-0.55408 1.5568-1.133 2.327-1.8345l0.44238-0.40295-0.0242-9.1673-0.02419-9.1672-0.62996-0.9812c-0.34648-0.53966-0.75278-1.1166-0.9029-1.2821-0.15012-0.16551-0.37824-0.46537-0.50695-0.66636-0.2078-0.3245-0.66631-0.93742-1.3887-1.8564-0.21649-0.27539-0.47676-0.3773-3.3485-1.3112-1.7126-0.55692-3.9315-1.2807-4.931-1.6084-0.99949-0.32772-1.8343-0.57886-1.855-0.55807-0.0208 0.0207-0.02724 3.4929-0.01437 7.7158l0.02343 7.678 0.24272-0.35964c0.13349-0.19781 0.59486-0.72093 1.0253-1.1625 0.57518-0.5901 0.93431-0.87461 1.3553-1.0737l0.57275-0.27087 0.03215-0.60819c0.04031-0.76225 0.38628-1.6526 0.80485-2.0711 0.18994-0.18995 0.55461-0.39945 0.93265-0.5358 0.57215-0.20638 0.75054-0.22391 2.2782-0.22391 1.7851 0 2.0334 0.0527 2.2246 0.47227 0.25152 0.55202-3.46e-4 1.0945-0.67588 1.4555-0.2909 0.15545-0.32914 0.2141-0.29474 0.45204 0.02173 0.15038-0.0057 0.34589-0.06104 0.43447-0.0761 0.12185-0.06187 0.27002 0.05849 0.60889 0.19393 0.54602 0.19661 0.64208 0.02333 0.83357-0.07466 0.0825-0.23222 0.33243-0.35013 0.5554-0.16172 0.30583-0.33522 0.46854-0.70625 0.66237l-0.49186 0.25695 0.03768 0.8891c0.07251 1.7112-0.0354 2.9532-0.36302 4.1782-0.50476 1.8873-0.68115 3.7328-0.42805 4.4783 0.20832 0.61359 0.18778 1.0597-0.06619 1.4381-0.11772 0.17539-0.40954 0.67951-0.6485 1.1202-0.39439 0.72746-0.41899 0.80734-0.26676 0.86616 0.13734 0.053 4.686 1.5561 4.7732 1.5772 0.01454 4e-3 0.38543-0.23545 0.82423-0.53105zm-0.14147-14.477c-1.0371-0.47664-1.3716-1.0578-1.2545-2.1793 0.08025-0.76805 0.22443-1.0586 0.67238-1.355 0.54715-0.36209 0.9163-0.38308 1.4669-0.0834 0.63584 0.34607 1.0161 1.0719 1.0161 1.9396 0 0.6647-0.25014 1.3537-0.57847 1.5934-0.34592 0.2525-0.88254 0.28688-1.3224 0.0847zm1.214-0.25932c0.33614-0.28854 0.45791-0.6567 0.45791-1.3845 0-0.9619-0.24195-1.4516-0.88098-1.7832-0.55801-0.28951-0.62662-0.29288-1.0953-0.0538-0.47015 0.23985-0.6943 0.61589-0.77341 1.2974-0.11536 0.99397 0.14309 1.4911 1.0102 1.9433 0.36719 0.19145 1.048 0.18123 1.2815-0.0192zm-1.1873-0.69299c-0.14236-0.10409-0.16068-0.20526-0.11583-0.63981 0.02932-0.2839 0.01509-0.53978-0.03157-0.56862-0.12969-0.0802-0.10093-0.46374 0.04378-0.58383 0.1864-0.1547 0.60146-0.0216 0.71593 0.22969 0.07627 0.16739 0.06282 0.26598-0.06231 0.45696-0.12595 0.19222-0.14659 0.34737-0.09798 0.7364 0.05538 0.44323 0.04424 0.49286-0.11067 0.49286-0.09474 0-0.24835-0.0556-0.34135-0.12365zm6.8633 14.662c0.03139-0.26462 0.04467-5.9695 0.02952-12.678l-0.02755-12.196-0.19242-0.25854c-0.22229-0.29869 0.1966-0.14973-6.9967-2.488-6.7394-2.1908-7.3683-2.3944-7.3952-2.3949-0.0126-2.3e-4 -0.02288 0.0732-0.02288 0.16315 0 0.12754 0.24705 0.24685 1.1219 0.54179 0.61703 0.20803 2.5025 0.85063 4.1898 1.428s4.3043 1.4719 5.8154 1.9878 2.7987 0.98571 2.8613 1.044c0.08967 0.0835 0.11425 2.792 0.11574 12.75 0.0011 6.9544 0.02734 12.67 0.05846 12.701 0.03112 0.0311 0.13059 0.0169 0.22106-0.0315 0.11218-0.06 0.18264-0.24103 0.22156-0.56915zm-17.169-1.9762c0-0.0416-0.10303-0.1724-0.22895-0.29071l-0.22895-0.21508v0.22965c0 0.1263 0.02748 0.25713 0.06105 0.2907 0.08706 0.0871 0.39685 0.0757 0.39685-0.0145zm5.6516-1.5629c-0.12715-0.50645-0.13913-0.80707-0.07336-1.8416 0.04323-0.67999 0.1246-1.4218 0.18083-1.6485 0.37018-1.4924 0.56008-2.3784 0.56014-2.6136l7e-5 -0.27121-0.89299 0.0319c-0.49114 0.0175-0.91359 0.0519-0.93878 0.0763-0.0252 0.0245-0.04579 1.2052-0.04579 2.624v2.5796l0.57238 0.96014c0.31481 0.52807 0.57659 1.0432 0.58173 1.1448 0.0061 0.1216 0.04321 0.0786 0.10853-0.12593 0.07755-0.24281 0.06603-0.44261-0.05277-0.91581zm-0.63749-4.5964c-0.08815-0.0514-0.16027-0.1595-0.16027-0.24036 0-0.13331 0.01561-0.13288 0.16748 4e-3 0.09211 0.0834 0.25696 0.15156 0.36633 0.15156 0.10936 0 0.19885 0.0412 0.19885 0.0916 0 0.1181-0.36505 0.11343-0.57238-7e-3zm-0.80412 1.175c-0.0031-2.1323-0.01038-2.1455-0.46392-0.83657-0.45022 1.2994-0.4496 1.4838 0.0074 2.1852 0.21408 0.32857 0.405 0.59741 0.42427 0.59741 0.01928 0 0.03378-0.87574 0.03226-1.9461zm-0.91303 0.0102c0-0.10175 0.20606-0.73484 0.45791-1.4069 0.41047-1.0953 0.45791-1.2983 0.45791-1.9597 0-0.68589-0.01609-0.74831-0.22895-0.88777-0.31593-0.20702-0.28886-0.34781 0.03469-0.18049 0.31135 0.161 0.37694 0.30205 0.37882 0.81457 2e-3 0.59139 0.03749 0.61194 0.94202 0.54811 1.1404-0.0805 1.1207-0.0543 1.0996-1.4588-0.03365-2.2377-0.26673-2.9117-1.1741-3.395-1.009-0.5374-2.2634-0.62209-3.0757-0.20766-0.46484 0.23715-1.8888 1.6671-2.3209 2.3308-0.49479 0.75989-1.4725 2.064-2.1017 2.8034l-0.59317 0.69708 0.84097 0.0631c2.2784 0.17093 4.5539 1.193 5.0249 2.257 0.12458 0.28145 0.25773 0.27221 0.25773-0.0179zm4.2564-7.2182c0.09103-0.17602 0.13947-0.5258 0.13947-1.0069 0-0.63993-0.02115-0.73758-0.16027-0.74011-0.14244-3e-3 -0.1399-0.0175 0.02288-0.13425 0.35423-0.254 0.389-0.3088 0.34429-0.54269-0.05307-0.27761-0.08652-0.28264-0.57627-0.0867-0.26845 0.10741-0.41673 0.24223-0.5288 0.4808-0.18288 0.38931-0.51646 0.49813-0.61127 0.1994-0.03292-0.10373-0.14653-0.23498-0.25247-0.29168-0.15724-0.0841-0.21496-0.0725-0.31433 0.0634-0.15487 0.21179-0.15236 0.29951 0.01793 0.62605 0.12406 0.23788 0.12373 0.28198-0.0031 0.42217-0.12973 0.14334-0.11512 0.17679 0.17327 0.39675 0.27612 0.2106 0.46973 0.57152 0.66 1.2304 0.0555 0.19215 0.92518-0.30042 1.0887-0.61661zm0.43574-1.0314c-0.09458-0.19633-0.10109-0.18982-0.10691 0.1069-0.0047 0.24084 0.01921 0.29054 0.10071 0.20905 0.07905-0.0791 0.08066-0.16139 0.0061-0.31595zm5.7494-8.8504c0.17555-0.0936 0.78141-0.3079 1.3464-0.47628 0.56495-0.16837 1.0156-0.31768 1.0016-0.33178-0.02319-0.0231-4.7704-1.6596-6.333-2.183-0.35259-0.11811-2.1025-0.71346-3.8888-1.323-2.3877-0.81479-3.3153-1.0934-3.503-1.0522-0.14039 0.0308-0.25526 0.088-0.25526 0.12696 0 0.039 1.3433 0.56117 2.9851 1.1604 3.1021 1.1322 3.2259 1.1823 3.1379 1.2703-0.02935 0.0293-1.079-0.32202-2.3327-0.78083-4.5988-1.6831-4.271-1.5834-4.6637-1.4192-0.18994 0.0794-0.31763 0.17199-0.28377 0.20586 0.03385 0.0339 1.3732 0.53816 2.9763 1.1207 1.6031 0.58251 2.9108 1.1003 2.906 1.1507s-0.04997 0.0781-0.10034 0.0616c-0.05037-0.0164-1.4928-0.53909-3.2053-1.1615l-3.1138-1.1316-0.57238 0.15209c-0.31481 0.0837-0.57238 0.17526-0.57238 0.20357 0 0.0283 0.64908 0.26238 1.4424 0.52017 8.8153 2.8645 10.456 3.3947 11.471 3.7063 0.3274 0.1006 0.65709 0.21826 0.73265 0.26147 0.22162 0.12673 0.4845 0.101 0.82559-0.0808zm-13.714-4.8244c0.62256-0.17912 2.4774-0.72124 2.3047-1.1512-0.06725-0.10881-0.60748-0.0581-1.734 0.16259-0.73455 0.14394-2.4269 0.86721-2.4269 1.0372 0 0.11818 0.5518 0.27337 0.77844 0.21893 0.10074-0.0242 0.58573-0.1446 1.0778-0.26754z" stroke-width=".091581"/></g></svg>
